<?xml version="1.0" encoding="UTF-8" standalone="no"?>
<!DOCTYPE svg PUBLIC "-//W3C//DTD SVG 1.1//EN"
 "http://www.w3.org/Graphics/SVG/1.1/DTD/svg11.dtd">
<!-- Generated by graphviz version 2.36.0 (20140111.2315)
 -->
<!-- Title: Element Pages: 1 -->
<svg width="1433pt" height="800pt"
 viewBox="0.00 0.00 1433.00 800.00" xmlns="http://www.w3.org/2000/svg" xmlns:xlink="http://www.w3.org/1999/xlink">
<g id="graph0" class="graph" transform="scale(1 1) rotate(0) translate(4 796)">
<title>Element</title>
<!-- Node1 -->
<g id="node1" class="node"><title>Node1</title>
<polygon fill="#bfbfbf" stroke="black" points="903.527,-537 903.527,-791 1008.47,-791 1008.47,-537 903.527,-537"/>
<text text-anchor="middle" x="956" y="-779" font-family="Helvetica,sans-Serif" font-size="10.00">Element</text>
<polyline fill="none" stroke="black" points="903.527,-773 1008.47,-773 "/>
<text text-anchor="start" x="911.527" y="-761" font-family="Helvetica,sans-Serif" font-size="10.00"># flags</text>
<polyline fill="none" stroke="black" points="903.527,-755 1008.47,-755 "/>
<text text-anchor="start" x="911.527" y="-743" font-family="Helvetica,sans-Serif" font-size="10.00">+ Element()</text>
<text text-anchor="start" x="911.527" y="-733" font-family="Helvetica,sans-Serif" font-size="10.00">+ Element()</text>
<text text-anchor="start" x="911.527" y="-723" font-family="Helvetica,sans-Serif" font-size="10.00">+ setup()</text>
<text text-anchor="start" x="911.527" y="-713" font-family="Helvetica,sans-Serif" font-size="10.00">+ parent()</text>
<text text-anchor="start" x="911.527" y="-703" font-family="Helvetica,sans-Serif" font-size="10.00">+ set_parent()</text>
<text text-anchor="start" x="911.527" y="-693" font-family="Helvetica,sans-Serif" font-size="10.00">+ draw()</text>
<text text-anchor="start" x="911.527" y="-683" font-family="Helvetica,sans-Serif" font-size="10.00">+ draw()</text>
<text text-anchor="start" x="911.527" y="-673" font-family="Helvetica,sans-Serif" font-size="10.00">+ draw()</text>
<text text-anchor="start" x="911.527" y="-663" font-family="Helvetica,sans-Serif" font-size="10.00">+ draw()</text>
<text text-anchor="start" x="911.527" y="-653" font-family="Helvetica,sans-Serif" font-size="10.00">+ set_dim()</text>
<text text-anchor="start" x="911.527" y="-643" font-family="Helvetica,sans-Serif" font-size="10.00">and 40 more...</text>
<text text-anchor="start" x="911.527" y="-633" font-family="Helvetica,sans-Serif" font-size="10.00">+ dim_on_bitmap()</text>
<text text-anchor="start" x="911.527" y="-623" font-family="Helvetica,sans-Serif" font-size="10.00">+ center()</text>
<text text-anchor="start" x="911.527" y="-613" font-family="Helvetica,sans-Serif" font-size="10.00">+ scale()</text>
<text text-anchor="start" x="911.527" y="-603" font-family="Helvetica,sans-Serif" font-size="10.00">+ set_scale()</text>
<text text-anchor="start" x="911.527" y="-593" font-family="Helvetica,sans-Serif" font-size="10.00"># draw_scroll()</text>
<text text-anchor="start" x="911.527" y="-583" font-family="Helvetica,sans-Serif" font-size="10.00"># setup_element()</text>
<text text-anchor="start" x="911.527" y="-573" font-family="Helvetica,sans-Serif" font-size="10.00"># dim_on_bitmap()</text>
<text text-anchor="start" x="911.527" y="-563" font-family="Helvetica,sans-Serif" font-size="10.00"># point_on_bitmap()</text>
<text text-anchor="start" x="911.527" y="-553" font-family="Helvetica,sans-Serif" font-size="10.00"># adjust_x_center()</text>
<text text-anchor="start" x="911.527" y="-543" font-family="Helvetica,sans-Serif" font-size="10.00"># pixel_padding()</text>
</g>
<!-- Node2 -->
<g id="node2" class="node"><title>Node2</title>
<g id="a_node2"><a xlink:href="class_button_bar.html" target="_top" xlink:title="Button Bar. ">
<polygon fill="none" stroke="black" points="327.759,-320 327.759,-474 408.241,-474 408.241,-320 327.759,-320"/>
<text text-anchor="middle" x="368" y="-462" font-family="Helvetica,sans-Serif" font-size="10.00">ButtonBar</text>
<polyline fill="none" stroke="black" points="327.759,-456 408.241,-456 "/>
<text text-anchor="middle" x="368" y="-444" font-family="Helvetica,sans-Serif" font-size="10.00"> </text>
<polyline fill="none" stroke="black" points="327.759,-438 408.241,-438 "/>
<text text-anchor="start" x="335.759" y="-426" font-family="Helvetica,sans-Serif" font-size="10.00">+ ButtonBar()</text>
<text text-anchor="start" x="335.759" y="-416" font-family="Helvetica,sans-Serif" font-size="10.00">+ set_left()</text>
<text text-anchor="start" x="335.759" y="-406" font-family="Helvetica,sans-Serif" font-size="10.00">+ set_right()</text>
<text text-anchor="start" x="335.759" y="-396" font-family="Helvetica,sans-Serif" font-size="10.00">+ set_left()</text>
<text text-anchor="start" x="335.759" y="-386" font-family="Helvetica,sans-Serif" font-size="10.00">+ set_right()</text>
<text text-anchor="start" x="335.759" y="-376" font-family="Helvetica,sans-Serif" font-size="10.00">+ set_left()</text>
<text text-anchor="start" x="335.759" y="-366" font-family="Helvetica,sans-Serif" font-size="10.00">+ set_right()</text>
<text text-anchor="start" x="335.759" y="-356" font-family="Helvetica,sans-Serif" font-size="10.00">+ set_view()</text>
<text text-anchor="start" x="335.759" y="-346" font-family="Helvetica,sans-Serif" font-size="10.00">+ set_view()</text>
<text text-anchor="start" x="335.759" y="-336" font-family="Helvetica,sans-Serif" font-size="10.00">+ set_visible()</text>
<text text-anchor="start" x="335.759" y="-326" font-family="Helvetica,sans-Serif" font-size="10.00">and 15 more...</text>
</a>
</g>
</g>
<!-- Node1&#45;&gt;Node2 -->
<g id="edge1" class="edge"><title>Node1&#45;&gt;Node2</title>
<path fill="none" stroke="midnightblue" d="M893.239,-660.037C784.013,-651.732 557.256,-620.143 417,-500 408.57,-492.779 401.474,-483.777 395.535,-474.132"/>
<polygon fill="none" stroke="midnightblue" points="893.21,-663.544 903.435,-660.771 893.712,-656.562 893.21,-663.544"/>
</g>
<!-- Node3 -->
<g id="node3" class="node"><title>Node3</title>
<g id="a_node3"><a xlink:href="class_edit.html" target="_top" xlink:title="Edit Element. ">
<polygon fill="none" stroke="black" points="426.393,-310 426.393,-484 531.607,-484 531.607,-310 426.393,-310"/>
<text text-anchor="middle" x="479" y="-472" font-family="Helvetica,sans-Serif" font-size="10.00">Edit</text>
<polyline fill="none" stroke="black" points="426.393,-466 531.607,-466 "/>
<text text-anchor="middle" x="479" y="-454" font-family="Helvetica,sans-Serif" font-size="10.00"> </text>
<polyline fill="none" stroke="black" points="426.393,-448 531.607,-448 "/>
<text text-anchor="start" x="434.393" y="-436" font-family="Helvetica,sans-Serif" font-size="10.00">+ Edit()</text>
<text text-anchor="start" x="434.393" y="-426" font-family="Helvetica,sans-Serif" font-size="10.00">+ prev()</text>
<text text-anchor="start" x="434.393" y="-416" font-family="Helvetica,sans-Serif" font-size="10.00">+ next()</text>
<text text-anchor="start" x="434.393" y="-406" font-family="Helvetica,sans-Serif" font-size="10.00">+ select()</text>
<text text-anchor="start" x="434.393" y="-396" font-family="Helvetica,sans-Serif" font-size="10.00">+ exit()</text>
<text text-anchor="start" x="434.393" y="-386" font-family="Helvetica,sans-Serif" font-size="10.00">+ draw()</text>
<text text-anchor="start" x="434.393" y="-376" font-family="Helvetica,sans-Serif" font-size="10.00">+ draw_on_bitmap()</text>
<text text-anchor="start" x="434.393" y="-366" font-family="Helvetica,sans-Serif" font-size="10.00">+ setup_element()</text>
<text text-anchor="start" x="434.393" y="-356" font-family="Helvetica,sans-Serif" font-size="10.00"># increment()</text>
<text text-anchor="start" x="434.393" y="-346" font-family="Helvetica,sans-Serif" font-size="10.00"># decrement()</text>
<text text-anchor="start" x="434.393" y="-336" font-family="Helvetica,sans-Serif" font-size="10.00"># load()</text>
<text text-anchor="start" x="434.393" y="-326" font-family="Helvetica,sans-Serif" font-size="10.00"># save()</text>
<text text-anchor="start" x="434.393" y="-316" font-family="Helvetica,sans-Serif" font-size="10.00"># copy()</text>
</a>
</g>
</g>
<!-- Node1&#45;&gt;Node3 -->
<g id="edge2" class="edge"><title>Node1&#45;&gt;Node3</title>
<path fill="none" stroke="midnightblue" d="M894.247,-628.693C799.673,-576.151 620.598,-476.666 531.743,-427.301"/>
<polygon fill="none" stroke="midnightblue" points="892.689,-631.831 903.13,-633.628 896.088,-625.712 892.689,-631.831"/>
</g>
<!-- Node12 -->
<g id="node12" class="node"><title>Node12</title>
<g id="a_node12"><a xlink:href="class_graph_1_1_object.html" target="_top" xlink:title="Abstract Graph Class. ">
<polygon fill="none" stroke="black" points="718.527,-345 718.527,-449 823.473,-449 823.473,-345 718.527,-345"/>
<text text-anchor="middle" x="771" y="-437" font-family="Helvetica,sans-Serif" font-size="10.00">Graph::Object</text>
<polyline fill="none" stroke="black" points="718.527,-431 823.473,-431 "/>
<text text-anchor="middle" x="771" y="-419" font-family="Helvetica,sans-Serif" font-size="10.00"> </text>
<polyline fill="none" stroke="black" points="718.527,-413 823.473,-413 "/>
<text text-anchor="start" x="726.527" y="-401" font-family="Helvetica,sans-Serif" font-size="10.00">+ Object()</text>
<text text-anchor="start" x="726.527" y="-391" font-family="Helvetica,sans-Serif" font-size="10.00">+ x_axis()</text>
<text text-anchor="start" x="726.527" y="-381" font-family="Helvetica,sans-Serif" font-size="10.00">+ y_axis()</text>
<text text-anchor="start" x="726.527" y="-371" font-family="Helvetica,sans-Serif" font-size="10.00">+ x_data()</text>
<text text-anchor="start" x="726.527" y="-361" font-family="Helvetica,sans-Serif" font-size="10.00">+ y_data()</text>
<text text-anchor="start" x="726.527" y="-351" font-family="Helvetica,sans-Serif" font-size="10.00"># point_on_bitmap()</text>
</a>
</g>
</g>
<!-- Node1&#45;&gt;Node12 -->
<g id="edge11" class="edge"><title>Node1&#45;&gt;Node12</title>
<path fill="none" stroke="midnightblue" d="M897.103,-589.203C875.889,-561.696 852.215,-529.889 832,-500 821.019,-483.763 809.787,-465.53 800.003,-449.019"/>
<polygon fill="none" stroke="midnightblue" points="894.418,-591.453 903.307,-597.218 899.953,-587.168 894.418,-591.453"/>
</g>
<!-- Node15 -->
<g id="node15" class="node"><title>Node15</title>
<g id="a_node15"><a xlink:href="class_label.html" target="_top" xlink:title="Label Element. ">
<polygon fill="none" stroke="black" points="841.393,-345 841.393,-449 946.607,-449 946.607,-345 841.393,-345"/>
<text text-anchor="middle" x="894" y="-437" font-family="Helvetica,sans-Serif" font-size="10.00">Label</text>
<polyline fill="none" stroke="black" points="841.393,-431 946.607,-431 "/>
<text text-anchor="middle" x="894" y="-419" font-family="Helvetica,sans-Serif" font-size="10.00"> </text>
<polyline fill="none" stroke="black" points="841.393,-413 946.607,-413 "/>
<text text-anchor="start" x="849.393" y="-401" font-family="Helvetica,sans-Serif" font-size="10.00">+ Label()</text>
<text text-anchor="start" x="849.393" y="-391" font-family="Helvetica,sans-Serif" font-size="10.00">+ Label()</text>
<text text-anchor="start" x="849.393" y="-381" font-family="Helvetica,sans-Serif" font-size="10.00">+ set_text()</text>
<text text-anchor="start" x="849.393" y="-371" font-family="Helvetica,sans-Serif" font-size="10.00">+ text()</text>
<text text-anchor="start" x="849.393" y="-361" font-family="Helvetica,sans-Serif" font-size="10.00">+ operator=()</text>
<text text-anchor="start" x="849.393" y="-351" font-family="Helvetica,sans-Serif" font-size="10.00">+ draw_on_bitmap()</text>
</a>
</g>
</g>
<!-- Node1&#45;&gt;Node15 -->
<g id="edge14" class="edge"><title>Node1&#45;&gt;Node15</title>
<path fill="none" stroke="midnightblue" d="M924.152,-526.874C917.647,-499.071 911.192,-471.482 905.934,-449.006"/>
<polygon fill="none" stroke="midnightblue" points="920.767,-527.769 926.453,-536.709 927.582,-526.174 920.767,-527.769"/>
</g>
<!-- Node17 -->
<g id="node17" class="node"><title>Node17</title>
<g id="a_node17"><a xlink:href="class_list.html" target="_top" xlink:title="List Class. ">
<polygon fill="none" stroke="black" points="964.29,-295 964.29,-499 1071.71,-499 1071.71,-295 964.29,-295"/>
<text text-anchor="middle" x="1018" y="-487" font-family="Helvetica,sans-Serif" font-size="10.00">List</text>
<polyline fill="none" stroke="black" points="964.29,-481 1071.71,-481 "/>
<text text-anchor="start" x="972.29" y="-469" font-family="Helvetica,sans-Serif" font-size="10.00"># _selected</text>
<text text-anchor="start" x="972.29" y="-459" font-family="Helvetica,sans-Serif" font-size="10.00"># _visible_items</text>
<polyline fill="none" stroke="black" points="964.29,-453 1071.71,-453 "/>
<text text-anchor="start" x="972.29" y="-441" font-family="Helvetica,sans-Serif" font-size="10.00">+ List()</text>
<text text-anchor="start" x="972.29" y="-431" font-family="Helvetica,sans-Serif" font-size="10.00">+ set_selected()</text>
<text text-anchor="start" x="972.29" y="-421" font-family="Helvetica,sans-Serif" font-size="10.00">+ selected()</text>
<text text-anchor="start" x="972.29" y="-411" font-family="Helvetica,sans-Serif" font-size="10.00">+ next()</text>
<text text-anchor="start" x="972.29" y="-401" font-family="Helvetica,sans-Serif" font-size="10.00">+ prev()</text>
<text text-anchor="start" x="972.29" y="-391" font-family="Helvetica,sans-Serif" font-size="10.00">+ at()</text>
<text text-anchor="start" x="972.29" y="-381" font-family="Helvetica,sans-Serif" font-size="10.00">+ size()</text>
<text text-anchor="start" x="972.29" y="-371" font-family="Helvetica,sans-Serif" font-size="10.00">+ current()</text>
<text text-anchor="start" x="972.29" y="-361" font-family="Helvetica,sans-Serif" font-size="10.00">+ set_visible_items()</text>
<text text-anchor="start" x="972.29" y="-351" font-family="Helvetica,sans-Serif" font-size="10.00">+ visible_items()</text>
<text text-anchor="start" x="972.29" y="-341" font-family="Helvetica,sans-Serif" font-size="10.00">+ select()</text>
<text text-anchor="start" x="972.29" y="-331" font-family="Helvetica,sans-Serif" font-size="10.00">+ exit()</text>
<text text-anchor="start" x="972.29" y="-321" font-family="Helvetica,sans-Serif" font-size="10.00">+ setup_element()</text>
<text text-anchor="start" x="972.29" y="-311" font-family="Helvetica,sans-Serif" font-size="10.00">+ draw_on_bitmap()</text>
<text text-anchor="start" x="972.29" y="-301" font-family="Helvetica,sans-Serif" font-size="10.00"># init()</text>
</a>
</g>
</g>
<!-- Node1&#45;&gt;Node17 -->
<g id="edge16" class="edge"><title>Node1&#45;&gt;Node17</title>
<path fill="none" stroke="midnightblue" d="M987.885,-526.716C990.04,-517.508 992.188,-508.324 994.29,-499.343"/>
<polygon fill="none" stroke="midnightblue" points="984.418,-526.174 985.547,-536.709 991.233,-527.769 984.418,-526.174"/>
</g>
<!-- Node18 -->
<g id="node18" class="node"><title>Node18</title>
<g id="a_node18"><a xlink:href="class_list_item.html" target="_top" xlink:title="List Item Class. ">
<polygon fill="none" stroke="black" points="1089.39,-305 1089.39,-489 1194.61,-489 1194.61,-305 1089.39,-305"/>
<text text-anchor="middle" x="1142" y="-477" font-family="Helvetica,sans-Serif" font-size="10.00">ListItem</text>
<polyline fill="none" stroke="black" points="1089.39,-471 1194.61,-471 "/>
<text text-anchor="middle" x="1142" y="-459" font-family="Helvetica,sans-Serif" font-size="10.00"> </text>
<polyline fill="none" stroke="black" points="1089.39,-453 1194.61,-453 "/>
<text text-anchor="start" x="1097.39" y="-441" font-family="Helvetica,sans-Serif" font-size="10.00">+ ListItem()</text>
<text text-anchor="start" x="1097.39" y="-431" font-family="Helvetica,sans-Serif" font-size="10.00">+ ListItem()</text>
<text text-anchor="start" x="1097.39" y="-421" font-family="Helvetica,sans-Serif" font-size="10.00">+ ListItem()</text>
<text text-anchor="start" x="1097.39" y="-411" font-family="Helvetica,sans-Serif" font-size="10.00">+ ListItem()</text>
<text text-anchor="start" x="1097.39" y="-401" font-family="Helvetica,sans-Serif" font-size="10.00">+ select()</text>
<text text-anchor="start" x="1097.39" y="-391" font-family="Helvetica,sans-Serif" font-size="10.00">+ set_app_icon()</text>
<text text-anchor="start" x="1097.39" y="-381" font-family="Helvetica,sans-Serif" font-size="10.00">+ set_sys_icon()</text>
<text text-anchor="start" x="1097.39" y="-371" font-family="Helvetica,sans-Serif" font-size="10.00">+ set_sys_gfx()</text>
<text text-anchor="start" x="1097.39" y="-361" font-family="Helvetica,sans-Serif" font-size="10.00">+ load_icon()</text>
<text text-anchor="start" x="1097.39" y="-351" font-family="Helvetica,sans-Serif" font-size="10.00">+ set_thickness()</text>
<text text-anchor="start" x="1097.39" y="-341" font-family="Helvetica,sans-Serif" font-size="10.00">+ set_rotation()</text>
<text text-anchor="start" x="1097.39" y="-331" font-family="Helvetica,sans-Serif" font-size="10.00">+ label()</text>
<text text-anchor="start" x="1097.39" y="-321" font-family="Helvetica,sans-Serif" font-size="10.00">+ set_label()</text>
<text text-anchor="start" x="1097.39" y="-311" font-family="Helvetica,sans-Serif" font-size="10.00">+ draw_on_bitmap()</text>
</a>
</g>
</g>
<!-- Node1&#45;&gt;Node18 -->
<g id="edge17" class="edge"><title>Node1&#45;&gt;Node18</title>
<path fill="none" stroke="midnightblue" d="M1014.78,-589.124C1035.98,-561.608 1059.68,-529.817 1080,-500 1083.09,-495.462 1086.21,-490.771 1089.31,-486.006"/>
<polygon fill="none" stroke="midnightblue" points="1011.93,-587.089 1008.58,-597.141 1017.47,-591.372 1011.93,-587.089"/>
</g>
<!-- Node23 -->
<g id="node23" class="node"><title>Node23</title>
<g id="a_node23"><a xlink:href="class_map.html" target="_top" xlink:title="Map Class (for mapping coords to display) ">
<polygon fill="none" stroke="black" points="1212.11,-320 1212.11,-474 1297.89,-474 1297.89,-320 1212.11,-320"/>
<text text-anchor="middle" x="1255" y="-462" font-family="Helvetica,sans-Serif" font-size="10.00">Map</text>
<polyline fill="none" stroke="black" points="1212.11,-456 1297.89,-456 "/>
<text text-anchor="middle" x="1255" y="-444" font-family="Helvetica,sans-Serif" font-size="10.00"> </text>
<polyline fill="none" stroke="black" points="1212.11,-438 1297.89,-438 "/>
<text text-anchor="start" x="1220.11" y="-426" font-family="Helvetica,sans-Serif" font-size="10.00">+ Map()</text>
<text text-anchor="start" x="1220.11" y="-416" font-family="Helvetica,sans-Serif" font-size="10.00">+ point()</text>
<text text-anchor="start" x="1220.11" y="-406" font-family="Helvetica,sans-Serif" font-size="10.00">+ distance()</text>
<text text-anchor="start" x="1220.11" y="-396" font-family="Helvetica,sans-Serif" font-size="10.00">+ heading()</text>
<text text-anchor="start" x="1220.11" y="-386" font-family="Helvetica,sans-Serif" font-size="10.00">+ center()</text>
<text text-anchor="start" x="1220.11" y="-376" font-family="Helvetica,sans-Serif" font-size="10.00">+ set_heading()</text>
<text text-anchor="start" x="1220.11" y="-366" font-family="Helvetica,sans-Serif" font-size="10.00">+ set_selector()</text>
<text text-anchor="start" x="1220.11" y="-356" font-family="Helvetica,sans-Serif" font-size="10.00">+ selector()</text>
<text text-anchor="start" x="1220.11" y="-346" font-family="Helvetica,sans-Serif" font-size="10.00">+ next()</text>
<text text-anchor="start" x="1220.11" y="-336" font-family="Helvetica,sans-Serif" font-size="10.00">+ prev()</text>
<text text-anchor="start" x="1220.11" y="-326" font-family="Helvetica,sans-Serif" font-size="10.00">and 13 more...</text>
</a>
</g>
</g>
<!-- Node1&#45;&gt;Node23 -->
<g id="edge22" class="edge"><title>Node1&#45;&gt;Node23</title>
<path fill="none" stroke="midnightblue" d="M1017.68,-633.872C1071.99,-605.756 1150.4,-558.839 1203,-500 1209.95,-492.22 1216.24,-483.342 1221.85,-474.142"/>
<polygon fill="none" stroke="midnightblue" points="1015.82,-630.893 1008.51,-638.561 1019.01,-637.126 1015.82,-630.893"/>
</g>
<!-- Node24 -->
<g id="node24" class="node"><title>Node24</title>
<g id="a_node24"><a xlink:href="class_text.html" target="_top" xlink:title="Text Box. ">
<polygon fill="none" stroke="black" points="1315.39,-325 1315.39,-469 1420.61,-469 1420.61,-325 1315.39,-325"/>
<text text-anchor="middle" x="1368" y="-457" font-family="Helvetica,sans-Serif" font-size="10.00">Text</text>
<polyline fill="none" stroke="black" points="1315.39,-451 1420.61,-451 "/>
<text text-anchor="middle" x="1368" y="-439" font-family="Helvetica,sans-Serif" font-size="10.00"> </text>
<polyline fill="none" stroke="black" points="1315.39,-433 1420.61,-433 "/>
<text text-anchor="start" x="1323.39" y="-421" font-family="Helvetica,sans-Serif" font-size="10.00">+ Text()</text>
<text text-anchor="start" x="1323.39" y="-411" font-family="Helvetica,sans-Serif" font-size="10.00">+ Text()</text>
<text text-anchor="start" x="1323.39" y="-401" font-family="Helvetica,sans-Serif" font-size="10.00">+ prev()</text>
<text text-anchor="start" x="1323.39" y="-391" font-family="Helvetica,sans-Serif" font-size="10.00">+ next()</text>
<text text-anchor="start" x="1323.39" y="-381" font-family="Helvetica,sans-Serif" font-size="10.00">+ set_text()</text>
<text text-anchor="start" x="1323.39" y="-371" font-family="Helvetica,sans-Serif" font-size="10.00">+ text()</text>
<text text-anchor="start" x="1323.39" y="-361" font-family="Helvetica,sans-Serif" font-size="10.00">+ set_font_size()</text>
<text text-anchor="start" x="1323.39" y="-351" font-family="Helvetica,sans-Serif" font-size="10.00">+ font_size()</text>
<text text-anchor="start" x="1323.39" y="-341" font-family="Helvetica,sans-Serif" font-size="10.00">+ scroll()</text>
<text text-anchor="start" x="1323.39" y="-331" font-family="Helvetica,sans-Serif" font-size="10.00">+ draw_on_bitmap()</text>
</a>
</g>
</g>
<!-- Node1&#45;&gt;Node24 -->
<g id="edge23" class="edge"><title>Node1&#45;&gt;Node24</title>
<path fill="none" stroke="midnightblue" d="M1018.43,-646.147C1093.74,-623.275 1220.81,-576.275 1306,-500 1315.88,-491.153 1324.7,-480.355 1332.36,-469.133"/>
<polygon fill="none" stroke="midnightblue" points="1017.19,-642.865 1008.61,-649.082 1019.19,-649.572 1017.19,-642.865"/>
</g>
<!-- Node4 -->
<g id="node4" class="node"><title>Node4</title>
<g id="a_node4"><a xlink:href="class_edit_setting_int.html" target="_top" xlink:title="Edit Integer Class. ">
<polygon fill="none" stroke="black" points="50.6196,-128 50.6196,-242 141.38,-242 141.38,-128 50.6196,-128"/>
<text text-anchor="middle" x="96" y="-230" font-family="Helvetica,sans-Serif" font-size="10.00">EditSettingInt</text>
<polyline fill="none" stroke="black" points="50.6196,-224 141.38,-224 "/>
<text text-anchor="middle" x="96" y="-212" font-family="Helvetica,sans-Serif" font-size="10.00"> </text>
<polyline fill="none" stroke="black" points="50.6196,-206 141.38,-206 "/>
<text text-anchor="start" x="58.6196" y="-194" font-family="Helvetica,sans-Serif" font-size="10.00">+ EditSettingInt()</text>
<text text-anchor="start" x="58.6196" y="-184" font-family="Helvetica,sans-Serif" font-size="10.00">+ EditSettingInt()</text>
<text text-anchor="start" x="58.6196" y="-174" font-family="Helvetica,sans-Serif" font-size="10.00">+ increment()</text>
<text text-anchor="start" x="58.6196" y="-164" font-family="Helvetica,sans-Serif" font-size="10.00">+ decrement()</text>
<text text-anchor="start" x="58.6196" y="-154" font-family="Helvetica,sans-Serif" font-size="10.00">+ load()</text>
<text text-anchor="start" x="58.6196" y="-144" font-family="Helvetica,sans-Serif" font-size="10.00">+ save()</text>
<text text-anchor="start" x="58.6196" y="-134" font-family="Helvetica,sans-Serif" font-size="10.00">+ copy()</text>
</a>
</g>
</g>
<!-- Node3&#45;&gt;Node4 -->
<g id="edge3" class="edge"><title>Node3&#45;&gt;Node4</title>
<path fill="none" stroke="midnightblue" d="M428.111,-302.618C424.611,-299.458 420.909,-296.559 417,-294 317.182,-228.663 254.144,-317.949 151,-258 143.792,-253.811 137.212,-248.27 131.307,-242.117"/>
<polygon fill="none" stroke="midnightblue" points="425.896,-305.352 435.455,-309.922 430.832,-300.388 425.896,-305.352"/>
</g>
<!-- Node5 -->
<g id="node5" class="node"><title>Node5</title>
<g id="a_node5"><a xlink:href="class_edit_sys_brightness.html" target="_top" xlink:title="Edit System Brightness. ">
<polygon fill="none" stroke="black" points="159.787,-133 159.787,-237 272.213,-237 272.213,-133 159.787,-133"/>
<text text-anchor="middle" x="216" y="-225" font-family="Helvetica,sans-Serif" font-size="10.00">EditSysBrightness</text>
<polyline fill="none" stroke="black" points="159.787,-219 272.213,-219 "/>
<text text-anchor="start" x="167.787" y="-207" font-family="Helvetica,sans-Serif" font-size="10.00"># brightness</text>
<polyline fill="none" stroke="black" points="159.787,-201 272.213,-201 "/>
<text text-anchor="start" x="167.787" y="-189" font-family="Helvetica,sans-Serif" font-size="10.00">+ EditSysBrightness()</text>
<text text-anchor="start" x="167.787" y="-179" font-family="Helvetica,sans-Serif" font-size="10.00">+ increment()</text>
<text text-anchor="start" x="167.787" y="-169" font-family="Helvetica,sans-Serif" font-size="10.00">+ decrement()</text>
<text text-anchor="start" x="167.787" y="-159" font-family="Helvetica,sans-Serif" font-size="10.00">+ load()</text>
<text text-anchor="start" x="167.787" y="-149" font-family="Helvetica,sans-Serif" font-size="10.00">+ save()</text>
<text text-anchor="start" x="167.787" y="-139" font-family="Helvetica,sans-Serif" font-size="10.00">+ copy()</text>
</a>
</g>
</g>
<!-- Node3&#45;&gt;Node5 -->
<g id="edge4" class="edge"><title>Node3&#45;&gt;Node5</title>
<path fill="none" stroke="midnightblue" d="M426.905,-302.458C423.754,-299.423 420.453,-296.585 417,-294 367.29,-256.786 335.109,-290.177 282,-258 272.718,-252.376 263.952,-245.065 256.024,-237.26"/>
<polygon fill="none" stroke="midnightblue" points="424.547,-305.056 433.987,-309.865 429.606,-300.218 424.547,-305.056"/>
</g>
<!-- Node9 -->
<g id="node9" class="node"><title>Node9</title>
<g id="a_node9"><a xlink:href="class_edit_sys_long_press.html" target="_top" xlink:title="Edit System Long Press Setting. ">
<polygon fill="none" stroke="black" points="290.506,-133 290.506,-237 403.494,-237 403.494,-133 290.506,-133"/>
<text text-anchor="middle" x="347" y="-225" font-family="Helvetica,sans-Serif" font-size="10.00">EditSysLongPress</text>
<polyline fill="none" stroke="black" points="290.506,-219 403.494,-219 "/>
<text text-anchor="middle" x="347" y="-207" font-family="Helvetica,sans-Serif" font-size="10.00"> </text>
<polyline fill="none" stroke="black" points="290.506,-201 403.494,-201 "/>
<text text-anchor="start" x="298.506" y="-189" font-family="Helvetica,sans-Serif" font-size="10.00">+ EditSysLongPress()</text>
<text text-anchor="start" x="298.506" y="-179" font-family="Helvetica,sans-Serif" font-size="10.00">+ increment()</text>
<text text-anchor="start" x="298.506" y="-169" font-family="Helvetica,sans-Serif" font-size="10.00">+ decrement()</text>
<text text-anchor="start" x="298.506" y="-159" font-family="Helvetica,sans-Serif" font-size="10.00">+ load()</text>
<text text-anchor="start" x="298.506" y="-149" font-family="Helvetica,sans-Serif" font-size="10.00">+ save()</text>
<text text-anchor="start" x="298.506" y="-139" font-family="Helvetica,sans-Serif" font-size="10.00">+ copy()</text>
</a>
</g>
</g>
<!-- Node3&#45;&gt;Node9 -->
<g id="edge8" class="edge"><title>Node3&#45;&gt;Node9</title>
<path fill="none" stroke="midnightblue" d="M421.614,-301.376C420.064,-298.889 418.524,-296.427 417,-294 405.298,-275.36 392.238,-255.075 380.597,-237.171"/>
<polygon fill="none" stroke="midnightblue" points="418.665,-303.262 426.914,-309.91 424.611,-299.569 418.665,-303.262"/>
</g>
<!-- Node10 -->
<g id="node10" class="node"><title>Node10</title>
<g id="a_node10"><a xlink:href="class_edit_sys_short_press.html" target="_top" xlink:title="Edit System Short Press Setting. ">
<polygon fill="none" stroke="black" points="421.679,-133 421.679,-237 536.321,-237 536.321,-133 421.679,-133"/>
<text text-anchor="middle" x="479" y="-225" font-family="Helvetica,sans-Serif" font-size="10.00">EditSysShortPress</text>
<polyline fill="none" stroke="black" points="421.679,-219 536.321,-219 "/>
<text text-anchor="middle" x="479" y="-207" font-family="Helvetica,sans-Serif" font-size="10.00"> </text>
<polyline fill="none" stroke="black" points="421.679,-201 536.321,-201 "/>
<text text-anchor="start" x="429.679" y="-189" font-family="Helvetica,sans-Serif" font-size="10.00">+ EditSysShortPress()</text>
<text text-anchor="start" x="429.679" y="-179" font-family="Helvetica,sans-Serif" font-size="10.00">+ increment()</text>
<text text-anchor="start" x="429.679" y="-169" font-family="Helvetica,sans-Serif" font-size="10.00">+ decrement()</text>
<text text-anchor="start" x="429.679" y="-159" font-family="Helvetica,sans-Serif" font-size="10.00">+ load()</text>
<text text-anchor="start" x="429.679" y="-149" font-family="Helvetica,sans-Serif" font-size="10.00">+ save()</text>
<text text-anchor="start" x="429.679" y="-139" font-family="Helvetica,sans-Serif" font-size="10.00">+ copy()</text>
</a>
</g>
</g>
<!-- Node3&#45;&gt;Node10 -->
<g id="edge9" class="edge"><title>Node3&#45;&gt;Node10</title>
<path fill="none" stroke="midnightblue" d="M479,-299.784C479,-278.218 479,-256.153 479,-237.265"/>
<polygon fill="none" stroke="midnightblue" points="475.5,-299.979 479,-309.979 482.5,-299.979 475.5,-299.979"/>
</g>
<!-- Node11 -->
<g id="node11" class="node"><title>Node11</title>
<g id="a_node11"><a xlink:href="class_edit_sys_units.html" target="_top" xlink:title="Edit System Units Setting. ">
<polygon fill="none" stroke="black" points="554.019,-133 554.019,-237 641.981,-237 641.981,-133 554.019,-133"/>
<text text-anchor="middle" x="598" y="-225" font-family="Helvetica,sans-Serif" font-size="10.00">EditSysUnits</text>
<polyline fill="none" stroke="black" points="554.019,-219 641.981,-219 "/>
<text text-anchor="middle" x="598" y="-207" font-family="Helvetica,sans-Serif" font-size="10.00"> </text>
<polyline fill="none" stroke="black" points="554.019,-201 641.981,-201 "/>
<text text-anchor="start" x="562.019" y="-189" font-family="Helvetica,sans-Serif" font-size="10.00">+ EditSysUnits()</text>
<text text-anchor="start" x="562.019" y="-179" font-family="Helvetica,sans-Serif" font-size="10.00">+ increment()</text>
<text text-anchor="start" x="562.019" y="-169" font-family="Helvetica,sans-Serif" font-size="10.00">+ decrement()</text>
<text text-anchor="start" x="562.019" y="-159" font-family="Helvetica,sans-Serif" font-size="10.00">+ load()</text>
<text text-anchor="start" x="562.019" y="-149" font-family="Helvetica,sans-Serif" font-size="10.00">+ save()</text>
<text text-anchor="start" x="562.019" y="-139" font-family="Helvetica,sans-Serif" font-size="10.00">+ copy()</text>
</a>
</g>
</g>
<!-- Node3&#45;&gt;Node11 -->
<g id="edge10" class="edge"><title>Node3&#45;&gt;Node11</title>
<path fill="none" stroke="midnightblue" d="M532.693,-301.247C545.177,-279.218 558.004,-256.581 568.95,-237.265"/>
<polygon fill="none" stroke="midnightblue" points="529.63,-299.553 527.745,-309.979 535.72,-303.004 529.63,-299.553"/>
</g>
<!-- Node6 -->
<g id="node6" class="node"><title>Node6</title>
<g id="a_node6"><a xlink:href="class_edit_sys_brightness_high.html" target="_top" xlink:title="Edit System High Brightness Class. ">
<polygon fill="none" stroke="black" points="-0.496094,-1 -0.496094,-75 132.496,-75 132.496,-1 -0.496094,-1"/>
<text text-anchor="middle" x="66" y="-63" font-family="Helvetica,sans-Serif" font-size="10.00">EditSysBrightnessHigh</text>
<polyline fill="none" stroke="black" points="-0.496094,-57 132.496,-57 "/>
<text text-anchor="middle" x="66" y="-45" font-family="Helvetica,sans-Serif" font-size="10.00"> </text>
<polyline fill="none" stroke="black" points="-0.496094,-39 132.496,-39 "/>
<text text-anchor="start" x="7.50391" y="-27" font-family="Helvetica,sans-Serif" font-size="10.00">+ EditSysBrightnessHigh()</text>
<text text-anchor="start" x="7.50391" y="-17" font-family="Helvetica,sans-Serif" font-size="10.00">+ load()</text>
<text text-anchor="start" x="7.50391" y="-7" font-family="Helvetica,sans-Serif" font-size="10.00">+ save()</text>
</a>
</g>
</g>
<!-- Node5&#45;&gt;Node6 -->
<g id="edge5" class="edge"><title>Node5&#45;&gt;Node6</title>
<path fill="none" stroke="midnightblue" d="M163.514,-125.592C159.007,-120.931 154.464,-116.348 150,-112 137.266,-99.5987 122.835,-86.6829 109.573,-75.2239"/>
<polygon fill="none" stroke="midnightblue" points="161.112,-128.145 170.55,-132.96 166.174,-123.31 161.112,-128.145"/>
</g>
<!-- Node7 -->
<g id="node7" class="node"><title>Node7</title>
<g id="a_node7"><a xlink:href="class_edit_sys_brightness_low.html" target="_top" xlink:title="Edit System Low Brightness Class. ">
<polygon fill="none" stroke="black" points="150.615,-1 150.615,-75 281.385,-75 281.385,-1 150.615,-1"/>
<text text-anchor="middle" x="216" y="-63" font-family="Helvetica,sans-Serif" font-size="10.00">EditSysBrightnessLow</text>
<polyline fill="none" stroke="black" points="150.615,-57 281.385,-57 "/>
<text text-anchor="middle" x="216" y="-45" font-family="Helvetica,sans-Serif" font-size="10.00"> </text>
<polyline fill="none" stroke="black" points="150.615,-39 281.385,-39 "/>
<text text-anchor="start" x="158.615" y="-27" font-family="Helvetica,sans-Serif" font-size="10.00">+ EditSysBrightnessLow()</text>
<text text-anchor="start" x="158.615" y="-17" font-family="Helvetica,sans-Serif" font-size="10.00">+ load()</text>
<text text-anchor="start" x="158.615" y="-7" font-family="Helvetica,sans-Serif" font-size="10.00">+ save()</text>
</a>
</g>
</g>
<!-- Node5&#45;&gt;Node7 -->
<g id="edge6" class="edge"><title>Node5&#45;&gt;Node7</title>
<path fill="none" stroke="midnightblue" d="M216,-122.418C216,-106.285 216,-89.4148 216,-75.1004"/>
<polygon fill="none" stroke="midnightblue" points="212.5,-122.878 216,-132.878 219.5,-122.878 212.5,-122.878"/>
</g>
<!-- Node8 -->
<g id="node8" class="node"><title>Node8</title>
<g id="a_node8"><a xlink:href="class_edit_sys_brightness_med.html" target="_top" xlink:title="Edit System Med Brightness Class. ">
<polygon fill="none" stroke="black" points="299.061,-1 299.061,-75 430.939,-75 430.939,-1 299.061,-1"/>
<text text-anchor="middle" x="365" y="-63" font-family="Helvetica,sans-Serif" font-size="10.00">EditSysBrightnessMed</text>
<polyline fill="none" stroke="black" points="299.061,-57 430.939,-57 "/>
<text text-anchor="middle" x="365" y="-45" font-family="Helvetica,sans-Serif" font-size="10.00"> </text>
<polyline fill="none" stroke="black" points="299.061,-39 430.939,-39 "/>
<text text-anchor="start" x="307.061" y="-27" font-family="Helvetica,sans-Serif" font-size="10.00">+ EditSysBrightnessMed()</text>
<text text-anchor="start" x="307.061" y="-17" font-family="Helvetica,sans-Serif" font-size="10.00">+ load()</text>
<text text-anchor="start" x="307.061" y="-7" font-family="Helvetica,sans-Serif" font-size="10.00">+ save()</text>
</a>
</g>
</g>
<!-- Node5&#45;&gt;Node8 -->
<g id="edge7" class="edge"><title>Node5&#45;&gt;Node8</title>
<path fill="none" stroke="midnightblue" d="M268.514,-125.622C273.015,-120.954 277.548,-116.361 282,-112 294.612,-99.6451 308.878,-86.7423 321.981,-75.2811"/>
<polygon fill="none" stroke="midnightblue" points="265.851,-123.343 261.486,-132.996 270.919,-128.172 265.851,-123.343"/>
</g>
<!-- Node13 -->
<g id="node13" class="node"><title>Node13</title>
<g id="a_node13"><a xlink:href="class_graph_bar.html" target="_top" xlink:title="Bar Graph Element. ">
<polygon fill="none" stroke="black" points="659.684,-158 659.684,-212 734.316,-212 734.316,-158 659.684,-158"/>
<text text-anchor="middle" x="697" y="-200" font-family="Helvetica,sans-Serif" font-size="10.00">GraphBar</text>
<polyline fill="none" stroke="black" points="659.684,-194 734.316,-194 "/>
<text text-anchor="middle" x="697" y="-182" font-family="Helvetica,sans-Serif" font-size="10.00"> </text>
<polyline fill="none" stroke="black" points="659.684,-176 734.316,-176 "/>
<text text-anchor="start" x="667.684" y="-164" font-family="Helvetica,sans-Serif" font-size="10.00">+ GraphBar()</text>
</a>
</g>
</g>
<!-- Node12&#45;&gt;Node13 -->
<g id="edge12" class="edge"><title>Node12&#45;&gt;Node13</title>
<path fill="none" stroke="midnightblue" d="M749.61,-335.299C735.215,-294.447 716.959,-242.639 706.173,-212.031"/>
<polygon fill="none" stroke="midnightblue" points="746.368,-336.628 752.992,-344.897 752.97,-334.302 746.368,-336.628"/>
</g>
<!-- Node14 -->
<g id="node14" class="node"><title>Node14</title>
<g id="a_node14"><a xlink:href="class_graph_line.html" target="_top" xlink:title="Line Graph Element. ">
<polygon fill="none" stroke="black" points="752.011,-158 752.011,-212 829.989,-212 829.989,-158 752.011,-158"/>
<text text-anchor="middle" x="791" y="-200" font-family="Helvetica,sans-Serif" font-size="10.00">GraphLine</text>
<polyline fill="none" stroke="black" points="752.011,-194 829.989,-194 "/>
<text text-anchor="middle" x="791" y="-182" font-family="Helvetica,sans-Serif" font-size="10.00"> </text>
<polyline fill="none" stroke="black" points="752.011,-176 829.989,-176 "/>
<text text-anchor="start" x="760.011" y="-164" font-family="Helvetica,sans-Serif" font-size="10.00">+ GraphLine()</text>
</a>
</g>
</g>
<!-- Node12&#45;&gt;Node14 -->
<g id="edge13" class="edge"><title>Node12&#45;&gt;Node14</title>
<path fill="none" stroke="midnightblue" d="M776.83,-334.782C780.713,-294.01 785.618,-242.51 788.521,-212.031"/>
<polygon fill="none" stroke="midnightblue" points="773.331,-334.61 775.867,-344.897 780.299,-335.274 773.331,-334.61"/>
</g>
<!-- Node16 -->
<g id="node16" class="node"><title>Node16</title>
<g id="a_node16"><a xlink:href="class_label_metric.html" target="_top" xlink:title="Label with Value Class. ">
<polygon fill="none" stroke="black" points="848.393,-133 848.393,-237 953.607,-237 953.607,-133 848.393,-133"/>
<text text-anchor="middle" x="901" y="-225" font-family="Helvetica,sans-Serif" font-size="10.00">LabelMetric</text>
<polyline fill="none" stroke="black" points="848.393,-219 953.607,-219 "/>
<text text-anchor="middle" x="901" y="-207" font-family="Helvetica,sans-Serif" font-size="10.00"> </text>
<polyline fill="none" stroke="black" points="848.393,-201 953.607,-201 "/>
<text text-anchor="start" x="856.393" y="-189" font-family="Helvetica,sans-Serif" font-size="10.00">+ LabelMetric()</text>
<text text-anchor="start" x="856.393" y="-179" font-family="Helvetica,sans-Serif" font-size="10.00">+ LabelMetric()</text>
<text text-anchor="start" x="856.393" y="-169" font-family="Helvetica,sans-Serif" font-size="10.00">+ set_units()</text>
<text text-anchor="start" x="856.393" y="-159" font-family="Helvetica,sans-Serif" font-size="10.00">+ units()</text>
<text text-anchor="start" x="856.393" y="-149" font-family="Helvetica,sans-Serif" font-size="10.00">+ set()</text>
<text text-anchor="start" x="856.393" y="-139" font-family="Helvetica,sans-Serif" font-size="10.00">+ draw_on_bitmap()</text>
</a>
</g>
</g>
<!-- Node15&#45;&gt;Node16 -->
<g id="edge15" class="edge"><title>Node15&#45;&gt;Node16</title>
<path fill="none" stroke="midnightblue" d="M896.044,-334.671C897.075,-303.764 898.31,-266.714 899.289,-237.332"/>
<polygon fill="none" stroke="midnightblue" points="892.539,-334.786 895.703,-344.897 899.535,-335.019 892.539,-334.786"/>
</g>
<!-- Node19 -->
<g id="node19" class="node"><title>Node19</title>
<g id="a_node19"><a xlink:href="class_list_item_callback.html" target="_top" xlink:title="List Item Callback Class. ">
<polygon fill="none" stroke="black" points="971.681,-143 971.681,-227 1076.32,-227 1076.32,-143 971.681,-143"/>
<text text-anchor="middle" x="1024" y="-215" font-family="Helvetica,sans-Serif" font-size="10.00">ListItemCallback</text>
<polyline fill="none" stroke="black" points="971.681,-209 1076.32,-209 "/>
<text text-anchor="middle" x="1024" y="-197" font-family="Helvetica,sans-Serif" font-size="10.00"> </text>
<polyline fill="none" stroke="black" points="971.681,-191 1076.32,-191 "/>
<text text-anchor="start" x="979.681" y="-179" font-family="Helvetica,sans-Serif" font-size="10.00">+ ListItemCallback()</text>
<text text-anchor="start" x="979.681" y="-169" font-family="Helvetica,sans-Serif" font-size="10.00">+ ListItemCallback()</text>
<text text-anchor="start" x="979.681" y="-159" font-family="Helvetica,sans-Serif" font-size="10.00">+ ListItemCallback()</text>
<text text-anchor="start" x="979.681" y="-149" font-family="Helvetica,sans-Serif" font-size="10.00">+ select()</text>
</a>
</g>
</g>
<!-- Node18&#45;&gt;Node19 -->
<g id="edge18" class="edge"><title>Node18&#45;&gt;Node19</title>
<path fill="none" stroke="midnightblue" d="M1085.74,-295.874C1072.07,-271.556 1058.21,-246.889 1047.1,-227.105"/>
<polygon fill="none" stroke="midnightblue" points="1082.81,-297.804 1090.76,-304.807 1088.91,-294.375 1082.81,-297.804"/>
</g>
<!-- Node20 -->
<g id="node20" class="node"><title>Node20</title>
<g id="a_node20"><a xlink:href="class_list_item_check.html" target="_top" xlink:title="List Item Check (for use in a checklist) ">
<polygon fill="none" stroke="black" points="1094.68,-143 1094.68,-227 1189.32,-227 1189.32,-143 1094.68,-143"/>
<text text-anchor="middle" x="1142" y="-215" font-family="Helvetica,sans-Serif" font-size="10.00">ListItemCheck</text>
<polyline fill="none" stroke="black" points="1094.68,-209 1189.32,-209 "/>
<text text-anchor="middle" x="1142" y="-197" font-family="Helvetica,sans-Serif" font-size="10.00"> </text>
<polyline fill="none" stroke="black" points="1094.68,-191 1189.32,-191 "/>
<text text-anchor="start" x="1102.68" y="-179" font-family="Helvetica,sans-Serif" font-size="10.00">+ ListItemCheck()</text>
<text text-anchor="start" x="1102.68" y="-169" font-family="Helvetica,sans-Serif" font-size="10.00">+ ListItemCheck()</text>
<text text-anchor="start" x="1102.68" y="-159" font-family="Helvetica,sans-Serif" font-size="10.00">+ select()</text>
<text text-anchor="start" x="1102.68" y="-149" font-family="Helvetica,sans-Serif" font-size="10.00">+ set_enabled()</text>
</a>
</g>
</g>
<!-- Node18&#45;&gt;Node20 -->
<g id="edge19" class="edge"><title>Node18&#45;&gt;Node20</title>
<path fill="none" stroke="midnightblue" d="M1142,-294.593C1142,-270.692 1142,-246.542 1142,-227.105"/>
<polygon fill="none" stroke="midnightblue" points="1138.5,-294.807 1142,-304.807 1145.5,-294.807 1138.5,-294.807"/>
</g>
<!-- Node21 -->
<g id="node21" class="node"><title>Node21</title>
<g id="a_node21"><a xlink:href="class_list_item_element.html" target="_top" xlink:title="List Item Element Class. ">
<polygon fill="none" stroke="black" points="1207.51,-113 1207.51,-257 1310.49,-257 1310.49,-113 1207.51,-113"/>
<text text-anchor="middle" x="1259" y="-245" font-family="Helvetica,sans-Serif" font-size="10.00">ListItemElement</text>
<polyline fill="none" stroke="black" points="1207.51,-239 1310.49,-239 "/>
<text text-anchor="middle" x="1259" y="-227" font-family="Helvetica,sans-Serif" font-size="10.00"> </text>
<polyline fill="none" stroke="black" points="1207.51,-221 1310.49,-221 "/>
<text text-anchor="start" x="1215.51" y="-209" font-family="Helvetica,sans-Serif" font-size="10.00">+ ListItemElement()</text>
<text text-anchor="start" x="1215.51" y="-199" font-family="Helvetica,sans-Serif" font-size="10.00">+ ListItemElement()</text>
<text text-anchor="start" x="1215.51" y="-189" font-family="Helvetica,sans-Serif" font-size="10.00">+ ListItemElement()</text>
<text text-anchor="start" x="1215.51" y="-179" font-family="Helvetica,sans-Serif" font-size="10.00">+ ListItemElement()</text>
<text text-anchor="start" x="1215.51" y="-169" font-family="Helvetica,sans-Serif" font-size="10.00">+ set_child()</text>
<text text-anchor="start" x="1215.51" y="-159" font-family="Helvetica,sans-Serif" font-size="10.00">+ child()</text>
<text text-anchor="start" x="1215.51" y="-149" font-family="Helvetica,sans-Serif" font-size="10.00">+ set_target()</text>
<text text-anchor="start" x="1215.51" y="-139" font-family="Helvetica,sans-Serif" font-size="10.00">+ target()</text>
<text text-anchor="start" x="1215.51" y="-129" font-family="Helvetica,sans-Serif" font-size="10.00">+ setup_element()</text>
<text text-anchor="start" x="1215.51" y="-119" font-family="Helvetica,sans-Serif" font-size="10.00">+ select()</text>
</a>
</g>
</g>
<!-- Node18&#45;&gt;Node21 -->
<g id="edge20" class="edge"><title>Node18&#45;&gt;Node21</title>
<path fill="none" stroke="midnightblue" d="M1197.82,-295.806C1205.09,-282.766 1212.41,-269.628 1219.33,-257.197"/>
<polygon fill="none" stroke="midnightblue" points="1194.62,-294.368 1192.81,-304.807 1200.73,-297.775 1194.62,-294.368"/>
</g>
<!-- Node22 -->
<g id="node22" class="node"><title>Node22</title>
<g id="a_node22"><a xlink:href="class_list_item_toggle.html" target="_top" xlink:title="Toggle Item. ">
<polygon fill="none" stroke="black" points="1328.56,-143 1328.56,-227 1425.44,-227 1425.44,-143 1328.56,-143"/>
<text text-anchor="middle" x="1377" y="-215" font-family="Helvetica,sans-Serif" font-size="10.00">ListItemToggle</text>
<polyline fill="none" stroke="black" points="1328.56,-209 1425.44,-209 "/>
<text text-anchor="middle" x="1377" y="-197" font-family="Helvetica,sans-Serif" font-size="10.00"> </text>
<polyline fill="none" stroke="black" points="1328.56,-191 1425.44,-191 "/>
<text text-anchor="start" x="1336.56" y="-179" font-family="Helvetica,sans-Serif" font-size="10.00">+ ListItemToggle()</text>
<text text-anchor="start" x="1336.56" y="-169" font-family="Helvetica,sans-Serif" font-size="10.00">+ select()</text>
<text text-anchor="start" x="1336.56" y="-159" font-family="Helvetica,sans-Serif" font-size="10.00">+ set_enabled()</text>
<text text-anchor="start" x="1336.56" y="-149" font-family="Helvetica,sans-Serif" font-size="10.00">+ setup_element()</text>
</a>
</g>
</g>
<!-- Node18&#45;&gt;Node22 -->
<g id="edge21" class="edge"><title>Node18&#45;&gt;Node22</title>
<path fill="none" stroke="midnightblue" d="M1198.35,-297.884C1199.87,-296.54 1201.42,-295.244 1203,-294 1245.43,-260.632 1274.35,-288.337 1319,-258 1330.95,-249.881 1341.66,-238.572 1350.54,-227.319"/>
<polygon fill="none" stroke="midnightblue" points="1195.78,-295.503 1191.03,-304.973 1200.65,-300.533 1195.78,-295.503"/>
</g>
</g>
</svg>
