<?xml version="1.0" encoding="UTF-8" standalone="no"?>
<!DOCTYPE svg PUBLIC "-//W3C//DTD SVG 1.1//EN"
 "http://www.w3.org/Graphics/SVG/1.1/DTD/svg11.dtd">
<!-- Generated by graphviz version 2.36.0 (20140111.2315)
 -->
<!-- Title: AppController Pages: 1 -->
<svg width="384pt" height="548pt"
 viewBox="0.00 0.00 384.00 548.00" xmlns="http://www.w3.org/2000/svg" xmlns:xlink="http://www.w3.org/1999/xlink">
<g id="graph0" class="graph" transform="scale(1 1) rotate(0) translate(4 544)">
<title>AppController</title>
<!-- Node1 -->
<g id="node1" class="node"><title>Node1</title>
<polygon fill="#bfbfbf" stroke="black" points="136.607,-385 136.607,-539 257.393,-539 257.393,-385 136.607,-385"/>
<text text-anchor="middle" x="197" y="-527" font-family="Helvetica,sans-Serif" font-size="10.00">AppController</text>
<polyline fill="none" stroke="black" points="136.607,-521 257.393,-521 "/>
<text text-anchor="middle" x="197" y="-509" font-family="Helvetica,sans-Serif" font-size="10.00"> </text>
<polyline fill="none" stroke="black" points="136.607,-503 257.393,-503 "/>
<text text-anchor="start" x="144.607" y="-491" font-family="Helvetica,sans-Serif" font-size="10.00">+ init()</text>
<text text-anchor="start" x="144.607" y="-481" font-family="Helvetica,sans-Serif" font-size="10.00">+ wait()</text>
<text text-anchor="start" x="144.607" y="-471" font-family="Helvetica,sans-Serif" font-size="10.00">+ animate()</text>
<text text-anchor="start" x="144.607" y="-461" font-family="Helvetica,sans-Serif" font-size="10.00">+ display()</text>
<text text-anchor="start" x="144.607" y="-451" font-family="Helvetica,sans-Serif" font-size="10.00">+ update()</text>
<text text-anchor="start" x="144.607" y="-441" font-family="Helvetica,sans-Serif" font-size="10.00">+ button_reset()</text>
<text text-anchor="start" x="144.607" y="-431" font-family="Helvetica,sans-Serif" font-size="10.00">+ button_wait_release()</text>
<text text-anchor="start" x="144.607" y="-421" font-family="Helvetica,sans-Serif" font-size="10.00">+ report()</text>
<text text-anchor="start" x="144.607" y="-411" font-family="Helvetica,sans-Serif" font-size="10.00">+ file_font()</text>
<text text-anchor="start" x="144.607" y="-401" font-family="Helvetica,sans-Serif" font-size="10.00">+ set_memory_font()</text>
<text text-anchor="start" x="144.607" y="-391" font-family="Helvetica,sans-Serif" font-size="10.00">and 13 more...</text>
</g>
<!-- Node2 -->
<g id="node2" class="node"><title>Node2</title>
<g id="a_node2"><a xlink:href="class_app.html" target="_top" xlink:title="App State Machine Class. ">
<polygon fill="none" stroke="black" points="-0.392578,-203 -0.392578,-337 120.393,-337 120.393,-203 -0.392578,-203"/>
<text text-anchor="middle" x="60" y="-325" font-family="Helvetica,sans-Serif" font-size="10.00">App</text>
<polyline fill="none" stroke="black" points="-0.392578,-319 120.393,-319 "/>
<text text-anchor="middle" x="60" y="-307" font-family="Helvetica,sans-Serif" font-size="10.00"> </text>
<polyline fill="none" stroke="black" points="-0.392578,-301 120.393,-301 "/>
<text text-anchor="start" x="7.60742" y="-289" font-family="Helvetica,sans-Serif" font-size="10.00">+ init()</text>
<text text-anchor="start" x="7.60742" y="-279" font-family="Helvetica,sans-Serif" font-size="10.00">+ run()</text>
<text text-anchor="start" x="7.60742" y="-269" font-family="Helvetica,sans-Serif" font-size="10.00">+ parse_args()</text>
<text text-anchor="start" x="7.60742" y="-259" font-family="Helvetica,sans-Serif" font-size="10.00">+ events()</text>
<text text-anchor="start" x="7.60742" y="-249" font-family="Helvetica,sans-Serif" font-size="10.00">+ events_reset()</text>
<text text-anchor="start" x="7.60742" y="-239" font-family="Helvetica,sans-Serif" font-size="10.00">+ set_default()</text>
<text text-anchor="start" x="7.60742" y="-229" font-family="Helvetica,sans-Serif" font-size="10.00">+ default_element()</text>
<text text-anchor="start" x="7.60742" y="-219" font-family="Helvetica,sans-Serif" font-size="10.00">+ count_screen_total()</text>
<text text-anchor="start" x="7.60742" y="-209" font-family="Helvetica,sans-Serif" font-size="10.00">+ count_screen_value()</text>
</a>
</g>
</g>
<!-- Node1&#45;&gt;Node2 -->
<g id="edge1" class="edge"><title>Node1&#45;&gt;Node2</title>
<path fill="none" stroke="midnightblue" d="M136.154,-376.615C126.606,-363.373 116.857,-349.853 107.662,-337.101"/>
<polygon fill="none" stroke="midnightblue" points="133.379,-378.75 142.066,-384.815 139.056,-374.656 133.379,-378.75"/>
</g>
<!-- Node3 -->
<g id="node3" class="node"><title>Node3</title>
<g id="a_node3"><a xlink:href="class_app_state.html" target="_top" xlink:title="App State (to be used in a State machine see App) ">
<polygon fill="none" stroke="black" points="138.001,-193 138.001,-347 255.999,-347 255.999,-193 138.001,-193"/>
<text text-anchor="middle" x="197" y="-335" font-family="Helvetica,sans-Serif" font-size="10.00">AppState</text>
<polyline fill="none" stroke="black" points="138.001,-329 255.999,-329 "/>
<text text-anchor="middle" x="197" y="-317" font-family="Helvetica,sans-Serif" font-size="10.00"> </text>
<polyline fill="none" stroke="black" points="138.001,-311 255.999,-311 "/>
<text text-anchor="start" x="146.001" y="-299" font-family="Helvetica,sans-Serif" font-size="10.00">+ AppState()</text>
<text text-anchor="start" x="146.001" y="-289" font-family="Helvetica,sans-Serif" font-size="10.00">+ entry_action()</text>
<text text-anchor="start" x="146.001" y="-279" font-family="Helvetica,sans-Serif" font-size="10.00">+ action()</text>
<text text-anchor="start" x="146.001" y="-269" font-family="Helvetica,sans-Serif" font-size="10.00">+ exit_condition()</text>
<text text-anchor="start" x="146.001" y="-259" font-family="Helvetica,sans-Serif" font-size="10.00">+ set_exit_state_left()</text>
<text text-anchor="start" x="146.001" y="-249" font-family="Helvetica,sans-Serif" font-size="10.00">+ set_exit_state_right()</text>
<text text-anchor="start" x="146.001" y="-239" font-family="Helvetica,sans-Serif" font-size="10.00">+ exit_state_left()</text>
<text text-anchor="start" x="146.001" y="-229" font-family="Helvetica,sans-Serif" font-size="10.00">+ exit_state_right()</text>
<text text-anchor="start" x="146.001" y="-219" font-family="Helvetica,sans-Serif" font-size="10.00"># draw_animation()</text>
<text text-anchor="start" x="146.001" y="-209" font-family="Helvetica,sans-Serif" font-size="10.00"># draw()</text>
<text text-anchor="start" x="146.001" y="-199" font-family="Helvetica,sans-Serif" font-size="10.00"># draw()</text>
</a>
</g>
</g>
<!-- Node1&#45;&gt;Node3 -->
<g id="edge2" class="edge"><title>Node1&#45;&gt;Node3</title>
<path fill="none" stroke="midnightblue" d="M197,-374.57C197,-365.44 197,-356.204 197,-347.203"/>
<polygon fill="none" stroke="midnightblue" points="193.5,-374.814 197,-384.815 200.5,-374.815 193.5,-374.814"/>
</g>
<!-- Node4 -->
<g id="node4" class="node"><title>Node4</title>
<g id="a_node4"><a xlink:href="class_screen.html" target="_top" xlink:title="Screen Class. ">
<polygon fill="none" stroke="black" points="273.669,-228 273.669,-312 368.331,-312 368.331,-228 273.669,-228"/>
<text text-anchor="middle" x="321" y="-300" font-family="Helvetica,sans-Serif" font-size="10.00">Screen</text>
<polyline fill="none" stroke="black" points="273.669,-294 368.331,-294 "/>
<text text-anchor="middle" x="321" y="-282" font-family="Helvetica,sans-Serif" font-size="10.00"> </text>
<polyline fill="none" stroke="black" points="273.669,-276 368.331,-276 "/>
<text text-anchor="start" x="281.669" y="-264" font-family="Helvetica,sans-Serif" font-size="10.00">+ Screen()</text>
<text text-anchor="start" x="281.669" y="-254" font-family="Helvetica,sans-Serif" font-size="10.00">+ menu()</text>
<text text-anchor="start" x="281.669" y="-244" font-family="Helvetica,sans-Serif" font-size="10.00">+ set_menu()</text>
<text text-anchor="start" x="281.669" y="-234" font-family="Helvetica,sans-Serif" font-size="10.00">+ event_handler()</text>
</a>
</g>
</g>
<!-- Node1&#45;&gt;Node4 -->
<g id="edge3" class="edge"><title>Node1&#45;&gt;Node4</title>
<path fill="none" stroke="midnightblue" d="M252.255,-376.336C266.774,-354.088 281.793,-331.076 294.075,-312.256"/>
<polygon fill="none" stroke="midnightblue" points="249.255,-374.527 246.721,-384.815 255.118,-378.353 249.255,-374.527"/>
</g>
<!-- Node5 -->
<g id="node5" class="node"><title>Node5</title>
<g id="a_node5"><a xlink:href="class_map.html" target="_top" xlink:title="Map Class (for mapping coords to display) ">
<polygon fill="none" stroke="black" points="265.061,-1 265.061,-155 376.939,-155 376.939,-1 265.061,-1"/>
<text text-anchor="middle" x="321" y="-143" font-family="Helvetica,sans-Serif" font-size="10.00">Map</text>
<polyline fill="none" stroke="black" points="265.061,-137 376.939,-137 "/>
<text text-anchor="middle" x="321" y="-125" font-family="Helvetica,sans-Serif" font-size="10.00"> </text>
<polyline fill="none" stroke="black" points="265.061,-119 376.939,-119 "/>
<text text-anchor="start" x="273.061" y="-107" font-family="Helvetica,sans-Serif" font-size="10.00">+ Map()</text>
<text text-anchor="start" x="273.061" y="-97" font-family="Helvetica,sans-Serif" font-size="10.00">+ point()</text>
<text text-anchor="start" x="273.061" y="-87" font-family="Helvetica,sans-Serif" font-size="10.00">+ distance()</text>
<text text-anchor="start" x="273.061" y="-77" font-family="Helvetica,sans-Serif" font-size="10.00">+ heading()</text>
<text text-anchor="start" x="273.061" y="-67" font-family="Helvetica,sans-Serif" font-size="10.00">+ center()</text>
<text text-anchor="start" x="273.061" y="-57" font-family="Helvetica,sans-Serif" font-size="10.00">+ set_heading()</text>
<text text-anchor="start" x="273.061" y="-47" font-family="Helvetica,sans-Serif" font-size="10.00">+ set_selector()</text>
<text text-anchor="start" x="273.061" y="-37" font-family="Helvetica,sans-Serif" font-size="10.00">+ selector()</text>
<text text-anchor="start" x="273.061" y="-27" font-family="Helvetica,sans-Serif" font-size="10.00">+ set_bitmap()</text>
<text text-anchor="start" x="273.061" y="-17" font-family="Helvetica,sans-Serif" font-size="10.00">+ set_max_distance()</text>
<text text-anchor="start" x="273.061" y="-7" font-family="Helvetica,sans-Serif" font-size="10.00">and 19 more...</text>
</a>
</g>
</g>
<!-- Node4&#45;&gt;Node5 -->
<g id="edge4" class="edge"><title>Node4&#45;&gt;Node5</title>
<path fill="none" stroke="midnightblue" d="M321,-217.751C321,-198.57 321,-176.344 321,-155.378"/>
<polygon fill="none" stroke="midnightblue" points="317.5,-217.773 321,-227.773 324.5,-217.773 317.5,-217.773"/>
</g>
</g>
</svg>
