<?xml version="1.0" encoding="UTF-8" standalone="no"?>
<!DOCTYPE svg PUBLIC "-//W3C//DTD SVG 1.1//EN"
 "http://www.w3.org/Graphics/SVG/1.1/DTD/svg11.dtd">
<!-- Generated by graphviz version 2.36.0 (20140111.2315)
 -->
<!-- Title: ListItem Pages: 1 -->
<svg width="461pt" height="668pt"
 viewBox="0.00 0.00 461.00 668.00" xmlns="http://www.w3.org/2000/svg" xmlns:xlink="http://www.w3.org/1999/xlink">
<g id="graph0" class="graph" transform="scale(1 1) rotate(0) translate(4 664)">
<title>ListItem</title>
<!-- Node1 -->
<g id="node1" class="node"><title>Node1</title>
<polygon fill="#bfbfbf" stroke="black" points="175.393,-183 175.393,-367 280.607,-367 280.607,-183 175.393,-183"/>
<text text-anchor="middle" x="228" y="-355" font-family="Helvetica,sans-Serif" font-size="10.00">ListItem</text>
<polyline fill="none" stroke="black" points="175.393,-349 280.607,-349 "/>
<text text-anchor="middle" x="228" y="-337" font-family="Helvetica,sans-Serif" font-size="10.00"> </text>
<polyline fill="none" stroke="black" points="175.393,-331 280.607,-331 "/>
<text text-anchor="start" x="183.393" y="-319" font-family="Helvetica,sans-Serif" font-size="10.00">+ ListItem()</text>
<text text-anchor="start" x="183.393" y="-309" font-family="Helvetica,sans-Serif" font-size="10.00">+ ListItem()</text>
<text text-anchor="start" x="183.393" y="-299" font-family="Helvetica,sans-Serif" font-size="10.00">+ ListItem()</text>
<text text-anchor="start" x="183.393" y="-289" font-family="Helvetica,sans-Serif" font-size="10.00">+ ListItem()</text>
<text text-anchor="start" x="183.393" y="-279" font-family="Helvetica,sans-Serif" font-size="10.00">+ select()</text>
<text text-anchor="start" x="183.393" y="-269" font-family="Helvetica,sans-Serif" font-size="10.00">+ set_app_icon()</text>
<text text-anchor="start" x="183.393" y="-259" font-family="Helvetica,sans-Serif" font-size="10.00">+ set_sys_icon()</text>
<text text-anchor="start" x="183.393" y="-249" font-family="Helvetica,sans-Serif" font-size="10.00">+ set_sys_gfx()</text>
<text text-anchor="start" x="183.393" y="-239" font-family="Helvetica,sans-Serif" font-size="10.00">+ load_icon()</text>
<text text-anchor="start" x="183.393" y="-229" font-family="Helvetica,sans-Serif" font-size="10.00">+ set_thickness()</text>
<text text-anchor="start" x="183.393" y="-219" font-family="Helvetica,sans-Serif" font-size="10.00">+ set_rotation()</text>
<text text-anchor="start" x="183.393" y="-209" font-family="Helvetica,sans-Serif" font-size="10.00">+ label()</text>
<text text-anchor="start" x="183.393" y="-199" font-family="Helvetica,sans-Serif" font-size="10.00">+ set_label()</text>
<text text-anchor="start" x="183.393" y="-189" font-family="Helvetica,sans-Serif" font-size="10.00">+ draw_on_bitmap()</text>
</g>
<!-- Node3 -->
<g id="node3" class="node"><title>Node3</title>
<g id="a_node3"><a xlink:href="class_list_item_callback.html" target="_top" xlink:title="List Item Callback Class. ">
<polygon fill="none" stroke="black" points="-0.318848,-31 -0.318848,-115 104.319,-115 104.319,-31 -0.318848,-31"/>
<text text-anchor="middle" x="52" y="-103" font-family="Helvetica,sans-Serif" font-size="10.00">ListItemCallback</text>
<polyline fill="none" stroke="black" points="-0.318848,-97 104.319,-97 "/>
<text text-anchor="middle" x="52" y="-85" font-family="Helvetica,sans-Serif" font-size="10.00"> </text>
<polyline fill="none" stroke="black" points="-0.318848,-79 104.319,-79 "/>
<text text-anchor="start" x="7.68115" y="-67" font-family="Helvetica,sans-Serif" font-size="10.00">+ ListItemCallback()</text>
<text text-anchor="start" x="7.68115" y="-57" font-family="Helvetica,sans-Serif" font-size="10.00">+ ListItemCallback()</text>
<text text-anchor="start" x="7.68115" y="-47" font-family="Helvetica,sans-Serif" font-size="10.00">+ ListItemCallback()</text>
<text text-anchor="start" x="7.68115" y="-37" font-family="Helvetica,sans-Serif" font-size="10.00">+ select()</text>
</a>
</g>
</g>
<!-- Node1&#45;&gt;Node3 -->
<g id="edge2" class="edge"><title>Node1&#45;&gt;Node3</title>
<path fill="none" stroke="midnightblue" d="M168.622,-207.754C150.974,-187.951 131.645,-166.148 114,-146 105.306,-136.072 95.9906,-125.318 87.2918,-115.224"/>
<polygon fill="none" stroke="midnightblue" points="166.028,-210.104 175.296,-215.238 171.252,-205.445 166.028,-210.104"/>
</g>
<!-- Node4 -->
<g id="node4" class="node"><title>Node4</title>
<g id="a_node4"><a xlink:href="class_list_item_check.html" target="_top" xlink:title="List Item Check (for use in a checklist) ">
<polygon fill="none" stroke="black" points="122.684,-31 122.684,-115 217.316,-115 217.316,-31 122.684,-31"/>
<text text-anchor="middle" x="170" y="-103" font-family="Helvetica,sans-Serif" font-size="10.00">ListItemCheck</text>
<polyline fill="none" stroke="black" points="122.684,-97 217.316,-97 "/>
<text text-anchor="middle" x="170" y="-85" font-family="Helvetica,sans-Serif" font-size="10.00"> </text>
<polyline fill="none" stroke="black" points="122.684,-79 217.316,-79 "/>
<text text-anchor="start" x="130.684" y="-67" font-family="Helvetica,sans-Serif" font-size="10.00">+ ListItemCheck()</text>
<text text-anchor="start" x="130.684" y="-57" font-family="Helvetica,sans-Serif" font-size="10.00">+ ListItemCheck()</text>
<text text-anchor="start" x="130.684" y="-47" font-family="Helvetica,sans-Serif" font-size="10.00">+ select()</text>
<text text-anchor="start" x="130.684" y="-37" font-family="Helvetica,sans-Serif" font-size="10.00">+ set_enabled()</text>
</a>
</g>
</g>
<!-- Node1&#45;&gt;Node4 -->
<g id="edge3" class="edge"><title>Node1&#45;&gt;Node4</title>
<path fill="none" stroke="midnightblue" d="M198.721,-173.037C192.768,-152.511 186.832,-132.04 181.914,-115.082"/>
<polygon fill="none" stroke="midnightblue" points="195.399,-174.15 201.546,-182.779 202.122,-172.2 195.399,-174.15"/>
</g>
<!-- Node5 -->
<g id="node5" class="node"><title>Node5</title>
<g id="a_node5"><a xlink:href="class_list_item_element.html" target="_top" xlink:title="List Item Element Class. ">
<polygon fill="none" stroke="black" points="235.514,-1 235.514,-145 338.486,-145 338.486,-1 235.514,-1"/>
<text text-anchor="middle" x="287" y="-133" font-family="Helvetica,sans-Serif" font-size="10.00">ListItemElement</text>
<polyline fill="none" stroke="black" points="235.514,-127 338.486,-127 "/>
<text text-anchor="middle" x="287" y="-115" font-family="Helvetica,sans-Serif" font-size="10.00"> </text>
<polyline fill="none" stroke="black" points="235.514,-109 338.486,-109 "/>
<text text-anchor="start" x="243.514" y="-97" font-family="Helvetica,sans-Serif" font-size="10.00">+ ListItemElement()</text>
<text text-anchor="start" x="243.514" y="-87" font-family="Helvetica,sans-Serif" font-size="10.00">+ ListItemElement()</text>
<text text-anchor="start" x="243.514" y="-77" font-family="Helvetica,sans-Serif" font-size="10.00">+ ListItemElement()</text>
<text text-anchor="start" x="243.514" y="-67" font-family="Helvetica,sans-Serif" font-size="10.00">+ ListItemElement()</text>
<text text-anchor="start" x="243.514" y="-57" font-family="Helvetica,sans-Serif" font-size="10.00">+ set_child()</text>
<text text-anchor="start" x="243.514" y="-47" font-family="Helvetica,sans-Serif" font-size="10.00">+ child()</text>
<text text-anchor="start" x="243.514" y="-37" font-family="Helvetica,sans-Serif" font-size="10.00">+ set_target()</text>
<text text-anchor="start" x="243.514" y="-27" font-family="Helvetica,sans-Serif" font-size="10.00">+ target()</text>
<text text-anchor="start" x="243.514" y="-17" font-family="Helvetica,sans-Serif" font-size="10.00">+ setup_element()</text>
<text text-anchor="start" x="243.514" y="-7" font-family="Helvetica,sans-Serif" font-size="10.00">+ select()</text>
</a>
</g>
</g>
<!-- Node1&#45;&gt;Node5 -->
<g id="edge4" class="edge"><title>Node1&#45;&gt;Node5</title>
<path fill="none" stroke="midnightblue" d="M257.808,-172.954C260.592,-163.518 263.373,-154.093 266.05,-145.017"/>
<polygon fill="none" stroke="midnightblue" points="254.383,-172.197 254.91,-182.779 261.097,-174.178 254.383,-172.197"/>
</g>
<!-- Node6 -->
<g id="node6" class="node"><title>Node6</title>
<g id="a_node6"><a xlink:href="class_list_item_toggle.html" target="_top" xlink:title="Toggle Item. ">
<polygon fill="none" stroke="black" points="356.561,-31 356.561,-115 453.439,-115 453.439,-31 356.561,-31"/>
<text text-anchor="middle" x="405" y="-103" font-family="Helvetica,sans-Serif" font-size="10.00">ListItemToggle</text>
<polyline fill="none" stroke="black" points="356.561,-97 453.439,-97 "/>
<text text-anchor="middle" x="405" y="-85" font-family="Helvetica,sans-Serif" font-size="10.00"> </text>
<polyline fill="none" stroke="black" points="356.561,-79 453.439,-79 "/>
<text text-anchor="start" x="364.561" y="-67" font-family="Helvetica,sans-Serif" font-size="10.00">+ ListItemToggle()</text>
<text text-anchor="start" x="364.561" y="-57" font-family="Helvetica,sans-Serif" font-size="10.00">+ select()</text>
<text text-anchor="start" x="364.561" y="-47" font-family="Helvetica,sans-Serif" font-size="10.00">+ set_enabled()</text>
<text text-anchor="start" x="364.561" y="-37" font-family="Helvetica,sans-Serif" font-size="10.00">+ setup_element()</text>
</a>
</g>
</g>
<!-- Node1&#45;&gt;Node6 -->
<g id="edge5" class="edge"><title>Node1&#45;&gt;Node6</title>
<path fill="none" stroke="midnightblue" d="M287.704,-211.561C306.948,-190.966 328.163,-167.759 347,-146 355.51,-136.17 364.441,-125.353 372.675,-115.157"/>
<polygon fill="none" stroke="midnightblue" points="284.995,-209.333 280.711,-219.023 290.103,-214.119 284.995,-209.333"/>
</g>
<!-- Node2 -->
<g id="node2" class="node"><title>Node2</title>
<g id="a_node2"><a xlink:href="class_element.html" target="_top" xlink:title="Element Class. ">
<polygon fill="none" stroke="black" points="175.527,-405 175.527,-659 280.473,-659 280.473,-405 175.527,-405"/>
<text text-anchor="middle" x="228" y="-647" font-family="Helvetica,sans-Serif" font-size="10.00">Element</text>
<polyline fill="none" stroke="black" points="175.527,-641 280.473,-641 "/>
<text text-anchor="start" x="183.527" y="-629" font-family="Helvetica,sans-Serif" font-size="10.00"># flags</text>
<polyline fill="none" stroke="black" points="175.527,-623 280.473,-623 "/>
<text text-anchor="start" x="183.527" y="-611" font-family="Helvetica,sans-Serif" font-size="10.00">+ Element()</text>
<text text-anchor="start" x="183.527" y="-601" font-family="Helvetica,sans-Serif" font-size="10.00">+ Element()</text>
<text text-anchor="start" x="183.527" y="-591" font-family="Helvetica,sans-Serif" font-size="10.00">+ setup()</text>
<text text-anchor="start" x="183.527" y="-581" font-family="Helvetica,sans-Serif" font-size="10.00">+ parent()</text>
<text text-anchor="start" x="183.527" y="-571" font-family="Helvetica,sans-Serif" font-size="10.00">+ set_parent()</text>
<text text-anchor="start" x="183.527" y="-561" font-family="Helvetica,sans-Serif" font-size="10.00">+ draw()</text>
<text text-anchor="start" x="183.527" y="-551" font-family="Helvetica,sans-Serif" font-size="10.00">+ draw()</text>
<text text-anchor="start" x="183.527" y="-541" font-family="Helvetica,sans-Serif" font-size="10.00">+ draw()</text>
<text text-anchor="start" x="183.527" y="-531" font-family="Helvetica,sans-Serif" font-size="10.00">+ draw()</text>
<text text-anchor="start" x="183.527" y="-521" font-family="Helvetica,sans-Serif" font-size="10.00">+ set_dim()</text>
<text text-anchor="start" x="183.527" y="-511" font-family="Helvetica,sans-Serif" font-size="10.00">and 40 more...</text>
<text text-anchor="start" x="183.527" y="-501" font-family="Helvetica,sans-Serif" font-size="10.00">+ dim_on_bitmap()</text>
<text text-anchor="start" x="183.527" y="-491" font-family="Helvetica,sans-Serif" font-size="10.00">+ center()</text>
<text text-anchor="start" x="183.527" y="-481" font-family="Helvetica,sans-Serif" font-size="10.00">+ scale()</text>
<text text-anchor="start" x="183.527" y="-471" font-family="Helvetica,sans-Serif" font-size="10.00">+ set_scale()</text>
<text text-anchor="start" x="183.527" y="-461" font-family="Helvetica,sans-Serif" font-size="10.00"># draw_scroll()</text>
<text text-anchor="start" x="183.527" y="-451" font-family="Helvetica,sans-Serif" font-size="10.00"># setup_element()</text>
<text text-anchor="start" x="183.527" y="-441" font-family="Helvetica,sans-Serif" font-size="10.00"># dim_on_bitmap()</text>
<text text-anchor="start" x="183.527" y="-431" font-family="Helvetica,sans-Serif" font-size="10.00"># point_on_bitmap()</text>
<text text-anchor="start" x="183.527" y="-421" font-family="Helvetica,sans-Serif" font-size="10.00"># adjust_x_center()</text>
<text text-anchor="start" x="183.527" y="-411" font-family="Helvetica,sans-Serif" font-size="10.00"># pixel_padding()</text>
</a>
</g>
</g>
<!-- Node2&#45;&gt;Node1 -->
<g id="edge1" class="edge"><title>Node2&#45;&gt;Node1</title>
<path fill="none" stroke="midnightblue" d="M228,-394.801C228,-385.421 228,-376.104 228,-367.054"/>
<polygon fill="none" stroke="midnightblue" points="224.5,-394.994 228,-404.994 231.5,-394.994 224.5,-394.994"/>
</g>
</g>
</svg>
