<?xml version="1.0" encoding="UTF-8" standalone="no"?>
<!DOCTYPE svg PUBLIC "-//W3C//DTD SVG 1.1//EN"
 "http://www.w3.org/Graphics/SVG/1.1/DTD/svg11.dtd">
<!-- Generated by graphviz version 2.36.0 (20140111.2315)
 -->
<!-- Title: ListItemToggle Pages: 1 -->
<svg width="102pt" height="276pt"
 viewBox="0.00 0.00 102.00 276.00" xmlns="http://www.w3.org/2000/svg" xmlns:xlink="http://www.w3.org/1999/xlink">
<g id="graph0" class="graph" transform="scale(1 1) rotate(0) translate(4 272)">
<title>ListItemToggle</title>
<!-- Node1 -->
<g id="node1" class="node"><title>Node1</title>
<polygon fill="#bfbfbf" stroke="black" points="-0.87793,-1 -0.87793,-75 94.8779,-75 94.8779,-1 -0.87793,-1"/>
<text text-anchor="middle" x="47" y="-63" font-family="Helvetica,sans-Serif" font-size="10.00">ListItemToggle</text>
<polyline fill="none" stroke="black" points="-0.87793,-57 94.8779,-57 "/>
<text text-anchor="middle" x="47" y="-45" font-family="Helvetica,sans-Serif" font-size="10.00"> </text>
<polyline fill="none" stroke="black" points="-0.87793,-39 94.8779,-39 "/>
<text text-anchor="start" x="7.12207" y="-27" font-family="Helvetica,sans-Serif" font-size="10.00">+ ListItemToggle()</text>
<text text-anchor="start" x="7.12207" y="-17" font-family="Helvetica,sans-Serif" font-size="10.00">+ event_handler()</text>
<text text-anchor="start" x="7.12207" y="-7" font-family="Helvetica,sans-Serif" font-size="10.00">+ set_enabled()</text>
</g>
<!-- Node2 -->
<g id="node2" class="node"><title>Node2</title>
<g id="a_node2"><a xlink:href="class_list_item.html" target="_top" xlink:title="List Item Class. ">
<polygon fill="none" stroke="black" points="1.06787,-113 1.06787,-267 92.9321,-267 92.9321,-113 1.06787,-113"/>
<text text-anchor="middle" x="47" y="-255" font-family="Helvetica,sans-Serif" font-size="10.00">ListItem</text>
<polyline fill="none" stroke="black" points="1.06787,-249 92.9321,-249 "/>
<text text-anchor="middle" x="47" y="-237" font-family="Helvetica,sans-Serif" font-size="10.00"> </text>
<polyline fill="none" stroke="black" points="1.06787,-231 92.9321,-231 "/>
<text text-anchor="start" x="9.06787" y="-219" font-family="Helvetica,sans-Serif" font-size="10.00">+ ListItem()</text>
<text text-anchor="start" x="9.06787" y="-209" font-family="Helvetica,sans-Serif" font-size="10.00">+ ListItem()</text>
<text text-anchor="start" x="9.06787" y="-199" font-family="Helvetica,sans-Serif" font-size="10.00">+ ListItem()</text>
<text text-anchor="start" x="9.06787" y="-189" font-family="Helvetica,sans-Serif" font-size="10.00">+ ListItem()</text>
<text text-anchor="start" x="9.06787" y="-179" font-family="Helvetica,sans-Serif" font-size="10.00">+ ListItem()</text>
<text text-anchor="start" x="9.06787" y="-169" font-family="Helvetica,sans-Serif" font-size="10.00">+ set_app_icon()</text>
<text text-anchor="start" x="9.06787" y="-159" font-family="Helvetica,sans-Serif" font-size="10.00">+ set_sys_gfx()</text>
<text text-anchor="start" x="9.06787" y="-149" font-family="Helvetica,sans-Serif" font-size="10.00">+ load_icon()</text>
<text text-anchor="start" x="9.06787" y="-139" font-family="Helvetica,sans-Serif" font-size="10.00">+ set_thickness()</text>
<text text-anchor="start" x="9.06787" y="-129" font-family="Helvetica,sans-Serif" font-size="10.00">+ set_rotation()</text>
<text text-anchor="start" x="9.06787" y="-119" font-family="Helvetica,sans-Serif" font-size="10.00">and 6 more...</text>
</a>
</g>
</g>
<!-- Node2&#45;&gt;Node1 -->
<g id="edge1" class="edge"><title>Node2&#45;&gt;Node1</title>
<path fill="none" stroke="midnightblue" d="M47,-102.643C47,-93.0726 47,-83.7544 47,-75.3317"/>
<polygon fill="none" stroke="midnightblue" points="43.5001,-102.682 47,-112.682 50.5001,-102.682 43.5001,-102.682"/>
</g>
</g>
</svg>
