<?xml version="1.0" encoding="UTF-8" standalone="no"?>
<!DOCTYPE svg PUBLIC "-//W3C//DTD SVG 1.1//EN"
 "http://www.w3.org/Graphics/SVG/1.1/DTD/svg11.dtd">
<!-- Generated by graphviz version 2.36.0 (20140111.2315)
 -->
<!-- Title: ProgressElement Pages: 1 -->
<svg width="331pt" height="226pt"
 viewBox="0.00 0.00 331.00 226.00" xmlns="http://www.w3.org/2000/svg" xmlns:xlink="http://www.w3.org/1999/xlink">
<g id="graph0" class="graph" transform="scale(1 1) rotate(0) translate(4 222)">
<title>ProgressElement</title>
<!-- Node1 -->
<g id="node1" class="node"><title>Node1</title>
<polygon fill="#bfbfbf" stroke="black" points="107.011,-113 107.011,-217 214.989,-217 214.989,-113 107.011,-113"/>
<text text-anchor="middle" x="161" y="-205" font-family="Helvetica,sans-Serif" font-size="10.00">ProgressElement</text>
<polyline fill="none" stroke="black" points="107.011,-199 214.989,-199 "/>
<text text-anchor="start" x="115.011" y="-187" font-family="Helvetica,sans-Serif" font-size="10.00"># _progress</text>
<polyline fill="none" stroke="black" points="107.011,-181 214.989,-181 "/>
<text text-anchor="start" x="115.011" y="-169" font-family="Helvetica,sans-Serif" font-size="10.00">+ ProgressElement()</text>
<text text-anchor="start" x="115.011" y="-159" font-family="Helvetica,sans-Serif" font-size="10.00">+ ProgressElement()</text>
<text text-anchor="start" x="115.011" y="-149" font-family="Helvetica,sans-Serif" font-size="10.00">+ progress()</text>
<text text-anchor="start" x="115.011" y="-139" font-family="Helvetica,sans-Serif" font-size="10.00">+ attr()</text>
<text text-anchor="start" x="115.011" y="-129" font-family="Helvetica,sans-Serif" font-size="10.00">+ value()</text>
<text text-anchor="start" x="115.011" y="-119" font-family="Helvetica,sans-Serif" font-size="10.00">+ max()</text>
</g>
<!-- Node2 -->
<g id="node2" class="node"><title>Node2</title>
<g id="a_node2"><a xlink:href="class_progress_arc.html" target="_top" xlink:title="Progress Arc Class. ">
<polygon fill="none" stroke="black" points="-0.880371,-1 -0.880371,-75 94.8804,-75 94.8804,-1 -0.880371,-1"/>
<text text-anchor="middle" x="47" y="-63" font-family="Helvetica,sans-Serif" font-size="10.00">ProgressArc</text>
<polyline fill="none" stroke="black" points="-0.880371,-57 94.8804,-57 "/>
<text text-anchor="middle" x="47" y="-45" font-family="Helvetica,sans-Serif" font-size="10.00"> </text>
<polyline fill="none" stroke="black" points="-0.880371,-39 94.8804,-39 "/>
<text text-anchor="start" x="7.11963" y="-27" font-family="Helvetica,sans-Serif" font-size="10.00">+ ProgressArc()</text>
<text text-anchor="start" x="7.11963" y="-17" font-family="Helvetica,sans-Serif" font-size="10.00">+ ProgressArc()</text>
<text text-anchor="start" x="7.11963" y="-7" font-family="Helvetica,sans-Serif" font-size="10.00">+ draw_to_scale()</text>
</a>
</g>
</g>
<!-- Node1&#45;&gt;Node2 -->
<g id="edge1" class="edge"><title>Node1&#45;&gt;Node2</title>
<path fill="none" stroke="midnightblue" d="M107.477,-105.313C98.0523,-94.9784 88.5,-84.5044 79.8564,-75.0268"/>
<polygon fill="none" stroke="midnightblue" points="104.978,-107.767 114.303,-112.797 110.15,-103.05 104.978,-107.767"/>
</g>
<!-- Node3 -->
<g id="node3" class="node"><title>Node3</title>
<g id="a_node3"><a xlink:href="class_progress_bar.html" target="_top" xlink:title="Progress Bar Class. ">
<polygon fill="none" stroke="black" points="113.12,-1 113.12,-75 208.88,-75 208.88,-1 113.12,-1"/>
<text text-anchor="middle" x="161" y="-63" font-family="Helvetica,sans-Serif" font-size="10.00">ProgressBar</text>
<polyline fill="none" stroke="black" points="113.12,-57 208.88,-57 "/>
<text text-anchor="middle" x="161" y="-45" font-family="Helvetica,sans-Serif" font-size="10.00"> </text>
<polyline fill="none" stroke="black" points="113.12,-39 208.88,-39 "/>
<text text-anchor="start" x="121.12" y="-27" font-family="Helvetica,sans-Serif" font-size="10.00">+ ProgressBar()</text>
<text text-anchor="start" x="121.12" y="-17" font-family="Helvetica,sans-Serif" font-size="10.00">+ ProgressBar()</text>
<text text-anchor="start" x="121.12" y="-7" font-family="Helvetica,sans-Serif" font-size="10.00">+ draw_to_scale()</text>
</a>
</g>
</g>
<!-- Node1&#45;&gt;Node3 -->
<g id="edge2" class="edge"><title>Node1&#45;&gt;Node3</title>
<path fill="none" stroke="midnightblue" d="M161,-102.601C161,-93.1556 161,-83.6763 161,-75.0268"/>
<polygon fill="none" stroke="midnightblue" points="157.5,-102.797 161,-112.797 164.5,-102.797 157.5,-102.797"/>
</g>
<!-- Node4 -->
<g id="node4" class="node"><title>Node4</title>
<g id="a_node4"><a xlink:href="class_progress_circle.html" target="_top" xlink:title="Progress Circle Class. ">
<polygon fill="none" stroke="black" points="226.575,-6 226.575,-70 323.425,-70 323.425,-6 226.575,-6"/>
<text text-anchor="middle" x="275" y="-58" font-family="Helvetica,sans-Serif" font-size="10.00">ProgressCircle</text>
<polyline fill="none" stroke="black" points="226.575,-52 323.425,-52 "/>
<text text-anchor="middle" x="275" y="-40" font-family="Helvetica,sans-Serif" font-size="10.00"> </text>
<polyline fill="none" stroke="black" points="226.575,-34 323.425,-34 "/>
<text text-anchor="start" x="234.575" y="-22" font-family="Helvetica,sans-Serif" font-size="10.00">+ ProgressCircle()</text>
<text text-anchor="start" x="234.575" y="-12" font-family="Helvetica,sans-Serif" font-size="10.00">+ ProgressCircle()</text>
</a>
</g>
</g>
<!-- Node1&#45;&gt;Node4 -->
<g id="edge3" class="edge"><title>Node1&#45;&gt;Node4</title>
<path fill="none" stroke="midnightblue" d="M214.534,-105.3C225.575,-93.1936 236.791,-80.8963 246.514,-70.2342"/>
<polygon fill="none" stroke="midnightblue" points="211.85,-103.05 207.697,-112.797 217.022,-107.767 211.85,-103.05"/>
</g>
</g>
</svg>
