<?xml version="1.0" encoding="UTF-8" standalone="no"?>
<!DOCTYPE svg PUBLIC "-//W3C//DTD SVG 1.1//EN"
 "http://www.w3.org/Graphics/SVG/1.1/DTD/svg11.dtd">
<!-- Generated by graphviz version 2.36.0 (20140111.2315)
 -->
<!-- Title: EditSysBrightness Pages: 1 -->
<svg width="438pt" height="388pt"
 viewBox="0.00 0.00 438.00 388.00" xmlns="http://www.w3.org/2000/svg" xmlns:xlink="http://www.w3.org/1999/xlink">
<g id="graph0" class="graph" transform="scale(1 1) rotate(0) translate(4 384)">
<title>EditSysBrightness</title>
<!-- Node1 -->
<g id="node1" class="node"><title>Node1</title>
<polygon fill="#bfbfbf" stroke="black" points="159.787,-113 159.787,-217 272.213,-217 272.213,-113 159.787,-113"/>
<text text-anchor="middle" x="216" y="-205" font-family="Helvetica,sans-Serif" font-size="10.00">EditSysBrightness</text>
<polyline fill="none" stroke="black" points="159.787,-199 272.213,-199 "/>
<text text-anchor="start" x="167.787" y="-187" font-family="Helvetica,sans-Serif" font-size="10.00"># brightness</text>
<polyline fill="none" stroke="black" points="159.787,-181 272.213,-181 "/>
<text text-anchor="start" x="167.787" y="-169" font-family="Helvetica,sans-Serif" font-size="10.00">+ EditSysBrightness()</text>
<text text-anchor="start" x="167.787" y="-159" font-family="Helvetica,sans-Serif" font-size="10.00">+ increment()</text>
<text text-anchor="start" x="167.787" y="-149" font-family="Helvetica,sans-Serif" font-size="10.00">+ decrement()</text>
<text text-anchor="start" x="167.787" y="-139" font-family="Helvetica,sans-Serif" font-size="10.00">+ load()</text>
<text text-anchor="start" x="167.787" y="-129" font-family="Helvetica,sans-Serif" font-size="10.00">+ save()</text>
<text text-anchor="start" x="167.787" y="-119" font-family="Helvetica,sans-Serif" font-size="10.00">+ copy()</text>
</g>
<!-- Node3 -->
<g id="node3" class="node"><title>Node3</title>
<g id="a_node3"><a xlink:href="class_edit_sys_brightness_high.html" target="_top" xlink:title="Edit System High Brightness Class. ">
<polygon fill="none" stroke="black" points="-0.496094,-1 -0.496094,-75 132.496,-75 132.496,-1 -0.496094,-1"/>
<text text-anchor="middle" x="66" y="-63" font-family="Helvetica,sans-Serif" font-size="10.00">EditSysBrightnessHigh</text>
<polyline fill="none" stroke="black" points="-0.496094,-57 132.496,-57 "/>
<text text-anchor="middle" x="66" y="-45" font-family="Helvetica,sans-Serif" font-size="10.00"> </text>
<polyline fill="none" stroke="black" points="-0.496094,-39 132.496,-39 "/>
<text text-anchor="start" x="7.50391" y="-27" font-family="Helvetica,sans-Serif" font-size="10.00">+ EditSysBrightnessHigh()</text>
<text text-anchor="start" x="7.50391" y="-17" font-family="Helvetica,sans-Serif" font-size="10.00">+ load()</text>
<text text-anchor="start" x="7.50391" y="-7" font-family="Helvetica,sans-Serif" font-size="10.00">+ save()</text>
</a>
</g>
</g>
<!-- Node1&#45;&gt;Node3 -->
<g id="edge2" class="edge"><title>Node1&#45;&gt;Node3</title>
<path fill="none" stroke="midnightblue" d="M151.843,-110.536C137.542,-98.6184 122.704,-86.2534 109.468,-75.2234"/>
<polygon fill="none" stroke="midnightblue" points="149.796,-113.386 159.719,-117.099 154.277,-108.008 149.796,-113.386"/>
</g>
<!-- Node4 -->
<g id="node4" class="node"><title>Node4</title>
<g id="a_node4"><a xlink:href="class_edit_sys_brightness_low.html" target="_top" xlink:title="Edit System Low Brightness Class. ">
<polygon fill="none" stroke="black" points="150.615,-1 150.615,-75 281.385,-75 281.385,-1 150.615,-1"/>
<text text-anchor="middle" x="216" y="-63" font-family="Helvetica,sans-Serif" font-size="10.00">EditSysBrightnessLow</text>
<polyline fill="none" stroke="black" points="150.615,-57 281.385,-57 "/>
<text text-anchor="middle" x="216" y="-45" font-family="Helvetica,sans-Serif" font-size="10.00"> </text>
<polyline fill="none" stroke="black" points="150.615,-39 281.385,-39 "/>
<text text-anchor="start" x="158.615" y="-27" font-family="Helvetica,sans-Serif" font-size="10.00">+ EditSysBrightnessLow()</text>
<text text-anchor="start" x="158.615" y="-17" font-family="Helvetica,sans-Serif" font-size="10.00">+ load()</text>
<text text-anchor="start" x="158.615" y="-7" font-family="Helvetica,sans-Serif" font-size="10.00">+ save()</text>
</a>
</g>
</g>
<!-- Node1&#45;&gt;Node4 -->
<g id="edge3" class="edge"><title>Node1&#45;&gt;Node4</title>
<path fill="none" stroke="midnightblue" d="M216,-102.601C216,-93.1556 216,-83.6763 216,-75.0268"/>
<polygon fill="none" stroke="midnightblue" points="212.5,-102.797 216,-112.797 219.5,-102.797 212.5,-102.797"/>
</g>
<!-- Node5 -->
<g id="node5" class="node"><title>Node5</title>
<g id="a_node5"><a xlink:href="class_edit_sys_brightness_med.html" target="_top" xlink:title="Edit System Med Brightness Class. ">
<polygon fill="none" stroke="black" points="299.061,-1 299.061,-75 430.939,-75 430.939,-1 299.061,-1"/>
<text text-anchor="middle" x="365" y="-63" font-family="Helvetica,sans-Serif" font-size="10.00">EditSysBrightnessMed</text>
<polyline fill="none" stroke="black" points="299.061,-57 430.939,-57 "/>
<text text-anchor="middle" x="365" y="-45" font-family="Helvetica,sans-Serif" font-size="10.00"> </text>
<polyline fill="none" stroke="black" points="299.061,-39 430.939,-39 "/>
<text text-anchor="start" x="307.061" y="-27" font-family="Helvetica,sans-Serif" font-size="10.00">+ EditSysBrightnessMed()</text>
<text text-anchor="start" x="307.061" y="-17" font-family="Helvetica,sans-Serif" font-size="10.00">+ load()</text>
<text text-anchor="start" x="307.061" y="-7" font-family="Helvetica,sans-Serif" font-size="10.00">+ save()</text>
</a>
</g>
</g>
<!-- Node1&#45;&gt;Node5 -->
<g id="edge4" class="edge"><title>Node1&#45;&gt;Node5</title>
<path fill="none" stroke="midnightblue" d="M280.136,-110.195C294.303,-98.3091 308.981,-85.9955 322.065,-75.0189"/>
<polygon fill="none" stroke="midnightblue" points="277.742,-107.634 272.331,-116.743 282.241,-112.997 277.742,-107.634"/>
</g>
<!-- Node2 -->
<g id="node2" class="node"><title>Node2</title>
<g id="a_node2"><a xlink:href="class_edit.html" target="_top" xlink:title="Edit Element. ">
<polygon fill="none" stroke="black" points="168.669,-255 168.669,-379 263.331,-379 263.331,-255 168.669,-255"/>
<text text-anchor="middle" x="216" y="-367" font-family="Helvetica,sans-Serif" font-size="10.00">Edit</text>
<polyline fill="none" stroke="black" points="168.669,-361 263.331,-361 "/>
<text text-anchor="middle" x="216" y="-349" font-family="Helvetica,sans-Serif" font-size="10.00"> </text>
<polyline fill="none" stroke="black" points="168.669,-343 263.331,-343 "/>
<text text-anchor="start" x="176.669" y="-331" font-family="Helvetica,sans-Serif" font-size="10.00">+ Edit()</text>
<text text-anchor="start" x="176.669" y="-321" font-family="Helvetica,sans-Serif" font-size="10.00">+ event_handler()</text>
<text text-anchor="start" x="176.669" y="-311" font-family="Helvetica,sans-Serif" font-size="10.00">+ draw()</text>
<text text-anchor="start" x="176.669" y="-301" font-family="Helvetica,sans-Serif" font-size="10.00"># increment()</text>
<text text-anchor="start" x="176.669" y="-291" font-family="Helvetica,sans-Serif" font-size="10.00"># decrement()</text>
<text text-anchor="start" x="176.669" y="-281" font-family="Helvetica,sans-Serif" font-size="10.00"># load()</text>
<text text-anchor="start" x="176.669" y="-271" font-family="Helvetica,sans-Serif" font-size="10.00"># save()</text>
<text text-anchor="start" x="176.669" y="-261" font-family="Helvetica,sans-Serif" font-size="10.00"># copy()</text>
</a>
</g>
</g>
<!-- Node2&#45;&gt;Node1 -->
<g id="edge1" class="edge"><title>Node2&#45;&gt;Node1</title>
<path fill="none" stroke="midnightblue" d="M216,-244.949C216,-235.642 216,-226.254 216,-217.359"/>
<polygon fill="none" stroke="midnightblue" points="212.5,-244.989 216,-254.989 219.5,-244.989 212.5,-244.989"/>
</g>
</g>
</svg>
