<?xml version="1.0" encoding="UTF-8" standalone="no"?>
<!DOCTYPE svg PUBLIC "-//W3C//DTD SVG 1.1//EN"
 "http://www.w3.org/Graphics/SVG/1.1/DTD/svg11.dtd">
<!-- Generated by graphviz version 2.36.0 (20140111.2315)
 -->
<!-- Title: Panel Pages: 1 -->
<svg width="102pt" height="226pt"
 viewBox="0.00 0.00 102.00 226.00" xmlns="http://www.w3.org/2000/svg" xmlns:xlink="http://www.w3.org/1999/xlink">
<g id="graph0" class="graph" transform="scale(1 1) rotate(0) translate(4 222)">
<title>Panel</title>
<!-- Node1 -->
<g id="node1" class="node"><title>Node1</title>
<polygon fill="#bfbfbf" stroke="black" points="18.5728,-1 18.5728,-55 75.4272,-55 75.4272,-1 18.5728,-1"/>
<text text-anchor="middle" x="47" y="-43" font-family="Helvetica,sans-Serif" font-size="10.00">Panel</text>
<polyline fill="none" stroke="black" points="18.5728,-37 75.4272,-37 "/>
<text text-anchor="middle" x="47" y="-25" font-family="Helvetica,sans-Serif" font-size="10.00"> </text>
<polyline fill="none" stroke="black" points="18.5728,-19 75.4272,-19 "/>
<text text-anchor="start" x="26.5728" y="-7" font-family="Helvetica,sans-Serif" font-size="10.00">+ Panel()</text>
</g>
<!-- Node2 -->
<g id="node2" class="node"><title>Node2</title>
<g id="a_node2"><a xlink:href="class_gfx.html" target="_top" xlink:title="Gfx Class. ">
<polygon fill="none" stroke="black" points="-0.880371,-93 -0.880371,-217 94.8804,-217 94.8804,-93 -0.880371,-93"/>
<text text-anchor="middle" x="47" y="-205" font-family="Helvetica,sans-Serif" font-size="10.00">Gfx</text>
<polyline fill="none" stroke="black" points="-0.880371,-199 94.8804,-199 "/>
<text text-anchor="middle" x="47" y="-187" font-family="Helvetica,sans-Serif" font-size="10.00"> </text>
<polyline fill="none" stroke="black" points="-0.880371,-181 94.8804,-181 "/>
<text text-anchor="start" x="7.11963" y="-169" font-family="Helvetica,sans-Serif" font-size="10.00">+ Gfx()</text>
<text text-anchor="start" x="7.11963" y="-159" font-family="Helvetica,sans-Serif" font-size="10.00">+ Gfx()</text>
<text text-anchor="start" x="7.11963" y="-149" font-family="Helvetica,sans-Serif" font-size="10.00">+ Gfx()</text>
<text text-anchor="start" x="7.11963" y="-139" font-family="Helvetica,sans-Serif" font-size="10.00">+ gfx()</text>
<text text-anchor="start" x="7.11963" y="-129" font-family="Helvetica,sans-Serif" font-size="10.00">+ attr()</text>
<text text-anchor="start" x="7.11963" y="-119" font-family="Helvetica,sans-Serif" font-size="10.00">+ draw_to_scale()</text>
<text text-anchor="start" x="7.11963" y="-109" font-family="Helvetica,sans-Serif" font-size="10.00">+ mg_attr()</text>
<text text-anchor="start" x="7.11963" y="-99" font-family="Helvetica,sans-Serif" font-size="10.00">+ load_gfx()</text>
</a>
</g>
</g>
<!-- Node2&#45;&gt;Node1 -->
<g id="edge1" class="edge"><title>Node2&#45;&gt;Node1</title>
<path fill="none" stroke="midnightblue" d="M47,-82.7305C47,-72.9716 47,-63.5037 47,-55.3041"/>
<polygon fill="none" stroke="midnightblue" points="43.5001,-82.9647 47,-92.9647 50.5001,-82.9648 43.5001,-82.9647"/>
</g>
</g>
</svg>
