<?xml version="1.0" encoding="UTF-8" standalone="no"?>
<!DOCTYPE svg PUBLIC "-//W3C//DTD SVG 1.1//EN"
 "http://www.w3.org/Graphics/SVG/1.1/DTD/svg11.dtd">
<!-- Generated by graphviz version 2.36.0 (20140111.2315)
 -->
<!-- Title: EditSysUnits Pages: 1 -->
<svg width="102pt" height="276pt"
 viewBox="0.00 0.00 102.00 276.00" xmlns="http://www.w3.org/2000/svg" xmlns:xlink="http://www.w3.org/1999/xlink">
<g id="graph0" class="graph" transform="scale(1 1) rotate(0) translate(4 272)">
<title>EditSysUnits</title>
<!-- Node1 -->
<g id="node1" class="node"><title>Node1</title>
<polygon fill="#bfbfbf" stroke="black" points="3.01855,-1 3.01855,-105 90.9814,-105 90.9814,-1 3.01855,-1"/>
<text text-anchor="middle" x="47" y="-93" font-family="Helvetica,sans-Serif" font-size="10.00">EditSysUnits</text>
<polyline fill="none" stroke="black" points="3.01855,-87 90.9814,-87 "/>
<text text-anchor="middle" x="47" y="-75" font-family="Helvetica,sans-Serif" font-size="10.00"> </text>
<polyline fill="none" stroke="black" points="3.01855,-69 90.9814,-69 "/>
<text text-anchor="start" x="11.0186" y="-57" font-family="Helvetica,sans-Serif" font-size="10.00">+ EditSysUnits()</text>
<text text-anchor="start" x="11.0186" y="-47" font-family="Helvetica,sans-Serif" font-size="10.00">+ increment()</text>
<text text-anchor="start" x="11.0186" y="-37" font-family="Helvetica,sans-Serif" font-size="10.00">+ decrement()</text>
<text text-anchor="start" x="11.0186" y="-27" font-family="Helvetica,sans-Serif" font-size="10.00">+ load()</text>
<text text-anchor="start" x="11.0186" y="-17" font-family="Helvetica,sans-Serif" font-size="10.00">+ save()</text>
<text text-anchor="start" x="11.0186" y="-7" font-family="Helvetica,sans-Serif" font-size="10.00">+ copy()</text>
</g>
<!-- Node2 -->
<g id="node2" class="node"><title>Node2</title>
<g id="a_node2"><a xlink:href="class_edit.html" target="_top" xlink:title="Edit Element. ">
<polygon fill="none" stroke="black" points="-0.331055,-143 -0.331055,-267 94.3311,-267 94.3311,-143 -0.331055,-143"/>
<text text-anchor="middle" x="47" y="-255" font-family="Helvetica,sans-Serif" font-size="10.00">Edit</text>
<polyline fill="none" stroke="black" points="-0.331055,-249 94.3311,-249 "/>
<text text-anchor="middle" x="47" y="-237" font-family="Helvetica,sans-Serif" font-size="10.00"> </text>
<polyline fill="none" stroke="black" points="-0.331055,-231 94.3311,-231 "/>
<text text-anchor="start" x="7.66895" y="-219" font-family="Helvetica,sans-Serif" font-size="10.00">+ Edit()</text>
<text text-anchor="start" x="7.66895" y="-209" font-family="Helvetica,sans-Serif" font-size="10.00">+ event_handler()</text>
<text text-anchor="start" x="7.66895" y="-199" font-family="Helvetica,sans-Serif" font-size="10.00">+ draw()</text>
<text text-anchor="start" x="7.66895" y="-189" font-family="Helvetica,sans-Serif" font-size="10.00"># increment()</text>
<text text-anchor="start" x="7.66895" y="-179" font-family="Helvetica,sans-Serif" font-size="10.00"># decrement()</text>
<text text-anchor="start" x="7.66895" y="-169" font-family="Helvetica,sans-Serif" font-size="10.00"># load()</text>
<text text-anchor="start" x="7.66895" y="-159" font-family="Helvetica,sans-Serif" font-size="10.00"># save()</text>
<text text-anchor="start" x="7.66895" y="-149" font-family="Helvetica,sans-Serif" font-size="10.00"># copy()</text>
</a>
</g>
</g>
<!-- Node2&#45;&gt;Node1 -->
<g id="edge1" class="edge"><title>Node2&#45;&gt;Node1</title>
<path fill="none" stroke="midnightblue" d="M47,-132.949C47,-123.642 47,-114.254 47,-105.359"/>
<polygon fill="none" stroke="midnightblue" points="43.5001,-132.989 47,-142.989 50.5001,-132.989 43.5001,-132.989"/>
</g>
</g>
</svg>
