<?xml version="1.0" encoding="UTF-8" standalone="no"?>
<!DOCTYPE svg PUBLIC "-//W3C//DTD SVG 1.1//EN"
 "http://www.w3.org/Graphics/SVG/1.1/DTD/svg11.dtd">
<!-- Generated by graphviz version 2.36.0 (20140111.2315)
 -->
<!-- Title: Edit Pages: 1 -->
<svg width="615pt" height="398pt"
 viewBox="0.00 0.00 615.00 398.00" xmlns="http://www.w3.org/2000/svg" xmlns:xlink="http://www.w3.org/1999/xlink">
<g id="graph0" class="graph" transform="scale(1 1) rotate(0) translate(4 394)">
<title>Edit</title>
<!-- Node1 -->
<g id="node1" class="node"><title>Node1</title>
<polygon fill="#bfbfbf" stroke="black" points="262.669,-265 262.669,-389 357.331,-389 357.331,-265 262.669,-265"/>
<text text-anchor="middle" x="310" y="-377" font-family="Helvetica,sans-Serif" font-size="10.00">Edit</text>
<polyline fill="none" stroke="black" points="262.669,-371 357.331,-371 "/>
<text text-anchor="middle" x="310" y="-359" font-family="Helvetica,sans-Serif" font-size="10.00"> </text>
<polyline fill="none" stroke="black" points="262.669,-353 357.331,-353 "/>
<text text-anchor="start" x="270.669" y="-341" font-family="Helvetica,sans-Serif" font-size="10.00">+ Edit()</text>
<text text-anchor="start" x="270.669" y="-331" font-family="Helvetica,sans-Serif" font-size="10.00">+ event_handler()</text>
<text text-anchor="start" x="270.669" y="-321" font-family="Helvetica,sans-Serif" font-size="10.00">+ draw()</text>
<text text-anchor="start" x="270.669" y="-311" font-family="Helvetica,sans-Serif" font-size="10.00"># increment()</text>
<text text-anchor="start" x="270.669" y="-301" font-family="Helvetica,sans-Serif" font-size="10.00"># decrement()</text>
<text text-anchor="start" x="270.669" y="-291" font-family="Helvetica,sans-Serif" font-size="10.00"># load()</text>
<text text-anchor="start" x="270.669" y="-281" font-family="Helvetica,sans-Serif" font-size="10.00"># save()</text>
<text text-anchor="start" x="270.669" y="-271" font-family="Helvetica,sans-Serif" font-size="10.00"># copy()</text>
</g>
<!-- Node2 -->
<g id="node2" class="node"><title>Node2</title>
<g id="a_node2"><a xlink:href="class_edit_setting_int.html" target="_top" xlink:title="Edit Integer Class. ">
<polygon fill="none" stroke="black" points="-0.380371,-113 -0.380371,-227 90.3804,-227 90.3804,-113 -0.380371,-113"/>
<text text-anchor="middle" x="45" y="-215" font-family="Helvetica,sans-Serif" font-size="10.00">EditSettingInt</text>
<polyline fill="none" stroke="black" points="-0.380371,-209 90.3804,-209 "/>
<text text-anchor="middle" x="45" y="-197" font-family="Helvetica,sans-Serif" font-size="10.00"> </text>
<polyline fill="none" stroke="black" points="-0.380371,-191 90.3804,-191 "/>
<text text-anchor="start" x="7.61963" y="-179" font-family="Helvetica,sans-Serif" font-size="10.00">+ EditSettingInt()</text>
<text text-anchor="start" x="7.61963" y="-169" font-family="Helvetica,sans-Serif" font-size="10.00">+ EditSettingInt()</text>
<text text-anchor="start" x="7.61963" y="-159" font-family="Helvetica,sans-Serif" font-size="10.00">+ increment()</text>
<text text-anchor="start" x="7.61963" y="-149" font-family="Helvetica,sans-Serif" font-size="10.00">+ decrement()</text>
<text text-anchor="start" x="7.61963" y="-139" font-family="Helvetica,sans-Serif" font-size="10.00">+ load()</text>
<text text-anchor="start" x="7.61963" y="-129" font-family="Helvetica,sans-Serif" font-size="10.00">+ save()</text>
<text text-anchor="start" x="7.61963" y="-119" font-family="Helvetica,sans-Serif" font-size="10.00">+ copy()</text>
</a>
</g>
</g>
<!-- Node1&#45;&gt;Node2 -->
<g id="edge1" class="edge"><title>Node1&#45;&gt;Node2</title>
<path fill="none" stroke="midnightblue" d="M252.941,-306.273C208.599,-289.396 146.805,-262.39 99,-228 96.1229,-225.93 93.2732,-223.693 90.4751,-221.344"/>
<polygon fill="none" stroke="midnightblue" points="251.816,-309.589 262.408,-309.824 254.274,-303.035 251.816,-309.589"/>
</g>
<!-- Node3 -->
<g id="node3" class="node"><title>Node3</title>
<g id="a_node3"><a xlink:href="class_edit_sys_backlight_time.html" target="_top" xlink:title="Edit System Backlight Brightness. ">
<polygon fill="none" stroke="black" points="108.194,-118 108.194,-222 235.806,-222 235.806,-118 108.194,-118"/>
<text text-anchor="middle" x="172" y="-210" font-family="Helvetica,sans-Serif" font-size="10.00">EditSysBacklightTime</text>
<polyline fill="none" stroke="black" points="108.194,-204 235.806,-204 "/>
<text text-anchor="start" x="116.194" y="-192" font-family="Helvetica,sans-Serif" font-size="10.00"># backlight_time</text>
<polyline fill="none" stroke="black" points="108.194,-186 235.806,-186 "/>
<text text-anchor="start" x="116.194" y="-174" font-family="Helvetica,sans-Serif" font-size="10.00">+ EditSysBacklightTime()</text>
<text text-anchor="start" x="116.194" y="-164" font-family="Helvetica,sans-Serif" font-size="10.00">+ increment()</text>
<text text-anchor="start" x="116.194" y="-154" font-family="Helvetica,sans-Serif" font-size="10.00">+ decrement()</text>
<text text-anchor="start" x="116.194" y="-144" font-family="Helvetica,sans-Serif" font-size="10.00">+ load()</text>
<text text-anchor="start" x="116.194" y="-134" font-family="Helvetica,sans-Serif" font-size="10.00">+ save()</text>
<text text-anchor="start" x="116.194" y="-124" font-family="Helvetica,sans-Serif" font-size="10.00">+ copy()</text>
</a>
</g>
</g>
<!-- Node1&#45;&gt;Node3 -->
<g id="edge2" class="edge"><title>Node1&#45;&gt;Node3</title>
<path fill="none" stroke="midnightblue" d="M255.581,-264.877C242.966,-250.708 229.669,-235.773 217.484,-222.087"/>
<polygon fill="none" stroke="midnightblue" points="253.244,-267.516 262.508,-272.658 258.473,-262.862 253.244,-267.516"/>
</g>
<!-- Node4 -->
<g id="node4" class="node"><title>Node4</title>
<g id="a_node4"><a xlink:href="class_edit_sys_brightness.html" target="_top" xlink:title="Edit System Brightness. ">
<polygon fill="none" stroke="black" points="253.787,-118 253.787,-222 366.213,-222 366.213,-118 253.787,-118"/>
<text text-anchor="middle" x="310" y="-210" font-family="Helvetica,sans-Serif" font-size="10.00">EditSysBrightness</text>
<polyline fill="none" stroke="black" points="253.787,-204 366.213,-204 "/>
<text text-anchor="start" x="261.787" y="-192" font-family="Helvetica,sans-Serif" font-size="10.00"># brightness</text>
<polyline fill="none" stroke="black" points="253.787,-186 366.213,-186 "/>
<text text-anchor="start" x="261.787" y="-174" font-family="Helvetica,sans-Serif" font-size="10.00">+ EditSysBrightness()</text>
<text text-anchor="start" x="261.787" y="-164" font-family="Helvetica,sans-Serif" font-size="10.00">+ increment()</text>
<text text-anchor="start" x="261.787" y="-154" font-family="Helvetica,sans-Serif" font-size="10.00">+ decrement()</text>
<text text-anchor="start" x="261.787" y="-144" font-family="Helvetica,sans-Serif" font-size="10.00">+ load()</text>
<text text-anchor="start" x="261.787" y="-134" font-family="Helvetica,sans-Serif" font-size="10.00">+ save()</text>
<text text-anchor="start" x="261.787" y="-124" font-family="Helvetica,sans-Serif" font-size="10.00">+ copy()</text>
</a>
</g>
</g>
<!-- Node1&#45;&gt;Node4 -->
<g id="edge3" class="edge"><title>Node1&#45;&gt;Node4</title>
<path fill="none" stroke="midnightblue" d="M310,-254.431C310,-243.599 310,-232.613 310,-222.323"/>
<polygon fill="none" stroke="midnightblue" points="306.5,-254.74 310,-264.74 313.5,-254.74 306.5,-254.74"/>
</g>
<!-- Node8 -->
<g id="node8" class="node"><title>Node8</title>
<g id="a_node8"><a xlink:href="class_edit_sys_morse_delay.html" target="_top" xlink:title="Edit Morse Delay. ">
<polygon fill="none" stroke="black" points="383.735,-118 383.735,-222 502.265,-222 502.265,-118 383.735,-118"/>
<text text-anchor="middle" x="443" y="-210" font-family="Helvetica,sans-Serif" font-size="10.00">EditSysMorseDelay</text>
<polyline fill="none" stroke="black" points="383.735,-204 502.265,-204 "/>
<text text-anchor="middle" x="443" y="-192" font-family="Helvetica,sans-Serif" font-size="10.00"> </text>
<polyline fill="none" stroke="black" points="383.735,-186 502.265,-186 "/>
<text text-anchor="start" x="391.735" y="-174" font-family="Helvetica,sans-Serif" font-size="10.00">+ EditSysMorseDelay()</text>
<text text-anchor="start" x="391.735" y="-164" font-family="Helvetica,sans-Serif" font-size="10.00">+ increment()</text>
<text text-anchor="start" x="391.735" y="-154" font-family="Helvetica,sans-Serif" font-size="10.00">+ decrement()</text>
<text text-anchor="start" x="391.735" y="-144" font-family="Helvetica,sans-Serif" font-size="10.00">+ load()</text>
<text text-anchor="start" x="391.735" y="-134" font-family="Helvetica,sans-Serif" font-size="10.00">+ save()</text>
<text text-anchor="start" x="391.735" y="-124" font-family="Helvetica,sans-Serif" font-size="10.00">+ copy()</text>
</a>
</g>
</g>
<!-- Node1&#45;&gt;Node8 -->
<g id="edge7" class="edge"><title>Node1&#45;&gt;Node8</title>
<path fill="none" stroke="midnightblue" d="M364.398,-262.603C375.995,-249.089 388.099,-234.982 399.236,-222.003"/>
<polygon fill="none" stroke="midnightblue" points="361.496,-260.611 357.64,-270.479 366.809,-265.169 361.496,-260.611"/>
</g>
<!-- Node9 -->
<g id="node9" class="node"><title>Node9</title>
<g id="a_node9"><a xlink:href="class_edit_sys_units.html" target="_top" xlink:title="Edit System Units Setting. ">
<polygon fill="none" stroke="black" points="520.019,-118 520.019,-222 607.981,-222 607.981,-118 520.019,-118"/>
<text text-anchor="middle" x="564" y="-210" font-family="Helvetica,sans-Serif" font-size="10.00">EditSysUnits</text>
<polyline fill="none" stroke="black" points="520.019,-204 607.981,-204 "/>
<text text-anchor="middle" x="564" y="-192" font-family="Helvetica,sans-Serif" font-size="10.00"> </text>
<polyline fill="none" stroke="black" points="520.019,-186 607.981,-186 "/>
<text text-anchor="start" x="528.019" y="-174" font-family="Helvetica,sans-Serif" font-size="10.00">+ EditSysUnits()</text>
<text text-anchor="start" x="528.019" y="-164" font-family="Helvetica,sans-Serif" font-size="10.00">+ increment()</text>
<text text-anchor="start" x="528.019" y="-154" font-family="Helvetica,sans-Serif" font-size="10.00">+ decrement()</text>
<text text-anchor="start" x="528.019" y="-144" font-family="Helvetica,sans-Serif" font-size="10.00">+ load()</text>
<text text-anchor="start" x="528.019" y="-134" font-family="Helvetica,sans-Serif" font-size="10.00">+ save()</text>
<text text-anchor="start" x="528.019" y="-124" font-family="Helvetica,sans-Serif" font-size="10.00">+ copy()</text>
</a>
</g>
</g>
<!-- Node1&#45;&gt;Node9 -->
<g id="edge8" class="edge"><title>Node1&#45;&gt;Node9</title>
<path fill="none" stroke="midnightblue" d="M366.956,-304.847C409.008,-287.709 466.435,-261.022 511,-228 514.04,-225.747 517.049,-223.306 519.997,-220.743"/>
<polygon fill="none" stroke="midnightblue" points="365.397,-301.701 357.422,-308.676 368.006,-308.197 365.397,-301.701"/>
</g>
<!-- Node5 -->
<g id="node5" class="node"><title>Node5</title>
<g id="a_node5"><a xlink:href="class_edit_sys_brightness_high.html" target="_top" xlink:title="Edit System High Brightness Class. ">
<polygon fill="none" stroke="black" points="93.5039,-1 93.5039,-75 226.496,-75 226.496,-1 93.5039,-1"/>
<text text-anchor="middle" x="160" y="-63" font-family="Helvetica,sans-Serif" font-size="10.00">EditSysBrightnessHigh</text>
<polyline fill="none" stroke="black" points="93.5039,-57 226.496,-57 "/>
<text text-anchor="middle" x="160" y="-45" font-family="Helvetica,sans-Serif" font-size="10.00"> </text>
<polyline fill="none" stroke="black" points="93.5039,-39 226.496,-39 "/>
<text text-anchor="start" x="101.504" y="-27" font-family="Helvetica,sans-Serif" font-size="10.00">+ EditSysBrightnessHigh()</text>
<text text-anchor="start" x="101.504" y="-17" font-family="Helvetica,sans-Serif" font-size="10.00">+ load()</text>
<text text-anchor="start" x="101.504" y="-7" font-family="Helvetica,sans-Serif" font-size="10.00">+ save()</text>
</a>
</g>
</g>
<!-- Node4&#45;&gt;Node5 -->
<g id="edge4" class="edge"><title>Node4&#45;&gt;Node5</title>
<path fill="none" stroke="midnightblue" d="M245.938,-113.48C230.93,-100.473 215.325,-86.9484 201.597,-75.0504"/>
<polygon fill="none" stroke="midnightblue" points="243.87,-116.319 253.719,-120.223 248.454,-111.029 243.87,-116.319"/>
</g>
<!-- Node6 -->
<g id="node6" class="node"><title>Node6</title>
<g id="a_node6"><a xlink:href="class_edit_sys_brightness_low.html" target="_top" xlink:title="Edit System Low Brightness Class. ">
<polygon fill="none" stroke="black" points="244.615,-1 244.615,-75 375.385,-75 375.385,-1 244.615,-1"/>
<text text-anchor="middle" x="310" y="-63" font-family="Helvetica,sans-Serif" font-size="10.00">EditSysBrightnessLow</text>
<polyline fill="none" stroke="black" points="244.615,-57 375.385,-57 "/>
<text text-anchor="middle" x="310" y="-45" font-family="Helvetica,sans-Serif" font-size="10.00"> </text>
<polyline fill="none" stroke="black" points="244.615,-39 375.385,-39 "/>
<text text-anchor="start" x="252.615" y="-27" font-family="Helvetica,sans-Serif" font-size="10.00">+ EditSysBrightnessLow()</text>
<text text-anchor="start" x="252.615" y="-17" font-family="Helvetica,sans-Serif" font-size="10.00">+ load()</text>
<text text-anchor="start" x="252.615" y="-7" font-family="Helvetica,sans-Serif" font-size="10.00">+ save()</text>
</a>
</g>
</g>
<!-- Node4&#45;&gt;Node6 -->
<g id="edge5" class="edge"><title>Node4&#45;&gt;Node6</title>
<path fill="none" stroke="midnightblue" d="M310,-107.771C310,-96.5521 310,-85.1827 310,-75.0059"/>
<polygon fill="none" stroke="midnightblue" points="306.5,-107.994 310,-117.994 313.5,-107.994 306.5,-107.994"/>
</g>
<!-- Node7 -->
<g id="node7" class="node"><title>Node7</title>
<g id="a_node7"><a xlink:href="class_edit_sys_brightness_med.html" target="_top" xlink:title="Edit System Med Brightness Class. ">
<polygon fill="none" stroke="black" points="393.061,-1 393.061,-75 524.939,-75 524.939,-1 393.061,-1"/>
<text text-anchor="middle" x="459" y="-63" font-family="Helvetica,sans-Serif" font-size="10.00">EditSysBrightnessMed</text>
<polyline fill="none" stroke="black" points="393.061,-57 524.939,-57 "/>
<text text-anchor="middle" x="459" y="-45" font-family="Helvetica,sans-Serif" font-size="10.00"> </text>
<polyline fill="none" stroke="black" points="393.061,-39 524.939,-39 "/>
<text text-anchor="start" x="401.061" y="-27" font-family="Helvetica,sans-Serif" font-size="10.00">+ EditSysBrightnessMed()</text>
<text text-anchor="start" x="401.061" y="-17" font-family="Helvetica,sans-Serif" font-size="10.00">+ load()</text>
<text text-anchor="start" x="401.061" y="-7" font-family="Helvetica,sans-Serif" font-size="10.00">+ save()</text>
</a>
</g>
</g>
<!-- Node4&#45;&gt;Node7 -->
<g id="edge6" class="edge"><title>Node4&#45;&gt;Node7</title>
<path fill="none" stroke="midnightblue" d="M373.937,-112.928C374.292,-112.618 374.647,-112.308 375,-112 388.682,-100.056 403.641,-87.0413 417.096,-75.3522"/>
<polygon fill="none" stroke="midnightblue" points="371.584,-110.337 366.357,-119.552 376.19,-115.608 371.584,-110.337"/>
</g>
</g>
</svg>
