<?xml version="1.0" encoding="UTF-8" standalone="no"?>
<!DOCTYPE svg PUBLIC "-//W3C//DTD SVG 1.1//EN"
 "http://www.w3.org/Graphics/SVG/1.1/DTD/svg11.dtd">
<!-- Generated by graphviz version 2.36.0 (20140111.2315)
 -->
<!-- Title: Element Pages: 1 -->
<svg width="1339pt" height="760pt"
 viewBox="0.00 0.00 1339.00 760.00" xmlns="http://www.w3.org/2000/svg" xmlns:xlink="http://www.w3.org/1999/xlink">
<g id="graph0" class="graph" transform="scale(1 1) rotate(0) translate(4 756)">
<title>Element</title>
<!-- Node1 -->
<g id="node1" class="node"><title>Node1</title>
<polygon fill="#bfbfbf" stroke="black" points="775.527,-507 775.527,-751 880.473,-751 880.473,-507 775.527,-507"/>
<text text-anchor="middle" x="828" y="-739" font-family="Helvetica,sans-Serif" font-size="10.00">Element</text>
<polyline fill="none" stroke="black" points="775.527,-733 880.473,-733 "/>
<text text-anchor="start" x="783.527" y="-721" font-family="Helvetica,sans-Serif" font-size="10.00"># flags</text>
<polyline fill="none" stroke="black" points="775.527,-715 880.473,-715 "/>
<text text-anchor="start" x="783.527" y="-703" font-family="Helvetica,sans-Serif" font-size="10.00">+ Element()</text>
<text text-anchor="start" x="783.527" y="-693" font-family="Helvetica,sans-Serif" font-size="10.00">+ Element()</text>
<text text-anchor="start" x="783.527" y="-683" font-family="Helvetica,sans-Serif" font-size="10.00">+ Element()</text>
<text text-anchor="start" x="783.527" y="-673" font-family="Helvetica,sans-Serif" font-size="10.00">+ parent()</text>
<text text-anchor="start" x="783.527" y="-663" font-family="Helvetica,sans-Serif" font-size="10.00">+ set_parent()</text>
<text text-anchor="start" x="783.527" y="-653" font-family="Helvetica,sans-Serif" font-size="10.00">+ child()</text>
<text text-anchor="start" x="783.527" y="-643" font-family="Helvetica,sans-Serif" font-size="10.00">+ set_child()</text>
<text text-anchor="start" x="783.527" y="-633" font-family="Helvetica,sans-Serif" font-size="10.00">+ draw()</text>
<text text-anchor="start" x="783.527" y="-623" font-family="Helvetica,sans-Serif" font-size="10.00">+ draw()</text>
<text text-anchor="start" x="783.527" y="-613" font-family="Helvetica,sans-Serif" font-size="10.00">+ draw()</text>
<text text-anchor="start" x="783.527" y="-603" font-family="Helvetica,sans-Serif" font-size="10.00">and 41 more...</text>
<text text-anchor="start" x="783.527" y="-593" font-family="Helvetica,sans-Serif" font-size="10.00">+ dim_on_bitmap()</text>
<text text-anchor="start" x="783.527" y="-583" font-family="Helvetica,sans-Serif" font-size="10.00">+ center()</text>
<text text-anchor="start" x="783.527" y="-573" font-family="Helvetica,sans-Serif" font-size="10.00">+ scale()</text>
<text text-anchor="start" x="783.527" y="-563" font-family="Helvetica,sans-Serif" font-size="10.00">+ set_scale()</text>
<text text-anchor="start" x="783.527" y="-553" font-family="Helvetica,sans-Serif" font-size="10.00"># draw_scroll()</text>
<text text-anchor="start" x="783.527" y="-543" font-family="Helvetica,sans-Serif" font-size="10.00"># dim_on_bitmap()</text>
<text text-anchor="start" x="783.527" y="-533" font-family="Helvetica,sans-Serif" font-size="10.00"># point_on_bitmap()</text>
<text text-anchor="start" x="783.527" y="-523" font-family="Helvetica,sans-Serif" font-size="10.00"># adjust_x_center()</text>
<text text-anchor="start" x="783.527" y="-513" font-family="Helvetica,sans-Serif" font-size="10.00"># pixel_padding()</text>
</g>
<!-- Node2 -->
<g id="node2" class="node"><title>Node2</title>
<g id="a_node2"><a xlink:href="class_button_bar.html" target="_top" xlink:title="Button Bar. ">
<polygon fill="none" stroke="black" points="258.759,-290 258.759,-444 339.241,-444 339.241,-290 258.759,-290"/>
<text text-anchor="middle" x="299" y="-432" font-family="Helvetica,sans-Serif" font-size="10.00">ButtonBar</text>
<polyline fill="none" stroke="black" points="258.759,-426 339.241,-426 "/>
<text text-anchor="middle" x="299" y="-414" font-family="Helvetica,sans-Serif" font-size="10.00"> </text>
<polyline fill="none" stroke="black" points="258.759,-408 339.241,-408 "/>
<text text-anchor="start" x="266.759" y="-396" font-family="Helvetica,sans-Serif" font-size="10.00">+ ButtonBar()</text>
<text text-anchor="start" x="266.759" y="-386" font-family="Helvetica,sans-Serif" font-size="10.00">+ set_left()</text>
<text text-anchor="start" x="266.759" y="-376" font-family="Helvetica,sans-Serif" font-size="10.00">+ set_right()</text>
<text text-anchor="start" x="266.759" y="-366" font-family="Helvetica,sans-Serif" font-size="10.00">+ set_left()</text>
<text text-anchor="start" x="266.759" y="-356" font-family="Helvetica,sans-Serif" font-size="10.00">+ set_right()</text>
<text text-anchor="start" x="266.759" y="-346" font-family="Helvetica,sans-Serif" font-size="10.00">+ set_center()</text>
<text text-anchor="start" x="266.759" y="-336" font-family="Helvetica,sans-Serif" font-size="10.00">+ set_left()</text>
<text text-anchor="start" x="266.759" y="-326" font-family="Helvetica,sans-Serif" font-size="10.00">+ set_right()</text>
<text text-anchor="start" x="266.759" y="-316" font-family="Helvetica,sans-Serif" font-size="10.00">+ set_view()</text>
<text text-anchor="start" x="266.759" y="-306" font-family="Helvetica,sans-Serif" font-size="10.00">+ set_view()</text>
<text text-anchor="start" x="266.759" y="-296" font-family="Helvetica,sans-Serif" font-size="10.00">and 18 more...</text>
</a>
</g>
</g>
<!-- Node1&#45;&gt;Node2 -->
<g id="edge1" class="edge"><title>Node1&#45;&gt;Node2</title>
<path fill="none" stroke="midnightblue" d="M765.006,-622.895C665.206,-611.708 469.622,-576.773 348,-470 339.732,-462.742 332.737,-453.778 326.853,-444.203"/>
<polygon fill="none" stroke="midnightblue" points="764.917,-626.406 775.234,-623.996 765.666,-619.446 764.917,-626.406"/>
</g>
<!-- Node3 -->
<g id="node3" class="node"><title>Node3</title>
<g id="a_node3"><a xlink:href="class_edit.html" target="_top" xlink:title="Edit Element. ">
<polygon fill="none" stroke="black" points="357.393,-300 357.393,-434 462.607,-434 462.607,-300 357.393,-300"/>
<text text-anchor="middle" x="410" y="-422" font-family="Helvetica,sans-Serif" font-size="10.00">Edit</text>
<polyline fill="none" stroke="black" points="357.393,-416 462.607,-416 "/>
<text text-anchor="middle" x="410" y="-404" font-family="Helvetica,sans-Serif" font-size="10.00"> </text>
<polyline fill="none" stroke="black" points="357.393,-398 462.607,-398 "/>
<text text-anchor="start" x="365.393" y="-386" font-family="Helvetica,sans-Serif" font-size="10.00">+ Edit()</text>
<text text-anchor="start" x="365.393" y="-376" font-family="Helvetica,sans-Serif" font-size="10.00">+ event_handler()</text>
<text text-anchor="start" x="365.393" y="-366" font-family="Helvetica,sans-Serif" font-size="10.00">+ draw()</text>
<text text-anchor="start" x="365.393" y="-356" font-family="Helvetica,sans-Serif" font-size="10.00">+ draw_on_bitmap()</text>
<text text-anchor="start" x="365.393" y="-346" font-family="Helvetica,sans-Serif" font-size="10.00"># increment()</text>
<text text-anchor="start" x="365.393" y="-336" font-family="Helvetica,sans-Serif" font-size="10.00"># decrement()</text>
<text text-anchor="start" x="365.393" y="-326" font-family="Helvetica,sans-Serif" font-size="10.00"># load()</text>
<text text-anchor="start" x="365.393" y="-316" font-family="Helvetica,sans-Serif" font-size="10.00"># save()</text>
<text text-anchor="start" x="365.393" y="-306" font-family="Helvetica,sans-Serif" font-size="10.00"># copy()</text>
</a>
</g>
</g>
<!-- Node1&#45;&gt;Node3 -->
<g id="edge2" class="edge"><title>Node1&#45;&gt;Node3</title>
<path fill="none" stroke="midnightblue" d="M766.758,-589.907C684.612,-538.811 540.128,-448.941 462.631,-400.737"/>
<polygon fill="none" stroke="midnightblue" points="765.143,-593.024 775.483,-595.334 768.84,-587.08 765.143,-593.024"/>
</g>
<!-- Node11 -->
<g id="node11" class="node"><title>Node11</title>
<g id="a_node11"><a xlink:href="class_graph_1_1_object.html" target="_top" xlink:title="Abstract Graph Class. ">
<polygon fill="none" stroke="black" points="590.527,-315 590.527,-419 695.473,-419 695.473,-315 590.527,-315"/>
<text text-anchor="middle" x="643" y="-407" font-family="Helvetica,sans-Serif" font-size="10.00">Graph::Object</text>
<polyline fill="none" stroke="black" points="590.527,-401 695.473,-401 "/>
<text text-anchor="middle" x="643" y="-389" font-family="Helvetica,sans-Serif" font-size="10.00"> </text>
<polyline fill="none" stroke="black" points="590.527,-383 695.473,-383 "/>
<text text-anchor="start" x="598.527" y="-371" font-family="Helvetica,sans-Serif" font-size="10.00">+ Object()</text>
<text text-anchor="start" x="598.527" y="-361" font-family="Helvetica,sans-Serif" font-size="10.00">+ x_axis()</text>
<text text-anchor="start" x="598.527" y="-351" font-family="Helvetica,sans-Serif" font-size="10.00">+ y_axis()</text>
<text text-anchor="start" x="598.527" y="-341" font-family="Helvetica,sans-Serif" font-size="10.00">+ x_data()</text>
<text text-anchor="start" x="598.527" y="-331" font-family="Helvetica,sans-Serif" font-size="10.00">+ y_data()</text>
<text text-anchor="start" x="598.527" y="-321" font-family="Helvetica,sans-Serif" font-size="10.00"># point_on_bitmap()</text>
</a>
</g>
</g>
<!-- Node1&#45;&gt;Node11 -->
<g id="edge10" class="edge"><title>Node1&#45;&gt;Node11</title>
<path fill="none" stroke="midnightblue" d="M768.928,-556.688C747.692,-530.043 724.048,-499.167 704,-470 692.897,-453.846 681.634,-435.635 671.859,-419.118"/>
<polygon fill="none" stroke="midnightblue" points="766.452,-559.196 775.434,-564.814 771.916,-554.821 766.452,-559.196"/>
</g>
<!-- Node14 -->
<g id="node14" class="node"><title>Node14</title>
<g id="a_node14"><a xlink:href="class_label.html" target="_top" xlink:title="Label Element. ">
<polygon fill="none" stroke="black" points="713.393,-315 713.393,-419 818.607,-419 818.607,-315 713.393,-315"/>
<text text-anchor="middle" x="766" y="-407" font-family="Helvetica,sans-Serif" font-size="10.00">Label</text>
<polyline fill="none" stroke="black" points="713.393,-401 818.607,-401 "/>
<text text-anchor="middle" x="766" y="-389" font-family="Helvetica,sans-Serif" font-size="10.00"> </text>
<polyline fill="none" stroke="black" points="713.393,-383 818.607,-383 "/>
<text text-anchor="start" x="721.393" y="-371" font-family="Helvetica,sans-Serif" font-size="10.00">+ Label()</text>
<text text-anchor="start" x="721.393" y="-361" font-family="Helvetica,sans-Serif" font-size="10.00">+ Label()</text>
<text text-anchor="start" x="721.393" y="-351" font-family="Helvetica,sans-Serif" font-size="10.00">+ set_text()</text>
<text text-anchor="start" x="721.393" y="-341" font-family="Helvetica,sans-Serif" font-size="10.00">+ text()</text>
<text text-anchor="start" x="721.393" y="-331" font-family="Helvetica,sans-Serif" font-size="10.00">+ operator=()</text>
<text text-anchor="start" x="721.393" y="-321" font-family="Helvetica,sans-Serif" font-size="10.00">+ draw_on_bitmap()</text>
</a>
</g>
</g>
<!-- Node1&#45;&gt;Node14 -->
<g id="edge13" class="edge"><title>Node1&#45;&gt;Node14</title>
<path fill="none" stroke="midnightblue" d="M796.757,-496.98C790.164,-469.332 783.585,-441.745 778.215,-419.223"/>
<polygon fill="none" stroke="midnightblue" points="793.363,-497.838 799.087,-506.754 800.172,-496.215 793.363,-497.838"/>
</g>
<!-- Node16 -->
<g id="node16" class="node"><title>Node16</title>
<g id="a_node16"><a xlink:href="class_list.html" target="_top" xlink:title="List Class. ">
<polygon fill="none" stroke="black" points="836.29,-285 836.29,-449 943.71,-449 943.71,-285 836.29,-285"/>
<text text-anchor="middle" x="890" y="-437" font-family="Helvetica,sans-Serif" font-size="10.00">List</text>
<polyline fill="none" stroke="black" points="836.29,-431 943.71,-431 "/>
<text text-anchor="start" x="844.29" y="-419" font-family="Helvetica,sans-Serif" font-size="10.00"># _selected</text>
<text text-anchor="start" x="844.29" y="-409" font-family="Helvetica,sans-Serif" font-size="10.00"># _visible_items</text>
<polyline fill="none" stroke="black" points="836.29,-403 943.71,-403 "/>
<text text-anchor="start" x="844.29" y="-391" font-family="Helvetica,sans-Serif" font-size="10.00">+ List()</text>
<text text-anchor="start" x="844.29" y="-381" font-family="Helvetica,sans-Serif" font-size="10.00">+ set_selected()</text>
<text text-anchor="start" x="844.29" y="-371" font-family="Helvetica,sans-Serif" font-size="10.00">+ selected()</text>
<text text-anchor="start" x="844.29" y="-361" font-family="Helvetica,sans-Serif" font-size="10.00">+ at()</text>
<text text-anchor="start" x="844.29" y="-351" font-family="Helvetica,sans-Serif" font-size="10.00">+ size()</text>
<text text-anchor="start" x="844.29" y="-341" font-family="Helvetica,sans-Serif" font-size="10.00">+ current()</text>
<text text-anchor="start" x="844.29" y="-331" font-family="Helvetica,sans-Serif" font-size="10.00">+ set_visible_items()</text>
<text text-anchor="start" x="844.29" y="-321" font-family="Helvetica,sans-Serif" font-size="10.00">+ visible_items()</text>
<text text-anchor="start" x="844.29" y="-311" font-family="Helvetica,sans-Serif" font-size="10.00">+ event_handler()</text>
<text text-anchor="start" x="844.29" y="-301" font-family="Helvetica,sans-Serif" font-size="10.00">+ draw_on_bitmap()</text>
<text text-anchor="start" x="844.29" y="-291" font-family="Helvetica,sans-Serif" font-size="10.00"># init()</text>
</a>
</g>
</g>
<!-- Node1&#45;&gt;Node16 -->
<g id="edge15" class="edge"><title>Node1&#45;&gt;Node16</title>
<path fill="none" stroke="midnightblue" d="M859.309,-496.705C863.16,-480.557 867.004,-464.435 870.604,-449.337"/>
<polygon fill="none" stroke="midnightblue" points="855.828,-496.215 856.913,-506.754 862.637,-497.838 855.828,-496.215"/>
</g>
<!-- Node17 -->
<g id="node17" class="node"><title>Node17</title>
<g id="a_node17"><a xlink:href="class_list_item.html" target="_top" xlink:title="List Item Class. ">
<polygon fill="none" stroke="black" points="961.393,-265 961.393,-469 1066.61,-469 1066.61,-265 961.393,-265"/>
<text text-anchor="middle" x="1014" y="-457" font-family="Helvetica,sans-Serif" font-size="10.00">ListItem</text>
<polyline fill="none" stroke="black" points="961.393,-451 1066.61,-451 "/>
<text text-anchor="middle" x="1014" y="-439" font-family="Helvetica,sans-Serif" font-size="10.00"> </text>
<polyline fill="none" stroke="black" points="961.393,-433 1066.61,-433 "/>
<text text-anchor="start" x="969.393" y="-421" font-family="Helvetica,sans-Serif" font-size="10.00">+ ListItem()</text>
<text text-anchor="start" x="969.393" y="-411" font-family="Helvetica,sans-Serif" font-size="10.00">+ ListItem()</text>
<text text-anchor="start" x="969.393" y="-401" font-family="Helvetica,sans-Serif" font-size="10.00">+ ListItem()</text>
<text text-anchor="start" x="969.393" y="-391" font-family="Helvetica,sans-Serif" font-size="10.00">+ ListItem()</text>
<text text-anchor="start" x="969.393" y="-381" font-family="Helvetica,sans-Serif" font-size="10.00">+ ListItem()</text>
<text text-anchor="start" x="969.393" y="-371" font-family="Helvetica,sans-Serif" font-size="10.00">+ ListItem()</text>
<text text-anchor="start" x="969.393" y="-361" font-family="Helvetica,sans-Serif" font-size="10.00">+ set_app_icon()</text>
<text text-anchor="start" x="969.393" y="-351" font-family="Helvetica,sans-Serif" font-size="10.00">+ set_sys_icon()</text>
<text text-anchor="start" x="969.393" y="-341" font-family="Helvetica,sans-Serif" font-size="10.00">+ set_sys_gfx()</text>
<text text-anchor="start" x="969.393" y="-331" font-family="Helvetica,sans-Serif" font-size="10.00">+ load_icon()</text>
<text text-anchor="start" x="969.393" y="-321" font-family="Helvetica,sans-Serif" font-size="10.00">+ set_thickness()</text>
<text text-anchor="start" x="969.393" y="-311" font-family="Helvetica,sans-Serif" font-size="10.00">+ set_rotation()</text>
<text text-anchor="start" x="969.393" y="-301" font-family="Helvetica,sans-Serif" font-size="10.00">+ label()</text>
<text text-anchor="start" x="969.393" y="-291" font-family="Helvetica,sans-Serif" font-size="10.00">+ set_label()</text>
<text text-anchor="start" x="969.393" y="-281" font-family="Helvetica,sans-Serif" font-size="10.00">+ draw_on_bitmap()</text>
<text text-anchor="start" x="969.393" y="-271" font-family="Helvetica,sans-Serif" font-size="10.00"># gfx()</text>
</a>
</g>
</g>
<!-- Node1&#45;&gt;Node17 -->
<g id="edge16" class="edge"><title>Node1&#45;&gt;Node17</title>
<path fill="none" stroke="midnightblue" d="M887.242,-556.252C908.393,-529.68 931.937,-498.965 952,-470 955.068,-465.571 958.152,-460.989 961.218,-456.332"/>
<polygon fill="none" stroke="midnightblue" points="884.272,-554.362 880.762,-564.358 889.74,-558.733 884.272,-554.362"/>
</g>
<!-- Node22 -->
<g id="node22" class="node"><title>Node22</title>
<g id="a_node22"><a xlink:href="class_map.html" target="_top" xlink:title="Map Class (for mapping coords to display) ">
<polygon fill="none" stroke="black" points="1085.06,-290 1085.06,-444 1196.94,-444 1196.94,-290 1085.06,-290"/>
<text text-anchor="middle" x="1141" y="-432" font-family="Helvetica,sans-Serif" font-size="10.00">Map</text>
<polyline fill="none" stroke="black" points="1085.06,-426 1196.94,-426 "/>
<text text-anchor="middle" x="1141" y="-414" font-family="Helvetica,sans-Serif" font-size="10.00"> </text>
<polyline fill="none" stroke="black" points="1085.06,-408 1196.94,-408 "/>
<text text-anchor="start" x="1093.06" y="-396" font-family="Helvetica,sans-Serif" font-size="10.00">+ Map()</text>
<text text-anchor="start" x="1093.06" y="-386" font-family="Helvetica,sans-Serif" font-size="10.00">+ point()</text>
<text text-anchor="start" x="1093.06" y="-376" font-family="Helvetica,sans-Serif" font-size="10.00">+ distance()</text>
<text text-anchor="start" x="1093.06" y="-366" font-family="Helvetica,sans-Serif" font-size="10.00">+ heading()</text>
<text text-anchor="start" x="1093.06" y="-356" font-family="Helvetica,sans-Serif" font-size="10.00">+ center()</text>
<text text-anchor="start" x="1093.06" y="-346" font-family="Helvetica,sans-Serif" font-size="10.00">+ set_heading()</text>
<text text-anchor="start" x="1093.06" y="-336" font-family="Helvetica,sans-Serif" font-size="10.00">+ set_selector()</text>
<text text-anchor="start" x="1093.06" y="-326" font-family="Helvetica,sans-Serif" font-size="10.00">+ selector()</text>
<text text-anchor="start" x="1093.06" y="-316" font-family="Helvetica,sans-Serif" font-size="10.00">+ set_bitmap()</text>
<text text-anchor="start" x="1093.06" y="-306" font-family="Helvetica,sans-Serif" font-size="10.00">+ set_max_distance()</text>
<text text-anchor="start" x="1093.06" y="-296" font-family="Helvetica,sans-Serif" font-size="10.00">and 12 more...</text>
</a>
</g>
</g>
<!-- Node1&#45;&gt;Node22 -->
<g id="edge21" class="edge"><title>Node1&#45;&gt;Node22</title>
<path fill="none" stroke="midnightblue" d="M889.807,-598.084C943.156,-570.156 1020.07,-524.64 1075,-470 1082.85,-462.19 1090.26,-453.294 1097.07,-444.085"/>
<polygon fill="none" stroke="midnightblue" points="888.064,-595.046 880.794,-602.753 891.283,-601.261 888.064,-595.046"/>
</g>
<!-- Node23 -->
<g id="node23" class="node"><title>Node23</title>
<g id="a_node23"><a xlink:href="class_text.html" target="_top" xlink:title="Text Box. ">
<polygon fill="none" stroke="black" points="1214.55,-290 1214.55,-444 1331.45,-444 1331.45,-290 1214.55,-290"/>
<text text-anchor="middle" x="1273" y="-432" font-family="Helvetica,sans-Serif" font-size="10.00">Text</text>
<polyline fill="none" stroke="black" points="1214.55,-426 1331.45,-426 "/>
<text text-anchor="middle" x="1273" y="-414" font-family="Helvetica,sans-Serif" font-size="10.00"> </text>
<polyline fill="none" stroke="black" points="1214.55,-408 1331.45,-408 "/>
<text text-anchor="start" x="1222.55" y="-396" font-family="Helvetica,sans-Serif" font-size="10.00">+ Text()</text>
<text text-anchor="start" x="1222.55" y="-386" font-family="Helvetica,sans-Serif" font-size="10.00">+ Text()</text>
<text text-anchor="start" x="1222.55" y="-376" font-family="Helvetica,sans-Serif" font-size="10.00">+ Text()</text>
<text text-anchor="start" x="1222.55" y="-366" font-family="Helvetica,sans-Serif" font-size="10.00">+ set_text()</text>
<text text-anchor="start" x="1222.55" y="-356" font-family="Helvetica,sans-Serif" font-size="10.00">+ text()</text>
<text text-anchor="start" x="1222.55" y="-346" font-family="Helvetica,sans-Serif" font-size="10.00">+ set_prompt_enable()</text>
<text text-anchor="start" x="1222.55" y="-336" font-family="Helvetica,sans-Serif" font-size="10.00">+ set_font_size()</text>
<text text-anchor="start" x="1222.55" y="-326" font-family="Helvetica,sans-Serif" font-size="10.00">+ font_size()</text>
<text text-anchor="start" x="1222.55" y="-316" font-family="Helvetica,sans-Serif" font-size="10.00">+ scroll()</text>
<text text-anchor="start" x="1222.55" y="-306" font-family="Helvetica,sans-Serif" font-size="10.00">+ event_handler()</text>
<text text-anchor="start" x="1222.55" y="-296" font-family="Helvetica,sans-Serif" font-size="10.00">+ draw_on_bitmap()</text>
</a>
</g>
</g>
<!-- Node1&#45;&gt;Node23 -->
<g id="edge22" class="edge"><title>Node1&#45;&gt;Node23</title>
<path fill="none" stroke="midnightblue" d="M890.528,-613.79C970.498,-593.117 1109.98,-548.393 1205,-470 1214.03,-462.551 1222.32,-453.594 1229.77,-444.122"/>
<polygon fill="none" stroke="midnightblue" points="889.433,-610.457 880.602,-616.311 891.156,-617.242 889.433,-610.457"/>
</g>
<!-- Node4 -->
<g id="node4" class="node"><title>Node4</title>
<g id="a_node4"><a xlink:href="class_edit_setting_int.html" target="_top" xlink:title="Edit Integer Class. ">
<polygon fill="none" stroke="black" points="50.6196,-113 50.6196,-227 141.38,-227 141.38,-113 50.6196,-113"/>
<text text-anchor="middle" x="96" y="-215" font-family="Helvetica,sans-Serif" font-size="10.00">EditSettingInt</text>
<polyline fill="none" stroke="black" points="50.6196,-209 141.38,-209 "/>
<text text-anchor="middle" x="96" y="-197" font-family="Helvetica,sans-Serif" font-size="10.00"> </text>
<polyline fill="none" stroke="black" points="50.6196,-191 141.38,-191 "/>
<text text-anchor="start" x="58.6196" y="-179" font-family="Helvetica,sans-Serif" font-size="10.00">+ EditSettingInt()</text>
<text text-anchor="start" x="58.6196" y="-169" font-family="Helvetica,sans-Serif" font-size="10.00">+ EditSettingInt()</text>
<text text-anchor="start" x="58.6196" y="-159" font-family="Helvetica,sans-Serif" font-size="10.00">+ increment()</text>
<text text-anchor="start" x="58.6196" y="-149" font-family="Helvetica,sans-Serif" font-size="10.00">+ decrement()</text>
<text text-anchor="start" x="58.6196" y="-139" font-family="Helvetica,sans-Serif" font-size="10.00">+ load()</text>
<text text-anchor="start" x="58.6196" y="-129" font-family="Helvetica,sans-Serif" font-size="10.00">+ save()</text>
<text text-anchor="start" x="58.6196" y="-119" font-family="Helvetica,sans-Serif" font-size="10.00">+ copy()</text>
</a>
</g>
</g>
<!-- Node3&#45;&gt;Node4 -->
<g id="edge3" class="edge"><title>Node3&#45;&gt;Node4</title>
<path fill="none" stroke="midnightblue" d="M375.215,-291.366C367.546,-280.879 358.507,-271.23 348,-264 274.676,-213.546 229.449,-270.045 151,-228 147.727,-226.246 144.533,-224.228 141.438,-222.021"/>
<polygon fill="none" stroke="midnightblue" points="372.537,-293.651 381.073,-299.927 378.314,-289.697 372.537,-293.651"/>
</g>
<!-- Node5 -->
<g id="node5" class="node"><title>Node5</title>
<g id="a_node5"><a xlink:href="class_edit_sys_brightness.html" target="_top" xlink:title="Edit System Brightness. ">
<polygon fill="none" stroke="black" points="159.787,-118 159.787,-222 272.213,-222 272.213,-118 159.787,-118"/>
<text text-anchor="middle" x="216" y="-210" font-family="Helvetica,sans-Serif" font-size="10.00">EditSysBrightness</text>
<polyline fill="none" stroke="black" points="159.787,-204 272.213,-204 "/>
<text text-anchor="start" x="167.787" y="-192" font-family="Helvetica,sans-Serif" font-size="10.00"># brightness</text>
<polyline fill="none" stroke="black" points="159.787,-186 272.213,-186 "/>
<text text-anchor="start" x="167.787" y="-174" font-family="Helvetica,sans-Serif" font-size="10.00">+ EditSysBrightness()</text>
<text text-anchor="start" x="167.787" y="-164" font-family="Helvetica,sans-Serif" font-size="10.00">+ increment()</text>
<text text-anchor="start" x="167.787" y="-154" font-family="Helvetica,sans-Serif" font-size="10.00">+ decrement()</text>
<text text-anchor="start" x="167.787" y="-144" font-family="Helvetica,sans-Serif" font-size="10.00">+ load()</text>
<text text-anchor="start" x="167.787" y="-134" font-family="Helvetica,sans-Serif" font-size="10.00">+ save()</text>
<text text-anchor="start" x="167.787" y="-124" font-family="Helvetica,sans-Serif" font-size="10.00">+ copy()</text>
</a>
</g>
</g>
<!-- Node3&#45;&gt;Node5 -->
<g id="edge4" class="edge"><title>Node3&#45;&gt;Node5</title>
<path fill="none" stroke="midnightblue" d="M371.258,-291.464C364.301,-281.572 356.517,-272.076 348,-264 323.471,-240.74 308.775,-247.268 281,-228 278.164,-226.032 275.312,-223.958 272.471,-221.813"/>
<polygon fill="none" stroke="midnightblue" points="368.414,-293.507 376.906,-299.844 374.219,-289.595 368.414,-293.507"/>
</g>
<!-- Node9 -->
<g id="node9" class="node"><title>Node9</title>
<g id="a_node9"><a xlink:href="class_edit_sys_morse_delay.html" target="_top" xlink:title="Edit Morse Delay. ">
<polygon fill="none" stroke="black" points="289.735,-118 289.735,-222 408.265,-222 408.265,-118 289.735,-118"/>
<text text-anchor="middle" x="349" y="-210" font-family="Helvetica,sans-Serif" font-size="10.00">EditSysMorseDelay</text>
<polyline fill="none" stroke="black" points="289.735,-204 408.265,-204 "/>
<text text-anchor="middle" x="349" y="-192" font-family="Helvetica,sans-Serif" font-size="10.00"> </text>
<polyline fill="none" stroke="black" points="289.735,-186 408.265,-186 "/>
<text text-anchor="start" x="297.735" y="-174" font-family="Helvetica,sans-Serif" font-size="10.00">+ EditSysMorseDelay()</text>
<text text-anchor="start" x="297.735" y="-164" font-family="Helvetica,sans-Serif" font-size="10.00">+ increment()</text>
<text text-anchor="start" x="297.735" y="-154" font-family="Helvetica,sans-Serif" font-size="10.00">+ decrement()</text>
<text text-anchor="start" x="297.735" y="-144" font-family="Helvetica,sans-Serif" font-size="10.00">+ load()</text>
<text text-anchor="start" x="297.735" y="-134" font-family="Helvetica,sans-Serif" font-size="10.00">+ save()</text>
<text text-anchor="start" x="297.735" y="-124" font-family="Helvetica,sans-Serif" font-size="10.00">+ copy()</text>
</a>
</g>
</g>
<!-- Node3&#45;&gt;Node9 -->
<g id="edge8" class="edge"><title>Node3&#45;&gt;Node9</title>
<path fill="none" stroke="midnightblue" d="M386.325,-290.318C379.185,-267.492 371.518,-242.984 365.002,-222.154"/>
<polygon fill="none" stroke="midnightblue" points="383.022,-291.483 389.348,-299.982 389.703,-289.393 383.022,-291.483"/>
</g>
<!-- Node10 -->
<g id="node10" class="node"><title>Node10</title>
<g id="a_node10"><a xlink:href="class_edit_sys_units.html" target="_top" xlink:title="Edit System Units Setting. ">
<polygon fill="none" stroke="black" points="426.019,-118 426.019,-222 513.981,-222 513.981,-118 426.019,-118"/>
<text text-anchor="middle" x="470" y="-210" font-family="Helvetica,sans-Serif" font-size="10.00">EditSysUnits</text>
<polyline fill="none" stroke="black" points="426.019,-204 513.981,-204 "/>
<text text-anchor="middle" x="470" y="-192" font-family="Helvetica,sans-Serif" font-size="10.00"> </text>
<polyline fill="none" stroke="black" points="426.019,-186 513.981,-186 "/>
<text text-anchor="start" x="434.019" y="-174" font-family="Helvetica,sans-Serif" font-size="10.00">+ EditSysUnits()</text>
<text text-anchor="start" x="434.019" y="-164" font-family="Helvetica,sans-Serif" font-size="10.00">+ increment()</text>
<text text-anchor="start" x="434.019" y="-154" font-family="Helvetica,sans-Serif" font-size="10.00">+ decrement()</text>
<text text-anchor="start" x="434.019" y="-144" font-family="Helvetica,sans-Serif" font-size="10.00">+ load()</text>
<text text-anchor="start" x="434.019" y="-134" font-family="Helvetica,sans-Serif" font-size="10.00">+ save()</text>
<text text-anchor="start" x="434.019" y="-124" font-family="Helvetica,sans-Serif" font-size="10.00">+ copy()</text>
</a>
</g>
</g>
<!-- Node3&#45;&gt;Node10 -->
<g id="edge9" class="edge"><title>Node3&#45;&gt;Node10</title>
<path fill="none" stroke="midnightblue" d="M433.287,-290.318C440.31,-267.492 447.851,-242.984 454.26,-222.154"/>
<polygon fill="none" stroke="midnightblue" points="429.909,-289.395 430.313,-299.982 436.599,-291.453 429.909,-289.395"/>
</g>
<!-- Node6 -->
<g id="node6" class="node"><title>Node6</title>
<g id="a_node6"><a xlink:href="class_edit_sys_brightness_high.html" target="_top" xlink:title="Edit System High Brightness Class. ">
<polygon fill="none" stroke="black" points="-0.496094,-1 -0.496094,-75 132.496,-75 132.496,-1 -0.496094,-1"/>
<text text-anchor="middle" x="66" y="-63" font-family="Helvetica,sans-Serif" font-size="10.00">EditSysBrightnessHigh</text>
<polyline fill="none" stroke="black" points="-0.496094,-57 132.496,-57 "/>
<text text-anchor="middle" x="66" y="-45" font-family="Helvetica,sans-Serif" font-size="10.00"> </text>
<polyline fill="none" stroke="black" points="-0.496094,-39 132.496,-39 "/>
<text text-anchor="start" x="7.50391" y="-27" font-family="Helvetica,sans-Serif" font-size="10.00">+ EditSysBrightnessHigh()</text>
<text text-anchor="start" x="7.50391" y="-17" font-family="Helvetica,sans-Serif" font-size="10.00">+ load()</text>
<text text-anchor="start" x="7.50391" y="-7" font-family="Helvetica,sans-Serif" font-size="10.00">+ save()</text>
</a>
</g>
</g>
<!-- Node5&#45;&gt;Node6 -->
<g id="edge5" class="edge"><title>Node5&#45;&gt;Node6</title>
<path fill="none" stroke="midnightblue" d="M151.938,-113.48C136.93,-100.473 121.325,-86.9484 107.597,-75.0504"/>
<polygon fill="none" stroke="midnightblue" points="149.87,-116.319 159.719,-120.223 154.454,-111.029 149.87,-116.319"/>
</g>
<!-- Node7 -->
<g id="node7" class="node"><title>Node7</title>
<g id="a_node7"><a xlink:href="class_edit_sys_brightness_low.html" target="_top" xlink:title="Edit System Low Brightness Class. ">
<polygon fill="none" stroke="black" points="150.615,-1 150.615,-75 281.385,-75 281.385,-1 150.615,-1"/>
<text text-anchor="middle" x="216" y="-63" font-family="Helvetica,sans-Serif" font-size="10.00">EditSysBrightnessLow</text>
<polyline fill="none" stroke="black" points="150.615,-57 281.385,-57 "/>
<text text-anchor="middle" x="216" y="-45" font-family="Helvetica,sans-Serif" font-size="10.00"> </text>
<polyline fill="none" stroke="black" points="150.615,-39 281.385,-39 "/>
<text text-anchor="start" x="158.615" y="-27" font-family="Helvetica,sans-Serif" font-size="10.00">+ EditSysBrightnessLow()</text>
<text text-anchor="start" x="158.615" y="-17" font-family="Helvetica,sans-Serif" font-size="10.00">+ load()</text>
<text text-anchor="start" x="158.615" y="-7" font-family="Helvetica,sans-Serif" font-size="10.00">+ save()</text>
</a>
</g>
</g>
<!-- Node5&#45;&gt;Node7 -->
<g id="edge6" class="edge"><title>Node5&#45;&gt;Node7</title>
<path fill="none" stroke="midnightblue" d="M216,-107.771C216,-96.5521 216,-85.1827 216,-75.0059"/>
<polygon fill="none" stroke="midnightblue" points="212.5,-107.994 216,-117.994 219.5,-107.994 212.5,-107.994"/>
</g>
<!-- Node8 -->
<g id="node8" class="node"><title>Node8</title>
<g id="a_node8"><a xlink:href="class_edit_sys_brightness_med.html" target="_top" xlink:title="Edit System Med Brightness Class. ">
<polygon fill="none" stroke="black" points="299.061,-1 299.061,-75 430.939,-75 430.939,-1 299.061,-1"/>
<text text-anchor="middle" x="365" y="-63" font-family="Helvetica,sans-Serif" font-size="10.00">EditSysBrightnessMed</text>
<polyline fill="none" stroke="black" points="299.061,-57 430.939,-57 "/>
<text text-anchor="middle" x="365" y="-45" font-family="Helvetica,sans-Serif" font-size="10.00"> </text>
<polyline fill="none" stroke="black" points="299.061,-39 430.939,-39 "/>
<text text-anchor="start" x="307.061" y="-27" font-family="Helvetica,sans-Serif" font-size="10.00">+ EditSysBrightnessMed()</text>
<text text-anchor="start" x="307.061" y="-17" font-family="Helvetica,sans-Serif" font-size="10.00">+ load()</text>
<text text-anchor="start" x="307.061" y="-7" font-family="Helvetica,sans-Serif" font-size="10.00">+ save()</text>
</a>
</g>
</g>
<!-- Node5&#45;&gt;Node8 -->
<g id="edge7" class="edge"><title>Node5&#45;&gt;Node8</title>
<path fill="none" stroke="midnightblue" d="M279.937,-112.928C280.292,-112.618 280.647,-112.308 281,-112 294.682,-100.056 309.641,-87.0413 323.096,-75.3522"/>
<polygon fill="none" stroke="midnightblue" points="277.584,-110.337 272.357,-119.552 282.19,-115.608 277.584,-110.337"/>
</g>
<!-- Node12 -->
<g id="node12" class="node"><title>Node12</title>
<g id="a_node12"><a xlink:href="class_graph_bar.html" target="_top" xlink:title="Bar Graph Element. ">
<polygon fill="none" stroke="black" points="531.684,-143 531.684,-197 606.316,-197 606.316,-143 531.684,-143"/>
<text text-anchor="middle" x="569" y="-185" font-family="Helvetica,sans-Serif" font-size="10.00">GraphBar</text>
<polyline fill="none" stroke="black" points="531.684,-179 606.316,-179 "/>
<text text-anchor="middle" x="569" y="-167" font-family="Helvetica,sans-Serif" font-size="10.00"> </text>
<polyline fill="none" stroke="black" points="531.684,-161 606.316,-161 "/>
<text text-anchor="start" x="539.684" y="-149" font-family="Helvetica,sans-Serif" font-size="10.00">+ GraphBar()</text>
</a>
</g>
</g>
<!-- Node11&#45;&gt;Node12 -->
<g id="edge11" class="edge"><title>Node11&#45;&gt;Node12</title>
<path fill="none" stroke="midnightblue" d="M619.941,-305.237C606.157,-268.914 589.35,-224.624 578.909,-197.112"/>
<polygon fill="none" stroke="midnightblue" points="616.737,-306.658 623.557,-314.766 623.282,-304.175 616.737,-306.658"/>
</g>
<!-- Node13 -->
<g id="node13" class="node"><title>Node13</title>
<g id="a_node13"><a xlink:href="class_graph_line.html" target="_top" xlink:title="Line Graph Element. ">
<polygon fill="none" stroke="black" points="624.011,-143 624.011,-197 701.989,-197 701.989,-143 624.011,-143"/>
<text text-anchor="middle" x="663" y="-185" font-family="Helvetica,sans-Serif" font-size="10.00">GraphLine</text>
<polyline fill="none" stroke="black" points="624.011,-179 701.989,-179 "/>
<text text-anchor="middle" x="663" y="-167" font-family="Helvetica,sans-Serif" font-size="10.00"> </text>
<polyline fill="none" stroke="black" points="624.011,-161 701.989,-161 "/>
<text text-anchor="start" x="632.011" y="-149" font-family="Helvetica,sans-Serif" font-size="10.00">+ GraphLine()</text>
</a>
</g>
</g>
<!-- Node11&#45;&gt;Node13 -->
<g id="edge12" class="edge"><title>Node11&#45;&gt;Node13</title>
<path fill="none" stroke="midnightblue" d="M649.28,-304.773C652.996,-268.538 657.512,-224.507 660.322,-197.112"/>
<polygon fill="none" stroke="midnightblue" points="645.793,-304.461 648.255,-314.766 652.757,-305.175 645.793,-304.461"/>
</g>
<!-- Node15 -->
<g id="node15" class="node"><title>Node15</title>
<g id="a_node15"><a xlink:href="class_label_metric.html" target="_top" xlink:title="Label with Value Class. ">
<polygon fill="none" stroke="black" points="720.393,-118 720.393,-222 825.607,-222 825.607,-118 720.393,-118"/>
<text text-anchor="middle" x="773" y="-210" font-family="Helvetica,sans-Serif" font-size="10.00">LabelMetric</text>
<polyline fill="none" stroke="black" points="720.393,-204 825.607,-204 "/>
<text text-anchor="middle" x="773" y="-192" font-family="Helvetica,sans-Serif" font-size="10.00"> </text>
<polyline fill="none" stroke="black" points="720.393,-186 825.607,-186 "/>
<text text-anchor="start" x="728.393" y="-174" font-family="Helvetica,sans-Serif" font-size="10.00">+ LabelMetric()</text>
<text text-anchor="start" x="728.393" y="-164" font-family="Helvetica,sans-Serif" font-size="10.00">+ LabelMetric()</text>
<text text-anchor="start" x="728.393" y="-154" font-family="Helvetica,sans-Serif" font-size="10.00">+ set_units()</text>
<text text-anchor="start" x="728.393" y="-144" font-family="Helvetica,sans-Serif" font-size="10.00">+ units()</text>
<text text-anchor="start" x="728.393" y="-134" font-family="Helvetica,sans-Serif" font-size="10.00">+ set()</text>
<text text-anchor="start" x="728.393" y="-124" font-family="Helvetica,sans-Serif" font-size="10.00">+ draw_on_bitmap()</text>
</a>
</g>
</g>
<!-- Node14&#45;&gt;Node15 -->
<g id="edge14" class="edge"><title>Node14&#45;&gt;Node15</title>
<path fill="none" stroke="midnightblue" d="M768.209,-304.468C769.159,-278.006 770.256,-247.433 771.161,-222.23"/>
<polygon fill="none" stroke="midnightblue" points="764.7,-304.647 767.839,-314.766 771.696,-304.898 764.7,-304.647"/>
</g>
<!-- Node18 -->
<g id="node18" class="node"><title>Node18</title>
<g id="a_node18"><a xlink:href="class_list_item_callback.html" target="_top" xlink:title="List Item Callback Class. ">
<polygon fill="none" stroke="black" points="843.681,-128 843.681,-212 948.319,-212 948.319,-128 843.681,-128"/>
<text text-anchor="middle" x="896" y="-200" font-family="Helvetica,sans-Serif" font-size="10.00">ListItemCallback</text>
<polyline fill="none" stroke="black" points="843.681,-194 948.319,-194 "/>
<text text-anchor="middle" x="896" y="-182" font-family="Helvetica,sans-Serif" font-size="10.00"> </text>
<polyline fill="none" stroke="black" points="843.681,-176 948.319,-176 "/>
<text text-anchor="start" x="851.681" y="-164" font-family="Helvetica,sans-Serif" font-size="10.00">+ ListItemCallback()</text>
<text text-anchor="start" x="851.681" y="-154" font-family="Helvetica,sans-Serif" font-size="10.00">+ ListItemCallback()</text>
<text text-anchor="start" x="851.681" y="-144" font-family="Helvetica,sans-Serif" font-size="10.00">+ ListItemCallback()</text>
<text text-anchor="start" x="851.681" y="-134" font-family="Helvetica,sans-Serif" font-size="10.00">+ event_handler()</text>
</a>
</g>
</g>
<!-- Node17&#45;&gt;Node18 -->
<g id="edge17" class="edge"><title>Node17&#45;&gt;Node18</title>
<path fill="none" stroke="midnightblue" d="M956.09,-270.301C943.713,-249.847 931.271,-229.287 920.946,-212.224"/>
<polygon fill="none" stroke="midnightblue" points="953.213,-272.307 961.384,-279.05 959.202,-268.683 953.213,-272.307"/>
</g>
<!-- Node19 -->
<g id="node19" class="node"><title>Node19</title>
<g id="a_node19"><a xlink:href="class_list_item_check.html" target="_top" xlink:title="List Item Check (for use in a checklist) ">
<polygon fill="none" stroke="black" points="966.669,-128 966.669,-212 1061.33,-212 1061.33,-128 966.669,-128"/>
<text text-anchor="middle" x="1014" y="-200" font-family="Helvetica,sans-Serif" font-size="10.00">ListItemCheck</text>
<polyline fill="none" stroke="black" points="966.669,-194 1061.33,-194 "/>
<text text-anchor="middle" x="1014" y="-182" font-family="Helvetica,sans-Serif" font-size="10.00"> </text>
<polyline fill="none" stroke="black" points="966.669,-176 1061.33,-176 "/>
<text text-anchor="start" x="974.669" y="-164" font-family="Helvetica,sans-Serif" font-size="10.00">+ ListItemCheck()</text>
<text text-anchor="start" x="974.669" y="-154" font-family="Helvetica,sans-Serif" font-size="10.00">+ ListItemCheck()</text>
<text text-anchor="start" x="974.669" y="-144" font-family="Helvetica,sans-Serif" font-size="10.00">+ set_enabled()</text>
<text text-anchor="start" x="974.669" y="-134" font-family="Helvetica,sans-Serif" font-size="10.00">+ event_handler()</text>
</a>
</g>
</g>
<!-- Node17&#45;&gt;Node19 -->
<g id="edge18" class="edge"><title>Node17&#45;&gt;Node19</title>
<path fill="none" stroke="midnightblue" d="M1014,-254.391C1014,-239.453 1014,-224.966 1014,-212.373"/>
<polygon fill="none" stroke="midnightblue" points="1010.5,-254.787 1014,-264.787 1017.5,-254.787 1010.5,-254.787"/>
</g>
<!-- Node20 -->
<g id="node20" class="node"><title>Node20</title>
<g id="a_node20"><a xlink:href="class_list_item_element.html" target="_top" xlink:title="List Item Element Class. ">
<polygon fill="none" stroke="black" points="1079.51,-113 1079.51,-227 1182.49,-227 1182.49,-113 1079.51,-113"/>
<text text-anchor="middle" x="1131" y="-215" font-family="Helvetica,sans-Serif" font-size="10.00">ListItemElement</text>
<polyline fill="none" stroke="black" points="1079.51,-209 1182.49,-209 "/>
<text text-anchor="middle" x="1131" y="-197" font-family="Helvetica,sans-Serif" font-size="10.00"> </text>
<polyline fill="none" stroke="black" points="1079.51,-191 1182.49,-191 "/>
<text text-anchor="start" x="1087.51" y="-179" font-family="Helvetica,sans-Serif" font-size="10.00">+ ListItemElement()</text>
<text text-anchor="start" x="1087.51" y="-169" font-family="Helvetica,sans-Serif" font-size="10.00">+ ListItemElement()</text>
<text text-anchor="start" x="1087.51" y="-159" font-family="Helvetica,sans-Serif" font-size="10.00">+ ListItemElement()</text>
<text text-anchor="start" x="1087.51" y="-149" font-family="Helvetica,sans-Serif" font-size="10.00">+ ListItemElement()</text>
<text text-anchor="start" x="1087.51" y="-139" font-family="Helvetica,sans-Serif" font-size="10.00">+ set_target()</text>
<text text-anchor="start" x="1087.51" y="-129" font-family="Helvetica,sans-Serif" font-size="10.00">+ target()</text>
<text text-anchor="start" x="1087.51" y="-119" font-family="Helvetica,sans-Serif" font-size="10.00">+ event_handler()</text>
</a>
</g>
</g>
<!-- Node17&#45;&gt;Node20 -->
<g id="edge19" class="edge"><title>Node17&#45;&gt;Node20</title>
<path fill="none" stroke="midnightblue" d="M1071.83,-269.616C1080.59,-255.018 1089.37,-240.386 1097.38,-227.03"/>
<polygon fill="none" stroke="midnightblue" points="1068.83,-267.822 1066.68,-278.198 1074.83,-271.423 1068.83,-267.822"/>
</g>
<!-- Node21 -->
<g id="node21" class="node"><title>Node21</title>
<g id="a_node21"><a xlink:href="class_list_item_toggle.html" target="_top" xlink:title="Toggle Item. ">
<polygon fill="none" stroke="black" points="1200.12,-133 1200.12,-207 1295.88,-207 1295.88,-133 1200.12,-133"/>
<text text-anchor="middle" x="1248" y="-195" font-family="Helvetica,sans-Serif" font-size="10.00">ListItemToggle</text>
<polyline fill="none" stroke="black" points="1200.12,-189 1295.88,-189 "/>
<text text-anchor="middle" x="1248" y="-177" font-family="Helvetica,sans-Serif" font-size="10.00"> </text>
<polyline fill="none" stroke="black" points="1200.12,-171 1295.88,-171 "/>
<text text-anchor="start" x="1208.12" y="-159" font-family="Helvetica,sans-Serif" font-size="10.00">+ ListItemToggle()</text>
<text text-anchor="start" x="1208.12" y="-149" font-family="Helvetica,sans-Serif" font-size="10.00">+ event_handler()</text>
<text text-anchor="start" x="1208.12" y="-139" font-family="Helvetica,sans-Serif" font-size="10.00">+ set_enabled()</text>
</a>
</g>
</g>
<!-- Node17&#45;&gt;Node21 -->
<g id="edge20" class="edge"><title>Node17&#45;&gt;Node21</title>
<path fill="none" stroke="midnightblue" d="M1074.56,-265.152C1075.03,-264.763 1075.52,-264.379 1076,-264 1118.18,-230.994 1145.19,-255.737 1191,-228 1200.34,-222.347 1209.28,-214.847 1217.19,-207.15"/>
<polygon fill="none" stroke="midnightblue" points="1072.19,-262.574 1067.05,-271.841 1076.85,-267.798 1072.19,-262.574"/>
</g>
</g>
</svg>
