<?xml version="1.0" encoding="UTF-8" standalone="no"?>
<!DOCTYPE svg PUBLIC "-//W3C//DTD SVG 1.1//EN"
 "http://www.w3.org/Graphics/SVG/1.1/DTD/svg11.dtd">
<!-- Generated by graphviz version 2.36.0 (20140111.2315)
 -->
<!-- Title: UI Elements Pages: 1 -->
<svg width="186pt" height="211pt"
 viewBox="0.00 0.00 186.00 211.00" xmlns="http://www.w3.org/2000/svg" xmlns:xlink="http://www.w3.org/1999/xlink">
<g id="graph0" class="graph" transform="scale(1 1) rotate(0) translate(4 207)">
<title>UI Elements</title>
<!-- Node4 -->
<g id="node1" class="node"><title>Node4</title>
<g id="a_node1"><a xlink:href="group__list.html" target="_top" xlink:title="List">
<polygon fill="none" stroke="black" points="126.219,-185 126.219,-203 157.781,-203 157.781,-185 126.219,-185"/>
<text text-anchor="middle" x="142" y="-191" font-family="Helvetica,sans-Serif" font-size="10.00">List</text>
</a>
</g>
</g>
<!-- Node3 -->
<g id="node2" class="node"><title>Node3</title>
<g id="a_node2"><a xlink:href="group__label.html" target="_top" xlink:title="Label">
<polygon fill="none" stroke="black" points="121.766,-148 121.766,-166 162.234,-166 162.234,-148 121.766,-148"/>
<text text-anchor="middle" x="142" y="-154" font-family="Helvetica,sans-Serif" font-size="10.00">Label</text>
</a>
</g>
</g>
<!-- Node1 -->
<g id="node3" class="node"><title>Node1</title>
<g id="a_node3"><a xlink:href="group__edit.html" target="_top" xlink:title="Edit Settings">
<polygon fill="none" stroke="black" points="105.929,-111 105.929,-129 178.071,-129 178.071,-111 105.929,-111"/>
<text text-anchor="middle" x="142" y="-117" font-family="Helvetica,sans-Serif" font-size="10.00">Edit Settings</text>
</a>
</g>
</g>
<!-- Node2 -->
<g id="node4" class="node"><title>Node2</title>
<g id="a_node4"><a xlink:href="group__graph.html" target="_top" xlink:title="Graphs">
<polygon fill="none" stroke="black" points="117.604,-74 117.604,-92 166.396,-92 166.396,-74 117.604,-74"/>
<text text-anchor="middle" x="142" y="-80" font-family="Helvetica,sans-Serif" font-size="10.00">Graphs</text>
</a>
</g>
</g>
<!-- Node5 -->
<g id="node5" class="node"><title>Node5</title>
<g id="a_node5"><a xlink:href="group__nav.html" target="_top" xlink:title="Navigation">
<polygon fill="none" stroke="black" points="110.375,-37 110.375,-55 173.625,-55 173.625,-37 110.375,-37"/>
<text text-anchor="middle" x="142" y="-43" font-family="Helvetica,sans-Serif" font-size="10.00">Navigation</text>
</a>
</g>
</g>
<!-- Node6 -->
<g id="node6" class="node"><title>Node6</title>
<g id="a_node6"><a xlink:href="group__input.html" target="_top" xlink:title="Text Input">
<polygon fill="none" stroke="black" points="112.32,-0 112.32,-18 171.68,-18 171.68,-0 112.32,-0"/>
<text text-anchor="middle" x="142" y="-6" font-family="Helvetica,sans-Serif" font-size="10.00">Text Input</text>
</a>
</g>
</g>
<!-- Node0 -->
<g id="node7" class="node"><title>Node0</title>
<polygon fill="#bfbfbf" stroke="black" points="-0.231445,-92 -0.231445,-110 70.2314,-110 70.2314,-92 -0.231445,-92"/>
<text text-anchor="middle" x="35" y="-98" font-family="Helvetica,sans-Serif" font-size="10.00">UI Elements</text>
</g>
<!-- Node0&#45;&gt;Node4 -->
<g id="edge4" class="edge"><title>Node0&#45;&gt;Node4</title>
<path fill="none" stroke="midnightblue" d="M49.4479,-118.069C62.6623,-134.101 83.9944,-158.088 106,-175 112.14,-179.719 119.607,-183.945 126.064,-187.207"/>
<polygon fill="midnightblue" stroke="midnightblue" points="51.9967,-115.655 42.9891,-110.077 46.5522,-120.055 51.9967,-115.655"/>
</g>
<!-- Node0&#45;&gt;Node3 -->
<g id="edge3" class="edge"><title>Node0&#45;&gt;Node3</title>
<path fill="none" stroke="midnightblue" d="M62.2436,-114.997C81.5665,-125.302 107.28,-139.016 123.984,-147.925"/>
<polygon fill="midnightblue" stroke="midnightblue" points="63.8092,-111.865 53.3386,-110.247 60.5151,-118.041 63.8092,-111.865"/>
</g>
<!-- Node0&#45;&gt;Node1 -->
<g id="edge1" class="edge"><title>Node0&#45;&gt;Node1</title>
<path fill="none" stroke="midnightblue" d="M80.4981,-109.052C88.9578,-110.583 97.7013,-112.165 105.822,-113.634"/>
<polygon fill="midnightblue" stroke="midnightblue" points="80.8444,-105.558 70.3809,-107.221 79.5979,-112.446 80.8444,-105.558"/>
</g>
<!-- Node0&#45;&gt;Node2 -->
<g id="edge2" class="edge"><title>Node0&#45;&gt;Node2</title>
<path fill="none" stroke="midnightblue" d="M80.4042,-93.3879C93.1507,-91.2027 106.55,-88.9058 117.497,-87.029"/>
<polygon fill="midnightblue" stroke="midnightblue" points="79.6457,-89.9667 70.3809,-95.1061 80.8286,-96.8661 79.6457,-89.9667"/>
</g>
<!-- Node0&#45;&gt;Node5 -->
<g id="edge5" class="edge"><title>Node0&#45;&gt;Node5</title>
<path fill="none" stroke="midnightblue" d="M62.4493,-87.1456C81.6145,-77.1067 106.984,-63.8181 123.636,-55.0956"/>
<polygon fill="midnightblue" stroke="midnightblue" points="60.5729,-84.1773 53.3386,-91.9179 63.821,-90.3782 60.5729,-84.1773"/>
</g>
<!-- Node0&#45;&gt;Node6 -->
<g id="edge6" class="edge"><title>Node0&#45;&gt;Node6</title>
<path fill="none" stroke="midnightblue" d="M49.9228,-83.664C63.1986,-67.8646 84.3295,-44.5377 106,-28 110.837,-24.3089 116.484,-20.9103 121.813,-18.0392"/>
<polygon fill="midnightblue" stroke="midnightblue" points="47.061,-81.6332 43.4019,-91.5761 52.4628,-86.0852 47.061,-81.6332"/>
</g>
</g>
</svg>
