<?xml version="1.0" encoding="UTF-8" standalone="no"?>
<!DOCTYPE svg PUBLIC "-//W3C//DTD SVG 1.1//EN"
 "http://www.w3.org/Graphics/SVG/1.1/DTD/svg11.dtd">
<!-- Generated by graphviz version 2.36.0 (20140111.2315)
 -->
<!-- Title: Graphical Class Hierarchy Pages: 1 -->
<svg width="466pt" height="433pt"
 viewBox="0.00 0.00 466.00 433.00" xmlns="http://www.w3.org/2000/svg" xmlns:xlink="http://www.w3.org/1999/xlink">
<g id="graph0" class="graph" transform="scale(1 1) rotate(0) translate(4 429)">
<title>Graphical Class Hierarchy</title>
<!-- Node1 -->
<g id="node1" class="node"><title>Node1</title>
<g id="a_node1"><a xlink:href="class_element.html" target="_top" xlink:title="Element Class. ">
<polygon fill="none" stroke="black" points="0.657715,-129 0.657715,-147 53.3423,-147 53.3423,-129 0.657715,-129"/>
<text text-anchor="middle" x="27" y="-135" font-family="Helvetica,sans-Serif" font-size="10.00">Element</text>
</a>
</g>
</g>
<!-- Node2 -->
<g id="node2" class="node"><title>Node2</title>
<g id="a_node2"><a xlink:href="class_button_bar.html" target="_top" xlink:title="Button Bar. ">
<polygon fill="none" stroke="black" points="98.7637,-333 98.7637,-351 159.236,-351 159.236,-333 98.7637,-333"/>
<text text-anchor="middle" x="129" y="-339" font-family="Helvetica,sans-Serif" font-size="10.00">ButtonBar</text>
</a>
</g>
</g>
<!-- Node1&#45;&gt;Node2 -->
<g id="edge1" class="edge"><title>Node1&#45;&gt;Node2</title>
<path fill="none" stroke="midnightblue" d="M29.6774,-157.586C33.7706,-194.223 47.3032,-273.851 90,-323 93.4828,-327.009 98.0124,-330.266 102.724,-332.877"/>
<polygon fill="midnightblue" stroke="midnightblue" points="33.1265,-156.9 28.6551,-147.295 26.1608,-157.592 33.1265,-156.9"/>
</g>
<!-- Node3 -->
<g id="node3" class="node"><title>Node3</title>
<g id="a_node3"><a xlink:href="class_edit.html" target="_top" xlink:title="Edit Element. ">
<polygon fill="none" stroke="black" points="112.384,-296 112.384,-314 145.616,-314 145.616,-296 112.384,-296"/>
<text text-anchor="middle" x="129" y="-302" font-family="Helvetica,sans-Serif" font-size="10.00">Edit</text>
</a>
</g>
</g>
<!-- Node1&#45;&gt;Node3 -->
<g id="edge2" class="edge"><title>Node1&#45;&gt;Node3</title>
<path fill="none" stroke="midnightblue" d="M38.953,-156.291C60.2132,-191.796 106.388,-268.909 122.399,-295.647"/>
<polygon fill="midnightblue" stroke="midnightblue" points="41.8032,-154.238 33.663,-147.457 35.7976,-157.835 41.8032,-154.238"/>
</g>
<!-- Node12 -->
<g id="node12" class="node"><title>Node12</title>
<g id="a_node12"><a xlink:href="class_graph_1_1_object.html" target="_top" xlink:title="Abstract Graph Class. ">
<polygon fill="none" stroke="black" points="89.8745,-185 89.8745,-203 168.125,-203 168.125,-185 89.8745,-185"/>
<text text-anchor="middle" x="129" y="-191" font-family="Helvetica,sans-Serif" font-size="10.00">Graph::Object</text>
</a>
</g>
</g>
<!-- Node1&#45;&gt;Node12 -->
<g id="edge11" class="edge"><title>Node1&#45;&gt;Node12</title>
<path fill="none" stroke="midnightblue" d="M51.2095,-152.408C62.7527,-159.43 76.986,-167.876 90,-175 96.2112,-178.4 103.108,-181.922 109.302,-184.996"/>
<polygon fill="midnightblue" stroke="midnightblue" points="52.9585,-149.375 42.6034,-147.134 49.3008,-155.343 52.9585,-149.375"/>
</g>
<!-- Node15 -->
<g id="node15" class="node"><title>Node15</title>
<g id="a_node15"><a xlink:href="class_label.html" target="_top" xlink:title="Label Element. ">
<polygon fill="none" stroke="black" points="108.766,-148 108.766,-166 149.234,-166 149.234,-148 108.766,-148"/>
<text text-anchor="middle" x="129" y="-154" font-family="Helvetica,sans-Serif" font-size="10.00">Label</text>
</a>
</g>
</g>
<!-- Node1&#45;&gt;Node15 -->
<g id="edge14" class="edge"><title>Node1&#45;&gt;Node15</title>
<path fill="none" stroke="midnightblue" d="M63.5887,-144.762C78.7269,-147.638 95.7921,-150.88 108.552,-153.305"/>
<polygon fill="midnightblue" stroke="midnightblue" points="63.9706,-141.272 53.493,-142.844 62.6639,-148.149 63.9706,-141.272"/>
</g>
<!-- Node17 -->
<g id="node17" class="node"><title>Node17</title>
<g id="a_node17"><a xlink:href="class_list.html" target="_top" xlink:title="List Class. ">
<polygon fill="none" stroke="black" points="113.219,-111 113.219,-129 144.781,-129 144.781,-111 113.219,-111"/>
<text text-anchor="middle" x="129" y="-117" font-family="Helvetica,sans-Serif" font-size="10.00">List</text>
</a>
</g>
</g>
<!-- Node1&#45;&gt;Node17 -->
<g id="edge16" class="edge"><title>Node1&#45;&gt;Node17</title>
<path fill="none" stroke="midnightblue" d="M63.6891,-131.576C80.6916,-128.516 100.105,-125.021 113.114,-122.679"/>
<polygon fill="midnightblue" stroke="midnightblue" points="62.7147,-128.195 53.493,-133.411 63.9549,-135.084 62.7147,-128.195"/>
</g>
<!-- Node18 -->
<g id="node18" class="node"><title>Node18</title>
<g id="a_node18"><a xlink:href="class_list_item.html" target="_top" xlink:title="List Item Class. ">
<polygon fill="none" stroke="black" points="103.495,-74 103.495,-92 154.505,-92 154.505,-74 103.495,-74"/>
<text text-anchor="middle" x="129" y="-80" font-family="Helvetica,sans-Serif" font-size="10.00">ListItem</text>
</a>
</g>
</g>
<!-- Node1&#45;&gt;Node18 -->
<g id="edge17" class="edge"><title>Node1&#45;&gt;Node18</title>
<path fill="none" stroke="midnightblue" d="M50.9142,-123.612C62.4821,-116.533 76.8237,-108.032 90,-101 95.6674,-97.9755 101.929,-94.9034 107.706,-92.1738"/>
<polygon fill="midnightblue" stroke="midnightblue" points="48.9747,-120.697 42.3069,-128.93 52.6539,-126.652 48.9747,-120.697"/>
</g>
<!-- Node23 -->
<g id="node23" class="node"><title>Node23</title>
<g id="a_node23"><a xlink:href="class_map.html" target="_top" xlink:title="Map Class (for mapping coords to display) ">
<polygon fill="none" stroke="black" points="111.273,-37 111.273,-55 146.727,-55 146.727,-37 111.273,-37"/>
<text text-anchor="middle" x="129" y="-43" font-family="Helvetica,sans-Serif" font-size="10.00">Map</text>
</a>
</g>
</g>
<!-- Node1&#45;&gt;Node23 -->
<g id="edge22" class="edge"><title>Node1&#45;&gt;Node23</title>
<path fill="none" stroke="midnightblue" d="M39.6319,-120.103C50.936,-103.81 69.3792,-79.9343 90,-64 96.354,-59.0901 104.263,-55.0763 111.219,-52.095"/>
<polygon fill="midnightblue" stroke="midnightblue" points="36.5231,-118.454 33.8387,-128.703 42.3286,-122.365 36.5231,-118.454"/>
</g>
<!-- Node24 -->
<g id="node24" class="node"><title>Node24</title>
<g id="a_node24"><a xlink:href="class_text.html" target="_top" xlink:title="Text Box. ">
<polygon fill="none" stroke="black" points="111.83,-0 111.83,-18 146.17,-18 146.17,-0 111.83,-0"/>
<text text-anchor="middle" x="129" y="-6" font-family="Helvetica,sans-Serif" font-size="10.00">Text</text>
</a>
</g>
</g>
<!-- Node1&#45;&gt;Node24 -->
<g id="edge23" class="edge"><title>Node1&#45;&gt;Node24</title>
<path fill="none" stroke="midnightblue" d="M34.3399,-119.295C43.3396,-95.19 61.912,-53.266 90,-27 96.0783,-21.316 104.279,-17.1248 111.506,-14.2241"/>
<polygon fill="midnightblue" stroke="midnightblue" points="31.0421,-118.123 30.9736,-128.718 37.634,-120.478 31.0421,-118.123"/>
</g>
<!-- Node4 -->
<g id="node4" class="node"><title>Node4</title>
<g id="a_node4"><a xlink:href="class_edit_setting_int.html" target="_top" xlink:title="Edit Integer Class. ">
<polygon fill="none" stroke="black" points="216.259,-407 216.259,-425 291.741,-425 291.741,-407 216.259,-407"/>
<text text-anchor="middle" x="254" y="-413" font-family="Helvetica,sans-Serif" font-size="10.00">EditSettingInt</text>
</a>
</g>
</g>
<!-- Node3&#45;&gt;Node4 -->
<g id="edge3" class="edge"><title>Node3&#45;&gt;Node4</title>
<path fill="none" stroke="midnightblue" d="M155.252,-314.711C159.86,-317.254 164.356,-320.336 168,-324 193.509,-349.65 177.317,-372.573 204,-397 208.509,-401.128 214.014,-404.396 219.685,-406.973"/>
<polygon fill="midnightblue" stroke="midnightblue" points="156.404,-311.382 145.872,-310.231 153.387,-317.699 156.404,-311.382"/>
</g>
<!-- Node5 -->
<g id="node5" class="node"><title>Node5</title>
<g id="a_node5"><a xlink:href="class_edit_sys_brightness.html" target="_top" xlink:title="Edit System Brightness. ">
<polygon fill="none" stroke="black" points="205.426,-370 205.426,-388 302.574,-388 302.574,-370 205.426,-370"/>
<text text-anchor="middle" x="254" y="-376" font-family="Helvetica,sans-Serif" font-size="10.00">EditSysBrightness</text>
</a>
</g>
</g>
<!-- Node3&#45;&gt;Node5 -->
<g id="edge4" class="edge"><title>Node3&#45;&gt;Node5</title>
<path fill="none" stroke="midnightblue" d="M154.86,-315.979C159.385,-318.377 163.95,-321.081 168,-324 186.356,-337.23 185.044,-347.644 204,-360 210.039,-363.936 217.016,-367.252 223.779,-369.956"/>
<polygon fill="midnightblue" stroke="midnightblue" points="156.325,-312.799 145.808,-311.514 153.229,-319.077 156.325,-312.799"/>
</g>
<!-- Node9 -->
<g id="node9" class="node"><title>Node9</title>
<g id="a_node9"><a xlink:href="class_edit_sys_long_press.html" target="_top" xlink:title="Edit System Long Press Setting. ">
<polygon fill="none" stroke="black" points="205.146,-333 205.146,-351 302.854,-351 302.854,-333 205.146,-333"/>
<text text-anchor="middle" x="254" y="-339" font-family="Helvetica,sans-Serif" font-size="10.00">EditSysLongPress</text>
</a>
</g>
</g>
<!-- Node3&#45;&gt;Node9 -->
<g id="edge8" class="edge"><title>Node3&#45;&gt;Node9</title>
<path fill="none" stroke="midnightblue" d="M155.546,-312.685C175.054,-318.553 202.002,-326.659 222.616,-332.86"/>
<polygon fill="midnightblue" stroke="midnightblue" points="156.413,-309.29 145.828,-309.761 154.396,-315.994 156.413,-309.29"/>
</g>
<!-- Node10 -->
<g id="node10" class="node"><title>Node10</title>
<g id="a_node10"><a xlink:href="class_edit_sys_short_press.html" target="_top" xlink:title="Edit System Short Press Setting. ">
<polygon fill="none" stroke="black" points="204.318,-296 204.318,-314 303.682,-314 303.682,-296 204.318,-296"/>
<text text-anchor="middle" x="254" y="-302" font-family="Helvetica,sans-Serif" font-size="10.00">EditSysShortPress</text>
</a>
</g>
</g>
<!-- Node3&#45;&gt;Node10 -->
<g id="edge9" class="edge"><title>Node3&#45;&gt;Node10</title>
<path fill="none" stroke="midnightblue" d="M156.173,-305C170.179,-305 187.884,-305 204.313,-305"/>
<polygon fill="midnightblue" stroke="midnightblue" points="155.828,-301.5 145.828,-305 155.828,-308.5 155.828,-301.5"/>
</g>
<!-- Node11 -->
<g id="node11" class="node"><title>Node11</title>
<g id="a_node11"><a xlink:href="class_edit_sys_units.html" target="_top" xlink:title="Edit System Units Setting. ">
<polygon fill="none" stroke="black" points="217.658,-259 217.658,-277 290.342,-277 290.342,-259 217.658,-259"/>
<text text-anchor="middle" x="254" y="-265" font-family="Helvetica,sans-Serif" font-size="10.00">EditSysUnits</text>
</a>
</g>
</g>
<!-- Node3&#45;&gt;Node11 -->
<g id="edge10" class="edge"><title>Node3&#45;&gt;Node11</title>
<path fill="none" stroke="midnightblue" d="M155.546,-297.315C175.054,-291.447 202.002,-283.341 222.616,-277.14"/>
<polygon fill="midnightblue" stroke="midnightblue" points="154.396,-294.006 145.828,-300.239 156.413,-300.71 154.396,-294.006"/>
</g>
<!-- Node6 -->
<g id="node6" class="node"><title>Node6</title>
<g id="a_node6"><a xlink:href="class_edit_sys_brightness_high.html" target="_top" xlink:title="Edit System High Brightness Class. ">
<polygon fill="none" stroke="black" points="340.143,-407 340.143,-425 457.857,-425 457.857,-407 340.143,-407"/>
<text text-anchor="middle" x="399" y="-413" font-family="Helvetica,sans-Serif" font-size="10.00">EditSysBrightnessHigh</text>
</a>
</g>
</g>
<!-- Node5&#45;&gt;Node6 -->
<g id="edge5" class="edge"><title>Node5&#45;&gt;Node6</title>
<path fill="none" stroke="midnightblue" d="M299.674,-390.559C320.047,-395.83 343.818,-401.981 362.884,-406.914"/>
<polygon fill="midnightblue" stroke="midnightblue" points="300.54,-387.168 289.982,-388.051 298.786,-393.945 300.54,-387.168"/>
</g>
<!-- Node7 -->
<g id="node7" class="node"><title>Node7</title>
<g id="a_node7"><a xlink:href="class_edit_sys_brightness_low.html" target="_top" xlink:title="Edit System Low Brightness Class. ">
<polygon fill="none" stroke="black" points="341.254,-370 341.254,-388 456.746,-388 456.746,-370 341.254,-370"/>
<text text-anchor="middle" x="399" y="-376" font-family="Helvetica,sans-Serif" font-size="10.00">EditSysBrightnessLow</text>
</a>
</g>
</g>
<!-- Node5&#45;&gt;Node7 -->
<g id="edge6" class="edge"><title>Node5&#45;&gt;Node7</title>
<path fill="none" stroke="midnightblue" d="M312.653,-379C322.052,-379 331.783,-379 341.162,-379"/>
<polygon fill="midnightblue" stroke="midnightblue" points="312.617,-375.5 302.617,-379 312.617,-382.5 312.617,-375.5"/>
</g>
<!-- Node8 -->
<g id="node8" class="node"><title>Node8</title>
<g id="a_node8"><a xlink:href="class_edit_sys_brightness_med.html" target="_top" xlink:title="Edit System Med Brightness Class. ">
<polygon fill="none" stroke="black" points="340.7,-333 340.7,-351 457.3,-351 457.3,-333 340.7,-333"/>
<text text-anchor="middle" x="399" y="-339" font-family="Helvetica,sans-Serif" font-size="10.00">EditSysBrightnessMed</text>
</a>
</g>
</g>
<!-- Node5&#45;&gt;Node8 -->
<g id="edge7" class="edge"><title>Node5&#45;&gt;Node8</title>
<path fill="none" stroke="midnightblue" d="M299.674,-367.441C320.047,-362.17 343.818,-356.019 362.884,-351.086"/>
<polygon fill="midnightblue" stroke="midnightblue" points="298.786,-364.055 289.982,-369.949 300.54,-370.832 298.786,-364.055"/>
</g>
<!-- Node13 -->
<g id="node13" class="node"><title>Node13</title>
<g id="a_node13"><a xlink:href="class_graph_bar.html" target="_top" xlink:title="Bar Graph Element. ">
<polygon fill="none" stroke="black" points="224.323,-222 224.323,-240 283.677,-240 283.677,-222 224.323,-222"/>
<text text-anchor="middle" x="254" y="-228" font-family="Helvetica,sans-Serif" font-size="10.00">GraphBar</text>
</a>
</g>
</g>
<!-- Node12&#45;&gt;Node13 -->
<g id="edge12" class="edge"><title>Node12&#45;&gt;Node13</title>
<path fill="none" stroke="midnightblue" d="M170.093,-206.061C187.697,-211.356 207.974,-217.456 224.068,-222.297"/>
<polygon fill="midnightblue" stroke="midnightblue" points="170.674,-202.58 160.089,-203.051 168.657,-209.284 170.674,-202.58"/>
</g>
<!-- Node14 -->
<g id="node14" class="node"><title>Node14</title>
<g id="a_node14"><a xlink:href="class_graph_line.html" target="_top" xlink:title="Line Graph Element. ">
<polygon fill="none" stroke="black" points="222.65,-185 222.65,-203 285.35,-203 285.35,-185 222.65,-185"/>
<text text-anchor="middle" x="254" y="-191" font-family="Helvetica,sans-Serif" font-size="10.00">GraphLine</text>
</a>
</g>
</g>
<!-- Node12&#45;&gt;Node14 -->
<g id="edge13" class="edge"><title>Node12&#45;&gt;Node14</title>
<path fill="none" stroke="midnightblue" d="M178.346,-194C193.254,-194 209.244,-194 222.586,-194"/>
<polygon fill="midnightblue" stroke="midnightblue" points="178.244,-190.5 168.244,-194 178.244,-197.5 178.244,-190.5"/>
</g>
<!-- Node16 -->
<g id="node16" class="node"><title>Node16</title>
<g id="a_node16"><a xlink:href="class_label_metric.html" target="_top" xlink:title="Label with Value Class. ">
<polygon fill="none" stroke="black" points="220.155,-148 220.155,-166 287.845,-166 287.845,-148 220.155,-148"/>
<text text-anchor="middle" x="254" y="-154" font-family="Helvetica,sans-Serif" font-size="10.00">LabelMetric</text>
</a>
</g>
</g>
<!-- Node15&#45;&gt;Node16 -->
<g id="edge15" class="edge"><title>Node15&#45;&gt;Node16</title>
<path fill="none" stroke="midnightblue" d="M159.498,-157C177.631,-157 200.908,-157 219.7,-157"/>
<polygon fill="midnightblue" stroke="midnightblue" points="159.49,-153.5 149.49,-157 159.49,-160.5 159.49,-153.5"/>
</g>
<!-- Node19 -->
<g id="node19" class="node"><title>Node19</title>
<g id="a_node19"><a xlink:href="class_list_item_callback.html" target="_top" xlink:title="List Item Callback Class. ">
<polygon fill="none" stroke="black" points="209.32,-111 209.32,-129 298.68,-129 298.68,-111 209.32,-111"/>
<text text-anchor="middle" x="254" y="-117" font-family="Helvetica,sans-Serif" font-size="10.00">ListItemCallback</text>
</a>
</g>
</g>
<!-- Node18&#45;&gt;Node19 -->
<g id="edge18" class="edge"><title>Node18&#45;&gt;Node19</title>
<path fill="none" stroke="midnightblue" d="M164.324,-93.3251C182.685,-98.8484 205.092,-105.589 222.788,-110.912"/>
<polygon fill="midnightblue" stroke="midnightblue" points="165.18,-89.9276 154.595,-90.3986 163.163,-96.6309 165.18,-89.9276"/>
</g>
<!-- Node20 -->
<g id="node20" class="node"><title>Node20</title>
<g id="a_node20"><a xlink:href="class_list_item_check.html" target="_top" xlink:title="List Item Check (for use in a checklist) ">
<polygon fill="none" stroke="black" points="214.323,-74 214.323,-92 293.677,-92 293.677,-74 214.323,-74"/>
<text text-anchor="middle" x="254" y="-80" font-family="Helvetica,sans-Serif" font-size="10.00">ListItemCheck</text>
</a>
</g>
</g>
<!-- Node18&#45;&gt;Node20 -->
<g id="edge19" class="edge"><title>Node18&#45;&gt;Node20</title>
<path fill="none" stroke="midnightblue" d="M164.704,-83C180.031,-83 198.119,-83 213.92,-83"/>
<polygon fill="midnightblue" stroke="midnightblue" points="164.595,-79.5001 154.595,-83 164.595,-86.5001 164.595,-79.5001"/>
</g>
<!-- Node21 -->
<g id="node21" class="node"><title>Node21</title>
<g id="a_node21"><a xlink:href="class_list_item_element.html" target="_top" xlink:title="List Item Element Class. ">
<polygon fill="none" stroke="black" points="210.153,-37 210.153,-55 297.847,-55 297.847,-37 210.153,-37"/>
<text text-anchor="middle" x="254" y="-43" font-family="Helvetica,sans-Serif" font-size="10.00">ListItemElement</text>
</a>
</g>
</g>
<!-- Node18&#45;&gt;Node21 -->
<g id="edge20" class="edge"><title>Node18&#45;&gt;Node21</title>
<path fill="none" stroke="midnightblue" d="M164.324,-72.6749C182.685,-67.1516 205.092,-60.4114 222.788,-55.0882"/>
<polygon fill="midnightblue" stroke="midnightblue" points="163.163,-69.3691 154.595,-75.6014 165.18,-76.0724 163.163,-69.3691"/>
</g>
<!-- Node22 -->
<g id="node22" class="node"><title>Node22</title>
<g id="a_node22"><a xlink:href="class_list_item_toggle.html" target="_top" xlink:title="Toggle Item. ">
<polygon fill="none" stroke="black" points="213.761,-0 213.761,-18 294.239,-18 294.239,-0 213.761,-0"/>
<text text-anchor="middle" x="254" y="-6" font-family="Helvetica,sans-Serif" font-size="10.00">ListItemToggle</text>
</a>
</g>
</g>
<!-- Node18&#45;&gt;Node22 -->
<g id="edge21" class="edge"><title>Node18&#45;&gt;Node22</title>
<path fill="none" stroke="midnightblue" d="M160.093,-69.1597C162.841,-67.54 165.52,-65.8136 168,-64 186.521,-50.4573 184.753,-39.4886 204,-27 209.474,-23.4483 215.745,-20.4705 221.931,-18.0249"/>
<polygon fill="midnightblue" stroke="midnightblue" points="158.374,-66.1102 151.242,-73.9453 161.703,-72.2678 158.374,-66.1102"/>
</g>
</g>
</svg>
