<?xml version="1.0" encoding="UTF-8" standalone="no"?>
<!DOCTYPE svg PUBLIC "-//W3C//DTD SVG 1.1//EN"
 "http://www.w3.org/Graphics/SVG/1.1/DTD/svg11.dtd">
<!-- Generated by graphviz version 2.36.0 (20140111.2315)
 -->
<!-- Title: Graphical Class Hierarchy Pages: 1 -->
<svg width="180pt" height="63pt"
 viewBox="0.00 0.00 180.00 63.00" xmlns="http://www.w3.org/2000/svg" xmlns:xlink="http://www.w3.org/1999/xlink">
<g id="graph0" class="graph" transform="scale(1 1) rotate(0) translate(4 59)">
<title>Graphical Class Hierarchy</title>
<!-- Node1 -->
<g id="node1" class="node"><title>Node1</title>
<g id="a_node1"><a xlink:href="class_app_controller.html" target="_top" xlink:title="Controller API. ">
<polygon fill="none" stroke="black" points="0.428711,-18 0.428711,-36 77.5713,-36 77.5713,-18 0.428711,-18"/>
<text text-anchor="middle" x="39" y="-24" font-family="Helvetica,sans-Serif" font-size="10.00">AppController</text>
</a>
</g>
</g>
<!-- Node2 -->
<g id="node2" class="node"><title>Node2</title>
<g id="a_node2"><a xlink:href="class_app.html" target="_top" xlink:title="App State Machine Class. ">
<polygon fill="none" stroke="black" points="126.104,-37 126.104,-55 159.896,-55 159.896,-37 126.104,-37"/>
<text text-anchor="middle" x="143" y="-43" font-family="Helvetica,sans-Serif" font-size="10.00">App</text>
</a>
</g>
</g>
<!-- Node1&#45;&gt;Node2 -->
<g id="edge1" class="edge"><title>Node1&#45;&gt;Node2</title>
<path fill="none" stroke="midnightblue" d="M87.6427,-35.8746C101.47,-38.4503 115.628,-41.0875 126.027,-43.0246"/>
<polygon fill="midnightblue" stroke="midnightblue" points="88.1631,-32.4114 77.6912,-34.0209 86.8812,-39.2931 88.1631,-32.4114"/>
</g>
<!-- Node3 -->
<g id="node3" class="node"><title>Node3</title>
<g id="a_node3"><a xlink:href="class_app_state.html" target="_top" xlink:title="App State (to be used in a State machine see App) ">
<polygon fill="none" stroke="black" points="114.429,-0 114.429,-18 171.571,-18 171.571,-0 114.429,-0"/>
<text text-anchor="middle" x="143" y="-6" font-family="Helvetica,sans-Serif" font-size="10.00">AppState</text>
</a>
</g>
</g>
<!-- Node1&#45;&gt;Node3 -->
<g id="edge2" class="edge"><title>Node1&#45;&gt;Node3</title>
<path fill="none" stroke="midnightblue" d="M87.5413,-18.6104C96.7254,-16.9896 106.06,-15.3424 114.346,-13.8801"/>
<polygon fill="midnightblue" stroke="midnightblue" points="86.9308,-15.1639 77.6912,-20.3486 88.1474,-22.0574 86.9308,-15.1639"/>
</g>
</g>
</svg>
