<?xml version="1.0" encoding="UTF-8" standalone="no"?>
<!DOCTYPE svg PUBLIC "-//W3C//DTD SVG 1.1//EN"
 "http://www.w3.org/Graphics/SVG/1.1/DTD/svg11.dtd">
<!-- Generated by graphviz version 2.36.0 (20140111.2315)
 -->
<!-- Title: Graphical Class Hierarchy Pages: 1 -->
<svg width="186pt" height="137pt"
 viewBox="0.00 0.00 186.00 137.00" xmlns="http://www.w3.org/2000/svg" xmlns:xlink="http://www.w3.org/1999/xlink">
<g id="graph0" class="graph" transform="scale(1 1) rotate(0) translate(4 133)">
<title>Graphical Class Hierarchy</title>
<!-- Node1 -->
<g id="node1" class="node"><title>Node1</title>
<g id="a_node1"><a xlink:href="class_list_item.html" target="_top" xlink:title="List Item Class. ">
<polygon fill="none" stroke="black" points="0.495117,-55 0.495117,-73 51.5049,-73 51.5049,-55 0.495117,-55"/>
<text text-anchor="middle" x="26" y="-61" font-family="Helvetica,sans-Serif" font-size="10.00">ListItem</text>
</a>
</g>
</g>
<!-- Node2 -->
<g id="node2" class="node"><title>Node2</title>
<g id="a_node2"><a xlink:href="class_list_item_callback.html" target="_top" xlink:title="List Item Callback Class. ">
<polygon fill="none" stroke="black" points="88.3203,-111 88.3203,-129 177.68,-129 177.68,-111 88.3203,-111"/>
<text text-anchor="middle" x="133" y="-117" font-family="Helvetica,sans-Serif" font-size="10.00">ListItemCallback</text>
</a>
</g>
</g>
<!-- Node1&#45;&gt;Node2 -->
<g id="edge1" class="edge"><title>Node1&#45;&gt;Node2</title>
<path fill="none" stroke="midnightblue" d="M49.1904,-78.4719C60.5778,-85.6365 74.7987,-94.1871 88,-101 94.8025,-104.511 102.398,-107.952 109.339,-110.92"/>
<polygon fill="midnightblue" stroke="midnightblue" points="51.0524,-75.5083 40.7389,-73.0829 47.2889,-81.4105 51.0524,-75.5083"/>
</g>
<!-- Node3 -->
<g id="node3" class="node"><title>Node3</title>
<g id="a_node3"><a xlink:href="class_list_item_check.html" target="_top" xlink:title="List Item Check (for use in a checklist) ">
<polygon fill="none" stroke="black" points="93.3228,-74 93.3228,-92 172.677,-92 172.677,-74 93.3228,-74"/>
<text text-anchor="middle" x="133" y="-80" font-family="Helvetica,sans-Serif" font-size="10.00">ListItemCheck</text>
</a>
</g>
</g>
<!-- Node1&#45;&gt;Node3 -->
<g id="edge2" class="edge"><title>Node1&#45;&gt;Node3</title>
<path fill="none" stroke="midnightblue" d="M61.6881,-70.2769C71.767,-72.1007 82.8395,-74.1043 93.1559,-75.9711"/>
<polygon fill="midnightblue" stroke="midnightblue" points="62.0813,-66.7913 51.6178,-68.4547 60.8348,-73.6794 62.0813,-66.7913"/>
</g>
<!-- Node4 -->
<g id="node4" class="node"><title>Node4</title>
<g id="a_node4"><a xlink:href="class_list_item_element.html" target="_top" xlink:title="List Item Element Class. ">
<polygon fill="none" stroke="black" points="89.1528,-37 89.1528,-55 176.847,-55 176.847,-37 89.1528,-37"/>
<text text-anchor="middle" x="133" y="-43" font-family="Helvetica,sans-Serif" font-size="10.00">ListItemElement</text>
</a>
</g>
</g>
<!-- Node1&#45;&gt;Node4 -->
<g id="edge3" class="edge"><title>Node1&#45;&gt;Node4</title>
<path fill="none" stroke="midnightblue" d="M61.5197,-58.0823C70.3136,-56.5748 79.8731,-54.936 89.0321,-53.3659"/>
<polygon fill="midnightblue" stroke="midnightblue" points="60.8827,-54.6404 51.6178,-59.7798 62.0655,-61.5398 60.8827,-54.6404"/>
</g>
<!-- Node5 -->
<g id="node5" class="node"><title>Node5</title>
<g id="a_node5"><a xlink:href="class_list_item_toggle.html" target="_top" xlink:title="Toggle Item. ">
<polygon fill="none" stroke="black" points="92.7612,-0 92.7612,-18 173.239,-18 173.239,-0 92.7612,-0"/>
<text text-anchor="middle" x="133" y="-6" font-family="Helvetica,sans-Serif" font-size="10.00">ListItemToggle</text>
</a>
</g>
</g>
<!-- Node1&#45;&gt;Node5 -->
<g id="edge4" class="edge"><title>Node1&#45;&gt;Node5</title>
<path fill="none" stroke="midnightblue" d="M50.025,-49.4858C61.2871,-42.6268 75.1546,-34.5314 88,-28 94.8236,-24.5305 102.425,-21.1008 109.365,-18.1304"/>
<polygon fill="midnightblue" stroke="midnightblue" points="47.9302,-46.6656 41.2572,-54.8949 51.6056,-52.6231 47.9302,-46.6656"/>
</g>
</g>
</svg>
