<?xml version="1.0" encoding="UTF-8" standalone="no"?>
<!DOCTYPE svg PUBLIC "-//W3C//DTD SVG 1.1//EN"
 "http://www.w3.org/Graphics/SVG/1.1/DTD/svg11.dtd">
<!-- Generated by graphviz version 2.36.0 (20140111.2315)
 -->
<!-- Title: Graphical Class Hierarchy Pages: 1 -->
<svg width="220pt" height="100pt"
 viewBox="0.00 0.00 220.00 100.00" xmlns="http://www.w3.org/2000/svg" xmlns:xlink="http://www.w3.org/1999/xlink">
<g id="graph0" class="graph" transform="scale(1 1) rotate(0) translate(4 96)">
<title>Graphical Class Hierarchy</title>
<!-- Node1 -->
<g id="node1" class="node"><title>Node1</title>
<g id="a_node1"><a xlink:href="class_progress_element.html" target="_top" xlink:title="Progress Class. ">
<polygon fill="none" stroke="black" points="0.650391,-37 0.650391,-55 93.3496,-55 93.3496,-37 0.650391,-37"/>
<text text-anchor="middle" x="47" y="-43" font-family="Helvetica,sans-Serif" font-size="10.00">ProgressElement</text>
</a>
</g>
</g>
<!-- Node2 -->
<g id="node2" class="node"><title>Node2</title>
<g id="a_node2"><a xlink:href="class_progress_arc.html" target="_top" xlink:title="Progress Arc Class. ">
<polygon fill="none" stroke="black" points="135.493,-74 135.493,-92 206.507,-92 206.507,-74 135.493,-74"/>
<text text-anchor="middle" x="171" y="-80" font-family="Helvetica,sans-Serif" font-size="10.00">ProgressArc</text>
</a>
</g>
</g>
<!-- Node1&#45;&gt;Node2 -->
<g id="edge1" class="edge"><title>Node1&#45;&gt;Node2</title>
<path fill="none" stroke="midnightblue" d="M87.5422,-57.9923C104.598,-63.1649 124.219,-69.1155 140.041,-73.914"/>
<polygon fill="midnightblue" stroke="midnightblue" points="88.43,-54.6042 77.8446,-55.0512 86.3983,-61.3029 88.43,-54.6042"/>
</g>
<!-- Node3 -->
<g id="node3" class="node"><title>Node3</title>
<g id="a_node3"><a xlink:href="class_progress_bar.html" target="_top" xlink:title="Progress Bar Class. ">
<polygon fill="none" stroke="black" points="135.212,-37 135.212,-55 206.788,-55 206.788,-37 135.212,-37"/>
<text text-anchor="middle" x="171" y="-43" font-family="Helvetica,sans-Serif" font-size="10.00">ProgressBar</text>
</a>
</g>
</g>
<!-- Node1&#45;&gt;Node3 -->
<g id="edge2" class="edge"><title>Node1&#45;&gt;Node3</title>
<path fill="none" stroke="midnightblue" d="M103.526,-46C114.173,-46 125.046,-46 134.83,-46"/>
<polygon fill="midnightblue" stroke="midnightblue" points="103.428,-42.5001 93.4283,-46 103.428,-49.5001 103.428,-42.5001"/>
</g>
<!-- Node4 -->
<g id="node4" class="node"><title>Node4</title>
<g id="a_node4"><a xlink:href="class_progress_circle.html" target="_top" xlink:title="Progress Circle Class. ">
<polygon fill="none" stroke="black" points="130.214,-0 130.214,-18 211.786,-18 211.786,-0 130.214,-0"/>
<text text-anchor="middle" x="171" y="-6" font-family="Helvetica,sans-Serif" font-size="10.00">ProgressCircle</text>
</a>
</g>
</g>
<!-- Node1&#45;&gt;Node4 -->
<g id="edge3" class="edge"><title>Node1&#45;&gt;Node4</title>
<path fill="none" stroke="midnightblue" d="M87.5422,-34.0077C104.598,-28.8351 124.219,-22.8845 140.041,-18.086"/>
<polygon fill="midnightblue" stroke="midnightblue" points="86.3983,-30.6971 77.8446,-36.9488 88.43,-37.3958 86.3983,-30.6971"/>
</g>
</g>
</svg>
