<?xml version="1.0" encoding="UTF-8" standalone="no"?>
<!DOCTYPE svg PUBLIC "-//W3C//DTD SVG 1.1//EN"
 "http://www.w3.org/Graphics/SVG/1.1/DTD/svg11.dtd">
<!-- Generated by graphviz version 2.36.0 (20140111.2315)
 -->
<!-- Title: Graphical Class Hierarchy Pages: 1 -->
<svg width="466pt" height="377pt"
 viewBox="0.00 0.00 466.00 377.00" xmlns="http://www.w3.org/2000/svg" xmlns:xlink="http://www.w3.org/1999/xlink">
<g id="graph0" class="graph" transform="scale(1 1) rotate(0) translate(4 373)">
<title>Graphical Class Hierarchy</title>
<!-- Node1 -->
<g id="node1" class="node"><title>Node1</title>
<g id="a_node1"><a xlink:href="class_element.html" target="_top" xlink:title="Element Class. ">
<polygon fill="none" stroke="black" points="0.657715,-92 0.657715,-110 53.3423,-110 53.3423,-92 0.657715,-92"/>
<text text-anchor="middle" x="27" y="-98" font-family="Helvetica,sans-Serif" font-size="10.00">Element</text>
</a>
</g>
</g>
<!-- Node2 -->
<g id="node2" class="node"><title>Node2</title>
<g id="a_node2"><a xlink:href="class_edit.html" target="_top" xlink:title="Edit Element. ">
<polygon fill="none" stroke="black" points="112.384,-258 112.384,-276 145.616,-276 145.616,-258 112.384,-258"/>
<text text-anchor="middle" x="129" y="-264" font-family="Helvetica,sans-Serif" font-size="10.00">Edit</text>
</a>
</g>
</g>
<!-- Node1&#45;&gt;Node2 -->
<g id="edge1" class="edge"><title>Node1&#45;&gt;Node2</title>
<path fill="none" stroke="midnightblue" d="M38.953,-119.182C60.2132,-154.474 106.388,-231.125 122.399,-257.703"/>
<polygon fill="midnightblue" stroke="midnightblue" points="41.8212,-117.16 33.663,-110.401 35.8251,-120.772 41.8212,-117.16"/>
</g>
<!-- Node11 -->
<g id="node11" class="node"><title>Node11</title>
<g id="a_node11"><a xlink:href="class_graph_1_1_object.html" target="_top" xlink:title="Abstract Graph Class. ">
<polygon fill="none" stroke="black" points="89.8745,-148 89.8745,-166 168.125,-166 168.125,-148 89.8745,-148"/>
<text text-anchor="middle" x="129" y="-154" font-family="Helvetica,sans-Serif" font-size="10.00">Graph::Object</text>
</a>
</g>
</g>
<!-- Node1&#45;&gt;Node11 -->
<g id="edge10" class="edge"><title>Node1&#45;&gt;Node11</title>
<path fill="none" stroke="midnightblue" d="M51.2095,-115.408C62.7527,-122.43 76.986,-130.876 90,-138 96.2112,-141.4 103.108,-144.922 109.302,-147.996"/>
<polygon fill="midnightblue" stroke="midnightblue" points="52.9585,-112.375 42.6034,-110.134 49.3008,-118.343 52.9585,-112.375"/>
</g>
<!-- Node14 -->
<g id="node14" class="node"><title>Node14</title>
<g id="a_node14"><a xlink:href="class_label.html" target="_top" xlink:title="Label Element. ">
<polygon fill="none" stroke="black" points="108.766,-111 108.766,-129 149.234,-129 149.234,-111 108.766,-111"/>
<text text-anchor="middle" x="129" y="-117" font-family="Helvetica,sans-Serif" font-size="10.00">Label</text>
</a>
</g>
</g>
<!-- Node1&#45;&gt;Node14 -->
<g id="edge13" class="edge"><title>Node1&#45;&gt;Node14</title>
<path fill="none" stroke="midnightblue" d="M63.5887,-107.762C78.7269,-110.638 95.7921,-113.88 108.552,-116.305"/>
<polygon fill="midnightblue" stroke="midnightblue" points="63.9706,-104.272 53.493,-105.844 62.6639,-111.149 63.9706,-104.272"/>
</g>
<!-- Node16 -->
<g id="node16" class="node"><title>Node16</title>
<g id="a_node16"><a xlink:href="class_list.html" target="_top" xlink:title="List Class. ">
<polygon fill="none" stroke="black" points="113.219,-74 113.219,-92 144.781,-92 144.781,-74 113.219,-74"/>
<text text-anchor="middle" x="129" y="-80" font-family="Helvetica,sans-Serif" font-size="10.00">List</text>
</a>
</g>
</g>
<!-- Node1&#45;&gt;Node16 -->
<g id="edge15" class="edge"><title>Node1&#45;&gt;Node16</title>
<path fill="none" stroke="midnightblue" d="M63.6891,-94.576C80.6916,-91.5155 100.105,-88.0211 113.114,-85.6794"/>
<polygon fill="midnightblue" stroke="midnightblue" points="62.7147,-91.195 53.493,-96.4113 63.9549,-98.0843 62.7147,-91.195"/>
</g>
<!-- Node17 -->
<g id="node17" class="node"><title>Node17</title>
<g id="a_node17"><a xlink:href="class_map.html" target="_top" xlink:title="Map Class (for mapping coords to display) ">
<polygon fill="none" stroke="black" points="111.273,-37 111.273,-55 146.727,-55 146.727,-37 111.273,-37"/>
<text text-anchor="middle" x="129" y="-43" font-family="Helvetica,sans-Serif" font-size="10.00">Map</text>
</a>
</g>
</g>
<!-- Node1&#45;&gt;Node17 -->
<g id="edge16" class="edge"><title>Node1&#45;&gt;Node17</title>
<path fill="none" stroke="midnightblue" d="M50.9142,-86.6124C62.4821,-79.5328 76.8237,-71.0316 90,-64 96.8267,-60.3569 104.515,-56.6447 111.181,-53.5452"/>
<polygon fill="midnightblue" stroke="midnightblue" points="48.9747,-83.6965 42.3069,-91.9301 52.6539,-89.6517 48.9747,-83.6965"/>
</g>
<!-- Node18 -->
<g id="node18" class="node"><title>Node18</title>
<g id="a_node18"><a xlink:href="class_text.html" target="_top" xlink:title="Text Box. ">
<polygon fill="none" stroke="black" points="111.83,-0 111.83,-18 146.17,-18 146.17,-0 111.83,-0"/>
<text text-anchor="middle" x="129" y="-6" font-family="Helvetica,sans-Serif" font-size="10.00">Text</text>
</a>
</g>
</g>
<!-- Node1&#45;&gt;Node18 -->
<g id="edge17" class="edge"><title>Node1&#45;&gt;Node18</title>
<path fill="none" stroke="midnightblue" d="M39.6319,-83.1035C50.936,-66.8105 69.3792,-42.9343 90,-27 96.4695,-22.0008 104.552,-17.9306 111.597,-14.9334"/>
<polygon fill="midnightblue" stroke="midnightblue" points="36.5231,-81.4537 33.8387,-91.7028 42.3286,-85.3648 36.5231,-81.4537"/>
</g>
<!-- Node3 -->
<g id="node3" class="node"><title>Node3</title>
<g id="a_node3"><a xlink:href="class_edit_setting_int.html" target="_top" xlink:title="Edit Integer Class. ">
<polygon fill="none" stroke="black" points="216.259,-351 216.259,-369 291.741,-369 291.741,-351 216.259,-351"/>
<text text-anchor="middle" x="254" y="-357" font-family="Helvetica,sans-Serif" font-size="10.00">EditSettingInt</text>
</a>
</g>
</g>
<!-- Node2&#45;&gt;Node3 -->
<g id="edge2" class="edge"><title>Node2&#45;&gt;Node3</title>
<path fill="none" stroke="midnightblue" d="M143.556,-284.217C157.288,-300.689 179.892,-325.286 204,-341 210.039,-344.936 217.016,-348.252 223.779,-350.956"/>
<polygon fill="midnightblue" stroke="midnightblue" points="146.249,-281.981 137.223,-276.434 140.819,-286.399 146.249,-281.981"/>
</g>
<!-- Node4 -->
<g id="node4" class="node"><title>Node4</title>
<g id="a_node4"><a xlink:href="class_edit_sys_brightness.html" target="_top" xlink:title="Edit System Brightness. ">
<polygon fill="none" stroke="black" points="205.426,-314 205.426,-332 302.574,-332 302.574,-314 205.426,-314"/>
<text text-anchor="middle" x="254" y="-320" font-family="Helvetica,sans-Serif" font-size="10.00">EditSysBrightness</text>
</a>
</g>
</g>
<!-- Node2&#45;&gt;Node4 -->
<g id="edge3" class="edge"><title>Node2&#45;&gt;Node4</title>
<path fill="none" stroke="midnightblue" d="M154.811,-280.135C169.05,-287.488 187.353,-296.63 204,-304 211.842,-307.472 220.532,-310.956 228.389,-313.975"/>
<polygon fill="midnightblue" stroke="midnightblue" points="156.16,-276.891 145.674,-275.374 152.925,-283.099 156.16,-276.891"/>
</g>
<!-- Node8 -->
<g id="node8" class="node"><title>Node8</title>
<g id="a_node8"><a xlink:href="class_edit_sys_long_press.html" target="_top" xlink:title="Edit System Long Press Setting. ">
<polygon fill="none" stroke="black" points="205.146,-277 205.146,-295 302.854,-295 302.854,-277 205.146,-277"/>
<text text-anchor="middle" x="254" y="-283" font-family="Helvetica,sans-Serif" font-size="10.00">EditSysLongPress</text>
</a>
</g>
</g>
<!-- Node2&#45;&gt;Node8 -->
<g id="edge7" class="edge"><title>Node2&#45;&gt;Node8</title>
<path fill="none" stroke="midnightblue" d="M155.9,-271.001C170.181,-273.207 188.369,-276.016 205.133,-278.606"/>
<polygon fill="midnightblue" stroke="midnightblue" points="156.245,-267.513 145.828,-269.445 155.177,-274.431 156.245,-267.513"/>
</g>
<!-- Node9 -->
<g id="node9" class="node"><title>Node9</title>
<g id="a_node9"><a xlink:href="class_edit_sys_short_press.html" target="_top" xlink:title="Edit System Short Press Setting. ">
<polygon fill="none" stroke="black" points="204.318,-240 204.318,-258 303.682,-258 303.682,-240 204.318,-240"/>
<text text-anchor="middle" x="254" y="-246" font-family="Helvetica,sans-Serif" font-size="10.00">EditSysShortPress</text>
</a>
</g>
</g>
<!-- Node2&#45;&gt;Node9 -->
<g id="edge8" class="edge"><title>Node2&#45;&gt;Node9</title>
<path fill="none" stroke="midnightblue" d="M155.758,-263.231C169.828,-261.171 187.721,-258.553 204.313,-256.125"/>
<polygon fill="midnightblue" stroke="midnightblue" points="155.216,-259.772 145.828,-264.684 156.23,-266.699 155.216,-259.772"/>
</g>
<!-- Node10 -->
<g id="node10" class="node"><title>Node10</title>
<g id="a_node10"><a xlink:href="class_edit_sys_units.html" target="_top" xlink:title="Edit System Units Setting. ">
<polygon fill="none" stroke="black" points="217.658,-203 217.658,-221 290.342,-221 290.342,-203 217.658,-203"/>
<text text-anchor="middle" x="254" y="-209" font-family="Helvetica,sans-Serif" font-size="10.00">EditSysUnits</text>
</a>
</g>
</g>
<!-- Node2&#45;&gt;Node10 -->
<g id="edge9" class="edge"><title>Node2&#45;&gt;Node10</title>
<path fill="none" stroke="midnightblue" d="M154.762,-253.751C168.984,-246.362 187.287,-237.221 204,-230 211.238,-226.873 219.215,-223.792 226.594,-221.088"/>
<polygon fill="midnightblue" stroke="midnightblue" points="152.864,-250.794 145.637,-258.542 156.118,-256.992 152.864,-250.794"/>
</g>
<!-- Node5 -->
<g id="node5" class="node"><title>Node5</title>
<g id="a_node5"><a xlink:href="class_edit_sys_brightness_high.html" target="_top" xlink:title="Edit System High Brightness Class. ">
<polygon fill="none" stroke="black" points="340.143,-351 340.143,-369 457.857,-369 457.857,-351 340.143,-351"/>
<text text-anchor="middle" x="399" y="-357" font-family="Helvetica,sans-Serif" font-size="10.00">EditSysBrightnessHigh</text>
</a>
</g>
</g>
<!-- Node4&#45;&gt;Node5 -->
<g id="edge4" class="edge"><title>Node4&#45;&gt;Node5</title>
<path fill="none" stroke="midnightblue" d="M299.674,-334.559C320.047,-339.83 343.818,-345.981 362.884,-350.914"/>
<polygon fill="midnightblue" stroke="midnightblue" points="300.54,-331.168 289.982,-332.051 298.786,-337.945 300.54,-331.168"/>
</g>
<!-- Node6 -->
<g id="node6" class="node"><title>Node6</title>
<g id="a_node6"><a xlink:href="class_edit_sys_brightness_low.html" target="_top" xlink:title="Edit System Low Brightness Class. ">
<polygon fill="none" stroke="black" points="341.254,-314 341.254,-332 456.746,-332 456.746,-314 341.254,-314"/>
<text text-anchor="middle" x="399" y="-320" font-family="Helvetica,sans-Serif" font-size="10.00">EditSysBrightnessLow</text>
</a>
</g>
</g>
<!-- Node4&#45;&gt;Node6 -->
<g id="edge5" class="edge"><title>Node4&#45;&gt;Node6</title>
<path fill="none" stroke="midnightblue" d="M312.653,-323C322.052,-323 331.783,-323 341.162,-323"/>
<polygon fill="midnightblue" stroke="midnightblue" points="312.617,-319.5 302.617,-323 312.617,-326.5 312.617,-319.5"/>
</g>
<!-- Node7 -->
<g id="node7" class="node"><title>Node7</title>
<g id="a_node7"><a xlink:href="class_edit_sys_brightness_med.html" target="_top" xlink:title="Edit System Med Brightness Class. ">
<polygon fill="none" stroke="black" points="340.7,-277 340.7,-295 457.3,-295 457.3,-277 340.7,-277"/>
<text text-anchor="middle" x="399" y="-283" font-family="Helvetica,sans-Serif" font-size="10.00">EditSysBrightnessMed</text>
</a>
</g>
</g>
<!-- Node4&#45;&gt;Node7 -->
<g id="edge6" class="edge"><title>Node4&#45;&gt;Node7</title>
<path fill="none" stroke="midnightblue" d="M299.674,-311.441C320.047,-306.17 343.818,-300.019 362.884,-295.086"/>
<polygon fill="midnightblue" stroke="midnightblue" points="298.786,-308.055 289.982,-313.949 300.54,-314.832 298.786,-308.055"/>
</g>
<!-- Node12 -->
<g id="node12" class="node"><title>Node12</title>
<g id="a_node12"><a xlink:href="class_graph_bar.html" target="_top" xlink:title="Bar Graph Element. ">
<polygon fill="none" stroke="black" points="224.323,-166 224.323,-184 283.677,-184 283.677,-166 224.323,-166"/>
<text text-anchor="middle" x="254" y="-172" font-family="Helvetica,sans-Serif" font-size="10.00">GraphBar</text>
</a>
</g>
</g>
<!-- Node11&#45;&gt;Node12 -->
<g id="edge11" class="edge"><title>Node11&#45;&gt;Node12</title>
<path fill="none" stroke="midnightblue" d="M178.235,-164.059C193.766,-166.332 210.483,-168.778 224.162,-170.78"/>
<polygon fill="midnightblue" stroke="midnightblue" points="178.645,-160.582 168.244,-162.597 177.632,-167.508 178.645,-160.582"/>
</g>
<!-- Node13 -->
<g id="node13" class="node"><title>Node13</title>
<g id="a_node13"><a xlink:href="class_graph_line.html" target="_top" xlink:title="Line Graph Element. ">
<polygon fill="none" stroke="black" points="222.65,-129 222.65,-147 285.35,-147 285.35,-129 222.65,-129"/>
<text text-anchor="middle" x="254" y="-135" font-family="Helvetica,sans-Serif" font-size="10.00">GraphLine</text>
</a>
</g>
</g>
<!-- Node11&#45;&gt;Node13 -->
<g id="edge12" class="edge"><title>Node11&#45;&gt;Node13</title>
<path fill="none" stroke="midnightblue" d="M178.346,-149.532C193.254,-147.229 209.244,-144.759 222.586,-142.698"/>
<polygon fill="midnightblue" stroke="midnightblue" points="177.592,-146.107 168.244,-151.092 178.661,-153.025 177.592,-146.107"/>
</g>
<!-- Node15 -->
<g id="node15" class="node"><title>Node15</title>
<g id="a_node15"><a xlink:href="class_label_metric.html" target="_top" xlink:title="Label with Value Class. ">
<polygon fill="none" stroke="black" points="220.155,-92 220.155,-110 287.845,-110 287.845,-92 220.155,-92"/>
<text text-anchor="middle" x="254" y="-98" font-family="Helvetica,sans-Serif" font-size="10.00">LabelMetric</text>
</a>
</g>
</g>
<!-- Node14&#45;&gt;Node15 -->
<g id="edge14" class="edge"><title>Node14&#45;&gt;Node15</title>
<path fill="none" stroke="midnightblue" d="M159.498,-115.443C177.631,-112.642 200.908,-109.047 219.7,-106.144"/>
<polygon fill="midnightblue" stroke="midnightblue" points="158.838,-112.004 149.49,-116.989 159.907,-118.922 158.838,-112.004"/>
</g>
</g>
</svg>
