<?xml version="1.0" encoding="UTF-8" standalone="no"?>
<!DOCTYPE svg PUBLIC "-//W3C//DTD SVG 1.1//EN"
 "http://www.w3.org/Graphics/SVG/1.1/DTD/svg11.dtd">
<!-- Generated by graphviz version 2.36.0 (20140111.2315)
 -->
<!-- Title: Graphical Class Hierarchy Pages: 1 -->
<svg width="510pt" height="657pt"
 viewBox="0.00 0.00 510.00 657.00" xmlns="http://www.w3.org/2000/svg" xmlns:xlink="http://www.w3.org/1999/xlink">
<g id="graph0" class="graph" transform="scale(1 1) rotate(0) translate(4 653)">
<title>Graphical Class Hierarchy</title>
<!-- Node1 -->
<g id="node1" class="node"><title>Node1</title>
<g id="a_node1"><a xlink:href="class_app_controller.html" target="_top" xlink:title="Controller API. ">
<polygon fill="none" stroke="black" points="0.428711,-594 0.428711,-612 77.5713,-612 77.5713,-594 0.428711,-594"/>
<text text-anchor="middle" x="39" y="-600" font-family="Helvetica,sans-Serif" font-size="10.00">AppController</text>
</a>
</g>
</g>
<!-- Node2 -->
<g id="node2" class="node"><title>Node2</title>
<g id="a_node2"><a xlink:href="class_app.html" target="_top" xlink:title="App State Machine Class. ">
<polygon fill="none" stroke="black" points="144.104,-631 144.104,-649 177.896,-649 177.896,-631 144.104,-631"/>
<text text-anchor="middle" x="161" y="-637" font-family="Helvetica,sans-Serif" font-size="10.00">App</text>
</a>
</g>
</g>
<!-- Node1&#45;&gt;Node2 -->
<g id="edge1" class="edge"><title>Node1&#45;&gt;Node2</title>
<path fill="none" stroke="midnightblue" d="M79.1012,-615.056C101.077,-621.832 127.327,-629.926 143.835,-635.016"/>
<polygon fill="midnightblue" stroke="midnightblue" points="79.9427,-611.653 69.3553,-612.051 77.8801,-618.342 79.9427,-611.653"/>
</g>
<!-- Node3 -->
<g id="node3" class="node"><title>Node3</title>
<g id="a_node3"><a xlink:href="class_app_state.html" target="_top" xlink:title="App State (to be used in a State machine see App) ">
<polygon fill="none" stroke="black" points="132.429,-594 132.429,-612 189.571,-612 189.571,-594 132.429,-594"/>
<text text-anchor="middle" x="161" y="-600" font-family="Helvetica,sans-Serif" font-size="10.00">AppState</text>
</a>
</g>
</g>
<!-- Node1&#45;&gt;Node3 -->
<g id="edge2" class="edge"><title>Node1&#45;&gt;Node3</title>
<path fill="none" stroke="midnightblue" d="M87.8855,-603C103.004,-603 119.194,-603 132.395,-603"/>
<polygon fill="midnightblue" stroke="midnightblue" points="87.6395,-599.5 77.6395,-603 87.6395,-606.5 87.6395,-599.5"/>
</g>
<!-- Node4 -->
<g id="node4" class="node"><title>Node4</title>
<g id="a_node4"><a xlink:href="class_screen.html" target="_top" xlink:title="Screen Class. ">
<polygon fill="none" stroke="black" points="137.158,-557 137.158,-575 184.842,-575 184.842,-557 137.158,-557"/>
<text text-anchor="middle" x="161" y="-563" font-family="Helvetica,sans-Serif" font-size="10.00">Screen</text>
</a>
</g>
</g>
<!-- Node1&#45;&gt;Node4 -->
<g id="edge3" class="edge"><title>Node1&#45;&gt;Node4</title>
<path fill="none" stroke="midnightblue" d="M79.0204,-590.969C98.165,-585.066 120.57,-578.158 136.954,-573.106"/>
<polygon fill="midnightblue" stroke="midnightblue" points="77.8801,-587.658 69.3553,-593.949 79.9427,-594.347 77.8801,-587.658"/>
</g>
<!-- Node5 -->
<g id="node5" class="node"><title>Node5</title>
<g id="a_node5"><a xlink:href="class_map.html" target="_top" xlink:title="Map Class (for mapping coords to display) ">
<polygon fill="none" stroke="black" points="278.273,-592 278.273,-610 313.727,-610 313.727,-592 278.273,-592"/>
<text text-anchor="middle" x="296" y="-598" font-family="Helvetica,sans-Serif" font-size="10.00">Map</text>
</a>
</g>
</g>
<!-- Node4&#45;&gt;Node5 -->
<g id="edge4" class="edge"><title>Node4&#45;&gt;Node5</title>
<path fill="none" stroke="midnightblue" d="M194.78,-574.626C221.099,-581.552 256.999,-591 277.921,-596.505"/>
<polygon fill="midnightblue" stroke="midnightblue" points="195.425,-571.177 184.864,-572.017 193.644,-577.946 195.425,-571.177"/>
</g>
<!-- Node6 -->
<g id="node6" class="node"><title>Node6</title>
<g id="a_node6"><a xlink:href="class_element.html" target="_top" xlink:title="Element Class. ">
<polygon fill="none" stroke="black" points="12.6577,-266 12.6577,-284 65.3423,-284 65.3423,-266 12.6577,-266"/>
<text text-anchor="middle" x="39" y="-272" font-family="Helvetica,sans-Serif" font-size="10.00">Element</text>
</a>
</g>
</g>
<!-- Node6&#45;&gt;Node4 -->
<g id="edge35" class="edge"><title>Node6&#45;&gt;Node4</title>
<path fill="none" stroke="midnightblue" d="M43.4208,-294.034C51.378,-335.322 73.5953,-435.397 114,-510 123.946,-528.365 140.335,-546.459 150.629,-556.912"/>
<polygon fill="midnightblue" stroke="midnightblue" points="46.8267,-293.206 41.5513,-284.018 39.9455,-294.49 46.8267,-293.206"/>
</g>
<!-- Node7 -->
<g id="node7" class="node"><title>Node7</title>
<g id="a_node7"><a xlink:href="class_button_bar.html" target="_top" xlink:title="Button Bar. ">
<polygon fill="none" stroke="black" points="130.764,-483 130.764,-501 191.236,-501 191.236,-483 130.764,-483"/>
<text text-anchor="middle" x="161" y="-489" font-family="Helvetica,sans-Serif" font-size="10.00">ButtonBar</text>
</a>
</g>
</g>
<!-- Node6&#45;&gt;Node7 -->
<g id="edge5" class="edge"><title>Node6&#45;&gt;Node7</title>
<path fill="none" stroke="midnightblue" d="M42.0768,-294.196C47.2456,-332.979 64.0937,-421.365 114,-473 118.564,-477.722 124.472,-481.315 130.524,-484.033"/>
<polygon fill="midnightblue" stroke="midnightblue" points="45.5482,-293.748 40.8669,-284.244 38.5994,-294.593 45.5482,-293.748"/>
</g>
<!-- Node8 -->
<g id="node8" class="node"><title>Node8</title>
<g id="a_node8"><a xlink:href="class_edit.html" target="_top" xlink:title="Edit Element. ">
<polygon fill="none" stroke="black" points="144.384,-446 144.384,-464 177.616,-464 177.616,-446 144.384,-446"/>
<text text-anchor="middle" x="161" y="-452" font-family="Helvetica,sans-Serif" font-size="10.00">Edit</text>
</a>
</g>
</g>
<!-- Node6&#45;&gt;Node8 -->
<g id="edge6" class="edge"><title>Node6&#45;&gt;Node8</title>
<path fill="none" stroke="midnightblue" d="M44.7628,-294.111C53.5673,-326.022 75.1315,-390.627 114,-431 122.371,-439.695 134.582,-445.864 144.32,-449.768"/>
<polygon fill="midnightblue" stroke="midnightblue" points="48.1051,-293.059 42.1732,-284.28 41.336,-294.842 48.1051,-293.059"/>
</g>
<!-- Node16 -->
<g id="node16" class="node"><title>Node16</title>
<g id="a_node16"><a xlink:href="class_gfx.html" target="_top" xlink:title="Gfx Class. ">
<polygon fill="none" stroke="black" points="145.222,-404 145.222,-422 176.778,-422 176.778,-404 145.222,-404"/>
<text text-anchor="middle" x="161" y="-410" font-family="Helvetica,sans-Serif" font-size="10.00">Gfx</text>
</a>
</g>
</g>
<!-- Node6&#45;&gt;Node16 -->
<g id="edge14" class="edge"><title>Node6&#45;&gt;Node16</title>
<path fill="none" stroke="midnightblue" d="M47.1462,-293.431C57.9859,-319.187 80.8873,-365.935 114,-394 122.964,-401.598 135.387,-406.485 145.063,-409.398"/>
<polygon fill="midnightblue" stroke="midnightblue" points="50.3578,-292.037 43.3576,-284.084 43.8705,-294.666 50.3578,-292.037"/>
</g>
<!-- Node17 -->
<g id="node17" class="node"><title>Node17</title>
<g id="a_node17"><a xlink:href="class_graph_1_1_object.html" target="_top" xlink:title="Abstract Graph Class. ">
<polygon fill="none" stroke="black" points="121.875,-367 121.875,-385 200.125,-385 200.125,-367 121.875,-367"/>
<text text-anchor="middle" x="161" y="-373" font-family="Helvetica,sans-Serif" font-size="10.00">Graph::Object</text>
</a>
</g>
</g>
<!-- Node6&#45;&gt;Node17 -->
<g id="edge15" class="edge"><title>Node6&#45;&gt;Node17</title>
<path fill="none" stroke="midnightblue" d="M55.1003,-292.011C69.3998,-307.585 91.9131,-330.763 114,-348 122.992,-355.017 133.86,-361.706 142.775,-366.784"/>
<polygon fill="midnightblue" stroke="midnightblue" points="57.3612,-289.293 48.056,-284.227 52.171,-293.99 57.3612,-289.293"/>
</g>
<!-- Node20 -->
<g id="node20" class="node"><title>Node20</title>
<g id="a_node20"><a xlink:href="class_label.html" target="_top" xlink:title="Label Element. ">
<polygon fill="none" stroke="black" points="140.766,-321 140.766,-339 181.234,-339 181.234,-321 140.766,-321"/>
<text text-anchor="middle" x="161" y="-327" font-family="Helvetica,sans-Serif" font-size="10.00">Label</text>
</a>
</g>
</g>
<!-- Node6&#45;&gt;Node20 -->
<g id="edge18" class="edge"><title>Node6&#45;&gt;Node20</title>
<path fill="none" stroke="midnightblue" d="M69.0934,-288.334C91.2726,-298.5 121.202,-312.218 140.553,-321.087"/>
<polygon fill="midnightblue" stroke="midnightblue" points="70.3645,-285.067 59.8156,-284.082 67.4479,-291.43 70.3645,-285.067"/>
</g>
<!-- Node22 -->
<g id="node22" class="node"><title>Node22</title>
<g id="a_node22"><a xlink:href="class_list.html" target="_top" xlink:title="List Class. ">
<polygon fill="none" stroke="black" points="145.219,-266 145.219,-284 176.781,-284 176.781,-266 145.219,-266"/>
<text text-anchor="middle" x="161" y="-272" font-family="Helvetica,sans-Serif" font-size="10.00">List</text>
</a>
</g>
</g>
<!-- Node6&#45;&gt;Node22 -->
<g id="edge20" class="edge"><title>Node6&#45;&gt;Node22</title>
<path fill="none" stroke="midnightblue" d="M75.6372,-275C98.8474,-275 127.916,-275 145.165,-275"/>
<polygon fill="midnightblue" stroke="midnightblue" points="75.4489,-271.5 65.4489,-275 75.4489,-278.5 75.4489,-271.5"/>
</g>
<!-- Node25 -->
<g id="node25" class="node"><title>Node25</title>
<g id="a_node25"><a xlink:href="class_list_item.html" target="_top" xlink:title="List Item Class. ">
<polygon fill="none" stroke="black" points="135.495,-222 135.495,-240 186.505,-240 186.505,-222 135.495,-222"/>
<text text-anchor="middle" x="161" y="-228" font-family="Helvetica,sans-Serif" font-size="10.00">ListItem</text>
</a>
</g>
</g>
<!-- Node6&#45;&gt;Node25 -->
<g id="edge23" class="edge"><title>Node6&#45;&gt;Node25</title>
<path fill="none" stroke="midnightblue" d="M74.0489,-262.515C93.6193,-255.34 117.752,-246.491 135.46,-239.998"/>
<polygon fill="midnightblue" stroke="midnightblue" points="72.7572,-259.261 64.5734,-265.99 75.167,-265.833 72.7572,-259.261"/>
</g>
<!-- Node30 -->
<g id="node30" class="node"><title>Node30</title>
<g id="a_node30"><a xlink:href="class_morse_input.html" target="_top" xlink:title="Morse Input Class. ">
<polygon fill="none" stroke="black" points="127.988,-185 127.988,-203 194.012,-203 194.012,-185 127.988,-185"/>
<text text-anchor="middle" x="161" y="-191" font-family="Helvetica,sans-Serif" font-size="10.00">MorseInput</text>
</a>
</g>
</g>
<!-- Node6&#45;&gt;Node30 -->
<g id="edge28" class="edge"><title>Node6&#45;&gt;Node30</title>
<path fill="none" stroke="midnightblue" d="M56.2508,-258.354C70.4728,-244.511 92.2134,-225.034 114,-212 119.74,-208.566 126.253,-205.553 132.534,-203.024"/>
<polygon fill="midnightblue" stroke="midnightblue" points="53.4245,-256.228 48.8025,-265.762 58.3608,-261.192 53.4245,-256.228"/>
</g>
<!-- Node31 -->
<g id="node31" class="node"><title>Node31</title>
<g id="a_node31"><a xlink:href="class_panel.html" target="_top" xlink:title="Panel Class. ">
<polygon fill="none" stroke="black" points="140.212,-148 140.212,-166 181.788,-166 181.788,-148 140.212,-148"/>
<text text-anchor="middle" x="161" y="-154" font-family="Helvetica,sans-Serif" font-size="10.00">Panel</text>
</a>
</g>
</g>
<!-- Node6&#45;&gt;Node31 -->
<g id="edge29" class="edge"><title>Node6&#45;&gt;Node31</title>
<path fill="none" stroke="midnightblue" d="M49.2085,-256.945C61.318,-234.831 84.5536,-197.542 114,-175 121.627,-169.162 131.385,-164.987 139.949,-162.137"/>
<polygon fill="midnightblue" stroke="midnightblue" points="46.0368,-255.455 44.4452,-265.93 52.2215,-258.734 46.0368,-255.455"/>
</g>
<!-- Node32 -->
<g id="node32" class="node"><title>Node32</title>
<g id="a_node32"><a xlink:href="class_progress_element.html" target="_top" xlink:title="Progress Class. ">
<polygon fill="none" stroke="black" points="114.65,-92 114.65,-110 207.35,-110 207.35,-92 114.65,-92"/>
<text text-anchor="middle" x="161" y="-98" font-family="Helvetica,sans-Serif" font-size="10.00">ProgressElement</text>
</a>
</g>
</g>
<!-- Node6&#45;&gt;Node32 -->
<g id="edge30" class="edge"><title>Node6&#45;&gt;Node32</title>
<path fill="none" stroke="midnightblue" d="M47.2757,-256.285C58.6695,-228.504 82.6958,-175.596 114,-138 123.181,-126.973 136.078,-116.941 145.88,-110.114"/>
<polygon fill="midnightblue" stroke="midnightblue" points="43.8837,-255.341 43.4186,-265.925 50.3829,-257.941 43.8837,-255.341"/>
</g>
<!-- Node36 -->
<g id="node36" class="node"><title>Node36</title>
<g id="a_node36"><a xlink:href="class_rect.html" target="_top" xlink:title="Rect Class. ">
<polygon fill="none" stroke="black" points="142.719,-55 142.719,-73 179.281,-73 179.281,-55 142.719,-55"/>
<text text-anchor="middle" x="161" y="-61" font-family="Helvetica,sans-Serif" font-size="10.00">Rect</text>
</a>
</g>
</g>
<!-- Node6&#45;&gt;Node36 -->
<g id="edge34" class="edge"><title>Node6&#45;&gt;Node36</title>
<path fill="none" stroke="midnightblue" d="M42.216,-255.713C47.5917,-217.505 64.7285,-131.611 114,-82 121.614,-74.3332 132.877,-69.853 142.352,-67.2798"/>
<polygon fill="midnightblue" stroke="midnightblue" points="38.7041,-255.583 40.9027,-265.947 45.6472,-256.474 38.7041,-255.583"/>
</g>
<!-- Node37 -->
<g id="node37" class="node"><title>Node37</title>
<g id="a_node37"><a xlink:href="class_text.html" target="_top" xlink:title="Text Box. ">
<polygon fill="none" stroke="black" points="143.83,-18 143.83,-36 178.17,-36 178.17,-18 143.83,-18"/>
<text text-anchor="middle" x="161" y="-24" font-family="Helvetica,sans-Serif" font-size="10.00">Text</text>
</a>
</g>
</g>
<!-- Node6&#45;&gt;Node37 -->
<g id="edge36" class="edge"><title>Node6&#45;&gt;Node37</title>
<path fill="none" stroke="midnightblue" d="M40.8197,-255.648C43.6789,-212.246 56.5034,-106.159 114,-45 121.754,-36.7524 133.741,-32.2245 143.535,-29.7732"/>
<polygon fill="midnightblue" stroke="midnightblue" points="37.3212,-255.528 40.2672,-265.705 44.3106,-255.912 37.3212,-255.528"/>
</g>
<!-- Node9 -->
<g id="node9" class="node"><title>Node9</title>
<g id="a_node9"><a xlink:href="class_edit_setting_int.html" target="_top" xlink:title="Edit Integer Class. ">
<polygon fill="none" stroke="black" points="258.259,-555 258.259,-573 333.741,-573 333.741,-555 258.259,-555"/>
<text text-anchor="middle" x="296" y="-561" font-family="Helvetica,sans-Serif" font-size="10.00">EditSettingInt</text>
</a>
</g>
</g>
<!-- Node8&#45;&gt;Node9 -->
<g id="edge7" class="edge"><title>Node8&#45;&gt;Node9</title>
<path fill="none" stroke="midnightblue" d="M187.562,-461.873C194.789,-464.737 202.245,-468.675 208,-474 233.969,-498.029 217.614,-521.43 244,-545 248.58,-549.091 254.123,-552.33 259.843,-554.885"/>
<polygon fill="midnightblue" stroke="midnightblue" points="188.624,-458.537 178.03,-458.603 186.353,-465.158 188.624,-458.537"/>
</g>
<!-- Node10 -->
<g id="node10" class="node"><title>Node10</title>
<g id="a_node10"><a xlink:href="class_edit_sys_brightness.html" target="_top" xlink:title="Edit System Brightness. ">
<polygon fill="none" stroke="black" points="247.426,-518 247.426,-536 344.574,-536 344.574,-518 247.426,-518"/>
<text text-anchor="middle" x="296" y="-524" font-family="Helvetica,sans-Serif" font-size="10.00">EditSysBrightness</text>
</a>
</g>
</g>
<!-- Node8&#45;&gt;Node10 -->
<g id="edge8" class="edge"><title>Node8&#45;&gt;Node10</title>
<path fill="none" stroke="midnightblue" d="M187.66,-463.668C194.523,-466.495 201.761,-469.963 208,-474 226.478,-485.955 225.316,-496.371 244,-508 250.337,-511.944 257.62,-515.264 264.661,-517.968"/>
<polygon fill="midnightblue" stroke="midnightblue" points="188.626,-460.29 178.036,-459.994 186.13,-466.83 188.626,-460.29"/>
</g>
<!-- Node14 -->
<g id="node14" class="node"><title>Node14</title>
<g id="a_node14"><a xlink:href="class_edit_sys_morse_delay.html" target="_top" xlink:title="Edit Morse Delay. ">
<polygon fill="none" stroke="black" points="244.375,-481 244.375,-499 347.625,-499 347.625,-481 244.375,-481"/>
<text text-anchor="middle" x="296" y="-487" font-family="Helvetica,sans-Serif" font-size="10.00">EditSysMorseDelay</text>
</a>
</g>
</g>
<!-- Node8&#45;&gt;Node14 -->
<g id="edge12" class="edge"><title>Node8&#45;&gt;Node14</title>
<path fill="none" stroke="midnightblue" d="M187.479,-461.705C208.242,-467.169 237.761,-474.937 260.618,-480.952"/>
<polygon fill="midnightblue" stroke="midnightblue" points="188.341,-458.313 177.779,-459.152 186.559,-465.082 188.341,-458.313"/>
</g>
<!-- Node15 -->
<g id="node15" class="node"><title>Node15</title>
<g id="a_node15"><a xlink:href="class_edit_sys_units.html" target="_top" xlink:title="Edit System Units Setting. ">
<polygon fill="none" stroke="black" points="259.658,-444 259.658,-462 332.342,-462 332.342,-444 259.658,-444"/>
<text text-anchor="middle" x="296" y="-450" font-family="Helvetica,sans-Serif" font-size="10.00">EditSysUnits</text>
</a>
</g>
</g>
<!-- Node8&#45;&gt;Node15 -->
<g id="edge13" class="edge"><title>Node8&#45;&gt;Node15</title>
<path fill="none" stroke="midnightblue" d="M187.899,-454.611C208.308,-454.304 236.983,-453.872 259.526,-453.533"/>
<polygon fill="midnightblue" stroke="midnightblue" points="187.725,-451.113 177.779,-454.763 187.831,-458.112 187.725,-451.113"/>
</g>
<!-- Node11 -->
<g id="node11" class="node"><title>Node11</title>
<g id="a_node11"><a xlink:href="class_edit_sys_brightness_high.html" target="_top" xlink:title="Edit System High Brightness Class. ">
<polygon fill="none" stroke="black" points="384.143,-555 384.143,-573 501.857,-573 501.857,-555 384.143,-555"/>
<text text-anchor="middle" x="443" y="-561" font-family="Helvetica,sans-Serif" font-size="10.00">EditSysBrightnessHigh</text>
</a>
</g>
</g>
<!-- Node10&#45;&gt;Node11 -->
<g id="edge9" class="edge"><title>Node10&#45;&gt;Node11</title>
<path fill="none" stroke="midnightblue" d="M342.337,-538.569C363.076,-543.861 387.281,-550.037 406.644,-554.978"/>
<polygon fill="midnightblue" stroke="midnightblue" points="343.026,-535.132 332.471,-536.051 341.295,-541.915 343.026,-535.132"/>
</g>
<!-- Node12 -->
<g id="node12" class="node"><title>Node12</title>
<g id="a_node12"><a xlink:href="class_edit_sys_brightness_low.html" target="_top" xlink:title="Edit System Low Brightness Class. ">
<polygon fill="none" stroke="black" points="385.254,-518 385.254,-536 500.746,-536 500.746,-518 385.254,-518"/>
<text text-anchor="middle" x="443" y="-524" font-family="Helvetica,sans-Serif" font-size="10.00">EditSysBrightnessLow</text>
</a>
</g>
</g>
<!-- Node10&#45;&gt;Node12 -->
<g id="edge10" class="edge"><title>Node10&#45;&gt;Node12</title>
<path fill="none" stroke="midnightblue" d="M355.035,-527C364.941,-527 375.222,-527 385.099,-527"/>
<polygon fill="midnightblue" stroke="midnightblue" points="354.88,-523.5 344.88,-527 354.88,-530.5 354.88,-523.5"/>
</g>
<!-- Node13 -->
<g id="node13" class="node"><title>Node13</title>
<g id="a_node13"><a xlink:href="class_edit_sys_brightness_med.html" target="_top" xlink:title="Edit System Med Brightness Class. ">
<polygon fill="none" stroke="black" points="384.7,-481 384.7,-499 501.3,-499 501.3,-481 384.7,-481"/>
<text text-anchor="middle" x="443" y="-487" font-family="Helvetica,sans-Serif" font-size="10.00">EditSysBrightnessMed</text>
</a>
</g>
</g>
<!-- Node10&#45;&gt;Node13 -->
<g id="edge11" class="edge"><title>Node10&#45;&gt;Node13</title>
<path fill="none" stroke="midnightblue" d="M342.337,-515.431C363.076,-510.139 387.281,-503.963 406.644,-499.022"/>
<polygon fill="midnightblue" stroke="midnightblue" points="341.295,-512.085 332.471,-517.949 343.026,-518.868 341.295,-512.085"/>
</g>
<!-- Node18 -->
<g id="node18" class="node"><title>Node18</title>
<g id="a_node18"><a xlink:href="class_graph_bar.html" target="_top" xlink:title="Bar Graph Element. ">
<polygon fill="none" stroke="black" points="266.323,-407 266.323,-425 325.677,-425 325.677,-407 266.323,-407"/>
<text text-anchor="middle" x="296" y="-413" font-family="Helvetica,sans-Serif" font-size="10.00">GraphBar</text>
</a>
</g>
</g>
<!-- Node17&#45;&gt;Node18 -->
<g id="edge16" class="edge"><title>Node17&#45;&gt;Node18</title>
<path fill="none" stroke="midnightblue" d="M201.975,-388.023C222.692,-394.253 247.515,-401.719 266.307,-407.371"/>
<polygon fill="midnightblue" stroke="midnightblue" points="202.764,-384.605 192.18,-385.077 200.748,-391.308 202.764,-384.605"/>
</g>
<!-- Node19 -->
<g id="node19" class="node"><title>Node19</title>
<g id="a_node19"><a xlink:href="class_graph_line.html" target="_top" xlink:title="Line Graph Element. ">
<polygon fill="none" stroke="black" points="264.65,-370 264.65,-388 327.35,-388 327.35,-370 264.65,-370"/>
<text text-anchor="middle" x="296" y="-376" font-family="Helvetica,sans-Serif" font-size="10.00">GraphLine</text>
</a>
</g>
</g>
<!-- Node17&#45;&gt;Node19 -->
<g id="edge17" class="edge"><title>Node17&#45;&gt;Node19</title>
<path fill="none" stroke="midnightblue" d="M210.565,-377.095C228.648,-377.503 248.644,-377.954 264.636,-378.315"/>
<polygon fill="midnightblue" stroke="midnightblue" points="210.546,-373.594 200.469,-376.868 210.388,-380.592 210.546,-373.594"/>
</g>
<!-- Node21 -->
<g id="node21" class="node"><title>Node21</title>
<g id="a_node21"><a xlink:href="class_label_metric.html" target="_top" xlink:title="Label with Value Class. ">
<polygon fill="none" stroke="black" points="262.155,-333 262.155,-351 329.845,-351 329.845,-333 262.155,-333"/>
<text text-anchor="middle" x="296" y="-339" font-family="Helvetica,sans-Serif" font-size="10.00">LabelMetric</text>
</a>
</g>
</g>
<!-- Node20&#45;&gt;Node21 -->
<g id="edge19" class="edge"><title>Node20&#45;&gt;Node21</title>
<path fill="none" stroke="midnightblue" d="M191.531,-332.664C212.399,-334.547 240.386,-337.072 261.991,-339.022"/>
<polygon fill="midnightblue" stroke="midnightblue" points="191.613,-329.158 181.339,-331.745 190.984,-336.129 191.613,-329.158"/>
</g>
<!-- Node23 -->
<g id="node23" class="node"><title>Node23</title>
<g id="a_node23"><a xlink:href="class_discover.html" target="_top" xlink:title="Discover Class. ">
<polygon fill="none" stroke="black" points="268.552,-296 268.552,-314 323.448,-314 323.448,-296 268.552,-296"/>
<text text-anchor="middle" x="296" y="-302" font-family="Helvetica,sans-Serif" font-size="10.00">Discover</text>
</a>
</g>
</g>
<!-- Node22&#45;&gt;Node23 -->
<g id="edge21" class="edge"><title>Node22&#45;&gt;Node23</title>
<path fill="none" stroke="midnightblue" d="M186.782,-280.59C209.991,-285.825 244.572,-293.625 268.364,-298.992"/>
<polygon fill="midnightblue" stroke="midnightblue" points="187.523,-277.169 176.998,-278.383 185.983,-283.998 187.523,-277.169"/>
</g>
<!-- Node24 -->
<g id="node24" class="node"><title>Node24</title>
<g id="a_node24"><a xlink:href="class_map_menu.html" target="_top" xlink:title="Map Menu Class. ">
<polygon fill="none" stroke="black" points="265.766,-259 265.766,-277 326.234,-277 326.234,-259 265.766,-259"/>
<text text-anchor="middle" x="296" y="-265" font-family="Helvetica,sans-Serif" font-size="10.00">MapMenu</text>
</a>
</g>
</g>
<!-- Node22&#45;&gt;Node24 -->
<g id="edge22" class="edge"><title>Node22&#45;&gt;Node24</title>
<path fill="none" stroke="midnightblue" d="M187.029,-273.683C209.329,-272.509 241.985,-270.79 265.539,-269.551"/>
<polygon fill="midnightblue" stroke="midnightblue" points="186.8,-270.19 176.998,-274.211 187.168,-277.18 186.8,-270.19"/>
</g>
<!-- Node26 -->
<g id="node26" class="node"><title>Node26</title>
<g id="a_node26"><a xlink:href="class_list_item_callback.html" target="_top" xlink:title="List Item Callback Class. ">
<polygon fill="none" stroke="black" points="251.32,-222 251.32,-240 340.68,-240 340.68,-222 251.32,-222"/>
<text text-anchor="middle" x="296" y="-228" font-family="Helvetica,sans-Serif" font-size="10.00">ListItemCallback</text>
</a>
</g>
</g>
<!-- Node25&#45;&gt;Node26 -->
<g id="edge24" class="edge"><title>Node25&#45;&gt;Node26</title>
<path fill="none" stroke="midnightblue" d="M197.076,-231C213.697,-231 233.718,-231 251.315,-231"/>
<polygon fill="midnightblue" stroke="midnightblue" points="196.705,-227.5 186.705,-231 196.705,-234.5 196.705,-227.5"/>
</g>
<!-- Node27 -->
<g id="node27" class="node"><title>Node27</title>
<g id="a_node27"><a xlink:href="class_list_item_check.html" target="_top" xlink:title="List Item Check (for use in a checklist) ">
<polygon fill="none" stroke="black" points="256.323,-185 256.323,-203 335.677,-203 335.677,-185 256.323,-185"/>
<text text-anchor="middle" x="296" y="-191" font-family="Helvetica,sans-Serif" font-size="10.00">ListItemCheck</text>
</a>
</g>
</g>
<!-- Node25&#45;&gt;Node27 -->
<g id="edge25" class="edge"><title>Node25&#45;&gt;Node27</title>
<path fill="none" stroke="midnightblue" d="M196.508,-221.4C216.837,-215.745 242.403,-208.632 262.393,-203.071"/>
<polygon fill="midnightblue" stroke="midnightblue" points="195.401,-218.075 186.705,-224.127 197.277,-224.819 195.401,-218.075"/>
</g>
<!-- Node28 -->
<g id="node28" class="node"><title>Node28</title>
<g id="a_node28"><a xlink:href="class_list_item_element.html" target="_top" xlink:title="List Item Element Class. ">
<polygon fill="none" stroke="black" points="252.153,-148 252.153,-166 339.847,-166 339.847,-148 252.153,-148"/>
<text text-anchor="middle" x="296" y="-154" font-family="Helvetica,sans-Serif" font-size="10.00">ListItemElement</text>
</a>
</g>
</g>
<!-- Node25&#45;&gt;Node28 -->
<g id="edge26" class="edge"><title>Node25&#45;&gt;Node28</title>
<path fill="none" stroke="midnightblue" d="M195.983,-218.837C200.168,-216.803 204.278,-214.521 208,-212 226.996,-199.132 224.674,-187.366 244,-175 249.536,-171.458 255.858,-168.507 262.122,-166.089"/>
<polygon fill="midnightblue" stroke="midnightblue" points="194.546,-215.646 186.82,-222.895 197.381,-222.046 194.546,-215.646"/>
</g>
<!-- Node29 -->
<g id="node29" class="node"><title>Node29</title>
<g id="a_node29"><a xlink:href="class_list_item_toggle.html" target="_top" xlink:title="Toggle Item. ">
<polygon fill="none" stroke="black" points="255.761,-111 255.761,-129 336.239,-129 336.239,-111 255.761,-111"/>
<text text-anchor="middle" x="296" y="-117" font-family="Helvetica,sans-Serif" font-size="10.00">ListItemToggle</text>
</a>
</g>
</g>
<!-- Node25&#45;&gt;Node29 -->
<g id="edge27" class="edge"><title>Node25&#45;&gt;Node29</title>
<path fill="none" stroke="midnightblue" d="M196.295,-220.194C200.539,-217.925 204.58,-215.217 208,-212 234.64,-186.94 216.713,-162.354 244,-138 248.133,-134.311 253.07,-131.367 258.221,-129.019"/>
<polygon fill="midnightblue" stroke="midnightblue" points="194.498,-217.166 186.841,-224.49 197.394,-223.539 194.498,-217.166"/>
</g>
<!-- Node33 -->
<g id="node33" class="node"><title>Node33</title>
<g id="a_node33"><a xlink:href="class_progress_arc.html" target="_top" xlink:title="Progress Arc Class. ">
<polygon fill="none" stroke="black" points="260.493,-74 260.493,-92 331.507,-92 331.507,-74 260.493,-74"/>
<text text-anchor="middle" x="296" y="-80" font-family="Helvetica,sans-Serif" font-size="10.00">ProgressArc</text>
</a>
</g>
</g>
<!-- Node32&#45;&gt;Node33 -->
<g id="edge31" class="edge"><title>Node32&#45;&gt;Node33</title>
<path fill="none" stroke="midnightblue" d="M217.324,-93.5126C231.88,-91.5425 247.172,-89.4729 260.301,-87.6961"/>
<polygon fill="midnightblue" stroke="midnightblue" points="216.839,-90.0461 207.399,-94.8558 217.778,-96.9829 216.839,-90.0461"/>
</g>
<!-- Node34 -->
<g id="node34" class="node"><title>Node34</title>
<g id="a_node34"><a xlink:href="class_progress_bar.html" target="_top" xlink:title="Progress Bar Class. ">
<polygon fill="none" stroke="black" points="260.212,-37 260.212,-55 331.788,-55 331.788,-37 260.212,-37"/>
<text text-anchor="middle" x="296" y="-43" font-family="Helvetica,sans-Serif" font-size="10.00">ProgressBar</text>
</a>
</g>
</g>
<!-- Node32&#45;&gt;Node34 -->
<g id="edge32" class="edge"><title>Node32&#45;&gt;Node34</title>
<path fill="none" stroke="midnightblue" d="M194.344,-87.9848C198.951,-86.0313 203.612,-84.0002 208,-82 224.277,-74.5806 227.534,-70.9903 244,-64 251.519,-60.8079 259.818,-57.7065 267.498,-55.0029"/>
<polygon fill="midnightblue" stroke="midnightblue" points="192.953,-84.7725 185.07,-91.8509 195.647,-91.2336 192.953,-84.7725"/>
</g>
<!-- Node35 -->
<g id="node35" class="node"><title>Node35</title>
<g id="a_node35"><a xlink:href="class_progress_circle.html" target="_top" xlink:title="Progress Circle Class. ">
<polygon fill="none" stroke="black" points="255.214,-0 255.214,-18 336.786,-18 336.786,-0 255.214,-0"/>
<text text-anchor="middle" x="296" y="-6" font-family="Helvetica,sans-Serif" font-size="10.00">ProgressCircle</text>
</a>
</g>
</g>
<!-- Node32&#45;&gt;Node35 -->
<g id="edge33" class="edge"><title>Node32&#45;&gt;Node35</title>
<path fill="none" stroke="midnightblue" d="M200.733,-87.1083C203.3,-85.559 205.754,-83.8596 208,-82 230.505,-63.3704 221.015,-45.0336 244,-27 248.654,-23.3487 254.106,-20.4043 259.681,-18.0402"/>
<polygon fill="midnightblue" stroke="midnightblue" points="198.956,-84.0876 191.704,-91.8115 202.19,-90.2959 198.956,-84.0876"/>
</g>
</g>
</svg>
