<?xml version="1.0" encoding="UTF-8" standalone="no"?>
<!DOCTYPE svg PUBLIC "-//W3C//DTD SVG 1.1//EN"
 "http://www.w3.org/Graphics/SVG/1.1/DTD/svg11.dtd">
<!-- Generated by graphviz version 2.36.0 (20140111.2315)
 -->
<!-- Title: include/iface/location.h Pages: 1 -->
<svg width="802pt" height="252pt"
 viewBox="0.00 0.00 802.00 252.00" xmlns="http://www.w3.org/2000/svg" xmlns:xlink="http://www.w3.org/1999/xlink">
<g id="graph0" class="graph" transform="scale(1 1) rotate(0) translate(4 248)">
<title>include/iface/location.h</title>
<!-- Node1 -->
<g id="node1" class="node"><title>Node1</title>
<polygon fill="#bfbfbf" stroke="black" points="304.412,-225 304.412,-243 421.588,-243 421.588,-225 304.412,-225"/>
<text text-anchor="middle" x="363" y="-231" font-family="Helvetica,sans-Serif" font-size="10.00">include/iface/location.h</text>
</g>
<!-- Node2 -->
<g id="node2" class="node"><title>Node2</title>
<g id="a_node2"><a xlink:href="contact_8h_source.html" target="_top" xlink:title="include/iface/contact.h">
<polygon fill="none" stroke="black" points="220.525,-169 220.525,-187 335.475,-187 335.475,-169 220.525,-169"/>
<text text-anchor="middle" x="278" y="-175" font-family="Helvetica,sans-Serif" font-size="10.00">include/iface/contact.h</text>
</a>
</g>
</g>
<!-- Node1&#45;&gt;Node2 -->
<g id="edge1" class="edge"><title>Node1&#45;&gt;Node2</title>
<path fill="none" stroke="midnightblue" d="M341.376,-219.262C325.376,-209.098 304.124,-195.596 290.753,-187.102"/>
<polygon fill="midnightblue" stroke="midnightblue" points="339.773,-222.39 350.09,-224.799 343.526,-216.482 339.773,-222.39"/>
</g>
<!-- Node3 -->
<g id="node3" class="node"><title>Node3</title>
<g id="a_node3"><a xlink:href="message_8h_source.html" target="_top" xlink:title="include/iface/message.h">
<polygon fill="none" stroke="black" points="84.3574,-113 84.3574,-131 207.643,-131 207.643,-113 84.3574,-113"/>
<text text-anchor="middle" x="146" y="-119" font-family="Helvetica,sans-Serif" font-size="10.00">include/iface/message.h</text>
</a>
</g>
</g>
<!-- Node1&#45;&gt;Node3 -->
<g id="edge10" class="edge"><title>Node1&#45;&gt;Node3</title>
<path fill="none" stroke="midnightblue" d="M304.913,-222.663C275.649,-215.769 240.44,-204.805 212,-188 185.97,-172.619 162.577,-144.774 151.987,-131.066"/>
<polygon fill="midnightblue" stroke="midnightblue" points="304.471,-226.151 314.995,-224.935 306.009,-219.322 304.471,-226.151"/>
</g>
<!-- Node4 -->
<g id="node4" class="node"><title>Node4</title>
<g id="a_node4"><a xlink:href="sys_8h.html" target="_top" xlink:title="include/iface/sys.h">
<polygon fill="none" stroke="red" points="46.1455,-57 46.1455,-75 143.854,-75 143.854,-57 46.1455,-57"/>
<text text-anchor="middle" x="95" y="-63" font-family="Helvetica,sans-Serif" font-size="10.00">include/iface/sys.h</text>
</a>
</g>
</g>
<!-- Node1&#45;&gt;Node4 -->
<g id="edge11" class="edge"><title>Node1&#45;&gt;Node4</title>
<path fill="none" stroke="midnightblue" d="M294.277,-231.948C224.233,-226.624 119.719,-205.878 75,-132 63.7503,-113.415 79.0041,-87.9669 88.4742,-75.1224"/>
<polygon fill="midnightblue" stroke="midnightblue" points="294.138,-235.446 304.35,-232.626 294.608,-228.462 294.138,-235.446"/>
</g>
<!-- Node5 -->
<g id="node5" class="node"><title>Node5</title>
<g id="a_node5"><a xlink:href="coproc_8h_source.html" target="_top" xlink:title="include/iface/coproc.h">
<polygon fill="none" stroke="red" points="-0.361816,-1 -0.361816,-19 112.362,-19 112.362,-1 -0.361816,-1"/>
<text text-anchor="middle" x="56" y="-7" font-family="Helvetica,sans-Serif" font-size="10.00">include/iface/coproc.h</text>
</a>
</g>
</g>
<!-- Node1&#45;&gt;Node5 -->
<g id="edge17" class="edge"><title>Node1&#45;&gt;Node5</title>
<path fill="none" stroke="midnightblue" d="M293.843,-227.132C228.261,-220.478 135.374,-207.891 105,-188 56.2831,-156.096 51.5647,-132.383 37,-76 31.7071,-55.5101 43.2507,-31.6991 50.5711,-19.3672"/>
<polygon fill="midnightblue" stroke="midnightblue" points="293.824,-230.647 304.12,-228.149 294.513,-223.681 293.824,-230.647"/>
</g>
<!-- Node6 -->
<g id="node6" class="node"><title>Node6</title>
<g id="a_node6"><a xlink:href="_app_file_8hpp_source.html" target="_top" xlink:title="include/AppFile.hpp">
<polygon fill="none" stroke="red" points="325.082,-57 325.082,-75 428.918,-75 428.918,-57 325.082,-57"/>
<text text-anchor="middle" x="377" y="-63" font-family="Helvetica,sans-Serif" font-size="10.00">include/AppFile.hpp</text>
</a>
</g>
</g>
<!-- Node1&#45;&gt;Node6 -->
<g id="edge15" class="edge"><title>Node1&#45;&gt;Node6</title>
<path fill="none" stroke="midnightblue" d="M364.553,-214.586C367.576,-178.744 374.142,-100.883 376.299,-75.3172"/>
<polygon fill="midnightblue" stroke="midnightblue" points="361.028,-214.735 363.675,-224.993 368.003,-215.323 361.028,-214.735"/>
</g>
<!-- Node9 -->
<g id="node9" class="node"><title>Node9</title>
<g id="a_node9"><a xlink:href="map_8h_source.html" target="_top" xlink:title="include/iface/map.h">
<polygon fill="none" stroke="black" points="390.919,-169 390.919,-187 493.081,-187 493.081,-169 390.919,-169"/>
<text text-anchor="middle" x="442" y="-175" font-family="Helvetica,sans-Serif" font-size="10.00">include/iface/map.h</text>
</a>
</g>
</g>
<!-- Node1&#45;&gt;Node9 -->
<g id="edge12" class="edge"><title>Node1&#45;&gt;Node9</title>
<path fill="none" stroke="midnightblue" d="M383.516,-218.976C398.337,-208.846 417.836,-195.517 430.148,-187.102"/>
<polygon fill="midnightblue" stroke="midnightblue" points="381.279,-216.266 374.998,-224.799 385.229,-222.045 381.279,-216.266"/>
</g>
<!-- Node10 -->
<g id="node10" class="node"><title>Node10</title>
<g id="a_node10"><a xlink:href="_map_8hpp_source.html" target="_top" xlink:title="include/Ui/Map.hpp">
<polygon fill="none" stroke="black" points="468.197,-113 468.197,-131 569.803,-131 569.803,-113 468.197,-113"/>
<text text-anchor="middle" x="519" y="-119" font-family="Helvetica,sans-Serif" font-size="10.00">include/Ui/Map.hpp</text>
</a>
</g>
</g>
<!-- Node1&#45;&gt;Node10 -->
<g id="edge19" class="edge"><title>Node1&#45;&gt;Node10</title>
<path fill="none" stroke="midnightblue" d="M431.59,-224.801C456.793,-218.518 483.628,-207.456 502,-188 516.895,-172.226 519.12,-145.06 519.223,-131.384"/>
<polygon fill="midnightblue" stroke="midnightblue" points="430.638,-221.428 421.663,-227.059 432.19,-228.254 430.638,-221.428"/>
</g>
<!-- Node11 -->
<g id="node11" class="node"><title>Node11</title>
<g id="a_node11"><a xlink:href="_gpx_reader_8hpp_source.html" target="_top" xlink:title="include/GpxReader.hpp">
<polygon fill="none" stroke="black" points="548.739,-169 548.739,-187 669.261,-187 669.261,-169 548.739,-169"/>
<text text-anchor="middle" x="609" y="-175" font-family="Helvetica,sans-Serif" font-size="10.00">include/GpxReader.hpp</text>
</a>
</g>
</g>
<!-- Node1&#45;&gt;Node11 -->
<g id="edge16" class="edge"><title>Node1&#45;&gt;Node11</title>
<path fill="none" stroke="midnightblue" d="M409.533,-222.786C456.747,-212.421 528.878,-196.588 572.236,-187.07"/>
<polygon fill="midnightblue" stroke="midnightblue" points="408.58,-219.411 399.563,-224.974 410.081,-226.248 408.58,-219.411"/>
</g>
<!-- Node12 -->
<g id="node12" class="node"><title>Node12</title>
<g id="a_node12"><a xlink:href="_location_8hpp_source.html" target="_top" xlink:title="include/Location.hpp">
<polygon fill="none" stroke="black" points="687.131,-169 687.131,-187 794.869,-187 794.869,-169 687.131,-169"/>
<text text-anchor="middle" x="741" y="-175" font-family="Helvetica,sans-Serif" font-size="10.00">include/Location.hpp</text>
</a>
</g>
</g>
<!-- Node1&#45;&gt;Node12 -->
<g id="edge18" class="edge"><title>Node1&#45;&gt;Node12</title>
<path fill="none" stroke="midnightblue" d="M429.218,-223.54C502.444,-213.079 619.023,-196.425 686.962,-186.72"/>
<polygon fill="midnightblue" stroke="midnightblue" points="428.587,-220.095 419.182,-224.974 429.577,-227.024 428.587,-220.095"/>
</g>
<!-- Node2&#45;&gt;Node3 -->
<g id="edge2" class="edge"><title>Node2&#45;&gt;Node3</title>
<path fill="none" stroke="midnightblue" d="M248.82,-165.063C223.632,-154.758 187.921,-140.15 165.897,-131.14"/>
<polygon fill="midnightblue" stroke="midnightblue" points="247.658,-168.369 258.238,-168.916 250.308,-161.89 247.658,-168.369"/>
</g>
<!-- Node2&#45;&gt;Node6 -->
<g id="edge7" class="edge"><title>Node2&#45;&gt;Node6</title>
<path fill="none" stroke="midnightblue" d="M300.902,-163.342C313.177,-155.27 327.994,-144.246 339,-132 355.077,-114.111 367.674,-88.3585 373.488,-75.2876"/>
<polygon fill="midnightblue" stroke="midnightblue" points="298.689,-160.601 292.116,-168.91 302.436,-166.513 298.689,-160.601"/>
</g>
<!-- Node8 -->
<g id="node8" class="node"><title>Node8</title>
<g id="a_node8"><a xlink:href="_contact_8hpp_source.html" target="_top" xlink:title="include/Contact.hpp">
<polygon fill="none" stroke="black" points="225.803,-113 225.803,-131 330.197,-131 330.197,-113 225.803,-113"/>
<text text-anchor="middle" x="278" y="-119" font-family="Helvetica,sans-Serif" font-size="10.00">include/Contact.hpp</text>
</a>
</g>
</g>
<!-- Node2&#45;&gt;Node8 -->
<g id="edge8" class="edge"><title>Node2&#45;&gt;Node8</title>
<path fill="none" stroke="midnightblue" d="M278,-158.329C278,-149.077 278,-138.38 278,-131.201"/>
<polygon fill="midnightblue" stroke="midnightblue" points="274.5,-158.562 278,-168.562 281.5,-158.563 274.5,-158.562"/>
</g>
<!-- Node3&#45;&gt;Node4 -->
<g id="edge3" class="edge"><title>Node3&#45;&gt;Node4</title>
<path fill="none" stroke="midnightblue" d="M130.914,-105.027C121.66,-95.2278 110.196,-83.0897 102.746,-75.2014"/>
<polygon fill="midnightblue" stroke="midnightblue" points="128.62,-107.696 138.031,-112.562 133.71,-102.889 128.62,-107.696"/>
</g>
<!-- Node3&#45;&gt;Node6 -->
<g id="edge5" class="edge"><title>Node3&#45;&gt;Node6</title>
<path fill="none" stroke="midnightblue" d="M190.254,-110.655C234.598,-100.289 301.934,-84.5478 342.478,-75.0701"/>
<polygon fill="midnightblue" stroke="midnightblue" points="189.274,-107.289 180.334,-112.974 190.868,-114.106 189.274,-107.289"/>
</g>
<!-- Node7 -->
<g id="node7" class="node"><title>Node7</title>
<g id="a_node7"><a xlink:href="_message_8hpp_source.html" target="_top" xlink:title="include/Message.hpp">
<polygon fill="none" stroke="red" points="188.747,-57 188.747,-75 299.253,-75 299.253,-57 188.747,-57"/>
<text text-anchor="middle" x="244" y="-63" font-family="Helvetica,sans-Serif" font-size="10.00">include/Message.hpp</text>
</a>
</g>
</g>
<!-- Node3&#45;&gt;Node7 -->
<g id="edge6" class="edge"><title>Node3&#45;&gt;Node7</title>
<path fill="none" stroke="midnightblue" d="M169.648,-107.969C188.228,-97.7312 213.52,-83.7949 229.297,-75.1017"/>
<polygon fill="midnightblue" stroke="midnightblue" points="167.953,-104.907 160.884,-112.799 171.332,-111.038 167.953,-104.907"/>
</g>
<!-- Node4&#45;&gt;Node5 -->
<g id="edge4" class="edge"><title>Node4&#45;&gt;Node5</title>
<path fill="none" stroke="midnightblue" d="M83.037,-48.4358C76.0373,-38.744 67.5064,-26.9319 61.9233,-19.2014"/>
<polygon fill="midnightblue" stroke="midnightblue" points="80.2139,-50.5049 88.9062,-56.5625 85.8887,-46.4065 80.2139,-50.5049"/>
</g>
<!-- Node8&#45;&gt;Node7 -->
<g id="edge9" class="edge"><title>Node8&#45;&gt;Node7</title>
<path fill="none" stroke="midnightblue" d="M267.195,-103.84C261.166,-94.2636 253.932,-82.7742 249.164,-75.2014"/>
<polygon fill="midnightblue" stroke="midnightblue" points="264.398,-105.965 272.688,-112.562 270.321,-102.235 264.398,-105.965"/>
</g>
<!-- Node9&#45;&gt;Node6 -->
<g id="edge13" class="edge"><title>Node9&#45;&gt;Node6</title>
<path fill="none" stroke="midnightblue" d="M434.328,-159.347C428.294,-146.017 419.366,-127.445 410,-112 401.862,-98.58 390.809,-84.1243 383.789,-75.3179"/>
<polygon fill="midnightblue" stroke="midnightblue" points="431.246,-161.031 438.5,-168.753 437.645,-158.193 431.246,-161.031"/>
</g>
<!-- Node9&#45;&gt;Node10 -->
<g id="edge14" class="edge"><title>Node9&#45;&gt;Node10</title>
<path fill="none" stroke="midnightblue" d="M461.996,-162.976C476.442,-152.846 495.448,-139.517 507.448,-131.102"/>
<polygon fill="midnightblue" stroke="midnightblue" points="459.872,-160.191 453.695,-168.799 463.892,-165.922 459.872,-160.191"/>
</g>
</g>
</svg>
