<?xml version="1.0" encoding="UTF-8" standalone="no"?>
<!DOCTYPE svg PUBLIC "-//W3C//DTD SVG 1.1//EN"
 "http://www.w3.org/Graphics/SVG/1.1/DTD/svg11.dtd">
<!-- Generated by graphviz version 2.36.0 (20140111.2315)
 -->
<!-- Title: include/iface/location.h Pages: 1 -->
<svg width="1694pt" height="308pt"
 viewBox="0.00 0.00 1694.00 308.00" xmlns="http://www.w3.org/2000/svg" xmlns:xlink="http://www.w3.org/1999/xlink">
<g id="graph0" class="graph" transform="scale(1 1) rotate(0) translate(4 304)">
<title>include/iface/location.h</title>
<!-- Node1 -->
<g id="node1" class="node"><title>Node1</title>
<polygon fill="#bfbfbf" stroke="black" points="1188.41,-281 1188.41,-299 1305.59,-299 1305.59,-281 1188.41,-281"/>
<text text-anchor="middle" x="1247" y="-287" font-family="Helvetica,sans-Serif" font-size="10.00">include/iface/location.h</text>
</g>
<!-- Node2 -->
<g id="node2" class="node"><title>Node2</title>
<g id="a_node2"><a xlink:href="message_8h_source.html" target="_top" xlink:title="include/iface/message.h">
<polygon fill="none" stroke="black" points="1140.36,-225 1140.36,-243 1263.64,-243 1263.64,-225 1140.36,-225"/>
<text text-anchor="middle" x="1202" y="-231" font-family="Helvetica,sans-Serif" font-size="10.00">include/iface/message.h</text>
</a>
</g>
</g>
<!-- Node1&#45;&gt;Node2 -->
<g id="edge1" class="edge"><title>Node1&#45;&gt;Node2</title>
<path fill="none" stroke="midnightblue" d="M1233.44,-272.732C1225.32,-262.986 1215.34,-251.011 1208.83,-243.201"/>
<polygon fill="midnightblue" stroke="midnightblue" points="1230.88,-275.121 1239.97,-280.562 1236.26,-270.64 1230.88,-275.121"/>
</g>
<!-- Node3 -->
<g id="node3" class="node"><title>Node3</title>
<g id="a_node3"><a xlink:href="sys_8h.html" target="_top" xlink:title="include/iface/sys.h">
<polygon fill="none" stroke="black" points="693.146,-169 693.146,-187 790.854,-187 790.854,-169 693.146,-169"/>
<text text-anchor="middle" x="742" y="-175" font-family="Helvetica,sans-Serif" font-size="10.00">include/iface/sys.h</text>
</a>
</g>
</g>
<!-- Node1&#45;&gt;Node3 -->
<g id="edge23" class="edge"><title>Node1&#45;&gt;Node3</title>
<path fill="none" stroke="midnightblue" d="M1200.06,-278.776C1100.3,-257.047 868.947,-206.652 778.847,-187.026"/>
<polygon fill="midnightblue" stroke="midnightblue" points="1199.35,-282.203 1209.87,-280.911 1200.84,-275.363 1199.35,-282.203"/>
</g>
<!-- Node10 -->
<g id="node10" class="node"><title>Node10</title>
<g id="a_node10"><a xlink:href="coproc_8h_source.html" target="_top" xlink:title="include/iface/coproc.h">
<polygon fill="none" stroke="black" points="-0.361816,-113 -0.361816,-131 112.362,-131 112.362,-113 -0.361816,-113"/>
<text text-anchor="middle" x="56" y="-119" font-family="Helvetica,sans-Serif" font-size="10.00">include/iface/coproc.h</text>
</a>
</g>
</g>
<!-- Node1&#45;&gt;Node10 -->
<g id="edge29" class="edge"><title>Node1&#45;&gt;Node10</title>
<path fill="none" stroke="midnightblue" d="M1179.44,-279.583C966.149,-249.855 309.623,-158.35 112.522,-130.878"/>
<polygon fill="midnightblue" stroke="midnightblue" points="1179.17,-283.079 1189.56,-280.993 1180.13,-276.146 1179.17,-283.079"/>
</g>
<!-- Node15 -->
<g id="node15" class="node"><title>Node15</title>
<g id="a_node15"><a xlink:href="_app_file_8hpp_source.html" target="_top" xlink:title="include/AppFile.hpp">
<polygon fill="none" stroke="black" points="1286.08,-169 1286.08,-187 1389.92,-187 1389.92,-169 1286.08,-169"/>
<text text-anchor="middle" x="1338" y="-175" font-family="Helvetica,sans-Serif" font-size="10.00">include/AppFile.hpp</text>
</a>
</g>
</g>
<!-- Node1&#45;&gt;Node15 -->
<g id="edge27" class="edge"><title>Node1&#45;&gt;Node15</title>
<path fill="none" stroke="midnightblue" d="M1260.29,-272.932C1280.04,-249.063 1316.39,-205.117 1331.33,-187.065"/>
<polygon fill="midnightblue" stroke="midnightblue" points="1257.52,-270.796 1253.84,-280.732 1262.91,-275.258 1257.52,-270.796"/>
</g>
<!-- Node17 -->
<g id="node17" class="node"><title>Node17</title>
<g id="a_node17"><a xlink:href="_map_8hpp_source.html" target="_top" xlink:title="include/Ui/Map.hpp">
<polygon fill="none" stroke="black" points="1298.2,-57 1298.2,-75 1399.8,-75 1399.8,-57 1298.2,-57"/>
<text text-anchor="middle" x="1349" y="-63" font-family="Helvetica,sans-Serif" font-size="10.00">include/Ui/Map.hpp</text>
</a>
</g>
</g>
<!-- Node1&#45;&gt;Node17 -->
<g id="edge31" class="edge"><title>Node1&#45;&gt;Node17</title>
<path fill="none" stroke="midnightblue" d="M1180.28,-277.895C1161.2,-271.295 1142.48,-260.772 1131,-244 1097.86,-195.593 1093.95,-157.484 1131,-112 1151.66,-86.6452 1240.29,-75.1469 1297.98,-70.2655"/>
<polygon fill="midnightblue" stroke="midnightblue" points="1179.36,-281.274 1189.94,-280.916 1181.44,-274.593 1179.36,-281.274"/>
</g>
<!-- Node20 -->
<g id="node20" class="node"><title>Node20</title>
<g id="a_node20"><a xlink:href="map_8h_source.html" target="_top" xlink:title="include/iface/map.h">
<polygon fill="none" stroke="black" points="1319.92,-225 1319.92,-243 1422.08,-243 1422.08,-225 1319.92,-225"/>
<text text-anchor="middle" x="1371" y="-231" font-family="Helvetica,sans-Serif" font-size="10.00">include/iface/map.h</text>
</a>
</g>
</g>
<!-- Node1&#45;&gt;Node20 -->
<g id="edge24" class="edge"><title>Node1&#45;&gt;Node20</title>
<path fill="none" stroke="midnightblue" d="M1275.04,-276.788C1298.67,-266.5 1331.8,-252.07 1352.31,-243.14"/>
<polygon fill="midnightblue" stroke="midnightblue" points="1273.33,-273.714 1265.56,-280.916 1276.13,-280.132 1273.33,-273.714"/>
</g>
<!-- Node21 -->
<g id="node21" class="node"><title>Node21</title>
<g id="a_node21"><a xlink:href="_gpx_reader_8hpp_source.html" target="_top" xlink:title="include/GpxReader.hpp">
<polygon fill="none" stroke="black" points="1439.74,-225 1439.74,-243 1560.26,-243 1560.26,-225 1439.74,-225"/>
<text text-anchor="middle" x="1500" y="-231" font-family="Helvetica,sans-Serif" font-size="10.00">include/GpxReader.hpp</text>
</a>
</g>
</g>
<!-- Node1&#45;&gt;Node21 -->
<g id="edge28" class="edge"><title>Node1&#45;&gt;Node21</title>
<path fill="none" stroke="midnightblue" d="M1294.55,-278.851C1343.1,-268.488 1417.5,-252.608 1462.19,-243.07"/>
<polygon fill="midnightblue" stroke="midnightblue" points="1293.65,-275.464 1284.6,-280.974 1295.11,-282.309 1293.65,-275.464"/>
</g>
<!-- Node22 -->
<g id="node22" class="node"><title>Node22</title>
<g id="a_node22"><a xlink:href="_location_8hpp_source.html" target="_top" xlink:title="include/Location.hpp">
<polygon fill="none" stroke="black" points="1578.13,-225 1578.13,-243 1685.87,-243 1685.87,-225 1578.13,-225"/>
<text text-anchor="middle" x="1632" y="-231" font-family="Helvetica,sans-Serif" font-size="10.00">include/Location.hpp</text>
</a>
</g>
</g>
<!-- Node1&#45;&gt;Node22 -->
<g id="edge30" class="edge"><title>Node1&#45;&gt;Node22</title>
<path fill="none" stroke="midnightblue" d="M1315.03,-279.554C1380.21,-270.49 1481.33,-256.388 1569,-244 1571.95,-243.583 1574.99,-243.153 1578.05,-242.719"/>
<polygon fill="midnightblue" stroke="midnightblue" points="1314.31,-276.121 1304.88,-280.965 1315.27,-283.054 1314.31,-276.121"/>
</g>
<!-- Node2&#45;&gt;Node3 -->
<g id="edge2" class="edge"><title>Node2&#45;&gt;Node3</title>
<path fill="none" stroke="midnightblue" d="M1129.92,-224.539C1035.52,-213.457 872.477,-194.317 791.129,-184.767"/>
<polygon fill="midnightblue" stroke="midnightblue" points="1129.62,-228.027 1139.96,-225.717 1130.44,-221.075 1129.62,-228.027"/>
</g>
<!-- Node2&#45;&gt;Node15 -->
<g id="edge18" class="edge"><title>Node2&#45;&gt;Node15</title>
<path fill="none" stroke="midnightblue" d="M1231.72,-221.199C1257.69,-210.888 1294.71,-196.19 1317.5,-187.14"/>
<polygon fill="midnightblue" stroke="midnightblue" points="1230.36,-217.972 1222.36,-224.916 1232.95,-224.478 1230.36,-217.972"/>
</g>
<!-- Node18 -->
<g id="node18" class="node"><title>Node18</title>
<g id="a_node18"><a xlink:href="_message_8hpp_source.html" target="_top" xlink:title="include/Message.hpp">
<polygon fill="none" stroke="black" points="1149.75,-169 1149.75,-187 1260.25,-187 1260.25,-169 1149.75,-169"/>
<text text-anchor="middle" x="1205" y="-175" font-family="Helvetica,sans-Serif" font-size="10.00">include/Message.hpp</text>
</a>
</g>
</g>
<!-- Node2&#45;&gt;Node18 -->
<g id="edge21" class="edge"><title>Node2&#45;&gt;Node18</title>
<path fill="none" stroke="midnightblue" d="M1203.04,-214.329C1203.55,-205.077 1204.15,-194.38 1204.54,-187.201"/>
<polygon fill="midnightblue" stroke="midnightblue" points="1199.53,-214.384 1202.47,-224.562 1206.52,-214.772 1199.53,-214.384"/>
</g>
<!-- Node4 -->
<g id="node4" class="node"><title>Node4</title>
<g id="a_node4"><a xlink:href="_app_controller_8hpp_source.html" target="_top" xlink:title="include/AppController.hpp">
<polygon fill="none" stroke="red" points="798.737,-1 798.737,-19 929.263,-19 929.263,-1 798.737,-1"/>
<text text-anchor="middle" x="864" y="-7" font-family="Helvetica,sans-Serif" font-size="10.00">include/AppController.hpp</text>
</a>
</g>
</g>
<!-- Node3&#45;&gt;Node4 -->
<g id="edge3" class="edge"><title>Node3&#45;&gt;Node4</title>
<path fill="none" stroke="midnightblue" d="M745.21,-158.95C750.647,-133.153 763.933,-85.5955 792,-56 807.519,-39.6354 830.206,-26.758 845.95,-19.0447"/>
<polygon fill="midnightblue" stroke="midnightblue" points="741.759,-158.36 743.29,-168.844 748.631,-159.694 741.759,-158.36"/>
</g>
<!-- Node5 -->
<g id="node5" class="node"><title>Node5</title>
<g id="a_node5"><a xlink:href="_icon_8hpp_source.html" target="_top" xlink:title="include/Ui/Icon.hpp">
<polygon fill="none" stroke="red" points="770.473,-113 770.473,-131 871.527,-131 871.527,-113 770.473,-113"/>
<text text-anchor="middle" x="821" y="-119" font-family="Helvetica,sans-Serif" font-size="10.00">include/Ui/Icon.hpp</text>
</a>
</g>
</g>
<!-- Node3&#45;&gt;Node5 -->
<g id="edge4" class="edge"><title>Node3&#45;&gt;Node5</title>
<path fill="none" stroke="midnightblue" d="M762.516,-162.976C777.337,-152.846 796.836,-139.517 809.148,-131.102"/>
<polygon fill="midnightblue" stroke="midnightblue" points="760.279,-160.266 753.998,-168.799 764.229,-166.045 760.279,-160.266"/>
</g>
<!-- Node6 -->
<g id="node6" class="node"><title>Node6</title>
<g id="a_node6"><a xlink:href="_button_bar_8hpp_source.html" target="_top" xlink:title="include/Ui/ButtonBar.hpp">
<polygon fill="none" stroke="red" points="800.961,-57 800.961,-75 927.039,-75 927.039,-57 800.961,-57"/>
<text text-anchor="middle" x="864" y="-63" font-family="Helvetica,sans-Serif" font-size="10.00">include/Ui/ButtonBar.hpp</text>
</a>
</g>
</g>
<!-- Node3&#45;&gt;Node6 -->
<g id="edge7" class="edge"><title>Node3&#45;&gt;Node6</title>
<path fill="none" stroke="midnightblue" d="M800.932,-173.384C829.7,-168.288 861.927,-156.903 880,-132 892.56,-114.694 878.799,-88.686 870.065,-75.4258"/>
<polygon fill="midnightblue" stroke="midnightblue" points="800.275,-169.944 790.93,-174.936 801.348,-176.861 800.275,-169.944"/>
</g>
<!-- Node7 -->
<g id="node7" class="node"><title>Node7</title>
<g id="a_node7"><a xlink:href="_hio_control_8hpp_source.html" target="_top" xlink:title="include/HioControl.hpp">
<polygon fill="none" stroke="black" points="928.414,-113 928.414,-131 1045.59,-131 1045.59,-113 928.414,-113"/>
<text text-anchor="middle" x="987" y="-119" font-family="Helvetica,sans-Serif" font-size="10.00">include/HioControl.hpp</text>
</a>
</g>
</g>
<!-- Node3&#45;&gt;Node7 -->
<g id="edge8" class="edge"><title>Node3&#45;&gt;Node7</title>
<path fill="none" stroke="midnightblue" d="M788.343,-166.786C835.366,-156.421 907.204,-140.588 950.386,-131.07"/>
<polygon fill="midnightblue" stroke="midnightblue" points="787.427,-163.404 778.414,-168.974 788.933,-170.239 787.427,-163.404"/>
</g>
<!-- Node8 -->
<g id="node8" class="node"><title>Node8</title>
<g id="a_node8"><a xlink:href="_sys_8hpp_source.html" target="_top" xlink:title="include/Sys.hpp">
<polygon fill="none" stroke="red" points="1022.7,-57 1022.7,-75 1109.3,-75 1109.3,-57 1022.7,-57"/>
<text text-anchor="middle" x="1066" y="-63" font-family="Helvetica,sans-Serif" font-size="10.00">include/Sys.hpp</text>
</a>
</g>
</g>
<!-- Node3&#45;&gt;Node8 -->
<g id="edge16" class="edge"><title>Node3&#45;&gt;Node8</title>
<path fill="none" stroke="midnightblue" d="M801.454,-176.415C881.753,-174.327 1018.89,-165.759 1054,-132 1069.55,-117.048 1068.73,-89.0017 1067.2,-75.1572"/>
<polygon fill="midnightblue" stroke="midnightblue" points="800.912,-172.926 790.996,-176.659 801.075,-179.925 800.912,-172.926"/>
</g>
<!-- Node9 -->
<g id="node9" class="node"><title>Node9</title>
<g id="a_node9"><a xlink:href="_button_8hpp_source.html" target="_top" xlink:title="include/Button.hpp">
<polygon fill="none" stroke="black" points="130.579,-113 130.579,-131 229.421,-131 229.421,-113 130.579,-113"/>
<text text-anchor="middle" x="180" y="-119" font-family="Helvetica,sans-Serif" font-size="10.00">include/Button.hpp</text>
</a>
</g>
</g>
<!-- Node3&#45;&gt;Node9 -->
<g id="edge11" class="edge"><title>Node3&#45;&gt;Node9</title>
<path fill="none" stroke="midnightblue" d="M682.804,-172.902C588.645,-166.114 399.032,-151.345 239,-132 235.914,-131.627 232.741,-131.218 229.544,-130.786"/>
<polygon fill="midnightblue" stroke="midnightblue" points="682.76,-176.408 692.984,-173.632 683.26,-169.426 682.76,-176.408"/>
</g>
<!-- Node3&#45;&gt;Node10 -->
<g id="edge12" class="edge"><title>Node3&#45;&gt;Node10</title>
<path fill="none" stroke="midnightblue" d="M682.608,-173.939C572.076,-167.965 327.37,-153.434 122,-132 118.894,-131.676 115.71,-131.32 112.497,-130.943"/>
<polygon fill="midnightblue" stroke="midnightblue" points="682.706,-177.449 692.879,-174.49 683.081,-170.459 682.706,-177.449"/>
</g>
<!-- Node11 -->
<g id="node11" class="node"><title>Node11</title>
<g id="a_node11"><a xlink:href="_measure_8hpp_source.html" target="_top" xlink:title="include/Measure.hpp">
<polygon fill="none" stroke="black" points="247.582,-113 247.582,-131 356.418,-131 356.418,-113 247.582,-113"/>
<text text-anchor="middle" x="302" y="-119" font-family="Helvetica,sans-Serif" font-size="10.00">include/Measure.hpp</text>
</a>
</g>
</g>
<!-- Node3&#45;&gt;Node11 -->
<g id="edge13" class="edge"><title>Node3&#45;&gt;Node11</title>
<path fill="none" stroke="midnightblue" d="M682.755,-170.357C608.459,-161.927 477.201,-146.709 365,-132 362.261,-131.641 359.457,-131.266 356.625,-130.882"/>
<polygon fill="midnightblue" stroke="midnightblue" points="682.523,-173.853 692.853,-171.5 683.311,-166.897 682.523,-173.853"/>
</g>
<!-- Node12 -->
<g id="node12" class="node"><title>Node12</title>
<g id="a_node12"><a xlink:href="_motion_8hpp_source.html" target="_top" xlink:title="include/Motion.hpp">
<polygon fill="none" stroke="black" points="374.027,-113 374.027,-131 473.973,-131 473.973,-113 374.027,-113"/>
<text text-anchor="middle" x="424" y="-119" font-family="Helvetica,sans-Serif" font-size="10.00">include/Motion.hpp</text>
</a>
</g>
</g>
<!-- Node3&#45;&gt;Node12 -->
<g id="edge14" class="edge"><title>Node3&#45;&gt;Node12</title>
<path fill="none" stroke="midnightblue" d="M684.499,-167.236C623.451,-156.869 528.1,-140.677 471.264,-131.026"/>
<polygon fill="midnightblue" stroke="midnightblue" points="684.291,-170.75 694.736,-168.974 685.463,-163.849 684.291,-170.75"/>
</g>
<!-- Node13 -->
<g id="node13" class="node"><title>Node13</title>
<g id="a_node13"><a xlink:href="_sensor_8hpp_source.html" target="_top" xlink:title="include/Sensor.hpp">
<polygon fill="none" stroke="black" points="492.466,-113 492.466,-131 593.534,-131 593.534,-113 492.466,-113"/>
<text text-anchor="middle" x="543" y="-119" font-family="Helvetica,sans-Serif" font-size="10.00">include/Sensor.hpp</text>
</a>
</g>
</g>
<!-- Node3&#45;&gt;Node13 -->
<g id="edge15" class="edge"><title>Node3&#45;&gt;Node13</title>
<path fill="none" stroke="midnightblue" d="M702.439,-166.265C664.207,-155.89 607.155,-140.409 572.671,-131.051"/>
<polygon fill="midnightblue" stroke="midnightblue" points="701.64,-169.675 712.208,-168.916 703.473,-162.919 701.64,-169.675"/>
</g>
<!-- Node14 -->
<g id="node14" class="node"><title>Node14</title>
<g id="a_node14"><a xlink:href="_font_8hpp_source.html" target="_top" xlink:title="include/Ui/Font.hpp">
<polygon fill="none" stroke="black" points="611.919,-113 611.919,-131 714.081,-131 714.081,-113 611.919,-113"/>
<text text-anchor="middle" x="663" y="-119" font-family="Helvetica,sans-Serif" font-size="10.00">include/Ui/Font.hpp</text>
</a>
</g>
</g>
<!-- Node3&#45;&gt;Node14 -->
<g id="edge17" class="edge"><title>Node3&#45;&gt;Node14</title>
<path fill="none" stroke="midnightblue" d="M721.484,-162.976C706.663,-152.846 687.164,-139.517 674.852,-131.102"/>
<polygon fill="midnightblue" stroke="midnightblue" points="719.771,-166.045 730.002,-168.799 723.721,-160.266 719.771,-166.045"/>
</g>
<!-- Node5&#45;&gt;Node6 -->
<g id="edge5" class="edge"><title>Node5&#45;&gt;Node6</title>
<path fill="none" stroke="midnightblue" d="M833.954,-104.732C841.715,-94.9855 851.251,-83.0108 857.469,-75.2014"/>
<polygon fill="midnightblue" stroke="midnightblue" points="831.21,-102.559 827.719,-112.562 836.686,-106.92 831.21,-102.559"/>
</g>
<!-- Node6&#45;&gt;Node4 -->
<g id="edge6" class="edge"><title>Node6&#45;&gt;Node4</title>
<path fill="none" stroke="midnightblue" d="M864,-46.3288C864,-37.0774 864,-26.3798 864,-19.2014"/>
<polygon fill="midnightblue" stroke="midnightblue" points="860.5,-46.5625 864,-56.5625 867.5,-46.5625 860.5,-46.5625"/>
</g>
<!-- Node7&#45;&gt;Node4 -->
<g id="edge9" class="edge"><title>Node7&#45;&gt;Node4</title>
<path fill="none" stroke="midnightblue" d="M976.146,-104.053C966.664,-90.093 951.95,-70.333 936,-56 918.786,-40.5314 895.606,-27.1109 880.252,-19.0443"/>
<polygon fill="midnightblue" stroke="midnightblue" points="973.394,-106.238 981.825,-112.654 979.235,-102.38 973.394,-106.238"/>
</g>
<!-- Node7&#45;&gt;Node8 -->
<g id="edge10" class="edge"><title>Node7&#45;&gt;Node8</title>
<path fill="none" stroke="midnightblue" d="M1007.52,-106.976C1022.34,-96.8457 1041.84,-83.5171 1054.15,-75.1017"/>
<polygon fill="midnightblue" stroke="midnightblue" points="1005.28,-104.266 998.998,-112.799 1009.23,-110.045 1005.28,-104.266"/>
</g>
<!-- Node16 -->
<g id="node16" class="node"><title>Node16</title>
<g id="a_node16"><a xlink:href="_map_file_8hpp_source.html" target="_top" xlink:title="include/MapFile.hpp">
<polygon fill="none" stroke="black" points="1296.25,-113 1296.25,-131 1401.75,-131 1401.75,-113 1296.25,-113"/>
<text text-anchor="middle" x="1349" y="-119" font-family="Helvetica,sans-Serif" font-size="10.00">include/MapFile.hpp</text>
</a>
</g>
</g>
<!-- Node15&#45;&gt;Node16 -->
<g id="edge19" class="edge"><title>Node15&#45;&gt;Node16</title>
<path fill="none" stroke="midnightblue" d="M1341.74,-158.633C1343.64,-149.313 1345.85,-138.459 1347.33,-131.201"/>
<polygon fill="midnightblue" stroke="midnightblue" points="1338.29,-158.065 1339.72,-168.562 1345.14,-159.462 1338.29,-158.065"/>
</g>
<!-- Node16&#45;&gt;Node17 -->
<g id="edge20" class="edge"><title>Node16&#45;&gt;Node17</title>
<path fill="none" stroke="midnightblue" d="M1349,-102.329C1349,-93.0774 1349,-82.3798 1349,-75.2014"/>
<polygon fill="midnightblue" stroke="midnightblue" points="1345.5,-102.562 1349,-112.562 1352.5,-102.563 1345.5,-102.562"/>
</g>
<!-- Node19 -->
<g id="node19" class="node"><title>Node19</title>
<g id="a_node19"><a xlink:href="_message_list_8hpp_source.html" target="_top" xlink:title="include/Ui/MessageList.hpp">
<polygon fill="none" stroke="black" points="1139.85,-113 1139.85,-131 1278.15,-131 1278.15,-113 1139.85,-113"/>
<text text-anchor="middle" x="1209" y="-119" font-family="Helvetica,sans-Serif" font-size="10.00">include/Ui/MessageList.hpp</text>
</a>
</g>
</g>
<!-- Node18&#45;&gt;Node19 -->
<g id="edge22" class="edge"><title>Node18&#45;&gt;Node19</title>
<path fill="none" stroke="midnightblue" d="M1206.38,-158.329C1207.07,-149.077 1207.86,-138.38 1208.39,-131.201"/>
<polygon fill="midnightblue" stroke="midnightblue" points="1202.87,-158.331 1205.62,-168.562 1209.85,-158.848 1202.87,-158.331"/>
</g>
<!-- Node20&#45;&gt;Node15 -->
<g id="edge25" class="edge"><title>Node20&#45;&gt;Node15</title>
<path fill="none" stroke="midnightblue" d="M1360.51,-215.84C1354.66,-206.264 1347.64,-194.774 1343.01,-187.201"/>
<polygon fill="midnightblue" stroke="midnightblue" points="1357.64,-217.855 1365.84,-224.562 1363.62,-214.205 1357.64,-217.855"/>
</g>
<!-- Node20&#45;&gt;Node17 -->
<g id="edge26" class="edge"><title>Node20&#45;&gt;Node17</title>
<path fill="none" stroke="midnightblue" d="M1384,-216.717C1401.35,-192.879 1427.91,-147.464 1410,-112 1401.28,-94.7313 1382.46,-82.4569 1368.02,-75.1351"/>
<polygon fill="midnightblue" stroke="midnightblue" points="1381.18,-214.65 1377.92,-224.731 1386.75,-218.883 1381.18,-214.65"/>
</g>
</g>
</svg>
