<?xml version="1.0" encoding="UTF-8" standalone="no"?>
<!DOCTYPE svg PUBLIC "-//W3C//DTD SVG 1.1//EN"
 "http://www.w3.org/Graphics/SVG/1.1/DTD/svg11.dtd">
<!-- Generated by graphviz version 2.36.0 (20140111.2315)
 -->
<!-- Title: include/iface/location.h Pages: 1 -->
<svg width="1711pt" height="308pt"
 viewBox="0.00 0.00 1711.00 308.00" xmlns="http://www.w3.org/2000/svg" xmlns:xlink="http://www.w3.org/1999/xlink">
<g id="graph0" class="graph" transform="scale(1 1) rotate(0) translate(4 304)">
<title>include/iface/location.h</title>
<!-- Node1 -->
<g id="node1" class="node"><title>Node1</title>
<polygon fill="#bfbfbf" stroke="black" points="1200.41,-281 1200.41,-299 1317.59,-299 1317.59,-281 1200.41,-281"/>
<text text-anchor="middle" x="1259" y="-287" font-family="Helvetica,sans-Serif" font-size="10.00">include/iface/location.h</text>
</g>
<!-- Node2 -->
<g id="node2" class="node"><title>Node2</title>
<g id="a_node2"><a xlink:href="message_8h_source.html" target="_top" xlink:title="include/iface/message.h">
<polygon fill="none" stroke="black" points="984.357,-225 984.357,-243 1107.64,-243 1107.64,-225 984.357,-225"/>
<text text-anchor="middle" x="1046" y="-231" font-family="Helvetica,sans-Serif" font-size="10.00">include/iface/message.h</text>
</a>
</g>
</g>
<!-- Node1&#45;&gt;Node2 -->
<g id="edge1" class="edge"><title>Node1&#45;&gt;Node2</title>
<path fill="none" stroke="midnightblue" d="M1217.18,-278.397C1176.25,-268.022 1114.83,-252.449 1077.76,-243.051"/>
<polygon fill="midnightblue" stroke="midnightblue" points="1216.56,-281.851 1227.11,-280.916 1218.28,-275.065 1216.56,-281.851"/>
</g>
<!-- Node3 -->
<g id="node3" class="node"><title>Node3</title>
<g id="a_node3"><a xlink:href="sys_8h.html" target="_top" xlink:title="include/iface/sys.h">
<polygon fill="none" stroke="black" points="495.146,-169 495.146,-187 592.854,-187 592.854,-169 495.146,-169"/>
<text text-anchor="middle" x="544" y="-175" font-family="Helvetica,sans-Serif" font-size="10.00">include/iface/sys.h</text>
</a>
</g>
</g>
<!-- Node1&#45;&gt;Node3 -->
<g id="edge22" class="edge"><title>Node1&#45;&gt;Node3</title>
<path fill="none" stroke="midnightblue" d="M1196.57,-279.395C1056.43,-257.835 719.233,-205.959 592.895,-186.522"/>
<polygon fill="midnightblue" stroke="midnightblue" points="1196.3,-282.895 1206.71,-280.956 1197.36,-275.976 1196.3,-282.895"/>
</g>
<!-- Node14 -->
<g id="node14" class="node"><title>Node14</title>
<g id="a_node14"><a xlink:href="_app_file_8hpp_source.html" target="_top" xlink:title="include/AppFile.hpp">
<polygon fill="none" stroke="black" points="1126.08,-169 1126.08,-187 1229.92,-187 1229.92,-169 1126.08,-169"/>
<text text-anchor="middle" x="1178" y="-175" font-family="Helvetica,sans-Serif" font-size="10.00">include/AppFile.hpp</text>
</a>
</g>
</g>
<!-- Node1&#45;&gt;Node14 -->
<g id="edge26" class="edge"><title>Node1&#45;&gt;Node14</title>
<path fill="none" stroke="midnightblue" d="M1206.87,-277.664C1188.89,-270.986 1170.61,-260.474 1160,-244 1148.34,-225.885 1162.74,-200.231 1171.76,-187.234"/>
<polygon fill="midnightblue" stroke="midnightblue" points="1206.19,-281.126 1216.78,-280.992 1208.42,-274.491 1206.19,-281.126"/>
</g>
<!-- Node16 -->
<g id="node16" class="node"><title>Node16</title>
<g id="a_node16"><a xlink:href="_map_8hpp_source.html" target="_top" xlink:title="include/Ui/Map.hpp">
<polygon fill="none" stroke="black" points="1210.2,-57 1210.2,-75 1311.8,-75 1311.8,-57 1210.2,-57"/>
<text text-anchor="middle" x="1261" y="-63" font-family="Helvetica,sans-Serif" font-size="10.00">include/Ui/Map.hpp</text>
</a>
</g>
</g>
<!-- Node1&#45;&gt;Node16 -->
<g id="edge30" class="edge"><title>Node1&#45;&gt;Node16</title>
<path fill="none" stroke="midnightblue" d="M1269.12,-271.929C1273.38,-263.773 1277.85,-253.694 1280,-244 1294.19,-180.035 1271.85,-100.627 1263.75,-75.2201"/>
<polygon fill="midnightblue" stroke="midnightblue" points="1266,-270.331 1264.19,-280.769 1272.12,-273.74 1266,-270.331"/>
</g>
<!-- Node19 -->
<g id="node19" class="node"><title>Node19</title>
<g id="a_node19"><a xlink:href="map_8h_source.html" target="_top" xlink:title="include/iface/map.h">
<polygon fill="none" stroke="black" points="1168.92,-225 1168.92,-243 1271.08,-243 1271.08,-225 1168.92,-225"/>
<text text-anchor="middle" x="1220" y="-231" font-family="Helvetica,sans-Serif" font-size="10.00">include/iface/map.h</text>
</a>
</g>
</g>
<!-- Node1&#45;&gt;Node19 -->
<g id="edge23" class="edge"><title>Node1&#45;&gt;Node19</title>
<path fill="none" stroke="midnightblue" d="M1247.04,-272.436C1240.04,-262.744 1231.51,-250.932 1225.92,-243.201"/>
<polygon fill="midnightblue" stroke="midnightblue" points="1244.21,-274.505 1252.91,-280.562 1249.89,-270.406 1244.21,-274.505"/>
</g>
<!-- Node20 -->
<g id="node20" class="node"><title>Node20</title>
<g id="a_node20"><a xlink:href="_gpx_reader_8hpp_source.html" target="_top" xlink:title="include/GpxReader.hpp">
<polygon fill="none" stroke="black" points="1326.74,-225 1326.74,-243 1447.26,-243 1447.26,-225 1326.74,-225"/>
<text text-anchor="middle" x="1387" y="-231" font-family="Helvetica,sans-Serif" font-size="10.00">include/GpxReader.hpp</text>
</a>
</g>
</g>
<!-- Node1&#45;&gt;Node20 -->
<g id="edge27" class="edge"><title>Node1&#45;&gt;Node20</title>
<path fill="none" stroke="midnightblue" d="M1287.62,-276.926C1312.03,-266.629 1346.44,-252.11 1367.71,-243.14"/>
<polygon fill="midnightblue" stroke="midnightblue" points="1286.02,-273.804 1278.16,-280.916 1288.74,-280.253 1286.02,-273.804"/>
</g>
<!-- Node21 -->
<g id="node21" class="node"><title>Node21</title>
<g id="a_node21"><a xlink:href="coproc_8h_source.html" target="_top" xlink:title="include/iface/coproc.h">
<polygon fill="none" stroke="black" points="1465.64,-225 1465.64,-243 1578.36,-243 1578.36,-225 1465.64,-225"/>
<text text-anchor="middle" x="1522" y="-231" font-family="Helvetica,sans-Serif" font-size="10.00">include/iface/coproc.h</text>
</a>
</g>
</g>
<!-- Node1&#45;&gt;Node21 -->
<g id="edge28" class="edge"><title>Node1&#45;&gt;Node21</title>
<path fill="none" stroke="midnightblue" d="M1308.11,-278.916C1358.58,-268.554 1436.15,-252.628 1482.7,-243.07"/>
<polygon fill="midnightblue" stroke="midnightblue" points="1307.18,-275.534 1298.09,-280.974 1308.59,-282.391 1307.18,-275.534"/>
</g>
<!-- Node22 -->
<g id="node22" class="node"><title>Node22</title>
<g id="a_node22"><a xlink:href="_location_8hpp_source.html" target="_top" xlink:title="include/Location.hpp">
<polygon fill="none" stroke="black" points="1596.13,-225 1596.13,-243 1703.87,-243 1703.87,-225 1596.13,-225"/>
<text text-anchor="middle" x="1650" y="-231" font-family="Helvetica,sans-Serif" font-size="10.00">include/Location.hpp</text>
</a>
</g>
</g>
<!-- Node1&#45;&gt;Node22 -->
<g id="edge29" class="edge"><title>Node1&#45;&gt;Node22</title>
<path fill="none" stroke="midnightblue" d="M1327.59,-279.702C1393.96,-270.679 1497.39,-256.547 1587,-244 1589.95,-243.586 1592.99,-243.16 1596.05,-242.728"/>
<polygon fill="midnightblue" stroke="midnightblue" points="1327.11,-276.236 1317.67,-281.05 1328.05,-283.172 1327.11,-276.236"/>
</g>
<!-- Node2&#45;&gt;Node3 -->
<g id="edge2" class="edge"><title>Node2&#45;&gt;Node3</title>
<path fill="none" stroke="midnightblue" d="M974.143,-225.27C870.641,-214.137 682.273,-193.874 593.192,-184.292"/>
<polygon fill="midnightblue" stroke="midnightblue" points="973.876,-228.762 984.193,-226.351 974.625,-221.802 973.876,-228.762"/>
</g>
<!-- Node2&#45;&gt;Node14 -->
<g id="edge17" class="edge"><title>Node2&#45;&gt;Node14</title>
<path fill="none" stroke="midnightblue" d="M1075.18,-221.063C1100.37,-210.758 1136.08,-196.15 1158.1,-187.14"/>
<polygon fill="midnightblue" stroke="midnightblue" points="1073.69,-217.89 1065.76,-224.916 1076.34,-224.369 1073.69,-217.89"/>
</g>
<!-- Node17 -->
<g id="node17" class="node"><title>Node17</title>
<g id="a_node17"><a xlink:href="_message_8hpp_source.html" target="_top" xlink:title="include/Message.hpp">
<polygon fill="none" stroke="black" points="987.747,-169 987.747,-187 1098.25,-187 1098.25,-169 987.747,-169"/>
<text text-anchor="middle" x="1043" y="-175" font-family="Helvetica,sans-Serif" font-size="10.00">include/Message.hpp</text>
</a>
</g>
</g>
<!-- Node2&#45;&gt;Node17 -->
<g id="edge20" class="edge"><title>Node2&#45;&gt;Node17</title>
<path fill="none" stroke="midnightblue" d="M1044.96,-214.329C1044.45,-205.077 1043.85,-194.38 1043.46,-187.201"/>
<polygon fill="midnightblue" stroke="midnightblue" points="1041.48,-214.772 1045.53,-224.562 1048.47,-214.384 1041.48,-214.772"/>
</g>
<!-- Node4 -->
<g id="node4" class="node"><title>Node4</title>
<g id="a_node4"><a xlink:href="_app_controller_8hpp_source.html" target="_top" xlink:title="include/AppController.hpp">
<polygon fill="none" stroke="red" points="392.737,-1 392.737,-19 523.263,-19 523.263,-1 392.737,-1"/>
<text text-anchor="middle" x="458" y="-7" font-family="Helvetica,sans-Serif" font-size="10.00">include/AppController.hpp</text>
</a>
</g>
</g>
<!-- Node3&#45;&gt;Node4 -->
<g id="edge3" class="edge"><title>Node3&#45;&gt;Node4</title>
<path fill="none" stroke="midnightblue" d="M485.142,-167.786C445.459,-160.234 398.199,-148.158 386,-132 365.648,-105.042 369.626,-85.5435 386,-56 396.076,-37.8212 416.894,-26.0163 433.565,-19.0788"/>
<polygon fill="midnightblue" stroke="midnightblue" points="484.573,-171.24 495.041,-169.609 485.84,-164.356 484.573,-171.24"/>
</g>
<!-- Node5 -->
<g id="node5" class="node"><title>Node5</title>
<g id="a_node5"><a xlink:href="_icon_8hpp_source.html" target="_top" xlink:title="include/Ui/Icon.hpp">
<polygon fill="none" stroke="red" points="395.473,-113 395.473,-131 496.527,-131 496.527,-113 395.473,-113"/>
<text text-anchor="middle" x="446" y="-119" font-family="Helvetica,sans-Serif" font-size="10.00">include/Ui/Icon.hpp</text>
</a>
</g>
</g>
<!-- Node3&#45;&gt;Node5 -->
<g id="edge4" class="edge"><title>Node3&#45;&gt;Node5</title>
<path fill="none" stroke="midnightblue" d="M520.352,-163.969C501.772,-153.731 476.48,-139.795 460.703,-131.102"/>
<polygon fill="midnightblue" stroke="midnightblue" points="518.668,-167.038 529.116,-168.799 522.047,-160.907 518.668,-167.038"/>
</g>
<!-- Node6 -->
<g id="node6" class="node"><title>Node6</title>
<g id="a_node6"><a xlink:href="_button_bar_8hpp_source.html" target="_top" xlink:title="include/Ui/ButtonBar.hpp">
<polygon fill="none" stroke="red" points="394.961,-57 394.961,-75 521.039,-75 521.039,-57 394.961,-57"/>
<text text-anchor="middle" x="458" y="-63" font-family="Helvetica,sans-Serif" font-size="10.00">include/Ui/ButtonBar.hpp</text>
</a>
</g>
</g>
<!-- Node3&#45;&gt;Node6 -->
<g id="edge7" class="edge"><title>Node3&#45;&gt;Node6</title>
<path fill="none" stroke="midnightblue" d="M535.319,-159.801C528.082,-146.208 517.04,-127.079 505,-112 493.722,-97.8751 478.182,-83.8282 468.113,-75.2793"/>
<polygon fill="midnightblue" stroke="midnightblue" points="532.356,-161.691 540.066,-168.958 538.571,-158.469 532.356,-161.691"/>
</g>
<!-- Node7 -->
<g id="node7" class="node"><title>Node7</title>
<g id="a_node7"><a xlink:href="_hio_control_8hpp_source.html" target="_top" xlink:title="include/HioControl.hpp">
<polygon fill="none" stroke="black" points="591.414,-113 591.414,-131 708.586,-131 708.586,-113 591.414,-113"/>
<text text-anchor="middle" x="650" y="-119" font-family="Helvetica,sans-Serif" font-size="10.00">include/HioControl.hpp</text>
</a>
</g>
</g>
<!-- Node3&#45;&gt;Node7 -->
<g id="edge8" class="edge"><title>Node3&#45;&gt;Node7</title>
<path fill="none" stroke="midnightblue" d="M569.03,-164.249C589.175,-153.986 616.876,-139.874 634.097,-131.102"/>
<polygon fill="midnightblue" stroke="midnightblue" points="567.421,-161.141 560.099,-168.799 570.598,-167.378 567.421,-161.141"/>
</g>
<!-- Node8 -->
<g id="node8" class="node"><title>Node8</title>
<g id="a_node8"><a xlink:href="_sys_8hpp_source.html" target="_top" xlink:title="include/Sys.hpp">
<polygon fill="none" stroke="red" points="538.7,-57 538.7,-75 625.3,-75 625.3,-57 538.7,-57"/>
<text text-anchor="middle" x="582" y="-63" font-family="Helvetica,sans-Serif" font-size="10.00">include/Sys.hpp</text>
</a>
</g>
</g>
<!-- Node3&#45;&gt;Node8 -->
<g id="edge15" class="edge"><title>Node3&#45;&gt;Node8</title>
<path fill="none" stroke="midnightblue" d="M550.216,-159.006C558.589,-134.768 573.142,-92.6422 579.214,-75.0649"/>
<polygon fill="midnightblue" stroke="midnightblue" points="546.813,-158.137 546.856,-168.732 553.43,-160.423 546.813,-158.137"/>
</g>
<!-- Node9 -->
<g id="node9" class="node"><title>Node9</title>
<g id="a_node9"><a xlink:href="_button_8hpp_source.html" target="_top" xlink:title="include/Button.hpp">
<polygon fill="none" stroke="black" points="726.579,-113 726.579,-131 825.421,-131 825.421,-113 726.579,-113"/>
<text text-anchor="middle" x="776" y="-119" font-family="Helvetica,sans-Serif" font-size="10.00">include/Button.hpp</text>
</a>
</g>
</g>
<!-- Node3&#45;&gt;Node9 -->
<g id="edge11" class="edge"><title>Node3&#45;&gt;Node9</title>
<path fill="none" stroke="midnightblue" d="M588.446,-166.655C632.982,-156.289 700.61,-140.548 741.328,-131.07"/>
<polygon fill="midnightblue" stroke="midnightblue" points="587.428,-163.298 578.482,-168.974 589.015,-170.116 587.428,-163.298"/>
</g>
<!-- Node10 -->
<g id="node10" class="node"><title>Node10</title>
<g id="a_node10"><a xlink:href="_measure_8hpp_source.html" target="_top" xlink:title="include/Measure.hpp">
<polygon fill="none" stroke="black" points="843.582,-113 843.582,-131 952.418,-131 952.418,-113 843.582,-113"/>
<text text-anchor="middle" x="898" y="-119" font-family="Helvetica,sans-Serif" font-size="10.00">include/Measure.hpp</text>
</a>
</g>
</g>
<!-- Node3&#45;&gt;Node10 -->
<g id="edge12" class="edge"><title>Node3&#45;&gt;Node10</title>
<path fill="none" stroke="midnightblue" d="M603.304,-167.954C671.002,-157.627 780.709,-140.892 845.45,-131.016"/>
<polygon fill="midnightblue" stroke="midnightblue" points="602.58,-164.523 593.222,-169.492 603.636,-171.443 602.58,-164.523"/>
</g>
<!-- Node11 -->
<g id="node11" class="node"><title>Node11</title>
<g id="a_node11"><a xlink:href="_motion_8hpp_source.html" target="_top" xlink:title="include/Motion.hpp">
<polygon fill="none" stroke="black" points="-0.972656,-113 -0.972656,-131 98.9727,-131 98.9727,-113 -0.972656,-113"/>
<text text-anchor="middle" x="49" y="-119" font-family="Helvetica,sans-Serif" font-size="10.00">include/Motion.hpp</text>
</a>
</g>
</g>
<!-- Node3&#45;&gt;Node11 -->
<g id="edge13" class="edge"><title>Node3&#45;&gt;Node11</title>
<path fill="none" stroke="midnightblue" d="M484.76,-171.805C400.793,-164.232 242.414,-149.178 108,-132 105.122,-131.632 102.168,-131.237 99.1888,-130.825"/>
<polygon fill="midnightblue" stroke="midnightblue" points="484.598,-175.304 494.871,-172.713 485.224,-168.332 484.598,-175.304"/>
</g>
<!-- Node12 -->
<g id="node12" class="node"><title>Node12</title>
<g id="a_node12"><a xlink:href="_sensor_8hpp_source.html" target="_top" xlink:title="include/Sensor.hpp">
<polygon fill="none" stroke="black" points="117.466,-113 117.466,-131 218.534,-131 218.534,-113 117.466,-113"/>
<text text-anchor="middle" x="168" y="-119" font-family="Helvetica,sans-Serif" font-size="10.00">include/Sensor.hpp</text>
</a>
</g>
</g>
<!-- Node3&#45;&gt;Node12 -->
<g id="edge14" class="edge"><title>Node3&#45;&gt;Node12</title>
<path fill="none" stroke="midnightblue" d="M484.77,-168.699C421.259,-159.767 317.467,-145.08 228,-132 224.978,-131.558 221.87,-131.101 218.735,-130.637"/>
<polygon fill="midnightblue" stroke="midnightblue" points="484.603,-172.21 494.993,-170.136 485.577,-165.278 484.603,-172.21"/>
</g>
<!-- Node13 -->
<g id="node13" class="node"><title>Node13</title>
<g id="a_node13"><a xlink:href="_font_8hpp_source.html" target="_top" xlink:title="include/Ui/Font.hpp">
<polygon fill="none" stroke="black" points="236.919,-113 236.919,-131 339.081,-131 339.081,-113 236.919,-113"/>
<text text-anchor="middle" x="288" y="-119" font-family="Helvetica,sans-Serif" font-size="10.00">include/Ui/Font.hpp</text>
</a>
</g>
</g>
<!-- Node3&#45;&gt;Node13 -->
<g id="edge16" class="edge"><title>Node3&#45;&gt;Node13</title>
<path fill="none" stroke="midnightblue" d="M495.885,-166.851C446.757,-156.488 371.473,-140.608 326.258,-131.07"/>
<polygon fill="midnightblue" stroke="midnightblue" points="495.444,-170.335 505.951,-168.974 496.888,-163.485 495.444,-170.335"/>
</g>
<!-- Node5&#45;&gt;Node6 -->
<g id="edge5" class="edge"><title>Node5&#45;&gt;Node6</title>
<path fill="none" stroke="midnightblue" d="M450.081,-102.633C452.153,-93.3129 454.565,-82.4586 456.177,-75.2014"/>
<polygon fill="midnightblue" stroke="midnightblue" points="446.628,-102.041 447.875,-112.562 453.461,-103.56 446.628,-102.041"/>
</g>
<!-- Node6&#45;&gt;Node4 -->
<g id="edge6" class="edge"><title>Node6&#45;&gt;Node4</title>
<path fill="none" stroke="midnightblue" d="M458,-46.3288C458,-37.0774 458,-26.3798 458,-19.2014"/>
<polygon fill="midnightblue" stroke="midnightblue" points="454.5,-46.5625 458,-56.5625 461.5,-46.5625 454.5,-46.5625"/>
</g>
<!-- Node7&#45;&gt;Node4 -->
<g id="edge9" class="edge"><title>Node7&#45;&gt;Node4</title>
<path fill="none" stroke="midnightblue" d="M650.33,-102.679C649.579,-88.1247 646.136,-68.2449 634,-56 617.294,-39.1434 559.402,-26.5538 514.524,-19.04"/>
<polygon fill="midnightblue" stroke="midnightblue" points="646.834,-103.011 650.468,-112.963 653.833,-102.916 646.834,-103.011"/>
</g>
<!-- Node7&#45;&gt;Node8 -->
<g id="edge10" class="edge"><title>Node7&#45;&gt;Node8</title>
<path fill="none" stroke="midnightblue" d="M631.665,-106.44C619.086,-96.4506 602.846,-83.554 592.425,-75.2786"/>
<polygon fill="midnightblue" stroke="midnightblue" points="629.665,-109.321 639.672,-112.799 634.018,-103.839 629.665,-109.321"/>
</g>
<!-- Node15 -->
<g id="node15" class="node"><title>Node15</title>
<g id="a_node15"><a xlink:href="_map_file_8hpp_source.html" target="_top" xlink:title="include/MapFile.hpp">
<polygon fill="none" stroke="black" points="1127.25,-113 1127.25,-131 1232.75,-131 1232.75,-113 1127.25,-113"/>
<text text-anchor="middle" x="1180" y="-119" font-family="Helvetica,sans-Serif" font-size="10.00">include/MapFile.hpp</text>
</a>
</g>
</g>
<!-- Node14&#45;&gt;Node15 -->
<g id="edge18" class="edge"><title>Node14&#45;&gt;Node15</title>
<path fill="none" stroke="midnightblue" d="M1178.69,-158.329C1179.03,-149.077 1179.43,-138.38 1179.7,-131.201"/>
<polygon fill="midnightblue" stroke="midnightblue" points="1175.19,-158.44 1178.31,-168.562 1182.18,-158.699 1175.19,-158.44"/>
</g>
<!-- Node15&#45;&gt;Node16 -->
<g id="edge19" class="edge"><title>Node15&#45;&gt;Node16</title>
<path fill="none" stroke="midnightblue" d="M1201.04,-106.976C1216.23,-96.8457 1236.22,-83.5171 1248.85,-75.1017"/>
<polygon fill="midnightblue" stroke="midnightblue" points="1198.68,-104.339 1192.3,-112.799 1202.56,-110.164 1198.68,-104.339"/>
</g>
<!-- Node18 -->
<g id="node18" class="node"><title>Node18</title>
<g id="a_node18"><a xlink:href="_message_list_8hpp_source.html" target="_top" xlink:title="include/Ui/MessageList.hpp">
<polygon fill="none" stroke="black" points="970.855,-113 970.855,-131 1109.15,-131 1109.15,-113 970.855,-113"/>
<text text-anchor="middle" x="1040" y="-119" font-family="Helvetica,sans-Serif" font-size="10.00">include/Ui/MessageList.hpp</text>
</a>
</g>
</g>
<!-- Node17&#45;&gt;Node18 -->
<g id="edge21" class="edge"><title>Node17&#45;&gt;Node18</title>
<path fill="none" stroke="midnightblue" d="M1041.96,-158.329C1041.45,-149.077 1040.85,-138.38 1040.46,-131.201"/>
<polygon fill="midnightblue" stroke="midnightblue" points="1038.48,-158.772 1042.53,-168.562 1045.47,-158.384 1038.48,-158.772"/>
</g>
<!-- Node19&#45;&gt;Node14 -->
<g id="edge24" class="edge"><title>Node19&#45;&gt;Node14</title>
<path fill="none" stroke="midnightblue" d="M1207.12,-216.436C1199.58,-206.744 1190.39,-194.932 1184.38,-187.201"/>
<polygon fill="midnightblue" stroke="midnightblue" points="1204.54,-218.818 1213.44,-224.562 1210.06,-214.52 1204.54,-218.818"/>
</g>
<!-- Node19&#45;&gt;Node16 -->
<g id="edge25" class="edge"><title>Node19&#45;&gt;Node16</title>
<path fill="none" stroke="midnightblue" d="M1227.87,-215.604C1231.36,-207.367 1235.28,-197.314 1238,-188 1250.17,-146.333 1257.5,-94.6626 1260.02,-75.0537"/>
<polygon fill="midnightblue" stroke="midnightblue" points="1224.61,-214.31 1223.8,-224.874 1231.03,-217.121 1224.61,-214.31"/>
</g>
</g>
</svg>
