<?xml version="1.0" encoding="UTF-8" standalone="no"?>
<!DOCTYPE svg PUBLIC "-//W3C//DTD SVG 1.1//EN"
 "http://www.w3.org/Graphics/SVG/1.1/DTD/svg11.dtd">
<!-- Generated by graphviz version 2.36.0 (20140111.2315)
 -->
<!-- Title: include/iface/location.h Pages: 1 -->
<svg width="603pt" height="196pt"
 viewBox="0.00 0.00 603.00 196.00" xmlns="http://www.w3.org/2000/svg" xmlns:xlink="http://www.w3.org/1999/xlink">
<g id="graph0" class="graph" transform="scale(1 1) rotate(0) translate(4 192)">
<title>include/iface/location.h</title>
<!-- Node1 -->
<g id="node1" class="node"><title>Node1</title>
<polygon fill="#bfbfbf" stroke="black" points="207.412,-169 207.412,-187 324.588,-187 324.588,-169 207.412,-169"/>
<text text-anchor="middle" x="266" y="-175" font-family="Helvetica,sans-Serif" font-size="10.00">include/iface/location.h</text>
</g>
<!-- Node2 -->
<g id="node2" class="node"><title>Node2</title>
<g id="a_node2"><a xlink:href="_gpx_reader_8hpp_source.html" target="_top" xlink:title="include/GpxReader.hpp">
<polygon fill="none" stroke="black" points="-0.260742,-113 -0.260742,-131 120.261,-131 120.261,-113 -0.260742,-113"/>
<text text-anchor="middle" x="60" y="-119" font-family="Helvetica,sans-Serif" font-size="10.00">include/GpxReader.hpp</text>
</a>
</g>
</g>
<!-- Node1&#45;&gt;Node2 -->
<g id="edge1" class="edge"><title>Node1&#45;&gt;Node2</title>
<path fill="none" stroke="midnightblue" d="M225.299,-166.331C185.722,-155.956 126.488,-140.429 90.7142,-131.051"/>
<polygon fill="midnightblue" stroke="midnightblue" points="224.599,-169.766 235.16,-168.916 226.374,-162.994 224.599,-169.766"/>
</g>
<!-- Node3 -->
<g id="node3" class="node"><title>Node3</title>
<g id="a_node3"><a xlink:href="map_8h_source.html" target="_top" xlink:title="include/iface/map.h">
<polygon fill="none" stroke="black" points="175.919,-113 175.919,-131 278.081,-131 278.081,-113 175.919,-113"/>
<text text-anchor="middle" x="227" y="-119" font-family="Helvetica,sans-Serif" font-size="10.00">include/iface/map.h</text>
</a>
</g>
</g>
<!-- Node1&#45;&gt;Node3 -->
<g id="edge2" class="edge"><title>Node1&#45;&gt;Node3</title>
<path fill="none" stroke="midnightblue" d="M254.037,-160.436C247.037,-150.744 238.506,-138.932 232.923,-131.201"/>
<polygon fill="midnightblue" stroke="midnightblue" points="251.214,-162.505 259.906,-168.562 256.889,-158.406 251.214,-162.505"/>
</g>
<!-- Node4 -->
<g id="node4" class="node"><title>Node4</title>
<g id="a_node4"><a xlink:href="_map_file_8hpp_source.html" target="_top" xlink:title="include/MapFile.hpp">
<polygon fill="none" stroke="black" points="115.251,-57 115.251,-75 220.749,-75 220.749,-57 115.251,-57"/>
<text text-anchor="middle" x="168" y="-63" font-family="Helvetica,sans-Serif" font-size="10.00">include/MapFile.hpp</text>
</a>
</g>
</g>
<!-- Node1&#45;&gt;Node4 -->
<g id="edge11" class="edge"><title>Node1&#45;&gt;Node4</title>
<path fill="none" stroke="midnightblue" d="M213.87,-165.664C195.885,-158.986 177.608,-148.474 167,-132 155.757,-114.54 161.193,-88.5998 165.139,-75.3894"/>
<polygon fill="midnightblue" stroke="midnightblue" points="213.187,-169.126 223.781,-168.992 215.416,-162.491 213.187,-169.126"/>
</g>
<!-- Node5 -->
<g id="node5" class="node"><title>Node5</title>
<g id="a_node5"><a xlink:href="_map_8hpp_source.html" target="_top" xlink:title="include/Ui/Map.hpp">
<polygon fill="none" stroke="black" points="198.197,-1 198.197,-19 299.803,-19 299.803,-1 198.197,-1"/>
<text text-anchor="middle" x="249" y="-7" font-family="Helvetica,sans-Serif" font-size="10.00">include/Ui/Map.hpp</text>
</a>
</g>
</g>
<!-- Node1&#45;&gt;Node5 -->
<g id="edge12" class="edge"><title>Node1&#45;&gt;Node5</title>
<path fill="none" stroke="midnightblue" d="M276.121,-159.929C280.384,-151.773 284.849,-141.694 287,-132 288.925,-123.322 288.591,-120.745 287,-112 280.429,-75.8727 261.645,-35.861 253.201,-19.09"/>
<polygon fill="midnightblue" stroke="midnightblue" points="273.005,-158.331 271.191,-168.769 279.119,-161.74 273.005,-158.331"/>
</g>
<!-- Node6 -->
<g id="node6" class="node"><title>Node6</title>
<g id="a_node6"><a xlink:href="message_8h_source.html" target="_top" xlink:title="include/iface/message.h">
<polygon fill="none" stroke="black" points="334.357,-113 334.357,-131 457.643,-131 457.643,-113 334.357,-113"/>
<text text-anchor="middle" x="396" y="-119" font-family="Helvetica,sans-Serif" font-size="10.00">include/iface/message.h</text>
</a>
</g>
</g>
<!-- Node1&#45;&gt;Node6 -->
<g id="edge6" class="edge"><title>Node1&#45;&gt;Node6</title>
<path fill="none" stroke="midnightblue" d="M294.738,-165.063C319.544,-154.758 354.714,-140.15 376.405,-131.14"/>
<polygon fill="midnightblue" stroke="midnightblue" points="293.355,-161.847 285.462,-168.916 296.04,-168.312 293.355,-161.847"/>
</g>
<!-- Node8 -->
<g id="node8" class="node"><title>Node8</title>
<g id="a_node8"><a xlink:href="_location_8hpp_source.html" target="_top" xlink:title="include/Location.hpp">
<polygon fill="none" stroke="black" points="477.131,-113 477.131,-131 584.869,-131 584.869,-113 477.131,-113"/>
<text text-anchor="middle" x="531" y="-119" font-family="Helvetica,sans-Serif" font-size="10.00">include/Location.hpp</text>
</a>
</g>
</g>
<!-- Node1&#45;&gt;Node8 -->
<g id="edge8" class="edge"><title>Node1&#45;&gt;Node8</title>
<path fill="none" stroke="midnightblue" d="M315.488,-166.916C366.336,-156.554 444.494,-140.628 491.397,-131.07"/>
<polygon fill="midnightblue" stroke="midnightblue" points="314.487,-163.548 305.387,-168.974 315.885,-170.407 314.487,-163.548"/>
</g>
<!-- Node3&#45;&gt;Node4 -->
<g id="edge3" class="edge"><title>Node3&#45;&gt;Node4</title>
<path fill="none" stroke="midnightblue" d="M210.459,-105.86C199.637,-95.9563 185.913,-83.3949 177.045,-75.2786"/>
<polygon fill="midnightblue" stroke="midnightblue" points="208.299,-108.629 218.039,-112.799 213.025,-103.465 208.299,-108.629"/>
</g>
<!-- Node3&#45;&gt;Node5 -->
<g id="edge5" class="edge"><title>Node3&#45;&gt;Node5</title>
<path fill="none" stroke="midnightblue" d="M230.664,-102.678C235.522,-78.3886 243.887,-36.563 247.387,-19.0649"/>
<polygon fill="midnightblue" stroke="midnightblue" points="227.183,-102.24 228.654,-112.732 234.047,-103.613 227.183,-102.24"/>
</g>
<!-- Node4&#45;&gt;Node5 -->
<g id="edge4" class="edge"><title>Node4&#45;&gt;Node5</title>
<path fill="none" stroke="midnightblue" d="M189.035,-50.9765C204.231,-40.8457 224.224,-27.5171 236.847,-19.1017"/>
<polygon fill="midnightblue" stroke="midnightblue" points="186.681,-48.3393 180.302,-56.7986 190.564,-54.1637 186.681,-48.3393"/>
</g>
<!-- Node7 -->
<g id="node7" class="node"><title>Node7</title>
<g id="a_node7"><a xlink:href="_message_file_8hpp_source.html" target="_top" xlink:title="include/MessageFile.hpp">
<polygon fill="none" stroke="black" points="333.69,-57 333.69,-75 460.31,-75 460.31,-57 333.69,-57"/>
<text text-anchor="middle" x="397" y="-63" font-family="Helvetica,sans-Serif" font-size="10.00">include/MessageFile.hpp</text>
</a>
</g>
</g>
<!-- Node6&#45;&gt;Node7 -->
<g id="edge7" class="edge"><title>Node6&#45;&gt;Node7</title>
<path fill="none" stroke="midnightblue" d="M396.346,-102.329C396.517,-93.0774 396.715,-82.3798 396.848,-75.2014"/>
<polygon fill="midnightblue" stroke="midnightblue" points="392.842,-102.499 396.156,-112.562 399.841,-102.629 392.842,-102.499"/>
</g>
<!-- Node9 -->
<g id="node9" class="node"><title>Node9</title>
<g id="a_node9"><a xlink:href="_map_item_8hpp_source.html" target="_top" xlink:title="include/MapItem.hpp">
<polygon fill="none" stroke="black" points="478.584,-57 478.584,-75 587.416,-75 587.416,-57 478.584,-57"/>
<text text-anchor="middle" x="533" y="-63" font-family="Helvetica,sans-Serif" font-size="10.00">include/MapItem.hpp</text>
</a>
</g>
</g>
<!-- Node8&#45;&gt;Node9 -->
<g id="edge9" class="edge"><title>Node8&#45;&gt;Node9</title>
<path fill="none" stroke="midnightblue" d="M531.692,-102.329C532.034,-93.0774 532.43,-82.3798 532.696,-75.2014"/>
<polygon fill="midnightblue" stroke="midnightblue" points="528.185,-102.44 531.312,-112.562 535.18,-102.699 528.185,-102.44"/>
</g>
<!-- Node10 -->
<g id="node10" class="node"><title>Node10</title>
<g id="a_node10"><a xlink:href="_map_item_file_8hpp_source.html" target="_top" xlink:title="include/MapItemFile.hpp">
<polygon fill="none" stroke="black" points="470.527,-1 470.527,-19 595.473,-19 595.473,-1 470.527,-1"/>
<text text-anchor="middle" x="533" y="-7" font-family="Helvetica,sans-Serif" font-size="10.00">include/MapItemFile.hpp</text>
</a>
</g>
</g>
<!-- Node9&#45;&gt;Node10 -->
<g id="edge10" class="edge"><title>Node9&#45;&gt;Node10</title>
<path fill="none" stroke="midnightblue" d="M533,-46.3288C533,-37.0774 533,-26.3798 533,-19.2014"/>
<polygon fill="midnightblue" stroke="midnightblue" points="529.5,-46.5625 533,-56.5625 536.5,-46.5625 529.5,-46.5625"/>
</g>
</g>
</svg>
