<?xml version="1.0" encoding="UTF-8" standalone="no"?>
<!DOCTYPE svg PUBLIC "-//W3C//DTD SVG 1.1//EN"
 "http://www.w3.org/Graphics/SVG/1.1/DTD/svg11.dtd">
<!-- Generated by graphviz version 2.36.0 (20140111.2315)
 -->
<!-- Title: include/iface/sys.h Pages: 1 -->
<svg width="1415pt" height="364pt"
 viewBox="0.00 0.00 1415.00 364.00" xmlns="http://www.w3.org/2000/svg" xmlns:xlink="http://www.w3.org/1999/xlink">
<g id="graph0" class="graph" transform="scale(1 1) rotate(0) translate(4 360)">
<title>include/iface/sys.h</title>
<!-- Node1 -->
<g id="node1" class="node"><title>Node1</title>
<polygon fill="#bfbfbf" stroke="black" points="785.146,-337 785.146,-355 882.854,-355 882.854,-337 785.146,-337"/>
<text text-anchor="middle" x="834" y="-343" font-family="Helvetica,sans-Serif" font-size="10.00">include/iface/sys.h</text>
</g>
<!-- Node2 -->
<g id="node2" class="node"><title>Node2</title>
<g id="a_node2"><a xlink:href="_app_controller_8hpp_source.html" target="_top" xlink:title="include/AppController.hpp">
<polygon fill="none" stroke="black" points="504.737,-113 504.737,-131 635.263,-131 635.263,-113 504.737,-113"/>
<text text-anchor="middle" x="570" y="-119" font-family="Helvetica,sans-Serif" font-size="10.00">include/AppController.hpp</text>
</a>
</g>
</g>
<!-- Node1&#45;&gt;Node2 -->
<g id="edge1" class="edge"><title>Node1&#45;&gt;Node2</title>
<path fill="none" stroke="midnightblue" d="M775.076,-337.326C725.979,-329.86 660.969,-317.136 641,-300 627.118,-288.087 584.291,-164.833 572.84,-131.353"/>
<polygon fill="midnightblue" stroke="midnightblue" points="774.571,-340.79 784.976,-338.795 775.598,-333.866 774.571,-340.79"/>
</g>
<!-- Node12 -->
<g id="node12" class="node"><title>Node12</title>
<g id="a_node12"><a xlink:href="_icon_8hpp_source.html" target="_top" xlink:title="include/Ui/Icon.hpp">
<polygon fill="none" stroke="black" points="342.473,-281 342.473,-299 443.527,-299 443.527,-281 342.473,-281"/>
<text text-anchor="middle" x="393" y="-287" font-family="Helvetica,sans-Serif" font-size="10.00">include/Ui/Icon.hpp</text>
</a>
</g>
</g>
<!-- Node1&#45;&gt;Node12 -->
<g id="edge11" class="edge"><title>Node1&#45;&gt;Node12</title>
<path fill="none" stroke="midnightblue" d="M775.128,-337.791C687.965,-327.118 526.052,-307.292 443.795,-297.22"/>
<polygon fill="midnightblue" stroke="midnightblue" points="774.769,-341.273 785.12,-339.015 775.62,-334.325 774.769,-341.273"/>
</g>
<!-- Node13 -->
<g id="node13" class="node"><title>Node13</title>
<g id="a_node13"><a xlink:href="_button_bar_8hpp_source.html" target="_top" xlink:title="include/Ui/ButtonBar.hpp">
<polygon fill="none" stroke="black" points="467.961,-225 467.961,-243 594.039,-243 594.039,-225 467.961,-225"/>
<text text-anchor="middle" x="531" y="-231" font-family="Helvetica,sans-Serif" font-size="10.00">include/Ui/ButtonBar.hpp</text>
</a>
</g>
</g>
<!-- Node1&#45;&gt;Node13 -->
<g id="edge21" class="edge"><title>Node1&#45;&gt;Node13</title>
<path fill="none" stroke="midnightblue" d="M774.984,-341.371C727.819,-336.597 661.057,-325.552 608,-300 578.368,-285.729 550.731,-257.364 538.14,-243.301"/>
<polygon fill="midnightblue" stroke="midnightblue" points="774.751,-344.864 785.036,-342.323 775.411,-337.895 774.751,-344.864"/>
</g>
<!-- Node17 -->
<g id="node17" class="node"><title>Node17</title>
<g id="a_node17"><a xlink:href="_hio_control_8hpp_source.html" target="_top" xlink:title="include/HioControl.hpp">
<polygon fill="none" stroke="black" points="650.414,-281 650.414,-299 767.586,-299 767.586,-281 650.414,-281"/>
<text text-anchor="middle" x="709" y="-287" font-family="Helvetica,sans-Serif" font-size="10.00">include/HioControl.hpp</text>
</a>
</g>
</g>
<!-- Node1&#45;&gt;Node17 -->
<g id="edge22" class="edge"><title>Node1&#45;&gt;Node17</title>
<path fill="none" stroke="midnightblue" d="M806.05,-332.926C782.216,-322.629 748.606,-308.11 727.842,-299.14"/>
<polygon fill="midnightblue" stroke="midnightblue" points="804.718,-336.163 815.286,-336.916 807.494,-329.737 804.718,-336.163"/>
</g>
<!-- Node18 -->
<g id="node18" class="node"><title>Node18</title>
<g id="a_node18"><a xlink:href="_sys_8hpp_source.html" target="_top" xlink:title="include/Sys.hpp">
<polygon fill="none" stroke="black" points="752.7,-225 752.7,-243 839.3,-243 839.3,-225 752.7,-225"/>
<text text-anchor="middle" x="796" y="-231" font-family="Helvetica,sans-Serif" font-size="10.00">include/Sys.hpp</text>
</a>
</g>
</g>
<!-- Node1&#45;&gt;Node18 -->
<g id="edge30" class="edge"><title>Node1&#45;&gt;Node18</title>
<path fill="none" stroke="midnightblue" d="M826.063,-327.513C822.459,-319.256 818.279,-309.213 815,-300 807.825,-279.841 801.249,-255.493 798.046,-243.1"/>
<polygon fill="midnightblue" stroke="midnightblue" points="822.942,-329.108 830.209,-336.818 829.336,-326.26 822.942,-329.108"/>
</g>
<!-- Node19 -->
<g id="node19" class="node"><title>Node19</title>
<g id="a_node19"><a xlink:href="_button_8hpp_source.html" target="_top" xlink:title="include/Button.hpp">
<polygon fill="none" stroke="black" points="823.579,-281 823.579,-299 922.421,-299 922.421,-281 823.579,-281"/>
<text text-anchor="middle" x="873" y="-287" font-family="Helvetica,sans-Serif" font-size="10.00">include/Button.hpp</text>
</a>
</g>
</g>
<!-- Node1&#45;&gt;Node19 -->
<g id="edge26" class="edge"><title>Node1&#45;&gt;Node19</title>
<path fill="none" stroke="midnightblue" d="M845.963,-328.436C852.963,-318.744 861.494,-306.932 867.077,-299.201"/>
<polygon fill="midnightblue" stroke="midnightblue" points="843.111,-326.406 840.094,-336.562 848.786,-330.505 843.111,-326.406"/>
</g>
<!-- Node20 -->
<g id="node20" class="node"><title>Node20</title>
<g id="a_node20"><a xlink:href="_measure_8hpp_source.html" target="_top" xlink:title="include/Measure.hpp">
<polygon fill="none" stroke="black" points="940.582,-281 940.582,-299 1049.42,-299 1049.42,-281 940.582,-281"/>
<text text-anchor="middle" x="995" y="-287" font-family="Helvetica,sans-Serif" font-size="10.00">include/Measure.hpp</text>
</a>
</g>
</g>
<!-- Node1&#45;&gt;Node20 -->
<g id="edge27" class="edge"><title>Node1&#45;&gt;Node20</title>
<path fill="none" stroke="midnightblue" d="M867.599,-333.731C898.504,-323.365 943.57,-308.25 970.995,-299.051"/>
<polygon fill="midnightblue" stroke="midnightblue" points="866.471,-330.417 858.103,-336.916 868.697,-337.054 866.471,-330.417"/>
</g>
<!-- Node21 -->
<g id="node21" class="node"><title>Node21</title>
<g id="a_node21"><a xlink:href="_motion_8hpp_source.html" target="_top" xlink:title="include/Motion.hpp">
<polygon fill="none" stroke="black" points="1067.03,-281 1067.03,-299 1166.97,-299 1166.97,-281 1067.03,-281"/>
<text text-anchor="middle" x="1117" y="-287" font-family="Helvetica,sans-Serif" font-size="10.00">include/Motion.hpp</text>
</a>
</g>
</g>
<!-- Node1&#45;&gt;Node21 -->
<g id="edge28" class="edge"><title>Node1&#45;&gt;Node21</title>
<path fill="none" stroke="midnightblue" d="M886.171,-335.045C940.453,-324.687 1024.41,-308.668 1074.71,-299.07"/>
<polygon fill="midnightblue" stroke="midnightblue" points="885.229,-331.662 876.062,-336.974 886.541,-338.538 885.229,-331.662"/>
</g>
<!-- Node22 -->
<g id="node22" class="node"><title>Node22</title>
<g id="a_node22"><a xlink:href="_sensor_8hpp_source.html" target="_top" xlink:title="include/Sensor.hpp">
<polygon fill="none" stroke="black" points="1185.47,-281 1185.47,-299 1286.53,-299 1286.53,-281 1185.47,-281"/>
<text text-anchor="middle" x="1236" y="-287" font-family="Helvetica,sans-Serif" font-size="10.00">include/Sensor.hpp</text>
</a>
</g>
</g>
<!-- Node1&#45;&gt;Node22 -->
<g id="edge29" class="edge"><title>Node1&#45;&gt;Node22</title>
<path fill="none" stroke="midnightblue" d="M892.971,-337.496C960.983,-328.777 1076.14,-313.816 1175,-300 1178.39,-299.526 1181.89,-299.03 1185.41,-298.524"/>
<polygon fill="midnightblue" stroke="midnightblue" points="892.352,-334.046 882.878,-338.788 893.241,-340.99 892.352,-334.046"/>
</g>
<!-- Node23 -->
<g id="node23" class="node"><title>Node23</title>
<g id="a_node23"><a xlink:href="_font_8hpp_source.html" target="_top" xlink:title="include/Ui/Font.hpp">
<polygon fill="none" stroke="black" points="1304.92,-281 1304.92,-299 1407.08,-299 1407.08,-281 1304.92,-281"/>
<text text-anchor="middle" x="1356" y="-287" font-family="Helvetica,sans-Serif" font-size="10.00">include/Ui/Font.hpp</text>
</a>
</g>
</g>
<!-- Node1&#45;&gt;Node23 -->
<g id="edge31" class="edge"><title>Node1&#45;&gt;Node23</title>
<path fill="none" stroke="midnightblue" d="M892.902,-340.184C980.653,-332.798 1150.85,-317.659 1295,-300 1298.19,-299.61 1301.47,-299.187 1304.77,-298.745"/>
<polygon fill="midnightblue" stroke="midnightblue" points="892.546,-336.702 882.873,-341.025 893.131,-343.677 892.546,-336.702"/>
</g>
<!-- Node3 -->
<g id="node3" class="node"><title>Node3</title>
<g id="a_node3"><a xlink:href="_app_8hpp_source.html" target="_top" xlink:title="include/App.hpp">
<polygon fill="none" stroke="black" points="433.138,-57 433.138,-75 520.862,-75 520.862,-57 433.138,-57"/>
<text text-anchor="middle" x="477" y="-63" font-family="Helvetica,sans-Serif" font-size="10.00">include/App.hpp</text>
</a>
</g>
</g>
<!-- Node2&#45;&gt;Node3 -->
<g id="edge2" class="edge"><title>Node2&#45;&gt;Node3</title>
<path fill="none" stroke="midnightblue" d="M546.83,-107.546C529.27,-97.3504 505.719,-83.6758 490.953,-75.1017"/>
<polygon fill="midnightblue" stroke="midnightblue" points="545.47,-110.804 555.875,-112.799 548.985,-104.75 545.47,-110.804"/>
</g>
<!-- Node4 -->
<g id="node4" class="node"><title>Node4</title>
<g id="a_node4"><a xlink:href="_app_state_8hpp_source.html" target="_top" xlink:title="include/AppState.hpp">
<polygon fill="none" stroke="black" points="304.463,-57 304.463,-75 415.537,-75 415.537,-57 304.463,-57"/>
<text text-anchor="middle" x="360" y="-63" font-family="Helvetica,sans-Serif" font-size="10.00">include/AppState.hpp</text>
</a>
</g>
</g>
<!-- Node2&#45;&gt;Node4 -->
<g id="edge3" class="edge"><title>Node2&#45;&gt;Node4</title>
<path fill="none" stroke="midnightblue" d="M528.766,-110.397C488.42,-100.022 427.856,-84.4487 391.311,-75.0513"/>
<polygon fill="midnightblue" stroke="midnightblue" points="528.004,-113.815 538.561,-112.916 529.748,-107.035 528.004,-113.815"/>
</g>
<!-- Node5 -->
<g id="node5" class="node"><title>Node5</title>
<g id="a_node5"><a xlink:href="_helper_8hpp_source.html" target="_top" xlink:title="include/Helper/Helper.hpp">
<polygon fill="none" stroke="black" points="656.461,-57 656.461,-75 787.539,-75 787.539,-57 656.461,-57"/>
<text text-anchor="middle" x="722" y="-63" font-family="Helvetica,sans-Serif" font-size="10.00">include/Helper/Helper.hpp</text>
</a>
</g>
</g>
<!-- Node2&#45;&gt;Node5 -->
<g id="edge4" class="edge"><title>Node2&#45;&gt;Node5</title>
<path fill="none" stroke="midnightblue" d="M602.452,-109.471C631.511,-99.1473 673.39,-84.2693 699.089,-75.1396"/>
<polygon fill="midnightblue" stroke="midnightblue" points="601.007,-106.27 592.756,-112.916 603.351,-112.866 601.007,-106.27"/>
</g>
<!-- Node6 -->
<g id="node6" class="node"><title>Node6</title>
<g id="a_node6"><a xlink:href="_list_item_8hpp_source.html" target="_top" xlink:title="include/Ui/ListItem.hpp">
<polygon fill="none" stroke="black" points="151.419,-57 151.419,-75 268.581,-75 268.581,-57 151.419,-57"/>
<text text-anchor="middle" x="210" y="-63" font-family="Helvetica,sans-Serif" font-size="10.00">include/Ui/ListItem.hpp</text>
</a>
</g>
</g>
<!-- Node2&#45;&gt;Node6 -->
<g id="edge5" class="edge"><title>Node2&#45;&gt;Node6</title>
<path fill="none" stroke="midnightblue" d="M506.185,-111.428C437.133,-101.07 328.247,-84.7371 263.507,-75.026"/>
<polygon fill="midnightblue" stroke="midnightblue" points="506.085,-114.952 516.493,-112.974 507.123,-108.029 506.085,-114.952"/>
</g>
<!-- Node10 -->
<g id="node10" class="node"><title>Node10</title>
<g id="a_node10"><a xlink:href="_edit_8hpp_source.html" target="_top" xlink:title="include/Ui/Edit.hpp">
<polygon fill="none" stroke="black" points="539.308,-57 539.308,-75 638.692,-75 638.692,-57 539.308,-57"/>
<text text-anchor="middle" x="589" y="-63" font-family="Helvetica,sans-Serif" font-size="10.00">include/Ui/Edit.hpp</text>
</a>
</g>
</g>
<!-- Node2&#45;&gt;Node10 -->
<g id="edge9" class="edge"><title>Node2&#45;&gt;Node10</title>
<path fill="none" stroke="midnightblue" d="M576.356,-102.937C579.659,-93.5493 583.533,-82.5375 586.114,-75.2014"/>
<polygon fill="midnightblue" stroke="midnightblue" points="572.986,-101.968 572.969,-112.562 579.589,-104.291 572.986,-101.968"/>
</g>
<!-- Node7 -->
<g id="node7" class="node"><title>Node7</title>
<g id="a_node7"><a xlink:href="_discover_8hpp_source.html" target="_top" xlink:title="include/Ui/Discover.hpp">
<polygon fill="none" stroke="black" points="149.749,-1 149.749,-19 270.251,-19 270.251,-1 149.749,-1"/>
<text text-anchor="middle" x="210" y="-7" font-family="Helvetica,sans-Serif" font-size="10.00">include/Ui/Discover.hpp</text>
</a>
</g>
</g>
<!-- Node6&#45;&gt;Node7 -->
<g id="edge6" class="edge"><title>Node6&#45;&gt;Node7</title>
<path fill="none" stroke="midnightblue" d="M210,-46.3288C210,-37.0774 210,-26.3798 210,-19.2014"/>
<polygon fill="midnightblue" stroke="midnightblue" points="206.5,-46.5625 210,-56.5625 213.5,-46.5625 206.5,-46.5625"/>
</g>
<!-- Node8 -->
<g id="node8" class="node"><title>Node8</title>
<g id="a_node8"><a xlink:href="_message_list_8hpp_source.html" target="_top" xlink:title="include/Ui/MessageList.hpp">
<polygon fill="none" stroke="black" points="287.855,-1 287.855,-19 426.145,-19 426.145,-1 287.855,-1"/>
<text text-anchor="middle" x="357" y="-7" font-family="Helvetica,sans-Serif" font-size="10.00">include/Ui/MessageList.hpp</text>
</a>
</g>
</g>
<!-- Node6&#45;&gt;Node8 -->
<g id="edge7" class="edge"><title>Node6&#45;&gt;Node8</title>
<path fill="none" stroke="midnightblue" d="M241.754,-53.3354C269.841,-43.0175 310.098,-28.2294 334.842,-19.1396"/>
<polygon fill="midnightblue" stroke="midnightblue" points="240.187,-50.1821 232.007,-56.9157 242.601,-56.7528 240.187,-50.1821"/>
</g>
<!-- Node9 -->
<g id="node9" class="node"><title>Node9</title>
<g id="a_node9"><a xlink:href="_morse_input_8hpp_source.html" target="_top" xlink:title="include/Ui/MorseInput.hpp">
<polygon fill="none" stroke="black" points="-0.0883789,-1 -0.0883789,-19 132.088,-19 132.088,-1 -0.0883789,-1"/>
<text text-anchor="middle" x="66" y="-7" font-family="Helvetica,sans-Serif" font-size="10.00">include/Ui/MorseInput.hpp</text>
</a>
</g>
</g>
<!-- Node6&#45;&gt;Node9 -->
<g id="edge8" class="edge"><title>Node6&#45;&gt;Node9</title>
<path fill="none" stroke="midnightblue" d="M178.894,-53.3354C151.38,-43.0175 111.945,-28.2294 87.7056,-19.1396"/>
<polygon fill="midnightblue" stroke="midnightblue" points="177.849,-56.6815 188.442,-56.9157 180.307,-50.1272 177.849,-56.6815"/>
</g>
<!-- Node11 -->
<g id="node11" class="node"><title>Node11</title>
<g id="a_node11"><a xlink:href="_edit_sys_8hpp_source.html" target="_top" xlink:title="include/Ui/EditSys.hpp">
<polygon fill="none" stroke="black" points="643.973,-1 643.973,-19 760.027,-19 760.027,-1 643.973,-1"/>
<text text-anchor="middle" x="702" y="-7" font-family="Helvetica,sans-Serif" font-size="10.00">include/Ui/EditSys.hpp</text>
</a>
</g>
</g>
<!-- Node10&#45;&gt;Node11 -->
<g id="edge10" class="edge"><title>Node10&#45;&gt;Node11</title>
<path fill="none" stroke="midnightblue" d="M615.392,-52.3879C636.891,-42.114 666.606,-27.914 685.046,-19.1017"/>
<polygon fill="midnightblue" stroke="midnightblue" points="613.676,-49.3288 606.162,-56.7986 616.694,-55.6447 613.676,-49.3288"/>
</g>
<!-- Node12&#45;&gt;Node6 -->
<g id="edge18" class="edge"><title>Node12&#45;&gt;Node6</title>
<path fill="none" stroke="midnightblue" d="M332.115,-281.981C285.244,-275.18 226.008,-263.059 211,-244 170.126,-192.092 197.202,-102.529 206.924,-75.1716"/>
<polygon fill="midnightblue" stroke="midnightblue" points="331.822,-285.474 342.21,-283.392 332.791,-278.541 331.822,-285.474"/>
</g>
<!-- Node12&#45;&gt;Node13 -->
<g id="edge12" class="edge"><title>Node12&#45;&gt;Node13</title>
<path fill="none" stroke="midnightblue" d="M423.157,-277.199C449.509,-266.888 487.071,-252.19 510.199,-243.14"/>
<polygon fill="midnightblue" stroke="midnightblue" points="421.697,-274.012 413.66,-280.916 424.248,-280.531 421.697,-274.012"/>
</g>
<!-- Node15 -->
<g id="node15" class="node"><title>Node15</title>
<g id="a_node15"><a xlink:href="_gfx_8hpp_source.html" target="_top" xlink:title="include/Ui/Gfx.hpp">
<polygon fill="none" stroke="black" points="220.146,-225 220.146,-243 317.854,-243 317.854,-225 220.146,-225"/>
<text text-anchor="middle" x="269" y="-231" font-family="Helvetica,sans-Serif" font-size="10.00">include/Ui/Gfx.hpp</text>
</a>
</g>
</g>
<!-- Node12&#45;&gt;Node15 -->
<g id="edge19" class="edge"><title>Node12&#45;&gt;Node15</title>
<path fill="none" stroke="midnightblue" d="M364.958,-276.788C341.334,-266.5 308.198,-252.07 287.691,-243.14"/>
<polygon fill="midnightblue" stroke="midnightblue" points="363.87,-280.132 374.436,-280.916 366.665,-273.714 363.87,-280.132"/>
</g>
<!-- Node16 -->
<g id="node16" class="node"><title>Node16</title>
<g id="a_node16"><a xlink:href="_prompt_8hpp_source.html" target="_top" xlink:title="include/Ui/Prompt.hpp">
<polygon fill="none" stroke="black" points="335.808,-225 335.808,-243 450.192,-243 450.192,-225 335.808,-225"/>
<text text-anchor="middle" x="393" y="-231" font-family="Helvetica,sans-Serif" font-size="10.00">include/Ui/Prompt.hpp</text>
</a>
</g>
</g>
<!-- Node12&#45;&gt;Node16 -->
<g id="edge20" class="edge"><title>Node12&#45;&gt;Node16</title>
<path fill="none" stroke="midnightblue" d="M393,-270.329C393,-261.077 393,-250.38 393,-243.201"/>
<polygon fill="midnightblue" stroke="midnightblue" points="389.5,-270.562 393,-280.562 396.5,-270.563 389.5,-270.562"/>
</g>
<!-- Node13&#45;&gt;Node2 -->
<g id="edge13" class="edge"><title>Node13&#45;&gt;Node2</title>
<path fill="none" stroke="midnightblue" d="M537.38,-215.006C545.973,-190.768 560.909,-148.642 567.141,-131.065"/>
<polygon fill="midnightblue" stroke="midnightblue" points="533.974,-214.137 533.931,-224.732 540.572,-216.477 533.974,-214.137"/>
</g>
<!-- Node14 -->
<g id="node14" class="node"><title>Node14</title>
<g id="a_node14"><a xlink:href="_display_8hpp_source.html" target="_top" xlink:title="include/Display.hpp">
<polygon fill="none" stroke="black" points="430.009,-169 430.009,-187 531.991,-187 531.991,-169 430.009,-169"/>
<text text-anchor="middle" x="481" y="-175" font-family="Helvetica,sans-Serif" font-size="10.00">include/Display.hpp</text>
</a>
</g>
</g>
<!-- Node13&#45;&gt;Node14 -->
<g id="edge14" class="edge"><title>Node13&#45;&gt;Node14</title>
<path fill="none" stroke="midnightblue" d="M516.21,-217.027C507.137,-207.228 495.898,-195.09 488.594,-187.201"/>
<polygon fill="midnightblue" stroke="midnightblue" points="513.825,-219.603 523.188,-224.562 518.962,-214.847 513.825,-219.603"/>
</g>
<!-- Node14&#45;&gt;Node2 -->
<g id="edge15" class="edge"><title>Node14&#45;&gt;Node2</title>
<path fill="none" stroke="midnightblue" d="M503.173,-163.546C519.978,-153.35 542.516,-139.676 556.647,-131.102"/>
<polygon fill="midnightblue" stroke="midnightblue" points="501.251,-160.619 494.517,-168.799 504.882,-166.604 501.251,-160.619"/>
</g>
<!-- Node14&#45;&gt;Node3 -->
<g id="edge16" class="edge"><title>Node14&#45;&gt;Node3</title>
<path fill="none" stroke="midnightblue" d="M480.334,-158.678C479.45,-134.389 477.93,-92.563 477.293,-75.0649"/>
<polygon fill="midnightblue" stroke="midnightblue" points="476.838,-158.866 480.699,-168.732 483.834,-158.612 476.838,-158.866"/>
</g>
<!-- Node14&#45;&gt;Node4 -->
<g id="edge17" class="edge"><title>Node14&#45;&gt;Node4</title>
<path fill="none" stroke="midnightblue" d="M464.35,-161.863C438.346,-138.224 388.99,-93.3548 368.871,-75.0649"/>
<polygon fill="midnightblue" stroke="midnightblue" points="462.152,-164.595 471.905,-168.732 466.86,-159.416 462.152,-164.595"/>
</g>
<!-- Node17&#45;&gt;Node2 -->
<g id="edge23" class="edge"><title>Node17&#45;&gt;Node2</title>
<path fill="none" stroke="midnightblue" d="M701.423,-271.561C689.943,-246.545 666.242,-199.971 636,-168 621.133,-152.283 599.877,-139.011 585.539,-131.04"/>
<polygon fill="midnightblue" stroke="midnightblue" points="698.302,-273.156 705.578,-280.857 704.693,-270.299 698.302,-273.156"/>
</g>
<!-- Node17&#45;&gt;Node18 -->
<g id="edge24" class="edge"><title>Node17&#45;&gt;Node18</title>
<path fill="none" stroke="midnightblue" d="M731.133,-275.262C747.509,-265.098 769.261,-251.596 782.947,-243.102"/>
<polygon fill="midnightblue" stroke="midnightblue" points="728.864,-272.551 722.213,-280.799 732.556,-278.499 728.864,-272.551"/>
</g>
<!-- Node18&#45;&gt;Node11 -->
<g id="edge25" class="edge"><title>Node18&#45;&gt;Node11</title>
<path fill="none" stroke="midnightblue" d="M801.856,-214.845C811.68,-180.729 827.491,-105.989 796,-56 783.849,-36.7111 760.888,-25.5085 740.701,-19.105"/>
<polygon fill="midnightblue" stroke="midnightblue" points="798.4,-214.177 798.83,-224.764 805.096,-216.22 798.4,-214.177"/>
</g>
</g>
</svg>
