<?xml version="1.0" encoding="UTF-8" standalone="no"?>
<!DOCTYPE svg PUBLIC "-//W3C//DTD SVG 1.1//EN"
 "http://www.w3.org/Graphics/SVG/1.1/DTD/svg11.dtd">
<!-- Generated by graphviz version 2.36.0 (20140111.2315)
 -->
<!-- Title: include/iface/sys.h Pages: 1 -->
<svg width="1357pt" height="420pt"
 viewBox="0.00 0.00 1357.48 420.00" xmlns="http://www.w3.org/2000/svg" xmlns:xlink="http://www.w3.org/1999/xlink">
<g id="graph0" class="graph" transform="scale(1 1) rotate(0) translate(4 416)">
<title>include/iface/sys.h</title>
<!-- Node1 -->
<g id="node1" class="node"><title>Node1</title>
<polygon fill="#bfbfbf" stroke="black" points="696.626,-393 696.626,-411 794.335,-411 794.335,-393 696.626,-393"/>
<text text-anchor="middle" x="745.48" y="-399" font-family="Helvetica,sans-Serif" font-size="10.00">include/iface/sys.h</text>
</g>
<!-- Node2 -->
<g id="node2" class="node"><title>Node2</title>
<g id="a_node2"><a xlink:href="_app_controller_8hpp_source.html" target="_top" xlink:title="include/AppController.hpp">
<polygon fill="none" stroke="black" points="304.217,-169 304.217,-187 434.743,-187 434.743,-169 304.217,-169"/>
<text text-anchor="middle" x="369.48" y="-175" font-family="Helvetica,sans-Serif" font-size="10.00">include/AppController.hpp</text>
</a>
</g>
</g>
<!-- Node1&#45;&gt;Node2 -->
<g id="edge1" class="edge"><title>Node1&#45;&gt;Node2</title>
<path fill="none" stroke="midnightblue" d="M686.283,-398.404C611.567,-394.042 488.442,-382.907 452.48,-356 422.587,-333.634 382.775,-218.991 372.169,-187.189"/>
<polygon fill="midnightblue" stroke="midnightblue" points="686.31,-401.911 696.491,-398.975 686.702,-394.922 686.31,-401.911"/>
</g>
<!-- Node18 -->
<g id="node18" class="node"><title>Node18</title>
<g id="a_node18"><a xlink:href="_icon_8hpp_source.html" target="_top" xlink:title="include/Ui/Icon.hpp">
<polygon fill="none" stroke="black" points="635.953,-337 635.953,-355 737.007,-355 737.007,-337 635.953,-337"/>
<text text-anchor="middle" x="686.48" y="-343" font-family="Helvetica,sans-Serif" font-size="10.00">include/Ui/Icon.hpp</text>
</a>
</g>
</g>
<!-- Node1&#45;&gt;Node18 -->
<g id="edge19" class="edge"><title>Node1&#45;&gt;Node18</title>
<path fill="none" stroke="midnightblue" d="M728.939,-385.86C718.118,-375.956 704.393,-363.395 695.525,-355.279"/>
<polygon fill="midnightblue" stroke="midnightblue" points="726.779,-388.629 736.519,-392.799 731.506,-383.465 726.779,-388.629"/>
</g>
<!-- Node19 -->
<g id="node19" class="node"><title>Node19</title>
<g id="a_node19"><a xlink:href="_button_bar_8hpp_source.html" target="_top" xlink:title="include/Ui/ButtonBar.hpp">
<polygon fill="none" stroke="black" points="267.441,-281 267.441,-299 393.519,-299 393.519,-281 267.441,-281"/>
<text text-anchor="middle" x="330.48" y="-287" font-family="Helvetica,sans-Serif" font-size="10.00">include/Ui/ButtonBar.hpp</text>
</a>
</g>
</g>
<!-- Node1&#45;&gt;Node19 -->
<g id="edge33" class="edge"><title>Node1&#45;&gt;Node19</title>
<path fill="none" stroke="midnightblue" d="M686.337,-397.133C603.104,-391.015 456.132,-377.536 407.48,-356 377.086,-342.546 349.393,-313.258 337.134,-299.051"/>
<polygon fill="midnightblue" stroke="midnightblue" points="686.181,-400.631 696.408,-397.861 686.686,-393.649 686.181,-400.631"/>
</g>
<!-- Node24 -->
<g id="node24" class="node"><title>Node24</title>
<g id="a_node24"><a xlink:href="_hio_control_8hpp_source.html" target="_top" xlink:title="include/HioControl.hpp">
<polygon fill="none" stroke="black" points="461.894,-337 461.894,-355 579.066,-355 579.066,-337 461.894,-337"/>
<text text-anchor="middle" x="520.48" y="-343" font-family="Helvetica,sans-Serif" font-size="10.00">include/HioControl.hpp</text>
</a>
</g>
</g>
<!-- Node1&#45;&gt;Node24 -->
<g id="edge34" class="edge"><title>Node1&#45;&gt;Node24</title>
<path fill="none" stroke="midnightblue" d="M701.849,-390.529C658.623,-380.154 593.349,-364.489 554.027,-355.051"/>
<polygon fill="midnightblue" stroke="midnightblue" points="701.255,-393.985 711.795,-392.916 702.888,-387.178 701.255,-393.985"/>
</g>
<!-- Node25 -->
<g id="node25" class="node"><title>Node25</title>
<g id="a_node25"><a xlink:href="_f_sys_8hpp_source.html" target="_top" xlink:title="include/FSys.hpp">
<polygon fill="none" stroke="black" points="487.126,-281 487.126,-299 579.835,-299 579.835,-281 487.126,-281"/>
<text text-anchor="middle" x="533.48" y="-287" font-family="Helvetica,sans-Serif" font-size="10.00">include/FSys.hpp</text>
</a>
</g>
</g>
<!-- Node1&#45;&gt;Node25 -->
<g id="edge39" class="edge"><title>Node1&#45;&gt;Node25</title>
<path fill="none" stroke="midnightblue" d="M708.862,-389.785C684.793,-381.783 652.971,-369.986 626.48,-356 594.079,-338.894 559.667,-312.332 543.27,-299.085"/>
<polygon fill="midnightblue" stroke="midnightblue" points="708.072,-393.209 718.664,-392.978 710.24,-386.553 708.072,-393.209"/>
</g>
<!-- Node26 -->
<g id="node26" class="node"><title>Node26</title>
<g id="a_node26"><a xlink:href="_button_8hpp_source.html" target="_top" xlink:title="include/Button.hpp">
<polygon fill="none" stroke="black" points="755.059,-337 755.059,-355 853.901,-355 853.901,-337 755.059,-337"/>
<text text-anchor="middle" x="804.48" y="-343" font-family="Helvetica,sans-Serif" font-size="10.00">include/Button.hpp</text>
</a>
</g>
</g>
<!-- Node1&#45;&gt;Node26 -->
<g id="edge38" class="edge"><title>Node1&#45;&gt;Node26</title>
<path fill="none" stroke="midnightblue" d="M762.021,-385.86C772.843,-375.956 786.567,-363.395 795.435,-355.279"/>
<polygon fill="midnightblue" stroke="midnightblue" points="759.455,-383.465 754.441,-392.799 764.181,-388.629 759.455,-383.465"/>
</g>
<!-- Node27 -->
<g id="node27" class="node"><title>Node27</title>
<g id="a_node27"><a xlink:href="coproc_8h_source.html" target="_top" xlink:title="include/iface/coproc.h">
<polygon fill="none" stroke="black" points="872.118,-337 872.118,-355 984.842,-355 984.842,-337 872.118,-337"/>
<text text-anchor="middle" x="928.48" y="-343" font-family="Helvetica,sans-Serif" font-size="10.00">include/iface/coproc.h</text>
</a>
</g>
</g>
<!-- Node1&#45;&gt;Node27 -->
<g id="edge40" class="edge"><title>Node1&#45;&gt;Node27</title>
<path fill="none" stroke="midnightblue" d="M782.762,-389.999C817.91,-379.627 869.753,-364.329 901.195,-355.051"/>
<polygon fill="midnightblue" stroke="midnightblue" points="781.478,-386.729 772.877,-392.916 783.459,-393.442 781.478,-386.729"/>
</g>
<!-- Node29 -->
<g id="node29" class="node"><title>Node29</title>
<g id="a_node29"><a xlink:href="_measure_8hpp_source.html" target="_top" xlink:title="include/Measure.hpp">
<polygon fill="none" stroke="black" points="1003.06,-337 1003.06,-355 1111.9,-355 1111.9,-337 1003.06,-337"/>
<text text-anchor="middle" x="1057.48" y="-343" font-family="Helvetica,sans-Serif" font-size="10.00">include/Measure.hpp</text>
</a>
</g>
</g>
<!-- Node1&#45;&gt;Node29 -->
<g id="edge42" class="edge"><title>Node1&#45;&gt;Node29</title>
<path fill="none" stroke="midnightblue" d="M801.896,-391.236C861.793,-380.869 955.345,-364.677 1011.11,-355.026"/>
<polygon fill="midnightblue" stroke="midnightblue" points="801.109,-387.82 791.853,-392.974 802.303,-394.717 801.109,-387.82"/>
</g>
<!-- Node30 -->
<g id="node30" class="node"><title>Node30</title>
<g id="a_node30"><a xlink:href="_motion_8hpp_source.html" target="_top" xlink:title="include/Motion.hpp">
<polygon fill="none" stroke="black" points="1129.51,-337 1129.51,-355 1229.45,-355 1229.45,-337 1129.51,-337"/>
<text text-anchor="middle" x="1179.48" y="-343" font-family="Helvetica,sans-Serif" font-size="10.00">include/Motion.hpp</text>
</a>
</g>
</g>
<!-- Node1&#45;&gt;Node30 -->
<g id="edge43" class="edge"><title>Node1&#45;&gt;Node30</title>
<path fill="none" stroke="midnightblue" d="M804.432,-394.515C878.357,-386.248 1008.94,-371.196 1120.48,-356 1123.35,-355.608 1126.31,-355.195 1129.28,-354.769"/>
<polygon fill="midnightblue" stroke="midnightblue" points="803.935,-391.049 794.385,-395.636 804.711,-398.006 803.935,-391.049"/>
</g>
<!-- Node31 -->
<g id="node31" class="node"><title>Node31</title>
<g id="a_node31"><a xlink:href="_font_8hpp_source.html" target="_top" xlink:title="include/Ui/Font.hpp">
<polygon fill="none" stroke="black" points="1247.4,-337 1247.4,-355 1349.56,-355 1349.56,-337 1247.4,-337"/>
<text text-anchor="middle" x="1298.48" y="-343" font-family="Helvetica,sans-Serif" font-size="10.00">include/Ui/Font.hpp</text>
</a>
</g>
</g>
<!-- Node1&#45;&gt;Node31 -->
<g id="edge44" class="edge"><title>Node1&#45;&gt;Node31</title>
<path fill="none" stroke="midnightblue" d="M804.459,-396.665C896.908,-389.631 1081.51,-374.625 1237.48,-356 1240.67,-355.619 1243.95,-355.204 1247.25,-354.768"/>
<polygon fill="midnightblue" stroke="midnightblue" points="804.164,-393.177 794.457,-397.422 804.692,-400.157 804.164,-393.177"/>
</g>
<!-- Node3 -->
<g id="node3" class="node"><title>Node3</title>
<g id="a_node3"><a xlink:href="_screen_8hpp_source.html" target="_top" xlink:title="include/Ui/Screen.hpp">
<polygon fill="none" stroke="black" points="294.562,-113 294.562,-131 408.399,-131 408.399,-113 294.562,-113"/>
<text text-anchor="middle" x="351.48" y="-119" font-family="Helvetica,sans-Serif" font-size="10.00">include/Ui/Screen.hpp</text>
</a>
</g>
</g>
<!-- Node2&#45;&gt;Node3 -->
<g id="edge2" class="edge"><title>Node2&#45;&gt;Node3</title>
<path fill="none" stroke="midnightblue" d="M363.459,-158.937C360.33,-149.549 356.659,-138.538 354.214,-131.201"/>
<polygon fill="midnightblue" stroke="midnightblue" points="360.185,-160.182 366.668,-168.562 366.826,-157.969 360.185,-160.182"/>
</g>
<!-- Node5 -->
<g id="node5" class="node"><title>Node5</title>
<g id="a_node5"><a xlink:href="_app_8hpp_source.html" target="_top" xlink:title="include/App.hpp">
<polygon fill="none" stroke="black" points="130.618,-1 130.618,-19 218.342,-19 218.342,-1 130.618,-1"/>
<text text-anchor="middle" x="174.48" y="-7" font-family="Helvetica,sans-Serif" font-size="10.00">include/App.hpp</text>
</a>
</g>
</g>
<!-- Node2&#45;&gt;Node5 -->
<g id="edge7" class="edge"><title>Node2&#45;&gt;Node5</title>
<path fill="none" stroke="midnightblue" d="M390.892,-162.775C400.655,-154.976 411.196,-144.375 416.48,-132 431.233,-97.4499 410.454,-77.2592 379.48,-56 331.262,-22.9057 262.926,-13.6204 218.65,-11.2982"/>
<polygon fill="midnightblue" stroke="midnightblue" points="388.609,-160.111 382.665,-168.881 392.781,-165.731 388.609,-160.111"/>
</g>
<!-- Node8 -->
<g id="node8" class="node"><title>Node8</title>
<g id="a_node8"><a xlink:href="_app_state_8hpp_source.html" target="_top" xlink:title="include/AppState.hpp">
<polygon fill="none" stroke="black" points="16.9434,-113 16.9434,-131 128.017,-131 128.017,-113 16.9434,-113"/>
<text text-anchor="middle" x="72.4801" y="-119" font-family="Helvetica,sans-Serif" font-size="10.00">include/AppState.hpp</text>
</a>
</g>
</g>
<!-- Node2&#45;&gt;Node8 -->
<g id="edge8" class="edge"><title>Node2&#45;&gt;Node8</title>
<path fill="none" stroke="midnightblue" d="M315.437,-167.174C258.494,-156.821 169.871,-140.707 116.866,-131.07"/>
<polygon fill="midnightblue" stroke="midnightblue" points="314.872,-170.629 325.337,-168.974 316.124,-163.741 314.872,-170.629"/>
</g>
<!-- Node9 -->
<g id="node9" class="node"><title>Node9</title>
<g id="a_node9"><a xlink:href="_helper_8hpp_source.html" target="_top" xlink:title="include/Helper/Helper.hpp">
<polygon fill="none" stroke="black" points="145.941,-113 145.941,-131 277.019,-131 277.019,-113 145.941,-113"/>
<text text-anchor="middle" x="211.48" y="-119" font-family="Helvetica,sans-Serif" font-size="10.00">include/Helper/Helper.hpp</text>
</a>
</g>
</g>
<!-- Node2&#45;&gt;Node9 -->
<g id="edge9" class="edge"><title>Node2&#45;&gt;Node9</title>
<path fill="none" stroke="midnightblue" d="M336.112,-165.596C305.795,-155.234 261.835,-140.21 235.038,-131.051"/>
<polygon fill="midnightblue" stroke="midnightblue" points="335.231,-168.993 345.826,-168.916 337.495,-162.37 335.231,-168.993"/>
</g>
<!-- Node10 -->
<g id="node10" class="node"><title>Node10</title>
<g id="a_node10"><a xlink:href="_list_item_8hpp_source.html" target="_top" xlink:title="include/Ui/ListItem.hpp">
<polygon fill="none" stroke="black" points="763.899,-113 763.899,-131 881.061,-131 881.061,-113 763.899,-113"/>
<text text-anchor="middle" x="822.48" y="-119" font-family="Helvetica,sans-Serif" font-size="10.00">include/Ui/ListItem.hpp</text>
</a>
</g>
</g>
<!-- Node2&#45;&gt;Node10 -->
<g id="edge10" class="edge"><title>Node2&#45;&gt;Node10</title>
<path fill="none" stroke="midnightblue" d="M444.958,-168.003C534.538,-157.324 682.014,-139.744 763.599,-130.019"/>
<polygon fill="midnightblue" stroke="midnightblue" points="444.382,-164.546 434.866,-169.206 445.21,-171.497 444.382,-164.546"/>
</g>
<!-- Node16 -->
<g id="node16" class="node"><title>Node16</title>
<g id="a_node16"><a xlink:href="_edit_8hpp_source.html" target="_top" xlink:title="include/Ui/Edit.hpp">
<polygon fill="none" stroke="black" points="464.788,-113 464.788,-131 564.172,-131 564.172,-113 464.788,-113"/>
<text text-anchor="middle" x="514.48" y="-119" font-family="Helvetica,sans-Serif" font-size="10.00">include/Ui/Edit.hpp</text>
</a>
</g>
</g>
<!-- Node2&#45;&gt;Node16 -->
<g id="edge17" class="edge"><title>Node2&#45;&gt;Node16</title>
<path fill="none" stroke="midnightblue" d="M400.802,-165.335C428.507,-155.017 468.216,-140.229 492.624,-131.14"/>
<polygon fill="midnightblue" stroke="midnightblue" points="399.338,-162.146 391.188,-168.916 401.781,-168.706 399.338,-162.146"/>
</g>
<!-- Node4 -->
<g id="node4" class="node"><title>Node4</title>
<g id="a_node4"><a xlink:href="_notification_8hpp_source.html" target="_top" xlink:title="include/Ui/Notification.hpp">
<polygon fill="none" stroke="black" points="108.67,-57 108.67,-75 240.29,-75 240.29,-57 108.67,-57"/>
<text text-anchor="middle" x="174.48" y="-63" font-family="Helvetica,sans-Serif" font-size="10.00">include/Ui/Notification.hpp</text>
</a>
</g>
</g>
<!-- Node3&#45;&gt;Node4 -->
<g id="edge3" class="edge"><title>Node3&#45;&gt;Node4</title>
<path fill="none" stroke="midnightblue" d="M314.982,-109.865C280.995,-99.4961 231.151,-84.2895 200.87,-75.0513"/>
<polygon fill="midnightblue" stroke="midnightblue" points="314.395,-113.345 324.981,-112.916 316.438,-106.65 314.395,-113.345"/>
</g>
<!-- Node6 -->
<g id="node6" class="node"><title>Node6</title>
<g id="a_node6"><a xlink:href="_layout_8hpp_source.html" target="_top" xlink:title="include/Ui/Layout.hpp">
<polygon fill="none" stroke="black" points="258.392,-57 258.392,-75 370.568,-75 370.568,-57 258.392,-57"/>
<text text-anchor="middle" x="314.48" y="-63" font-family="Helvetica,sans-Serif" font-size="10.00">include/Ui/Layout.hpp</text>
</a>
</g>
</g>
<!-- Node3&#45;&gt;Node6 -->
<g id="edge5" class="edge"><title>Node3&#45;&gt;Node6</title>
<path fill="none" stroke="midnightblue" d="M339.927,-104.138C333.325,-94.5034 325.342,-82.8531 320.1,-75.2014"/>
<polygon fill="midnightblue" stroke="midnightblue" points="337.159,-106.291 345.699,-112.562 342.934,-102.335 337.159,-106.291"/>
</g>
<!-- Node7 -->
<g id="node7" class="node"><title>Node7</title>
<g id="a_node7"><a xlink:href="_map_8hpp_source.html" target="_top" xlink:title="include/Ui/Map.hpp">
<polygon fill="none" stroke="black" points="478.677,-1 478.677,-19 580.283,-19 580.283,-1 478.677,-1"/>
<text text-anchor="middle" x="529.48" y="-7" font-family="Helvetica,sans-Serif" font-size="10.00">include/Ui/Map.hpp</text>
</a>
</g>
</g>
<!-- Node3&#45;&gt;Node7 -->
<g id="edge6" class="edge"><title>Node3&#45;&gt;Node7</title>
<path fill="none" stroke="midnightblue" d="M372.729,-107.613C393.715,-94.4176 426.746,-73.7152 455.48,-56 476.599,-42.9799 501.235,-28.0496 516.082,-19.0803"/>
<polygon fill="midnightblue" stroke="midnightblue" points="370.857,-104.656 364.257,-112.944 374.585,-110.581 370.857,-104.656"/>
</g>
<!-- Node4&#45;&gt;Node5 -->
<g id="edge4" class="edge"><title>Node4&#45;&gt;Node5</title>
<path fill="none" stroke="midnightblue" d="M174.48,-46.3288C174.48,-37.0774 174.48,-26.3798 174.48,-19.2014"/>
<polygon fill="midnightblue" stroke="midnightblue" points="170.98,-46.5625 174.48,-56.5625 177.98,-46.5625 170.98,-46.5625"/>
</g>
<!-- Node11 -->
<g id="node11" class="node"><title>Node11</title>
<g id="a_node11"><a xlink:href="_discover_8hpp_source.html" target="_top" xlink:title="include/Ui/Discover.hpp">
<polygon fill="none" stroke="black" points="898.229,-57 898.229,-75 1018.73,-75 1018.73,-57 898.229,-57"/>
<text text-anchor="middle" x="958.48" y="-63" font-family="Helvetica,sans-Serif" font-size="10.00">include/Ui/Discover.hpp</text>
</a>
</g>
</g>
<!-- Node10&#45;&gt;Node11 -->
<g id="edge11" class="edge"><title>Node10&#45;&gt;Node11</title>
<path fill="none" stroke="midnightblue" d="M852.2,-109.199C878.17,-98.8879 915.188,-84.1896 937.98,-75.1396"/>
<polygon fill="midnightblue" stroke="midnightblue" points="850.843,-105.972 842.841,-112.916 853.426,-112.478 850.843,-105.972"/>
</g>
<!-- Node12 -->
<g id="node12" class="node"><title>Node12</title>
<g id="a_node12"><a xlink:href="_map_menu_8hpp_source.html" target="_top" xlink:title="include/Ui/MapMenu.hpp">
<polygon fill="none" stroke="black" points="598.17,-57 598.17,-75 724.79,-75 724.79,-57 598.17,-57"/>
<text text-anchor="middle" x="661.48" y="-63" font-family="Helvetica,sans-Serif" font-size="10.00">include/Ui/MapMenu.hpp</text>
</a>
</g>
</g>
<!-- Node10&#45;&gt;Node12 -->
<g id="edge12" class="edge"><title>Node10&#45;&gt;Node12</title>
<path fill="none" stroke="midnightblue" d="M788.881,-109.731C757.976,-99.3651 712.91,-84.2497 685.485,-75.0513"/>
<polygon fill="midnightblue" stroke="midnightblue" points="787.783,-113.054 798.377,-112.916 790.009,-106.417 787.783,-113.054"/>
</g>
<!-- Node13 -->
<g id="node13" class="node"><title>Node13</title>
<g id="a_node13"><a xlink:href="_menu_list_8hpp_source.html" target="_top" xlink:title="include/Ui/MenuList.hpp">
<polygon fill="none" stroke="black" points="1037.12,-57 1037.12,-75 1159.84,-75 1159.84,-57 1037.12,-57"/>
<text text-anchor="middle" x="1098.48" y="-63" font-family="Helvetica,sans-Serif" font-size="10.00">include/Ui/MenuList.hpp</text>
</a>
</g>
</g>
<!-- Node10&#45;&gt;Node13 -->
<g id="edge14" class="edge"><title>Node10&#45;&gt;Node13</title>
<path fill="none" stroke="midnightblue" d="M873.361,-111.045C926.3,-100.687 1008.18,-84.6675 1057.23,-75.0701"/>
<polygon fill="midnightblue" stroke="midnightblue" points="872.644,-107.619 863.502,-112.974 873.988,-114.489 872.644,-107.619"/>
</g>
<!-- Node14 -->
<g id="node14" class="node"><title>Node14</title>
<g id="a_node14"><a xlink:href="_message_list_8hpp_source.html" target="_top" xlink:title="include/Ui/MessageList.hpp">
<polygon fill="none" stroke="black" points="742.335,-57 742.335,-75 880.625,-75 880.625,-57 742.335,-57"/>
<text text-anchor="middle" x="811.48" y="-63" font-family="Helvetica,sans-Serif" font-size="10.00">include/Ui/MessageList.hpp</text>
</a>
</g>
</g>
<!-- Node10&#45;&gt;Node14 -->
<g id="edge15" class="edge"><title>Node10&#45;&gt;Node14</title>
<path fill="none" stroke="midnightblue" d="M818.739,-102.633C816.84,-93.3129 814.629,-82.4586 813.151,-75.2014"/>
<polygon fill="midnightblue" stroke="midnightblue" points="815.336,-103.462 820.761,-112.562 822.195,-102.065 815.336,-103.462"/>
</g>
<!-- Node15 -->
<g id="node15" class="node"><title>Node15</title>
<g id="a_node15"><a xlink:href="_morse_input_8hpp_source.html" target="_top" xlink:title="include/Ui/MorseInput.hpp">
<polygon fill="none" stroke="black" points="1177.39,-57 1177.39,-75 1309.57,-75 1309.57,-57 1177.39,-57"/>
<text text-anchor="middle" x="1243.48" y="-63" font-family="Helvetica,sans-Serif" font-size="10.00">include/Ui/MorseInput.hpp</text>
</a>
</g>
</g>
<!-- Node10&#45;&gt;Node15 -->
<g id="edge16" class="edge"><title>Node10&#45;&gt;Node15</title>
<path fill="none" stroke="midnightblue" d="M891.477,-112.15C971.786,-101.849 1103.27,-84.9842 1180.78,-75.0421"/>
<polygon fill="midnightblue" stroke="midnightblue" points="890.935,-108.691 881.462,-113.435 891.826,-115.634 890.935,-108.691"/>
</g>
<!-- Node12&#45;&gt;Node7 -->
<g id="edge13" class="edge"><title>Node12&#45;&gt;Node7</title>
<path fill="none" stroke="midnightblue" d="M632.3,-53.0628C607.112,-42.7585 571.402,-28.1497 549.377,-19.1396"/>
<polygon fill="midnightblue" stroke="midnightblue" points="631.138,-56.3687 641.718,-56.9157 633.788,-49.8898 631.138,-56.3687"/>
</g>
<!-- Node17 -->
<g id="node17" class="node"><title>Node17</title>
<g id="a_node17"><a xlink:href="_edit_sys_8hpp_source.html" target="_top" xlink:title="include/Ui/EditSys.hpp">
<polygon fill="none" stroke="black" points="464.453,-57 464.453,-75 580.507,-75 580.507,-57 464.453,-57"/>
<text text-anchor="middle" x="522.48" y="-63" font-family="Helvetica,sans-Serif" font-size="10.00">include/Ui/EditSys.hpp</text>
</a>
</g>
</g>
<!-- Node16&#45;&gt;Node17 -->
<g id="edge18" class="edge"><title>Node16&#45;&gt;Node17</title>
<path fill="none" stroke="midnightblue" d="M517.201,-102.633C518.582,-93.3129 520.19,-82.4586 521.265,-75.2014"/>
<polygon fill="midnightblue" stroke="midnightblue" points="513.733,-102.158 515.73,-112.562 520.658,-103.183 513.733,-102.158"/>
</g>
<!-- Node18&#45;&gt;Node10 -->
<g id="edge29" class="edge"><title>Node18&#45;&gt;Node10</title>
<path fill="none" stroke="midnightblue" d="M745.117,-335.066C786.557,-326.981 837.467,-314.552 853.48,-300 879.415,-276.432 882.733,-258.058 874.48,-224 865.423,-186.623 839.993,-147.586 828.388,-131.104"/>
<polygon fill="midnightblue" stroke="midnightblue" points="744.253,-331.667 735.084,-336.975 745.562,-338.543 744.253,-331.667"/>
</g>
<!-- Node18&#45;&gt;Node15 -->
<g id="edge31" class="edge"><title>Node18&#45;&gt;Node15</title>
<path fill="none" stroke="midnightblue" d="M745.323,-335.169C792.62,-326.52 854.642,-313.272 876.48,-300 909.066,-280.196 932.48,-273.132 932.48,-235 932.48,-235 932.48,-235 932.48,-177 932.48,-123.523 1097.98,-89.5308 1187.52,-75.0535"/>
<polygon fill="midnightblue" stroke="midnightblue" points="744.695,-331.726 735.474,-336.943 745.936,-338.615 744.695,-331.726"/>
</g>
<!-- Node18&#45;&gt;Node19 -->
<g id="edge20" class="edge"><title>Node18&#45;&gt;Node19</title>
<path fill="none" stroke="midnightblue" d="M625.688,-335.779C557.495,-325.435 447.986,-308.824 383.254,-299.005"/>
<polygon fill="midnightblue" stroke="midnightblue" points="625.44,-339.281 635.852,-337.32 626.49,-332.36 625.44,-339.281"/>
</g>
<!-- Node21 -->
<g id="node21" class="node"><title>Node21</title>
<g id="a_node21"><a xlink:href="_gfx_8hpp_source.html" target="_top" xlink:title="include/Ui/Gfx.hpp">
<polygon fill="none" stroke="black" points="730.626,-281 730.626,-299 828.335,-299 828.335,-281 730.626,-281"/>
<text text-anchor="middle" x="779.48" y="-287" font-family="Helvetica,sans-Serif" font-size="10.00">include/Ui/Gfx.hpp</text>
</a>
</g>
</g>
<!-- Node18&#45;&gt;Node21 -->
<g id="edge26" class="edge"><title>Node18&#45;&gt;Node21</title>
<path fill="none" stroke="midnightblue" d="M709.65,-331.546C727.21,-321.35 750.761,-307.676 765.527,-299.102"/>
<polygon fill="midnightblue" stroke="midnightblue" points="707.495,-328.75 700.605,-336.799 711.01,-334.804 707.495,-328.75"/>
</g>
<!-- Node22 -->
<g id="node22" class="node"><title>Node22</title>
<g id="a_node22"><a xlink:href="_graphic_8hpp_source.html" target="_top" xlink:title="include/Ui/Graphic.hpp">
<polygon fill="none" stroke="black" points="748.897,-225 748.897,-243 866.064,-243 866.064,-225 748.897,-225"/>
<text text-anchor="middle" x="807.48" y="-231" font-family="Helvetica,sans-Serif" font-size="10.00">include/Ui/Graphic.hpp</text>
</a>
</g>
</g>
<!-- Node18&#45;&gt;Node22 -->
<g id="edge30" class="edge"><title>Node18&#45;&gt;Node22</title>
<path fill="none" stroke="midnightblue" d="M744.342,-334.982C781.617,-327.215 825.157,-315.218 836.48,-300 850.052,-281.758 829.133,-256.16 816.292,-243.204"/>
<polygon fill="midnightblue" stroke="midnightblue" points="743.637,-331.554 734.527,-336.962 745.021,-338.415 743.637,-331.554"/>
</g>
<!-- Node23 -->
<g id="node23" class="node"><title>Node23</title>
<g id="a_node23"><a xlink:href="_prompt_8hpp_source.html" target="_top" xlink:title="include/Ui/Prompt.hpp">
<polygon fill="none" stroke="black" points="598.288,-281 598.288,-299 712.672,-299 712.672,-281 598.288,-281"/>
<text text-anchor="middle" x="655.48" y="-287" font-family="Helvetica,sans-Serif" font-size="10.00">include/Ui/Prompt.hpp</text>
</a>
</g>
</g>
<!-- Node18&#45;&gt;Node23 -->
<g id="edge32" class="edge"><title>Node18&#45;&gt;Node23</title>
<path fill="none" stroke="midnightblue" d="M676.629,-327.84C671.131,-318.264 664.536,-306.774 660.188,-299.201"/>
<polygon fill="midnightblue" stroke="midnightblue" points="673.622,-329.633 681.636,-336.562 679.693,-326.147 673.622,-329.633"/>
</g>
<!-- Node19&#45;&gt;Node2 -->
<g id="edge21" class="edge"><title>Node19&#45;&gt;Node2</title>
<path fill="none" stroke="midnightblue" d="M336.86,-271.006C345.453,-246.768 360.389,-204.642 366.621,-187.065"/>
<polygon fill="midnightblue" stroke="midnightblue" points="333.454,-270.137 333.411,-280.732 340.052,-272.477 333.454,-270.137"/>
</g>
<!-- Node20 -->
<g id="node20" class="node"><title>Node20</title>
<g id="a_node20"><a xlink:href="_display_8hpp_source.html" target="_top" xlink:title="include/Display.hpp">
<polygon fill="none" stroke="black" points="167.489,-225 167.489,-243 269.471,-243 269.471,-225 167.489,-225"/>
<text text-anchor="middle" x="218.48" y="-231" font-family="Helvetica,sans-Serif" font-size="10.00">include/Display.hpp</text>
</a>
</g>
</g>
<!-- Node19&#45;&gt;Node20 -->
<g id="edge22" class="edge"><title>Node19&#45;&gt;Node20</title>
<path fill="none" stroke="midnightblue" d="M304.322,-276.388C283.013,-266.114 253.561,-251.914 235.284,-243.102"/>
<polygon fill="midnightblue" stroke="midnightblue" points="302.942,-279.608 313.47,-280.799 305.982,-273.303 302.942,-279.608"/>
</g>
<!-- Node20&#45;&gt;Node2 -->
<g id="edge23" class="edge"><title>Node20&#45;&gt;Node2</title>
<path fill="none" stroke="midnightblue" d="M250.719,-221.471C279.587,-211.147 321.19,-196.269 346.719,-187.14"/>
<polygon fill="midnightblue" stroke="midnightblue" points="249.324,-218.253 241.086,-224.916 251.681,-224.844 249.324,-218.253"/>
</g>
<!-- Node20&#45;&gt;Node5 -->
<g id="edge24" class="edge"><title>Node20&#45;&gt;Node5</title>
<path fill="none" stroke="midnightblue" d="M159.856,-222.706C109.753,-210.477 40.6618,-184.67 7.48007,-132 -29.1618,-73.8371 83.0966,-34.856 141.516,-19.0007"/>
<polygon fill="midnightblue" stroke="midnightblue" points="159.074,-226.118 169.607,-224.975 160.661,-219.3 159.074,-226.118"/>
</g>
<!-- Node20&#45;&gt;Node8 -->
<g id="edge25" class="edge"><title>Node20&#45;&gt;Node8</title>
<path fill="none" stroke="midnightblue" d="M199.198,-218.473C168.047,-195.002 107.67,-149.513 83.1844,-131.065"/>
<polygon fill="midnightblue" stroke="midnightblue" points="197.413,-221.51 207.506,-224.732 201.626,-215.919 197.413,-221.51"/>
</g>
<!-- Node21&#45;&gt;Node10 -->
<g id="edge27" class="edge"><title>Node21&#45;&gt;Node10</title>
<path fill="none" stroke="midnightblue" d="M761.008,-273.963C752.737,-266.029 743.872,-255.55 739.48,-244 736.321,-235.691 736.483,-232.368 739.48,-224 754.174,-182.976 793.515,-146.675 812.266,-131.089"/>
<polygon fill="midnightblue" stroke="midnightblue" points="758.803,-276.686 768.591,-280.742 763.468,-271.468 758.803,-276.686"/>
</g>
<!-- Node21&#45;&gt;Node22 -->
<g id="edge28" class="edge"><title>Node21&#45;&gt;Node22</title>
<path fill="none" stroke="midnightblue" d="M788.533,-271.54C793.467,-262.025 799.342,-250.695 803.227,-243.201"/>
<polygon fill="midnightblue" stroke="midnightblue" points="785.351,-270.074 783.855,-280.562 791.565,-273.296 785.351,-270.074"/>
</g>
<!-- Node24&#45;&gt;Node2 -->
<g id="edge35" class="edge"><title>Node24&#45;&gt;Node2</title>
<path fill="none" stroke="midnightblue" d="M504.498,-329.717C496.216,-321.36 486.24,-310.578 478.48,-300 455.525,-268.708 461.753,-252.564 435.48,-224 420.928,-208.179 399.803,-195.019 385.398,-187.098"/>
<polygon fill="midnightblue" stroke="midnightblue" points="502.212,-332.377 511.792,-336.9 507.124,-327.39 502.212,-332.377"/>
</g>
<!-- Node24&#45;&gt;Node25 -->
<g id="edge36" class="edge"><title>Node24&#45;&gt;Node25</title>
<path fill="none" stroke="midnightblue" d="M524.902,-326.633C527.145,-317.313 529.759,-306.459 531.506,-299.201"/>
<polygon fill="midnightblue" stroke="midnightblue" points="521.449,-326.021 522.511,-336.562 528.255,-327.659 521.449,-326.021"/>
</g>
<!-- Node25&#45;&gt;Node17 -->
<g id="edge37" class="edge"><title>Node25&#45;&gt;Node17</title>
<path fill="none" stroke="midnightblue" d="M543.883,-272.213C562.463,-239.931 597.191,-167.486 572.48,-112 565.258,-95.7842 548.985,-82.9604 536.956,-75.2173"/>
<polygon fill="midnightblue" stroke="midnightblue" points="540.832,-270.496 538.719,-280.878 546.845,-274.08 540.832,-270.496"/>
</g>
<!-- Node28 -->
<g id="node28" class="node"><title>Node28</title>
<g id="a_node28"><a xlink:href="_wakeup_timer_8hpp_source.html" target="_top" xlink:title="include/WakeupTimer.hpp">
<polygon fill="none" stroke="black" points="960.036,-281 960.036,-299 1090.92,-299 1090.92,-281 960.036,-281"/>
<text text-anchor="middle" x="1025.48" y="-287" font-family="Helvetica,sans-Serif" font-size="10.00">include/WakeupTimer.hpp</text>
</a>
</g>
</g>
<!-- Node27&#45;&gt;Node28 -->
<g id="edge41" class="edge"><title>Node27&#45;&gt;Node28</title>
<path fill="none" stroke="midnightblue" d="M952.139,-331.829C970.506,-321.604 995.383,-307.755 1010.93,-299.102"/>
<polygon fill="midnightblue" stroke="midnightblue" points="950.247,-328.876 943.212,-336.799 953.652,-334.993 950.247,-328.876"/>
</g>
</g>
</svg>
