<?xml version="1.0" encoding="UTF-8" standalone="no"?>
<!DOCTYPE svg PUBLIC "-//W3C//DTD SVG 1.1//EN"
 "http://www.w3.org/Graphics/SVG/1.1/DTD/svg11.dtd">
<!-- Generated by graphviz version 2.36.0 (20140111.2315)
 -->
<!-- Title: include/iface/sys.h Pages: 1 -->
<svg width="380pt" height="196pt"
 viewBox="0.00 0.00 380.24 196.00" xmlns="http://www.w3.org/2000/svg" xmlns:xlink="http://www.w3.org/1999/xlink">
<g id="graph0" class="graph" transform="scale(1 1) rotate(0) translate(4 192)">
<title>include/iface/sys.h</title>
<!-- Node1 -->
<g id="node1" class="node"><title>Node1</title>
<polygon fill="#bfbfbf" stroke="black" points="120.383,-169 120.383,-187 218.092,-187 218.092,-169 120.383,-169"/>
<text text-anchor="middle" x="169.237" y="-175" font-family="Helvetica,sans-Serif" font-size="10.00">include/iface/sys.h</text>
</g>
<!-- Node2 -->
<g id="node2" class="node"><title>Node2</title>
<polygon fill="none" stroke="#bfbfbf" points="96.4443,-1 96.4443,-19 168.03,-19 168.03,-1 96.4443,-1"/>
<text text-anchor="middle" x="132.237" y="-7" font-family="Helvetica,sans-Serif" font-size="10.00">hwpl/types.h</text>
</g>
<!-- Node1&#45;&gt;Node2 -->
<g id="edge1" class="edge"><title>Node1&#45;&gt;Node2</title>
<path fill="none" stroke="midnightblue" d="M120.336,-176.034C86.2789,-172.56 42.7292,-161.973 18.2373,-132 -3.18202,-105.788 -6.00557,-83.8494 13.2373,-56 29.5869,-32.3378 60.0924,-21.1045 86.123,-15.7783"/>
<polygon fill="midnightblue" stroke="midnightblue" points="86.9915,-19.178 96.209,-13.9542 85.7457,-12.2898 86.9915,-19.178"/>
</g>
<!-- Node3 -->
<g id="node3" class="node"><title>Node3</title>
<polygon fill="none" stroke="#bfbfbf" points="256.944,-113 256.944,-131 313.53,-131 313.53,-113 256.944,-113"/>
<text text-anchor="middle" x="285.237" y="-119" font-family="Helvetica,sans-Serif" font-size="10.00">dev/hio.h</text>
</g>
<!-- Node1&#45;&gt;Node3 -->
<g id="edge2" class="edge"><title>Node1&#45;&gt;Node3</title>
<path fill="none" stroke="midnightblue" d="M186.604,-168.916C205.653,-160.048 236.454,-145.709 258.571,-135.414"/>
<polygon fill="midnightblue" stroke="midnightblue" points="260.163,-138.533 267.752,-131.14 257.209,-132.187 260.163,-138.533"/>
</g>
<!-- Node4 -->
<g id="node4" class="node"><title>Node4</title>
<g id="a_node4"><a xlink:href="app_8h_source.html" target="_top" xlink:title="app.h">
<polygon fill="none" stroke="black" points="331.725,-113 331.725,-131 372.749,-131 372.749,-113 331.725,-113"/>
<text text-anchor="middle" x="352.237" y="-119" font-family="Helvetica,sans-Serif" font-size="10.00">app.h</text>
</a>
</g>
</g>
<!-- Node1&#45;&gt;Node4 -->
<g id="edge3" class="edge"><title>Node1&#45;&gt;Node4</title>
<path fill="none" stroke="midnightblue" d="M196.612,-168.997C225.381,-160.576 272.201,-146.841 321.936,-132.078"/>
<polygon fill="midnightblue" stroke="midnightblue" points="322.996,-135.414 331.585,-129.212 321.002,-128.704 322.996,-135.414"/>
</g>
<!-- Node5 -->
<g id="node5" class="node"><title>Node5</title>
<g id="a_node5"><a xlink:href="measure_8h_source.html" target="_top" xlink:title="measure.h">
<polygon fill="none" stroke="black" points="29.6142,-57 29.6142,-75 92.8603,-75 92.8603,-57 29.6142,-57"/>
<text text-anchor="middle" x="61.2373" y="-63" font-family="Helvetica,sans-Serif" font-size="10.00">measure.h</text>
</a>
</g>
</g>
<!-- Node1&#45;&gt;Node5 -->
<g id="edge4" class="edge"><title>Node1&#45;&gt;Node5</title>
<path fill="none" stroke="midnightblue" d="M161.12,-168.732C143.128,-150.407 99.6604,-106.135 76.4468,-82.4912"/>
<polygon fill="midnightblue" stroke="midnightblue" points="78.6589,-79.7485 69.1555,-75.0649 73.6639,-84.6526 78.6589,-79.7485"/>
</g>
<!-- Node6 -->
<g id="node6" class="node"><title>Node6</title>
<g id="a_node6"><a xlink:href="message_8h_source.html" target="_top" xlink:title="message.h">
<polygon fill="none" stroke="black" points="136.779,-113 136.779,-131 201.695,-131 201.695,-113 136.779,-113"/>
<text text-anchor="middle" x="169.237" y="-119" font-family="Helvetica,sans-Serif" font-size="10.00">message.h</text>
</a>
</g>
</g>
<!-- Node1&#45;&gt;Node6 -->
<g id="edge6" class="edge"><title>Node1&#45;&gt;Node6</title>
<path fill="none" stroke="midnightblue" d="M169.237,-168.562C169.237,-161.308 169.237,-150.588 169.237,-141.369"/>
<polygon fill="midnightblue" stroke="midnightblue" points="172.737,-141.201 169.237,-131.201 165.737,-141.201 172.737,-141.201"/>
</g>
<!-- Node9 -->
<g id="node9" class="node"><title>Node9</title>
<g id="a_node9"><a xlink:href="location_8h.html" target="_top" xlink:title="location.h">
<polygon fill="none" stroke="black" points="287.833,-57 287.833,-75 346.641,-75 346.641,-57 287.833,-57"/>
<text text-anchor="middle" x="317.237" y="-63" font-family="Helvetica,sans-Serif" font-size="10.00">location.h</text>
</a>
</g>
</g>
<!-- Node1&#45;&gt;Node9 -->
<g id="edge16" class="edge"><title>Node1&#45;&gt;Node9</title>
<path fill="none" stroke="midnightblue" d="M178.692,-168.641C193.243,-155.911 222.179,-131.127 248.237,-112 263.506,-100.792 281.444,-89.1374 295.202,-80.4975"/>
<polygon fill="midnightblue" stroke="midnightblue" points="297.333,-83.294 303.975,-75.0402 293.635,-77.3501 297.333,-83.294"/>
</g>
<!-- Node11 -->
<g id="node11" class="node"><title>Node11</title>
<g id="a_node11"><a xlink:href="motion_8h_source.html" target="_top" xlink:title="motion.h">
<polygon fill="none" stroke="black" points="27.06,-113 27.06,-131 81.4145,-131 81.4145,-113 27.06,-113"/>
<text text-anchor="middle" x="54.2373" y="-119" font-family="Helvetica,sans-Serif" font-size="10.00">motion.h</text>
</a>
</g>
</g>
<!-- Node1&#45;&gt;Node11 -->
<g id="edge14" class="edge"><title>Node1&#45;&gt;Node11</title>
<path fill="none" stroke="midnightblue" d="M151.771,-168.799C132.833,-159.906 102.393,-145.612 80.5554,-135.358"/>
<polygon fill="midnightblue" stroke="midnightblue" points="82.0303,-132.184 71.4909,-131.102 79.055,-138.52 82.0303,-132.184"/>
</g>
<!-- Node5&#45;&gt;Node2 -->
<g id="edge5" class="edge"><title>Node5&#45;&gt;Node2</title>
<path fill="none" stroke="midnightblue" d="M72.0206,-56.7986C82.9675,-48.4727 100.139,-35.4125 113.349,-25.3656"/>
<polygon fill="midnightblue" stroke="midnightblue" points="115.512,-28.1182 121.352,-19.2786 111.274,-22.5465 115.512,-28.1182"/>
</g>
<!-- Node6&#45;&gt;Node2 -->
<g id="edge7" class="edge"><title>Node6&#45;&gt;Node2</title>
<path fill="none" stroke="midnightblue" d="M191.222,-112.952C217.962,-101.875 257.625,-80.4942 241.237,-56 227.156,-34.9521 201.234,-23.7382 178.202,-17.7691"/>
<polygon fill="midnightblue" stroke="midnightblue" points="178.747,-14.3026 168.215,-15.4488 177.163,-21.121 178.747,-14.3026"/>
</g>
<!-- Node7 -->
<g id="node7" class="node"><title>Node7</title>
<polygon fill="none" stroke="#bfbfbf" points="110.681,-57 110.681,-75 157.794,-75 157.794,-57 110.681,-57"/>
<text text-anchor="middle" x="134.237" y="-63" font-family="Helvetica,sans-Serif" font-size="10.00">limits.h</text>
</g>
<!-- Node6&#45;&gt;Node7 -->
<g id="edge8" class="edge"><title>Node6&#45;&gt;Node7</title>
<path fill="none" stroke="midnightblue" d="M163.769,-112.562C158.808,-104.909 151.348,-93.3999 145.168,-83.8638"/>
<polygon fill="midnightblue" stroke="midnightblue" points="147.929,-81.6893 139.553,-75.2014 142.055,-85.4966 147.929,-81.6893"/>
</g>
<!-- Node8 -->
<g id="node8" class="node"><title>Node8</title>
<g id="a_node8"><a xlink:href="contact_8h_source.html" target="_top" xlink:title="contact.h">
<polygon fill="none" stroke="black" points="175.947,-57 175.947,-75 232.528,-75 232.528,-57 175.947,-57"/>
<text text-anchor="middle" x="204.237" y="-63" font-family="Helvetica,sans-Serif" font-size="10.00">contact.h</text>
</a>
</g>
</g>
<!-- Node6&#45;&gt;Node8 -->
<g id="edge9" class="edge"><title>Node6&#45;&gt;Node8</title>
<path fill="none" stroke="midnightblue" d="M174.706,-112.562C179.666,-104.909 187.126,-93.3999 193.307,-83.8638"/>
<polygon fill="midnightblue" stroke="midnightblue" points="196.42,-85.4966 198.922,-75.2014 190.545,-81.6893 196.42,-85.4966"/>
</g>
<!-- Node6&#45;&gt;Node9 -->
<g id="edge11" class="edge"><title>Node6&#45;&gt;Node9</title>
<path fill="none" stroke="midnightblue" d="M191.394,-112.916C216.353,-103.809 257.123,-88.9337 285.467,-78.5917"/>
<polygon fill="midnightblue" stroke="midnightblue" points="286.734,-81.8553 294.929,-75.1396 284.335,-75.2793 286.734,-81.8553"/>
</g>
<!-- Node8&#45;&gt;Node2 -->
<g id="edge10" class="edge"><title>Node8&#45;&gt;Node2</title>
<path fill="none" stroke="midnightblue" d="M193.302,-56.7986C182.201,-48.4727 164.787,-35.4125 151.391,-25.3656"/>
<polygon fill="midnightblue" stroke="midnightblue" points="153.375,-22.4787 143.275,-19.2786 149.175,-28.0787 153.375,-22.4787"/>
</g>
<!-- Node9&#45;&gt;Node2 -->
<g id="edge12" class="edge"><title>Node9&#45;&gt;Node2</title>
<path fill="none" stroke="midnightblue" d="M289.541,-56.9157C257.706,-47.6234 205.292,-32.3241 169.8,-21.9643"/>
<polygon fill="midnightblue" stroke="midnightblue" points="170.401,-18.4936 159.82,-19.0513 168.439,-25.2132 170.401,-18.4936"/>
</g>
<!-- Node10 -->
<g id="node10" class="node"><title>Node10</title>
<polygon fill="none" stroke="#bfbfbf" points="295.622,-1 295.622,-19 338.853,-19 338.853,-1 295.622,-1"/>
<text text-anchor="middle" x="317.237" y="-7" font-family="Helvetica,sans-Serif" font-size="10.00">time.h</text>
</g>
<!-- Node9&#45;&gt;Node10 -->
<g id="edge13" class="edge"><title>Node9&#45;&gt;Node10</title>
<path fill="none" stroke="midnightblue" d="M317.237,-56.5625C317.237,-49.308 317.237,-38.5884 317.237,-29.3691"/>
<polygon fill="midnightblue" stroke="midnightblue" points="320.737,-29.2014 317.237,-19.2014 313.737,-29.2015 320.737,-29.2014"/>
</g>
<!-- Node11&#45;&gt;Node2 -->
<g id="edge15" class="edge"><title>Node11&#45;&gt;Node2</title>
<path fill="none" stroke="midnightblue" d="M44.1032,-112.66C29.9181,-99.9549 7.25764,-75.2031 20.2373,-56 35.023,-34.1247 62.3859,-22.8817 86.3635,-17.1041"/>
<polygon fill="midnightblue" stroke="midnightblue" points="87.3458,-20.4729 96.3857,-14.9475 85.8732,-13.6295 87.3458,-20.4729"/>
</g>
</g>
</svg>
