<?xml version="1.0" encoding="UTF-8" standalone="no"?>
<!DOCTYPE svg PUBLIC "-//W3C//DTD SVG 1.1//EN"
 "http://www.w3.org/Graphics/SVG/1.1/DTD/svg11.dtd">
<!-- Generated by graphviz version 2.36.0 (20140111.2315)
 -->
<!-- Title: include/iface/sys.h Pages: 1 -->
<svg width="640pt" height="252pt"
 viewBox="0.00 0.00 640.45 252.00" xmlns="http://www.w3.org/2000/svg" xmlns:xlink="http://www.w3.org/1999/xlink">
<g id="graph0" class="graph" transform="scale(1 1) rotate(0) translate(4 248)">
<title>include/iface/sys.h</title>
<!-- Node1 -->
<g id="node1" class="node"><title>Node1</title>
<polygon fill="#bfbfbf" stroke="black" points="221.596,-225 221.596,-243 319.305,-243 319.305,-225 221.596,-225"/>
<text text-anchor="middle" x="270.451" y="-231" font-family="Helvetica,sans-Serif" font-size="10.00">include/iface/sys.h</text>
</g>
<!-- Node2 -->
<g id="node2" class="node"><title>Node2</title>
<polygon fill="none" stroke="#bfbfbf" points="150.658,-1 150.658,-19 222.244,-19 222.244,-1 150.658,-1"/>
<text text-anchor="middle" x="186.451" y="-7" font-family="Helvetica,sans-Serif" font-size="10.00">hwpl/types.h</text>
</g>
<!-- Node1&#45;&gt;Node2 -->
<g id="edge1" class="edge"><title>Node1&#45;&gt;Node2</title>
<path fill="none" stroke="midnightblue" d="M221.302,-229.777C182.497,-225.235 128.42,-214.301 88.4506,-188 36.2487,-153.65 23.3803,-135.227 3.45065,-76 0.615754,-67.5753 -2.0332,-62.9957 3.45065,-56 20.1747,-34.6653 91.9275,-22.0954 140.459,-15.8827"/>
<polygon fill="midnightblue" stroke="midnightblue" points="140.939,-19.3502 150.435,-14.6526 140.082,-12.4028 140.939,-19.3502"/>
</g>
<!-- Node3 -->
<g id="node3" class="node"><title>Node3</title>
<g id="a_node3"><a xlink:href="asset_8h_source.html" target="_top" xlink:title="asset.h">
<polygon fill="none" stroke="black" points="12.33,-57 12.33,-75 60.5713,-75 60.5713,-57 12.33,-57"/>
<text text-anchor="middle" x="36.4506" y="-63" font-family="Helvetica,sans-Serif" font-size="10.00">asset.h</text>
</a>
</g>
</g>
<!-- Node1&#45;&gt;Node3 -->
<g id="edge2" class="edge"><title>Node1&#45;&gt;Node3</title>
<path fill="none" stroke="midnightblue" d="M221.48,-228.303C188.017,-223.016 144.161,-211.794 112.451,-188 76.3508,-160.913 53.1769,-111.214 42.7892,-84.7227"/>
<polygon fill="midnightblue" stroke="midnightblue" points="46.0121,-83.3489 39.2235,-75.2147 39.4579,-85.8069 46.0121,-83.3489"/>
</g>
<!-- Node4 -->
<g id="node4" class="node"><title>Node4</title>
<g id="a_node4"><a xlink:href="app_8h_source.html" target="_top" xlink:title="app.h">
<polygon fill="none" stroke="black" points="78.9384,-57 78.9384,-75 119.963,-75 119.963,-57 78.9384,-57"/>
<text text-anchor="middle" x="99.4506" y="-63" font-family="Helvetica,sans-Serif" font-size="10.00">app.h</text>
</a>
</g>
</g>
<!-- Node1&#45;&gt;Node4 -->
<g id="edge4" class="edge"><title>Node1&#45;&gt;Node4</title>
<path fill="none" stroke="midnightblue" d="M233.156,-224.913C188.771,-213.05 116.738,-186.19 85.4506,-132 76.9047,-117.198 82.9273,-97.7751 89.5252,-84.0276"/>
<polygon fill="midnightblue" stroke="midnightblue" points="92.6313,-85.641 94.2311,-75.1676 86.4492,-82.3574 92.6313,-85.641"/>
</g>
<!-- Node5 -->
<g id="node5" class="node"><title>Node5</title>
<g id="a_node5"><a xlink:href="measure_8h_source.html" target="_top" xlink:title="measure.h">
<polygon fill="none" stroke="black" points="94.8276,-113 94.8276,-131 158.074,-131 158.074,-113 94.8276,-113"/>
<text text-anchor="middle" x="126.451" y="-119" font-family="Helvetica,sans-Serif" font-size="10.00">measure.h</text>
</a>
</g>
</g>
<!-- Node1&#45;&gt;Node5 -->
<g id="edge6" class="edge"><title>Node1&#45;&gt;Node5</title>
<path fill="none" stroke="midnightblue" d="M259.627,-224.732C235.219,-206.087 175.646,-160.58 145.133,-137.271"/>
<polygon fill="midnightblue" stroke="midnightblue" points="147.08,-134.354 137.008,-131.065 142.83,-139.917 147.08,-134.354"/>
</g>
<!-- Node6 -->
<g id="node6" class="node"><title>Node6</title>
<g id="a_node6"><a xlink:href="message_8h_source.html" target="_top" xlink:title="message.h">
<polygon fill="none" stroke="black" points="237.993,-169 237.993,-187 302.909,-187 302.909,-169 237.993,-169"/>
<text text-anchor="middle" x="270.451" y="-175" font-family="Helvetica,sans-Serif" font-size="10.00">message.h</text>
</a>
</g>
</g>
<!-- Node1&#45;&gt;Node6 -->
<g id="edge8" class="edge"><title>Node1&#45;&gt;Node6</title>
<path fill="none" stroke="midnightblue" d="M270.451,-224.562C270.451,-217.308 270.451,-206.588 270.451,-197.369"/>
<polygon fill="midnightblue" stroke="midnightblue" points="273.951,-197.201 270.451,-187.201 266.951,-197.201 273.951,-197.201"/>
</g>
<!-- Node9 -->
<g id="node9" class="node"><title>Node9</title>
<g id="a_node9"><a xlink:href="location_8h.html" target="_top" xlink:title="location.h">
<polygon fill="none" stroke="red" points="261.047,-57 261.047,-75 319.854,-75 319.854,-57 261.047,-57"/>
<text text-anchor="middle" x="290.451" y="-63" font-family="Helvetica,sans-Serif" font-size="10.00">location.h</text>
</a>
</g>
</g>
<!-- Node1&#45;&gt;Node9 -->
<g id="edge22" class="edge"><title>Node1&#45;&gt;Node9</title>
<path fill="none" stroke="midnightblue" d="M285.725,-224.927C311.421,-210.364 362.447,-176.976 382.451,-132 394.534,-104.831 359.812,-87.0065 329.619,-77.01"/>
<polygon fill="midnightblue" stroke="midnightblue" points="330.629,-73.6587 320.041,-74.0375 328.554,-80.3441 330.629,-73.6587"/>
</g>
<!-- Node10 -->
<g id="node10" class="node"><title>Node10</title>
<g id="a_node10"><a xlink:href="network_8h_source.html" target="_top" xlink:title="network.h">
<polygon fill="none" stroke="black" points="430.773,-169 430.773,-187 490.128,-187 490.128,-169 430.773,-169"/>
<text text-anchor="middle" x="460.451" y="-175" font-family="Helvetica,sans-Serif" font-size="10.00">network.h</text>
</a>
</g>
</g>
<!-- Node1&#45;&gt;Node10 -->
<g id="edge16" class="edge"><title>Node1&#45;&gt;Node10</title>
<path fill="none" stroke="midnightblue" d="M298.896,-224.916C331.731,-215.584 385.884,-200.193 422.341,-189.831"/>
<polygon fill="midnightblue" stroke="midnightblue" points="423.46,-193.152 432.122,-187.051 421.546,-186.419 423.46,-193.152"/>
</g>
<!-- Node12 -->
<g id="node12" class="node"><title>Node12</title>
<g id="a_node12"><a xlink:href="motion_8h_source.html" target="_top" xlink:title="motion.h">
<polygon fill="none" stroke="black" points="501.273,-57 501.273,-75 555.628,-75 555.628,-57 501.273,-57"/>
<text text-anchor="middle" x="528.451" y="-63" font-family="Helvetica,sans-Serif" font-size="10.00">motion.h</text>
</a>
</g>
</g>
<!-- Node1&#45;&gt;Node12 -->
<g id="edge20" class="edge"><title>Node1&#45;&gt;Node12</title>
<path fill="none" stroke="midnightblue" d="M319.751,-232.845C368.44,-230.594 443.399,-221.327 498.451,-188 525.764,-171.465 532.849,-162.118 543.451,-132 548.973,-116.312 543.579,-97.7699 537.779,-84.513"/>
<polygon fill="midnightblue" stroke="midnightblue" points="540.758,-82.6357 533.24,-75.1698 534.461,-85.6941 540.758,-82.6357"/>
</g>
<!-- Node13 -->
<g id="node13" class="node"><title>Node13</title>
<g id="a_node13"><a xlink:href="light_8h_source.html" target="_top" xlink:title="light.h">
<polygon fill="none" stroke="black" points="590.108,-169 590.108,-187 632.793,-187 632.793,-169 590.108,-169"/>
<text text-anchor="middle" x="611.451" y="-175" font-family="Helvetica,sans-Serif" font-size="10.00">light.h</text>
</a>
</g>
</g>
<!-- Node1&#45;&gt;Node13 -->
<g id="edge23" class="edge"><title>Node1&#45;&gt;Node13</title>
<path fill="none" stroke="midnightblue" d="M319.483,-227.41C380.146,-220.123 486.439,-206.139 576.451,-188 577.696,-187.749 578.964,-187.481 580.242,-187.201"/>
<polygon fill="midnightblue" stroke="midnightblue" points="581.134,-190.587 590.062,-184.882 579.525,-183.774 581.134,-190.587"/>
</g>
<!-- Node3&#45;&gt;Node2 -->
<g id="edge3" class="edge"><title>Node3&#45;&gt;Node2</title>
<path fill="none" stroke="midnightblue" d="M58.9072,-56.9157C84.2028,-47.8092 125.524,-32.9337 154.251,-22.5917"/>
<polygon fill="midnightblue" stroke="midnightblue" points="155.617,-25.82 163.841,-19.1396 153.246,-19.2338 155.617,-25.82"/>
</g>
<!-- Node4&#45;&gt;Node2 -->
<g id="edge5" class="edge"><title>Node4&#45;&gt;Node2</title>
<path fill="none" stroke="midnightblue" d="M112.664,-56.7986C126.413,-48.2648 148.175,-34.7573 164.509,-24.6187"/>
<polygon fill="midnightblue" stroke="midnightblue" points="166.747,-27.3491 173.398,-19.1017 163.056,-21.4016 166.747,-27.3491"/>
</g>
<!-- Node5&#45;&gt;Node2 -->
<g id="edge7" class="edge"><title>Node5&#45;&gt;Node2</title>
<path fill="none" stroke="midnightblue" d="M130.96,-112.732C140.738,-94.8074 164.057,-52.0556 177.14,-28.0689"/>
<polygon fill="midnightblue" stroke="midnightblue" points="180.336,-29.5198 182.052,-19.0649 174.19,-26.1678 180.336,-29.5198"/>
</g>
<!-- Node6&#45;&gt;Node2 -->
<g id="edge9" class="edge"><title>Node6&#45;&gt;Node2</title>
<path fill="none" stroke="midnightblue" d="M251.272,-168.917C236.287,-161.557 216.249,-149.205 205.451,-132 185.445,-100.126 184.019,-54.4957 185.045,-29.3609"/>
<polygon fill="midnightblue" stroke="midnightblue" points="188.556,-29.2868 185.653,-19.0973 181.568,-28.8728 188.556,-29.2868"/>
</g>
<!-- Node7 -->
<g id="node7" class="node"><title>Node7</title>
<polygon fill="none" stroke="#bfbfbf" points="326.894,-113 326.894,-131 374.007,-131 374.007,-113 326.894,-113"/>
<text text-anchor="middle" x="350.451" y="-119" font-family="Helvetica,sans-Serif" font-size="10.00">limits.h</text>
</g>
<!-- Node6&#45;&gt;Node7 -->
<g id="edge10" class="edge"><title>Node6&#45;&gt;Node7</title>
<path fill="none" stroke="midnightblue" d="M282.601,-168.799C295.125,-160.345 314.881,-147.009 329.852,-136.904"/>
<polygon fill="midnightblue" stroke="midnightblue" points="332.118,-139.597 338.448,-131.102 328.201,-133.795 332.118,-139.597"/>
</g>
<!-- Node8 -->
<g id="node8" class="node"><title>Node8</title>
<g id="a_node8"><a xlink:href="contact_8h_source.html" target="_top" xlink:title="contact.h">
<polygon fill="none" stroke="black" points="214.16,-113 214.16,-131 270.741,-131 270.741,-113 214.16,-113"/>
<text text-anchor="middle" x="242.451" y="-119" font-family="Helvetica,sans-Serif" font-size="10.00">contact.h</text>
</a>
</g>
</g>
<!-- Node6&#45;&gt;Node8 -->
<g id="edge11" class="edge"><title>Node6&#45;&gt;Node8</title>
<path fill="none" stroke="midnightblue" d="M266.076,-168.562C262.149,-160.989 256.264,-149.639 251.35,-140.162"/>
<polygon fill="midnightblue" stroke="midnightblue" points="254.414,-138.468 246.703,-131.201 248.199,-141.69 254.414,-138.468"/>
</g>
<!-- Node6&#45;&gt;Node9 -->
<g id="edge15" class="edge"><title>Node6&#45;&gt;Node9</title>
<path fill="none" stroke="midnightblue" d="M272.183,-168.72C274.052,-159.703 277.079,-144.849 279.451,-132 282.375,-116.157 285.409,-98.0839 287.548,-85.0237"/>
<polygon fill="midnightblue" stroke="midnightblue" points="291.025,-85.4506 289.172,-75.0189 284.115,-84.3288 291.025,-85.4506"/>
</g>
<!-- Node8&#45;&gt;Node2 -->
<g id="edge12" class="edge"><title>Node8&#45;&gt;Node2</title>
<path fill="none" stroke="midnightblue" d="M238.242,-112.732C229.116,-94.8074 207.352,-52.0556 195.14,-28.0689"/>
<polygon fill="midnightblue" stroke="midnightblue" points="198.212,-26.3886 190.556,-19.0649 191.974,-29.5644 198.212,-26.3886"/>
</g>
<!-- Node8&#45;&gt;Node9 -->
<g id="edge13" class="edge"><title>Node8&#45;&gt;Node9</title>
<path fill="none" stroke="midnightblue" d="M249.951,-112.562C257.037,-104.591 267.843,-92.4341 276.511,-82.6825"/>
<polygon fill="midnightblue" stroke="midnightblue" points="279.133,-85.0008 283.16,-75.2014 273.901,-80.3503 279.133,-85.0008"/>
</g>
<!-- Node9&#45;&gt;Node2 -->
<g id="edge14" class="edge"><title>Node9&#45;&gt;Node2</title>
<path fill="none" stroke="midnightblue" d="M274.655,-56.7986C257.759,-48.0256 230.739,-33.9959 211.053,-23.7741"/>
<polygon fill="midnightblue" stroke="midnightblue" points="212.542,-20.6037 202.054,-19.1017 209.316,-26.8161 212.542,-20.6037"/>
</g>
<!-- Node10&#45;&gt;Node2 -->
<g id="edge17" class="edge"><title>Node10&#45;&gt;Node2</title>
<path fill="none" stroke="midnightblue" d="M453.149,-168.654C441.884,-155.94 419.375,-131.178 398.451,-112 369.079,-85.08 363.589,-74.7792 328.451,-56 298.051,-39.7532 260.814,-28.2258 232.1,-20.9076"/>
<polygon fill="midnightblue" stroke="midnightblue" points="232.871,-17.4931 222.324,-18.4938 231.193,-24.289 232.871,-17.4931"/>
</g>
<!-- Node10&#45;&gt;Node7 -->
<g id="edge19" class="edge"><title>Node10&#45;&gt;Node7</title>
<path fill="none" stroke="midnightblue" d="M443.744,-168.799C425.792,-159.986 397.034,-145.868 376.188,-135.635"/>
<polygon fill="midnightblue" stroke="midnightblue" points="377.473,-132.367 366.954,-131.102 374.388,-138.65 377.473,-132.367"/>
</g>
<!-- Node11 -->
<g id="node11" class="node"><title>Node11</title>
<polygon fill="none" stroke="#bfbfbf" points="468.441,-113 468.441,-131 534.46,-131 534.46,-113 468.441,-113"/>
<text text-anchor="middle" x="501.451" y="-119" font-family="Helvetica,sans-Serif" font-size="10.00">sys/types.h</text>
</g>
<!-- Node10&#45;&gt;Node11 -->
<g id="edge18" class="edge"><title>Node10&#45;&gt;Node11</title>
<path fill="none" stroke="midnightblue" d="M466.857,-168.562C472.789,-160.75 481.772,-148.919 489.097,-139.27"/>
<polygon fill="midnightblue" stroke="midnightblue" points="491.964,-141.282 495.224,-131.201 486.389,-137.049 491.964,-141.282"/>
</g>
<!-- Node12&#45;&gt;Node2 -->
<g id="edge21" class="edge"><title>Node12&#45;&gt;Node2</title>
<path fill="none" stroke="midnightblue" d="M501.041,-60.6722C442.499,-51.4287 304.717,-29.6736 232.478,-18.2675"/>
<polygon fill="midnightblue" stroke="midnightblue" points="232.737,-14.765 222.313,-16.6625 231.645,-21.6794 232.737,-14.765"/>
</g>
</g>
</svg>
