<?xml version="1.0" encoding="UTF-8" standalone="no"?>
<!DOCTYPE svg PUBLIC "-//W3C//DTD SVG 1.1//EN"
 "http://www.w3.org/Graphics/SVG/1.1/DTD/svg11.dtd">
<!-- Generated by graphviz version 2.36.0 (20140111.2315)
 -->
<!-- Title: include/iface/sys.h Pages: 1 -->
<svg width="520pt" height="196pt"
 viewBox="0.00 0.00 520.24 196.00" xmlns="http://www.w3.org/2000/svg" xmlns:xlink="http://www.w3.org/1999/xlink">
<g id="graph0" class="graph" transform="scale(1 1) rotate(0) translate(4 192)">
<title>include/iface/sys.h</title>
<!-- Node1 -->
<g id="node1" class="node"><title>Node1</title>
<polygon fill="#bfbfbf" stroke="black" points="248.386,-169 248.386,-187 346.095,-187 346.095,-169 248.386,-169"/>
<text text-anchor="middle" x="297.24" y="-175" font-family="Helvetica,sans-Serif" font-size="10.00">include/iface/sys.h</text>
</g>
<!-- Node2 -->
<g id="node2" class="node"><title>Node2</title>
<polygon fill="none" stroke="#bfbfbf" points="132.447,-1 132.447,-19 204.033,-19 204.033,-1 132.447,-1"/>
<text text-anchor="middle" x="168.24" y="-7" font-family="Helvetica,sans-Serif" font-size="10.00">hwpl/types.h</text>
</g>
<!-- Node1&#45;&gt;Node2 -->
<g id="edge1" class="edge"><title>Node1&#45;&gt;Node2</title>
<path fill="none" stroke="midnightblue" d="M248.269,-176.657C180.216,-173.176 59.4309,-155.425 6.24045,-76 -23.5066,-31.5811 64.6693,-17.5145 122.373,-13.0614"/>
<polygon fill="midnightblue" stroke="midnightblue" points="122.675,-16.5489 132.406,-12.3587 122.186,-9.56605 122.675,-16.5489"/>
</g>
<!-- Node3 -->
<g id="node3" class="node"><title>Node3</title>
<polygon fill="none" stroke="#bfbfbf" points="396.947,-113 396.947,-131 453.533,-131 453.533,-113 396.947,-113"/>
<text text-anchor="middle" x="425.24" y="-119" font-family="Helvetica,sans-Serif" font-size="10.00">dev/hio.h</text>
</g>
<!-- Node1&#45;&gt;Node3 -->
<g id="edge2" class="edge"><title>Node1&#45;&gt;Node3</title>
<path fill="none" stroke="midnightblue" d="M316.403,-168.916C337.612,-159.968 372.022,-145.452 396.469,-135.138"/>
<polygon fill="midnightblue" stroke="midnightblue" points="398.093,-138.251 405.947,-131.14 395.372,-131.802 398.093,-138.251"/>
</g>
<!-- Node4 -->
<g id="node4" class="node"><title>Node4</title>
<g id="a_node4"><a xlink:href="app_8h_source.html" target="_top" xlink:title="app.h">
<polygon fill="none" stroke="black" points="471.728,-113 471.728,-131 512.753,-131 512.753,-113 471.728,-113"/>
<text text-anchor="middle" x="492.24" y="-119" font-family="Helvetica,sans-Serif" font-size="10.00">app.h</text>
</a>
</g>
</g>
<!-- Node1&#45;&gt;Node4 -->
<g id="edge3" class="edge"><title>Node1&#45;&gt;Node4</title>
<path fill="none" stroke="midnightblue" d="M327.715,-168.935C358.934,-160.619 409.107,-147.106 461.75,-132.087"/>
<polygon fill="midnightblue" stroke="midnightblue" points="462.953,-135.383 471.604,-129.265 461.027,-128.653 462.953,-135.383"/>
</g>
<!-- Node5 -->
<g id="node5" class="node"><title>Node5</title>
<g id="a_node5"><a xlink:href="measure_8h_source.html" target="_top" xlink:title="measure.h">
<polygon fill="none" stroke="black" points="15.6174,-57 15.6174,-75 78.8635,-75 78.8635,-57 15.6174,-57"/>
<text text-anchor="middle" x="47.2404" y="-63" font-family="Helvetica,sans-Serif" font-size="10.00">measure.h</text>
</a>
</g>
</g>
<!-- Node1&#45;&gt;Node5 -->
<g id="edge4" class="edge"><title>Node1&#45;&gt;Node5</title>
<path fill="none" stroke="midnightblue" d="M277.048,-168.948C255.09,-160.126 219.01,-145.437 188.24,-132 147.803,-114.341 101.427,-92.6876 73.2413,-79.3692"/>
<polygon fill="midnightblue" stroke="midnightblue" points="74.6059,-76.1429 64.0701,-75.0262 71.6099,-82.4694 74.6059,-76.1429"/>
</g>
<!-- Node6 -->
<g id="node6" class="node"><title>Node6</title>
<g id="a_node6"><a xlink:href="message_8h_source.html" target="_top" xlink:title="message.h">
<polygon fill="none" stroke="black" points="196.782,-113 196.782,-131 261.698,-131 261.698,-113 196.782,-113"/>
<text text-anchor="middle" x="229.24" y="-119" font-family="Helvetica,sans-Serif" font-size="10.00">message.h</text>
</a>
</g>
</g>
<!-- Node1&#45;&gt;Node6 -->
<g id="edge6" class="edge"><title>Node1&#45;&gt;Node6</title>
<path fill="none" stroke="midnightblue" d="M286.913,-168.799C276.528,-160.552 260.295,-147.661 247.693,-137.654"/>
<polygon fill="midnightblue" stroke="midnightblue" points="249.673,-134.757 239.665,-131.279 245.32,-140.238 249.673,-134.757"/>
</g>
<!-- Node9 -->
<g id="node9" class="node"><title>Node9</title>
<g id="a_node9"><a xlink:href="location_8h.html" target="_top" xlink:title="location.h">
<polygon fill="none" stroke="black" points="275.837,-57 275.837,-75 334.644,-75 334.644,-57 275.837,-57"/>
<text text-anchor="middle" x="305.24" y="-63" font-family="Helvetica,sans-Serif" font-size="10.00">location.h</text>
</a>
</g>
</g>
<!-- Node1&#45;&gt;Node9 -->
<g id="edge17" class="edge"><title>Node1&#45;&gt;Node9</title>
<path fill="none" stroke="midnightblue" d="M297.842,-168.732C299.128,-151.047 302.172,-109.196 303.928,-85.0427"/>
<polygon fill="midnightblue" stroke="midnightblue" points="307.419,-85.2924 304.654,-75.0649 300.438,-84.7846 307.419,-85.2924"/>
</g>
<!-- Node11 -->
<g id="node11" class="node"><title>Node11</title>
<g id="a_node11"><a xlink:href="motion_8h_source.html" target="_top" xlink:title="motion.h">
<polygon fill="none" stroke="black" points="325.063,-113 325.063,-131 379.418,-131 379.418,-113 325.063,-113"/>
<text text-anchor="middle" x="352.24" y="-119" font-family="Helvetica,sans-Serif" font-size="10.00">motion.h</text>
</a>
</g>
</g>
<!-- Node1&#45;&gt;Node11 -->
<g id="edge14" class="edge"><title>Node1&#45;&gt;Node11</title>
<path fill="none" stroke="midnightblue" d="M305.834,-168.562C314.035,-160.511 326.583,-148.191 336.565,-138.391"/>
<polygon fill="midnightblue" stroke="midnightblue" points="339.204,-140.705 343.887,-131.201 334.299,-135.71 339.204,-140.705"/>
</g>
<!-- Node5&#45;&gt;Node2 -->
<g id="edge5" class="edge"><title>Node5&#45;&gt;Node2</title>
<path fill="none" stroke="midnightblue" d="M65.3554,-56.9157C85.315,-48.0081 117.643,-33.5805 140.734,-23.2755"/>
<polygon fill="midnightblue" stroke="midnightblue" points="142.296,-26.4112 150.002,-19.1396 139.443,-20.0189 142.296,-26.4112"/>
</g>
<!-- Node6&#45;&gt;Node2 -->
<g id="edge7" class="edge"><title>Node6&#45;&gt;Node2</title>
<path fill="none" stroke="midnightblue" d="M196.678,-116.31C172.72,-110.969 141.734,-99.6766 126.24,-76 114.839,-58.5761 132.636,-38.4256 148.457,-25.2361"/>
<polygon fill="midnightblue" stroke="midnightblue" points="150.672,-27.9472 156.385,-19.0247 146.354,-22.437 150.672,-27.9472"/>
</g>
<!-- Node7 -->
<g id="node7" class="node"><title>Node7</title>
<polygon fill="none" stroke="#bfbfbf" points="135.684,-57 135.684,-75 182.797,-75 182.797,-57 135.684,-57"/>
<text text-anchor="middle" x="159.24" y="-63" font-family="Helvetica,sans-Serif" font-size="10.00">limits.h</text>
</g>
<!-- Node6&#45;&gt;Node7 -->
<g id="edge8" class="edge"><title>Node6&#45;&gt;Node7</title>
<path fill="none" stroke="midnightblue" d="M218.609,-112.799C207.919,-104.552 191.208,-91.6608 178.236,-81.6535"/>
<polygon fill="midnightblue" stroke="midnightblue" points="180.028,-78.6154 169.972,-75.2786 175.752,-84.1579 180.028,-78.6154"/>
</g>
<!-- Node8 -->
<g id="node8" class="node"><title>Node8</title>
<g id="a_node8"><a xlink:href="contact_8h_source.html" target="_top" xlink:title="contact.h">
<polygon fill="none" stroke="black" points="200.95,-57 200.95,-75 257.531,-75 257.531,-57 200.95,-57"/>
<text text-anchor="middle" x="229.24" y="-63" font-family="Helvetica,sans-Serif" font-size="10.00">contact.h</text>
</a>
</g>
</g>
<!-- Node6&#45;&gt;Node8 -->
<g id="edge9" class="edge"><title>Node6&#45;&gt;Node8</title>
<path fill="none" stroke="midnightblue" d="M229.24,-112.562C229.24,-105.308 229.24,-94.5884 229.24,-85.3691"/>
<polygon fill="midnightblue" stroke="midnightblue" points="232.741,-85.2014 229.24,-75.2014 225.741,-85.2015 232.741,-85.2014"/>
</g>
<!-- Node6&#45;&gt;Node9 -->
<g id="edge11" class="edge"><title>Node6&#45;&gt;Node9</title>
<path fill="none" stroke="midnightblue" d="M240.783,-112.799C252.613,-104.393 271.233,-91.1633 285.425,-81.0794"/>
<polygon fill="midnightblue" stroke="midnightblue" points="287.464,-83.9239 293.589,-75.2786 283.41,-78.2176 287.464,-83.9239"/>
</g>
<!-- Node8&#45;&gt;Node2 -->
<g id="edge10" class="edge"><title>Node8&#45;&gt;Node2</title>
<path fill="none" stroke="midnightblue" d="M219.976,-56.7986C210.75,-48.6313 196.378,-35.9083 185.12,-25.943"/>
<polygon fill="midnightblue" stroke="midnightblue" points="187.4,-23.2864 177.592,-19.2786 182.76,-28.5277 187.4,-23.2864"/>
</g>
<!-- Node9&#45;&gt;Node2 -->
<g id="edge12" class="edge"><title>Node9&#45;&gt;Node2</title>
<path fill="none" stroke="midnightblue" d="M284.73,-56.9157C261.829,-47.8888 224.545,-33.1931 198.339,-22.8637"/>
<polygon fill="midnightblue" stroke="midnightblue" points="199.478,-19.5505 188.891,-19.1396 196.911,-26.0629 199.478,-19.5505"/>
</g>
<!-- Node10 -->
<g id="node10" class="node"><title>Node10</title>
<polygon fill="none" stroke="#bfbfbf" points="283.625,-1 283.625,-19 326.856,-19 326.856,-1 283.625,-1"/>
<text text-anchor="middle" x="305.24" y="-7" font-family="Helvetica,sans-Serif" font-size="10.00">time.h</text>
</g>
<!-- Node9&#45;&gt;Node10 -->
<g id="edge13" class="edge"><title>Node9&#45;&gt;Node10</title>
<path fill="none" stroke="midnightblue" d="M305.24,-56.5625C305.24,-49.308 305.24,-38.5884 305.24,-29.3691"/>
<polygon fill="midnightblue" stroke="midnightblue" points="308.741,-29.2014 305.24,-19.2014 301.741,-29.2015 308.741,-29.2014"/>
</g>
<!-- Node11&#45;&gt;Node2 -->
<g id="edge15" class="edge"><title>Node11&#45;&gt;Node2</title>
<path fill="none" stroke="midnightblue" d="M353.753,-112.625C355.705,-98.961 357.345,-71.8135 343.24,-56 326.254,-36.9558 260.176,-23.9425 214.266,-16.9864"/>
<polygon fill="midnightblue" stroke="midnightblue" points="214.628,-13.5021 204.225,-15.5121 213.611,-20.4278 214.628,-13.5021"/>
</g>
<!-- Node12 -->
<g id="node12" class="node"><title>Node12</title>
<polygon fill="none" stroke="#bfbfbf" points="390.12,-57 390.12,-75 438.361,-75 438.361,-57 390.12,-57"/>
<text text-anchor="middle" x="414.24" y="-63" font-family="Helvetica,sans-Serif" font-size="10.00">stdint.h</text>
</g>
<!-- Node11&#45;&gt;Node12 -->
<g id="edge16" class="edge"><title>Node11&#45;&gt;Node12</title>
<path fill="none" stroke="midnightblue" d="M361.657,-112.799C371.034,-104.631 385.642,-91.9083 397.084,-81.943"/>
<polygon fill="midnightblue" stroke="midnightblue" points="399.493,-84.4858 404.735,-75.2786 394.896,-79.2072 399.493,-84.4858"/>
</g>
</g>
</svg>
