<?xml version="1.0" encoding="UTF-8" standalone="no"?>
<!DOCTYPE svg PUBLIC "-//W3C//DTD SVG 1.1//EN"
 "http://www.w3.org/Graphics/SVG/1.1/DTD/svg11.dtd">
<!-- Generated by graphviz version 2.36.0 (20140111.2315)
 -->
<!-- Title: include/iface/sys.h Pages: 1 -->
<svg width="443pt" height="252pt"
 viewBox="0.00 0.00 443.04 252.00" xmlns="http://www.w3.org/2000/svg" xmlns:xlink="http://www.w3.org/1999/xlink">
<g id="graph0" class="graph" transform="scale(1 1) rotate(0) translate(4 248)">
<title>include/iface/sys.h</title>
<!-- Node1 -->
<g id="node1" class="node"><title>Node1</title>
<polygon fill="#bfbfbf" stroke="black" points="110.187,-225 110.187,-243 207.896,-243 207.896,-225 110.187,-225"/>
<text text-anchor="middle" x="159.041" y="-231" font-family="Helvetica,sans-Serif" font-size="10.00">include/iface/sys.h</text>
</g>
<!-- Node2 -->
<g id="node2" class="node"><title>Node2</title>
<polygon fill="none" stroke="#bfbfbf" points="101.249,-1 101.249,-19 172.834,-19 172.834,-1 101.249,-1"/>
<text text-anchor="middle" x="137.041" y="-7" font-family="Helvetica,sans-Serif" font-size="10.00">hwpl/types.h</text>
</g>
<!-- Node1&#45;&gt;Node2 -->
<g id="edge1" class="edge"><title>Node1&#45;&gt;Node2</title>
<path fill="none" stroke="midnightblue" d="M129.936,-224.99C108.654,-217.979 80.1154,-206.054 60.0415,-188 18.5127,-150.651 14.2717,-130.713 3.04149,-76 1.25424,-67.2926 -2.14786,-63.2169 3.04149,-56 22.9285,-28.3431 60.6456,-17.4484 91.0104,-13.2694"/>
<polygon fill="midnightblue" stroke="midnightblue" points="91.4673,-16.7399 100.99,-12.0951 90.6492,-9.78785 91.4673,-16.7399"/>
</g>
<!-- Node3 -->
<g id="node3" class="node"><title>Node3</title>
<g id="a_node3"><a xlink:href="app_8h_source.html" target="_top" xlink:title="app.h">
<polygon fill="none" stroke="black" points="12.5293,-57 12.5293,-75 53.5537,-75 53.5537,-57 12.5293,-57"/>
<text text-anchor="middle" x="33.0415" y="-63" font-family="Helvetica,sans-Serif" font-size="10.00">app.h</text>
</a>
</g>
</g>
<!-- Node1&#45;&gt;Node3 -->
<g id="edge2" class="edge"><title>Node1&#45;&gt;Node3</title>
<path fill="none" stroke="midnightblue" d="M141.648,-224.78C113.568,-210.442 59.0742,-177.943 36.0415,-132 28.7637,-117.483 28.7133,-98.7743 30.0683,-85.1586"/>
<polygon fill="midnightblue" stroke="midnightblue" points="33.5539,-85.4986 31.4093,-75.1231 26.6156,-84.5714 33.5539,-85.4986"/>
</g>
<!-- Node4 -->
<g id="node4" class="node"><title>Node4</title>
<g id="a_node4"><a xlink:href="measure_8h_source.html" target="_top" xlink:title="measure.h">
<polygon fill="none" stroke="black" points="45.4184,-113 45.4184,-131 108.665,-131 108.665,-113 45.4184,-113"/>
<text text-anchor="middle" x="77.0415" y="-119" font-family="Helvetica,sans-Serif" font-size="10.00">measure.h</text>
</a>
</g>
</g>
<!-- Node1&#45;&gt;Node4 -->
<g id="edge4" class="edge"><title>Node1&#45;&gt;Node4</title>
<path fill="none" stroke="midnightblue" d="M152.878,-224.732C139.337,-206.567 106.79,-162.906 89.0548,-139.115"/>
<polygon fill="midnightblue" stroke="midnightblue" points="91.8363,-136.991 83.0535,-131.065 86.2241,-141.174 91.8363,-136.991"/>
</g>
<!-- Node5 -->
<g id="node5" class="node"><title>Node5</title>
<g id="a_node5"><a xlink:href="message_8h_source.html" target="_top" xlink:title="message.h">
<polygon fill="none" stroke="black" points="156.583,-169 156.583,-187 221.499,-187 221.499,-169 156.583,-169"/>
<text text-anchor="middle" x="189.041" y="-175" font-family="Helvetica,sans-Serif" font-size="10.00">message.h</text>
</a>
</g>
</g>
<!-- Node1&#45;&gt;Node5 -->
<g id="edge6" class="edge"><title>Node1&#45;&gt;Node5</title>
<path fill="none" stroke="midnightblue" d="M163.729,-224.562C167.936,-216.989 174.242,-205.639 179.507,-196.162"/>
<polygon fill="midnightblue" stroke="midnightblue" points="182.688,-197.643 184.485,-187.201 176.569,-194.243 182.688,-197.643"/>
</g>
<!-- Node8 -->
<g id="node8" class="node"><title>Node8</title>
<g id="a_node8"><a xlink:href="location_8h.html" target="_top" xlink:title="location.h">
<polygon fill="none" stroke="red" points="257.638,-57 257.638,-75 316.445,-75 316.445,-57 257.638,-57"/>
<text text-anchor="middle" x="287.041" y="-63" font-family="Helvetica,sans-Serif" font-size="10.00">location.h</text>
</a>
</g>
</g>
<!-- Node1&#45;&gt;Node8 -->
<g id="edge16" class="edge"><title>Node1&#45;&gt;Node8</title>
<path fill="none" stroke="midnightblue" d="M184.861,-224.909C221.227,-211.943 286.101,-182.676 313.041,-132 321.559,-115.978 311.299,-96.5364 301.266,-83.1132"/>
<polygon fill="midnightblue" stroke="midnightblue" points="303.919,-80.827 294.906,-75.2577 298.479,-85.232 303.919,-80.827"/>
</g>
<!-- Node9 -->
<g id="node9" class="node"><title>Node9</title>
<g id="a_node9"><a xlink:href="motion_8h_source.html" target="_top" xlink:title="motion.h">
<polygon fill="none" stroke="black" points="380.864,-169 380.864,-187 435.219,-187 435.219,-169 380.864,-169"/>
<text text-anchor="middle" x="408.041" y="-175" font-family="Helvetica,sans-Serif" font-size="10.00">motion.h</text>
</a>
</g>
</g>
<!-- Node1&#45;&gt;Node9 -->
<g id="edge14" class="edge"><title>Node1&#45;&gt;Node9</title>
<path fill="none" stroke="midnightblue" d="M196.247,-224.986C237.868,-216.013 307.297,-201.02 367.041,-188 368.283,-187.729 369.546,-187.454 370.821,-187.175"/>
<polygon fill="midnightblue" stroke="midnightblue" points="371.676,-190.571 380.697,-185.015 370.18,-183.733 371.676,-190.571"/>
</g>
<!-- Node3&#45;&gt;Node2 -->
<g id="edge3" class="edge"><title>Node3&#45;&gt;Node2</title>
<path fill="none" stroke="midnightblue" d="M48.8369,-56.7986C65.733,-48.0256 92.7531,-33.9959 112.44,-23.7741"/>
<polygon fill="midnightblue" stroke="midnightblue" points="114.176,-26.8161 121.438,-19.1017 110.95,-20.6037 114.176,-26.8161"/>
</g>
<!-- Node4&#45;&gt;Node2 -->
<g id="edge5" class="edge"><title>Node4&#45;&gt;Node2</title>
<path fill="none" stroke="midnightblue" d="M81.5512,-112.732C91.3284,-94.8074 114.648,-52.0556 127.731,-28.0689"/>
<polygon fill="midnightblue" stroke="midnightblue" points="130.927,-29.5198 132.642,-19.0649 124.781,-26.1678 130.927,-29.5198"/>
</g>
<!-- Node5&#45;&gt;Node2 -->
<g id="edge7" class="edge"><title>Node5&#45;&gt;Node2</title>
<path fill="none" stroke="midnightblue" d="M181.112,-168.799C173.398,-160.312 161.996,-146.312 156.041,-132 141.792,-97.7495 138.14,-53.989 137.259,-29.5853"/>
<polygon fill="midnightblue" stroke="midnightblue" points="140.751,-29.2009 137.015,-19.2866 133.753,-29.3668 140.751,-29.2009"/>
</g>
<!-- Node6 -->
<g id="node6" class="node"><title>Node6</title>
<polygon fill="none" stroke="#bfbfbf" points="165.485,-113 165.485,-131 212.598,-131 212.598,-113 165.485,-113"/>
<text text-anchor="middle" x="189.041" y="-119" font-family="Helvetica,sans-Serif" font-size="10.00">limits.h</text>
</g>
<!-- Node5&#45;&gt;Node6 -->
<g id="edge8" class="edge"><title>Node5&#45;&gt;Node6</title>
<path fill="none" stroke="midnightblue" d="M189.041,-168.562C189.041,-161.308 189.041,-150.588 189.041,-141.369"/>
<polygon fill="midnightblue" stroke="midnightblue" points="192.542,-141.201 189.041,-131.201 185.542,-141.201 192.542,-141.201"/>
</g>
<!-- Node7 -->
<g id="node7" class="node"><title>Node7</title>
<g id="a_node7"><a xlink:href="contact_8h_source.html" target="_top" xlink:title="contact.h">
<polygon fill="none" stroke="black" points="230.751,-113 230.751,-131 287.332,-131 287.332,-113 230.751,-113"/>
<text text-anchor="middle" x="259.041" y="-119" font-family="Helvetica,sans-Serif" font-size="10.00">contact.h</text>
</a>
</g>
</g>
<!-- Node5&#45;&gt;Node7 -->
<g id="edge9" class="edge"><title>Node5&#45;&gt;Node7</title>
<path fill="none" stroke="midnightblue" d="M199.673,-168.799C210.363,-160.552 227.074,-147.661 240.046,-137.654"/>
<polygon fill="midnightblue" stroke="midnightblue" points="242.53,-140.158 248.31,-131.279 238.254,-134.615 242.53,-140.158"/>
</g>
<!-- Node5&#45;&gt;Node8 -->
<g id="edge13" class="edge"><title>Node5&#45;&gt;Node8</title>
<path fill="none" stroke="midnightblue" d="M221.547,-172.945C246.579,-167.927 279.594,-156.76 296.041,-132 305.284,-118.086 300.987,-98.7876 295.628,-84.837"/>
<polygon fill="midnightblue" stroke="midnightblue" points="298.72,-83.1702 291.529,-75.3892 292.298,-85.9561 298.72,-83.1702"/>
</g>
<!-- Node7&#45;&gt;Node2 -->
<g id="edge10" class="edge"><title>Node7&#45;&gt;Node2</title>
<path fill="none" stroke="midnightblue" d="M249.872,-112.732C229.37,-94.2473 179.586,-49.3594 153.541,-25.8765"/>
<polygon fill="midnightblue" stroke="midnightblue" points="155.757,-23.1619 145.986,-19.0649 151.069,-28.3607 155.757,-23.1619"/>
</g>
<!-- Node7&#45;&gt;Node8 -->
<g id="edge11" class="edge"><title>Node7&#45;&gt;Node8</title>
<path fill="none" stroke="midnightblue" d="M263.416,-112.562C267.343,-104.989 273.229,-93.6393 278.142,-84.1625"/>
<polygon fill="midnightblue" stroke="midnightblue" points="281.293,-85.6901 282.789,-75.2014 275.079,-82.4679 281.293,-85.6901"/>
</g>
<!-- Node8&#45;&gt;Node2 -->
<g id="edge12" class="edge"><title>Node8&#45;&gt;Node2</title>
<path fill="none" stroke="midnightblue" d="M264.585,-56.9157C239.289,-47.8092 197.968,-32.9337 169.241,-22.5917"/>
<polygon fill="midnightblue" stroke="midnightblue" points="170.246,-19.2338 159.652,-19.1396 167.875,-25.82 170.246,-19.2338"/>
</g>
<!-- Node9&#45;&gt;Node2 -->
<g id="edge15" class="edge"><title>Node9&#45;&gt;Node2</title>
<path fill="none" stroke="midnightblue" d="M404.987,-168.999C396.208,-147.135 368.705,-86.0167 325.041,-56 282.681,-26.8796 223.711,-16.4963 183.17,-12.8534"/>
<polygon fill="midnightblue" stroke="midnightblue" points="183.271,-9.35048 173.026,-12.0474 182.717,-16.3285 183.271,-9.35048"/>
</g>
</g>
</svg>
