<?xml version="1.0" encoding="UTF-8" standalone="no"?>
<!DOCTYPE svg PUBLIC "-//W3C//DTD SVG 1.1//EN"
 "http://www.w3.org/Graphics/SVG/1.1/DTD/svg11.dtd">
<!-- Generated by graphviz version 2.36.0 (20140111.2315)
 -->
<!-- Title: include/iface/sys.h Pages: 1 -->
<svg width="1357pt" height="374pt"
 viewBox="0.00 0.00 1357.00 374.00" xmlns="http://www.w3.org/2000/svg" xmlns:xlink="http://www.w3.org/1999/xlink">
<g id="graph0" class="graph" transform="scale(1 1) rotate(0) translate(4 370)">
<title>include/iface/sys.h</title>
<!-- Node1 -->
<g id="node1" class="node"><title>Node1</title>
<polygon fill="#bfbfbf" stroke="black" points="662.146,-347 662.146,-365 759.854,-365 759.854,-347 662.146,-347"/>
<text text-anchor="middle" x="711" y="-353" font-family="Helvetica,sans-Serif" font-size="10.00">include/iface/sys.h</text>
</g>
<!-- Node2 -->
<g id="node2" class="node"><title>Node2</title>
<g id="a_node2"><a xlink:href="_app_controller_8hpp_source.html" target="_top" xlink:title="include/AppController.hpp">
<polygon fill="none" stroke="black" points="184.737,-123 184.737,-141 315.263,-141 315.263,-123 184.737,-123"/>
<text text-anchor="middle" x="250" y="-129" font-family="Helvetica,sans-Serif" font-size="10.00">include/AppController.hpp</text>
</a>
</g>
</g>
<!-- Node1&#45;&gt;Node2 -->
<g id="edge1" class="edge"><title>Node1&#45;&gt;Node2</title>
<path fill="none" stroke="midnightblue" d="M651.928,-355.118C580.679,-353.537 458.242,-345.257 360,-310 272.025,-278.427 227.187,-279.82 182,-198 168.262,-173.125 204.613,-152.036 229.311,-141.078"/>
<polygon fill="midnightblue" stroke="midnightblue" points="651.997,-358.62 662.06,-355.305 652.126,-351.621 651.997,-358.62"/>
</g>
<!-- Node11 -->
<g id="node11" class="node"><title>Node11</title>
<g id="a_node11"><a xlink:href="_icon_8hpp_source.html" target="_top" xlink:title="include/Ui/Icon.hpp">
<polygon fill="none" stroke="black" points="425.473,-291 425.473,-309 526.527,-309 526.527,-291 425.473,-291"/>
<text text-anchor="middle" x="476" y="-297" font-family="Helvetica,sans-Serif" font-size="10.00">include/Ui/Icon.hpp</text>
</a>
</g>
</g>
<!-- Node1&#45;&gt;Node11 -->
<g id="edge11" class="edge"><title>Node1&#45;&gt;Node11</title>
<path fill="none" stroke="midnightblue" d="M666.264,-344.72C621.156,-334.355 552.452,-318.568 511.12,-309.07"/>
<polygon fill="midnightblue" stroke="midnightblue" points="665.542,-348.145 676.072,-346.974 667.11,-341.323 665.542,-348.145"/>
</g>
<!-- Node12 -->
<g id="node12" class="node"><title>Node12</title>
<g id="a_node12"><a xlink:href="_button_bar_8hpp_source.html" target="_top" xlink:title="include/Ui/ButtonBar.hpp">
<polygon fill="none" stroke="black" points="333.961,-235 333.961,-253 460.039,-253 460.039,-235 333.961,-235"/>
<text text-anchor="middle" x="397" y="-241" font-family="Helvetica,sans-Serif" font-size="10.00">include/Ui/ButtonBar.hpp</text>
</a>
</g>
</g>
<!-- Node1&#45;&gt;Node12 -->
<g id="edge23" class="edge"><title>Node1&#45;&gt;Node12</title>
<path fill="none" stroke="midnightblue" d="M651.669,-353.317C575.809,-349.95 450.164,-339.897 416,-310 399.367,-295.444 396.917,-267.212 396.789,-253.241"/>
<polygon fill="midnightblue" stroke="midnightblue" points="651.89,-356.829 662.028,-353.749 652.182,-349.835 651.89,-356.829"/>
</g>
<!-- Node18 -->
<g id="node18" class="node"><title>Node18</title>
<g id="a_node18"><a xlink:href="_hio_control_8hpp_source.html" target="_top" xlink:title="include/HioControl.hpp">
<polygon fill="none" stroke="black" points="191.414,-179 191.414,-197 308.586,-197 308.586,-179 191.414,-179"/>
<text text-anchor="middle" x="250" y="-185" font-family="Helvetica,sans-Serif" font-size="10.00">include/HioControl.hpp</text>
</a>
</g>
</g>
<!-- Node1&#45;&gt;Node18 -->
<g id="edge24" class="edge"><title>Node1&#45;&gt;Node18</title>
<path fill="none" stroke="midnightblue" d="M651.535,-355.006C587.196,-353.08 482.723,-344.249 400,-310 335.391,-283.251 276.298,-219.529 256.778,-197.033"/>
<polygon fill="midnightblue" stroke="midnightblue" points="651.811,-358.514 661.896,-355.267 651.987,-351.517 651.811,-358.514"/>
</g>
<!-- Node19 -->
<g id="node19" class="node"><title>Node19</title>
<g id="a_node19"><a xlink:href="_button_8hpp_source.html" target="_top" xlink:title="include/Button.hpp">
<polygon fill="none" stroke="black" points="544.579,-291 544.579,-309 643.421,-309 643.421,-291 544.579,-291"/>
<text text-anchor="middle" x="594" y="-297" font-family="Helvetica,sans-Serif" font-size="10.00">include/Button.hpp</text>
</a>
</g>
</g>
<!-- Node1&#45;&gt;Node19 -->
<g id="edge26" class="edge"><title>Node1&#45;&gt;Node19</title>
<path fill="none" stroke="midnightblue" d="M684.242,-342.65C661.972,-332.372 630.899,-318.03 611.636,-309.14"/>
<polygon fill="midnightblue" stroke="midnightblue" points="682.938,-345.903 693.484,-346.916 685.871,-339.547 682.938,-345.903"/>
</g>
<!-- Node20 -->
<g id="node20" class="node"><title>Node20</title>
<g id="a_node20"><a xlink:href="app_8h_source.html" target="_top" xlink:title="include/iface/app.h">
<polygon fill="none" stroke="black" points="661.303,-291 661.303,-309 760.697,-309 760.697,-291 661.303,-291"/>
<text text-anchor="middle" x="711" y="-297" font-family="Helvetica,sans-Serif" font-size="10.00">include/iface/app.h</text>
</a>
</g>
</g>
<!-- Node1&#45;&gt;Node20 -->
<g id="edge27" class="edge"><title>Node1&#45;&gt;Node20</title>
<path fill="none" stroke="midnightblue" d="M711,-336.329C711,-327.077 711,-316.38 711,-309.201"/>
<polygon fill="midnightblue" stroke="midnightblue" points="707.5,-336.562 711,-346.562 714.5,-336.563 707.5,-336.562"/>
</g>
<!-- Node21 -->
<g id="node21" class="node"><title>Node21</title>
<g id="a_node21"><a xlink:href="_measure_8hpp_source.html" target="_top" xlink:title="include/Measure.hpp">
<polygon fill="none" stroke="black" points="778.582,-291 778.582,-309 887.418,-309 887.418,-291 778.582,-291"/>
<text text-anchor="middle" x="833" y="-297" font-family="Helvetica,sans-Serif" font-size="10.00">include/Measure.hpp</text>
</a>
</g>
</g>
<!-- Node1&#45;&gt;Node21 -->
<g id="edge28" class="edge"><title>Node1&#45;&gt;Node21</title>
<path fill="none" stroke="midnightblue" d="M738.589,-342.788C761.833,-332.5 794.435,-318.07 814.611,-309.14"/>
<polygon fill="midnightblue" stroke="midnightblue" points="736.992,-339.668 729.265,-346.916 739.826,-346.069 736.992,-339.668"/>
</g>
<!-- Node22 -->
<g id="node22" class="node"><title>Node22</title>
<g id="a_node22"><a xlink:href="_motion_8hpp_source.html" target="_top" xlink:title="include/Motion.hpp">
<polygon fill="none" stroke="black" points="905.027,-291 905.027,-309 1004.97,-309 1004.97,-291 905.027,-291"/>
<text text-anchor="middle" x="955" y="-297" font-family="Helvetica,sans-Serif" font-size="10.00">include/Motion.hpp</text>
</a>
</g>
</g>
<!-- Node1&#45;&gt;Node22 -->
<g id="edge29" class="edge"><title>Node1&#45;&gt;Node22</title>
<path fill="none" stroke="midnightblue" d="M757.154,-344.786C803.985,-334.421 875.53,-318.588 918.535,-309.07"/>
<polygon fill="midnightblue" stroke="midnightblue" points="756.273,-341.396 747.266,-346.974 757.786,-348.23 756.273,-341.396"/>
</g>
<!-- Node23 -->
<g id="node23" class="node"><title>Node23</title>
<g id="a_node23"><a xlink:href="_sensor_8hpp_source.html" target="_top" xlink:title="include/Sensor.hpp">
<polygon fill="none" stroke="black" points="1023.47,-291 1023.47,-309 1124.53,-309 1124.53,-291 1023.47,-291"/>
<text text-anchor="middle" x="1074" y="-297" font-family="Helvetica,sans-Serif" font-size="10.00">include/Sensor.hpp</text>
</a>
</g>
</g>
<!-- Node1&#45;&gt;Node23 -->
<g id="edge30" class="edge"><title>Node1&#45;&gt;Node23</title>
<path fill="none" stroke="midnightblue" d="M769.987,-346.225C840.319,-335.762 956.686,-318.452 1023.2,-308.558"/>
<polygon fill="midnightblue" stroke="midnightblue" points="769.332,-342.784 759.956,-347.717 770.362,-349.708 769.332,-342.784"/>
</g>
<!-- Node24 -->
<g id="node24" class="node"><title>Node24</title>
<g id="a_node24"><a xlink:href="_sys_8hpp_source.html" target="_top" xlink:title="include/Sys.hpp">
<polygon fill="none" stroke="black" points="1142.7,-291 1142.7,-309 1229.3,-309 1229.3,-291 1142.7,-291"/>
<text text-anchor="middle" x="1186" y="-297" font-family="Helvetica,sans-Serif" font-size="10.00">include/Sys.hpp</text>
</a>
</g>
</g>
<!-- Node1&#45;&gt;Node24 -->
<g id="edge31" class="edge"><title>Node1&#45;&gt;Node24</title>
<path fill="none" stroke="midnightblue" d="M769.944,-349.877C851.65,-342.511 1003.86,-327.832 1133,-310 1136.14,-309.566 1139.39,-309.088 1142.65,-308.587"/>
<polygon fill="midnightblue" stroke="midnightblue" points="769.502,-346.402 759.855,-350.782 770.128,-353.374 769.502,-346.402"/>
</g>
<!-- Node26 -->
<g id="node26" class="node"><title>Node26</title>
<g id="a_node26"><a xlink:href="_font_8hpp_source.html" target="_top" xlink:title="include/Ui/Font.hpp">
<polygon fill="none" stroke="black" points="1246.92,-291 1246.92,-309 1349.08,-309 1349.08,-291 1246.92,-291"/>
<text text-anchor="middle" x="1298" y="-297" font-family="Helvetica,sans-Serif" font-size="10.00">include/Ui/Font.hpp</text>
</a>
</g>
</g>
<!-- Node1&#45;&gt;Node26 -->
<g id="edge33" class="edge"><title>Node1&#45;&gt;Node26</title>
<path fill="none" stroke="midnightblue" d="M770.413,-351.166C868.136,-344.581 1068.84,-329.889 1238,-310 1240.82,-309.668 1243.72,-309.306 1246.64,-308.924"/>
<polygon fill="midnightblue" stroke="midnightblue" points="769.892,-347.693 760.148,-351.853 770.359,-354.677 769.892,-347.693"/>
</g>
<!-- Node3 -->
<g id="node3" class="node"><title>Node3</title>
<g id="a_node3"><a xlink:href="_menu_8hpp_source.html" target="_top" xlink:title="include/Ui/Menu.hpp">
<polygon fill="none" stroke="black" points="169.417,-67 169.417,-85 276.583,-85 276.583,-67 169.417,-67"/>
<text text-anchor="middle" x="223" y="-73" font-family="Helvetica,sans-Serif" font-size="10.00">include/Ui/Menu.hpp</text>
</a>
</g>
</g>
<!-- Node2&#45;&gt;Node3 -->
<g id="edge2" class="edge"><title>Node2&#45;&gt;Node3</title>
<path fill="none" stroke="midnightblue" d="M241.27,-113.54C236.512,-104.025 230.848,-92.6953 227.101,-85.2014"/>
<polygon fill="midnightblue" stroke="midnightblue" points="238.179,-115.183 245.781,-122.562 244.44,-112.053 238.179,-115.183"/>
</g>
<!-- Node4 -->
<g id="node4" class="node"><title>Node4</title>
<g id="a_node4"><a xlink:href="_app_8hpp_source.html" target="_top" xlink:title="include/App.hpp">
<polygon fill="none" stroke="black" points="259.138,-6 259.138,-24 346.862,-24 346.862,-6 259.138,-6"/>
<text text-anchor="middle" x="303" y="-12" font-family="Helvetica,sans-Serif" font-size="10.00">include/App.hpp</text>
</a>
</g>
</g>
<!-- Node2&#45;&gt;Node4 -->
<g id="edge4" class="edge"><title>Node2&#45;&gt;Node4</title>
<path fill="none" stroke="midnightblue" d="M264.927,-115.163C271.915,-106.995 279.821,-96.5503 285,-86 295.285,-65.049 300.127,-37.5899 302.006,-24.1397"/>
<polygon fill="midnightblue" stroke="midnightblue" points="262.19,-112.973 258.13,-122.759 267.407,-117.641 262.19,-112.973"/>
</g>
<!-- Node5 -->
<g id="node5" class="node"><title>Node5</title>
<g id="a_node5"><a xlink:href="_app_state_8hpp_source.html" target="_top" xlink:title="include/AppState.hpp">
<polygon fill="none" stroke="black" points="371.463,-67 371.463,-85 482.537,-85 482.537,-67 371.463,-67"/>
<text text-anchor="middle" x="427" y="-73" font-family="Helvetica,sans-Serif" font-size="10.00">include/AppState.hpp</text>
</a>
</g>
</g>
<!-- Node2&#45;&gt;Node5 -->
<g id="edge5" class="edge"><title>Node2&#45;&gt;Node5</title>
<path fill="none" stroke="midnightblue" d="M286.498,-119.865C320.485,-109.496 370.329,-94.2895 400.61,-85.0513"/>
<polygon fill="midnightblue" stroke="midnightblue" points="285.042,-116.65 276.499,-122.916 287.085,-123.345 285.042,-116.65"/>
</g>
<!-- Node8 -->
<g id="node8" class="node"><title>Node8</title>
<g id="a_node8"><a xlink:href="_helper_8hpp_source.html" target="_top" xlink:title="include/Helper/Helper.hpp">
<polygon fill="none" stroke="black" points="20.4609,-67 20.4609,-85 151.539,-85 151.539,-67 20.4609,-67"/>
<text text-anchor="middle" x="86" y="-73" font-family="Helvetica,sans-Serif" font-size="10.00">include/Helper/Helper.hpp</text>
</a>
</g>
</g>
<!-- Node2&#45;&gt;Node8 -->
<g id="edge8" class="edge"><title>Node2&#45;&gt;Node8</title>
<path fill="none" stroke="midnightblue" d="M215.775,-119.731C184.294,-109.365 138.388,-94.2497 110.452,-85.0513"/>
<polygon fill="midnightblue" stroke="midnightblue" points="214.855,-123.113 225.448,-122.916 217.044,-116.464 214.855,-123.113"/>
</g>
<!-- Node10 -->
<g id="node10" class="node"><title>Node10</title>
<g id="a_node10"><a xlink:href="_menu_helper_8hpp_source.html" target="_top" xlink:title="include/Helper/MenuHelper.hpp">
<polygon fill="none" stroke="black" points="500.954,-67 500.954,-85 657.046,-85 657.046,-67 500.954,-67"/>
<text text-anchor="middle" x="579" y="-73" font-family="Helvetica,sans-Serif" font-size="10.00">include/Helper/MenuHelper.hpp</text>
</a>
</g>
</g>
<!-- Node2&#45;&gt;Node10 -->
<g id="edge10" class="edge"><title>Node2&#45;&gt;Node10</title>
<path fill="none" stroke="midnightblue" d="M309.099,-121.3C372.242,-110.936 471.178,-94.6972 530.101,-85.026"/>
<polygon fill="midnightblue" stroke="midnightblue" points="308.2,-117.9 298.899,-122.974 309.334,-124.808 308.2,-117.9"/>
</g>
<!-- Node3&#45;&gt;Node4 -->
<g id="edge3" class="edge"><title>Node3&#45;&gt;Node4</title>
<path fill="none" stroke="midnightblue" d="M242.512,-60.6096C258.05,-49.151 279.236,-33.5261 291.971,-24.134"/>
<polygon fill="midnightblue" stroke="midnightblue" points="240.094,-58.044 234.124,-66.7963 244.249,-63.6777 240.094,-58.044"/>
</g>
<!-- Node6 -->
<g id="node6" class="node"><title>Node6</title>
<g id="a_node6"><a xlink:href="_text_input_helper_8hpp_source.html" target="_top" xlink:title="include/Helper/TextInput\lHelper.hpp">
<polygon fill="none" stroke="black" points="365.357,-1 365.357,-29 488.643,-29 488.643,-1 365.357,-1"/>
<text text-anchor="start" x="373.357" y="-17" font-family="Helvetica,sans-Serif" font-size="10.00">include/Helper/TextInput</text>
<text text-anchor="middle" x="427" y="-7" font-family="Helvetica,sans-Serif" font-size="10.00">Helper.hpp</text>
</a>
</g>
</g>
<!-- Node5&#45;&gt;Node6 -->
<g id="edge6" class="edge"><title>Node5&#45;&gt;Node6</title>
<path fill="none" stroke="midnightblue" d="M427,-56.6543C427,-47.7359 427,-37.2225 427,-29.1215"/>
<polygon fill="midnightblue" stroke="midnightblue" points="423.5,-56.7963 427,-66.7963 430.5,-56.7963 423.5,-56.7963"/>
</g>
<!-- Node7 -->
<g id="node7" class="node"><title>Node7</title>
<g id="a_node7"><a xlink:href="_voice_input_helper_8hpp_source.html" target="_top" xlink:title="include/Helper/VoiceInput\lHelper.hpp">
<polygon fill="none" stroke="black" points="506.293,-1 506.293,-29 635.707,-29 635.707,-1 506.293,-1"/>
<text text-anchor="start" x="514.293" y="-17" font-family="Helvetica,sans-Serif" font-size="10.00">include/Helper/VoiceInput</text>
<text text-anchor="middle" x="571" y="-7" font-family="Helvetica,sans-Serif" font-size="10.00">Helper.hpp</text>
</a>
</g>
</g>
<!-- Node5&#45;&gt;Node7 -->
<g id="edge7" class="edge"><title>Node5&#45;&gt;Node7</title>
<path fill="none" stroke="midnightblue" d="M456.044,-63.1001C480.114,-53.2379 514.281,-39.2389 539.107,-29.0674"/>
<polygon fill="midnightblue" stroke="midnightblue" points="454.647,-59.8899 446.721,-66.92 457.301,-66.3673 454.647,-59.8899"/>
</g>
<!-- Node9 -->
<g id="node9" class="node"><title>Node9</title>
<g id="a_node9"><a xlink:href="_compass_helper_8hpp_source.html" target="_top" xlink:title="include/Helper/CompassHelper.hpp">
<polygon fill="none" stroke="black" points="-0.657227,-6 -0.657227,-24 172.657,-24 172.657,-6 -0.657227,-6"/>
<text text-anchor="middle" x="86" y="-12" font-family="Helvetica,sans-Serif" font-size="10.00">include/Helper/CompassHelper.hpp</text>
</a>
</g>
</g>
<!-- Node8&#45;&gt;Node9 -->
<g id="edge9" class="edge"><title>Node8&#45;&gt;Node9</title>
<path fill="none" stroke="midnightblue" d="M86,-56.6119C86,-45.7247 86,-32.4728 86,-24.134"/>
<polygon fill="midnightblue" stroke="midnightblue" points="82.5001,-56.7963 86,-66.7963 89.5001,-56.7963 82.5001,-56.7963"/>
</g>
<!-- Node11&#45;&gt;Node12 -->
<g id="edge12" class="edge"><title>Node11&#45;&gt;Node12</title>
<path fill="none" stroke="midnightblue" d="M455.484,-284.976C440.663,-274.846 421.164,-261.517 408.852,-253.102"/>
<polygon fill="midnightblue" stroke="midnightblue" points="453.771,-288.045 464.002,-290.799 457.721,-282.266 453.771,-288.045"/>
</g>
<!-- Node14 -->
<g id="node14" class="node"><title>Node14</title>
<g id="a_node14"><a xlink:href="_map_item_8hpp_source.html" target="_top" xlink:title="include/MapItem.hpp">
<polygon fill="none" stroke="black" points="477.584,-235 477.584,-253 586.416,-253 586.416,-235 477.584,-235"/>
<text text-anchor="middle" x="532" y="-241" font-family="Helvetica,sans-Serif" font-size="10.00">include/MapItem.hpp</text>
</a>
</g>
</g>
<!-- Node11&#45;&gt;Node14 -->
<g id="edge19" class="edge"><title>Node11&#45;&gt;Node14</title>
<path fill="none" stroke="midnightblue" d="M491.958,-283.612C502.221,-273.715 515.151,-261.247 523.495,-253.201"/>
<polygon fill="midnightblue" stroke="midnightblue" points="489.519,-281.102 484.75,-290.562 494.378,-286.141 489.519,-281.102"/>
</g>
<!-- Node16 -->
<g id="node16" class="node"><title>Node16</title>
<g id="a_node16"><a xlink:href="_gfx_8hpp_source.html" target="_top" xlink:title="include/Ui/Gfx.hpp">
<polygon fill="none" stroke="black" points="604.146,-235 604.146,-253 701.854,-253 701.854,-235 604.146,-235"/>
<text text-anchor="middle" x="653" y="-241" font-family="Helvetica,sans-Serif" font-size="10.00">include/Ui/Gfx.hpp</text>
</a>
</g>
</g>
<!-- Node11&#45;&gt;Node16 -->
<g id="edge21" class="edge"><title>Node11&#45;&gt;Node16</title>
<path fill="none" stroke="midnightblue" d="M512.498,-287.865C546.485,-277.496 596.329,-262.289 626.61,-253.051"/>
<polygon fill="midnightblue" stroke="midnightblue" points="511.042,-284.65 502.499,-290.916 513.085,-291.345 511.042,-284.65"/>
</g>
<!-- Node17 -->
<g id="node17" class="node"><title>Node17</title>
<g id="a_node17"><a xlink:href="_list_item_8hpp_source.html" target="_top" xlink:title="include/Ui/ListItem.hpp">
<polygon fill="none" stroke="black" points="719.419,-235 719.419,-253 836.581,-253 836.581,-235 719.419,-235"/>
<text text-anchor="middle" x="778" y="-241" font-family="Helvetica,sans-Serif" font-size="10.00">include/Ui/ListItem.hpp</text>
</a>
</g>
</g>
<!-- Node11&#45;&gt;Node17 -->
<g id="edge22" class="edge"><title>Node11&#45;&gt;Node17</title>
<path fill="none" stroke="midnightblue" d="M530.953,-289.174C588.855,-278.821 678.97,-262.707 732.867,-253.07"/>
<polygon fill="midnightblue" stroke="midnightblue" points="530.114,-285.768 520.886,-290.974 531.346,-292.659 530.114,-285.768"/>
</g>
<!-- Node12&#45;&gt;Node2 -->
<g id="edge13" class="edge"><title>Node12&#45;&gt;Node2</title>
<path fill="none" stroke="midnightblue" d="M379.436,-227.956C363.467,-214.467 339.093,-194.342 317,-178 298.638,-164.418 276.496,-149.888 262.832,-141.124"/>
<polygon fill="midnightblue" stroke="midnightblue" points="377.488,-230.894 387.375,-234.701 382.02,-225.559 377.488,-230.894"/>
</g>
<!-- Node12&#45;&gt;Node10 -->
<g id="edge18" class="edge"><title>Node12&#45;&gt;Node10</title>
<path fill="none" stroke="midnightblue" d="M424.01,-230.3C439.73,-222.228 459.45,-210.888 475,-198 518.721,-161.765 559.11,-105.971 573.468,-85.179"/>
<polygon fill="midnightblue" stroke="midnightblue" points="422.197,-227.293 414.811,-234.889 425.322,-233.557 422.197,-227.293"/>
</g>
<!-- Node13 -->
<g id="node13" class="node"><title>Node13</title>
<g id="a_node13"><a xlink:href="_display_8hpp_source.html" target="_top" xlink:title="include/Display.hpp">
<polygon fill="none" stroke="black" points="365.009,-179 365.009,-197 466.991,-197 466.991,-179 365.009,-179"/>
<text text-anchor="middle" x="416" y="-185" font-family="Helvetica,sans-Serif" font-size="10.00">include/Display.hpp</text>
</a>
</g>
</g>
<!-- Node12&#45;&gt;Node13 -->
<g id="edge14" class="edge"><title>Node12&#45;&gt;Node13</title>
<path fill="none" stroke="midnightblue" d="M403.356,-224.937C406.659,-215.549 410.533,-204.538 413.114,-197.201"/>
<polygon fill="midnightblue" stroke="midnightblue" points="399.986,-223.968 399.969,-234.562 406.589,-226.291 399.986,-223.968"/>
</g>
<!-- Node13&#45;&gt;Node2 -->
<g id="edge15" class="edge"><title>Node13&#45;&gt;Node2</title>
<path fill="none" stroke="midnightblue" d="M381.357,-175.731C349.493,-165.365 303.027,-150.25 274.75,-141.051"/>
<polygon fill="midnightblue" stroke="midnightblue" points="380.556,-179.15 391.148,-178.916 382.721,-172.494 380.556,-179.15"/>
</g>
<!-- Node13&#45;&gt;Node4 -->
<g id="edge16" class="edge"><title>Node13&#45;&gt;Node4</title>
<path fill="none" stroke="midnightblue" d="M404.986,-170.332C381.223,-134.373 325.881,-50.6249 308.396,-24.1649"/>
<polygon fill="midnightblue" stroke="midnightblue" points="402.117,-172.339 410.55,-178.752 407.957,-168.48 402.117,-172.339"/>
</g>
<!-- Node13&#45;&gt;Node5 -->
<g id="edge17" class="edge"><title>Node13&#45;&gt;Node5</title>
<path fill="none" stroke="midnightblue" d="M417.832,-168.678C420.261,-144.389 424.444,-102.563 426.194,-85.0649"/>
<polygon fill="midnightblue" stroke="midnightblue" points="414.339,-168.433 416.827,-178.732 421.305,-169.13 414.339,-168.433"/>
</g>
<!-- Node15 -->
<g id="node15" class="node"><title>Node15</title>
<g id="a_node15"><a xlink:href="_map_item_file_8hpp_source.html" target="_top" xlink:title="include/MapItemFile.hpp">
<polygon fill="none" stroke="black" points="522.527,-179 522.527,-197 647.473,-197 647.473,-179 522.527,-179"/>
<text text-anchor="middle" x="585" y="-185" font-family="Helvetica,sans-Serif" font-size="10.00">include/MapItemFile.hpp</text>
</a>
</g>
</g>
<!-- Node14&#45;&gt;Node15 -->
<g id="edge20" class="edge"><title>Node14&#45;&gt;Node15</title>
<path fill="none" stroke="midnightblue" d="M547.39,-227.32C557.056,-217.471 569.131,-205.169 576.95,-197.201"/>
<polygon fill="midnightblue" stroke="midnightblue" points="544.788,-224.974 540.281,-234.562 549.784,-229.877 544.788,-224.974"/>
</g>
<!-- Node18&#45;&gt;Node2 -->
<g id="edge25" class="edge"><title>Node18&#45;&gt;Node2</title>
<path fill="none" stroke="midnightblue" d="M250,-168.329C250,-159.077 250,-148.38 250,-141.201"/>
<polygon fill="midnightblue" stroke="midnightblue" points="246.5,-168.562 250,-178.562 253.5,-168.563 246.5,-168.562"/>
</g>
<!-- Node25 -->
<g id="node25" class="node"><title>Node25</title>
<g id="a_node25"><a xlink:href="_edit_sys_8hpp_source.html" target="_top" xlink:title="include/Ui/EditSys.hpp">
<polygon fill="none" stroke="black" points="1127.97,-235 1127.97,-253 1244.03,-253 1244.03,-235 1127.97,-235"/>
<text text-anchor="middle" x="1186" y="-241" font-family="Helvetica,sans-Serif" font-size="10.00">include/Ui/EditSys.hpp</text>
</a>
</g>
</g>
<!-- Node24&#45;&gt;Node25 -->
<g id="edge32" class="edge"><title>Node24&#45;&gt;Node25</title>
<path fill="none" stroke="midnightblue" d="M1186,-280.329C1186,-271.077 1186,-260.38 1186,-253.201"/>
<polygon fill="midnightblue" stroke="midnightblue" points="1182.5,-280.562 1186,-290.562 1189.5,-280.563 1182.5,-280.562"/>
</g>
</g>
</svg>
