<?xml version="1.0" encoding="UTF-8"?>

<svg version="1.2" baseProfile="tiny" width="198.96mm" height="77.96mm" viewBox="0 0 19896 7796" preserveAspectRatio="xMidYMid" fill-rule="evenodd" clip-path="url(#presentation_clip_path)" stroke-width="28.222" stroke-linejoin="round" xmlns="http://www.w3.org/2000/svg" xmlns:ooo="http://xml.openoffice.org/svg/export" xmlns:xlink="http://www.w3.org/1999/xlink" xml:space="preserve">
 <defs class="ClipPathGroup">
  <clipPath id="presentation_clip_path" clipPathUnits="userSpaceOnUse">
   <rect x="0" y="0" width="19896" height="7796"/>
  </clipPath>
 </defs>
 <defs class="TextShapeIndex">
  <g ooo:slide="id1" ooo:id-list="id3 id4 id5 id6 id7 id8"/>
 </defs>
 <defs class="EmbeddedBulletChars">
  <g id="bullet-char-template(57356)" transform="scale(0.00048828125,-0.00048828125)">
   <path d="M 580,1141 L 1163,571 580,0 -4,571 580,1141 Z"/>
  </g>
  <g id="bullet-char-template(57354)" transform="scale(0.00048828125,-0.00048828125)">
   <path d="M 8,1128 L 1137,1128 1137,0 8,0 8,1128 Z"/>
  </g>
  <g id="bullet-char-template(10146)" transform="scale(0.00048828125,-0.00048828125)">
   <path d="M 174,0 L 602,739 174,1481 1456,739 174,0 Z M 1358,739 L 309,1346 659,739 1358,739 Z"/>
  </g>
  <g id="bullet-char-template(10132)" transform="scale(0.00048828125,-0.00048828125)">
   <path d="M 2015,739 L 1276,0 717,0 1260,543 174,543 174,936 1260,936 717,1481 1274,1481 2015,739 Z"/>
  </g>
  <g id="bullet-char-template(10007)" transform="scale(0.00048828125,-0.00048828125)">
   <path d="M 0,-2 C -7,14 -16,27 -25,37 L 356,567 C 262,823 215,952 215,954 215,979 228,992 255,992 264,992 276,990 289,987 310,991 331,999 354,1012 L 381,999 492,748 772,1049 836,1024 860,1049 C 881,1039 901,1025 922,1006 886,937 835,863 770,784 769,783 710,716 594,584 L 774,223 C 774,196 753,168 711,139 L 727,119 C 717,90 699,76 672,76 641,76 570,178 457,381 L 164,-76 C 142,-110 111,-127 72,-127 30,-127 9,-110 8,-76 1,-67 -2,-52 -2,-32 -2,-23 -1,-13 0,-2 Z"/>
  </g>
  <g id="bullet-char-template(10004)" transform="scale(0.00048828125,-0.00048828125)">
   <path d="M 285,-33 C 182,-33 111,30 74,156 52,228 41,333 41,471 41,549 55,616 82,672 116,743 169,778 240,778 293,778 328,747 346,684 L 369,508 C 377,444 397,411 428,410 L 1163,1116 C 1174,1127 1196,1133 1229,1133 1271,1133 1292,1118 1292,1087 L 1292,965 C 1292,929 1282,901 1262,881 L 442,47 C 390,-6 338,-33 285,-33 Z"/>
  </g>
  <g id="bullet-char-template(9679)" transform="scale(0.00048828125,-0.00048828125)">
   <path d="M 813,0 C 632,0 489,54 383,161 276,268 223,411 223,592 223,773 276,916 383,1023 489,1130 632,1184 813,1184 992,1184 1136,1130 1245,1023 1353,916 1407,772 1407,592 1407,412 1353,268 1245,161 1136,54 992,0 813,0 Z"/>
  </g>
  <g id="bullet-char-template(8226)" transform="scale(0.00048828125,-0.00048828125)">
   <path d="M 346,457 C 273,457 209,483 155,535 101,586 74,649 74,723 74,796 101,859 155,911 209,963 273,989 346,989 419,989 480,963 531,910 582,859 608,796 608,723 608,648 583,586 532,535 482,483 420,457 346,457 Z"/>
  </g>
  <g id="bullet-char-template(8211)" transform="scale(0.00048828125,-0.00048828125)">
   <path d="M -4,459 L 1135,459 1135,606 -4,606 -4,459 Z"/>
  </g>
 </defs>
 <defs class="TextEmbeddedBitmaps"/>
 <g>
  <g id="id2" class="Master_Slide">
   <g id="bg-id2" class="Background"/>
   <g id="bo-id2" class="BackgroundObjects"/>
  </g>
 </g>
 <g class="SlideGroup">
  <g>
   <g id="id1" class="Slide" clip-path="url(#presentation_clip_path)">
    <g class="Page">
     <g class="com.sun.star.drawing.PolyPolygonShape">
      <g id="id3">
       <path fill="rgb(255,255,255)" stroke="none" d="M 0,0 L 19890,0 19890,7811 0,7811 0,0 Z"/>
      </g>
     </g>
     <g class="com.sun.star.drawing.ClosedBezierShape">
      <g id="id4">
       <path fill="rgb(247,148,25)" stroke="none" d="M 2415,6753 C 1577,6739 558,5980 822,4834 886,4562 992,4382 1172,4188 897,4544 1136,5102 1457,5229 1062,4939 1140,4456 1323,4114 1528,3736 1616,3384 1489,3051 1426,2885 1228,2681 992,2638 1232,2571 1553,2599 1772,2730 2030,2878 2231,3118 2284,3422 2302,2910 1857,2635 1695,2208 1514,1785 1560,1361 1815,977 1963,758 2203,497 2436,388 2270,635 2002,1079 2333,1770 2577,2278 2926,2550 3332,2980 3653,3320 3956,3694 4073,4199 4168,4622 4189,5190 4009,5701 3797,6315 3254,6763 2415,6753 Z"/>
      </g>
     </g>
     <g class="com.sun.star.drawing.PolyPolygonShape">
      <g id="id5">
       <path fill="rgb(45,44,51)" stroke="none" d="M 6862,3899 L 5365,3899 5365,5518 4582,5518 4582,1622 7134,1622 7134,2223 5365,2223 5365,3299 6488,3299 6862,3899 Z"/>
      </g>
     </g>
     <g class="com.sun.star.drawing.ClosedBezierShape">
      <g id="id6">
       <path fill="rgb(45,44,51)" stroke="none" d="M 10002,3214 C 10002,2911 9928,2664 9776,2470 9624,2272 9416,2177 9148,2177 8883,2177 8679,2272 8531,2470 8383,2664 8312,2911 8312,3214 L 8312,3920 C 8312,4227 8386,4481 8534,4675 8679,4869 8887,4968 9152,4968 9420,4968 9628,4869 9780,4675 9928,4481 10002,4227 10002,3920 L 10002,3214 Z M 10781,3920 C 10781,4400 10633,4795 10330,5105 10030,5419 9635,5574 9152,5574 8672,5574 8280,5419 7979,5105 7679,4795 7531,4400 7531,3920 L 7531,3218 C 7531,2745 7679,2350 7979,2036 8280,1721 8668,1566 9148,1566 9631,1566 10023,1721 10326,2036 10630,2350 10781,2745 10781,3218 L 10781,3920 Z"/>
      </g>
     </g>
     <g class="com.sun.star.drawing.ClosedBezierShape">
      <g id="id7">
       <path fill="rgb(45,44,51)" stroke="none" d="M 14383,4985 C 14263,5144 14083,5282 13839,5398 13599,5514 13289,5574 12908,5574 12438,5574 12054,5426 11754,5130 11454,4834 11306,4449 11306,3976 L 11306,3165 C 11306,2692 11451,2308 11740,2011 12029,1714 12403,1566 12862,1566 13338,1566 13701,1679 13956,1905 14210,2131 14330,2431 14323,2809 L 14316,2823 13581,2823 C 13581,2618 13521,2456 13402,2343 13282,2227 13109,2170 12879,2170 12640,2170 12449,2262 12301,2445 12156,2629 12082,2869 12082,3158 L 12082,3976 C 12082,4269 12156,4509 12308,4696 12456,4883 12657,4975 12908,4975 13095,4975 13239,4957 13349,4918 13458,4879 13539,4834 13599,4777 L 13599,4022 13232,4022 12851,3482 14383,3482 14383,4985 Z"/>
      </g>
     </g>
     <g class="com.sun.star.drawing.ClosedBezierShape">
      <g id="id8">
       <path fill="rgb(45,44,51)" stroke="none" d="M 17416,3214 C 17416,2911 17342,2664 17190,2470 17039,2272 16831,2177 16562,2177 16298,2177 16093,2272 15945,2470 15797,2664 15726,2911 15726,3214 L 15726,3920 C 15726,4227 15800,4481 15949,4675 16093,4869 16301,4968 16566,4968 16834,4968 17042,4869 17194,4675 17342,4481 17416,4227 17416,3920 L 17416,3214 Z M 18197,3920 C 18197,4400 18049,4795 17744,5105 17444,5419 17049,5574 16566,5574 16086,5574 15695,5419 15395,5105 15095,4795 14947,4400 14947,3920 L 14947,3218 C 14947,2745 15095,2350 15395,2036 15695,1721 16083,1566 16562,1566 17046,1566 17437,1721 17741,2036 18045,2350 18197,2745 18197,3218 L 18197,3920 Z"/>
      </g>
     </g>
    </g>
   </g>
  </g>
 </g>
</svg>