<?xml version="1.0" encoding="UTF-8" standalone="no"?>
<!DOCTYPE svg PUBLIC "-//W3C//DTD SVG 1.1//EN"
 "http://www.w3.org/Graphics/SVG/1.1/DTD/svg11.dtd">
<!-- Generated by graphviz version 2.36.0 (20140111.2315)
 -->
<!-- Title: GraphLine Pages: 1 -->
<svg width="124pt" height="418pt"
 viewBox="0.00 0.00 124.00 418.00" xmlns="http://www.w3.org/2000/svg" xmlns:xlink="http://www.w3.org/1999/xlink">
<g id="graph0" class="graph" transform="scale(1 1) rotate(0) translate(4 414)">
<title>GraphLine</title>
<!-- Node1 -->
<g id="node1" class="node"><title>Node1</title>
<polygon fill="#bfbfbf" stroke="black" points="19.0112,-1 19.0112,-55 96.9888,-55 96.9888,-1 19.0112,-1"/>
<text text-anchor="middle" x="58" y="-43" font-family="Helvetica,sans-Serif" font-size="10.00">GraphLine</text>
<polyline fill="none" stroke="black" points="19.0112,-37 96.9888,-37 "/>
<text text-anchor="middle" x="58" y="-25" font-family="Helvetica,sans-Serif" font-size="10.00"> </text>
<polyline fill="none" stroke="black" points="19.0112,-19 96.9888,-19 "/>
<text text-anchor="start" x="27.0112" y="-7" font-family="Helvetica,sans-Serif" font-size="10.00">+ GraphLine()</text>
</g>
<!-- Node2 -->
<g id="node2" class="node"><title>Node2</title>
<g id="a_node2"><a xlink:href="class_graph_1_1_object.html" target="_top" xlink:title="Abstract Graph Class. ">
<polygon fill="none" stroke="black" points="5.52734,-93 5.52734,-197 110.473,-197 110.473,-93 5.52734,-93"/>
<text text-anchor="middle" x="58" y="-185" font-family="Helvetica,sans-Serif" font-size="10.00">Graph::Object</text>
<polyline fill="none" stroke="black" points="5.52734,-179 110.473,-179 "/>
<text text-anchor="middle" x="58" y="-167" font-family="Helvetica,sans-Serif" font-size="10.00"> </text>
<polyline fill="none" stroke="black" points="5.52734,-161 110.473,-161 "/>
<text text-anchor="start" x="13.5273" y="-149" font-family="Helvetica,sans-Serif" font-size="10.00">+ Object()</text>
<text text-anchor="start" x="13.5273" y="-139" font-family="Helvetica,sans-Serif" font-size="10.00">+ x_axis()</text>
<text text-anchor="start" x="13.5273" y="-129" font-family="Helvetica,sans-Serif" font-size="10.00">+ y_axis()</text>
<text text-anchor="start" x="13.5273" y="-119" font-family="Helvetica,sans-Serif" font-size="10.00">+ x_data()</text>
<text text-anchor="start" x="13.5273" y="-109" font-family="Helvetica,sans-Serif" font-size="10.00">+ y_data()</text>
<text text-anchor="start" x="13.5273" y="-99" font-family="Helvetica,sans-Serif" font-size="10.00"># point_on_bitmap()</text>
</a>
</g>
</g>
<!-- Node2&#45;&gt;Node1 -->
<g id="edge1" class="edge"><title>Node2&#45;&gt;Node1</title>
<path fill="none" stroke="midnightblue" d="M58,-82.7333C58,-72.9923 58,-63.3962 58,-55.0695"/>
<polygon fill="none" stroke="midnightblue" points="54.5001,-82.8896 58,-92.8896 61.5001,-82.8896 54.5001,-82.8896"/>
</g>
<!-- Node3 -->
<g id="node3" class="node"><title>Node3</title>
<g id="a_node3"><a xlink:href="class_element.html" target="_top" xlink:title="Element Class. ">
<polygon fill="none" stroke="black" points="-0.15625,-235 -0.15625,-409 116.156,-409 116.156,-235 -0.15625,-235"/>
<text text-anchor="middle" x="58" y="-397" font-family="Helvetica,sans-Serif" font-size="10.00">Element</text>
<polyline fill="none" stroke="black" points="-0.15625,-391 116.156,-391 "/>
<text text-anchor="middle" x="58" y="-379" font-family="Helvetica,sans-Serif" font-size="10.00"> </text>
<polyline fill="none" stroke="black" points="-0.15625,-373 116.156,-373 "/>
<text text-anchor="start" x="7.84375" y="-361" font-family="Helvetica,sans-Serif" font-size="10.00">+ Element()</text>
<text text-anchor="start" x="7.84375" y="-351" font-family="Helvetica,sans-Serif" font-size="10.00">+ enabled()</text>
<text text-anchor="start" x="7.84375" y="-341" font-family="Helvetica,sans-Serif" font-size="10.00">+ set_enabled()</text>
<text text-anchor="start" x="7.84375" y="-331" font-family="Helvetica,sans-Serif" font-size="10.00">+ cancelled()</text>
<text text-anchor="start" x="7.84375" y="-321" font-family="Helvetica,sans-Serif" font-size="10.00">+ set_cancel()</text>
<text text-anchor="start" x="7.84375" y="-311" font-family="Helvetica,sans-Serif" font-size="10.00">+ confirmed()</text>
<text text-anchor="start" x="7.84375" y="-301" font-family="Helvetica,sans-Serif" font-size="10.00">+ set_confirm()</text>
<text text-anchor="start" x="7.84375" y="-291" font-family="Helvetica,sans-Serif" font-size="10.00">+ scroll_visible()</text>
<text text-anchor="start" x="7.84375" y="-281" font-family="Helvetica,sans-Serif" font-size="10.00">+ set_scroll_visible()</text>
<text text-anchor="start" x="7.84375" y="-271" font-family="Helvetica,sans-Serif" font-size="10.00">+ exclusive_checklist()</text>
<text text-anchor="start" x="7.84375" y="-261" font-family="Helvetica,sans-Serif" font-size="10.00">and 7 more...</text>
<text text-anchor="start" x="7.84375" y="-251" font-family="Helvetica,sans-Serif" font-size="10.00"># draw_scroll()</text>
<text text-anchor="start" x="7.84375" y="-241" font-family="Helvetica,sans-Serif" font-size="10.00"># adjust_x_center()</text>
</a>
</g>
</g>
<!-- Node3&#45;&gt;Node2 -->
<g id="edge2" class="edge"><title>Node3&#45;&gt;Node2</title>
<path fill="none" stroke="midnightblue" d="M58,-224.619C58,-215.284 58,-206.086 58,-197.454"/>
<polygon fill="none" stroke="midnightblue" points="54.5001,-224.782 58,-234.782 61.5001,-224.782 54.5001,-224.782"/>
</g>
</g>
</svg>
