<?xml version="1.0" encoding="UTF-8" standalone="no"?>
<!DOCTYPE svg PUBLIC "-//W3C//DTD SVG 1.1//EN"
 "http://www.w3.org/Graphics/SVG/1.1/DTD/svg11.dtd">
<!-- Generated by graphviz version 2.36.0 (20140111.2315)
 -->
<!-- Title: EditSettingInt Pages: 1 -->
<svg width="102pt" height="286pt"
 viewBox="0.00 0.00 102.00 286.00" xmlns="http://www.w3.org/2000/svg" xmlns:xlink="http://www.w3.org/1999/xlink">
<g id="graph0" class="graph" transform="scale(1 1) rotate(0) translate(4 282)">
<title>EditSettingInt</title>
<!-- Node1 -->
<g id="node1" class="node"><title>Node1</title>
<polygon fill="#bfbfbf" stroke="black" points="1.61963,-1 1.61963,-115 92.3804,-115 92.3804,-1 1.61963,-1"/>
<text text-anchor="middle" x="47" y="-103" font-family="Helvetica,sans-Serif" font-size="10.00">EditSettingInt</text>
<polyline fill="none" stroke="black" points="1.61963,-97 92.3804,-97 "/>
<text text-anchor="middle" x="47" y="-85" font-family="Helvetica,sans-Serif" font-size="10.00"> </text>
<polyline fill="none" stroke="black" points="1.61963,-79 92.3804,-79 "/>
<text text-anchor="start" x="9.61963" y="-67" font-family="Helvetica,sans-Serif" font-size="10.00">+ EditSettingInt()</text>
<text text-anchor="start" x="9.61963" y="-57" font-family="Helvetica,sans-Serif" font-size="10.00">+ EditSettingInt()</text>
<text text-anchor="start" x="9.61963" y="-47" font-family="Helvetica,sans-Serif" font-size="10.00">+ increment()</text>
<text text-anchor="start" x="9.61963" y="-37" font-family="Helvetica,sans-Serif" font-size="10.00">+ decrement()</text>
<text text-anchor="start" x="9.61963" y="-27" font-family="Helvetica,sans-Serif" font-size="10.00">+ load()</text>
<text text-anchor="start" x="9.61963" y="-17" font-family="Helvetica,sans-Serif" font-size="10.00">+ save()</text>
<text text-anchor="start" x="9.61963" y="-7" font-family="Helvetica,sans-Serif" font-size="10.00">+ copy()</text>
</g>
<!-- Node2 -->
<g id="node2" class="node"><title>Node2</title>
<g id="a_node2"><a xlink:href="class_edit.html" target="_top" xlink:title="Edit Element. ">
<polygon fill="none" stroke="black" points="-0.331055,-153 -0.331055,-277 94.3311,-277 94.3311,-153 -0.331055,-153"/>
<text text-anchor="middle" x="47" y="-265" font-family="Helvetica,sans-Serif" font-size="10.00">Edit</text>
<polyline fill="none" stroke="black" points="-0.331055,-259 94.3311,-259 "/>
<text text-anchor="start" x="7.66895" y="-247" font-family="Helvetica,sans-Serif" font-size="10.00"># value_font_size</text>
<polyline fill="none" stroke="black" points="-0.331055,-241 94.3311,-241 "/>
<text text-anchor="start" x="7.66895" y="-229" font-family="Helvetica,sans-Serif" font-size="10.00">+ Edit()</text>
<text text-anchor="start" x="7.66895" y="-219" font-family="Helvetica,sans-Serif" font-size="10.00">+ event_handler()</text>
<text text-anchor="start" x="7.66895" y="-209" font-family="Helvetica,sans-Serif" font-size="10.00">+ draw()</text>
<text text-anchor="start" x="7.66895" y="-199" font-family="Helvetica,sans-Serif" font-size="10.00"># increment()</text>
<text text-anchor="start" x="7.66895" y="-189" font-family="Helvetica,sans-Serif" font-size="10.00"># decrement()</text>
<text text-anchor="start" x="7.66895" y="-179" font-family="Helvetica,sans-Serif" font-size="10.00"># load()</text>
<text text-anchor="start" x="7.66895" y="-169" font-family="Helvetica,sans-Serif" font-size="10.00"># save()</text>
<text text-anchor="start" x="7.66895" y="-159" font-family="Helvetica,sans-Serif" font-size="10.00"># copy()</text>
</a>
</g>
</g>
<!-- Node2&#45;&gt;Node1 -->
<g id="edge1" class="edge"><title>Node2&#45;&gt;Node1</title>
<path fill="none" stroke="midnightblue" d="M47,-142.503C47,-133.37 47,-124.126 47,-115.28"/>
<polygon fill="none" stroke="midnightblue" points="43.5001,-142.74 47,-152.74 50.5001,-142.74 43.5001,-142.74"/>
</g>
</g>
</svg>
