<?xml version="1.0" encoding="UTF-8" standalone="no"?>
<!DOCTYPE svg PUBLIC "-//W3C//DTD SVG 1.1//EN"
 "http://www.w3.org/Graphics/SVG/1.1/DTD/svg11.dtd">
<!-- Generated by graphviz version 2.36.0 (20140111.2315)
 -->
<!-- Title: ListItem Pages: 1 -->
<svg width="459pt" height="296pt"
 viewBox="0.00 0.00 459.00 296.00" xmlns="http://www.w3.org/2000/svg" xmlns:xlink="http://www.w3.org/1999/xlink">
<g id="graph0" class="graph" transform="scale(1 1) rotate(0) translate(4 292)">
<title>ListItem</title>
<!-- Node1 -->
<g id="node1" class="node"><title>Node1</title>
<polygon fill="#bfbfbf" stroke="black" points="182.068,-133 182.068,-287 273.932,-287 273.932,-133 182.068,-133"/>
<text text-anchor="middle" x="228" y="-275" font-family="Helvetica,sans-Serif" font-size="10.00">ListItem</text>
<polyline fill="none" stroke="black" points="182.068,-269 273.932,-269 "/>
<text text-anchor="middle" x="228" y="-257" font-family="Helvetica,sans-Serif" font-size="10.00"> </text>
<polyline fill="none" stroke="black" points="182.068,-251 273.932,-251 "/>
<text text-anchor="start" x="190.068" y="-239" font-family="Helvetica,sans-Serif" font-size="10.00">+ ListItem()</text>
<text text-anchor="start" x="190.068" y="-229" font-family="Helvetica,sans-Serif" font-size="10.00">+ ListItem()</text>
<text text-anchor="start" x="190.068" y="-219" font-family="Helvetica,sans-Serif" font-size="10.00">+ ListItem()</text>
<text text-anchor="start" x="190.068" y="-209" font-family="Helvetica,sans-Serif" font-size="10.00">+ ListItem()</text>
<text text-anchor="start" x="190.068" y="-199" font-family="Helvetica,sans-Serif" font-size="10.00">+ ListItem()</text>
<text text-anchor="start" x="190.068" y="-189" font-family="Helvetica,sans-Serif" font-size="10.00">+ set_app_icon()</text>
<text text-anchor="start" x="190.068" y="-179" font-family="Helvetica,sans-Serif" font-size="10.00">+ set_sys_gfx()</text>
<text text-anchor="start" x="190.068" y="-169" font-family="Helvetica,sans-Serif" font-size="10.00">+ load_icon()</text>
<text text-anchor="start" x="190.068" y="-159" font-family="Helvetica,sans-Serif" font-size="10.00">+ set_thickness()</text>
<text text-anchor="start" x="190.068" y="-149" font-family="Helvetica,sans-Serif" font-size="10.00">+ set_rotation()</text>
<text text-anchor="start" x="190.068" y="-139" font-family="Helvetica,sans-Serif" font-size="10.00">and 7 more...</text>
</g>
<!-- Node2 -->
<g id="node2" class="node"><title>Node2</title>
<g id="a_node2"><a xlink:href="class_list_item_callback.html" target="_top" xlink:title="List Item Callback Class. ">
<polygon fill="none" stroke="black" points="-0.318848,-11 -0.318848,-85 104.319,-85 104.319,-11 -0.318848,-11"/>
<text text-anchor="middle" x="52" y="-73" font-family="Helvetica,sans-Serif" font-size="10.00">ListItemCallback</text>
<polyline fill="none" stroke="black" points="-0.318848,-67 104.319,-67 "/>
<text text-anchor="middle" x="52" y="-55" font-family="Helvetica,sans-Serif" font-size="10.00"> </text>
<polyline fill="none" stroke="black" points="-0.318848,-49 104.319,-49 "/>
<text text-anchor="start" x="7.68115" y="-37" font-family="Helvetica,sans-Serif" font-size="10.00">+ ListItemCallback()</text>
<text text-anchor="start" x="7.68115" y="-27" font-family="Helvetica,sans-Serif" font-size="10.00">+ ListItemCallback()</text>
<text text-anchor="start" x="7.68115" y="-17" font-family="Helvetica,sans-Serif" font-size="10.00">+ event_handler()</text>
</a>
</g>
</g>
<!-- Node1&#45;&gt;Node2 -->
<g id="edge1" class="edge"><title>Node1&#45;&gt;Node2</title>
<path fill="none" stroke="midnightblue" d="M174.043,-159.948C147.467,-135.788 115.994,-107.176 91.6658,-85.0598"/>
<polygon fill="none" stroke="midnightblue" points="172.004,-162.825 181.758,-166.962 176.713,-157.645 172.004,-162.825"/>
</g>
<!-- Node3 -->
<g id="node3" class="node"><title>Node3</title>
<g id="a_node3"><a xlink:href="class_list_item_check.html" target="_top" xlink:title="List Item Check (for use in a checklist) ">
<polygon fill="none" stroke="black" points="122.669,-6 122.669,-90 217.331,-90 217.331,-6 122.669,-6"/>
<text text-anchor="middle" x="170" y="-78" font-family="Helvetica,sans-Serif" font-size="10.00">ListItemCheck</text>
<polyline fill="none" stroke="black" points="122.669,-72 217.331,-72 "/>
<text text-anchor="middle" x="170" y="-60" font-family="Helvetica,sans-Serif" font-size="10.00"> </text>
<polyline fill="none" stroke="black" points="122.669,-54 217.331,-54 "/>
<text text-anchor="start" x="130.669" y="-42" font-family="Helvetica,sans-Serif" font-size="10.00">+ ListItemCheck()</text>
<text text-anchor="start" x="130.669" y="-32" font-family="Helvetica,sans-Serif" font-size="10.00">+ ListItemCheck()</text>
<text text-anchor="start" x="130.669" y="-22" font-family="Helvetica,sans-Serif" font-size="10.00">+ set_enabled()</text>
<text text-anchor="start" x="130.669" y="-12" font-family="Helvetica,sans-Serif" font-size="10.00">+ event_handler()</text>
</a>
</g>
</g>
<!-- Node1&#45;&gt;Node3 -->
<g id="edge2" class="edge"><title>Node1&#45;&gt;Node3</title>
<path fill="none" stroke="midnightblue" d="M196.873,-123.132C192.73,-111.704 188.646,-100.436 184.96,-90.269"/>
<polygon fill="none" stroke="midnightblue" points="193.66,-124.54 200.359,-132.749 200.241,-122.155 193.66,-124.54"/>
</g>
<!-- Node4 -->
<g id="node4" class="node"><title>Node4</title>
<g id="a_node4"><a xlink:href="class_list_item_element.html" target="_top" xlink:title="List Item Element Class. ">
<polygon fill="none" stroke="black" points="235.514,-1 235.514,-95 338.486,-95 338.486,-1 235.514,-1"/>
<text text-anchor="middle" x="287" y="-83" font-family="Helvetica,sans-Serif" font-size="10.00">ListItemElement</text>
<polyline fill="none" stroke="black" points="235.514,-77 338.486,-77 "/>
<text text-anchor="middle" x="287" y="-65" font-family="Helvetica,sans-Serif" font-size="10.00"> </text>
<polyline fill="none" stroke="black" points="235.514,-59 338.486,-59 "/>
<text text-anchor="start" x="243.514" y="-47" font-family="Helvetica,sans-Serif" font-size="10.00">+ ListItemElement()</text>
<text text-anchor="start" x="243.514" y="-37" font-family="Helvetica,sans-Serif" font-size="10.00">+ ListItemElement()</text>
<text text-anchor="start" x="243.514" y="-27" font-family="Helvetica,sans-Serif" font-size="10.00">+ ListItemElement()</text>
<text text-anchor="start" x="243.514" y="-17" font-family="Helvetica,sans-Serif" font-size="10.00">+ set_target()</text>
<text text-anchor="start" x="243.514" y="-7" font-family="Helvetica,sans-Serif" font-size="10.00">+ target()</text>
</a>
</g>
</g>
<!-- Node1&#45;&gt;Node4 -->
<g id="edge3" class="edge"><title>Node1&#45;&gt;Node4</title>
<path fill="none" stroke="midnightblue" d="M259.68,-123.087C263.237,-113.442 266.751,-103.913 270.014,-95.064"/>
<polygon fill="none" stroke="midnightblue" points="256.294,-122.155 256.118,-132.749 262.861,-124.577 256.294,-122.155"/>
</g>
<!-- Node5 -->
<g id="node5" class="node"><title>Node5</title>
<g id="a_node5"><a xlink:href="class_list_item_toggle.html" target="_top" xlink:title="Toggle Item. ">
<polygon fill="none" stroke="black" points="356.122,-11 356.122,-85 451.878,-85 451.878,-11 356.122,-11"/>
<text text-anchor="middle" x="404" y="-73" font-family="Helvetica,sans-Serif" font-size="10.00">ListItemToggle</text>
<polyline fill="none" stroke="black" points="356.122,-67 451.878,-67 "/>
<text text-anchor="middle" x="404" y="-55" font-family="Helvetica,sans-Serif" font-size="10.00"> </text>
<polyline fill="none" stroke="black" points="356.122,-49 451.878,-49 "/>
<text text-anchor="start" x="364.122" y="-37" font-family="Helvetica,sans-Serif" font-size="10.00">+ ListItemToggle()</text>
<text text-anchor="start" x="364.122" y="-27" font-family="Helvetica,sans-Serif" font-size="10.00">+ event_handler()</text>
<text text-anchor="start" x="364.122" y="-17" font-family="Helvetica,sans-Serif" font-size="10.00">+ set_enabled()</text>
</a>
</g>
</g>
<!-- Node1&#45;&gt;Node5 -->
<g id="edge4" class="edge"><title>Node1&#45;&gt;Node5</title>
<path fill="none" stroke="midnightblue" d="M281.957,-159.948C308.533,-135.788 340.006,-107.176 364.334,-85.0598"/>
<polygon fill="none" stroke="midnightblue" points="279.287,-157.645 274.242,-166.962 283.996,-162.825 279.287,-157.645"/>
</g>
</g>
</svg>
