<?xml version="1.0" encoding="UTF-8" standalone="no"?>
<!DOCTYPE svg PUBLIC "-//W3C//DTD SVG 1.1//EN"
 "http://www.w3.org/Graphics/SVG/1.1/DTD/svg11.dtd">
<!-- Generated by graphviz version 2.36.0 (20140111.2315)
 -->
<!-- Title: Loc Pages: 1 -->
<svg width="92pt" height="256pt"
 viewBox="0.00 0.00 92.00 256.00" xmlns="http://www.w3.org/2000/svg" xmlns:xlink="http://www.w3.org/1999/xlink">
<g id="graph0" class="graph" transform="scale(1 1) rotate(0) translate(4 252)">
<title>Loc</title>
<!-- Node1 -->
<g id="node1" class="node"><title>Node1</title>
<polygon fill="#bfbfbf" stroke="black" points="25.9385,-1 25.9385,-55 58.0615,-55 58.0615,-1 25.9385,-1"/>
<text text-anchor="middle" x="42" y="-43" font-family="Helvetica,sans-Serif" font-size="10.00">Loc</text>
<polyline fill="none" stroke="black" points="25.9385,-37 58.0615,-37 "/>
<text text-anchor="middle" x="42" y="-25" font-family="Helvetica,sans-Serif" font-size="10.00"> </text>
<polyline fill="none" stroke="black" points="25.9385,-19 58.0615,-19 "/>
<text text-anchor="middle" x="42" y="-7" font-family="Helvetica,sans-Serif" font-size="10.00"> </text>
</g>
<!-- Node2 -->
<g id="node2" class="node"><title>Node2</title>
<g id="a_node2"><a xlink:href="class_location.html" target="_top" xlink:title="Location API (GPS) ">
<polygon fill="none" stroke="black" points="-0.887695,-93 -0.887695,-247 84.8877,-247 84.8877,-93 -0.887695,-93"/>
<text text-anchor="middle" x="42" y="-235" font-family="Helvetica,sans-Serif" font-size="10.00">Location</text>
<polyline fill="none" stroke="black" points="-0.887695,-229 84.8877,-229 "/>
<text text-anchor="middle" x="42" y="-217" font-family="Helvetica,sans-Serif" font-size="10.00"> </text>
<polyline fill="none" stroke="black" points="-0.887695,-211 84.8877,-211 "/>
<text text-anchor="start" x="7.1123" y="-199" font-family="Helvetica,sans-Serif" font-size="10.00">+ init()</text>
<text text-anchor="start" x="7.1123" y="-189" font-family="Helvetica,sans-Serif" font-size="10.00">+ enable()</text>
<text text-anchor="start" x="7.1123" y="-179" font-family="Helvetica,sans-Serif" font-size="10.00">+ update()</text>
<text text-anchor="start" x="7.1123" y="-169" font-family="Helvetica,sans-Serif" font-size="10.00">+ log_enable()</text>
<text text-anchor="start" x="7.1123" y="-159" font-family="Helvetica,sans-Serif" font-size="10.00">+ log_pause()</text>
<text text-anchor="start" x="7.1123" y="-149" font-family="Helvetica,sans-Serif" font-size="10.00">+ log_resume()</text>
<text text-anchor="start" x="7.1123" y="-139" font-family="Helvetica,sans-Serif" font-size="10.00">+ log_disable()</text>
<text text-anchor="start" x="7.1123" y="-129" font-family="Helvetica,sans-Serif" font-size="10.00">+ log_enabled()</text>
<text text-anchor="start" x="7.1123" y="-119" font-family="Helvetica,sans-Serif" font-size="10.00">+ log_interval()</text>
<text text-anchor="start" x="7.1123" y="-109" font-family="Helvetica,sans-Serif" font-size="10.00">+ log_paused()</text>
<text text-anchor="start" x="7.1123" y="-99" font-family="Helvetica,sans-Serif" font-size="10.00">and 24 more...</text>
</a>
</g>
</g>
<!-- Node2&#45;&gt;Node1 -->
<g id="edge1" class="edge"><title>Node2&#45;&gt;Node1</title>
<path fill="none" stroke="midnightblue" d="M42,-82.7484C42,-72.7652 42,-63.2489 42,-55.0739"/>
<polygon fill="none" stroke="midnightblue" points="38.5001,-82.8547 42,-92.8547 45.5001,-82.8547 38.5001,-82.8547"/>
</g>
</g>
</svg>
