<?xml version="1.0" encoding="UTF-8" standalone="no"?>
<!DOCTYPE svg PUBLIC "-//W3C//DTD SVG 1.1//EN"
 "http://www.w3.org/Graphics/SVG/1.1/DTD/svg11.dtd">
<!-- Generated by graphviz version 2.36.0 (20140111.2315)
 -->
<!-- Title: Label Pages: 1 -->
<svg width="102pt" height="216pt"
 viewBox="0.00 0.00 102.00 216.00" xmlns="http://www.w3.org/2000/svg" xmlns:xlink="http://www.w3.org/1999/xlink">
<g id="graph0" class="graph" transform="scale(1 1) rotate(0) translate(4 212)">
<title>Label</title>
<!-- Node1 -->
<g id="node1" class="node"><title>Node1</title>
<polygon fill="#bfbfbf" stroke="black" points="-0.880371,-143 -0.880371,-207 94.8804,-207 94.8804,-143 -0.880371,-143"/>
<text text-anchor="middle" x="47" y="-195" font-family="Helvetica,sans-Serif" font-size="10.00">Label</text>
<polyline fill="none" stroke="black" points="-0.880371,-189 94.8804,-189 "/>
<text text-anchor="middle" x="47" y="-177" font-family="Helvetica,sans-Serif" font-size="10.00"> </text>
<polyline fill="none" stroke="black" points="-0.880371,-171 94.8804,-171 "/>
<text text-anchor="start" x="7.11963" y="-159" font-family="Helvetica,sans-Serif" font-size="10.00">+ Label()</text>
<text text-anchor="start" x="7.11963" y="-149" font-family="Helvetica,sans-Serif" font-size="10.00">+ draw_to_scale()</text>
</g>
<!-- Node2 -->
<g id="node2" class="node"><title>Node2</title>
<g id="a_node2"><a xlink:href="class_label_metric.html" target="_top" xlink:title="Label with Value Class. ">
<polygon fill="none" stroke="black" points="-0.880371,-1 -0.880371,-105 94.8804,-105 94.8804,-1 -0.880371,-1"/>
<text text-anchor="middle" x="47" y="-93" font-family="Helvetica,sans-Serif" font-size="10.00">LabelMetric</text>
<polyline fill="none" stroke="black" points="-0.880371,-87 94.8804,-87 "/>
<text text-anchor="middle" x="47" y="-75" font-family="Helvetica,sans-Serif" font-size="10.00"> </text>
<polyline fill="none" stroke="black" points="-0.880371,-69 94.8804,-69 "/>
<text text-anchor="start" x="7.11963" y="-57" font-family="Helvetica,sans-Serif" font-size="10.00">+ LabelMetric()</text>
<text text-anchor="start" x="7.11963" y="-47" font-family="Helvetica,sans-Serif" font-size="10.00">+ LabelMetric()</text>
<text text-anchor="start" x="7.11963" y="-37" font-family="Helvetica,sans-Serif" font-size="10.00">+ set_units()</text>
<text text-anchor="start" x="7.11963" y="-27" font-family="Helvetica,sans-Serif" font-size="10.00">+ units()</text>
<text text-anchor="start" x="7.11963" y="-17" font-family="Helvetica,sans-Serif" font-size="10.00">+ set()</text>
<text text-anchor="start" x="7.11963" y="-7" font-family="Helvetica,sans-Serif" font-size="10.00">+ draw_to_scale()</text>
</a>
</g>
</g>
<!-- Node1&#45;&gt;Node2 -->
<g id="edge1" class="edge"><title>Node1&#45;&gt;Node2</title>
<path fill="none" stroke="midnightblue" d="M47,-132.671C47,-123.772 47,-114.264 47,-105.044"/>
<polygon fill="none" stroke="midnightblue" points="43.5001,-132.785 47,-142.785 50.5001,-132.785 43.5001,-132.785"/>
</g>
</g>
</svg>
