<?xml version="1.0" encoding="UTF-8" standalone="no"?>
<!DOCTYPE svg PUBLIC "-//W3C//DTD SVG 1.1//EN"
 "http://www.w3.org/Graphics/SVG/1.1/DTD/svg11.dtd">
<!-- Generated by graphviz version 2.36.0 (20140111.2315)
 -->
<!-- Title: Element Pages: 1 -->
<svg width="545pt" height="468pt"
 viewBox="0.00 0.00 545.00 468.00" xmlns="http://www.w3.org/2000/svg" xmlns:xlink="http://www.w3.org/1999/xlink">
<g id="graph0" class="graph" transform="scale(1 1) rotate(0) translate(4 464)">
<title>Element</title>
<!-- Node1 -->
<g id="node1" class="node"><title>Node1</title>
<polygon fill="#bfbfbf" stroke="black" points="217.844,-285 217.844,-459 334.156,-459 334.156,-285 217.844,-285"/>
<text text-anchor="middle" x="276" y="-447" font-family="Helvetica,sans-Serif" font-size="10.00">Element</text>
<polyline fill="none" stroke="black" points="217.844,-441 334.156,-441 "/>
<text text-anchor="middle" x="276" y="-429" font-family="Helvetica,sans-Serif" font-size="10.00"> </text>
<polyline fill="none" stroke="black" points="217.844,-423 334.156,-423 "/>
<text text-anchor="start" x="225.844" y="-411" font-family="Helvetica,sans-Serif" font-size="10.00">+ Element()</text>
<text text-anchor="start" x="225.844" y="-401" font-family="Helvetica,sans-Serif" font-size="10.00">+ enabled()</text>
<text text-anchor="start" x="225.844" y="-391" font-family="Helvetica,sans-Serif" font-size="10.00">+ set_enabled()</text>
<text text-anchor="start" x="225.844" y="-381" font-family="Helvetica,sans-Serif" font-size="10.00">+ cancelled()</text>
<text text-anchor="start" x="225.844" y="-371" font-family="Helvetica,sans-Serif" font-size="10.00">+ set_cancel()</text>
<text text-anchor="start" x="225.844" y="-361" font-family="Helvetica,sans-Serif" font-size="10.00">+ confirmed()</text>
<text text-anchor="start" x="225.844" y="-351" font-family="Helvetica,sans-Serif" font-size="10.00">+ set_confirm()</text>
<text text-anchor="start" x="225.844" y="-341" font-family="Helvetica,sans-Serif" font-size="10.00">+ scroll_visible()</text>
<text text-anchor="start" x="225.844" y="-331" font-family="Helvetica,sans-Serif" font-size="10.00">+ set_scroll_visible()</text>
<text text-anchor="start" x="225.844" y="-321" font-family="Helvetica,sans-Serif" font-size="10.00">+ exclusive_checklist()</text>
<text text-anchor="start" x="225.844" y="-311" font-family="Helvetica,sans-Serif" font-size="10.00">and 7 more...</text>
<text text-anchor="start" x="225.844" y="-301" font-family="Helvetica,sans-Serif" font-size="10.00"># draw_scroll()</text>
<text text-anchor="start" x="225.844" y="-291" font-family="Helvetica,sans-Serif" font-size="10.00"># adjust_x_center()</text>
</g>
<!-- Node2 -->
<g id="node2" class="node"><title>Node2</title>
<g id="a_node2"><a xlink:href="class_graph_1_1_object.html" target="_top" xlink:title="Abstract Graph Class. ">
<polygon fill="none" stroke="black" points="31.5273,-118 31.5273,-222 136.473,-222 136.473,-118 31.5273,-118"/>
<text text-anchor="middle" x="84" y="-210" font-family="Helvetica,sans-Serif" font-size="10.00">Graph::Object</text>
<polyline fill="none" stroke="black" points="31.5273,-204 136.473,-204 "/>
<text text-anchor="middle" x="84" y="-192" font-family="Helvetica,sans-Serif" font-size="10.00"> </text>
<polyline fill="none" stroke="black" points="31.5273,-186 136.473,-186 "/>
<text text-anchor="start" x="39.5273" y="-174" font-family="Helvetica,sans-Serif" font-size="10.00">+ Object()</text>
<text text-anchor="start" x="39.5273" y="-164" font-family="Helvetica,sans-Serif" font-size="10.00">+ x_axis()</text>
<text text-anchor="start" x="39.5273" y="-154" font-family="Helvetica,sans-Serif" font-size="10.00">+ y_axis()</text>
<text text-anchor="start" x="39.5273" y="-144" font-family="Helvetica,sans-Serif" font-size="10.00">+ x_data()</text>
<text text-anchor="start" x="39.5273" y="-134" font-family="Helvetica,sans-Serif" font-size="10.00">+ y_data()</text>
<text text-anchor="start" x="39.5273" y="-124" font-family="Helvetica,sans-Serif" font-size="10.00"># point_on_bitmap()</text>
</a>
</g>
</g>
<!-- Node1&#45;&gt;Node2 -->
<g id="edge1" class="edge"><title>Node1&#45;&gt;Node2</title>
<path fill="none" stroke="midnightblue" d="M210.312,-312.855C188.839,-292.933 165.304,-270.084 145,-248 137.497,-239.839 129.872,-230.859 122.67,-222.001"/>
<polygon fill="none" stroke="midnightblue" points="208.089,-315.566 217.812,-319.774 212.835,-310.421 208.089,-315.566"/>
</g>
<!-- Node5 -->
<g id="node5" class="node"><title>Node5</title>
<g id="a_node5"><a xlink:href="class_map.html" target="_top" xlink:title="Map Class (for mapping coords to display) ">
<polygon fill="none" stroke="black" points="154.061,-93 154.061,-247 265.939,-247 265.939,-93 154.061,-93"/>
<text text-anchor="middle" x="210" y="-235" font-family="Helvetica,sans-Serif" font-size="10.00">Map</text>
<polyline fill="none" stroke="black" points="154.061,-229 265.939,-229 "/>
<text text-anchor="middle" x="210" y="-217" font-family="Helvetica,sans-Serif" font-size="10.00"> </text>
<polyline fill="none" stroke="black" points="154.061,-211 265.939,-211 "/>
<text text-anchor="start" x="162.061" y="-199" font-family="Helvetica,sans-Serif" font-size="10.00">+ Map()</text>
<text text-anchor="start" x="162.061" y="-189" font-family="Helvetica,sans-Serif" font-size="10.00">+ point()</text>
<text text-anchor="start" x="162.061" y="-179" font-family="Helvetica,sans-Serif" font-size="10.00">+ distance()</text>
<text text-anchor="start" x="162.061" y="-169" font-family="Helvetica,sans-Serif" font-size="10.00">+ heading()</text>
<text text-anchor="start" x="162.061" y="-159" font-family="Helvetica,sans-Serif" font-size="10.00">+ center()</text>
<text text-anchor="start" x="162.061" y="-149" font-family="Helvetica,sans-Serif" font-size="10.00">+ set_heading()</text>
<text text-anchor="start" x="162.061" y="-139" font-family="Helvetica,sans-Serif" font-size="10.00">+ set_selector()</text>
<text text-anchor="start" x="162.061" y="-129" font-family="Helvetica,sans-Serif" font-size="10.00">+ selector()</text>
<text text-anchor="start" x="162.061" y="-119" font-family="Helvetica,sans-Serif" font-size="10.00">+ set_bitmap()</text>
<text text-anchor="start" x="162.061" y="-109" font-family="Helvetica,sans-Serif" font-size="10.00">+ set_max_distance()</text>
<text text-anchor="start" x="162.061" y="-99" font-family="Helvetica,sans-Serif" font-size="10.00">and 19 more...</text>
</a>
</g>
</g>
<!-- Node1&#45;&gt;Node5 -->
<g id="edge4" class="edge"><title>Node1&#45;&gt;Node5</title>
<path fill="none" stroke="midnightblue" d="M244.332,-275.038C241.253,-265.707 238.159,-256.329 235.156,-247.23"/>
<polygon fill="none" stroke="midnightblue" points="241.074,-276.331 247.531,-284.731 247.721,-274.138 241.074,-276.331"/>
</g>
<!-- Node6 -->
<g id="node6" class="node"><title>Node6</title>
<g id="a_node6"><a xlink:href="class_morse_input.html" target="_top" xlink:title="Morse Input Class. ">
<polygon fill="none" stroke="black" points="283.723,-93 283.723,-247 402.277,-247 402.277,-93 283.723,-93"/>
<text text-anchor="middle" x="343" y="-235" font-family="Helvetica,sans-Serif" font-size="10.00">MorseInput</text>
<polyline fill="none" stroke="black" points="283.723,-229 402.277,-229 "/>
<text text-anchor="middle" x="343" y="-217" font-family="Helvetica,sans-Serif" font-size="10.00"> </text>
<polyline fill="none" stroke="black" points="283.723,-211 402.277,-211 "/>
<text text-anchor="start" x="291.723" y="-199" font-family="Helvetica,sans-Serif" font-size="10.00">+ MorseInput()</text>
<text text-anchor="start" x="291.723" y="-189" font-family="Helvetica,sans-Serif" font-size="10.00">+ event_handler()</text>
<text text-anchor="start" x="291.723" y="-179" font-family="Helvetica,sans-Serif" font-size="10.00">+ reset()</text>
<text text-anchor="start" x="291.723" y="-169" font-family="Helvetica,sans-Serif" font-size="10.00">+ draw_to_scale()</text>
<text text-anchor="start" x="291.723" y="-159" font-family="Helvetica,sans-Serif" font-size="10.00">+ clear_input()</text>
<text text-anchor="start" x="291.723" y="-149" font-family="Helvetica,sans-Serif" font-size="10.00">+ message()</text>
<text text-anchor="start" x="291.723" y="-139" font-family="Helvetica,sans-Serif" font-size="10.00">+ confirm_set_enable()</text>
<text text-anchor="start" x="291.723" y="-129" font-family="Helvetica,sans-Serif" font-size="10.00">+ confirm_enabled()</text>
<text text-anchor="start" x="291.723" y="-119" font-family="Helvetica,sans-Serif" font-size="10.00">+ char_set_enable()</text>
<text text-anchor="start" x="291.723" y="-109" font-family="Helvetica,sans-Serif" font-size="10.00">+ char_enabled()</text>
<text text-anchor="start" x="291.723" y="-99" font-family="Helvetica,sans-Serif" font-size="10.00">and 6 more...</text>
</a>
</g>
</g>
<!-- Node1&#45;&gt;Node6 -->
<g id="edge5" class="edge"><title>Node1&#45;&gt;Node6</title>
<path fill="none" stroke="midnightblue" d="M308.147,-275.038C311.273,-265.707 314.415,-256.329 317.463,-247.23"/>
<polygon fill="none" stroke="midnightblue" points="304.758,-274.137 304.9,-284.731 311.395,-276.361 304.758,-274.137"/>
</g>
<!-- Node7 -->
<g id="node7" class="node"><title>Node7</title>
<g id="a_node7"><a xlink:href="class_text.html" target="_top" xlink:title="Text Box. ">
<polygon fill="none" stroke="black" points="420.553,-103 420.553,-237 537.447,-237 537.447,-103 420.553,-103"/>
<text text-anchor="middle" x="479" y="-225" font-family="Helvetica,sans-Serif" font-size="10.00">Text</text>
<polyline fill="none" stroke="black" points="420.553,-219 537.447,-219 "/>
<text text-anchor="middle" x="479" y="-207" font-family="Helvetica,sans-Serif" font-size="10.00"> </text>
<polyline fill="none" stroke="black" points="420.553,-201 537.447,-201 "/>
<text text-anchor="start" x="428.553" y="-189" font-family="Helvetica,sans-Serif" font-size="10.00">+ Text()</text>
<text text-anchor="start" x="428.553" y="-179" font-family="Helvetica,sans-Serif" font-size="10.00">+ Text()</text>
<text text-anchor="start" x="428.553" y="-169" font-family="Helvetica,sans-Serif" font-size="10.00">+ set_prompt_enable()</text>
<text text-anchor="start" x="428.553" y="-159" font-family="Helvetica,sans-Serif" font-size="10.00">+ scroll()</text>
<text text-anchor="start" x="428.553" y="-149" font-family="Helvetica,sans-Serif" font-size="10.00">+ scroll_max()</text>
<text text-anchor="start" x="428.553" y="-139" font-family="Helvetica,sans-Serif" font-size="10.00">+ event_handler()</text>
<text text-anchor="start" x="428.553" y="-129" font-family="Helvetica,sans-Serif" font-size="10.00">+ count_lines()</text>
<text text-anchor="start" x="428.553" y="-119" font-family="Helvetica,sans-Serif" font-size="10.00">+ draw_to_scale()</text>
<text text-anchor="start" x="428.553" y="-109" font-family="Helvetica,sans-Serif" font-size="10.00">+ count_lines()</text>
</a>
</g>
</g>
<!-- Node1&#45;&gt;Node7 -->
<g id="edge6" class="edge"><title>Node1&#45;&gt;Node7</title>
<path fill="none" stroke="midnightblue" d="M341.931,-313.534C364.342,-293.323 389.215,-270.126 411,-248 414.378,-244.569 417.801,-241.005 421.22,-237.374"/>
<polygon fill="none" stroke="midnightblue" points="339.535,-310.982 334.434,-320.267 344.212,-316.189 339.535,-310.982"/>
</g>
<!-- Node3 -->
<g id="node3" class="node"><title>Node3</title>
<g id="a_node3"><a xlink:href="class_graph_bar.html" target="_top" xlink:title="Bar Graph Element. ">
<polygon fill="none" stroke="black" points="-0.316406,-1 -0.316406,-55 74.3164,-55 74.3164,-1 -0.316406,-1"/>
<text text-anchor="middle" x="37" y="-43" font-family="Helvetica,sans-Serif" font-size="10.00">GraphBar</text>
<polyline fill="none" stroke="black" points="-0.316406,-37 74.3164,-37 "/>
<text text-anchor="middle" x="37" y="-25" font-family="Helvetica,sans-Serif" font-size="10.00"> </text>
<polyline fill="none" stroke="black" points="-0.316406,-19 74.3164,-19 "/>
<text text-anchor="start" x="7.68359" y="-7" font-family="Helvetica,sans-Serif" font-size="10.00">+ GraphBar()</text>
</a>
</g>
</g>
<!-- Node2&#45;&gt;Node3 -->
<g id="edge2" class="edge"><title>Node2&#45;&gt;Node3</title>
<path fill="none" stroke="midnightblue" d="M63.5471,-108.077C57.3235,-89.538 50.8098,-70.1355 45.7921,-55.1892"/>
<polygon fill="none" stroke="midnightblue" points="60.2651,-109.298 66.7658,-117.664 66.9012,-107.07 60.2651,-109.298"/>
</g>
<!-- Node4 -->
<g id="node4" class="node"><title>Node4</title>
<g id="a_node4"><a xlink:href="class_graph_line.html" target="_top" xlink:title="Line Graph Element. ">
<polygon fill="none" stroke="black" points="92.0112,-1 92.0112,-55 169.989,-55 169.989,-1 92.0112,-1"/>
<text text-anchor="middle" x="131" y="-43" font-family="Helvetica,sans-Serif" font-size="10.00">GraphLine</text>
<polyline fill="none" stroke="black" points="92.0112,-37 169.989,-37 "/>
<text text-anchor="middle" x="131" y="-25" font-family="Helvetica,sans-Serif" font-size="10.00"> </text>
<polyline fill="none" stroke="black" points="92.0112,-19 169.989,-19 "/>
<text text-anchor="start" x="100.011" y="-7" font-family="Helvetica,sans-Serif" font-size="10.00">+ GraphLine()</text>
</a>
</g>
</g>
<!-- Node2&#45;&gt;Node4 -->
<g id="edge3" class="edge"><title>Node2&#45;&gt;Node4</title>
<path fill="none" stroke="midnightblue" d="M104.453,-108.077C110.677,-89.538 117.19,-70.1355 122.208,-55.1892"/>
<polygon fill="none" stroke="midnightblue" points="101.099,-107.07 101.234,-117.664 107.735,-109.298 101.099,-107.07"/>
</g>
</g>
</svg>
