<?xml version="1.0" encoding="UTF-8" standalone="no"?>
<!DOCTYPE svg PUBLIC "-//W3C//DTD SVG 1.1//EN"
 "http://www.w3.org/Graphics/SVG/1.1/DTD/svg11.dtd">
<!-- Generated by graphviz version 2.36.0 (20140111.2315)
 -->
<!-- Title: ProgressArc Pages: 1 -->
<svg width="114pt" height="226pt"
 viewBox="0.00 0.00 114.00 226.00" xmlns="http://www.w3.org/2000/svg" xmlns:xlink="http://www.w3.org/1999/xlink">
<g id="graph0" class="graph" transform="scale(1 1) rotate(0) translate(4 222)">
<title>ProgressArc</title>
<!-- Node1 -->
<g id="node1" class="node"><title>Node1</title>
<polygon fill="#bfbfbf" stroke="black" points="5.11963,-1 5.11963,-75 100.88,-75 100.88,-1 5.11963,-1"/>
<text text-anchor="middle" x="53" y="-63" font-family="Helvetica,sans-Serif" font-size="10.00">ProgressArc</text>
<polyline fill="none" stroke="black" points="5.11963,-57 100.88,-57 "/>
<text text-anchor="middle" x="53" y="-45" font-family="Helvetica,sans-Serif" font-size="10.00"> </text>
<polyline fill="none" stroke="black" points="5.11963,-39 100.88,-39 "/>
<text text-anchor="start" x="13.1196" y="-27" font-family="Helvetica,sans-Serif" font-size="10.00">+ ProgressArc()</text>
<text text-anchor="start" x="13.1196" y="-17" font-family="Helvetica,sans-Serif" font-size="10.00">+ ProgressArc()</text>
<text text-anchor="start" x="13.1196" y="-7" font-family="Helvetica,sans-Serif" font-size="10.00">+ draw_to_scale()</text>
</g>
<!-- Node2 -->
<g id="node2" class="node"><title>Node2</title>
<g id="a_node2"><a xlink:href="class_progress_element.html" target="_top" xlink:title="Progress Class. ">
<polygon fill="none" stroke="black" points="-0.98877,-113 -0.98877,-217 106.989,-217 106.989,-113 -0.98877,-113"/>
<text text-anchor="middle" x="53" y="-205" font-family="Helvetica,sans-Serif" font-size="10.00">ProgressElement</text>
<polyline fill="none" stroke="black" points="-0.98877,-199 106.989,-199 "/>
<text text-anchor="start" x="7.01123" y="-187" font-family="Helvetica,sans-Serif" font-size="10.00"># _progress</text>
<polyline fill="none" stroke="black" points="-0.98877,-181 106.989,-181 "/>
<text text-anchor="start" x="7.01123" y="-169" font-family="Helvetica,sans-Serif" font-size="10.00">+ ProgressElement()</text>
<text text-anchor="start" x="7.01123" y="-159" font-family="Helvetica,sans-Serif" font-size="10.00">+ ProgressElement()</text>
<text text-anchor="start" x="7.01123" y="-149" font-family="Helvetica,sans-Serif" font-size="10.00">+ progress()</text>
<text text-anchor="start" x="7.01123" y="-139" font-family="Helvetica,sans-Serif" font-size="10.00">+ attr()</text>
<text text-anchor="start" x="7.01123" y="-129" font-family="Helvetica,sans-Serif" font-size="10.00">+ value()</text>
<text text-anchor="start" x="7.01123" y="-119" font-family="Helvetica,sans-Serif" font-size="10.00">+ max()</text>
</a>
</g>
</g>
<!-- Node2&#45;&gt;Node1 -->
<g id="edge1" class="edge"><title>Node2&#45;&gt;Node1</title>
<path fill="none" stroke="midnightblue" d="M53,-102.601C53,-93.1556 53,-83.6763 53,-75.0268"/>
<polygon fill="none" stroke="midnightblue" points="49.5001,-102.797 53,-112.797 56.5001,-102.797 49.5001,-102.797"/>
</g>
</g>
</svg>
