<?xml version="1.0" encoding="UTF-8" standalone="no"?>
<!DOCTYPE svg PUBLIC "-//W3C//DTD SVG 1.1//EN"
 "http://www.w3.org/Graphics/SVG/1.1/DTD/svg11.dtd">
<!-- Generated by graphviz version 2.36.0 (20140111.2315)
 -->
<!-- Title: include/hio.h Pages: 1 -->
<svg width="174pt" height="140pt"
 viewBox="0.00 0.00 174.00 140.00" xmlns="http://www.w3.org/2000/svg" xmlns:xlink="http://www.w3.org/1999/xlink">
<g id="graph0" class="graph" transform="scale(1 1) rotate(0) translate(4 136)">
<title>include/hio.h</title>
<!-- Node1 -->
<g id="node1" class="node"><title>Node1</title>
<polygon fill="#bfbfbf" stroke="black" points="29.9238,-113 29.9238,-131 102.076,-131 102.076,-113 29.9238,-113"/>
<text text-anchor="middle" x="66" y="-119" font-family="Helvetica,sans-Serif" font-size="10.00">include/hio.h</text>
</g>
<!-- Node2 -->
<g id="node2" class="node"><title>Node2</title>
<polygon fill="none" stroke="#bfbfbf" points="-0.792969,-1 -0.792969,-19 70.793,-19 70.793,-1 -0.792969,-1"/>
<text text-anchor="middle" x="35" y="-7" font-family="Helvetica,sans-Serif" font-size="10.00">hwpl/types.h</text>
</g>
<!-- Node1&#45;&gt;Node2 -->
<g id="edge1" class="edge"><title>Node1&#45;&gt;Node2</title>
<path fill="none" stroke="midnightblue" d="M56.2547,-112.879C47.2212,-104.659 34.3906,-91.0439 29,-76 23.5645,-60.8308 26.0179,-42.4602 29.2737,-29.124"/>
<polygon fill="midnightblue" stroke="midnightblue" points="32.7023,-29.8608 32.0418,-19.2865 25.9639,-27.9647 32.7023,-29.8608"/>
</g>
<!-- Node3 -->
<g id="node3" class="node"><title>Node3</title>
<polygon fill="none" stroke="#bfbfbf" points="37.707,-57 37.707,-75 94.293,-75 94.293,-57 37.707,-57"/>
<text text-anchor="middle" x="66" y="-63" font-family="Helvetica,sans-Serif" font-size="10.00">dev/hio.h</text>
</g>
<!-- Node1&#45;&gt;Node3 -->
<g id="edge2" class="edge"><title>Node1&#45;&gt;Node3</title>
<path fill="none" stroke="midnightblue" d="M66,-112.562C66,-105.308 66,-94.5884 66,-85.3691"/>
<polygon fill="midnightblue" stroke="midnightblue" points="69.5001,-85.2014 66,-75.2014 62.5001,-85.2015 69.5001,-85.2014"/>
</g>
<!-- Node4 -->
<g id="node4" class="node"><title>Node4</title>
<g id="a_node4"><a xlink:href="motion_8h_source.html" target="_top" xlink:title="motion.h">
<polygon fill="none" stroke="black" points="111.823,-57 111.823,-75 166.177,-75 166.177,-57 111.823,-57"/>
<text text-anchor="middle" x="139" y="-63" font-family="Helvetica,sans-Serif" font-size="10.00">motion.h</text>
</a>
</g>
</g>
<!-- Node1&#45;&gt;Node4 -->
<g id="edge3" class="edge"><title>Node1&#45;&gt;Node4</title>
<path fill="none" stroke="midnightblue" d="M77.0871,-112.799C88.3424,-104.473 105.998,-91.4125 119.58,-81.3656"/>
<polygon fill="midnightblue" stroke="midnightblue" points="121.851,-84.0395 127.809,-75.2786 117.688,-78.4118 121.851,-84.0395"/>
</g>
<!-- Node4&#45;&gt;Node2 -->
<g id="edge4" class="edge"><title>Node4&#45;&gt;Node2</title>
<path fill="none" stroke="midnightblue" d="M123.205,-56.7986C106.309,-48.0256 79.2884,-33.9959 59.6019,-23.7741"/>
<polygon fill="midnightblue" stroke="midnightblue" points="61.0911,-20.6037 50.6032,-19.1017 57.8653,-26.8161 61.0911,-20.6037"/>
</g>
<!-- Node5 -->
<g id="node5" class="node"><title>Node5</title>
<polygon fill="none" stroke="#bfbfbf" points="114.879,-1 114.879,-19 163.121,-19 163.121,-1 114.879,-1"/>
<text text-anchor="middle" x="139" y="-7" font-family="Helvetica,sans-Serif" font-size="10.00">stdint.h</text>
</g>
<!-- Node4&#45;&gt;Node5 -->
<g id="edge5" class="edge"><title>Node4&#45;&gt;Node5</title>
<path fill="none" stroke="midnightblue" d="M139,-56.5625C139,-49.308 139,-38.5884 139,-29.3691"/>
<polygon fill="midnightblue" stroke="midnightblue" points="142.5,-29.2014 139,-19.2014 135.5,-29.2015 142.5,-29.2014"/>
</g>
</g>
</svg>
