<?xml version="1.0" encoding="UTF-8" standalone="no"?>
<!DOCTYPE svg PUBLIC "-//W3C//DTD SVG 1.1//EN"
 "http://www.w3.org/Graphics/SVG/1.1/DTD/svg11.dtd">
<!-- Generated by graphviz version 2.36.0 (20140111.2315)
 -->
<!-- Title: include/hio.h Pages: 1 -->
<svg width="1293pt" height="308pt"
 viewBox="0.00 0.00 1293.00 308.00" xmlns="http://www.w3.org/2000/svg" xmlns:xlink="http://www.w3.org/1999/xlink">
<g id="graph0" class="graph" transform="scale(1 1) rotate(0) translate(4 304)">
<title>include/hio.h</title>
<!-- Node1 -->
<g id="node1" class="node"><title>Node1</title>
<polygon fill="#bfbfbf" stroke="black" points="610.924,-281 610.924,-299 683.076,-299 683.076,-281 610.924,-281"/>
<text text-anchor="middle" x="647" y="-287" font-family="Helvetica,sans-Serif" font-size="10.00">include/hio.h</text>
</g>
<!-- Node2 -->
<g id="node2" class="node"><title>Node2</title>
<g id="a_node2"><a xlink:href="app_8h_source.html" target="_top" xlink:title="include/app.h">
<polygon fill="none" stroke="black" points="211.254,-225 211.254,-243 286.746,-243 286.746,-225 211.254,-225"/>
<text text-anchor="middle" x="249" y="-231" font-family="Helvetica,sans-Serif" font-size="10.00">include/app.h</text>
</a>
</g>
</g>
<!-- Node1&#45;&gt;Node2 -->
<g id="edge1" class="edge"><title>Node1&#45;&gt;Node2</title>
<path fill="none" stroke="midnightblue" d="M600.41,-283.571C533.881,-275.676 407.879,-260.192 301,-244 296.471,-243.314 291.727,-242.552 287.025,-241.771"/>
<polygon fill="midnightblue" stroke="midnightblue" points="600.223,-287.074 610.565,-284.772 601.045,-280.122 600.223,-287.074"/>
</g>
<!-- Node3 -->
<g id="node3" class="node"><title>Node3</title>
<g id="a_node3"><a xlink:href="_icon_8hpp_source.html" target="_top" xlink:title="include/Ui/Icon.hpp">
<polygon fill="none" stroke="black" points="343.473,-225 343.473,-243 444.527,-243 444.527,-225 343.473,-225"/>
<text text-anchor="middle" x="394" y="-231" font-family="Helvetica,sans-Serif" font-size="10.00">include/Ui/Icon.hpp</text>
</a>
</g>
</g>
<!-- Node1&#45;&gt;Node3 -->
<g id="edge2" class="edge"><title>Node1&#45;&gt;Node3</title>
<path fill="none" stroke="midnightblue" d="M600.83,-279.145C552.326,-268.793 476.948,-252.704 431.834,-243.075"/>
<polygon fill="midnightblue" stroke="midnightblue" points="600.241,-282.599 610.751,-281.263 601.702,-275.753 600.241,-282.599"/>
</g>
<!-- Node4 -->
<g id="node4" class="node"><title>Node4</title>
<g id="a_node4"><a xlink:href="_button_bar_8hpp_source.html" target="_top" xlink:title="include/Ui/ButtonBar.hpp">
<polygon fill="none" stroke="black" points="-0.0390625,-169 -0.0390625,-187 126.039,-187 126.039,-169 -0.0390625,-169"/>
<text text-anchor="middle" x="63" y="-175" font-family="Helvetica,sans-Serif" font-size="10.00">include/Ui/ButtonBar.hpp</text>
</a>
</g>
</g>
<!-- Node1&#45;&gt;Node4 -->
<g id="edge13" class="edge"><title>Node1&#45;&gt;Node4</title>
<path fill="none" stroke="midnightblue" d="M600.192,-287.085C538.044,-283.464 425.482,-273.135 334,-244 315.439,-238.089 313.411,-230.362 295,-224 262.087,-212.626 170.816,-196.55 113.051,-187.009"/>
<polygon fill="midnightblue" stroke="midnightblue" points="600.282,-290.595 610.459,-287.648 600.665,-283.605 600.282,-290.595"/>
</g>
<!-- Node5 -->
<g id="node5" class="node"><title>Node5</title>
<g id="a_node5"><a xlink:href="_app_controller_8hpp_source.html" target="_top" xlink:title="include/AppController.hpp">
<polygon fill="none" stroke="red" points="114.737,-57 114.737,-75 245.263,-75 245.263,-57 114.737,-57"/>
<text text-anchor="middle" x="180" y="-63" font-family="Helvetica,sans-Serif" font-size="10.00">include/AppController.hpp</text>
</a>
</g>
</g>
<!-- Node1&#45;&gt;Node5 -->
<g id="edge14" class="edge"><title>Node1&#45;&gt;Node5</title>
<path fill="none" stroke="midnightblue" d="M624.271,-275.718C610.803,-267.376 593.741,-255.959 580,-244 545.81,-214.244 547.764,-195.844 512,-168 433.206,-106.654 317.267,-82.4064 245.315,-72.9344"/>
<polygon fill="midnightblue" stroke="midnightblue" points="622.57,-278.78 632.935,-280.971 626.199,-272.794 622.57,-278.78"/>
</g>
<!-- Node12 -->
<g id="node12" class="node"><title>Node12</title>
<g id="a_node12"><a xlink:href="_hio_control_8hpp_source.html" target="_top" xlink:title="include/HioControl.hpp">
<polygon fill="none" stroke="black" points="560.414,-113 560.414,-131 677.586,-131 677.586,-113 560.414,-113"/>
<text text-anchor="middle" x="619" y="-119" font-family="Helvetica,sans-Serif" font-size="10.00">include/HioControl.hpp</text>
</a>
</g>
</g>
<!-- Node1&#45;&gt;Node12 -->
<g id="edge15" class="edge"><title>Node1&#45;&gt;Node12</title>
<path fill="none" stroke="midnightblue" d="M620.598,-275.782C608.615,-268.254 595.657,-257.59 589,-244 569.578,-204.349 600.16,-151.056 613.385,-131.041"/>
<polygon fill="midnightblue" stroke="midnightblue" points="619.046,-278.928 629.451,-280.925 622.562,-272.876 619.046,-278.928"/>
</g>
<!-- Node13 -->
<g id="node13" class="node"><title>Node13</title>
<g id="a_node13"><a xlink:href="_button_8hpp_source.html" target="_top" xlink:title="include/Button.hpp">
<polygon fill="none" stroke="black" points="597.579,-225 597.579,-243 696.421,-243 696.421,-225 597.579,-225"/>
<text text-anchor="middle" x="647" y="-231" font-family="Helvetica,sans-Serif" font-size="10.00">include/Button.hpp</text>
</a>
</g>
</g>
<!-- Node1&#45;&gt;Node13 -->
<g id="edge17" class="edge"><title>Node1&#45;&gt;Node13</title>
<path fill="none" stroke="midnightblue" d="M647,-270.329C647,-261.077 647,-250.38 647,-243.201"/>
<polygon fill="midnightblue" stroke="midnightblue" points="643.5,-270.562 647,-280.562 650.5,-270.563 643.5,-270.562"/>
</g>
<!-- Node14 -->
<g id="node14" class="node"><title>Node14</title>
<g id="a_node14"><a xlink:href="_measure_8hpp_source.html" target="_top" xlink:title="include/Measure.hpp">
<polygon fill="none" stroke="black" points="714.582,-225 714.582,-243 823.418,-243 823.418,-225 714.582,-225"/>
<text text-anchor="middle" x="769" y="-231" font-family="Helvetica,sans-Serif" font-size="10.00">include/Measure.hpp</text>
</a>
</g>
</g>
<!-- Node1&#45;&gt;Node14 -->
<g id="edge18" class="edge"><title>Node1&#45;&gt;Node14</title>
<path fill="none" stroke="midnightblue" d="M674.589,-276.788C697.833,-266.5 730.435,-252.07 750.611,-243.14"/>
<polygon fill="midnightblue" stroke="midnightblue" points="672.992,-273.668 665.265,-280.916 675.826,-280.069 672.992,-273.668"/>
</g>
<!-- Node15 -->
<g id="node15" class="node"><title>Node15</title>
<g id="a_node15"><a xlink:href="_sensor_8hpp_source.html" target="_top" xlink:title="include/Sensor.hpp">
<polygon fill="none" stroke="black" points="841.466,-225 841.466,-243 942.534,-243 942.534,-225 841.466,-225"/>
<text text-anchor="middle" x="892" y="-231" font-family="Helvetica,sans-Serif" font-size="10.00">include/Sensor.hpp</text>
</a>
</g>
</g>
<!-- Node1&#45;&gt;Node15 -->
<g id="edge19" class="edge"><title>Node1&#45;&gt;Node15</title>
<path fill="none" stroke="midnightblue" d="M693.099,-278.84C740.231,-268.451 812.48,-252.527 855.701,-243.001"/>
<polygon fill="midnightblue" stroke="midnightblue" points="692.163,-275.462 683.151,-281.032 693.67,-282.298 692.163,-275.462"/>
</g>
<!-- Node17 -->
<g id="node17" class="node"><title>Node17</title>
<g id="a_node17"><a xlink:href="_motion_8hpp_source.html" target="_top" xlink:title="include/Motion.hpp">
<polygon fill="none" stroke="black" points="961.027,-225 961.027,-243 1060.97,-243 1060.97,-225 961.027,-225"/>
<text text-anchor="middle" x="1011" y="-231" font-family="Helvetica,sans-Serif" font-size="10.00">include/Motion.hpp</text>
</a>
</g>
</g>
<!-- Node1&#45;&gt;Node17 -->
<g id="edge21" class="edge"><title>Node1&#45;&gt;Node17</title>
<path fill="none" stroke="midnightblue" d="M693.735,-282.111C753.422,-273.305 859.9,-257.575 951,-244 954.23,-243.519 957.557,-243.022 960.911,-242.521"/>
<polygon fill="midnightblue" stroke="midnightblue" points="692.885,-278.698 683.503,-283.62 693.907,-285.623 692.885,-278.698"/>
</g>
<!-- Node18 -->
<g id="node18" class="node"><title>Node18</title>
<g id="a_node18"><a xlink:href="_sys_8hpp_source.html" target="_top" xlink:title="include/Sys.hpp">
<polygon fill="none" stroke="black" points="1078.7,-225 1078.7,-243 1165.3,-243 1165.3,-225 1078.7,-225"/>
<text text-anchor="middle" x="1122" y="-231" font-family="Helvetica,sans-Serif" font-size="10.00">include/Sys.hpp</text>
</a>
</g>
</g>
<!-- Node1&#45;&gt;Node18 -->
<g id="edge22" class="edge"><title>Node1&#45;&gt;Node18</title>
<path fill="none" stroke="midnightblue" d="M693.649,-284.978C771.571,-278.046 933.069,-262.77 1069,-244 1072.14,-243.566 1075.39,-243.088 1078.65,-242.587"/>
<polygon fill="midnightblue" stroke="midnightblue" points="692.873,-281.533 683.22,-285.9 693.489,-288.506 692.873,-281.533"/>
</g>
<!-- Node20 -->
<g id="node20" class="node"><title>Node20</title>
<g id="a_node20"><a xlink:href="_font_8hpp_source.html" target="_top" xlink:title="include/Ui/Font.hpp">
<polygon fill="none" stroke="black" points="1182.92,-225 1182.92,-243 1285.08,-243 1285.08,-225 1182.92,-225"/>
<text text-anchor="middle" x="1234" y="-231" font-family="Helvetica,sans-Serif" font-size="10.00">include/Ui/Font.hpp</text>
</a>
</g>
</g>
<!-- Node1&#45;&gt;Node20 -->
<g id="edge24" class="edge"><title>Node1&#45;&gt;Node20</title>
<path fill="none" stroke="midnightblue" d="M693.255,-286.045C785.083,-279.959 996.836,-264.83 1174,-244 1176.82,-243.668 1179.72,-243.306 1182.64,-242.924"/>
<polygon fill="midnightblue" stroke="midnightblue" points="692.929,-282.559 683.181,-286.708 693.389,-289.544 692.929,-282.559"/>
</g>
<!-- Node3&#45;&gt;Node4 -->
<g id="edge3" class="edge"><title>Node3&#45;&gt;Node4</title>
<path fill="none" stroke="midnightblue" d="M334.542,-223.3C271.015,-212.936 171.477,-196.697 112.196,-187.026"/>
<polygon fill="midnightblue" stroke="midnightblue" points="334.37,-226.818 344.803,-224.974 335.497,-219.909 334.37,-226.818"/>
</g>
<!-- Node8 -->
<g id="node8" class="node"><title>Node8</title>
<g id="a_node8"><a xlink:href="_map_item_8hpp_source.html" target="_top" xlink:title="include/MapItem.hpp">
<polygon fill="none" stroke="black" points="279.584,-169 279.584,-187 388.416,-187 388.416,-169 279.584,-169"/>
<text text-anchor="middle" x="334" y="-175" font-family="Helvetica,sans-Serif" font-size="10.00">include/MapItem.hpp</text>
</a>
</g>
</g>
<!-- Node3&#45;&gt;Node8 -->
<g id="edge9" class="edge"><title>Node3&#45;&gt;Node8</title>
<path fill="none" stroke="midnightblue" d="M377.178,-217.86C366.174,-207.956 352.217,-195.395 343.198,-187.279"/>
<polygon fill="midnightblue" stroke="midnightblue" points="375.113,-220.71 384.887,-224.799 379.796,-215.507 375.113,-220.71"/>
</g>
<!-- Node10 -->
<g id="node10" class="node"><title>Node10</title>
<g id="a_node10"><a xlink:href="_gfx_8hpp_source.html" target="_top" xlink:title="include/Ui/Gfx.hpp">
<polygon fill="none" stroke="black" points="406.146,-169 406.146,-187 503.854,-187 503.854,-169 406.146,-169"/>
<text text-anchor="middle" x="455" y="-175" font-family="Helvetica,sans-Serif" font-size="10.00">include/Ui/Gfx.hpp</text>
</a>
</g>
</g>
<!-- Node3&#45;&gt;Node10 -->
<g id="edge11" class="edge"><title>Node3&#45;&gt;Node10</title>
<path fill="none" stroke="midnightblue" d="M410.774,-218.151C422.011,-208.203 436.39,-195.474 445.648,-187.279"/>
<polygon fill="midnightblue" stroke="midnightblue" points="408.432,-215.549 403.265,-224.799 413.072,-220.791 408.432,-215.549"/>
</g>
<!-- Node11 -->
<g id="node11" class="node"><title>Node11</title>
<g id="a_node11"><a xlink:href="_list_item_8hpp_source.html" target="_top" xlink:title="include/Ui/ListItem.hpp">
<polygon fill="none" stroke="black" points="144.419,-169 144.419,-187 261.581,-187 261.581,-169 144.419,-169"/>
<text text-anchor="middle" x="203" y="-175" font-family="Helvetica,sans-Serif" font-size="10.00">include/Ui/ListItem.hpp</text>
</a>
</g>
</g>
<!-- Node3&#45;&gt;Node11 -->
<g id="edge12" class="edge"><title>Node3&#45;&gt;Node11</title>
<path fill="none" stroke="midnightblue" d="M355.56,-222.132C318.869,-211.759 264.435,-196.369 231.478,-187.051"/>
<polygon fill="midnightblue" stroke="midnightblue" points="354.83,-225.563 365.405,-224.916 356.735,-218.827 354.83,-225.563"/>
</g>
<!-- Node4&#45;&gt;Node5 -->
<g id="edge4" class="edge"><title>Node4&#45;&gt;Node5</title>
<path fill="none" stroke="midnightblue" d="M75.5238,-160.922C86.5441,-147.232 103.381,-127.395 120,-112 135.283,-97.8421 154.9,-83.8034 167.463,-75.2654"/>
<polygon fill="midnightblue" stroke="midnightblue" points="72.6518,-158.91 69.1825,-168.921 78.1373,-163.259 72.6518,-158.91"/>
</g>
<!-- Node6 -->
<g id="node6" class="node"><title>Node6</title>
<g id="a_node6"><a xlink:href="_menu_helper_8hpp_source.html" target="_top" xlink:title="include/Helper/MenuHelper.hpp">
<polygon fill="none" stroke="black" points="42.9536,-1 42.9536,-19 199.046,-19 199.046,-1 42.9536,-1"/>
<text text-anchor="middle" x="121" y="-7" font-family="Helvetica,sans-Serif" font-size="10.00">include/Helper/MenuHelper.hpp</text>
</a>
</g>
</g>
<!-- Node4&#45;&gt;Node6 -->
<g id="edge8" class="edge"><title>Node4&#45;&gt;Node6</title>
<path fill="none" stroke="midnightblue" d="M69.1106,-159.511C81.4825,-124.102 109.084,-45.1049 118.094,-19.3172"/>
<polygon fill="midnightblue" stroke="midnightblue" points="65.7918,-158.399 65.7975,-168.993 72.4001,-160.708 65.7918,-158.399"/>
</g>
<!-- Node7 -->
<g id="node7" class="node"><title>Node7</title>
<g id="a_node7"><a xlink:href="_display_8hpp_source.html" target="_top" xlink:title="include/Display.hpp">
<polygon fill="none" stroke="red" points="129.009,-113 129.009,-131 230.991,-131 230.991,-113 129.009,-113"/>
<text text-anchor="middle" x="180" y="-119" font-family="Helvetica,sans-Serif" font-size="10.00">include/Display.hpp</text>
</a>
</g>
</g>
<!-- Node4&#45;&gt;Node7 -->
<g id="edge6" class="edge"><title>Node4&#45;&gt;Node7</title>
<path fill="none" stroke="midnightblue" d="M89.7578,-164.65C112.028,-154.372 143.101,-140.03 162.364,-131.14"/>
<polygon fill="midnightblue" stroke="midnightblue" points="88.129,-161.547 80.5161,-168.916 91.0624,-167.903 88.129,-161.547"/>
</g>
<!-- Node5&#45;&gt;Node6 -->
<g id="edge5" class="edge"><title>Node5&#45;&gt;Node6</title>
<path fill="none" stroke="midnightblue" d="M163.459,-49.8604C152.637,-39.9563 138.913,-27.3949 130.045,-19.2786"/>
<polygon fill="midnightblue" stroke="midnightblue" points="161.299,-52.6288 171.039,-56.7986 166.025,-47.4651 161.299,-52.6288"/>
</g>
<!-- Node7&#45;&gt;Node5 -->
<g id="edge7" class="edge"><title>Node7&#45;&gt;Node5</title>
<path fill="none" stroke="midnightblue" d="M180,-102.329C180,-93.0774 180,-82.3798 180,-75.2014"/>
<polygon fill="midnightblue" stroke="midnightblue" points="176.5,-102.562 180,-112.562 183.5,-102.563 176.5,-102.562"/>
</g>
<!-- Node9 -->
<g id="node9" class="node"><title>Node9</title>
<g id="a_node9"><a xlink:href="_map_item_file_8hpp_source.html" target="_top" xlink:title="include/MapItemFile.hpp">
<polygon fill="none" stroke="black" points="271.527,-113 271.527,-131 396.473,-131 396.473,-113 271.527,-113"/>
<text text-anchor="middle" x="334" y="-119" font-family="Helvetica,sans-Serif" font-size="10.00">include/MapItemFile.hpp</text>
</a>
</g>
</g>
<!-- Node8&#45;&gt;Node9 -->
<g id="edge10" class="edge"><title>Node8&#45;&gt;Node9</title>
<path fill="none" stroke="midnightblue" d="M334,-158.329C334,-149.077 334,-138.38 334,-131.201"/>
<polygon fill="midnightblue" stroke="midnightblue" points="330.5,-158.562 334,-168.562 337.5,-158.563 330.5,-158.562"/>
</g>
<!-- Node12&#45;&gt;Node5 -->
<g id="edge16" class="edge"><title>Node12&#45;&gt;Node5</title>
<path fill="none" stroke="midnightblue" d="M549.885,-112.478C548.579,-112.318 547.283,-112.158 546,-112 440.682,-99.0333 318.313,-83.9932 245.123,-75.0003"/>
<polygon fill="midnightblue" stroke="midnightblue" points="549.681,-115.98 560.034,-113.728 550.537,-109.032 549.681,-115.98"/>
</g>
<!-- Node16 -->
<g id="node16" class="node"><title>Node16</title>
<g id="a_node16"><a xlink:href="_m_m_a8452_8hpp_source.html" target="_top" xlink:title="include/MMA8452.hpp">
<polygon fill="none" stroke="black" points="834.247,-169 834.247,-187 949.753,-187 949.753,-169 834.247,-169"/>
<text text-anchor="middle" x="892" y="-175" font-family="Helvetica,sans-Serif" font-size="10.00">include/MMA8452.hpp</text>
</a>
</g>
</g>
<!-- Node15&#45;&gt;Node16 -->
<g id="edge20" class="edge"><title>Node15&#45;&gt;Node16</title>
<path fill="none" stroke="midnightblue" d="M892,-214.329C892,-205.077 892,-194.38 892,-187.201"/>
<polygon fill="midnightblue" stroke="midnightblue" points="888.5,-214.562 892,-224.562 895.5,-214.563 888.5,-214.562"/>
</g>
<!-- Node19 -->
<g id="node19" class="node"><title>Node19</title>
<g id="a_node19"><a xlink:href="_edit_sys_8hpp_source.html" target="_top" xlink:title="include/Ui/EditSys.hpp">
<polygon fill="none" stroke="black" points="1063.97,-169 1063.97,-187 1180.03,-187 1180.03,-169 1063.97,-169"/>
<text text-anchor="middle" x="1122" y="-175" font-family="Helvetica,sans-Serif" font-size="10.00">include/Ui/EditSys.hpp</text>
</a>
</g>
</g>
<!-- Node18&#45;&gt;Node19 -->
<g id="edge23" class="edge"><title>Node18&#45;&gt;Node19</title>
<path fill="none" stroke="midnightblue" d="M1122,-214.329C1122,-205.077 1122,-194.38 1122,-187.201"/>
<polygon fill="midnightblue" stroke="midnightblue" points="1118.5,-214.562 1122,-224.562 1125.5,-214.563 1118.5,-214.562"/>
</g>
</g>
</svg>
