<?xml version="1.0" encoding="UTF-8" standalone="no"?>
<!DOCTYPE svg PUBLIC "-//W3C//DTD SVG 1.1//EN"
 "http://www.w3.org/Graphics/SVG/1.1/DTD/svg11.dtd">
<!-- Generated by graphviz version 2.36.0 (20140111.2315)
 -->
<!-- Title: Graphical Class Hierarchy Pages: 1 -->
<svg width="344pt" height="174pt"
 viewBox="0.00 0.00 344.00 174.00" xmlns="http://www.w3.org/2000/svg" xmlns:xlink="http://www.w3.org/1999/xlink">
<g id="graph0" class="graph" transform="scale(1 1) rotate(0) translate(4 170)">
<title>Graphical Class Hierarchy</title>
<!-- Node1 -->
<g id="node1" class="node"><title>Node1</title>
<g id="a_node1"><a xlink:href="class_edit.html" target="_top" xlink:title="Edit Element. ">
<polygon fill="none" stroke="black" points="0.384277,-74 0.384277,-92 33.6157,-92 33.6157,-74 0.384277,-74"/>
<text text-anchor="middle" x="17" y="-80" font-family="Helvetica,sans-Serif" font-size="10.00">Edit</text>
</a>
</g>
</g>
<!-- Node2 -->
<g id="node2" class="node"><title>Node2</title>
<g id="a_node2"><a xlink:href="class_edit_setting_int.html" target="_top" xlink:title="Edit Integer Class. ">
<polygon fill="none" stroke="black" points="88.2588,-148 88.2588,-166 163.741,-166 163.741,-148 88.2588,-148"/>
<text text-anchor="middle" x="126" y="-154" font-family="Helvetica,sans-Serif" font-size="10.00">EditSettingInt</text>
</a>
</g>
</g>
<!-- Node1&#45;&gt;Node2 -->
<g id="edge1" class="edge"><title>Node1&#45;&gt;Node2</title>
<path fill="none" stroke="midnightblue" d="M30.5,-100.083C40.112,-112.151 54.3623,-127.91 70,-138 76.2816,-142.053 83.5273,-145.351 90.6548,-147.991"/>
<polygon fill="midnightblue" stroke="midnightblue" points="33.2287,-97.8901 24.3672,-92.0828 27.6731,-102.149 33.2287,-97.8901"/>
</g>
<!-- Node3 -->
<g id="node3" class="node"><title>Node3</title>
<g id="a_node3"><a xlink:href="class_edit_sys_backlight_time.html" target="_top" xlink:title="Edit System Backlight Brightness. ">
<polygon fill="none" stroke="black" points="69.8335,-111 69.8335,-129 182.167,-129 182.167,-111 69.8335,-111"/>
<text text-anchor="middle" x="126" y="-117" font-family="Helvetica,sans-Serif" font-size="10.00">EditSysBacklightTime</text>
</a>
</g>
</g>
<!-- Node1&#45;&gt;Node3 -->
<g id="edge2" class="edge"><title>Node1&#45;&gt;Node3</title>
<path fill="none" stroke="midnightblue" d="M43.5839,-91.8595C51.998,-94.7723 61.3987,-98.0256 70,-101 79.3566,-104.236 89.6096,-107.778 98.7014,-110.919"/>
<polygon fill="midnightblue" stroke="midnightblue" points="44.5248,-88.4815 33.9301,-88.5171 42.2346,-95.0963 44.5248,-88.4815"/>
</g>
<!-- Node4 -->
<g id="node4" class="node"><title>Node4</title>
<g id="a_node4"><a xlink:href="class_edit_sys_brightness.html" target="_top" xlink:title="Edit System Brightness. ">
<polygon fill="none" stroke="black" points="77.4263,-74 77.4263,-92 174.574,-92 174.574,-74 77.4263,-74"/>
<text text-anchor="middle" x="126" y="-80" font-family="Helvetica,sans-Serif" font-size="10.00">EditSysBrightness</text>
</a>
</g>
</g>
<!-- Node1&#45;&gt;Node4 -->
<g id="edge3" class="edge"><title>Node1&#45;&gt;Node4</title>
<path fill="none" stroke="midnightblue" d="M43.8625,-83C53.8848,-83 65.6911,-83 77.1479,-83"/>
<polygon fill="midnightblue" stroke="midnightblue" points="43.7883,-79.5001 33.7882,-83 43.7882,-86.5001 43.7883,-79.5001"/>
</g>
<!-- Node8 -->
<g id="node8" class="node"><title>Node8</title>
<g id="a_node8"><a xlink:href="class_edit_sys_morse_delay.html" target="_top" xlink:title="Edit Morse Delay. ">
<polygon fill="none" stroke="black" points="74.3745,-37 74.3745,-55 177.625,-55 177.625,-37 74.3745,-37"/>
<text text-anchor="middle" x="126" y="-43" font-family="Helvetica,sans-Serif" font-size="10.00">EditSysMorseDelay</text>
</a>
</g>
</g>
<!-- Node1&#45;&gt;Node8 -->
<g id="edge7" class="edge"><title>Node1&#45;&gt;Node8</title>
<path fill="none" stroke="midnightblue" d="M43.5839,-74.1405C51.998,-71.2277 61.3987,-67.9744 70,-65 79.3566,-61.7644 89.6096,-58.2217 98.7014,-55.0812"/>
<polygon fill="midnightblue" stroke="midnightblue" points="42.2346,-70.9037 33.9301,-77.4829 44.5248,-77.5185 42.2346,-70.9037"/>
</g>
<!-- Node9 -->
<g id="node9" class="node"><title>Node9</title>
<g id="a_node9"><a xlink:href="class_edit_sys_units.html" target="_top" xlink:title="Edit System Units Setting. ">
<polygon fill="none" stroke="black" points="89.6577,-0 89.6577,-18 162.342,-18 162.342,-0 89.6577,-0"/>
<text text-anchor="middle" x="126" y="-6" font-family="Helvetica,sans-Serif" font-size="10.00">EditSysUnits</text>
</a>
</g>
</g>
<!-- Node1&#45;&gt;Node9 -->
<g id="edge8" class="edge"><title>Node1&#45;&gt;Node9</title>
<path fill="none" stroke="midnightblue" d="M30.3874,-65.5196C39.9439,-53.1902 54.1742,-37.1294 70,-27 75.9234,-23.2087 82.7197,-20.1449 89.4687,-17.6943"/>
<polygon fill="midnightblue" stroke="midnightblue" points="27.462,-63.588 24.2987,-73.6996 33.0773,-67.7676 27.462,-63.588"/>
</g>
<!-- Node5 -->
<g id="node5" class="node"><title>Node5</title>
<g id="a_node5"><a xlink:href="class_edit_sys_brightness_high.html" target="_top" xlink:title="Edit System High Brightness Class. ">
<polygon fill="none" stroke="black" points="218.143,-111 218.143,-129 335.857,-129 335.857,-111 218.143,-111"/>
<text text-anchor="middle" x="277" y="-117" font-family="Helvetica,sans-Serif" font-size="10.00">EditSysBrightnessHigh</text>
</a>
</g>
</g>
<!-- Node4&#45;&gt;Node5 -->
<g id="edge4" class="edge"><title>Node4&#45;&gt;Node5</title>
<path fill="none" stroke="midnightblue" d="M173.297,-94.4967C194.673,-99.8046 219.682,-106.015 239.669,-110.978"/>
<polygon fill="midnightblue" stroke="midnightblue" points="173.998,-91.0645 163.45,-92.0512 172.311,-97.8582 173.998,-91.0645"/>
</g>
<!-- Node6 -->
<g id="node6" class="node"><title>Node6</title>
<g id="a_node6"><a xlink:href="class_edit_sys_brightness_low.html" target="_top" xlink:title="Edit System Low Brightness Class. ">
<polygon fill="none" stroke="black" points="219.254,-74 219.254,-92 334.746,-92 334.746,-74 219.254,-74"/>
<text text-anchor="middle" x="277" y="-80" font-family="Helvetica,sans-Serif" font-size="10.00">EditSysBrightnessLow</text>
</a>
</g>
</g>
<!-- Node4&#45;&gt;Node6 -->
<g id="edge5" class="edge"><title>Node4&#45;&gt;Node6</title>
<path fill="none" stroke="midnightblue" d="M185.042,-83C196.207,-83 207.892,-83 219.023,-83"/>
<polygon fill="midnightblue" stroke="midnightblue" points="184.965,-79.5001 174.965,-83 184.965,-86.5001 184.965,-79.5001"/>
</g>
<!-- Node7 -->
<g id="node7" class="node"><title>Node7</title>
<g id="a_node7"><a xlink:href="class_edit_sys_brightness_med.html" target="_top" xlink:title="Edit System Med Brightness Class. ">
<polygon fill="none" stroke="black" points="218.7,-37 218.7,-55 335.3,-55 335.3,-37 218.7,-37"/>
<text text-anchor="middle" x="277" y="-43" font-family="Helvetica,sans-Serif" font-size="10.00">EditSysBrightnessMed</text>
</a>
</g>
</g>
<!-- Node4&#45;&gt;Node7 -->
<g id="edge6" class="edge"><title>Node4&#45;&gt;Node7</title>
<path fill="none" stroke="midnightblue" d="M173.297,-71.5033C194.673,-66.1954 219.682,-59.9851 239.669,-55.0218"/>
<polygon fill="midnightblue" stroke="midnightblue" points="172.311,-68.1418 163.45,-73.9488 173.998,-74.9355 172.311,-68.1418"/>
</g>
</g>
</svg>
