<?xml version="1.0" encoding="UTF-8" standalone="no"?>
<!DOCTYPE svg PUBLIC "-//W3C//DTD SVG 1.1//EN"
 "http://www.w3.org/Graphics/SVG/1.1/DTD/svg11.dtd">
<!-- Generated by graphviz version 2.36.0 (20140111.2315)
 -->
<!-- Title: include/iface/location.h Pages: 1 -->
<svg width="139pt" height="84pt"
 viewBox="0.00 0.00 139.00 84.00" xmlns="http://www.w3.org/2000/svg" xmlns:xlink="http://www.w3.org/1999/xlink">
<g id="graph0" class="graph" transform="scale(1 1) rotate(0) translate(4 80)">
<title>include/iface/location.h</title>
<!-- Node1 -->
<g id="node1" class="node"><title>Node1</title>
<polygon fill="#bfbfbf" stroke="black" points="13.4116,-57 13.4116,-75 130.588,-75 130.588,-57 13.4116,-57"/>
<text text-anchor="middle" x="72" y="-63" font-family="Helvetica,sans-Serif" font-size="10.00">include/iface/location.h</text>
</g>
<!-- Node2 -->
<g id="node2" class="node"><title>Node2</title>
<polygon fill="none" stroke="#bfbfbf" points="-0.792969,-1 -0.792969,-19 70.793,-19 70.793,-1 -0.792969,-1"/>
<text text-anchor="middle" x="35" y="-7" font-family="Helvetica,sans-Serif" font-size="10.00">hwpl/types.h</text>
</g>
<!-- Node1&#45;&gt;Node2 -->
<g id="edge1" class="edge"><title>Node1&#45;&gt;Node2</title>
<path fill="none" stroke="midnightblue" d="M66.2188,-56.5625C60.9204,-48.8297 52.9242,-37.1597 46.3511,-27.5665"/>
<polygon fill="midnightblue" stroke="midnightblue" points="49.1591,-25.4725 40.6195,-19.2014 43.3846,-29.4291 49.1591,-25.4725"/>
</g>
<!-- Node3 -->
<g id="node3" class="node"><title>Node3</title>
<polygon fill="none" stroke="#bfbfbf" points="88.3843,-1 88.3843,-19 131.616,-19 131.616,-1 88.3843,-1"/>
<text text-anchor="middle" x="110" y="-7" font-family="Helvetica,sans-Serif" font-size="10.00">time.h</text>
</g>
<!-- Node1&#45;&gt;Node3 -->
<g id="edge2" class="edge"><title>Node1&#45;&gt;Node3</title>
<path fill="none" stroke="midnightblue" d="M77.9375,-56.5625C83.3791,-48.8297 91.5913,-37.1597 98.3421,-27.5665"/>
<polygon fill="midnightblue" stroke="midnightblue" points="101.336,-29.3938 104.229,-19.2014 95.6113,-25.3653 101.336,-29.3938"/>
</g>
</g>
</svg>
