<?xml version="1.0" encoding="UTF-8" standalone="no"?>
<!DOCTYPE svg PUBLIC "-//W3C//DTD SVG 1.1//EN"
 "http://www.w3.org/Graphics/SVG/1.1/DTD/svg11.dtd">
<!-- Generated by graphviz version 2.36.0 (20140111.2315)
 -->
<!-- Title: include/iface/sys.h Pages: 1 -->
<svg width="1280pt" height="364pt"
 viewBox="0.00 0.00 1280.00 364.00" xmlns="http://www.w3.org/2000/svg" xmlns:xlink="http://www.w3.org/1999/xlink">
<g id="graph0" class="graph" transform="scale(1 1) rotate(0) translate(4 360)">
<title>include/iface/sys.h</title>
<!-- Node1 -->
<g id="node1" class="node"><title>Node1</title>
<polygon fill="#bfbfbf" stroke="black" points="681.146,-337 681.146,-355 778.854,-355 778.854,-337 681.146,-337"/>
<text text-anchor="middle" x="730" y="-343" font-family="Helvetica,sans-Serif" font-size="10.00">include/iface/sys.h</text>
</g>
<!-- Node2 -->
<g id="node2" class="node"><title>Node2</title>
<g id="a_node2"><a xlink:href="_app_controller_8hpp_source.html" target="_top" xlink:title="include/AppController.hpp">
<polygon fill="none" stroke="black" points="110.737,-113 110.737,-131 241.263,-131 241.263,-113 110.737,-113"/>
<text text-anchor="middle" x="176" y="-119" font-family="Helvetica,sans-Serif" font-size="10.00">include/AppController.hpp</text>
</a>
</g>
</g>
<!-- Node1&#45;&gt;Node2 -->
<g id="edge1" class="edge"><title>Node1&#45;&gt;Node2</title>
<path fill="none" stroke="midnightblue" d="M670.966,-343.964C596.537,-341.283 465.336,-331.956 358,-300 250.177,-267.899 190.398,-283.542 131,-188 117.884,-166.902 145.81,-143.145 163.299,-131.036"/>
<polygon fill="midnightblue" stroke="midnightblue" points="670.972,-347.466 681.083,-344.3 671.205,-340.47 670.972,-347.466"/>
</g>
<!-- Node10 -->
<g id="node10" class="node"><title>Node10</title>
<g id="a_node10"><a xlink:href="_gfx_8hpp_source.html" target="_top" xlink:title="include/Ui/Gfx.hpp">
<polygon fill="none" stroke="black" points="451.146,-281 451.146,-299 548.854,-299 548.854,-281 451.146,-281"/>
<text text-anchor="middle" x="500" y="-287" font-family="Helvetica,sans-Serif" font-size="10.00">include/Ui/Gfx.hpp</text>
</a>
</g>
</g>
<!-- Node1&#45;&gt;Node10 -->
<g id="edge9" class="edge"><title>Node1&#45;&gt;Node10</title>
<path fill="none" stroke="midnightblue" d="M685.679,-334.594C641.494,-324.22 574.573,-308.508 534.293,-299.051"/>
<polygon fill="midnightblue" stroke="midnightblue" points="685.031,-338.037 695.567,-336.916 686.631,-331.223 685.031,-338.037"/>
</g>
<!-- Node12 -->
<g id="node12" class="node"><title>Node12</title>
<g id="a_node12"><a xlink:href="_button_bar_8hpp_source.html" target="_top" xlink:title="include/Ui/ButtonBar.hpp">
<polygon fill="none" stroke="red" points="139.961,-169 139.961,-187 266.039,-187 266.039,-169 139.961,-169"/>
<text text-anchor="middle" x="203" y="-175" font-family="Helvetica,sans-Serif" font-size="10.00">include/Ui/ButtonBar.hpp</text>
</a>
</g>
</g>
<!-- Node1&#45;&gt;Node12 -->
<g id="edge22" class="edge"><title>Node1&#45;&gt;Node12</title>
<path fill="none" stroke="midnightblue" d="M671.028,-342.637C581.117,-336.738 406.841,-316.112 280,-244 251.713,-227.918 223.883,-200.892 210.778,-187.315"/>
<polygon fill="midnightblue" stroke="midnightblue" points="670.843,-346.132 681.04,-343.256 671.275,-339.146 670.843,-346.132"/>
</g>
<!-- Node18 -->
<g id="node18" class="node"><title>Node18</title>
<g id="a_node18"><a xlink:href="_button_8hpp_source.html" target="_top" xlink:title="include/Button.hpp">
<polygon fill="none" stroke="black" points="566.579,-281 566.579,-299 665.421,-299 665.421,-281 566.579,-281"/>
<text text-anchor="middle" x="616" y="-287" font-family="Helvetica,sans-Serif" font-size="10.00">include/Button.hpp</text>
</a>
</g>
</g>
<!-- Node1&#45;&gt;Node18 -->
<g id="edge23" class="edge"><title>Node1&#45;&gt;Node18</title>
<path fill="none" stroke="midnightblue" d="M703.374,-332.388C681.685,-322.114 651.707,-307.914 633.104,-299.102"/>
<polygon fill="midnightblue" stroke="midnightblue" points="702.15,-335.681 712.686,-336.799 705.147,-329.355 702.15,-335.681"/>
</g>
<!-- Node19 -->
<g id="node19" class="node"><title>Node19</title>
<g id="a_node19"><a xlink:href="_f_sys_8hpp_source.html" target="_top" xlink:title="include/FSys.hpp">
<polygon fill="none" stroke="black" points="683.646,-281 683.646,-299 776.354,-299 776.354,-281 683.646,-281"/>
<text text-anchor="middle" x="730" y="-287" font-family="Helvetica,sans-Serif" font-size="10.00">include/FSys.hpp</text>
</a>
</g>
</g>
<!-- Node1&#45;&gt;Node19 -->
<g id="edge24" class="edge"><title>Node1&#45;&gt;Node19</title>
<path fill="none" stroke="midnightblue" d="M730,-326.329C730,-317.077 730,-306.38 730,-299.201"/>
<polygon fill="midnightblue" stroke="midnightblue" points="726.5,-326.562 730,-336.562 733.5,-326.563 726.5,-326.562"/>
</g>
<!-- Node21 -->
<g id="node21" class="node"><title>Node21</title>
<g id="a_node21"><a xlink:href="coproc_8h_source.html" target="_top" xlink:title="include/iface/coproc.h">
<polygon fill="none" stroke="black" points="794.638,-281 794.638,-299 907.362,-299 907.362,-281 794.638,-281"/>
<text text-anchor="middle" x="851" y="-287" font-family="Helvetica,sans-Serif" font-size="10.00">include/iface/coproc.h</text>
</a>
</g>
</g>
<!-- Node1&#45;&gt;Node21 -->
<g id="edge26" class="edge"><title>Node1&#45;&gt;Node21</title>
<path fill="none" stroke="midnightblue" d="M757.363,-332.788C780.416,-322.5 812.751,-308.07 832.761,-299.14"/>
<polygon fill="midnightblue" stroke="midnightblue" points="755.82,-329.644 748.115,-336.916 758.673,-336.036 755.82,-329.644"/>
</g>
<!-- Node23 -->
<g id="node23" class="node"><title>Node23</title>
<g id="a_node23"><a xlink:href="_measure_8hpp_source.html" target="_top" xlink:title="include/Measure.hpp">
<polygon fill="none" stroke="black" points="925.582,-281 925.582,-299 1034.42,-299 1034.42,-281 925.582,-281"/>
<text text-anchor="middle" x="980" y="-287" font-family="Helvetica,sans-Serif" font-size="10.00">include/Measure.hpp</text>
</a>
</g>
</g>
<!-- Node1&#45;&gt;Node23 -->
<g id="edge28" class="edge"><title>Node1&#45;&gt;Node23</title>
<path fill="none" stroke="midnightblue" d="M776.988,-334.851C824.964,-324.488 898.483,-308.608 942.638,-299.07"/>
<polygon fill="midnightblue" stroke="midnightblue" points="776.193,-331.441 767.158,-336.974 777.671,-338.284 776.193,-331.441"/>
</g>
<!-- Node24 -->
<g id="node24" class="node"><title>Node24</title>
<g id="a_node24"><a xlink:href="_motion_8hpp_source.html" target="_top" xlink:title="include/Motion.hpp">
<polygon fill="none" stroke="black" points="1052.03,-281 1052.03,-299 1151.97,-299 1151.97,-281 1052.03,-281"/>
<text text-anchor="middle" x="1102" y="-287" font-family="Helvetica,sans-Serif" font-size="10.00">include/Motion.hpp</text>
</a>
</g>
</g>
<!-- Node1&#45;&gt;Node24 -->
<g id="edge29" class="edge"><title>Node1&#45;&gt;Node24</title>
<path fill="none" stroke="midnightblue" d="M789.22,-336.64C852.179,-327.717 954.648,-313.09 1043,-300 1045.87,-299.575 1048.82,-299.135 1051.79,-298.689"/>
<polygon fill="midnightblue" stroke="midnightblue" points="788.492,-333.208 779.082,-338.076 789.474,-340.139 788.492,-333.208"/>
</g>
<!-- Node25 -->
<g id="node25" class="node"><title>Node25</title>
<g id="a_node25"><a xlink:href="_font_8hpp_source.html" target="_top" xlink:title="include/Ui/Font.hpp">
<polygon fill="none" stroke="black" points="1169.92,-281 1169.92,-299 1272.08,-299 1272.08,-281 1169.92,-281"/>
<text text-anchor="middle" x="1221" y="-287" font-family="Helvetica,sans-Serif" font-size="10.00">include/Ui/Font.hpp</text>
</a>
</g>
</g>
<!-- Node1&#45;&gt;Node25 -->
<g id="edge30" class="edge"><title>Node1&#45;&gt;Node25</title>
<path fill="none" stroke="midnightblue" d="M789.082,-339.613C872.049,-331.867 1027.74,-316.669 1160,-300 1163.19,-299.598 1166.46,-299.167 1169.77,-298.719"/>
<polygon fill="midnightblue" stroke="midnightblue" points="788.72,-336.131 779.088,-340.543 789.369,-343.101 788.72,-336.131"/>
</g>
<!-- Node3 -->
<g id="node3" class="node"><title>Node3</title>
<g id="a_node3"><a xlink:href="_app_8hpp_source.html" target="_top" xlink:title="include/App.hpp">
<polygon fill="none" stroke="black" points="5.13818,-57 5.13818,-75 92.8618,-75 92.8618,-57 5.13818,-57"/>
<text text-anchor="middle" x="49" y="-63" font-family="Helvetica,sans-Serif" font-size="10.00">include/App.hpp</text>
</a>
</g>
</g>
<!-- Node2&#45;&gt;Node3 -->
<g id="edge2" class="edge"><title>Node2&#45;&gt;Node3</title>
<path fill="none" stroke="midnightblue" d="M147.603,-108.926C123.387,-98.6293 89.2398,-84.1098 68.1432,-75.1396"/>
<polygon fill="midnightblue" stroke="midnightblue" points="146.415,-112.224 156.987,-112.916 149.154,-105.782 146.415,-112.224"/>
</g>
<!-- Node4 -->
<g id="node4" class="node"><title>Node4</title>
<g id="a_node4"><a xlink:href="_helper_8hpp_source.html" target="_top" xlink:title="include/Helper/Helper.hpp">
<polygon fill="none" stroke="black" points="110.461,-57 110.461,-75 241.539,-75 241.539,-57 110.461,-57"/>
<text text-anchor="middle" x="176" y="-63" font-family="Helvetica,sans-Serif" font-size="10.00">include/Helper/Helper.hpp</text>
</a>
</g>
</g>
<!-- Node2&#45;&gt;Node4 -->
<g id="edge3" class="edge"><title>Node2&#45;&gt;Node4</title>
<path fill="none" stroke="midnightblue" d="M176,-102.329C176,-93.0774 176,-82.3798 176,-75.2014"/>
<polygon fill="midnightblue" stroke="midnightblue" points="172.5,-102.562 176,-112.562 179.5,-102.563 172.5,-102.562"/>
</g>
<!-- Node5 -->
<g id="node5" class="node"><title>Node5</title>
<g id="a_node5"><a xlink:href="_list_item_8hpp_source.html" target="_top" xlink:title="include/Ui/ListItem.hpp">
<polygon fill="none" stroke="black" points="259.419,-57 259.419,-75 376.581,-75 376.581,-57 259.419,-57"/>
<text text-anchor="middle" x="318" y="-63" font-family="Helvetica,sans-Serif" font-size="10.00">include/Ui/ListItem.hpp</text>
</a>
</g>
</g>
<!-- Node2&#45;&gt;Node5 -->
<g id="edge4" class="edge"><title>Node2&#45;&gt;Node5</title>
<path fill="none" stroke="midnightblue" d="M206.674,-109.335C233.806,-99.0175 272.693,-84.2294 296.596,-75.1396"/>
<polygon fill="midnightblue" stroke="midnightblue" points="205.362,-106.09 197.259,-112.916 207.85,-112.633 205.362,-106.09"/>
</g>
<!-- Node6 -->
<g id="node6" class="node"><title>Node6</title>
<g id="a_node6"><a xlink:href="_discover_8hpp_source.html" target="_top" xlink:title="include/Ui/Discover.hpp">
<polygon fill="none" stroke="black" points="-0.250977,-1 -0.250977,-19 120.251,-19 120.251,-1 -0.250977,-1"/>
<text text-anchor="middle" x="60" y="-7" font-family="Helvetica,sans-Serif" font-size="10.00">include/Ui/Discover.hpp</text>
</a>
</g>
</g>
<!-- Node5&#45;&gt;Node6 -->
<g id="edge5" class="edge"><title>Node5&#45;&gt;Node6</title>
<path fill="none" stroke="midnightblue" d="M269.819,-54.9156C220.315,-44.5543 144.221,-28.6276 98.5571,-19.0701"/>
<polygon fill="midnightblue" stroke="midnightblue" points="269.148,-58.351 279.653,-56.974 270.583,-51.4995 269.148,-58.351"/>
</g>
<!-- Node7 -->
<g id="node7" class="node"><title>Node7</title>
<g id="a_node7"><a xlink:href="_menu_list_8hpp_source.html" target="_top" xlink:title="include/Ui/MenuList.hpp">
<polygon fill="none" stroke="black" points="138.636,-1 138.636,-19 261.364,-19 261.364,-1 138.636,-1"/>
<text text-anchor="middle" x="200" y="-7" font-family="Helvetica,sans-Serif" font-size="10.00">include/Ui/MenuList.hpp</text>
</a>
</g>
</g>
<!-- Node5&#45;&gt;Node7 -->
<g id="edge6" class="edge"><title>Node5&#45;&gt;Node7</title>
<path fill="none" stroke="midnightblue" d="M291.013,-52.6502C268.553,-42.3716 237.214,-28.0301 217.787,-19.1396"/>
<polygon fill="midnightblue" stroke="midnightblue" points="289.785,-55.9369 300.334,-56.9157 292.698,-49.5718 289.785,-55.9369"/>
</g>
<!-- Node8 -->
<g id="node8" class="node"><title>Node8</title>
<g id="a_node8"><a xlink:href="_message_list_8hpp_source.html" target="_top" xlink:title="include/Ui/MessageList.hpp">
<polygon fill="none" stroke="black" points="279.855,-1 279.855,-19 418.145,-19 418.145,-1 279.855,-1"/>
<text text-anchor="middle" x="349" y="-7" font-family="Helvetica,sans-Serif" font-size="10.00">include/Ui/MessageList.hpp</text>
</a>
</g>
</g>
<!-- Node5&#45;&gt;Node8 -->
<g id="edge7" class="edge"><title>Node5&#45;&gt;Node8</title>
<path fill="none" stroke="midnightblue" d="M327.851,-47.8399C333.349,-38.2636 339.944,-26.7742 344.292,-19.2014"/>
<polygon fill="midnightblue" stroke="midnightblue" points="324.787,-46.1474 322.844,-56.5625 330.858,-49.6325 324.787,-46.1474"/>
</g>
<!-- Node9 -->
<g id="node9" class="node"><title>Node9</title>
<g id="a_node9"><a xlink:href="_morse_input_8hpp_source.html" target="_top" xlink:title="include/Ui/MorseInput.hpp">
<polygon fill="none" stroke="black" points="435.912,-1 435.912,-19 568.088,-19 568.088,-1 435.912,-1"/>
<text text-anchor="middle" x="502" y="-7" font-family="Helvetica,sans-Serif" font-size="10.00">include/Ui/MorseInput.hpp</text>
</a>
</g>
</g>
<!-- Node5&#45;&gt;Node9 -->
<g id="edge8" class="edge"><title>Node5&#45;&gt;Node9</title>
<path fill="none" stroke="midnightblue" d="M355.486,-53.9988C390.826,-43.6273 442.952,-28.3293 474.566,-19.0513"/>
<polygon fill="midnightblue" stroke="midnightblue" points="354.156,-50.7412 345.547,-56.9157 356.128,-57.4579 354.156,-50.7412"/>
</g>
<!-- Node10&#45;&gt;Node5 -->
<g id="edge17" class="edge"><title>Node10&#45;&gt;Node5</title>
<path fill="none" stroke="midnightblue" d="M440.804,-281.659C394.351,-274.609 334.956,-262.306 319,-244 275.588,-194.195 304.389,-103.202 314.728,-75.3335"/>
<polygon fill="midnightblue" stroke="midnightblue" points="440.396,-285.136 450.798,-283.126 441.413,-278.211 440.396,-285.136"/>
</g>
<!-- Node11 -->
<g id="node11" class="node"><title>Node11</title>
<g id="a_node11"><a xlink:href="_icon_8hpp_source.html" target="_top" xlink:title="include/Ui/Icon.hpp">
<polygon fill="none" stroke="black" points="328.473,-225 328.473,-243 429.527,-243 429.527,-225 328.473,-225"/>
<text text-anchor="middle" x="379" y="-231" font-family="Helvetica,sans-Serif" font-size="10.00">include/Ui/Icon.hpp</text>
</a>
</g>
</g>
<!-- Node10&#45;&gt;Node11 -->
<g id="edge10" class="edge"><title>Node10&#45;&gt;Node11</title>
<path fill="none" stroke="midnightblue" d="M472.637,-276.788C449.584,-266.5 417.249,-252.07 397.239,-243.14"/>
<polygon fill="midnightblue" stroke="midnightblue" points="471.327,-280.036 481.885,-280.916 474.18,-273.644 471.327,-280.036"/>
</g>
<!-- Node13 -->
<g id="node13" class="node"><title>Node13</title>
<g id="a_node13"><a xlink:href="_graphic_8hpp_source.html" target="_top" xlink:title="include/Ui/Graphic.hpp">
<polygon fill="none" stroke="black" points="530.417,-169 530.417,-187 647.583,-187 647.583,-169 530.417,-169"/>
<text text-anchor="middle" x="589" y="-175" font-family="Helvetica,sans-Serif" font-size="10.00">include/Ui/Graphic.hpp</text>
</a>
</g>
</g>
<!-- Node10&#45;&gt;Node13 -->
<g id="edge18" class="edge"><title>Node10&#45;&gt;Node13</title>
<path fill="none" stroke="midnightblue" d="M486.446,-272.706C476.691,-258.882 466.882,-238.969 477,-224 490.26,-204.382 513.636,-193.315 535.614,-187.073"/>
<polygon fill="midnightblue" stroke="midnightblue" points="483.781,-274.984 492.638,-280.798 489.34,-270.729 483.781,-274.984"/>
</g>
<!-- Node15 -->
<g id="node15" class="node"><title>Node15</title>
<g id="a_node15"><a xlink:href="_layout_8hpp_source.html" target="_top" xlink:title="include/Ui/Layout.hpp">
<polygon fill="none" stroke="black" points="485.912,-225 485.912,-243 598.088,-243 598.088,-225 485.912,-225"/>
<text text-anchor="middle" x="542" y="-231" font-family="Helvetica,sans-Serif" font-size="10.00">include/Ui/Layout.hpp</text>
</a>
</g>
</g>
<!-- Node10&#45;&gt;Node15 -->
<g id="edge19" class="edge"><title>Node10&#45;&gt;Node15</title>
<path fill="none" stroke="midnightblue" d="M512.883,-272.436C520.421,-262.744 529.608,-250.932 535.621,-243.201"/>
<polygon fill="midnightblue" stroke="midnightblue" points="509.939,-270.52 506.562,-280.562 515.465,-274.818 509.939,-270.52"/>
</g>
<!-- Node16 -->
<g id="node16" class="node"><title>Node16</title>
<g id="a_node16"><a xlink:href="_panel_8hpp_source.html" target="_top" xlink:title="include/Ui/Panel.hpp">
<polygon fill="none" stroke="black" points="616.136,-225 616.136,-243 723.864,-243 723.864,-225 616.136,-225"/>
<text text-anchor="middle" x="670" y="-231" font-family="Helvetica,sans-Serif" font-size="10.00">include/Ui/Panel.hpp</text>
</a>
</g>
</g>
<!-- Node10&#45;&gt;Node16 -->
<g id="edge20" class="edge"><title>Node10&#45;&gt;Node16</title>
<path fill="none" stroke="midnightblue" d="M535.055,-277.865C567.698,-267.496 615.57,-252.289 644.653,-243.051"/>
<polygon fill="midnightblue" stroke="midnightblue" points="533.922,-274.552 525.451,-280.916 536.041,-281.224 533.922,-274.552"/>
</g>
<!-- Node17 -->
<g id="node17" class="node"><title>Node17</title>
<g id="a_node17"><a xlink:href="_tab_gfx_8hpp_source.html" target="_top" xlink:title="include/Ui/Tab/TabGfx.hpp">
<polygon fill="none" stroke="black" points="741.633,-225 741.633,-243 874.367,-243 874.367,-225 741.633,-225"/>
<text text-anchor="middle" x="808" y="-231" font-family="Helvetica,sans-Serif" font-size="10.00">include/Ui/Tab/TabGfx.hpp</text>
</a>
</g>
</g>
<!-- Node10&#45;&gt;Node17 -->
<g id="edge21" class="edge"><title>Node10&#45;&gt;Node17</title>
<path fill="none" stroke="midnightblue" d="M555.693,-279.236C614.821,-268.869 707.174,-252.677 762.222,-243.026"/>
<polygon fill="midnightblue" stroke="midnightblue" points="555.023,-275.8 545.778,-280.974 556.232,-282.694 555.023,-275.8"/>
</g>
<!-- Node11&#45;&gt;Node5 -->
<g id="edge13" class="edge"><title>Node11&#45;&gt;Node5</title>
<path fill="none" stroke="midnightblue" d="M408.361,-220.291C430.569,-208.649 455.577,-189.927 445,-168 422.356,-121.06 366.116,-89.2175 336.662,-75.1655"/>
<polygon fill="midnightblue" stroke="midnightblue" points="406.554,-217.279 399.127,-224.835 409.645,-223.56 406.554,-217.279"/>
</g>
<!-- Node11&#45;&gt;Node9 -->
<g id="edge15" class="edge"><title>Node11&#45;&gt;Node9</title>
<path fill="none" stroke="midnightblue" d="M414.764,-221.16C431.145,-214.005 449.443,-203.257 461,-188 501.948,-133.941 503.035,-45.8393 502.333,-19.006"/>
<polygon fill="midnightblue" stroke="midnightblue" points="413.351,-217.957 405.406,-224.966 415.988,-224.441 413.351,-217.957"/>
</g>
<!-- Node11&#45;&gt;Node12 -->
<g id="edge11" class="edge"><title>Node11&#45;&gt;Node12</title>
<path fill="none" stroke="midnightblue" d="M342.708,-221.865C308.913,-211.496 259.351,-196.289 229.241,-187.051"/>
<polygon fill="midnightblue" stroke="midnightblue" points="342.064,-225.328 352.651,-224.916 344.118,-218.636 342.064,-225.328"/>
</g>
<!-- Node11&#45;&gt;Node13 -->
<g id="edge14" class="edge"><title>Node11&#45;&gt;Node13</title>
<path fill="none" stroke="midnightblue" d="M420.234,-222.397C460.58,-212.022 521.144,-196.449 557.689,-187.051"/>
<polygon fill="midnightblue" stroke="midnightblue" points="419.252,-219.035 410.439,-224.916 420.996,-225.815 419.252,-219.035"/>
</g>
<!-- Node14 -->
<g id="node14" class="node"><title>Node14</title>
<g id="a_node14"><a xlink:href="_prompt_8hpp_source.html" target="_top" xlink:title="include/Ui/Prompt.hpp">
<polygon fill="none" stroke="black" points="321.808,-169 321.808,-187 436.192,-187 436.192,-169 321.808,-169"/>
<text text-anchor="middle" x="379" y="-175" font-family="Helvetica,sans-Serif" font-size="10.00">include/Ui/Prompt.hpp</text>
</a>
</g>
</g>
<!-- Node11&#45;&gt;Node14 -->
<g id="edge16" class="edge"><title>Node11&#45;&gt;Node14</title>
<path fill="none" stroke="midnightblue" d="M379,-214.329C379,-205.077 379,-194.38 379,-187.201"/>
<polygon fill="midnightblue" stroke="midnightblue" points="375.5,-214.562 379,-224.562 382.5,-214.563 375.5,-214.562"/>
</g>
<!-- Node12&#45;&gt;Node2 -->
<g id="edge12" class="edge"><title>Node12&#45;&gt;Node2</title>
<path fill="none" stroke="midnightblue" d="M194.27,-159.54C189.512,-150.025 183.848,-138.695 180.101,-131.201"/>
<polygon fill="midnightblue" stroke="midnightblue" points="191.179,-161.183 198.781,-168.562 197.44,-158.053 191.179,-161.183"/>
</g>
<!-- Node20 -->
<g id="node20" class="node"><title>Node20</title>
<g id="a_node20"><a xlink:href="_edit_sys_8hpp_source.html" target="_top" xlink:title="include/Ui/EditSys.hpp">
<polygon fill="none" stroke="black" points="891.973,-225 891.973,-243 1008.03,-243 1008.03,-225 891.973,-225"/>
<text text-anchor="middle" x="950" y="-231" font-family="Helvetica,sans-Serif" font-size="10.00">include/Ui/EditSys.hpp</text>
</a>
</g>
</g>
<!-- Node19&#45;&gt;Node20 -->
<g id="edge25" class="edge"><title>Node19&#45;&gt;Node20</title>
<path fill="none" stroke="midnightblue" d="M772.661,-278.529C814.927,-268.154 878.75,-252.489 917.198,-243.051"/>
<polygon fill="midnightblue" stroke="midnightblue" points="771.814,-275.133 762.936,-280.916 773.482,-281.931 771.814,-275.133"/>
</g>
<!-- Node22 -->
<g id="node22" class="node"><title>Node22</title>
<g id="a_node22"><a xlink:href="_wakeup_timer_8hpp_source.html" target="_top" xlink:title="include/WakeupTimer.hpp">
<polygon fill="none" stroke="black" points="1025.56,-225 1025.56,-243 1156.44,-243 1156.44,-225 1025.56,-225"/>
<text text-anchor="middle" x="1091" y="-231" font-family="Helvetica,sans-Serif" font-size="10.00">include/WakeupTimer.hpp</text>
</a>
</g>
</g>
<!-- Node21&#45;&gt;Node22 -->
<g id="edge27" class="edge"><title>Node21&#45;&gt;Node22</title>
<path fill="none" stroke="midnightblue" d="M896.688,-278.72C942.755,-268.355 1012.92,-252.568 1055.13,-243.07"/>
<polygon fill="midnightblue" stroke="midnightblue" points="895.659,-275.364 886.671,-280.974 897.196,-282.193 895.659,-275.364"/>
</g>
</g>
</svg>
