<?xml version="1.0" encoding="UTF-8" standalone="no"?>
<!DOCTYPE svg PUBLIC "-//W3C//DTD SVG 1.1//EN"
 "http://www.w3.org/Graphics/SVG/1.1/DTD/svg11.dtd">
<!-- Generated by graphviz version 2.36.0 (20140111.2315)
 -->
<!-- Title: EditSysMorseDelay Pages: 1 -->
<svg width="126pt" height="276pt"
 viewBox="0.00 0.00 126.00 276.00" xmlns="http://www.w3.org/2000/svg" xmlns:xlink="http://www.w3.org/1999/xlink">
<g id="graph0" class="graph" transform="scale(1 1) rotate(0) translate(4 272)">
<title>EditSysMorseDelay</title>
<!-- Node1 -->
<g id="node1" class="node"><title>Node1</title>
<polygon fill="#bfbfbf" stroke="black" points="-0.264648,-1 -0.264648,-105 118.265,-105 118.265,-1 -0.264648,-1"/>
<text text-anchor="middle" x="59" y="-93" font-family="Helvetica,sans-Serif" font-size="10.00">EditSysMorseDelay</text>
<polyline fill="none" stroke="black" points="-0.264648,-87 118.265,-87 "/>
<text text-anchor="middle" x="59" y="-75" font-family="Helvetica,sans-Serif" font-size="10.00"> </text>
<polyline fill="none" stroke="black" points="-0.264648,-69 118.265,-69 "/>
<text text-anchor="start" x="7.73535" y="-57" font-family="Helvetica,sans-Serif" font-size="10.00">+ EditSysMorseDelay()</text>
<text text-anchor="start" x="7.73535" y="-47" font-family="Helvetica,sans-Serif" font-size="10.00">+ increment()</text>
<text text-anchor="start" x="7.73535" y="-37" font-family="Helvetica,sans-Serif" font-size="10.00">+ decrement()</text>
<text text-anchor="start" x="7.73535" y="-27" font-family="Helvetica,sans-Serif" font-size="10.00">+ load()</text>
<text text-anchor="start" x="7.73535" y="-17" font-family="Helvetica,sans-Serif" font-size="10.00">+ save()</text>
<text text-anchor="start" x="7.73535" y="-7" font-family="Helvetica,sans-Serif" font-size="10.00">+ copy()</text>
</g>
<!-- Node2 -->
<g id="node2" class="node"><title>Node2</title>
<g id="a_node2"><a xlink:href="class_edit.html" target="_top" xlink:title="Edit Element. ">
<polygon fill="none" stroke="black" points="11.6689,-143 11.6689,-267 106.331,-267 106.331,-143 11.6689,-143"/>
<text text-anchor="middle" x="59" y="-255" font-family="Helvetica,sans-Serif" font-size="10.00">Edit</text>
<polyline fill="none" stroke="black" points="11.6689,-249 106.331,-249 "/>
<text text-anchor="middle" x="59" y="-237" font-family="Helvetica,sans-Serif" font-size="10.00"> </text>
<polyline fill="none" stroke="black" points="11.6689,-231 106.331,-231 "/>
<text text-anchor="start" x="19.6689" y="-219" font-family="Helvetica,sans-Serif" font-size="10.00">+ Edit()</text>
<text text-anchor="start" x="19.6689" y="-209" font-family="Helvetica,sans-Serif" font-size="10.00">+ event_handler()</text>
<text text-anchor="start" x="19.6689" y="-199" font-family="Helvetica,sans-Serif" font-size="10.00">+ draw()</text>
<text text-anchor="start" x="19.6689" y="-189" font-family="Helvetica,sans-Serif" font-size="10.00"># increment()</text>
<text text-anchor="start" x="19.6689" y="-179" font-family="Helvetica,sans-Serif" font-size="10.00"># decrement()</text>
<text text-anchor="start" x="19.6689" y="-169" font-family="Helvetica,sans-Serif" font-size="10.00"># load()</text>
<text text-anchor="start" x="19.6689" y="-159" font-family="Helvetica,sans-Serif" font-size="10.00"># save()</text>
<text text-anchor="start" x="19.6689" y="-149" font-family="Helvetica,sans-Serif" font-size="10.00"># copy()</text>
</a>
</g>
</g>
<!-- Node2&#45;&gt;Node1 -->
<g id="edge1" class="edge"><title>Node2&#45;&gt;Node1</title>
<path fill="none" stroke="midnightblue" d="M59,-132.949C59,-123.642 59,-114.254 59,-105.359"/>
<polygon fill="none" stroke="midnightblue" points="55.5001,-132.989 59,-142.989 62.5001,-132.989 55.5001,-132.989"/>
</g>
</g>
</svg>
