<?xml version="1.0" encoding="UTF-8" standalone="no"?>
<!DOCTYPE svg PUBLIC "-//W3C//DTD SVG 1.1//EN"
 "http://www.w3.org/Graphics/SVG/1.1/DTD/svg11.dtd">
<!-- Generated by graphviz version 2.36.0 (20140111.2315)
 -->
<!-- Title: EditSysBrightnessMed Pages: 1 -->
<svg width="138pt" height="680pt"
 viewBox="0.00 0.00 138.00 680.00" xmlns="http://www.w3.org/2000/svg" xmlns:xlink="http://www.w3.org/1999/xlink">
<g id="graph0" class="graph" transform="scale(1 1) rotate(0) translate(4 676)">
<title>EditSysBrightnessMed</title>
<!-- Node1 -->
<g id="node1" class="node"><title>Node1</title>
<polygon fill="#bfbfbf" stroke="black" points="-0.939453,-1 -0.939453,-75 130.939,-75 130.939,-1 -0.939453,-1"/>
<text text-anchor="middle" x="65" y="-63" font-family="Helvetica,sans-Serif" font-size="10.00">EditSysBrightnessMed</text>
<polyline fill="none" stroke="black" points="-0.939453,-57 130.939,-57 "/>
<text text-anchor="middle" x="65" y="-45" font-family="Helvetica,sans-Serif" font-size="10.00"> </text>
<polyline fill="none" stroke="black" points="-0.939453,-39 130.939,-39 "/>
<text text-anchor="start" x="7.06055" y="-27" font-family="Helvetica,sans-Serif" font-size="10.00">+ EditSysBrightnessMed()</text>
<text text-anchor="start" x="7.06055" y="-17" font-family="Helvetica,sans-Serif" font-size="10.00">+ load()</text>
<text text-anchor="start" x="7.06055" y="-7" font-family="Helvetica,sans-Serif" font-size="10.00">+ save()</text>
</g>
<!-- Node2 -->
<g id="node2" class="node"><title>Node2</title>
<g id="a_node2"><a xlink:href="class_edit_sys_brightness.html" target="_top" xlink:title="Edit System Brightness. ">
<polygon fill="none" stroke="black" points="8.78711,-113 8.78711,-217 121.213,-217 121.213,-113 8.78711,-113"/>
<text text-anchor="middle" x="65" y="-205" font-family="Helvetica,sans-Serif" font-size="10.00">EditSysBrightness</text>
<polyline fill="none" stroke="black" points="8.78711,-199 121.213,-199 "/>
<text text-anchor="start" x="16.7871" y="-187" font-family="Helvetica,sans-Serif" font-size="10.00"># brightness</text>
<polyline fill="none" stroke="black" points="8.78711,-181 121.213,-181 "/>
<text text-anchor="start" x="16.7871" y="-169" font-family="Helvetica,sans-Serif" font-size="10.00">+ EditSysBrightness()</text>
<text text-anchor="start" x="16.7871" y="-159" font-family="Helvetica,sans-Serif" font-size="10.00">+ increment()</text>
<text text-anchor="start" x="16.7871" y="-149" font-family="Helvetica,sans-Serif" font-size="10.00">+ decrement()</text>
<text text-anchor="start" x="16.7871" y="-139" font-family="Helvetica,sans-Serif" font-size="10.00">+ load()</text>
<text text-anchor="start" x="16.7871" y="-129" font-family="Helvetica,sans-Serif" font-size="10.00">+ save()</text>
<text text-anchor="start" x="16.7871" y="-119" font-family="Helvetica,sans-Serif" font-size="10.00">+ copy()</text>
</a>
</g>
</g>
<!-- Node2&#45;&gt;Node1 -->
<g id="edge1" class="edge"><title>Node2&#45;&gt;Node1</title>
<path fill="none" stroke="midnightblue" d="M65,-102.601C65,-93.1556 65,-83.6763 65,-75.0268"/>
<polygon fill="none" stroke="midnightblue" points="61.5001,-102.797 65,-112.797 68.5001,-102.797 61.5001,-102.797"/>
</g>
<!-- Node3 -->
<g id="node3" class="node"><title>Node3</title>
<g id="a_node3"><a xlink:href="class_edit.html" target="_top" xlink:title="Edit Element. ">
<polygon fill="none" stroke="black" points="12.3931,-255 12.3931,-389 117.607,-389 117.607,-255 12.3931,-255"/>
<text text-anchor="middle" x="65" y="-377" font-family="Helvetica,sans-Serif" font-size="10.00">Edit</text>
<polyline fill="none" stroke="black" points="12.3931,-371 117.607,-371 "/>
<text text-anchor="middle" x="65" y="-359" font-family="Helvetica,sans-Serif" font-size="10.00"> </text>
<polyline fill="none" stroke="black" points="12.3931,-353 117.607,-353 "/>
<text text-anchor="start" x="20.3931" y="-341" font-family="Helvetica,sans-Serif" font-size="10.00">+ Edit()</text>
<text text-anchor="start" x="20.3931" y="-331" font-family="Helvetica,sans-Serif" font-size="10.00">+ event_handler()</text>
<text text-anchor="start" x="20.3931" y="-321" font-family="Helvetica,sans-Serif" font-size="10.00">+ draw()</text>
<text text-anchor="start" x="20.3931" y="-311" font-family="Helvetica,sans-Serif" font-size="10.00">+ draw_on_bitmap()</text>
<text text-anchor="start" x="20.3931" y="-301" font-family="Helvetica,sans-Serif" font-size="10.00"># increment()</text>
<text text-anchor="start" x="20.3931" y="-291" font-family="Helvetica,sans-Serif" font-size="10.00"># decrement()</text>
<text text-anchor="start" x="20.3931" y="-281" font-family="Helvetica,sans-Serif" font-size="10.00"># load()</text>
<text text-anchor="start" x="20.3931" y="-271" font-family="Helvetica,sans-Serif" font-size="10.00"># save()</text>
<text text-anchor="start" x="20.3931" y="-261" font-family="Helvetica,sans-Serif" font-size="10.00"># copy()</text>
</a>
</g>
</g>
<!-- Node3&#45;&gt;Node2 -->
<g id="edge2" class="edge"><title>Node3&#45;&gt;Node2</title>
<path fill="none" stroke="midnightblue" d="M65,-244.79C65,-235.518 65,-226.221 65,-217.431"/>
<polygon fill="none" stroke="midnightblue" points="61.5001,-244.816 65,-254.816 68.5001,-244.816 61.5001,-244.816"/>
</g>
<!-- Node4 -->
<g id="node4" class="node"><title>Node4</title>
<g id="a_node4"><a xlink:href="class_element.html" target="_top" xlink:title="Element Class. ">
<polygon fill="none" stroke="black" points="12.5273,-427 12.5273,-671 117.473,-671 117.473,-427 12.5273,-427"/>
<text text-anchor="middle" x="65" y="-659" font-family="Helvetica,sans-Serif" font-size="10.00">Element</text>
<polyline fill="none" stroke="black" points="12.5273,-653 117.473,-653 "/>
<text text-anchor="start" x="20.5273" y="-641" font-family="Helvetica,sans-Serif" font-size="10.00"># flags</text>
<polyline fill="none" stroke="black" points="12.5273,-635 117.473,-635 "/>
<text text-anchor="start" x="20.5273" y="-623" font-family="Helvetica,sans-Serif" font-size="10.00">+ Element()</text>
<text text-anchor="start" x="20.5273" y="-613" font-family="Helvetica,sans-Serif" font-size="10.00">+ Element()</text>
<text text-anchor="start" x="20.5273" y="-603" font-family="Helvetica,sans-Serif" font-size="10.00">+ Element()</text>
<text text-anchor="start" x="20.5273" y="-593" font-family="Helvetica,sans-Serif" font-size="10.00">+ parent()</text>
<text text-anchor="start" x="20.5273" y="-583" font-family="Helvetica,sans-Serif" font-size="10.00">+ set_parent()</text>
<text text-anchor="start" x="20.5273" y="-573" font-family="Helvetica,sans-Serif" font-size="10.00">+ child()</text>
<text text-anchor="start" x="20.5273" y="-563" font-family="Helvetica,sans-Serif" font-size="10.00">+ set_child()</text>
<text text-anchor="start" x="20.5273" y="-553" font-family="Helvetica,sans-Serif" font-size="10.00">+ draw()</text>
<text text-anchor="start" x="20.5273" y="-543" font-family="Helvetica,sans-Serif" font-size="10.00">+ draw()</text>
<text text-anchor="start" x="20.5273" y="-533" font-family="Helvetica,sans-Serif" font-size="10.00">+ draw()</text>
<text text-anchor="start" x="20.5273" y="-523" font-family="Helvetica,sans-Serif" font-size="10.00">and 41 more...</text>
<text text-anchor="start" x="20.5273" y="-513" font-family="Helvetica,sans-Serif" font-size="10.00">+ dim_on_bitmap()</text>
<text text-anchor="start" x="20.5273" y="-503" font-family="Helvetica,sans-Serif" font-size="10.00">+ center()</text>
<text text-anchor="start" x="20.5273" y="-493" font-family="Helvetica,sans-Serif" font-size="10.00">+ scale()</text>
<text text-anchor="start" x="20.5273" y="-483" font-family="Helvetica,sans-Serif" font-size="10.00">+ set_scale()</text>
<text text-anchor="start" x="20.5273" y="-473" font-family="Helvetica,sans-Serif" font-size="10.00"># draw_scroll()</text>
<text text-anchor="start" x="20.5273" y="-463" font-family="Helvetica,sans-Serif" font-size="10.00"># dim_on_bitmap()</text>
<text text-anchor="start" x="20.5273" y="-453" font-family="Helvetica,sans-Serif" font-size="10.00"># point_on_bitmap()</text>
<text text-anchor="start" x="20.5273" y="-443" font-family="Helvetica,sans-Serif" font-size="10.00"># adjust_x_center()</text>
<text text-anchor="start" x="20.5273" y="-433" font-family="Helvetica,sans-Serif" font-size="10.00"># pixel_padding()</text>
</a>
</g>
</g>
<!-- Node4&#45;&gt;Node3 -->
<g id="edge3" class="edge"><title>Node4&#45;&gt;Node3</title>
<path fill="none" stroke="midnightblue" d="M65,-416.924C65,-407.368 65,-397.995 65,-389.093"/>
<polygon fill="none" stroke="midnightblue" points="61.5001,-416.938 65,-426.938 68.5001,-416.938 61.5001,-416.938"/>
</g>
</g>
</svg>
