<?xml version="1.0" encoding="UTF-8" standalone="no"?>
<!DOCTYPE svg PUBLIC "-//W3C//DTD SVG 1.1//EN"
 "http://www.w3.org/Graphics/SVG/1.1/DTD/svg11.dtd">
<!-- Generated by graphviz version 2.36.0 (20140111.2315)
 -->
<!-- Title: ListItem Pages: 1 -->
<svg width="459pt" height="648pt"
 viewBox="0.00 0.00 459.00 648.00" xmlns="http://www.w3.org/2000/svg" xmlns:xlink="http://www.w3.org/1999/xlink">
<g id="graph0" class="graph" transform="scale(1 1) rotate(0) translate(4 644)">
<title>ListItem</title>
<!-- Node1 -->
<g id="node1" class="node"><title>Node1</title>
<polygon fill="#bfbfbf" stroke="black" points="175.393,-153 175.393,-357 280.607,-357 280.607,-153 175.393,-153"/>
<text text-anchor="middle" x="228" y="-345" font-family="Helvetica,sans-Serif" font-size="10.00">ListItem</text>
<polyline fill="none" stroke="black" points="175.393,-339 280.607,-339 "/>
<text text-anchor="middle" x="228" y="-327" font-family="Helvetica,sans-Serif" font-size="10.00"> </text>
<polyline fill="none" stroke="black" points="175.393,-321 280.607,-321 "/>
<text text-anchor="start" x="183.393" y="-309" font-family="Helvetica,sans-Serif" font-size="10.00">+ ListItem()</text>
<text text-anchor="start" x="183.393" y="-299" font-family="Helvetica,sans-Serif" font-size="10.00">+ ListItem()</text>
<text text-anchor="start" x="183.393" y="-289" font-family="Helvetica,sans-Serif" font-size="10.00">+ ListItem()</text>
<text text-anchor="start" x="183.393" y="-279" font-family="Helvetica,sans-Serif" font-size="10.00">+ ListItem()</text>
<text text-anchor="start" x="183.393" y="-269" font-family="Helvetica,sans-Serif" font-size="10.00">+ ListItem()</text>
<text text-anchor="start" x="183.393" y="-259" font-family="Helvetica,sans-Serif" font-size="10.00">+ ListItem()</text>
<text text-anchor="start" x="183.393" y="-249" font-family="Helvetica,sans-Serif" font-size="10.00">+ set_app_icon()</text>
<text text-anchor="start" x="183.393" y="-239" font-family="Helvetica,sans-Serif" font-size="10.00">+ set_sys_icon()</text>
<text text-anchor="start" x="183.393" y="-229" font-family="Helvetica,sans-Serif" font-size="10.00">+ set_sys_gfx()</text>
<text text-anchor="start" x="183.393" y="-219" font-family="Helvetica,sans-Serif" font-size="10.00">+ load_icon()</text>
<text text-anchor="start" x="183.393" y="-209" font-family="Helvetica,sans-Serif" font-size="10.00">+ set_thickness()</text>
<text text-anchor="start" x="183.393" y="-199" font-family="Helvetica,sans-Serif" font-size="10.00">+ set_rotation()</text>
<text text-anchor="start" x="183.393" y="-189" font-family="Helvetica,sans-Serif" font-size="10.00">+ label()</text>
<text text-anchor="start" x="183.393" y="-179" font-family="Helvetica,sans-Serif" font-size="10.00">+ set_label()</text>
<text text-anchor="start" x="183.393" y="-169" font-family="Helvetica,sans-Serif" font-size="10.00">+ draw_on_bitmap()</text>
<text text-anchor="start" x="183.393" y="-159" font-family="Helvetica,sans-Serif" font-size="10.00"># gfx()</text>
</g>
<!-- Node3 -->
<g id="node3" class="node"><title>Node3</title>
<g id="a_node3"><a xlink:href="class_list_item_callback.html" target="_top" xlink:title="List Item Callback Class. ">
<polygon fill="none" stroke="black" points="-0.318848,-16 -0.318848,-100 104.319,-100 104.319,-16 -0.318848,-16"/>
<text text-anchor="middle" x="52" y="-88" font-family="Helvetica,sans-Serif" font-size="10.00">ListItemCallback</text>
<polyline fill="none" stroke="black" points="-0.318848,-82 104.319,-82 "/>
<text text-anchor="middle" x="52" y="-70" font-family="Helvetica,sans-Serif" font-size="10.00"> </text>
<polyline fill="none" stroke="black" points="-0.318848,-64 104.319,-64 "/>
<text text-anchor="start" x="7.68115" y="-52" font-family="Helvetica,sans-Serif" font-size="10.00">+ ListItemCallback()</text>
<text text-anchor="start" x="7.68115" y="-42" font-family="Helvetica,sans-Serif" font-size="10.00">+ ListItemCallback()</text>
<text text-anchor="start" x="7.68115" y="-32" font-family="Helvetica,sans-Serif" font-size="10.00">+ ListItemCallback()</text>
<text text-anchor="start" x="7.68115" y="-22" font-family="Helvetica,sans-Serif" font-size="10.00">+ event_handler()</text>
</a>
</g>
</g>
<!-- Node1&#45;&gt;Node3 -->
<g id="edge2" class="edge"><title>Node1&#45;&gt;Node3</title>
<path fill="none" stroke="midnightblue" d="M168.262,-187.813C142.038,-158.758 112.069,-125.554 89.1268,-100.135"/>
<polygon fill="none" stroke="midnightblue" points="165.896,-190.415 175.194,-195.494 171.092,-185.725 165.896,-190.415"/>
</g>
<!-- Node4 -->
<g id="node4" class="node"><title>Node4</title>
<g id="a_node4"><a xlink:href="class_list_item_check.html" target="_top" xlink:title="List Item Check (for use in a checklist) ">
<polygon fill="none" stroke="black" points="122.669,-16 122.669,-100 217.331,-100 217.331,-16 122.669,-16"/>
<text text-anchor="middle" x="170" y="-88" font-family="Helvetica,sans-Serif" font-size="10.00">ListItemCheck</text>
<polyline fill="none" stroke="black" points="122.669,-82 217.331,-82 "/>
<text text-anchor="middle" x="170" y="-70" font-family="Helvetica,sans-Serif" font-size="10.00"> </text>
<polyline fill="none" stroke="black" points="122.669,-64 217.331,-64 "/>
<text text-anchor="start" x="130.669" y="-52" font-family="Helvetica,sans-Serif" font-size="10.00">+ ListItemCheck()</text>
<text text-anchor="start" x="130.669" y="-42" font-family="Helvetica,sans-Serif" font-size="10.00">+ ListItemCheck()</text>
<text text-anchor="start" x="130.669" y="-32" font-family="Helvetica,sans-Serif" font-size="10.00">+ set_enabled()</text>
<text text-anchor="start" x="130.669" y="-22" font-family="Helvetica,sans-Serif" font-size="10.00">+ event_handler()</text>
</a>
</g>
</g>
<!-- Node1&#45;&gt;Node4 -->
<g id="edge3" class="edge"><title>Node1&#45;&gt;Node4</title>
<path fill="none" stroke="midnightblue" d="M194.932,-142.822C190.443,-127.732 186.087,-113.087 182.306,-100.373"/>
<polygon fill="none" stroke="midnightblue" points="191.69,-144.2 197.896,-152.787 198.4,-142.205 191.69,-144.2"/>
</g>
<!-- Node5 -->
<g id="node5" class="node"><title>Node5</title>
<g id="a_node5"><a xlink:href="class_list_item_element.html" target="_top" xlink:title="List Item Element Class. ">
<polygon fill="none" stroke="black" points="235.514,-1 235.514,-115 338.486,-115 338.486,-1 235.514,-1"/>
<text text-anchor="middle" x="287" y="-103" font-family="Helvetica,sans-Serif" font-size="10.00">ListItemElement</text>
<polyline fill="none" stroke="black" points="235.514,-97 338.486,-97 "/>
<text text-anchor="middle" x="287" y="-85" font-family="Helvetica,sans-Serif" font-size="10.00"> </text>
<polyline fill="none" stroke="black" points="235.514,-79 338.486,-79 "/>
<text text-anchor="start" x="243.514" y="-67" font-family="Helvetica,sans-Serif" font-size="10.00">+ ListItemElement()</text>
<text text-anchor="start" x="243.514" y="-57" font-family="Helvetica,sans-Serif" font-size="10.00">+ ListItemElement()</text>
<text text-anchor="start" x="243.514" y="-47" font-family="Helvetica,sans-Serif" font-size="10.00">+ ListItemElement()</text>
<text text-anchor="start" x="243.514" y="-37" font-family="Helvetica,sans-Serif" font-size="10.00">+ ListItemElement()</text>
<text text-anchor="start" x="243.514" y="-27" font-family="Helvetica,sans-Serif" font-size="10.00">+ set_target()</text>
<text text-anchor="start" x="243.514" y="-17" font-family="Helvetica,sans-Serif" font-size="10.00">+ target()</text>
<text text-anchor="start" x="243.514" y="-7" font-family="Helvetica,sans-Serif" font-size="10.00">+ event_handler()</text>
</a>
</g>
</g>
<!-- Node1&#45;&gt;Node5 -->
<g id="edge4" class="edge"><title>Node1&#45;&gt;Node5</title>
<path fill="none" stroke="midnightblue" d="M261.56,-143.081C264.483,-133.42 267.352,-123.938 270.049,-115.024"/>
<polygon fill="none" stroke="midnightblue" points="258.169,-142.202 258.623,-152.787 264.869,-144.23 258.169,-142.202"/>
</g>
<!-- Node6 -->
<g id="node6" class="node"><title>Node6</title>
<g id="a_node6"><a xlink:href="class_list_item_toggle.html" target="_top" xlink:title="Toggle Item. ">
<polygon fill="none" stroke="black" points="356.122,-21 356.122,-95 451.878,-95 451.878,-21 356.122,-21"/>
<text text-anchor="middle" x="404" y="-83" font-family="Helvetica,sans-Serif" font-size="10.00">ListItemToggle</text>
<polyline fill="none" stroke="black" points="356.122,-77 451.878,-77 "/>
<text text-anchor="middle" x="404" y="-65" font-family="Helvetica,sans-Serif" font-size="10.00"> </text>
<polyline fill="none" stroke="black" points="356.122,-59 451.878,-59 "/>
<text text-anchor="start" x="364.122" y="-47" font-family="Helvetica,sans-Serif" font-size="10.00">+ ListItemToggle()</text>
<text text-anchor="start" x="364.122" y="-37" font-family="Helvetica,sans-Serif" font-size="10.00">+ event_handler()</text>
<text text-anchor="start" x="364.122" y="-27" font-family="Helvetica,sans-Serif" font-size="10.00">+ set_enabled()</text>
</a>
</g>
</g>
<!-- Node1&#45;&gt;Node6 -->
<g id="edge5" class="edge"><title>Node1&#45;&gt;Node6</title>
<path fill="none" stroke="midnightblue" d="M287.819,-187.723C315.796,-156.726 348.021,-121.022 371.426,-95.0911"/>
<polygon fill="none" stroke="midnightblue" points="284.908,-185.725 280.806,-195.494 290.104,-190.415 284.908,-185.725"/>
</g>
<!-- Node2 -->
<g id="node2" class="node"><title>Node2</title>
<g id="a_node2"><a xlink:href="class_element.html" target="_top" xlink:title="Element Class. ">
<polygon fill="none" stroke="black" points="175.527,-395 175.527,-639 280.473,-639 280.473,-395 175.527,-395"/>
<text text-anchor="middle" x="228" y="-627" font-family="Helvetica,sans-Serif" font-size="10.00">Element</text>
<polyline fill="none" stroke="black" points="175.527,-621 280.473,-621 "/>
<text text-anchor="start" x="183.527" y="-609" font-family="Helvetica,sans-Serif" font-size="10.00"># flags</text>
<polyline fill="none" stroke="black" points="175.527,-603 280.473,-603 "/>
<text text-anchor="start" x="183.527" y="-591" font-family="Helvetica,sans-Serif" font-size="10.00">+ Element()</text>
<text text-anchor="start" x="183.527" y="-581" font-family="Helvetica,sans-Serif" font-size="10.00">+ Element()</text>
<text text-anchor="start" x="183.527" y="-571" font-family="Helvetica,sans-Serif" font-size="10.00">+ Element()</text>
<text text-anchor="start" x="183.527" y="-561" font-family="Helvetica,sans-Serif" font-size="10.00">+ parent()</text>
<text text-anchor="start" x="183.527" y="-551" font-family="Helvetica,sans-Serif" font-size="10.00">+ set_parent()</text>
<text text-anchor="start" x="183.527" y="-541" font-family="Helvetica,sans-Serif" font-size="10.00">+ child()</text>
<text text-anchor="start" x="183.527" y="-531" font-family="Helvetica,sans-Serif" font-size="10.00">+ set_child()</text>
<text text-anchor="start" x="183.527" y="-521" font-family="Helvetica,sans-Serif" font-size="10.00">+ draw()</text>
<text text-anchor="start" x="183.527" y="-511" font-family="Helvetica,sans-Serif" font-size="10.00">+ draw()</text>
<text text-anchor="start" x="183.527" y="-501" font-family="Helvetica,sans-Serif" font-size="10.00">+ draw()</text>
<text text-anchor="start" x="183.527" y="-491" font-family="Helvetica,sans-Serif" font-size="10.00">and 41 more...</text>
<text text-anchor="start" x="183.527" y="-481" font-family="Helvetica,sans-Serif" font-size="10.00">+ dim_on_bitmap()</text>
<text text-anchor="start" x="183.527" y="-471" font-family="Helvetica,sans-Serif" font-size="10.00">+ center()</text>
<text text-anchor="start" x="183.527" y="-461" font-family="Helvetica,sans-Serif" font-size="10.00">+ scale()</text>
<text text-anchor="start" x="183.527" y="-451" font-family="Helvetica,sans-Serif" font-size="10.00">+ set_scale()</text>
<text text-anchor="start" x="183.527" y="-441" font-family="Helvetica,sans-Serif" font-size="10.00"># draw_scroll()</text>
<text text-anchor="start" x="183.527" y="-431" font-family="Helvetica,sans-Serif" font-size="10.00"># dim_on_bitmap()</text>
<text text-anchor="start" x="183.527" y="-421" font-family="Helvetica,sans-Serif" font-size="10.00"># point_on_bitmap()</text>
<text text-anchor="start" x="183.527" y="-411" font-family="Helvetica,sans-Serif" font-size="10.00"># adjust_x_center()</text>
<text text-anchor="start" x="183.527" y="-401" font-family="Helvetica,sans-Serif" font-size="10.00"># pixel_padding()</text>
</a>
</g>
</g>
<!-- Node2&#45;&gt;Node1 -->
<g id="edge1" class="edge"><title>Node2&#45;&gt;Node1</title>
<path fill="none" stroke="midnightblue" d="M228,-384.717C228,-375.463 228,-366.217 228,-357.168"/>
<polygon fill="none" stroke="midnightblue" points="224.5,-384.754 228,-394.754 231.5,-384.754 224.5,-384.754"/>
</g>
</g>
</svg>
