<?xml version="1.0" encoding="UTF-8" standalone="no"?>
<!DOCTYPE svg PUBLIC "-//W3C//DTD SVG 1.1//EN"
 "http://www.w3.org/Graphics/SVG/1.1/DTD/svg11.dtd">
<!-- Generated by graphviz version 2.36.0 (20140111.2315)
 -->
<!-- Title: Graph::Object Pages: 1 -->
<svg width="177pt" height="528pt"
 viewBox="0.00 0.00 177.00 528.00" xmlns="http://www.w3.org/2000/svg" xmlns:xlink="http://www.w3.org/1999/xlink">
<g id="graph0" class="graph" transform="scale(1 1) rotate(0) translate(4 524)">
<title>Graph::Object</title>
<!-- Node1 -->
<g id="node1" class="node"><title>Node1</title>
<polygon fill="#bfbfbf" stroke="black" points="31.5273,-93 31.5273,-197 136.473,-197 136.473,-93 31.5273,-93"/>
<text text-anchor="middle" x="84" y="-185" font-family="Helvetica,sans-Serif" font-size="10.00">Graph::Object</text>
<polyline fill="none" stroke="black" points="31.5273,-179 136.473,-179 "/>
<text text-anchor="middle" x="84" y="-167" font-family="Helvetica,sans-Serif" font-size="10.00"> </text>
<polyline fill="none" stroke="black" points="31.5273,-161 136.473,-161 "/>
<text text-anchor="start" x="39.5273" y="-149" font-family="Helvetica,sans-Serif" font-size="10.00">+ Object()</text>
<text text-anchor="start" x="39.5273" y="-139" font-family="Helvetica,sans-Serif" font-size="10.00">+ x_axis()</text>
<text text-anchor="start" x="39.5273" y="-129" font-family="Helvetica,sans-Serif" font-size="10.00">+ y_axis()</text>
<text text-anchor="start" x="39.5273" y="-119" font-family="Helvetica,sans-Serif" font-size="10.00">+ x_data()</text>
<text text-anchor="start" x="39.5273" y="-109" font-family="Helvetica,sans-Serif" font-size="10.00">+ y_data()</text>
<text text-anchor="start" x="39.5273" y="-99" font-family="Helvetica,sans-Serif" font-size="10.00"># point_on_bitmap()</text>
</g>
<!-- Node3 -->
<g id="node3" class="node"><title>Node3</title>
<g id="a_node3"><a xlink:href="class_graph_bar.html" target="_top" xlink:title="Bar Graph Element. ">
<polygon fill="none" stroke="black" points="-0.316406,-1 -0.316406,-55 74.3164,-55 74.3164,-1 -0.316406,-1"/>
<text text-anchor="middle" x="37" y="-43" font-family="Helvetica,sans-Serif" font-size="10.00">GraphBar</text>
<polyline fill="none" stroke="black" points="-0.316406,-37 74.3164,-37 "/>
<text text-anchor="middle" x="37" y="-25" font-family="Helvetica,sans-Serif" font-size="10.00"> </text>
<polyline fill="none" stroke="black" points="-0.316406,-19 74.3164,-19 "/>
<text text-anchor="start" x="7.68359" y="-7" font-family="Helvetica,sans-Serif" font-size="10.00">+ GraphBar()</text>
</a>
</g>
</g>
<!-- Node1&#45;&gt;Node3 -->
<g id="edge2" class="edge"><title>Node1&#45;&gt;Node3</title>
<path fill="none" stroke="midnightblue" d="M59.2121,-83.3487C55.1448,-73.3969 51.1292,-63.5715 47.6545,-55.0695"/>
<polygon fill="none" stroke="midnightblue" points="56.0883,-84.957 63.1114,-92.8896 62.568,-82.3087 56.0883,-84.957"/>
</g>
<!-- Node4 -->
<g id="node4" class="node"><title>Node4</title>
<g id="a_node4"><a xlink:href="class_graph_line.html" target="_top" xlink:title="Line Graph Element. ">
<polygon fill="none" stroke="black" points="92.0112,-1 92.0112,-55 169.989,-55 169.989,-1 92.0112,-1"/>
<text text-anchor="middle" x="131" y="-43" font-family="Helvetica,sans-Serif" font-size="10.00">GraphLine</text>
<polyline fill="none" stroke="black" points="92.0112,-37 169.989,-37 "/>
<text text-anchor="middle" x="131" y="-25" font-family="Helvetica,sans-Serif" font-size="10.00"> </text>
<polyline fill="none" stroke="black" points="92.0112,-19 169.989,-19 "/>
<text text-anchor="start" x="100.011" y="-7" font-family="Helvetica,sans-Serif" font-size="10.00">+ GraphLine()</text>
</a>
</g>
</g>
<!-- Node1&#45;&gt;Node4 -->
<g id="edge3" class="edge"><title>Node1&#45;&gt;Node4</title>
<path fill="none" stroke="midnightblue" d="M108.788,-83.3487C112.855,-73.3969 116.871,-63.5715 120.346,-55.0695"/>
<polygon fill="none" stroke="midnightblue" points="105.432,-82.3087 104.889,-92.8896 111.912,-84.957 105.432,-82.3087"/>
</g>
<!-- Node2 -->
<g id="node2" class="node"><title>Node2</title>
<g id="a_node2"><a xlink:href="class_element.html" target="_top" xlink:title="Element Class. ">
<polygon fill="none" stroke="black" points="30.9756,-235 30.9756,-519 137.024,-519 137.024,-235 30.9756,-235"/>
<text text-anchor="middle" x="84" y="-507" font-family="Helvetica,sans-Serif" font-size="10.00">Element</text>
<polyline fill="none" stroke="black" points="30.9756,-501 137.024,-501 "/>
<text text-anchor="middle" x="84" y="-489" font-family="Helvetica,sans-Serif" font-size="10.00"> </text>
<polyline fill="none" stroke="black" points="30.9756,-483 137.024,-483 "/>
<text text-anchor="start" x="38.9756" y="-471" font-family="Helvetica,sans-Serif" font-size="10.00">+ Element()</text>
<text text-anchor="start" x="38.9756" y="-461" font-family="Helvetica,sans-Serif" font-size="10.00">+ Element()</text>
<text text-anchor="start" x="38.9756" y="-451" font-family="Helvetica,sans-Serif" font-size="10.00">+ Element()</text>
<text text-anchor="start" x="38.9756" y="-441" font-family="Helvetica,sans-Serif" font-size="10.00">+ parent()</text>
<text text-anchor="start" x="38.9756" y="-431" font-family="Helvetica,sans-Serif" font-size="10.00">+ set_parent()</text>
<text text-anchor="start" x="38.9756" y="-421" font-family="Helvetica,sans-Serif" font-size="10.00">+ child()</text>
<text text-anchor="start" x="38.9756" y="-411" font-family="Helvetica,sans-Serif" font-size="10.00">+ set_child()</text>
<text text-anchor="start" x="38.9756" y="-401" font-family="Helvetica,sans-Serif" font-size="10.00">+ draw()</text>
<text text-anchor="start" x="38.9756" y="-391" font-family="Helvetica,sans-Serif" font-size="10.00">+ draw()</text>
<text text-anchor="start" x="38.9756" y="-381" font-family="Helvetica,sans-Serif" font-size="10.00">+ set_dim()</text>
<text text-anchor="start" x="38.9756" y="-371" font-family="Helvetica,sans-Serif" font-size="10.00">and 36 more...</text>
<text text-anchor="start" x="38.9756" y="-361" font-family="Helvetica,sans-Serif" font-size="10.00">+ dim_on_bitmap()</text>
<text text-anchor="start" x="38.9756" y="-351" font-family="Helvetica,sans-Serif" font-size="10.00">+ center()</text>
<text text-anchor="start" x="38.9756" y="-341" font-family="Helvetica,sans-Serif" font-size="10.00">+ scale()</text>
<text text-anchor="start" x="38.9756" y="-331" font-family="Helvetica,sans-Serif" font-size="10.00">+ set_scale()</text>
<text text-anchor="start" x="38.9756" y="-321" font-family="Helvetica,sans-Serif" font-size="10.00">+ set_screen()</text>
<text text-anchor="start" x="38.9756" y="-311" font-family="Helvetica,sans-Serif" font-size="10.00">+ screen()</text>
<text text-anchor="start" x="38.9756" y="-301" font-family="Helvetica,sans-Serif" font-size="10.00"># draw_scroll()</text>
<text text-anchor="start" x="38.9756" y="-291" font-family="Helvetica,sans-Serif" font-size="10.00"># dim_on_bitmap()</text>
<text text-anchor="start" x="38.9756" y="-281" font-family="Helvetica,sans-Serif" font-size="10.00"># point_on_bitmap()</text>
<text text-anchor="start" x="38.9756" y="-271" font-family="Helvetica,sans-Serif" font-size="10.00"># adjust_x_center()</text>
<text text-anchor="start" x="38.9756" y="-261" font-family="Helvetica,sans-Serif" font-size="10.00"># flag()</text>
<text text-anchor="start" x="38.9756" y="-251" font-family="Helvetica,sans-Serif" font-size="10.00"># set_flag()</text>
<text text-anchor="start" x="38.9756" y="-241" font-family="Helvetica,sans-Serif" font-size="10.00"># clear_align_flags()</text>
</a>
</g>
</g>
<!-- Node2&#45;&gt;Node1 -->
<g id="edge1" class="edge"><title>Node2&#45;&gt;Node1</title>
<path fill="none" stroke="midnightblue" d="M84,-224.68C84,-214.971 84,-205.647 84,-197.027"/>
<polygon fill="none" stroke="midnightblue" points="80.5001,-224.924 84,-234.924 87.5001,-224.924 80.5001,-224.924"/>
</g>
</g>
</svg>
