<?xml version="1.0" encoding="UTF-8" standalone="no"?>
<!DOCTYPE svg PUBLIC "-//W3C//DTD SVG 1.1//EN"
 "http://www.w3.org/Graphics/SVG/1.1/DTD/svg11.dtd">
<!-- Generated by graphviz version 2.36.0 (20140111.2315)
 -->
<!-- Title: Progress Pages: 1 -->
<svg width="331pt" height="568pt"
 viewBox="0.00 0.00 331.00 568.00" xmlns="http://www.w3.org/2000/svg" xmlns:xlink="http://www.w3.org/1999/xlink">
<g id="graph0" class="graph" transform="scale(1 1) rotate(0) translate(4 564)">
<title>Progress</title>
<!-- Node1 -->
<g id="node1" class="node"><title>Node1</title>
<polygon fill="#bfbfbf" stroke="black" points="123.957,-113 123.957,-237 198.043,-237 198.043,-113 123.957,-113"/>
<text text-anchor="middle" x="161" y="-225" font-family="Helvetica,sans-Serif" font-size="10.00">Progress</text>
<polyline fill="none" stroke="black" points="123.957,-219 198.043,-219 "/>
<text text-anchor="start" x="131.957" y="-207" font-family="Helvetica,sans-Serif" font-size="10.00"># _value</text>
<text text-anchor="start" x="131.957" y="-197" font-family="Helvetica,sans-Serif" font-size="10.00"># _max</text>
<polyline fill="none" stroke="black" points="123.957,-191 198.043,-191 "/>
<text text-anchor="start" x="131.957" y="-179" font-family="Helvetica,sans-Serif" font-size="10.00">+ Progress()</text>
<text text-anchor="start" x="131.957" y="-169" font-family="Helvetica,sans-Serif" font-size="10.00">+ Progress()</text>
<text text-anchor="start" x="131.957" y="-159" font-family="Helvetica,sans-Serif" font-size="10.00">+ value()</text>
<text text-anchor="start" x="131.957" y="-149" font-family="Helvetica,sans-Serif" font-size="10.00">+ max()</text>
<text text-anchor="start" x="131.957" y="-139" font-family="Helvetica,sans-Serif" font-size="10.00">+ set_value()</text>
<text text-anchor="start" x="131.957" y="-129" font-family="Helvetica,sans-Serif" font-size="10.00">+ set_max()</text>
<text text-anchor="start" x="131.957" y="-119" font-family="Helvetica,sans-Serif" font-size="10.00">+ set()</text>
</g>
<!-- Node3 -->
<g id="node3" class="node"><title>Node3</title>
<g id="a_node3"><a xlink:href="class_progress_arc.html" target="_top" xlink:title="Progress Arc Class. ">
<polygon fill="none" stroke="black" points="-0.880371,-1 -0.880371,-75 94.8804,-75 94.8804,-1 -0.880371,-1"/>
<text text-anchor="middle" x="47" y="-63" font-family="Helvetica,sans-Serif" font-size="10.00">ProgressArc</text>
<polyline fill="none" stroke="black" points="-0.880371,-57 94.8804,-57 "/>
<text text-anchor="middle" x="47" y="-45" font-family="Helvetica,sans-Serif" font-size="10.00"> </text>
<polyline fill="none" stroke="black" points="-0.880371,-39 94.8804,-39 "/>
<text text-anchor="start" x="7.11963" y="-27" font-family="Helvetica,sans-Serif" font-size="10.00">+ ProgressArc()</text>
<text text-anchor="start" x="7.11963" y="-17" font-family="Helvetica,sans-Serif" font-size="10.00">+ ProgressArc()</text>
<text text-anchor="start" x="7.11963" y="-7" font-family="Helvetica,sans-Serif" font-size="10.00">+ draw_to_scale()</text>
</a>
</g>
</g>
<!-- Node1&#45;&gt;Node3 -->
<g id="edge2" class="edge"><title>Node1&#45;&gt;Node3</title>
<path fill="none" stroke="midnightblue" d="M116.901,-121.778C103.755,-106.21 89.6424,-89.4975 77.564,-75.1942"/>
<polygon fill="none" stroke="midnightblue" points="114.546,-124.414 123.672,-129.796 119.894,-119.897 114.546,-124.414"/>
</g>
<!-- Node4 -->
<g id="node4" class="node"><title>Node4</title>
<g id="a_node4"><a xlink:href="class_progress_bar.html" target="_top" xlink:title="Progress Bar Class. ">
<polygon fill="none" stroke="black" points="113.12,-1 113.12,-75 208.88,-75 208.88,-1 113.12,-1"/>
<text text-anchor="middle" x="161" y="-63" font-family="Helvetica,sans-Serif" font-size="10.00">ProgressBar</text>
<polyline fill="none" stroke="black" points="113.12,-57 208.88,-57 "/>
<text text-anchor="middle" x="161" y="-45" font-family="Helvetica,sans-Serif" font-size="10.00"> </text>
<polyline fill="none" stroke="black" points="113.12,-39 208.88,-39 "/>
<text text-anchor="start" x="121.12" y="-27" font-family="Helvetica,sans-Serif" font-size="10.00">+ ProgressBar()</text>
<text text-anchor="start" x="121.12" y="-17" font-family="Helvetica,sans-Serif" font-size="10.00">+ ProgressBar()</text>
<text text-anchor="start" x="121.12" y="-7" font-family="Helvetica,sans-Serif" font-size="10.00">+ draw_to_scale()</text>
</a>
</g>
</g>
<!-- Node1&#45;&gt;Node4 -->
<g id="edge3" class="edge"><title>Node1&#45;&gt;Node4</title>
<path fill="none" stroke="midnightblue" d="M161,-102.561C161,-93.1113 161,-83.7651 161,-75.2663"/>
<polygon fill="none" stroke="midnightblue" points="157.5,-102.82 161,-112.82 164.5,-102.82 157.5,-102.82"/>
</g>
<!-- Node5 -->
<g id="node5" class="node"><title>Node5</title>
<g id="a_node5"><a xlink:href="class_progress_circle.html" target="_top" xlink:title="Progress Circle Class. ">
<polygon fill="none" stroke="black" points="226.575,-6 226.575,-70 323.425,-70 323.425,-6 226.575,-6"/>
<text text-anchor="middle" x="275" y="-58" font-family="Helvetica,sans-Serif" font-size="10.00">ProgressCircle</text>
<polyline fill="none" stroke="black" points="226.575,-52 323.425,-52 "/>
<text text-anchor="middle" x="275" y="-40" font-family="Helvetica,sans-Serif" font-size="10.00"> </text>
<polyline fill="none" stroke="black" points="226.575,-34 323.425,-34 "/>
<text text-anchor="start" x="234.575" y="-22" font-family="Helvetica,sans-Serif" font-size="10.00">+ ProgressCircle()</text>
<text text-anchor="start" x="234.575" y="-12" font-family="Helvetica,sans-Serif" font-size="10.00">+ ProgressCircle()</text>
</a>
</g>
</g>
<!-- Node1&#45;&gt;Node5 -->
<g id="edge4" class="edge"><title>Node1&#45;&gt;Node5</title>
<path fill="none" stroke="midnightblue" d="M205.017,-121.875C219.797,-104.372 235.807,-85.4129 248.779,-70.0511"/>
<polygon fill="none" stroke="midnightblue" points="202.106,-119.897 198.328,-129.796 207.454,-124.414 202.106,-119.897"/>
</g>
<!-- Node2 -->
<g id="node2" class="node"><title>Node2</title>
<g id="a_node2"><a xlink:href="class_element.html" target="_top" xlink:title="Element Class. ">
<polygon fill="none" stroke="black" points="107.976,-275 107.976,-559 214.024,-559 214.024,-275 107.976,-275"/>
<text text-anchor="middle" x="161" y="-547" font-family="Helvetica,sans-Serif" font-size="10.00">Element</text>
<polyline fill="none" stroke="black" points="107.976,-541 214.024,-541 "/>
<text text-anchor="middle" x="161" y="-529" font-family="Helvetica,sans-Serif" font-size="10.00"> </text>
<polyline fill="none" stroke="black" points="107.976,-523 214.024,-523 "/>
<text text-anchor="start" x="115.976" y="-511" font-family="Helvetica,sans-Serif" font-size="10.00">+ Element()</text>
<text text-anchor="start" x="115.976" y="-501" font-family="Helvetica,sans-Serif" font-size="10.00">+ Element()</text>
<text text-anchor="start" x="115.976" y="-491" font-family="Helvetica,sans-Serif" font-size="10.00">+ Element()</text>
<text text-anchor="start" x="115.976" y="-481" font-family="Helvetica,sans-Serif" font-size="10.00">+ parent()</text>
<text text-anchor="start" x="115.976" y="-471" font-family="Helvetica,sans-Serif" font-size="10.00">+ set_parent()</text>
<text text-anchor="start" x="115.976" y="-461" font-family="Helvetica,sans-Serif" font-size="10.00">+ child()</text>
<text text-anchor="start" x="115.976" y="-451" font-family="Helvetica,sans-Serif" font-size="10.00">+ set_child()</text>
<text text-anchor="start" x="115.976" y="-441" font-family="Helvetica,sans-Serif" font-size="10.00">+ draw()</text>
<text text-anchor="start" x="115.976" y="-431" font-family="Helvetica,sans-Serif" font-size="10.00">+ draw()</text>
<text text-anchor="start" x="115.976" y="-421" font-family="Helvetica,sans-Serif" font-size="10.00">+ set_dim()</text>
<text text-anchor="start" x="115.976" y="-411" font-family="Helvetica,sans-Serif" font-size="10.00">and 36 more...</text>
<text text-anchor="start" x="115.976" y="-401" font-family="Helvetica,sans-Serif" font-size="10.00">+ dim_on_bitmap()</text>
<text text-anchor="start" x="115.976" y="-391" font-family="Helvetica,sans-Serif" font-size="10.00">+ center()</text>
<text text-anchor="start" x="115.976" y="-381" font-family="Helvetica,sans-Serif" font-size="10.00">+ scale()</text>
<text text-anchor="start" x="115.976" y="-371" font-family="Helvetica,sans-Serif" font-size="10.00">+ set_scale()</text>
<text text-anchor="start" x="115.976" y="-361" font-family="Helvetica,sans-Serif" font-size="10.00">+ set_screen()</text>
<text text-anchor="start" x="115.976" y="-351" font-family="Helvetica,sans-Serif" font-size="10.00">+ screen()</text>
<text text-anchor="start" x="115.976" y="-341" font-family="Helvetica,sans-Serif" font-size="10.00"># draw_scroll()</text>
<text text-anchor="start" x="115.976" y="-331" font-family="Helvetica,sans-Serif" font-size="10.00"># dim_on_bitmap()</text>
<text text-anchor="start" x="115.976" y="-321" font-family="Helvetica,sans-Serif" font-size="10.00"># point_on_bitmap()</text>
<text text-anchor="start" x="115.976" y="-311" font-family="Helvetica,sans-Serif" font-size="10.00"># adjust_x_center()</text>
<text text-anchor="start" x="115.976" y="-301" font-family="Helvetica,sans-Serif" font-size="10.00"># flag()</text>
<text text-anchor="start" x="115.976" y="-291" font-family="Helvetica,sans-Serif" font-size="10.00"># set_flag()</text>
<text text-anchor="start" x="115.976" y="-281" font-family="Helvetica,sans-Serif" font-size="10.00"># clear_align_flags()</text>
</a>
</g>
</g>
<!-- Node2&#45;&gt;Node1 -->
<g id="edge1" class="edge"><title>Node2&#45;&gt;Node1</title>
<path fill="none" stroke="midnightblue" d="M161,-264.362C161,-254.965 161,-245.847 161,-237.261"/>
<polygon fill="none" stroke="midnightblue" points="157.5,-264.656 161,-274.656 164.5,-264.656 157.5,-264.656"/>
</g>
</g>
</svg>
