<?xml version="1.0" encoding="UTF-8" standalone="no"?>
<!DOCTYPE svg PUBLIC "-//W3C//DTD SVG 1.1//EN"
 "http://www.w3.org/Graphics/SVG/1.1/DTD/svg11.dtd">
<!-- Generated by graphviz version 2.36.0 (20140111.2315)
 -->
<!-- Title: ProgressCircle Pages: 1 -->
<svg width="114pt" height="216pt"
 viewBox="0.00 0.00 114.00 216.00" xmlns="http://www.w3.org/2000/svg" xmlns:xlink="http://www.w3.org/1999/xlink">
<g id="graph0" class="graph" transform="scale(1 1) rotate(0) translate(4 212)">
<title>ProgressCircle</title>
<!-- Node1 -->
<g id="node1" class="node"><title>Node1</title>
<polygon fill="#bfbfbf" stroke="black" points="4.5752,-1 4.5752,-65 101.425,-65 101.425,-1 4.5752,-1"/>
<text text-anchor="middle" x="53" y="-53" font-family="Helvetica,sans-Serif" font-size="10.00">ProgressCircle</text>
<polyline fill="none" stroke="black" points="4.5752,-47 101.425,-47 "/>
<text text-anchor="middle" x="53" y="-35" font-family="Helvetica,sans-Serif" font-size="10.00"> </text>
<polyline fill="none" stroke="black" points="4.5752,-29 101.425,-29 "/>
<text text-anchor="start" x="12.5752" y="-17" font-family="Helvetica,sans-Serif" font-size="10.00">+ ProgressCircle()</text>
<text text-anchor="start" x="12.5752" y="-7" font-family="Helvetica,sans-Serif" font-size="10.00">+ ProgressCircle()</text>
</g>
<!-- Node2 -->
<g id="node2" class="node"><title>Node2</title>
<g id="a_node2"><a xlink:href="class_progress_element.html" target="_top" xlink:title="Progress Class. ">
<polygon fill="none" stroke="black" points="-0.98877,-103 -0.98877,-207 106.989,-207 106.989,-103 -0.98877,-103"/>
<text text-anchor="middle" x="53" y="-195" font-family="Helvetica,sans-Serif" font-size="10.00">ProgressElement</text>
<polyline fill="none" stroke="black" points="-0.98877,-189 106.989,-189 "/>
<text text-anchor="start" x="7.01123" y="-177" font-family="Helvetica,sans-Serif" font-size="10.00"># _progress</text>
<polyline fill="none" stroke="black" points="-0.98877,-171 106.989,-171 "/>
<text text-anchor="start" x="7.01123" y="-159" font-family="Helvetica,sans-Serif" font-size="10.00">+ ProgressElement()</text>
<text text-anchor="start" x="7.01123" y="-149" font-family="Helvetica,sans-Serif" font-size="10.00">+ ProgressElement()</text>
<text text-anchor="start" x="7.01123" y="-139" font-family="Helvetica,sans-Serif" font-size="10.00">+ progress()</text>
<text text-anchor="start" x="7.01123" y="-129" font-family="Helvetica,sans-Serif" font-size="10.00">+ attr()</text>
<text text-anchor="start" x="7.01123" y="-119" font-family="Helvetica,sans-Serif" font-size="10.00">+ value()</text>
<text text-anchor="start" x="7.01123" y="-109" font-family="Helvetica,sans-Serif" font-size="10.00">+ max()</text>
</a>
</g>
</g>
<!-- Node2&#45;&gt;Node1 -->
<g id="edge1" class="edge"><title>Node2&#45;&gt;Node1</title>
<path fill="none" stroke="midnightblue" d="M53,-92.5389C53,-83.095 53,-73.6994 53,-65.2887"/>
<polygon fill="none" stroke="midnightblue" points="49.5001,-92.7611 53,-102.761 56.5001,-92.7612 49.5001,-92.7611"/>
</g>
</g>
</svg>
