<?xml version="1.0" encoding="UTF-8" standalone="no"?>
<!DOCTYPE svg PUBLIC "-//W3C//DTD SVG 1.1//EN"
 "http://www.w3.org/Graphics/SVG/1.1/DTD/svg11.dtd">
<!-- Generated by graphviz version 2.36.0 (20140111.2315)
 -->
<!-- Title: GraphBar Pages: 1 -->
<svg width="112pt" height="488pt"
 viewBox="0.00 0.00 112.00 488.00" xmlns="http://www.w3.org/2000/svg" xmlns:xlink="http://www.w3.org/1999/xlink">
<g id="graph0" class="graph" transform="scale(1 1) rotate(0) translate(4 484)">
<title>GraphBar</title>
<!-- Node1 -->
<g id="node1" class="node"><title>Node1</title>
<polygon fill="#bfbfbf" stroke="black" points="14.6836,-1 14.6836,-55 89.3164,-55 89.3164,-1 14.6836,-1"/>
<text text-anchor="middle" x="52" y="-43" font-family="Helvetica,sans-Serif" font-size="10.00">GraphBar</text>
<polyline fill="none" stroke="black" points="14.6836,-37 89.3164,-37 "/>
<text text-anchor="middle" x="52" y="-25" font-family="Helvetica,sans-Serif" font-size="10.00"> </text>
<polyline fill="none" stroke="black" points="14.6836,-19 89.3164,-19 "/>
<text text-anchor="start" x="22.6836" y="-7" font-family="Helvetica,sans-Serif" font-size="10.00">+ GraphBar()</text>
</g>
<!-- Node2 -->
<g id="node2" class="node"><title>Node2</title>
<g id="a_node2"><a xlink:href="class_graph_1_1_object.html" target="_top" xlink:title="Abstract Graph Class. ">
<polygon fill="none" stroke="black" points="-0.472656,-93 -0.472656,-197 104.473,-197 104.473,-93 -0.472656,-93"/>
<text text-anchor="middle" x="52" y="-185" font-family="Helvetica,sans-Serif" font-size="10.00">Graph::Object</text>
<polyline fill="none" stroke="black" points="-0.472656,-179 104.473,-179 "/>
<text text-anchor="middle" x="52" y="-167" font-family="Helvetica,sans-Serif" font-size="10.00"> </text>
<polyline fill="none" stroke="black" points="-0.472656,-161 104.473,-161 "/>
<text text-anchor="start" x="7.52734" y="-149" font-family="Helvetica,sans-Serif" font-size="10.00">+ Object()</text>
<text text-anchor="start" x="7.52734" y="-139" font-family="Helvetica,sans-Serif" font-size="10.00">+ x_axis()</text>
<text text-anchor="start" x="7.52734" y="-129" font-family="Helvetica,sans-Serif" font-size="10.00">+ y_axis()</text>
<text text-anchor="start" x="7.52734" y="-119" font-family="Helvetica,sans-Serif" font-size="10.00">+ x_data()</text>
<text text-anchor="start" x="7.52734" y="-109" font-family="Helvetica,sans-Serif" font-size="10.00">+ y_data()</text>
<text text-anchor="start" x="7.52734" y="-99" font-family="Helvetica,sans-Serif" font-size="10.00"># point_on_bitmap()</text>
</a>
</g>
</g>
<!-- Node2&#45;&gt;Node1 -->
<g id="edge1" class="edge"><title>Node2&#45;&gt;Node1</title>
<path fill="none" stroke="midnightblue" d="M52,-82.7333C52,-72.9923 52,-63.3962 52,-55.0695"/>
<polygon fill="none" stroke="midnightblue" points="48.5001,-82.8896 52,-92.8896 55.5001,-82.8896 48.5001,-82.8896"/>
</g>
<!-- Node3 -->
<g id="node3" class="node"><title>Node3</title>
<g id="a_node3"><a xlink:href="class_element.html" target="_top" xlink:title="Element Class. ">
<polygon fill="none" stroke="black" points="-0.472656,-235 -0.472656,-479 104.473,-479 104.473,-235 -0.472656,-235"/>
<text text-anchor="middle" x="52" y="-467" font-family="Helvetica,sans-Serif" font-size="10.00">Element</text>
<polyline fill="none" stroke="black" points="-0.472656,-461 104.473,-461 "/>
<text text-anchor="start" x="7.52734" y="-449" font-family="Helvetica,sans-Serif" font-size="10.00"># flags</text>
<polyline fill="none" stroke="black" points="-0.472656,-443 104.473,-443 "/>
<text text-anchor="start" x="7.52734" y="-431" font-family="Helvetica,sans-Serif" font-size="10.00">+ Element()</text>
<text text-anchor="start" x="7.52734" y="-421" font-family="Helvetica,sans-Serif" font-size="10.00">+ Element()</text>
<text text-anchor="start" x="7.52734" y="-411" font-family="Helvetica,sans-Serif" font-size="10.00">+ Element()</text>
<text text-anchor="start" x="7.52734" y="-401" font-family="Helvetica,sans-Serif" font-size="10.00">+ parent()</text>
<text text-anchor="start" x="7.52734" y="-391" font-family="Helvetica,sans-Serif" font-size="10.00">+ set_parent()</text>
<text text-anchor="start" x="7.52734" y="-381" font-family="Helvetica,sans-Serif" font-size="10.00">+ child()</text>
<text text-anchor="start" x="7.52734" y="-371" font-family="Helvetica,sans-Serif" font-size="10.00">+ set_child()</text>
<text text-anchor="start" x="7.52734" y="-361" font-family="Helvetica,sans-Serif" font-size="10.00">+ draw()</text>
<text text-anchor="start" x="7.52734" y="-351" font-family="Helvetica,sans-Serif" font-size="10.00">+ draw()</text>
<text text-anchor="start" x="7.52734" y="-341" font-family="Helvetica,sans-Serif" font-size="10.00">+ draw()</text>
<text text-anchor="start" x="7.52734" y="-331" font-family="Helvetica,sans-Serif" font-size="10.00">and 41 more...</text>
<text text-anchor="start" x="7.52734" y="-321" font-family="Helvetica,sans-Serif" font-size="10.00">+ dim_on_bitmap()</text>
<text text-anchor="start" x="7.52734" y="-311" font-family="Helvetica,sans-Serif" font-size="10.00">+ center()</text>
<text text-anchor="start" x="7.52734" y="-301" font-family="Helvetica,sans-Serif" font-size="10.00">+ scale()</text>
<text text-anchor="start" x="7.52734" y="-291" font-family="Helvetica,sans-Serif" font-size="10.00">+ set_scale()</text>
<text text-anchor="start" x="7.52734" y="-281" font-family="Helvetica,sans-Serif" font-size="10.00"># draw_scroll()</text>
<text text-anchor="start" x="7.52734" y="-271" font-family="Helvetica,sans-Serif" font-size="10.00"># dim_on_bitmap()</text>
<text text-anchor="start" x="7.52734" y="-261" font-family="Helvetica,sans-Serif" font-size="10.00"># point_on_bitmap()</text>
<text text-anchor="start" x="7.52734" y="-251" font-family="Helvetica,sans-Serif" font-size="10.00"># adjust_x_center()</text>
<text text-anchor="start" x="7.52734" y="-241" font-family="Helvetica,sans-Serif" font-size="10.00"># pixel_padding()</text>
</a>
</g>
</g>
<!-- Node3&#45;&gt;Node2 -->
<g id="edge2" class="edge"><title>Node3&#45;&gt;Node2</title>
<path fill="none" stroke="midnightblue" d="M52,-224.709C52,-215.164 52,-205.928 52,-197.347"/>
<polygon fill="none" stroke="midnightblue" points="48.5001,-224.754 52,-234.755 55.5001,-224.755 48.5001,-224.754"/>
</g>
</g>
</svg>
