<?xml version="1.0" encoding="UTF-8" standalone="no"?>
<!DOCTYPE svg PUBLIC "-//W3C//DTD SVG 1.1//EN"
 "http://www.w3.org/Graphics/SVG/1.1/DTD/svg11.dtd">
<!-- Generated by graphviz version 2.36.0 (20140111.2315)
 -->
<!-- Title: Edit Pages: 1 -->
<svg width="649pt" height="740pt"
 viewBox="0.00 0.00 649.00 740.00" xmlns="http://www.w3.org/2000/svg" xmlns:xlink="http://www.w3.org/1999/xlink">
<g id="graph0" class="graph" transform="scale(1 1) rotate(0) translate(4 736)">
<title>Edit</title>
<!-- Node1 -->
<g id="node1" class="node"><title>Node1</title>
<polygon fill="#bfbfbf" stroke="black" points="294.393,-265 294.393,-439 399.607,-439 399.607,-265 294.393,-265"/>
<text text-anchor="middle" x="347" y="-427" font-family="Helvetica,sans-Serif" font-size="10.00">Edit</text>
<polyline fill="none" stroke="black" points="294.393,-421 399.607,-421 "/>
<text text-anchor="middle" x="347" y="-409" font-family="Helvetica,sans-Serif" font-size="10.00"> </text>
<polyline fill="none" stroke="black" points="294.393,-403 399.607,-403 "/>
<text text-anchor="start" x="302.393" y="-391" font-family="Helvetica,sans-Serif" font-size="10.00">+ Edit()</text>
<text text-anchor="start" x="302.393" y="-381" font-family="Helvetica,sans-Serif" font-size="10.00">+ prev()</text>
<text text-anchor="start" x="302.393" y="-371" font-family="Helvetica,sans-Serif" font-size="10.00">+ next()</text>
<text text-anchor="start" x="302.393" y="-361" font-family="Helvetica,sans-Serif" font-size="10.00">+ select()</text>
<text text-anchor="start" x="302.393" y="-351" font-family="Helvetica,sans-Serif" font-size="10.00">+ exit()</text>
<text text-anchor="start" x="302.393" y="-341" font-family="Helvetica,sans-Serif" font-size="10.00">+ draw()</text>
<text text-anchor="start" x="302.393" y="-331" font-family="Helvetica,sans-Serif" font-size="10.00">+ draw_on_bitmap()</text>
<text text-anchor="start" x="302.393" y="-321" font-family="Helvetica,sans-Serif" font-size="10.00">+ setup_element()</text>
<text text-anchor="start" x="302.393" y="-311" font-family="Helvetica,sans-Serif" font-size="10.00"># increment()</text>
<text text-anchor="start" x="302.393" y="-301" font-family="Helvetica,sans-Serif" font-size="10.00"># decrement()</text>
<text text-anchor="start" x="302.393" y="-291" font-family="Helvetica,sans-Serif" font-size="10.00"># load()</text>
<text text-anchor="start" x="302.393" y="-281" font-family="Helvetica,sans-Serif" font-size="10.00"># save()</text>
<text text-anchor="start" x="302.393" y="-271" font-family="Helvetica,sans-Serif" font-size="10.00"># copy()</text>
</g>
<!-- Node3 -->
<g id="node3" class="node"><title>Node3</title>
<g id="a_node3"><a xlink:href="class_edit_setting_int.html" target="_top" xlink:title="Edit Integer Class. ">
<polygon fill="none" stroke="black" points="50.6196,-113 50.6196,-227 141.38,-227 141.38,-113 50.6196,-113"/>
<text text-anchor="middle" x="96" y="-215" font-family="Helvetica,sans-Serif" font-size="10.00">EditSettingInt</text>
<polyline fill="none" stroke="black" points="50.6196,-209 141.38,-209 "/>
<text text-anchor="middle" x="96" y="-197" font-family="Helvetica,sans-Serif" font-size="10.00"> </text>
<polyline fill="none" stroke="black" points="50.6196,-191 141.38,-191 "/>
<text text-anchor="start" x="58.6196" y="-179" font-family="Helvetica,sans-Serif" font-size="10.00">+ EditSettingInt()</text>
<text text-anchor="start" x="58.6196" y="-169" font-family="Helvetica,sans-Serif" font-size="10.00">+ EditSettingInt()</text>
<text text-anchor="start" x="58.6196" y="-159" font-family="Helvetica,sans-Serif" font-size="10.00">+ increment()</text>
<text text-anchor="start" x="58.6196" y="-149" font-family="Helvetica,sans-Serif" font-size="10.00">+ decrement()</text>
<text text-anchor="start" x="58.6196" y="-139" font-family="Helvetica,sans-Serif" font-size="10.00">+ load()</text>
<text text-anchor="start" x="58.6196" y="-129" font-family="Helvetica,sans-Serif" font-size="10.00">+ save()</text>
<text text-anchor="start" x="58.6196" y="-119" font-family="Helvetica,sans-Serif" font-size="10.00">+ copy()</text>
</a>
</g>
</g>
<!-- Node1&#45;&gt;Node3 -->
<g id="edge2" class="edge"><title>Node1&#45;&gt;Node3</title>
<path fill="none" stroke="midnightblue" d="M285.491,-317.585C245.52,-294.645 193.192,-262.248 151,-228 147.797,-225.4 144.589,-222.627 141.422,-219.756"/>
<polygon fill="none" stroke="midnightblue" points="283.917,-320.716 294.339,-322.624 287.382,-314.633 283.917,-320.716"/>
</g>
<!-- Node4 -->
<g id="node4" class="node"><title>Node4</title>
<g id="a_node4"><a xlink:href="class_edit_sys_brightness.html" target="_top" xlink:title="Edit System Brightness. ">
<polygon fill="none" stroke="black" points="159.787,-118 159.787,-222 272.213,-222 272.213,-118 159.787,-118"/>
<text text-anchor="middle" x="216" y="-210" font-family="Helvetica,sans-Serif" font-size="10.00">EditSysBrightness</text>
<polyline fill="none" stroke="black" points="159.787,-204 272.213,-204 "/>
<text text-anchor="start" x="167.787" y="-192" font-family="Helvetica,sans-Serif" font-size="10.00"># brightness</text>
<polyline fill="none" stroke="black" points="159.787,-186 272.213,-186 "/>
<text text-anchor="start" x="167.787" y="-174" font-family="Helvetica,sans-Serif" font-size="10.00">+ EditSysBrightness()</text>
<text text-anchor="start" x="167.787" y="-164" font-family="Helvetica,sans-Serif" font-size="10.00">+ increment()</text>
<text text-anchor="start" x="167.787" y="-154" font-family="Helvetica,sans-Serif" font-size="10.00">+ decrement()</text>
<text text-anchor="start" x="167.787" y="-144" font-family="Helvetica,sans-Serif" font-size="10.00">+ load()</text>
<text text-anchor="start" x="167.787" y="-134" font-family="Helvetica,sans-Serif" font-size="10.00">+ save()</text>
<text text-anchor="start" x="167.787" y="-124" font-family="Helvetica,sans-Serif" font-size="10.00">+ copy()</text>
</a>
</g>
</g>
<!-- Node1&#45;&gt;Node4 -->
<g id="edge3" class="edge"><title>Node1&#45;&gt;Node4</title>
<path fill="none" stroke="midnightblue" d="M288.098,-270.066C276.202,-253.72 264.013,-236.972 253.121,-222.006"/>
<polygon fill="none" stroke="midnightblue" points="285.569,-272.539 294.284,-278.565 291.229,-268.42 285.569,-272.539"/>
</g>
<!-- Node8 -->
<g id="node8" class="node"><title>Node8</title>
<g id="a_node8"><a xlink:href="class_edit_sys_long_press.html" target="_top" xlink:title="Edit System Long Press Setting. ">
<polygon fill="none" stroke="black" points="290.506,-118 290.506,-222 403.494,-222 403.494,-118 290.506,-118"/>
<text text-anchor="middle" x="347" y="-210" font-family="Helvetica,sans-Serif" font-size="10.00">EditSysLongPress</text>
<polyline fill="none" stroke="black" points="290.506,-204 403.494,-204 "/>
<text text-anchor="middle" x="347" y="-192" font-family="Helvetica,sans-Serif" font-size="10.00"> </text>
<polyline fill="none" stroke="black" points="290.506,-186 403.494,-186 "/>
<text text-anchor="start" x="298.506" y="-174" font-family="Helvetica,sans-Serif" font-size="10.00">+ EditSysLongPress()</text>
<text text-anchor="start" x="298.506" y="-164" font-family="Helvetica,sans-Serif" font-size="10.00">+ increment()</text>
<text text-anchor="start" x="298.506" y="-154" font-family="Helvetica,sans-Serif" font-size="10.00">+ decrement()</text>
<text text-anchor="start" x="298.506" y="-144" font-family="Helvetica,sans-Serif" font-size="10.00">+ load()</text>
<text text-anchor="start" x="298.506" y="-134" font-family="Helvetica,sans-Serif" font-size="10.00">+ save()</text>
<text text-anchor="start" x="298.506" y="-124" font-family="Helvetica,sans-Serif" font-size="10.00">+ copy()</text>
</a>
</g>
</g>
<!-- Node1&#45;&gt;Node8 -->
<g id="edge7" class="edge"><title>Node1&#45;&gt;Node8</title>
<path fill="none" stroke="midnightblue" d="M347,-254.655C347,-243.459 347,-232.395 347,-222.16"/>
<polygon fill="none" stroke="midnightblue" points="343.5,-254.954 347,-264.954 350.5,-254.954 343.5,-254.954"/>
</g>
<!-- Node9 -->
<g id="node9" class="node"><title>Node9</title>
<g id="a_node9"><a xlink:href="class_edit_sys_short_press.html" target="_top" xlink:title="Edit System Short Press Setting. ">
<polygon fill="none" stroke="black" points="421.679,-118 421.679,-222 536.321,-222 536.321,-118 421.679,-118"/>
<text text-anchor="middle" x="479" y="-210" font-family="Helvetica,sans-Serif" font-size="10.00">EditSysShortPress</text>
<polyline fill="none" stroke="black" points="421.679,-204 536.321,-204 "/>
<text text-anchor="middle" x="479" y="-192" font-family="Helvetica,sans-Serif" font-size="10.00"> </text>
<polyline fill="none" stroke="black" points="421.679,-186 536.321,-186 "/>
<text text-anchor="start" x="429.679" y="-174" font-family="Helvetica,sans-Serif" font-size="10.00">+ EditSysShortPress()</text>
<text text-anchor="start" x="429.679" y="-164" font-family="Helvetica,sans-Serif" font-size="10.00">+ increment()</text>
<text text-anchor="start" x="429.679" y="-154" font-family="Helvetica,sans-Serif" font-size="10.00">+ decrement()</text>
<text text-anchor="start" x="429.679" y="-144" font-family="Helvetica,sans-Serif" font-size="10.00">+ load()</text>
<text text-anchor="start" x="429.679" y="-134" font-family="Helvetica,sans-Serif" font-size="10.00">+ save()</text>
<text text-anchor="start" x="429.679" y="-124" font-family="Helvetica,sans-Serif" font-size="10.00">+ copy()</text>
</a>
</g>
</g>
<!-- Node1&#45;&gt;Node9 -->
<g id="edge8" class="edge"><title>Node1&#45;&gt;Node9</title>
<path fill="none" stroke="midnightblue" d="M405.688,-270.97C417.878,-254.348 430.404,-237.267 441.576,-222.032"/>
<polygon fill="none" stroke="midnightblue" points="402.83,-268.949 399.739,-279.083 408.475,-273.089 402.83,-268.949"/>
</g>
<!-- Node10 -->
<g id="node10" class="node"><title>Node10</title>
<g id="a_node10"><a xlink:href="class_edit_sys_units.html" target="_top" xlink:title="Edit System Units Setting. ">
<polygon fill="none" stroke="black" points="554.019,-118 554.019,-222 641.981,-222 641.981,-118 554.019,-118"/>
<text text-anchor="middle" x="598" y="-210" font-family="Helvetica,sans-Serif" font-size="10.00">EditSysUnits</text>
<polyline fill="none" stroke="black" points="554.019,-204 641.981,-204 "/>
<text text-anchor="middle" x="598" y="-192" font-family="Helvetica,sans-Serif" font-size="10.00"> </text>
<polyline fill="none" stroke="black" points="554.019,-186 641.981,-186 "/>
<text text-anchor="start" x="562.019" y="-174" font-family="Helvetica,sans-Serif" font-size="10.00">+ EditSysUnits()</text>
<text text-anchor="start" x="562.019" y="-164" font-family="Helvetica,sans-Serif" font-size="10.00">+ increment()</text>
<text text-anchor="start" x="562.019" y="-154" font-family="Helvetica,sans-Serif" font-size="10.00">+ decrement()</text>
<text text-anchor="start" x="562.019" y="-144" font-family="Helvetica,sans-Serif" font-size="10.00">+ load()</text>
<text text-anchor="start" x="562.019" y="-134" font-family="Helvetica,sans-Serif" font-size="10.00">+ save()</text>
<text text-anchor="start" x="562.019" y="-124" font-family="Helvetica,sans-Serif" font-size="10.00">+ copy()</text>
</a>
</g>
</g>
<!-- Node1&#45;&gt;Node10 -->
<g id="edge9" class="edge"><title>Node1&#45;&gt;Node10</title>
<path fill="none" stroke="midnightblue" d="M408.961,-318.184C449.494,-295.382 502.595,-262.914 545,-228 547.921,-225.595 550.837,-223.034 553.714,-220.381"/>
<polygon fill="none" stroke="midnightblue" points="407.018,-315.26 399.99,-323.188 410.429,-321.373 407.018,-315.26"/>
</g>
<!-- Node2 -->
<g id="node2" class="node"><title>Node2</title>
<g id="a_node2"><a xlink:href="class_element.html" target="_top" xlink:title="Element Class. ">
<polygon fill="none" stroke="black" points="294.527,-477 294.527,-731 399.473,-731 399.473,-477 294.527,-477"/>
<text text-anchor="middle" x="347" y="-719" font-family="Helvetica,sans-Serif" font-size="10.00">Element</text>
<polyline fill="none" stroke="black" points="294.527,-713 399.473,-713 "/>
<text text-anchor="start" x="302.527" y="-701" font-family="Helvetica,sans-Serif" font-size="10.00"># flags</text>
<polyline fill="none" stroke="black" points="294.527,-695 399.473,-695 "/>
<text text-anchor="start" x="302.527" y="-683" font-family="Helvetica,sans-Serif" font-size="10.00">+ Element()</text>
<text text-anchor="start" x="302.527" y="-673" font-family="Helvetica,sans-Serif" font-size="10.00">+ Element()</text>
<text text-anchor="start" x="302.527" y="-663" font-family="Helvetica,sans-Serif" font-size="10.00">+ setup()</text>
<text text-anchor="start" x="302.527" y="-653" font-family="Helvetica,sans-Serif" font-size="10.00">+ parent()</text>
<text text-anchor="start" x="302.527" y="-643" font-family="Helvetica,sans-Serif" font-size="10.00">+ set_parent()</text>
<text text-anchor="start" x="302.527" y="-633" font-family="Helvetica,sans-Serif" font-size="10.00">+ draw()</text>
<text text-anchor="start" x="302.527" y="-623" font-family="Helvetica,sans-Serif" font-size="10.00">+ draw()</text>
<text text-anchor="start" x="302.527" y="-613" font-family="Helvetica,sans-Serif" font-size="10.00">+ draw()</text>
<text text-anchor="start" x="302.527" y="-603" font-family="Helvetica,sans-Serif" font-size="10.00">+ draw()</text>
<text text-anchor="start" x="302.527" y="-593" font-family="Helvetica,sans-Serif" font-size="10.00">+ set_dim()</text>
<text text-anchor="start" x="302.527" y="-583" font-family="Helvetica,sans-Serif" font-size="10.00">and 40 more...</text>
<text text-anchor="start" x="302.527" y="-573" font-family="Helvetica,sans-Serif" font-size="10.00">+ dim_on_bitmap()</text>
<text text-anchor="start" x="302.527" y="-563" font-family="Helvetica,sans-Serif" font-size="10.00">+ center()</text>
<text text-anchor="start" x="302.527" y="-553" font-family="Helvetica,sans-Serif" font-size="10.00">+ scale()</text>
<text text-anchor="start" x="302.527" y="-543" font-family="Helvetica,sans-Serif" font-size="10.00">+ set_scale()</text>
<text text-anchor="start" x="302.527" y="-533" font-family="Helvetica,sans-Serif" font-size="10.00"># draw_scroll()</text>
<text text-anchor="start" x="302.527" y="-523" font-family="Helvetica,sans-Serif" font-size="10.00"># setup_element()</text>
<text text-anchor="start" x="302.527" y="-513" font-family="Helvetica,sans-Serif" font-size="10.00"># dim_on_bitmap()</text>
<text text-anchor="start" x="302.527" y="-503" font-family="Helvetica,sans-Serif" font-size="10.00"># point_on_bitmap()</text>
<text text-anchor="start" x="302.527" y="-493" font-family="Helvetica,sans-Serif" font-size="10.00"># adjust_x_center()</text>
<text text-anchor="start" x="302.527" y="-483" font-family="Helvetica,sans-Serif" font-size="10.00"># pixel_padding()</text>
</a>
</g>
</g>
<!-- Node2&#45;&gt;Node1 -->
<g id="edge1" class="edge"><title>Node2&#45;&gt;Node1</title>
<path fill="none" stroke="midnightblue" d="M347,-466.761C347,-457.437 347,-448.197 347,-439.251"/>
<polygon fill="none" stroke="midnightblue" points="343.5,-466.901 347,-476.901 350.5,-466.901 343.5,-466.901"/>
</g>
<!-- Node5 -->
<g id="node5" class="node"><title>Node5</title>
<g id="a_node5"><a xlink:href="class_edit_sys_brightness_high.html" target="_top" xlink:title="Edit System High Brightness Class. ">
<polygon fill="none" stroke="black" points="-0.496094,-1 -0.496094,-75 132.496,-75 132.496,-1 -0.496094,-1"/>
<text text-anchor="middle" x="66" y="-63" font-family="Helvetica,sans-Serif" font-size="10.00">EditSysBrightnessHigh</text>
<polyline fill="none" stroke="black" points="-0.496094,-57 132.496,-57 "/>
<text text-anchor="middle" x="66" y="-45" font-family="Helvetica,sans-Serif" font-size="10.00"> </text>
<polyline fill="none" stroke="black" points="-0.496094,-39 132.496,-39 "/>
<text text-anchor="start" x="7.50391" y="-27" font-family="Helvetica,sans-Serif" font-size="10.00">+ EditSysBrightnessHigh()</text>
<text text-anchor="start" x="7.50391" y="-17" font-family="Helvetica,sans-Serif" font-size="10.00">+ load()</text>
<text text-anchor="start" x="7.50391" y="-7" font-family="Helvetica,sans-Serif" font-size="10.00">+ save()</text>
</a>
</g>
</g>
<!-- Node4&#45;&gt;Node5 -->
<g id="edge4" class="edge"><title>Node4&#45;&gt;Node5</title>
<path fill="none" stroke="midnightblue" d="M151.938,-113.48C136.93,-100.473 121.325,-86.9484 107.597,-75.0504"/>
<polygon fill="none" stroke="midnightblue" points="149.87,-116.319 159.719,-120.223 154.454,-111.029 149.87,-116.319"/>
</g>
<!-- Node6 -->
<g id="node6" class="node"><title>Node6</title>
<g id="a_node6"><a xlink:href="class_edit_sys_brightness_low.html" target="_top" xlink:title="Edit System Low Brightness Class. ">
<polygon fill="none" stroke="black" points="150.615,-1 150.615,-75 281.385,-75 281.385,-1 150.615,-1"/>
<text text-anchor="middle" x="216" y="-63" font-family="Helvetica,sans-Serif" font-size="10.00">EditSysBrightnessLow</text>
<polyline fill="none" stroke="black" points="150.615,-57 281.385,-57 "/>
<text text-anchor="middle" x="216" y="-45" font-family="Helvetica,sans-Serif" font-size="10.00"> </text>
<polyline fill="none" stroke="black" points="150.615,-39 281.385,-39 "/>
<text text-anchor="start" x="158.615" y="-27" font-family="Helvetica,sans-Serif" font-size="10.00">+ EditSysBrightnessLow()</text>
<text text-anchor="start" x="158.615" y="-17" font-family="Helvetica,sans-Serif" font-size="10.00">+ load()</text>
<text text-anchor="start" x="158.615" y="-7" font-family="Helvetica,sans-Serif" font-size="10.00">+ save()</text>
</a>
</g>
</g>
<!-- Node4&#45;&gt;Node6 -->
<g id="edge5" class="edge"><title>Node4&#45;&gt;Node6</title>
<path fill="none" stroke="midnightblue" d="M216,-107.771C216,-96.5521 216,-85.1827 216,-75.0059"/>
<polygon fill="none" stroke="midnightblue" points="212.5,-107.994 216,-117.994 219.5,-107.994 212.5,-107.994"/>
</g>
<!-- Node7 -->
<g id="node7" class="node"><title>Node7</title>
<g id="a_node7"><a xlink:href="class_edit_sys_brightness_med.html" target="_top" xlink:title="Edit System Med Brightness Class. ">
<polygon fill="none" stroke="black" points="299.061,-1 299.061,-75 430.939,-75 430.939,-1 299.061,-1"/>
<text text-anchor="middle" x="365" y="-63" font-family="Helvetica,sans-Serif" font-size="10.00">EditSysBrightnessMed</text>
<polyline fill="none" stroke="black" points="299.061,-57 430.939,-57 "/>
<text text-anchor="middle" x="365" y="-45" font-family="Helvetica,sans-Serif" font-size="10.00"> </text>
<polyline fill="none" stroke="black" points="299.061,-39 430.939,-39 "/>
<text text-anchor="start" x="307.061" y="-27" font-family="Helvetica,sans-Serif" font-size="10.00">+ EditSysBrightnessMed()</text>
<text text-anchor="start" x="307.061" y="-17" font-family="Helvetica,sans-Serif" font-size="10.00">+ load()</text>
<text text-anchor="start" x="307.061" y="-7" font-family="Helvetica,sans-Serif" font-size="10.00">+ save()</text>
</a>
</g>
</g>
<!-- Node4&#45;&gt;Node7 -->
<g id="edge6" class="edge"><title>Node4&#45;&gt;Node7</title>
<path fill="none" stroke="midnightblue" d="M279.966,-113.19C294.69,-100.344 309.974,-87.0092 323.455,-75.2473"/>
<polygon fill="none" stroke="midnightblue" points="277.565,-110.641 272.331,-119.853 282.167,-115.916 277.565,-110.641"/>
</g>
</g>
</svg>
