<?xml version="1.0" encoding="UTF-8" standalone="no"?>
<!DOCTYPE svg PUBLIC "-//W3C//DTD SVG 1.1//EN"
 "http://www.w3.org/Graphics/SVG/1.1/DTD/svg11.dtd">
<!-- Generated by graphviz version 2.36.0 (20140111.2315)
 -->
<!-- Title: Element Pages: 1 -->
<svg width="619pt" height="598pt"
 viewBox="0.00 0.00 619.00 598.00" xmlns="http://www.w3.org/2000/svg" xmlns:xlink="http://www.w3.org/1999/xlink">
<g id="graph0" class="graph" transform="scale(1 1) rotate(0) translate(4 594)">
<title>Element</title>
<!-- Node1 -->
<g id="node1" class="node"><title>Node1</title>
<polygon fill="#bfbfbf" stroke="black" points="278.527,-335 278.527,-589 383.473,-589 383.473,-335 278.527,-335"/>
<text text-anchor="middle" x="331" y="-577" font-family="Helvetica,sans-Serif" font-size="10.00">Element</text>
<polyline fill="none" stroke="black" points="278.527,-571 383.473,-571 "/>
<text text-anchor="start" x="286.527" y="-559" font-family="Helvetica,sans-Serif" font-size="10.00"># flags</text>
<polyline fill="none" stroke="black" points="278.527,-553 383.473,-553 "/>
<text text-anchor="start" x="286.527" y="-541" font-family="Helvetica,sans-Serif" font-size="10.00">+ Element()</text>
<text text-anchor="start" x="286.527" y="-531" font-family="Helvetica,sans-Serif" font-size="10.00">+ Element()</text>
<text text-anchor="start" x="286.527" y="-521" font-family="Helvetica,sans-Serif" font-size="10.00">+ setup()</text>
<text text-anchor="start" x="286.527" y="-511" font-family="Helvetica,sans-Serif" font-size="10.00">+ parent()</text>
<text text-anchor="start" x="286.527" y="-501" font-family="Helvetica,sans-Serif" font-size="10.00">+ set_parent()</text>
<text text-anchor="start" x="286.527" y="-491" font-family="Helvetica,sans-Serif" font-size="10.00">+ draw()</text>
<text text-anchor="start" x="286.527" y="-481" font-family="Helvetica,sans-Serif" font-size="10.00">+ draw()</text>
<text text-anchor="start" x="286.527" y="-471" font-family="Helvetica,sans-Serif" font-size="10.00">+ draw()</text>
<text text-anchor="start" x="286.527" y="-461" font-family="Helvetica,sans-Serif" font-size="10.00">+ draw()</text>
<text text-anchor="start" x="286.527" y="-451" font-family="Helvetica,sans-Serif" font-size="10.00">+ set_dim()</text>
<text text-anchor="start" x="286.527" y="-441" font-family="Helvetica,sans-Serif" font-size="10.00">and 40 more...</text>
<text text-anchor="start" x="286.527" y="-431" font-family="Helvetica,sans-Serif" font-size="10.00">+ dim_on_bitmap()</text>
<text text-anchor="start" x="286.527" y="-421" font-family="Helvetica,sans-Serif" font-size="10.00">+ center()</text>
<text text-anchor="start" x="286.527" y="-411" font-family="Helvetica,sans-Serif" font-size="10.00">+ scale()</text>
<text text-anchor="start" x="286.527" y="-401" font-family="Helvetica,sans-Serif" font-size="10.00">+ set_scale()</text>
<text text-anchor="start" x="286.527" y="-391" font-family="Helvetica,sans-Serif" font-size="10.00"># draw_scroll()</text>
<text text-anchor="start" x="286.527" y="-381" font-family="Helvetica,sans-Serif" font-size="10.00"># setup_element()</text>
<text text-anchor="start" x="286.527" y="-371" font-family="Helvetica,sans-Serif" font-size="10.00"># dim_on_bitmap()</text>
<text text-anchor="start" x="286.527" y="-361" font-family="Helvetica,sans-Serif" font-size="10.00"># point_on_bitmap()</text>
<text text-anchor="start" x="286.527" y="-351" font-family="Helvetica,sans-Serif" font-size="10.00"># adjust_x_center()</text>
<text text-anchor="start" x="286.527" y="-341" font-family="Helvetica,sans-Serif" font-size="10.00"># pixel_padding()</text>
</g>
<!-- Node2 -->
<g id="node2" class="node"><title>Node2</title>
<g id="a_node2"><a xlink:href="class_graph_1_1_object.html" target="_top" xlink:title="Abstract Graph Class. ">
<polygon fill="none" stroke="black" points="31.5273,-143 31.5273,-247 136.473,-247 136.473,-143 31.5273,-143"/>
<text text-anchor="middle" x="84" y="-235" font-family="Helvetica,sans-Serif" font-size="10.00">Graph::Object</text>
<polyline fill="none" stroke="black" points="31.5273,-229 136.473,-229 "/>
<text text-anchor="middle" x="84" y="-217" font-family="Helvetica,sans-Serif" font-size="10.00"> </text>
<polyline fill="none" stroke="black" points="31.5273,-211 136.473,-211 "/>
<text text-anchor="start" x="39.5273" y="-199" font-family="Helvetica,sans-Serif" font-size="10.00">+ Object()</text>
<text text-anchor="start" x="39.5273" y="-189" font-family="Helvetica,sans-Serif" font-size="10.00">+ x_axis()</text>
<text text-anchor="start" x="39.5273" y="-179" font-family="Helvetica,sans-Serif" font-size="10.00">+ y_axis()</text>
<text text-anchor="start" x="39.5273" y="-169" font-family="Helvetica,sans-Serif" font-size="10.00">+ x_data()</text>
<text text-anchor="start" x="39.5273" y="-159" font-family="Helvetica,sans-Serif" font-size="10.00">+ y_data()</text>
<text text-anchor="start" x="39.5273" y="-149" font-family="Helvetica,sans-Serif" font-size="10.00"># point_on_bitmap()</text>
</a>
</g>
</g>
<!-- Node1&#45;&gt;Node2 -->
<g id="edge1" class="edge"><title>Node1&#45;&gt;Node2</title>
<path fill="none" stroke="midnightblue" d="M270.42,-415.949C231.748,-385.35 182.097,-342.485 145,-298 132.116,-282.55 120.197,-264.073 110.378,-247.116"/>
<polygon fill="none" stroke="midnightblue" points="268.469,-418.868 278.497,-422.289 272.791,-413.361 268.469,-418.868"/>
</g>
<!-- Node5 -->
<g id="node5" class="node"><title>Node5</title>
<g id="a_node5"><a xlink:href="class_label.html" target="_top" xlink:title="Label Element. ">
<polygon fill="none" stroke="black" points="154.393,-143 154.393,-247 259.607,-247 259.607,-143 154.393,-143"/>
<text text-anchor="middle" x="207" y="-235" font-family="Helvetica,sans-Serif" font-size="10.00">Label</text>
<polyline fill="none" stroke="black" points="154.393,-229 259.607,-229 "/>
<text text-anchor="middle" x="207" y="-217" font-family="Helvetica,sans-Serif" font-size="10.00"> </text>
<polyline fill="none" stroke="black" points="154.393,-211 259.607,-211 "/>
<text text-anchor="start" x="162.393" y="-199" font-family="Helvetica,sans-Serif" font-size="10.00">+ Label()</text>
<text text-anchor="start" x="162.393" y="-189" font-family="Helvetica,sans-Serif" font-size="10.00">+ Label()</text>
<text text-anchor="start" x="162.393" y="-179" font-family="Helvetica,sans-Serif" font-size="10.00">+ set_text()</text>
<text text-anchor="start" x="162.393" y="-169" font-family="Helvetica,sans-Serif" font-size="10.00">+ text()</text>
<text text-anchor="start" x="162.393" y="-159" font-family="Helvetica,sans-Serif" font-size="10.00">+ operator=()</text>
<text text-anchor="start" x="162.393" y="-149" font-family="Helvetica,sans-Serif" font-size="10.00">+ draw_on_bitmap()</text>
</a>
</g>
</g>
<!-- Node1&#45;&gt;Node5 -->
<g id="edge4" class="edge"><title>Node1&#45;&gt;Node5</title>
<path fill="none" stroke="midnightblue" d="M274.141,-339.487C258.947,-307.015 243.338,-273.657 230.998,-247.286"/>
<polygon fill="none" stroke="midnightblue" points="271.004,-341.042 278.413,-348.616 277.345,-338.075 271.004,-341.042"/>
</g>
<!-- Node6 -->
<g id="node6" class="node"><title>Node6</title>
<g id="a_node6"><a xlink:href="class_list.html" target="_top" xlink:title="List Class. ">
<polygon fill="none" stroke="black" points="277.29,-93 277.29,-297 384.71,-297 384.71,-93 277.29,-93"/>
<text text-anchor="middle" x="331" y="-285" font-family="Helvetica,sans-Serif" font-size="10.00">List</text>
<polyline fill="none" stroke="black" points="277.29,-279 384.71,-279 "/>
<text text-anchor="start" x="285.29" y="-267" font-family="Helvetica,sans-Serif" font-size="10.00"># _selected</text>
<text text-anchor="start" x="285.29" y="-257" font-family="Helvetica,sans-Serif" font-size="10.00"># _visible_items</text>
<polyline fill="none" stroke="black" points="277.29,-251 384.71,-251 "/>
<text text-anchor="start" x="285.29" y="-239" font-family="Helvetica,sans-Serif" font-size="10.00">+ List()</text>
<text text-anchor="start" x="285.29" y="-229" font-family="Helvetica,sans-Serif" font-size="10.00">+ set_selected()</text>
<text text-anchor="start" x="285.29" y="-219" font-family="Helvetica,sans-Serif" font-size="10.00">+ selected()</text>
<text text-anchor="start" x="285.29" y="-209" font-family="Helvetica,sans-Serif" font-size="10.00">+ next()</text>
<text text-anchor="start" x="285.29" y="-199" font-family="Helvetica,sans-Serif" font-size="10.00">+ prev()</text>
<text text-anchor="start" x="285.29" y="-189" font-family="Helvetica,sans-Serif" font-size="10.00">+ at()</text>
<text text-anchor="start" x="285.29" y="-179" font-family="Helvetica,sans-Serif" font-size="10.00">+ size()</text>
<text text-anchor="start" x="285.29" y="-169" font-family="Helvetica,sans-Serif" font-size="10.00">+ current()</text>
<text text-anchor="start" x="285.29" y="-159" font-family="Helvetica,sans-Serif" font-size="10.00">+ set_visible_items()</text>
<text text-anchor="start" x="285.29" y="-149" font-family="Helvetica,sans-Serif" font-size="10.00">+ visible_items()</text>
<text text-anchor="start" x="285.29" y="-139" font-family="Helvetica,sans-Serif" font-size="10.00">+ select()</text>
<text text-anchor="start" x="285.29" y="-129" font-family="Helvetica,sans-Serif" font-size="10.00">+ exit()</text>
<text text-anchor="start" x="285.29" y="-119" font-family="Helvetica,sans-Serif" font-size="10.00">+ setup_element()</text>
<text text-anchor="start" x="285.29" y="-109" font-family="Helvetica,sans-Serif" font-size="10.00">+ draw_on_bitmap()</text>
<text text-anchor="start" x="285.29" y="-99" font-family="Helvetica,sans-Serif" font-size="10.00"># init()</text>
</a>
</g>
</g>
<!-- Node1&#45;&gt;Node6 -->
<g id="edge5" class="edge"><title>Node1&#45;&gt;Node6</title>
<path fill="none" stroke="midnightblue" d="M331,-324.422C331,-315.313 331,-306.229 331,-297.343"/>
<polygon fill="none" stroke="midnightblue" points="327.5,-324.709 331,-334.709 334.5,-324.709 327.5,-324.709"/>
</g>
<!-- Node7 -->
<g id="node7" class="node"><title>Node7</title>
<g id="a_node7"><a xlink:href="class_map.html" target="_top" xlink:title="Map Class (for mapping coords to display) ">
<polygon fill="none" stroke="black" points="403.115,-118 403.115,-272 488.885,-272 488.885,-118 403.115,-118"/>
<text text-anchor="middle" x="446" y="-260" font-family="Helvetica,sans-Serif" font-size="10.00">Map</text>
<polyline fill="none" stroke="black" points="403.115,-254 488.885,-254 "/>
<text text-anchor="middle" x="446" y="-242" font-family="Helvetica,sans-Serif" font-size="10.00"> </text>
<polyline fill="none" stroke="black" points="403.115,-236 488.885,-236 "/>
<text text-anchor="start" x="411.115" y="-224" font-family="Helvetica,sans-Serif" font-size="10.00">+ Map()</text>
<text text-anchor="start" x="411.115" y="-214" font-family="Helvetica,sans-Serif" font-size="10.00">+ point()</text>
<text text-anchor="start" x="411.115" y="-204" font-family="Helvetica,sans-Serif" font-size="10.00">+ distance()</text>
<text text-anchor="start" x="411.115" y="-194" font-family="Helvetica,sans-Serif" font-size="10.00">+ heading()</text>
<text text-anchor="start" x="411.115" y="-184" font-family="Helvetica,sans-Serif" font-size="10.00">+ center()</text>
<text text-anchor="start" x="411.115" y="-174" font-family="Helvetica,sans-Serif" font-size="10.00">+ set_heading()</text>
<text text-anchor="start" x="411.115" y="-164" font-family="Helvetica,sans-Serif" font-size="10.00">+ set_selector()</text>
<text text-anchor="start" x="411.115" y="-154" font-family="Helvetica,sans-Serif" font-size="10.00">+ selector()</text>
<text text-anchor="start" x="411.115" y="-144" font-family="Helvetica,sans-Serif" font-size="10.00">+ next()</text>
<text text-anchor="start" x="411.115" y="-134" font-family="Helvetica,sans-Serif" font-size="10.00">+ prev()</text>
<text text-anchor="start" x="411.115" y="-124" font-family="Helvetica,sans-Serif" font-size="10.00">and 13 more...</text>
</a>
</g>
</g>
<!-- Node1&#45;&gt;Node7 -->
<g id="edge6" class="edge"><title>Node1&#45;&gt;Node7</title>
<path fill="none" stroke="midnightblue" d="M387.61,-330.551C396.305,-310.516 405.026,-290.418 412.98,-272.09"/>
<polygon fill="none" stroke="midnightblue" points="384.39,-329.178 383.62,-339.745 390.812,-331.965 384.39,-329.178"/>
</g>
<!-- Node8 -->
<g id="node8" class="node"><title>Node8</title>
<g id="a_node8"><a xlink:href="class_text.html" target="_top" xlink:title="Text Box. ">
<polygon fill="none" stroke="black" points="506.393,-123 506.393,-267 611.607,-267 611.607,-123 506.393,-123"/>
<text text-anchor="middle" x="559" y="-255" font-family="Helvetica,sans-Serif" font-size="10.00">Text</text>
<polyline fill="none" stroke="black" points="506.393,-249 611.607,-249 "/>
<text text-anchor="middle" x="559" y="-237" font-family="Helvetica,sans-Serif" font-size="10.00"> </text>
<polyline fill="none" stroke="black" points="506.393,-231 611.607,-231 "/>
<text text-anchor="start" x="514.393" y="-219" font-family="Helvetica,sans-Serif" font-size="10.00">+ Text()</text>
<text text-anchor="start" x="514.393" y="-209" font-family="Helvetica,sans-Serif" font-size="10.00">+ Text()</text>
<text text-anchor="start" x="514.393" y="-199" font-family="Helvetica,sans-Serif" font-size="10.00">+ prev()</text>
<text text-anchor="start" x="514.393" y="-189" font-family="Helvetica,sans-Serif" font-size="10.00">+ next()</text>
<text text-anchor="start" x="514.393" y="-179" font-family="Helvetica,sans-Serif" font-size="10.00">+ set_text()</text>
<text text-anchor="start" x="514.393" y="-169" font-family="Helvetica,sans-Serif" font-size="10.00">+ text()</text>
<text text-anchor="start" x="514.393" y="-159" font-family="Helvetica,sans-Serif" font-size="10.00">+ set_font_size()</text>
<text text-anchor="start" x="514.393" y="-149" font-family="Helvetica,sans-Serif" font-size="10.00">+ font_size()</text>
<text text-anchor="start" x="514.393" y="-139" font-family="Helvetica,sans-Serif" font-size="10.00">+ scroll()</text>
<text text-anchor="start" x="514.393" y="-129" font-family="Helvetica,sans-Serif" font-size="10.00">+ draw_on_bitmap()</text>
</a>
</g>
</g>
<!-- Node1&#45;&gt;Node8 -->
<g id="edge7" class="edge"><title>Node1&#45;&gt;Node8</title>
<path fill="none" stroke="midnightblue" d="M391.14,-408.758C424.393,-378.267 465.274,-338.018 497,-298 504.596,-288.419 511.984,-277.837 518.856,-267.223"/>
<polygon fill="none" stroke="midnightblue" points="388.77,-406.183 383.734,-415.505 393.484,-411.358 388.77,-406.183"/>
</g>
<!-- Node3 -->
<g id="node3" class="node"><title>Node3</title>
<g id="a_node3"><a xlink:href="class_graph_bar.html" target="_top" xlink:title="Bar Graph Element. ">
<polygon fill="none" stroke="black" points="-0.316406,-1 -0.316406,-55 74.3164,-55 74.3164,-1 -0.316406,-1"/>
<text text-anchor="middle" x="37" y="-43" font-family="Helvetica,sans-Serif" font-size="10.00">GraphBar</text>
<polyline fill="none" stroke="black" points="-0.316406,-37 74.3164,-37 "/>
<text text-anchor="middle" x="37" y="-25" font-family="Helvetica,sans-Serif" font-size="10.00"> </text>
<polyline fill="none" stroke="black" points="-0.316406,-19 74.3164,-19 "/>
<text text-anchor="start" x="7.68359" y="-7" font-family="Helvetica,sans-Serif" font-size="10.00">+ GraphBar()</text>
</a>
</g>
</g>
<!-- Node2&#45;&gt;Node3 -->
<g id="edge2" class="edge"><title>Node2&#45;&gt;Node3</title>
<path fill="none" stroke="midnightblue" d="M66.626,-133.006C59.0017,-106.24 50.4526,-76.2271 44.505,-55.3472"/>
<polygon fill="none" stroke="midnightblue" points="63.2809,-134.039 69.3865,-142.697 70.0131,-132.121 63.2809,-134.039"/>
</g>
<!-- Node4 -->
<g id="node4" class="node"><title>Node4</title>
<g id="a_node4"><a xlink:href="class_graph_line.html" target="_top" xlink:title="Line Graph Element. ">
<polygon fill="none" stroke="black" points="92.0112,-1 92.0112,-55 169.989,-55 169.989,-1 92.0112,-1"/>
<text text-anchor="middle" x="131" y="-43" font-family="Helvetica,sans-Serif" font-size="10.00">GraphLine</text>
<polyline fill="none" stroke="black" points="92.0112,-37 169.989,-37 "/>
<text text-anchor="middle" x="131" y="-25" font-family="Helvetica,sans-Serif" font-size="10.00"> </text>
<polyline fill="none" stroke="black" points="92.0112,-19 169.989,-19 "/>
<text text-anchor="start" x="100.011" y="-7" font-family="Helvetica,sans-Serif" font-size="10.00">+ GraphLine()</text>
</a>
</g>
</g>
<!-- Node2&#45;&gt;Node4 -->
<g id="edge3" class="edge"><title>Node2&#45;&gt;Node4</title>
<path fill="none" stroke="midnightblue" d="M101.374,-133.006C108.998,-106.24 117.547,-76.2271 123.495,-55.3472"/>
<polygon fill="none" stroke="midnightblue" points="97.9869,-132.121 98.6135,-142.697 104.719,-134.039 97.9869,-132.121"/>
</g>
</g>
</svg>
