<?xml version="1.0" encoding="UTF-8" standalone="no"?>
<!DOCTYPE svg PUBLIC "-//W3C//DTD SVG 1.1//EN"
 "http://www.w3.org/Graphics/SVG/1.1/DTD/svg11.dtd">
<!-- Generated by graphviz version 2.36.0 (20140111.2315)
 -->
<!-- Title: AppController Pages: 1 -->
<svg width="384pt" height="568pt"
 viewBox="0.00 0.00 384.00 568.00" xmlns="http://www.w3.org/2000/svg" xmlns:xlink="http://www.w3.org/1999/xlink">
<g id="graph0" class="graph" transform="scale(1 1) rotate(0) translate(4 564)">
<title>AppController</title>
<!-- Node1 -->
<g id="node1" class="node"><title>Node1</title>
<polygon fill="#bfbfbf" stroke="black" points="136.341,-405 136.341,-559 257.659,-559 257.659,-405 136.341,-405"/>
<text text-anchor="middle" x="197" y="-547" font-family="Helvetica,sans-Serif" font-size="10.00">AppController</text>
<polyline fill="none" stroke="black" points="136.341,-541 257.659,-541 "/>
<text text-anchor="middle" x="197" y="-529" font-family="Helvetica,sans-Serif" font-size="10.00"> </text>
<polyline fill="none" stroke="black" points="136.341,-523 257.659,-523 "/>
<text text-anchor="start" x="144.341" y="-511" font-family="Helvetica,sans-Serif" font-size="10.00">+ init()</text>
<text text-anchor="start" x="144.341" y="-501" font-family="Helvetica,sans-Serif" font-size="10.00">+ wait()</text>
<text text-anchor="start" x="144.341" y="-491" font-family="Helvetica,sans-Serif" font-size="10.00">+ animate()</text>
<text text-anchor="start" x="144.341" y="-481" font-family="Helvetica,sans-Serif" font-size="10.00">+ display()</text>
<text text-anchor="start" x="144.341" y="-471" font-family="Helvetica,sans-Serif" font-size="10.00">+ report()</text>
<text text-anchor="start" x="144.341" y="-461" font-family="Helvetica,sans-Serif" font-size="10.00">+ file_font()</text>
<text text-anchor="start" x="144.341" y="-451" font-family="Helvetica,sans-Serif" font-size="10.00">+ set_memory_font()</text>
<text text-anchor="start" x="144.341" y="-441" font-family="Helvetica,sans-Serif" font-size="10.00">+ set_memory_font()</text>
<text text-anchor="start" x="144.341" y="-431" font-family="Helvetica,sans-Serif" font-size="10.00">+ memory_font()</text>
<text text-anchor="start" x="144.341" y="-421" font-family="Helvetica,sans-Serif" font-size="10.00">+ select_memory_font()</text>
<text text-anchor="start" x="144.341" y="-411" font-family="Helvetica,sans-Serif" font-size="10.00">and 10 more...</text>
</g>
<!-- Node2 -->
<g id="node2" class="node"><title>Node2</title>
<g id="a_node2"><a xlink:href="class_app.html" target="_top" xlink:title="App State Machine Class. ">
<polygon fill="none" stroke="black" points="-0.392578,-193 -0.392578,-367 120.393,-367 120.393,-193 -0.392578,-193"/>
<text text-anchor="middle" x="60" y="-355" font-family="Helvetica,sans-Serif" font-size="10.00">App</text>
<polyline fill="none" stroke="black" points="-0.392578,-349 120.393,-349 "/>
<text text-anchor="middle" x="60" y="-337" font-family="Helvetica,sans-Serif" font-size="10.00"> </text>
<polyline fill="none" stroke="black" points="-0.392578,-331 120.393,-331 "/>
<text text-anchor="start" x="7.60742" y="-319" font-family="Helvetica,sans-Serif" font-size="10.00">+ init()</text>
<text text-anchor="start" x="7.60742" y="-309" font-family="Helvetica,sans-Serif" font-size="10.00">+ run()</text>
<text text-anchor="start" x="7.60742" y="-299" font-family="Helvetica,sans-Serif" font-size="10.00">+ draw_element()</text>
<text text-anchor="start" x="7.60742" y="-289" font-family="Helvetica,sans-Serif" font-size="10.00">+ parse_args()</text>
<text text-anchor="start" x="7.60742" y="-279" font-family="Helvetica,sans-Serif" font-size="10.00">+ events()</text>
<text text-anchor="start" x="7.60742" y="-269" font-family="Helvetica,sans-Serif" font-size="10.00">+ events_reset()</text>
<text text-anchor="start" x="7.60742" y="-259" font-family="Helvetica,sans-Serif" font-size="10.00">+ set_default()</text>
<text text-anchor="start" x="7.60742" y="-249" font-family="Helvetica,sans-Serif" font-size="10.00">+ default_element()</text>
<text text-anchor="start" x="7.60742" y="-239" font-family="Helvetica,sans-Serif" font-size="10.00">+ kit()</text>
<text text-anchor="start" x="7.60742" y="-229" font-family="Helvetica,sans-Serif" font-size="10.00">+ set_update_period()</text>
<text text-anchor="start" x="7.60742" y="-219" font-family="Helvetica,sans-Serif" font-size="10.00">+ update_period()</text>
<text text-anchor="start" x="7.60742" y="-209" font-family="Helvetica,sans-Serif" font-size="10.00">+ count_screen_total()</text>
<text text-anchor="start" x="7.60742" y="-199" font-family="Helvetica,sans-Serif" font-size="10.00">+ count_screen_value()</text>
</a>
</g>
</g>
<!-- Node1&#45;&gt;Node2 -->
<g id="edge1" class="edge"><title>Node1&#45;&gt;Node2</title>
<path fill="none" stroke="midnightblue" d="M139.063,-396.421C132.471,-386.798 125.746,-376.979 119.139,-367.334"/>
<polygon fill="none" stroke="midnightblue" points="136.277,-398.546 144.815,-404.818 142.052,-394.59 136.277,-398.546"/>
</g>
<!-- Node3 -->
<g id="node3" class="node"><title>Node3</title>
<g id="a_node3"><a xlink:href="class_app_state.html" target="_top" xlink:title="App State (to be used in a State machine see App) ">
<polygon fill="none" stroke="black" points="138.001,-203 138.001,-357 255.999,-357 255.999,-203 138.001,-203"/>
<text text-anchor="middle" x="197" y="-345" font-family="Helvetica,sans-Serif" font-size="10.00">AppState</text>
<polyline fill="none" stroke="black" points="138.001,-339 255.999,-339 "/>
<text text-anchor="middle" x="197" y="-327" font-family="Helvetica,sans-Serif" font-size="10.00"> </text>
<polyline fill="none" stroke="black" points="138.001,-321 255.999,-321 "/>
<text text-anchor="start" x="146.001" y="-309" font-family="Helvetica,sans-Serif" font-size="10.00">+ AppState()</text>
<text text-anchor="start" x="146.001" y="-299" font-family="Helvetica,sans-Serif" font-size="10.00">+ entry_action()</text>
<text text-anchor="start" x="146.001" y="-289" font-family="Helvetica,sans-Serif" font-size="10.00">+ action()</text>
<text text-anchor="start" x="146.001" y="-279" font-family="Helvetica,sans-Serif" font-size="10.00">+ exit_condition()</text>
<text text-anchor="start" x="146.001" y="-269" font-family="Helvetica,sans-Serif" font-size="10.00">+ set_exit_state_left()</text>
<text text-anchor="start" x="146.001" y="-259" font-family="Helvetica,sans-Serif" font-size="10.00">+ set_exit_state_right()</text>
<text text-anchor="start" x="146.001" y="-249" font-family="Helvetica,sans-Serif" font-size="10.00">+ exit_state_left()</text>
<text text-anchor="start" x="146.001" y="-239" font-family="Helvetica,sans-Serif" font-size="10.00">+ exit_state_right()</text>
<text text-anchor="start" x="146.001" y="-229" font-family="Helvetica,sans-Serif" font-size="10.00"># draw_animation()</text>
<text text-anchor="start" x="146.001" y="-219" font-family="Helvetica,sans-Serif" font-size="10.00"># draw()</text>
<text text-anchor="start" x="146.001" y="-209" font-family="Helvetica,sans-Serif" font-size="10.00"># draw()</text>
</a>
</g>
</g>
<!-- Node1&#45;&gt;Node3 -->
<g id="edge2" class="edge"><title>Node1&#45;&gt;Node3</title>
<path fill="none" stroke="midnightblue" d="M197,-394.503C197,-382.125 197,-369.465 197,-357.301"/>
<polygon fill="none" stroke="midnightblue" points="193.5,-394.818 197,-404.818 200.5,-394.818 193.5,-394.818"/>
</g>
<!-- Node4 -->
<g id="node4" class="node"><title>Node4</title>
<g id="a_node4"><a xlink:href="class_screen.html" target="_top" xlink:title="Screen Class. ">
<polygon fill="none" stroke="black" points="273.669,-233 273.669,-327 368.331,-327 368.331,-233 273.669,-233"/>
<text text-anchor="middle" x="321" y="-315" font-family="Helvetica,sans-Serif" font-size="10.00">Screen</text>
<polyline fill="none" stroke="black" points="273.669,-309 368.331,-309 "/>
<text text-anchor="middle" x="321" y="-297" font-family="Helvetica,sans-Serif" font-size="10.00"> </text>
<polyline fill="none" stroke="black" points="273.669,-291 368.331,-291 "/>
<text text-anchor="start" x="281.669" y="-279" font-family="Helvetica,sans-Serif" font-size="10.00">+ Screen()</text>
<text text-anchor="start" x="281.669" y="-269" font-family="Helvetica,sans-Serif" font-size="10.00">+ menu()</text>
<text text-anchor="start" x="281.669" y="-259" font-family="Helvetica,sans-Serif" font-size="10.00">+ draw()</text>
<text text-anchor="start" x="281.669" y="-249" font-family="Helvetica,sans-Serif" font-size="10.00">+ set_menu()</text>
<text text-anchor="start" x="281.669" y="-239" font-family="Helvetica,sans-Serif" font-size="10.00">+ event_handler()</text>
</a>
</g>
</g>
<!-- Node1&#45;&gt;Node4 -->
<g id="edge3" class="edge"><title>Node1&#45;&gt;Node4</title>
<path fill="none" stroke="midnightblue" d="M249.6,-396.161C264.275,-372.492 279.668,-347.664 292.39,-327.146"/>
<polygon fill="none" stroke="midnightblue" points="246.528,-394.475 244.233,-404.818 252.477,-398.163 246.528,-394.475"/>
</g>
<!-- Node5 -->
<g id="node5" class="node"><title>Node5</title>
<g id="a_node5"><a xlink:href="class_map.html" target="_top" xlink:title="Map Class (for mapping coords to display) ">
<polygon fill="none" stroke="black" points="265.061,-1 265.061,-155 376.939,-155 376.939,-1 265.061,-1"/>
<text text-anchor="middle" x="321" y="-143" font-family="Helvetica,sans-Serif" font-size="10.00">Map</text>
<polyline fill="none" stroke="black" points="265.061,-137 376.939,-137 "/>
<text text-anchor="middle" x="321" y="-125" font-family="Helvetica,sans-Serif" font-size="10.00"> </text>
<polyline fill="none" stroke="black" points="265.061,-119 376.939,-119 "/>
<text text-anchor="start" x="273.061" y="-107" font-family="Helvetica,sans-Serif" font-size="10.00">+ Map()</text>
<text text-anchor="start" x="273.061" y="-97" font-family="Helvetica,sans-Serif" font-size="10.00">+ point()</text>
<text text-anchor="start" x="273.061" y="-87" font-family="Helvetica,sans-Serif" font-size="10.00">+ distance()</text>
<text text-anchor="start" x="273.061" y="-77" font-family="Helvetica,sans-Serif" font-size="10.00">+ heading()</text>
<text text-anchor="start" x="273.061" y="-67" font-family="Helvetica,sans-Serif" font-size="10.00">+ center()</text>
<text text-anchor="start" x="273.061" y="-57" font-family="Helvetica,sans-Serif" font-size="10.00">+ set_heading()</text>
<text text-anchor="start" x="273.061" y="-47" font-family="Helvetica,sans-Serif" font-size="10.00">+ set_selector()</text>
<text text-anchor="start" x="273.061" y="-37" font-family="Helvetica,sans-Serif" font-size="10.00">+ selector()</text>
<text text-anchor="start" x="273.061" y="-27" font-family="Helvetica,sans-Serif" font-size="10.00">+ set_bitmap()</text>
<text text-anchor="start" x="273.061" y="-17" font-family="Helvetica,sans-Serif" font-size="10.00">+ set_max_distance()</text>
<text text-anchor="start" x="273.061" y="-7" font-family="Helvetica,sans-Serif" font-size="10.00">and 19 more...</text>
</a>
</g>
</g>
<!-- Node4&#45;&gt;Node5 -->
<g id="edge4" class="edge"><title>Node4&#45;&gt;Node5</title>
<path fill="none" stroke="midnightblue" d="M321,-222.829C321,-201.816 321,-177.584 321,-155.07"/>
<polygon fill="none" stroke="midnightblue" points="317.5,-222.865 321,-232.865 324.5,-222.865 317.5,-222.865"/>
</g>
</g>
</svg>
