<?xml version="1.0" encoding="UTF-8" standalone="no"?>
<!DOCTYPE svg PUBLIC "-//W3C//DTD SVG 1.1//EN"
 "http://www.w3.org/Graphics/SVG/1.1/DTD/svg11.dtd">
<!-- Generated by graphviz version 2.36.0 (20140111.2315)
 -->
<!-- Title: Element Pages: 1 -->
<svg width="1272pt" height="770pt"
 viewBox="0.00 0.00 1272.00 770.00" xmlns="http://www.w3.org/2000/svg" xmlns:xlink="http://www.w3.org/1999/xlink">
<g id="graph0" class="graph" transform="scale(1 1) rotate(0) translate(4 766)">
<title>Element</title>
<!-- Node1 -->
<g id="node1" class="node"><title>Node1</title>
<polygon fill="#bfbfbf" stroke="black" points="869.527,-507 869.527,-761 974.473,-761 974.473,-507 869.527,-507"/>
<text text-anchor="middle" x="922" y="-749" font-family="Helvetica,sans-Serif" font-size="10.00">Element</text>
<polyline fill="none" stroke="black" points="869.527,-743 974.473,-743 "/>
<text text-anchor="start" x="877.527" y="-731" font-family="Helvetica,sans-Serif" font-size="10.00"># flags</text>
<polyline fill="none" stroke="black" points="869.527,-725 974.473,-725 "/>
<text text-anchor="start" x="877.527" y="-713" font-family="Helvetica,sans-Serif" font-size="10.00">+ Element()</text>
<text text-anchor="start" x="877.527" y="-703" font-family="Helvetica,sans-Serif" font-size="10.00">+ Element()</text>
<text text-anchor="start" x="877.527" y="-693" font-family="Helvetica,sans-Serif" font-size="10.00">+ setup()</text>
<text text-anchor="start" x="877.527" y="-683" font-family="Helvetica,sans-Serif" font-size="10.00">+ parent()</text>
<text text-anchor="start" x="877.527" y="-673" font-family="Helvetica,sans-Serif" font-size="10.00">+ set_parent()</text>
<text text-anchor="start" x="877.527" y="-663" font-family="Helvetica,sans-Serif" font-size="10.00">+ draw()</text>
<text text-anchor="start" x="877.527" y="-653" font-family="Helvetica,sans-Serif" font-size="10.00">+ draw()</text>
<text text-anchor="start" x="877.527" y="-643" font-family="Helvetica,sans-Serif" font-size="10.00">+ draw()</text>
<text text-anchor="start" x="877.527" y="-633" font-family="Helvetica,sans-Serif" font-size="10.00">+ draw()</text>
<text text-anchor="start" x="877.527" y="-623" font-family="Helvetica,sans-Serif" font-size="10.00">+ set_dim()</text>
<text text-anchor="start" x="877.527" y="-613" font-family="Helvetica,sans-Serif" font-size="10.00">and 40 more...</text>
<text text-anchor="start" x="877.527" y="-603" font-family="Helvetica,sans-Serif" font-size="10.00">+ dim_on_bitmap()</text>
<text text-anchor="start" x="877.527" y="-593" font-family="Helvetica,sans-Serif" font-size="10.00">+ center()</text>
<text text-anchor="start" x="877.527" y="-583" font-family="Helvetica,sans-Serif" font-size="10.00">+ scale()</text>
<text text-anchor="start" x="877.527" y="-573" font-family="Helvetica,sans-Serif" font-size="10.00">+ set_scale()</text>
<text text-anchor="start" x="877.527" y="-563" font-family="Helvetica,sans-Serif" font-size="10.00"># draw_scroll()</text>
<text text-anchor="start" x="877.527" y="-553" font-family="Helvetica,sans-Serif" font-size="10.00"># setup_element()</text>
<text text-anchor="start" x="877.527" y="-543" font-family="Helvetica,sans-Serif" font-size="10.00"># dim_on_bitmap()</text>
<text text-anchor="start" x="877.527" y="-533" font-family="Helvetica,sans-Serif" font-size="10.00"># point_on_bitmap()</text>
<text text-anchor="start" x="877.527" y="-523" font-family="Helvetica,sans-Serif" font-size="10.00"># adjust_x_center()</text>
<text text-anchor="start" x="877.527" y="-513" font-family="Helvetica,sans-Serif" font-size="10.00"># pixel_padding()</text>
</g>
<!-- Node2 -->
<g id="node2" class="node"><title>Node2</title>
<g id="a_node2"><a xlink:href="class_edit.html" target="_top" xlink:title="Edit Element. ">
<polygon fill="none" stroke="black" points="360.393,-280 360.393,-454 465.607,-454 465.607,-280 360.393,-280"/>
<text text-anchor="middle" x="413" y="-442" font-family="Helvetica,sans-Serif" font-size="10.00">Edit</text>
<polyline fill="none" stroke="black" points="360.393,-436 465.607,-436 "/>
<text text-anchor="middle" x="413" y="-424" font-family="Helvetica,sans-Serif" font-size="10.00"> </text>
<polyline fill="none" stroke="black" points="360.393,-418 465.607,-418 "/>
<text text-anchor="start" x="368.393" y="-406" font-family="Helvetica,sans-Serif" font-size="10.00">+ Edit()</text>
<text text-anchor="start" x="368.393" y="-396" font-family="Helvetica,sans-Serif" font-size="10.00">+ prev()</text>
<text text-anchor="start" x="368.393" y="-386" font-family="Helvetica,sans-Serif" font-size="10.00">+ next()</text>
<text text-anchor="start" x="368.393" y="-376" font-family="Helvetica,sans-Serif" font-size="10.00">+ select()</text>
<text text-anchor="start" x="368.393" y="-366" font-family="Helvetica,sans-Serif" font-size="10.00">+ exit()</text>
<text text-anchor="start" x="368.393" y="-356" font-family="Helvetica,sans-Serif" font-size="10.00">+ draw()</text>
<text text-anchor="start" x="368.393" y="-346" font-family="Helvetica,sans-Serif" font-size="10.00">+ draw_on_bitmap()</text>
<text text-anchor="start" x="368.393" y="-336" font-family="Helvetica,sans-Serif" font-size="10.00">+ setup_element()</text>
<text text-anchor="start" x="368.393" y="-326" font-family="Helvetica,sans-Serif" font-size="10.00"># increment()</text>
<text text-anchor="start" x="368.393" y="-316" font-family="Helvetica,sans-Serif" font-size="10.00"># decrement()</text>
<text text-anchor="start" x="368.393" y="-306" font-family="Helvetica,sans-Serif" font-size="10.00"># load()</text>
<text text-anchor="start" x="368.393" y="-296" font-family="Helvetica,sans-Serif" font-size="10.00"># save()</text>
<text text-anchor="start" x="368.393" y="-286" font-family="Helvetica,sans-Serif" font-size="10.00"># copy()</text>
</a>
</g>
</g>
<!-- Node1&#45;&gt;Node2 -->
<g id="edge1" class="edge"><title>Node1&#45;&gt;Node2</title>
<path fill="none" stroke="midnightblue" d="M860.277,-600.865C759.265,-548.276 560.426,-444.754 465.65,-395.411"/>
<polygon fill="none" stroke="midnightblue" points="858.959,-604.125 869.445,-605.638 862.192,-597.916 858.959,-604.125"/>
</g>
<!-- Node11 -->
<g id="node11" class="node"><title>Node11</title>
<g id="a_node11"><a xlink:href="class_graph_1_1_object.html" target="_top" xlink:title="Abstract Graph Class. ">
<polygon fill="none" stroke="black" points="684.527,-315 684.527,-419 789.473,-419 789.473,-315 684.527,-315"/>
<text text-anchor="middle" x="737" y="-407" font-family="Helvetica,sans-Serif" font-size="10.00">Graph::Object</text>
<polyline fill="none" stroke="black" points="684.527,-401 789.473,-401 "/>
<text text-anchor="middle" x="737" y="-389" font-family="Helvetica,sans-Serif" font-size="10.00"> </text>
<polyline fill="none" stroke="black" points="684.527,-383 789.473,-383 "/>
<text text-anchor="start" x="692.527" y="-371" font-family="Helvetica,sans-Serif" font-size="10.00">+ Object()</text>
<text text-anchor="start" x="692.527" y="-361" font-family="Helvetica,sans-Serif" font-size="10.00">+ x_axis()</text>
<text text-anchor="start" x="692.527" y="-351" font-family="Helvetica,sans-Serif" font-size="10.00">+ y_axis()</text>
<text text-anchor="start" x="692.527" y="-341" font-family="Helvetica,sans-Serif" font-size="10.00">+ x_data()</text>
<text text-anchor="start" x="692.527" y="-331" font-family="Helvetica,sans-Serif" font-size="10.00">+ y_data()</text>
<text text-anchor="start" x="692.527" y="-321" font-family="Helvetica,sans-Serif" font-size="10.00"># point_on_bitmap()</text>
</a>
</g>
</g>
<!-- Node1&#45;&gt;Node11 -->
<g id="edge10" class="edge"><title>Node1&#45;&gt;Node11</title>
<path fill="none" stroke="midnightblue" d="M863.103,-559.203C841.889,-531.696 818.215,-499.889 798,-470 787.019,-453.763 775.787,-435.53 766.003,-419.019"/>
<polygon fill="none" stroke="midnightblue" points="860.418,-561.453 869.307,-567.218 865.953,-557.168 860.418,-561.453"/>
</g>
<!-- Node14 -->
<g id="node14" class="node"><title>Node14</title>
<g id="a_node14"><a xlink:href="class_label.html" target="_top" xlink:title="Label Element. ">
<polygon fill="none" stroke="black" points="807.393,-315 807.393,-419 912.607,-419 912.607,-315 807.393,-315"/>
<text text-anchor="middle" x="860" y="-407" font-family="Helvetica,sans-Serif" font-size="10.00">Label</text>
<polyline fill="none" stroke="black" points="807.393,-401 912.607,-401 "/>
<text text-anchor="middle" x="860" y="-389" font-family="Helvetica,sans-Serif" font-size="10.00"> </text>
<polyline fill="none" stroke="black" points="807.393,-383 912.607,-383 "/>
<text text-anchor="start" x="815.393" y="-371" font-family="Helvetica,sans-Serif" font-size="10.00">+ Label()</text>
<text text-anchor="start" x="815.393" y="-361" font-family="Helvetica,sans-Serif" font-size="10.00">+ Label()</text>
<text text-anchor="start" x="815.393" y="-351" font-family="Helvetica,sans-Serif" font-size="10.00">+ set_text()</text>
<text text-anchor="start" x="815.393" y="-341" font-family="Helvetica,sans-Serif" font-size="10.00">+ text()</text>
<text text-anchor="start" x="815.393" y="-331" font-family="Helvetica,sans-Serif" font-size="10.00">+ operator=()</text>
<text text-anchor="start" x="815.393" y="-321" font-family="Helvetica,sans-Serif" font-size="10.00">+ draw_on_bitmap()</text>
</a>
</g>
</g>
<!-- Node1&#45;&gt;Node14 -->
<g id="edge13" class="edge"><title>Node1&#45;&gt;Node14</title>
<path fill="none" stroke="midnightblue" d="M890.152,-496.874C883.647,-469.071 877.192,-441.482 871.934,-419.006"/>
<polygon fill="none" stroke="midnightblue" points="886.767,-497.769 892.453,-506.709 893.582,-496.174 886.767,-497.769"/>
</g>
<!-- Node16 -->
<g id="node16" class="node"><title>Node16</title>
<g id="a_node16"><a xlink:href="class_list.html" target="_top" xlink:title="List Class. ">
<polygon fill="none" stroke="black" points="930.29,-265 930.29,-469 1037.71,-469 1037.71,-265 930.29,-265"/>
<text text-anchor="middle" x="984" y="-457" font-family="Helvetica,sans-Serif" font-size="10.00">List</text>
<polyline fill="none" stroke="black" points="930.29,-451 1037.71,-451 "/>
<text text-anchor="start" x="938.29" y="-439" font-family="Helvetica,sans-Serif" font-size="10.00"># _selected</text>
<text text-anchor="start" x="938.29" y="-429" font-family="Helvetica,sans-Serif" font-size="10.00"># _visible_items</text>
<polyline fill="none" stroke="black" points="930.29,-423 1037.71,-423 "/>
<text text-anchor="start" x="938.29" y="-411" font-family="Helvetica,sans-Serif" font-size="10.00">+ List()</text>
<text text-anchor="start" x="938.29" y="-401" font-family="Helvetica,sans-Serif" font-size="10.00">+ set_selected()</text>
<text text-anchor="start" x="938.29" y="-391" font-family="Helvetica,sans-Serif" font-size="10.00">+ selected()</text>
<text text-anchor="start" x="938.29" y="-381" font-family="Helvetica,sans-Serif" font-size="10.00">+ next()</text>
<text text-anchor="start" x="938.29" y="-371" font-family="Helvetica,sans-Serif" font-size="10.00">+ prev()</text>
<text text-anchor="start" x="938.29" y="-361" font-family="Helvetica,sans-Serif" font-size="10.00">+ at()</text>
<text text-anchor="start" x="938.29" y="-351" font-family="Helvetica,sans-Serif" font-size="10.00">+ size()</text>
<text text-anchor="start" x="938.29" y="-341" font-family="Helvetica,sans-Serif" font-size="10.00">+ current()</text>
<text text-anchor="start" x="938.29" y="-331" font-family="Helvetica,sans-Serif" font-size="10.00">+ set_visible_items()</text>
<text text-anchor="start" x="938.29" y="-321" font-family="Helvetica,sans-Serif" font-size="10.00">+ visible_items()</text>
<text text-anchor="start" x="938.29" y="-311" font-family="Helvetica,sans-Serif" font-size="10.00">+ select()</text>
<text text-anchor="start" x="938.29" y="-301" font-family="Helvetica,sans-Serif" font-size="10.00">+ exit()</text>
<text text-anchor="start" x="938.29" y="-291" font-family="Helvetica,sans-Serif" font-size="10.00">+ setup_element()</text>
<text text-anchor="start" x="938.29" y="-281" font-family="Helvetica,sans-Serif" font-size="10.00">+ draw_on_bitmap()</text>
<text text-anchor="start" x="938.29" y="-271" font-family="Helvetica,sans-Serif" font-size="10.00"># init()</text>
</a>
</g>
</g>
<!-- Node1&#45;&gt;Node16 -->
<g id="edge15" class="edge"><title>Node1&#45;&gt;Node16</title>
<path fill="none" stroke="midnightblue" d="M953.885,-496.716C956.04,-487.508 958.188,-478.324 960.29,-469.343"/>
<polygon fill="none" stroke="midnightblue" points="950.418,-496.174 951.547,-506.709 957.233,-497.769 950.418,-496.174"/>
</g>
<!-- Node17 -->
<g id="node17" class="node"><title>Node17</title>
<g id="a_node17"><a xlink:href="class_map.html" target="_top" xlink:title="Map Class (for mapping coords to display) ">
<polygon fill="none" stroke="black" points="1056.11,-290 1056.11,-444 1141.89,-444 1141.89,-290 1056.11,-290"/>
<text text-anchor="middle" x="1099" y="-432" font-family="Helvetica,sans-Serif" font-size="10.00">Map</text>
<polyline fill="none" stroke="black" points="1056.11,-426 1141.89,-426 "/>
<text text-anchor="middle" x="1099" y="-414" font-family="Helvetica,sans-Serif" font-size="10.00"> </text>
<polyline fill="none" stroke="black" points="1056.11,-408 1141.89,-408 "/>
<text text-anchor="start" x="1064.11" y="-396" font-family="Helvetica,sans-Serif" font-size="10.00">+ Map()</text>
<text text-anchor="start" x="1064.11" y="-386" font-family="Helvetica,sans-Serif" font-size="10.00">+ point()</text>
<text text-anchor="start" x="1064.11" y="-376" font-family="Helvetica,sans-Serif" font-size="10.00">+ distance()</text>
<text text-anchor="start" x="1064.11" y="-366" font-family="Helvetica,sans-Serif" font-size="10.00">+ heading()</text>
<text text-anchor="start" x="1064.11" y="-356" font-family="Helvetica,sans-Serif" font-size="10.00">+ center()</text>
<text text-anchor="start" x="1064.11" y="-346" font-family="Helvetica,sans-Serif" font-size="10.00">+ set_heading()</text>
<text text-anchor="start" x="1064.11" y="-336" font-family="Helvetica,sans-Serif" font-size="10.00">+ set_selector()</text>
<text text-anchor="start" x="1064.11" y="-326" font-family="Helvetica,sans-Serif" font-size="10.00">+ selector()</text>
<text text-anchor="start" x="1064.11" y="-316" font-family="Helvetica,sans-Serif" font-size="10.00">+ next()</text>
<text text-anchor="start" x="1064.11" y="-306" font-family="Helvetica,sans-Serif" font-size="10.00">+ prev()</text>
<text text-anchor="start" x="1064.11" y="-296" font-family="Helvetica,sans-Serif" font-size="10.00">and 13 more...</text>
</a>
</g>
</g>
<!-- Node1&#45;&gt;Node17 -->
<g id="edge16" class="edge"><title>Node1&#45;&gt;Node17</title>
<path fill="none" stroke="midnightblue" d="M981.024,-560.954C1002.57,-533.269 1026.43,-500.89 1046,-470 1051.23,-461.74 1056.41,-452.905 1061.35,-444.018"/>
<polygon fill="none" stroke="midnightblue" points="978.126,-558.978 974.718,-569.009 983.638,-563.292 978.126,-558.978"/>
</g>
<!-- Node18 -->
<g id="node18" class="node"><title>Node18</title>
<g id="a_node18"><a xlink:href="class_text.html" target="_top" xlink:title="Text Box. ">
<polygon fill="none" stroke="black" points="1159.39,-295 1159.39,-439 1264.61,-439 1264.61,-295 1159.39,-295"/>
<text text-anchor="middle" x="1212" y="-427" font-family="Helvetica,sans-Serif" font-size="10.00">Text</text>
<polyline fill="none" stroke="black" points="1159.39,-421 1264.61,-421 "/>
<text text-anchor="middle" x="1212" y="-409" font-family="Helvetica,sans-Serif" font-size="10.00"> </text>
<polyline fill="none" stroke="black" points="1159.39,-403 1264.61,-403 "/>
<text text-anchor="start" x="1167.39" y="-391" font-family="Helvetica,sans-Serif" font-size="10.00">+ Text()</text>
<text text-anchor="start" x="1167.39" y="-381" font-family="Helvetica,sans-Serif" font-size="10.00">+ Text()</text>
<text text-anchor="start" x="1167.39" y="-371" font-family="Helvetica,sans-Serif" font-size="10.00">+ prev()</text>
<text text-anchor="start" x="1167.39" y="-361" font-family="Helvetica,sans-Serif" font-size="10.00">+ next()</text>
<text text-anchor="start" x="1167.39" y="-351" font-family="Helvetica,sans-Serif" font-size="10.00">+ set_text()</text>
<text text-anchor="start" x="1167.39" y="-341" font-family="Helvetica,sans-Serif" font-size="10.00">+ text()</text>
<text text-anchor="start" x="1167.39" y="-331" font-family="Helvetica,sans-Serif" font-size="10.00">+ set_font_size()</text>
<text text-anchor="start" x="1167.39" y="-321" font-family="Helvetica,sans-Serif" font-size="10.00">+ font_size()</text>
<text text-anchor="start" x="1167.39" y="-311" font-family="Helvetica,sans-Serif" font-size="10.00">+ scroll()</text>
<text text-anchor="start" x="1167.39" y="-301" font-family="Helvetica,sans-Serif" font-size="10.00">+ draw_on_bitmap()</text>
</a>
</g>
</g>
<!-- Node1&#45;&gt;Node18 -->
<g id="edge17" class="edge"><title>Node1&#45;&gt;Node18</title>
<path fill="none" stroke="midnightblue" d="M983.234,-598.693C1032.36,-569.082 1100.97,-522.821 1150,-470 1158.6,-460.735 1166.62,-450.094 1173.85,-439.258"/>
<polygon fill="none" stroke="midnightblue" points="981.397,-595.714 974.604,-603.845 984.985,-601.724 981.397,-595.714"/>
</g>
<!-- Node3 -->
<g id="node3" class="node"><title>Node3</title>
<g id="a_node3"><a xlink:href="class_edit_setting_int.html" target="_top" xlink:title="Edit Integer Class. ">
<polygon fill="none" stroke="black" points="50.6196,-113 50.6196,-227 141.38,-227 141.38,-113 50.6196,-113"/>
<text text-anchor="middle" x="96" y="-215" font-family="Helvetica,sans-Serif" font-size="10.00">EditSettingInt</text>
<polyline fill="none" stroke="black" points="50.6196,-209 141.38,-209 "/>
<text text-anchor="middle" x="96" y="-197" font-family="Helvetica,sans-Serif" font-size="10.00"> </text>
<polyline fill="none" stroke="black" points="50.6196,-191 141.38,-191 "/>
<text text-anchor="start" x="58.6196" y="-179" font-family="Helvetica,sans-Serif" font-size="10.00">+ EditSettingInt()</text>
<text text-anchor="start" x="58.6196" y="-169" font-family="Helvetica,sans-Serif" font-size="10.00">+ EditSettingInt()</text>
<text text-anchor="start" x="58.6196" y="-159" font-family="Helvetica,sans-Serif" font-size="10.00">+ increment()</text>
<text text-anchor="start" x="58.6196" y="-149" font-family="Helvetica,sans-Serif" font-size="10.00">+ decrement()</text>
<text text-anchor="start" x="58.6196" y="-139" font-family="Helvetica,sans-Serif" font-size="10.00">+ load()</text>
<text text-anchor="start" x="58.6196" y="-129" font-family="Helvetica,sans-Serif" font-size="10.00">+ save()</text>
<text text-anchor="start" x="58.6196" y="-119" font-family="Helvetica,sans-Serif" font-size="10.00">+ copy()</text>
</a>
</g>
</g>
<!-- Node2&#45;&gt;Node3 -->
<g id="edge2" class="edge"><title>Node2&#45;&gt;Node3</title>
<path fill="none" stroke="midnightblue" d="M350.846,-340.075C295.601,-315.493 214.056,-275.344 151,-228 147.811,-225.606 144.639,-223.022 141.52,-220.323"/>
<polygon fill="none" stroke="midnightblue" points="349.599,-343.35 360.161,-344.183 352.424,-336.945 349.599,-343.35"/>
</g>
<!-- Node4 -->
<g id="node4" class="node"><title>Node4</title>
<g id="a_node4"><a xlink:href="class_edit_sys_brightness.html" target="_top" xlink:title="Edit System Brightness. ">
<polygon fill="none" stroke="black" points="159.787,-118 159.787,-222 272.213,-222 272.213,-118 159.787,-118"/>
<text text-anchor="middle" x="216" y="-210" font-family="Helvetica,sans-Serif" font-size="10.00">EditSysBrightness</text>
<polyline fill="none" stroke="black" points="159.787,-204 272.213,-204 "/>
<text text-anchor="start" x="167.787" y="-192" font-family="Helvetica,sans-Serif" font-size="10.00"># brightness</text>
<polyline fill="none" stroke="black" points="159.787,-186 272.213,-186 "/>
<text text-anchor="start" x="167.787" y="-174" font-family="Helvetica,sans-Serif" font-size="10.00">+ EditSysBrightness()</text>
<text text-anchor="start" x="167.787" y="-164" font-family="Helvetica,sans-Serif" font-size="10.00">+ increment()</text>
<text text-anchor="start" x="167.787" y="-154" font-family="Helvetica,sans-Serif" font-size="10.00">+ decrement()</text>
<text text-anchor="start" x="167.787" y="-144" font-family="Helvetica,sans-Serif" font-size="10.00">+ load()</text>
<text text-anchor="start" x="167.787" y="-134" font-family="Helvetica,sans-Serif" font-size="10.00">+ save()</text>
<text text-anchor="start" x="167.787" y="-124" font-family="Helvetica,sans-Serif" font-size="10.00">+ copy()</text>
</a>
</g>
</g>
<!-- Node2&#45;&gt;Node4 -->
<g id="edge3" class="edge"><title>Node2&#45;&gt;Node4</title>
<path fill="none" stroke="midnightblue" d="M353.013,-306.622C325.728,-279.614 293.763,-247.974 267.574,-222.051"/>
<polygon fill="none" stroke="midnightblue" points="350.638,-309.196 360.208,-313.744 355.563,-304.221 350.638,-309.196"/>
</g>
<!-- Node8 -->
<g id="node8" class="node"><title>Node8</title>
<g id="a_node8"><a xlink:href="class_edit_sys_long_press.html" target="_top" xlink:title="Edit System Long Press Setting. ">
<polygon fill="none" stroke="black" points="290.506,-118 290.506,-222 403.494,-222 403.494,-118 290.506,-118"/>
<text text-anchor="middle" x="347" y="-210" font-family="Helvetica,sans-Serif" font-size="10.00">EditSysLongPress</text>
<polyline fill="none" stroke="black" points="290.506,-204 403.494,-204 "/>
<text text-anchor="middle" x="347" y="-192" font-family="Helvetica,sans-Serif" font-size="10.00"> </text>
<polyline fill="none" stroke="black" points="290.506,-186 403.494,-186 "/>
<text text-anchor="start" x="298.506" y="-174" font-family="Helvetica,sans-Serif" font-size="10.00">+ EditSysLongPress()</text>
<text text-anchor="start" x="298.506" y="-164" font-family="Helvetica,sans-Serif" font-size="10.00">+ increment()</text>
<text text-anchor="start" x="298.506" y="-154" font-family="Helvetica,sans-Serif" font-size="10.00">+ decrement()</text>
<text text-anchor="start" x="298.506" y="-144" font-family="Helvetica,sans-Serif" font-size="10.00">+ load()</text>
<text text-anchor="start" x="298.506" y="-134" font-family="Helvetica,sans-Serif" font-size="10.00">+ save()</text>
<text text-anchor="start" x="298.506" y="-124" font-family="Helvetica,sans-Serif" font-size="10.00">+ copy()</text>
</a>
</g>
</g>
<!-- Node2&#45;&gt;Node8 -->
<g id="edge7" class="edge"><title>Node2&#45;&gt;Node8</title>
<path fill="none" stroke="midnightblue" d="M380.567,-270.174C374.962,-253.615 369.335,-236.991 364.334,-222.214"/>
<polygon fill="none" stroke="midnightblue" points="377.338,-271.552 383.859,-279.903 383.969,-269.308 377.338,-271.552"/>
</g>
<!-- Node9 -->
<g id="node9" class="node"><title>Node9</title>
<g id="a_node9"><a xlink:href="class_edit_sys_short_press.html" target="_top" xlink:title="Edit System Short Press Setting. ">
<polygon fill="none" stroke="black" points="421.679,-118 421.679,-222 536.321,-222 536.321,-118 421.679,-118"/>
<text text-anchor="middle" x="479" y="-210" font-family="Helvetica,sans-Serif" font-size="10.00">EditSysShortPress</text>
<polyline fill="none" stroke="black" points="421.679,-204 536.321,-204 "/>
<text text-anchor="middle" x="479" y="-192" font-family="Helvetica,sans-Serif" font-size="10.00"> </text>
<polyline fill="none" stroke="black" points="421.679,-186 536.321,-186 "/>
<text text-anchor="start" x="429.679" y="-174" font-family="Helvetica,sans-Serif" font-size="10.00">+ EditSysShortPress()</text>
<text text-anchor="start" x="429.679" y="-164" font-family="Helvetica,sans-Serif" font-size="10.00">+ increment()</text>
<text text-anchor="start" x="429.679" y="-154" font-family="Helvetica,sans-Serif" font-size="10.00">+ decrement()</text>
<text text-anchor="start" x="429.679" y="-144" font-family="Helvetica,sans-Serif" font-size="10.00">+ load()</text>
<text text-anchor="start" x="429.679" y="-134" font-family="Helvetica,sans-Serif" font-size="10.00">+ save()</text>
<text text-anchor="start" x="429.679" y="-124" font-family="Helvetica,sans-Serif" font-size="10.00">+ copy()</text>
</a>
</g>
</g>
<!-- Node2&#45;&gt;Node9 -->
<g id="edge8" class="edge"><title>Node2&#45;&gt;Node9</title>
<path fill="none" stroke="midnightblue" d="M445.433,-270.174C451.038,-253.615 456.665,-236.991 461.666,-222.214"/>
<polygon fill="none" stroke="midnightblue" points="442.031,-269.308 442.141,-279.903 448.662,-271.552 442.031,-269.308"/>
</g>
<!-- Node10 -->
<g id="node10" class="node"><title>Node10</title>
<g id="a_node10"><a xlink:href="class_edit_sys_units.html" target="_top" xlink:title="Edit System Units Setting. ">
<polygon fill="none" stroke="black" points="554.019,-118 554.019,-222 641.981,-222 641.981,-118 554.019,-118"/>
<text text-anchor="middle" x="598" y="-210" font-family="Helvetica,sans-Serif" font-size="10.00">EditSysUnits</text>
<polyline fill="none" stroke="black" points="554.019,-204 641.981,-204 "/>
<text text-anchor="middle" x="598" y="-192" font-family="Helvetica,sans-Serif" font-size="10.00"> </text>
<polyline fill="none" stroke="black" points="554.019,-186 641.981,-186 "/>
<text text-anchor="start" x="562.019" y="-174" font-family="Helvetica,sans-Serif" font-size="10.00">+ EditSysUnits()</text>
<text text-anchor="start" x="562.019" y="-164" font-family="Helvetica,sans-Serif" font-size="10.00">+ increment()</text>
<text text-anchor="start" x="562.019" y="-154" font-family="Helvetica,sans-Serif" font-size="10.00">+ decrement()</text>
<text text-anchor="start" x="562.019" y="-144" font-family="Helvetica,sans-Serif" font-size="10.00">+ load()</text>
<text text-anchor="start" x="562.019" y="-134" font-family="Helvetica,sans-Serif" font-size="10.00">+ save()</text>
<text text-anchor="start" x="562.019" y="-124" font-family="Helvetica,sans-Serif" font-size="10.00">+ copy()</text>
</a>
</g>
</g>
<!-- Node2&#45;&gt;Node10 -->
<g id="edge9" class="edge"><title>Node2&#45;&gt;Node10</title>
<path fill="none" stroke="midnightblue" d="M472.778,-303.879C495.469,-280.2 521.5,-252.919 545,-228 547.874,-224.953 550.829,-221.807 553.804,-218.633"/>
<polygon fill="none" stroke="midnightblue" points="470.244,-301.464 465.849,-311.105 475.297,-306.309 470.244,-301.464"/>
</g>
<!-- Node5 -->
<g id="node5" class="node"><title>Node5</title>
<g id="a_node5"><a xlink:href="class_edit_sys_brightness_high.html" target="_top" xlink:title="Edit System High Brightness Class. ">
<polygon fill="none" stroke="black" points="-0.496094,-1 -0.496094,-75 132.496,-75 132.496,-1 -0.496094,-1"/>
<text text-anchor="middle" x="66" y="-63" font-family="Helvetica,sans-Serif" font-size="10.00">EditSysBrightnessHigh</text>
<polyline fill="none" stroke="black" points="-0.496094,-57 132.496,-57 "/>
<text text-anchor="middle" x="66" y="-45" font-family="Helvetica,sans-Serif" font-size="10.00"> </text>
<polyline fill="none" stroke="black" points="-0.496094,-39 132.496,-39 "/>
<text text-anchor="start" x="7.50391" y="-27" font-family="Helvetica,sans-Serif" font-size="10.00">+ EditSysBrightnessHigh()</text>
<text text-anchor="start" x="7.50391" y="-17" font-family="Helvetica,sans-Serif" font-size="10.00">+ load()</text>
<text text-anchor="start" x="7.50391" y="-7" font-family="Helvetica,sans-Serif" font-size="10.00">+ save()</text>
</a>
</g>
</g>
<!-- Node4&#45;&gt;Node5 -->
<g id="edge4" class="edge"><title>Node4&#45;&gt;Node5</title>
<path fill="none" stroke="midnightblue" d="M151.938,-113.48C136.93,-100.473 121.325,-86.9484 107.597,-75.0504"/>
<polygon fill="none" stroke="midnightblue" points="149.87,-116.319 159.719,-120.223 154.454,-111.029 149.87,-116.319"/>
</g>
<!-- Node6 -->
<g id="node6" class="node"><title>Node6</title>
<g id="a_node6"><a xlink:href="class_edit_sys_brightness_low.html" target="_top" xlink:title="Edit System Low Brightness Class. ">
<polygon fill="none" stroke="black" points="150.615,-1 150.615,-75 281.385,-75 281.385,-1 150.615,-1"/>
<text text-anchor="middle" x="216" y="-63" font-family="Helvetica,sans-Serif" font-size="10.00">EditSysBrightnessLow</text>
<polyline fill="none" stroke="black" points="150.615,-57 281.385,-57 "/>
<text text-anchor="middle" x="216" y="-45" font-family="Helvetica,sans-Serif" font-size="10.00"> </text>
<polyline fill="none" stroke="black" points="150.615,-39 281.385,-39 "/>
<text text-anchor="start" x="158.615" y="-27" font-family="Helvetica,sans-Serif" font-size="10.00">+ EditSysBrightnessLow()</text>
<text text-anchor="start" x="158.615" y="-17" font-family="Helvetica,sans-Serif" font-size="10.00">+ load()</text>
<text text-anchor="start" x="158.615" y="-7" font-family="Helvetica,sans-Serif" font-size="10.00">+ save()</text>
</a>
</g>
</g>
<!-- Node4&#45;&gt;Node6 -->
<g id="edge5" class="edge"><title>Node4&#45;&gt;Node6</title>
<path fill="none" stroke="midnightblue" d="M216,-107.771C216,-96.5521 216,-85.1827 216,-75.0059"/>
<polygon fill="none" stroke="midnightblue" points="212.5,-107.994 216,-117.994 219.5,-107.994 212.5,-107.994"/>
</g>
<!-- Node7 -->
<g id="node7" class="node"><title>Node7</title>
<g id="a_node7"><a xlink:href="class_edit_sys_brightness_med.html" target="_top" xlink:title="Edit System Med Brightness Class. ">
<polygon fill="none" stroke="black" points="299.061,-1 299.061,-75 430.939,-75 430.939,-1 299.061,-1"/>
<text text-anchor="middle" x="365" y="-63" font-family="Helvetica,sans-Serif" font-size="10.00">EditSysBrightnessMed</text>
<polyline fill="none" stroke="black" points="299.061,-57 430.939,-57 "/>
<text text-anchor="middle" x="365" y="-45" font-family="Helvetica,sans-Serif" font-size="10.00"> </text>
<polyline fill="none" stroke="black" points="299.061,-39 430.939,-39 "/>
<text text-anchor="start" x="307.061" y="-27" font-family="Helvetica,sans-Serif" font-size="10.00">+ EditSysBrightnessMed()</text>
<text text-anchor="start" x="307.061" y="-17" font-family="Helvetica,sans-Serif" font-size="10.00">+ load()</text>
<text text-anchor="start" x="307.061" y="-7" font-family="Helvetica,sans-Serif" font-size="10.00">+ save()</text>
</a>
</g>
</g>
<!-- Node4&#45;&gt;Node7 -->
<g id="edge6" class="edge"><title>Node4&#45;&gt;Node7</title>
<path fill="none" stroke="midnightblue" d="M279.966,-113.19C294.69,-100.344 309.974,-87.0092 323.455,-75.2473"/>
<polygon fill="none" stroke="midnightblue" points="277.565,-110.641 272.331,-119.853 282.167,-115.916 277.565,-110.641"/>
</g>
<!-- Node12 -->
<g id="node12" class="node"><title>Node12</title>
<g id="a_node12"><a xlink:href="class_graph_bar.html" target="_top" xlink:title="Bar Graph Element. ">
<polygon fill="none" stroke="black" points="659.684,-143 659.684,-197 734.316,-197 734.316,-143 659.684,-143"/>
<text text-anchor="middle" x="697" y="-185" font-family="Helvetica,sans-Serif" font-size="10.00">GraphBar</text>
<polyline fill="none" stroke="black" points="659.684,-179 734.316,-179 "/>
<text text-anchor="middle" x="697" y="-167" font-family="Helvetica,sans-Serif" font-size="10.00"> </text>
<polyline fill="none" stroke="black" points="659.684,-161 734.316,-161 "/>
<text text-anchor="start" x="667.684" y="-149" font-family="Helvetica,sans-Serif" font-size="10.00">+ GraphBar()</text>
</a>
</g>
</g>
<!-- Node11&#45;&gt;Node12 -->
<g id="edge11" class="edge"><title>Node11&#45;&gt;Node12</title>
<path fill="none" stroke="midnightblue" d="M724.441,-304.773C717.008,-268.538 707.976,-224.507 702.356,-197.112"/>
<polygon fill="none" stroke="midnightblue" points="721.052,-305.673 726.49,-314.766 727.91,-304.267 721.052,-305.673"/>
</g>
<!-- Node13 -->
<g id="node13" class="node"><title>Node13</title>
<g id="a_node13"><a xlink:href="class_graph_line.html" target="_top" xlink:title="Line Graph Element. ">
<polygon fill="none" stroke="black" points="752.011,-143 752.011,-197 829.989,-197 829.989,-143 752.011,-143"/>
<text text-anchor="middle" x="791" y="-185" font-family="Helvetica,sans-Serif" font-size="10.00">GraphLine</text>
<polyline fill="none" stroke="black" points="752.011,-179 829.989,-179 "/>
<text text-anchor="middle" x="791" y="-167" font-family="Helvetica,sans-Serif" font-size="10.00"> </text>
<polyline fill="none" stroke="black" points="752.011,-161 829.989,-161 "/>
<text text-anchor="start" x="760.011" y="-149" font-family="Helvetica,sans-Serif" font-size="10.00">+ GraphLine()</text>
</a>
</g>
</g>
<!-- Node11&#45;&gt;Node13 -->
<g id="edge12" class="edge"><title>Node11&#45;&gt;Node13</title>
<path fill="none" stroke="midnightblue" d="M753.955,-304.773C763.99,-268.538 776.183,-224.507 783.769,-197.112"/>
<polygon fill="none" stroke="midnightblue" points="750.484,-304.195 751.188,-314.766 757.23,-306.063 750.484,-304.195"/>
</g>
<!-- Node15 -->
<g id="node15" class="node"><title>Node15</title>
<g id="a_node15"><a xlink:href="class_label_metric.html" target="_top" xlink:title="Label with Value Class. ">
<polygon fill="none" stroke="black" points="848.393,-118 848.393,-222 953.607,-222 953.607,-118 848.393,-118"/>
<text text-anchor="middle" x="901" y="-210" font-family="Helvetica,sans-Serif" font-size="10.00">LabelMetric</text>
<polyline fill="none" stroke="black" points="848.393,-204 953.607,-204 "/>
<text text-anchor="middle" x="901" y="-192" font-family="Helvetica,sans-Serif" font-size="10.00"> </text>
<polyline fill="none" stroke="black" points="848.393,-186 953.607,-186 "/>
<text text-anchor="start" x="856.393" y="-174" font-family="Helvetica,sans-Serif" font-size="10.00">+ LabelMetric()</text>
<text text-anchor="start" x="856.393" y="-164" font-family="Helvetica,sans-Serif" font-size="10.00">+ LabelMetric()</text>
<text text-anchor="start" x="856.393" y="-154" font-family="Helvetica,sans-Serif" font-size="10.00">+ set_units()</text>
<text text-anchor="start" x="856.393" y="-144" font-family="Helvetica,sans-Serif" font-size="10.00">+ units()</text>
<text text-anchor="start" x="856.393" y="-134" font-family="Helvetica,sans-Serif" font-size="10.00">+ set()</text>
<text text-anchor="start" x="856.393" y="-124" font-family="Helvetica,sans-Serif" font-size="10.00">+ draw_on_bitmap()</text>
</a>
</g>
</g>
<!-- Node14&#45;&gt;Node15 -->
<g id="edge14" class="edge"><title>Node14&#45;&gt;Node15</title>
<path fill="none" stroke="midnightblue" d="M872.864,-304.819C878.444,-278.276 884.906,-247.544 890.229,-222.23"/>
<polygon fill="none" stroke="midnightblue" points="869.405,-304.26 870.772,-314.766 876.255,-305.7 869.405,-304.26"/>
</g>
</g>
</svg>
