<?xml version="1.0" encoding="UTF-8" standalone="no"?>
<!DOCTYPE svg PUBLIC "-//W3C//DTD SVG 1.1//EN"
 "http://www.w3.org/Graphics/SVG/1.1/DTD/svg11.dtd">
<!-- Generated by graphviz version 2.36.0 (20140111.2315)
 -->
<!-- Title: Element Pages: 1 -->
<svg width="545pt" height="488pt"
 viewBox="0.00 0.00 545.00 488.00" xmlns="http://www.w3.org/2000/svg" xmlns:xlink="http://www.w3.org/1999/xlink">
<g id="graph0" class="graph" transform="scale(1 1) rotate(0) translate(4 484)">
<title>Element</title>
<!-- Node1 -->
<g id="node1" class="node"><title>Node1</title>
<polygon fill="#bfbfbf" stroke="black" points="217.844,-305 217.844,-479 334.156,-479 334.156,-305 217.844,-305"/>
<text text-anchor="middle" x="276" y="-467" font-family="Helvetica,sans-Serif" font-size="10.00">Element</text>
<polyline fill="none" stroke="black" points="217.844,-461 334.156,-461 "/>
<text text-anchor="middle" x="276" y="-449" font-family="Helvetica,sans-Serif" font-size="10.00"> </text>
<polyline fill="none" stroke="black" points="217.844,-443 334.156,-443 "/>
<text text-anchor="start" x="225.844" y="-431" font-family="Helvetica,sans-Serif" font-size="10.00">+ Element()</text>
<text text-anchor="start" x="225.844" y="-421" font-family="Helvetica,sans-Serif" font-size="10.00">+ enabled()</text>
<text text-anchor="start" x="225.844" y="-411" font-family="Helvetica,sans-Serif" font-size="10.00">+ set_enabled()</text>
<text text-anchor="start" x="225.844" y="-401" font-family="Helvetica,sans-Serif" font-size="10.00">+ cancelled()</text>
<text text-anchor="start" x="225.844" y="-391" font-family="Helvetica,sans-Serif" font-size="10.00">+ set_cancel()</text>
<text text-anchor="start" x="225.844" y="-381" font-family="Helvetica,sans-Serif" font-size="10.00">+ confirmed()</text>
<text text-anchor="start" x="225.844" y="-371" font-family="Helvetica,sans-Serif" font-size="10.00">+ set_confirm()</text>
<text text-anchor="start" x="225.844" y="-361" font-family="Helvetica,sans-Serif" font-size="10.00">+ scroll_visible()</text>
<text text-anchor="start" x="225.844" y="-351" font-family="Helvetica,sans-Serif" font-size="10.00">+ set_scroll_visible()</text>
<text text-anchor="start" x="225.844" y="-341" font-family="Helvetica,sans-Serif" font-size="10.00">+ exclusive_checklist()</text>
<text text-anchor="start" x="225.844" y="-331" font-family="Helvetica,sans-Serif" font-size="10.00">and 7 more...</text>
<text text-anchor="start" x="225.844" y="-321" font-family="Helvetica,sans-Serif" font-size="10.00"># draw_scroll()</text>
<text text-anchor="start" x="225.844" y="-311" font-family="Helvetica,sans-Serif" font-size="10.00"># adjust_x_center()</text>
</g>
<!-- Node2 -->
<g id="node2" class="node"><title>Node2</title>
<g id="a_node2"><a xlink:href="class_graph_1_1_object.html" target="_top" xlink:title="Abstract Graph Class. ">
<polygon fill="none" stroke="black" points="31.5273,-128 31.5273,-232 136.473,-232 136.473,-128 31.5273,-128"/>
<text text-anchor="middle" x="84" y="-220" font-family="Helvetica,sans-Serif" font-size="10.00">Graph::Object</text>
<polyline fill="none" stroke="black" points="31.5273,-214 136.473,-214 "/>
<text text-anchor="middle" x="84" y="-202" font-family="Helvetica,sans-Serif" font-size="10.00"> </text>
<polyline fill="none" stroke="black" points="31.5273,-196 136.473,-196 "/>
<text text-anchor="start" x="39.5273" y="-184" font-family="Helvetica,sans-Serif" font-size="10.00">+ Object()</text>
<text text-anchor="start" x="39.5273" y="-174" font-family="Helvetica,sans-Serif" font-size="10.00">+ x_axis()</text>
<text text-anchor="start" x="39.5273" y="-164" font-family="Helvetica,sans-Serif" font-size="10.00">+ y_axis()</text>
<text text-anchor="start" x="39.5273" y="-154" font-family="Helvetica,sans-Serif" font-size="10.00">+ x_data()</text>
<text text-anchor="start" x="39.5273" y="-144" font-family="Helvetica,sans-Serif" font-size="10.00">+ y_data()</text>
<text text-anchor="start" x="39.5273" y="-134" font-family="Helvetica,sans-Serif" font-size="10.00"># point_on_bitmap()</text>
</a>
</g>
</g>
<!-- Node1&#45;&gt;Node2 -->
<g id="edge1" class="edge"><title>Node1&#45;&gt;Node2</title>
<path fill="none" stroke="midnightblue" d="M210.147,-334.092C188.457,-314.09 164.833,-290.879 145,-268 135.334,-256.849 125.752,-244.171 117.146,-232.01"/>
<polygon fill="none" stroke="midnightblue" points="207.988,-336.861 217.729,-341.028 212.712,-331.696 207.988,-336.861"/>
</g>
<!-- Node5 -->
<g id="node5" class="node"><title>Node5</title>
<g id="a_node5"><a xlink:href="class_map.html" target="_top" xlink:title="Map Class (for mapping coords to display) ">
<polygon fill="none" stroke="black" points="154.061,-103 154.061,-257 265.939,-257 265.939,-103 154.061,-103"/>
<text text-anchor="middle" x="210" y="-245" font-family="Helvetica,sans-Serif" font-size="10.00">Map</text>
<polyline fill="none" stroke="black" points="154.061,-239 265.939,-239 "/>
<text text-anchor="middle" x="210" y="-227" font-family="Helvetica,sans-Serif" font-size="10.00"> </text>
<polyline fill="none" stroke="black" points="154.061,-221 265.939,-221 "/>
<text text-anchor="start" x="162.061" y="-209" font-family="Helvetica,sans-Serif" font-size="10.00">+ Map()</text>
<text text-anchor="start" x="162.061" y="-199" font-family="Helvetica,sans-Serif" font-size="10.00">+ point()</text>
<text text-anchor="start" x="162.061" y="-189" font-family="Helvetica,sans-Serif" font-size="10.00">+ distance()</text>
<text text-anchor="start" x="162.061" y="-179" font-family="Helvetica,sans-Serif" font-size="10.00">+ heading()</text>
<text text-anchor="start" x="162.061" y="-169" font-family="Helvetica,sans-Serif" font-size="10.00">+ center()</text>
<text text-anchor="start" x="162.061" y="-159" font-family="Helvetica,sans-Serif" font-size="10.00">+ set_heading()</text>
<text text-anchor="start" x="162.061" y="-149" font-family="Helvetica,sans-Serif" font-size="10.00">+ set_selector()</text>
<text text-anchor="start" x="162.061" y="-139" font-family="Helvetica,sans-Serif" font-size="10.00">+ selector()</text>
<text text-anchor="start" x="162.061" y="-129" font-family="Helvetica,sans-Serif" font-size="10.00">+ set_bitmap()</text>
<text text-anchor="start" x="162.061" y="-119" font-family="Helvetica,sans-Serif" font-size="10.00">+ set_max_distance()</text>
<text text-anchor="start" x="162.061" y="-109" font-family="Helvetica,sans-Serif" font-size="10.00">and 19 more...</text>
</a>
</g>
</g>
<!-- Node1&#45;&gt;Node5 -->
<g id="edge4" class="edge"><title>Node1&#45;&gt;Node5</title>
<path fill="none" stroke="midnightblue" d="M245.909,-295.254C241.892,-282.474 237.817,-269.509 233.925,-257.126"/>
<polygon fill="none" stroke="midnightblue" points="242.628,-296.489 248.965,-304.979 249.305,-294.39 242.628,-296.489"/>
</g>
<!-- Node6 -->
<g id="node6" class="node"><title>Node6</title>
<g id="a_node6"><a xlink:href="class_morse_input.html" target="_top" xlink:title="Morse Input Class. ">
<polygon fill="none" stroke="black" points="283.723,-103 283.723,-257 402.277,-257 402.277,-103 283.723,-103"/>
<text text-anchor="middle" x="343" y="-245" font-family="Helvetica,sans-Serif" font-size="10.00">MorseInput</text>
<polyline fill="none" stroke="black" points="283.723,-239 402.277,-239 "/>
<text text-anchor="middle" x="343" y="-227" font-family="Helvetica,sans-Serif" font-size="10.00"> </text>
<polyline fill="none" stroke="black" points="283.723,-221 402.277,-221 "/>
<text text-anchor="start" x="291.723" y="-209" font-family="Helvetica,sans-Serif" font-size="10.00">+ MorseInput()</text>
<text text-anchor="start" x="291.723" y="-199" font-family="Helvetica,sans-Serif" font-size="10.00">+ event_handler()</text>
<text text-anchor="start" x="291.723" y="-189" font-family="Helvetica,sans-Serif" font-size="10.00">+ reset()</text>
<text text-anchor="start" x="291.723" y="-179" font-family="Helvetica,sans-Serif" font-size="10.00">+ draw_to_scale()</text>
<text text-anchor="start" x="291.723" y="-169" font-family="Helvetica,sans-Serif" font-size="10.00">+ clear_input()</text>
<text text-anchor="start" x="291.723" y="-159" font-family="Helvetica,sans-Serif" font-size="10.00">+ message()</text>
<text text-anchor="start" x="291.723" y="-149" font-family="Helvetica,sans-Serif" font-size="10.00">+ confirm_set_enable()</text>
<text text-anchor="start" x="291.723" y="-139" font-family="Helvetica,sans-Serif" font-size="10.00">+ confirm_enabled()</text>
<text text-anchor="start" x="291.723" y="-129" font-family="Helvetica,sans-Serif" font-size="10.00">+ char_set_enable()</text>
<text text-anchor="start" x="291.723" y="-119" font-family="Helvetica,sans-Serif" font-size="10.00">+ char_enabled()</text>
<text text-anchor="start" x="291.723" y="-109" font-family="Helvetica,sans-Serif" font-size="10.00">and 6 more...</text>
</a>
</g>
</g>
<!-- Node1&#45;&gt;Node6 -->
<g id="edge5" class="edge"><title>Node1&#45;&gt;Node6</title>
<path fill="none" stroke="midnightblue" d="M306.547,-295.254C310.625,-282.474 314.761,-269.509 318.712,-257.126"/>
<polygon fill="none" stroke="midnightblue" points="303.15,-294.388 303.445,-304.979 309.819,-296.516 303.15,-294.388"/>
</g>
<!-- Node7 -->
<g id="node7" class="node"><title>Node7</title>
<g id="a_node7"><a xlink:href="class_text.html" target="_top" xlink:title="Text Box. ">
<polygon fill="none" stroke="black" points="420.553,-93 420.553,-267 537.447,-267 537.447,-93 420.553,-93"/>
<text text-anchor="middle" x="479" y="-255" font-family="Helvetica,sans-Serif" font-size="10.00">Text</text>
<polyline fill="none" stroke="black" points="420.553,-249 537.447,-249 "/>
<text text-anchor="middle" x="479" y="-237" font-family="Helvetica,sans-Serif" font-size="10.00"> </text>
<polyline fill="none" stroke="black" points="420.553,-231 537.447,-231 "/>
<text text-anchor="start" x="428.553" y="-219" font-family="Helvetica,sans-Serif" font-size="10.00">+ Text()</text>
<text text-anchor="start" x="428.553" y="-209" font-family="Helvetica,sans-Serif" font-size="10.00">+ Text()</text>
<text text-anchor="start" x="428.553" y="-199" font-family="Helvetica,sans-Serif" font-size="10.00">+ set_text()</text>
<text text-anchor="start" x="428.553" y="-189" font-family="Helvetica,sans-Serif" font-size="10.00">+ text()</text>
<text text-anchor="start" x="428.553" y="-179" font-family="Helvetica,sans-Serif" font-size="10.00">+ set_prompt_enable()</text>
<text text-anchor="start" x="428.553" y="-169" font-family="Helvetica,sans-Serif" font-size="10.00">+ set_font_size()</text>
<text text-anchor="start" x="428.553" y="-159" font-family="Helvetica,sans-Serif" font-size="10.00">+ font_size()</text>
<text text-anchor="start" x="428.553" y="-149" font-family="Helvetica,sans-Serif" font-size="10.00">+ scroll()</text>
<text text-anchor="start" x="428.553" y="-139" font-family="Helvetica,sans-Serif" font-size="10.00">+ scroll_max()</text>
<text text-anchor="start" x="428.553" y="-129" font-family="Helvetica,sans-Serif" font-size="10.00">+ event_handler()</text>
<text text-anchor="start" x="428.553" y="-119" font-family="Helvetica,sans-Serif" font-size="10.00">+ count_lines()</text>
<text text-anchor="start" x="428.553" y="-109" font-family="Helvetica,sans-Serif" font-size="10.00">+ draw_to_scale()</text>
<text text-anchor="start" x="428.553" y="-99" font-family="Helvetica,sans-Serif" font-size="10.00">+ count_lines()</text>
</a>
</g>
</g>
<!-- Node1&#45;&gt;Node7 -->
<g id="edge6" class="edge"><title>Node1&#45;&gt;Node7</title>
<path fill="none" stroke="midnightblue" d="M341.775,-335.1C364.493,-314.76 389.598,-291.082 411,-268 414.128,-264.626 417.268,-261.12 420.388,-257.537"/>
<polygon fill="none" stroke="midnightblue" points="339.316,-332.602 334.171,-341.864 343.969,-337.832 339.316,-332.602"/>
</g>
<!-- Node3 -->
<g id="node3" class="node"><title>Node3</title>
<g id="a_node3"><a xlink:href="class_graph_bar.html" target="_top" xlink:title="Bar Graph Element. ">
<polygon fill="none" stroke="black" points="-0.316406,-1 -0.316406,-55 74.3164,-55 74.3164,-1 -0.316406,-1"/>
<text text-anchor="middle" x="37" y="-43" font-family="Helvetica,sans-Serif" font-size="10.00">GraphBar</text>
<polyline fill="none" stroke="black" points="-0.316406,-37 74.3164,-37 "/>
<text text-anchor="middle" x="37" y="-25" font-family="Helvetica,sans-Serif" font-size="10.00"> </text>
<polyline fill="none" stroke="black" points="-0.316406,-19 74.3164,-19 "/>
<text text-anchor="start" x="7.68359" y="-7" font-family="Helvetica,sans-Serif" font-size="10.00">+ GraphBar()</text>
</a>
</g>
</g>
<!-- Node2&#45;&gt;Node3 -->
<g id="edge2" class="edge"><title>Node2&#45;&gt;Node3</title>
<path fill="none" stroke="midnightblue" d="M64.9442,-118.184C58.0623,-96.22 50.6526,-72.5721 45.1935,-55.1494"/>
<polygon fill="none" stroke="midnightblue" points="61.6268,-119.302 67.9567,-127.798 68.3065,-117.209 61.6268,-119.302"/>
</g>
<!-- Node4 -->
<g id="node4" class="node"><title>Node4</title>
<g id="a_node4"><a xlink:href="class_graph_line.html" target="_top" xlink:title="Line Graph Element. ">
<polygon fill="none" stroke="black" points="92.0112,-1 92.0112,-55 169.989,-55 169.989,-1 92.0112,-1"/>
<text text-anchor="middle" x="131" y="-43" font-family="Helvetica,sans-Serif" font-size="10.00">GraphLine</text>
<polyline fill="none" stroke="black" points="92.0112,-37 169.989,-37 "/>
<text text-anchor="middle" x="131" y="-25" font-family="Helvetica,sans-Serif" font-size="10.00"> </text>
<polyline fill="none" stroke="black" points="92.0112,-19 169.989,-19 "/>
<text text-anchor="start" x="100.011" y="-7" font-family="Helvetica,sans-Serif" font-size="10.00">+ GraphLine()</text>
</a>
</g>
</g>
<!-- Node2&#45;&gt;Node4 -->
<g id="edge3" class="edge"><title>Node2&#45;&gt;Node4</title>
<path fill="none" stroke="midnightblue" d="M103.056,-118.184C109.938,-96.22 117.347,-72.5721 122.807,-55.1494"/>
<polygon fill="none" stroke="midnightblue" points="99.6935,-117.209 100.043,-127.798 106.373,-119.302 99.6935,-117.209"/>
</g>
</g>
</svg>
