<?xml version="1.0" encoding="UTF-8" standalone="no"?>
<!DOCTYPE svg PUBLIC "-//W3C//DTD SVG 1.1//EN"
 "http://www.w3.org/Graphics/SVG/1.1/DTD/svg11.dtd">
<!-- Generated by graphviz version 2.36.0 (20140111.2315)
 -->
<!-- Title: UI Elements Pages: 1 -->
<svg width="186pt" height="100pt"
 viewBox="0.00 0.00 186.00 100.00" xmlns="http://www.w3.org/2000/svg" xmlns:xlink="http://www.w3.org/1999/xlink">
<g id="graph0" class="graph" transform="scale(1 1) rotate(0) translate(4 96)">
<title>UI Elements</title>
<!-- Node3 -->
<g id="node1" class="node"><title>Node3</title>
<g id="a_node1"><a xlink:href="group__label.html" target="_top" xlink:title="Label">
<polygon fill="none" stroke="black" points="121.766,-74 121.766,-92 162.234,-92 162.234,-74 121.766,-74"/>
<text text-anchor="middle" x="142" y="-80" font-family="Helvetica,sans-Serif" font-size="10.00">Label</text>
</a>
</g>
</g>
<!-- Node1 -->
<g id="node2" class="node"><title>Node1</title>
<g id="a_node2"><a xlink:href="group__edit.html" target="_top" xlink:title="Edit Settings">
<polygon fill="none" stroke="black" points="105.929,-37 105.929,-55 178.071,-55 178.071,-37 105.929,-37"/>
<text text-anchor="middle" x="142" y="-43" font-family="Helvetica,sans-Serif" font-size="10.00">Edit Settings</text>
</a>
</g>
</g>
<!-- Node2 -->
<g id="node3" class="node"><title>Node2</title>
<g id="a_node3"><a xlink:href="group__graph.html" target="_top" xlink:title="Graphs">
<polygon fill="none" stroke="black" points="117.604,-0 117.604,-18 166.396,-18 166.396,-0 117.604,-0"/>
<text text-anchor="middle" x="142" y="-6" font-family="Helvetica,sans-Serif" font-size="10.00">Graphs</text>
</a>
</g>
</g>
<!-- Node0 -->
<g id="node4" class="node"><title>Node0</title>
<polygon fill="#bfbfbf" stroke="black" points="-0.231445,-37 -0.231445,-55 70.2314,-55 70.2314,-37 -0.231445,-37"/>
<text text-anchor="middle" x="35" y="-43" font-family="Helvetica,sans-Serif" font-size="10.00">UI Elements</text>
</g>
<!-- Node0&#45;&gt;Node3 -->
<g id="edge3" class="edge"><title>Node0&#45;&gt;Node3</title>
<path fill="none" stroke="midnightblue" d="M71.1977,-58.403C87.9763,-64.3155 107.41,-71.1634 121.504,-76.13"/>
<polygon fill="midnightblue" stroke="midnightblue" points="72.2807,-55.0737 61.6859,-55.0512 69.9542,-61.6758 72.2807,-55.0737"/>
</g>
<!-- Node0&#45;&gt;Node1 -->
<g id="edge1" class="edge"><title>Node0&#45;&gt;Node1</title>
<path fill="none" stroke="midnightblue" d="M80.4981,-46C88.9578,-46 97.7013,-46 105.822,-46"/>
<polygon fill="midnightblue" stroke="midnightblue" points="80.381,-42.5001 70.3809,-46 80.3809,-49.5001 80.381,-42.5001"/>
</g>
<!-- Node0&#45;&gt;Node2 -->
<g id="edge2" class="edge"><title>Node0&#45;&gt;Node2</title>
<path fill="none" stroke="midnightblue" d="M71.2844,-33.5665C86.4577,-28.2197 103.788,-22.1126 117.375,-17.3251"/>
<polygon fill="midnightblue" stroke="midnightblue" points="69.9542,-30.3242 61.6859,-36.9488 72.2807,-36.9263 69.9542,-30.3242"/>
</g>
</g>
</svg>
