<?xml version="1.0" encoding="UTF-8" standalone="no"?>
<!DOCTYPE svg PUBLIC "-//W3C//DTD SVG 1.1//EN"
 "http://www.w3.org/Graphics/SVG/1.1/DTD/svg11.dtd">
<!-- Generated by graphviz version 2.36.0 (20140111.2315)
 -->
<!-- Title: UI Elements Pages: 1 -->
<svg width="186pt" height="137pt"
 viewBox="0.00 0.00 186.00 137.00" xmlns="http://www.w3.org/2000/svg" xmlns:xlink="http://www.w3.org/1999/xlink">
<g id="graph0" class="graph" transform="scale(1 1) rotate(0) translate(4 133)">
<title>UI Elements</title>
<!-- Node4 -->
<g id="node1" class="node"><title>Node4</title>
<g id="a_node1"><a xlink:href="group__list.html" target="_top" xlink:title="Lists">
<polygon fill="none" stroke="black" points="123.719,-111 123.719,-129 160.281,-129 160.281,-111 123.719,-111"/>
<text text-anchor="middle" x="142" y="-117" font-family="Helvetica,sans-Serif" font-size="10.00">Lists</text>
</a>
</g>
</g>
<!-- Node3 -->
<g id="node2" class="node"><title>Node3</title>
<g id="a_node2"><a xlink:href="group__label.html" target="_top" xlink:title="Label">
<polygon fill="none" stroke="black" points="121.766,-74 121.766,-92 162.234,-92 162.234,-74 121.766,-74"/>
<text text-anchor="middle" x="142" y="-80" font-family="Helvetica,sans-Serif" font-size="10.00">Label</text>
</a>
</g>
</g>
<!-- Node1 -->
<g id="node3" class="node"><title>Node1</title>
<g id="a_node3"><a xlink:href="group__edit.html" target="_top" xlink:title="Edit Settings">
<polygon fill="none" stroke="black" points="105.929,-37 105.929,-55 178.071,-55 178.071,-37 105.929,-37"/>
<text text-anchor="middle" x="142" y="-43" font-family="Helvetica,sans-Serif" font-size="10.00">Edit Settings</text>
</a>
</g>
</g>
<!-- Node2 -->
<g id="node4" class="node"><title>Node2</title>
<g id="a_node4"><a xlink:href="group__graph.html" target="_top" xlink:title="Graphs">
<polygon fill="none" stroke="black" points="117.604,-0 117.604,-18 166.396,-18 166.396,-0 117.604,-0"/>
<text text-anchor="middle" x="142" y="-6" font-family="Helvetica,sans-Serif" font-size="10.00">Graphs</text>
</a>
</g>
</g>
<!-- Node0 -->
<g id="node5" class="node"><title>Node0</title>
<polygon fill="#bfbfbf" stroke="black" points="-0.231445,-55 -0.231445,-73 70.2314,-73 70.2314,-55 -0.231445,-55"/>
<text text-anchor="middle" x="35" y="-61" font-family="Helvetica,sans-Serif" font-size="10.00">UI Elements</text>
</g>
<!-- Node0&#45;&gt;Node4 -->
<g id="edge4" class="edge"><title>Node0&#45;&gt;Node4</title>
<path fill="none" stroke="midnightblue" d="M62.2436,-77.9966C81.5665,-88.3021 107.28,-102.016 123.984,-110.925"/>
<polygon fill="midnightblue" stroke="midnightblue" points="63.8092,-74.865 53.3386,-73.2473 60.5151,-81.0414 63.8092,-74.865"/>
</g>
<!-- Node0&#45;&gt;Node3 -->
<g id="edge3" class="edge"><title>Node0&#45;&gt;Node3</title>
<path fill="none" stroke="midnightblue" d="M80.6009,-72.0706C94.9172,-74.6612 110.035,-77.3969 121.565,-79.4833"/>
<polygon fill="midnightblue" stroke="midnightblue" points="80.8444,-68.5579 70.3809,-70.2213 79.5979,-75.4461 80.8444,-68.5579"/>
</g>
<!-- Node0&#45;&gt;Node1 -->
<g id="edge1" class="edge"><title>Node0&#45;&gt;Node1</title>
<path fill="none" stroke="midnightblue" d="M80.4981,-56.3717C88.9578,-54.9215 97.7013,-53.4226 105.822,-52.0305"/>
<polygon fill="midnightblue" stroke="midnightblue" points="79.6457,-52.9667 70.3809,-58.1061 80.8286,-59.8661 79.6457,-52.9667"/>
</g>
<!-- Node0&#45;&gt;Node2 -->
<g id="edge2" class="edge"><title>Node0&#45;&gt;Node2</title>
<path fill="none" stroke="midnightblue" d="M62.4493,-50.1456C81.6145,-40.1067 106.984,-26.8181 123.636,-18.0956"/>
<polygon fill="midnightblue" stroke="midnightblue" points="60.5729,-47.1773 53.3386,-54.9179 63.821,-53.3782 60.5729,-47.1773"/>
</g>
</g>
</svg>
