<?xml version="1.0" encoding="UTF-8" standalone="no"?>
<!DOCTYPE svg PUBLIC "-//W3C//DTD SVG 1.1//EN"
 "http://www.w3.org/Graphics/SVG/1.1/DTD/svg11.dtd">
<!-- Generated by graphviz version 2.36.0 (20140111.2315)
 -->
<!-- Title: Graphical Class Hierarchy Pages: 1 -->
<svg width="494pt" height="673pt"
 viewBox="0.00 0.00 494.00 673.00" xmlns="http://www.w3.org/2000/svg" xmlns:xlink="http://www.w3.org/1999/xlink">
<g id="graph0" class="graph" transform="scale(1 1) rotate(0) translate(4 669)">
<title>Graphical Class Hierarchy</title>
<!-- Node1 -->
<g id="node1" class="node"><title>Node1</title>
<g id="a_node1"><a xlink:href="class_app_controller.html" target="_top" xlink:title="Controller API. ">
<polygon fill="none" stroke="black" points="0.428711,-610 0.428711,-628 77.5713,-628 77.5713,-610 0.428711,-610"/>
<text text-anchor="middle" x="39" y="-616" font-family="Helvetica,sans-Serif" font-size="10.00">AppController</text>
</a>
</g>
</g>
<!-- Node2 -->
<g id="node2" class="node"><title>Node2</title>
<g id="a_node2"><a xlink:href="class_app.html" target="_top" xlink:title="App State Machine Class. ">
<polygon fill="none" stroke="black" points="136.104,-647 136.104,-665 169.896,-665 169.896,-647 136.104,-647"/>
<text text-anchor="middle" x="153" y="-653" font-family="Helvetica,sans-Serif" font-size="10.00">App</text>
</a>
</g>
</g>
<!-- Node1&#45;&gt;Node2 -->
<g id="edge1" class="edge"><title>Node1&#45;&gt;Node2</title>
<path fill="none" stroke="midnightblue" d="M77.1452,-631.271C97.0999,-637.863 120.671,-645.65 135.955,-650.699"/>
<polygon fill="midnightblue" stroke="midnightblue" points="77.9915,-627.865 67.3983,-628.051 75.7956,-634.511 77.9915,-627.865"/>
</g>
<!-- Node3 -->
<g id="node3" class="node"><title>Node3</title>
<g id="a_node3"><a xlink:href="class_app_state.html" target="_top" xlink:title="App State (to be used in a State machine see App) ">
<polygon fill="none" stroke="black" points="124.429,-610 124.429,-628 181.571,-628 181.571,-610 124.429,-610"/>
<text text-anchor="middle" x="153" y="-616" font-family="Helvetica,sans-Serif" font-size="10.00">AppState</text>
</a>
</g>
</g>
<!-- Node1&#45;&gt;Node3 -->
<g id="edge2" class="edge"><title>Node1&#45;&gt;Node3</title>
<path fill="none" stroke="midnightblue" d="M87.8537,-619C100.272,-619 113.237,-619 124.234,-619"/>
<polygon fill="midnightblue" stroke="midnightblue" points="87.606,-615.5 77.6059,-619 87.6059,-622.5 87.606,-615.5"/>
</g>
<!-- Node4 -->
<g id="node4" class="node"><title>Node4</title>
<g id="a_node4"><a xlink:href="class_screen.html" target="_top" xlink:title="Screen Class. ">
<polygon fill="none" stroke="black" points="129.158,-573 129.158,-591 176.842,-591 176.842,-573 129.158,-573"/>
<text text-anchor="middle" x="153" y="-579" font-family="Helvetica,sans-Serif" font-size="10.00">Screen</text>
</a>
</g>
</g>
<!-- Node1&#45;&gt;Node4 -->
<g id="edge3" class="edge"><title>Node1&#45;&gt;Node4</title>
<path fill="none" stroke="midnightblue" d="M77.1288,-606.734C94.2769,-601.069 114.098,-594.521 129.037,-589.586"/>
<polygon fill="midnightblue" stroke="midnightblue" points="75.7956,-603.489 67.3983,-609.949 77.9915,-610.135 75.7956,-603.489"/>
</g>
<!-- Node5 -->
<g id="node5" class="node"><title>Node5</title>
<g id="a_node5"><a xlink:href="class_map.html" target="_top" xlink:title="Map Class (for mapping coords to display) ">
<polygon fill="none" stroke="black" points="262.273,-592 262.273,-610 297.727,-610 297.727,-592 262.273,-592"/>
<text text-anchor="middle" x="280" y="-598" font-family="Helvetica,sans-Serif" font-size="10.00">Map</text>
</a>
</g>
</g>
<!-- Node4&#45;&gt;Node5 -->
<g id="edge4" class="edge"><title>Node4&#45;&gt;Node5</title>
<path fill="none" stroke="midnightblue" d="M187.098,-587.031C211.281,-590.707 243.07,-595.539 262.219,-598.449"/>
<polygon fill="midnightblue" stroke="midnightblue" points="187.339,-583.527 176.927,-585.485 186.287,-590.448 187.339,-583.527"/>
</g>
<!-- Node6 -->
<g id="node6" class="node"><title>Node6</title>
<g id="a_node6"><a xlink:href="class_element.html" target="_top" xlink:title="Element Class. ">
<polygon fill="none" stroke="black" points="12.6577,-240 12.6577,-258 65.3423,-258 65.3423,-240 12.6577,-240"/>
<text text-anchor="middle" x="39" y="-246" font-family="Helvetica,sans-Serif" font-size="10.00">Element</text>
</a>
</g>
</g>
<!-- Node6&#45;&gt;Node4 -->
<g id="edge34" class="edge"><title>Node6&#45;&gt;Node4</title>
<path fill="none" stroke="midnightblue" d="M42.872,-268.326C50.2196,-314.536 72.137,-434.388 114,-526 122.106,-543.739 135.678,-562.019 144.218,-572.68"/>
<polygon fill="midnightblue" stroke="midnightblue" points="46.2978,-267.577 41.3146,-258.227 39.3796,-268.643 46.2978,-267.577"/>
</g>
<!-- Node7 -->
<g id="node7" class="node"><title>Node7</title>
<g id="a_node7"><a xlink:href="class_button_bar.html" target="_top" xlink:title="Button Bar. ">
<polygon fill="none" stroke="black" points="122.764,-499 122.764,-517 183.236,-517 183.236,-499 122.764,-499"/>
<text text-anchor="middle" x="153" y="-505" font-family="Helvetica,sans-Serif" font-size="10.00">ButtonBar</text>
</a>
</g>
</g>
<!-- Node6&#45;&gt;Node7 -->
<g id="edge5" class="edge"><title>Node6&#45;&gt;Node7</title>
<path fill="none" stroke="midnightblue" d="M40.9307,-268.193C44.0269,-312.282 57.3218,-422.133 114,-489 117.434,-493.051 121.942,-496.326 126.649,-498.942"/>
<polygon fill="midnightblue" stroke="midnightblue" points="44.4134,-267.799 40.3213,-258.026 37.426,-268.218 44.4134,-267.799"/>
</g>
<!-- Node8 -->
<g id="node8" class="node"><title>Node8</title>
<g id="a_node8"><a xlink:href="class_edit.html" target="_top" xlink:title="Edit Element. ">
<polygon fill="none" stroke="black" points="136.384,-462 136.384,-480 169.616,-480 169.616,-462 136.384,-462"/>
<text text-anchor="middle" x="153" y="-468" font-family="Helvetica,sans-Serif" font-size="10.00">Edit</text>
</a>
</g>
</g>
<!-- Node6&#45;&gt;Node8 -->
<g id="edge6" class="edge"><title>Node6&#45;&gt;Node8</title>
<path fill="none" stroke="midnightblue" d="M48.919,-266.994C62.7609,-294.883 90.2919,-350.214 114,-397 125.881,-420.446 140.075,-447.957 147.288,-461.902"/>
<polygon fill="midnightblue" stroke="midnightblue" points="52.0503,-265.43 44.4711,-258.027 45.7793,-268.54 52.0503,-265.43"/>
</g>
<!-- Node16 -->
<g id="node16" class="node"><title>Node16</title>
<g id="a_node16"><a xlink:href="class_graph_1_1_object.html" target="_top" xlink:title="Abstract Graph Class. ">
<polygon fill="none" stroke="black" points="113.875,-370 113.875,-388 192.125,-388 192.125,-370 113.875,-370"/>
<text text-anchor="middle" x="153" y="-376" font-family="Helvetica,sans-Serif" font-size="10.00">Graph::Object</text>
</a>
</g>
</g>
<!-- Node6&#45;&gt;Node16 -->
<g id="edge14" class="edge"><title>Node6&#45;&gt;Node16</title>
<path fill="none" stroke="midnightblue" d="M52.5514,-266.07C66.8009,-285.132 91.0553,-316.639 114,-342 123.019,-351.969 134.111,-362.602 141.977,-369.898"/>
<polygon fill="midnightblue" stroke="midnightblue" points="55.3494,-263.967 46.579,-258.023 49.7285,-268.139 55.3494,-263.967"/>
</g>
<!-- Node19 -->
<g id="node19" class="node"><title>Node19</title>
<g id="a_node19"><a xlink:href="class_label.html" target="_top" xlink:title="Label Element. ">
<polygon fill="none" stroke="black" points="132.766,-315 132.766,-333 173.234,-333 173.234,-315 132.766,-315"/>
<text text-anchor="middle" x="153" y="-321" font-family="Helvetica,sans-Serif" font-size="10.00">Label</text>
</a>
</g>
</g>
<!-- Node6&#45;&gt;Node19 -->
<g id="edge17" class="edge"><title>Node6&#45;&gt;Node19</title>
<path fill="none" stroke="midnightblue" d="M62.094,-263.795C84.8402,-279.027 119.555,-302.273 138.504,-314.963"/>
<polygon fill="midnightblue" stroke="midnightblue" points="63.9899,-260.852 53.7334,-258.196 60.095,-266.669 63.9899,-260.852"/>
</g>
<!-- Node21 -->
<g id="node21" class="node"><title>Node21</title>
<g id="a_node21"><a xlink:href="class_list.html" target="_top" xlink:title="List Class. ">
<polygon fill="none" stroke="black" points="137.219,-259 137.219,-277 168.781,-277 168.781,-259 137.219,-259"/>
<text text-anchor="middle" x="153" y="-265" font-family="Helvetica,sans-Serif" font-size="10.00">List</text>
</a>
</g>
</g>
<!-- Node6&#45;&gt;Node21 -->
<g id="edge19" class="edge"><title>Node6&#45;&gt;Node21</title>
<path fill="none" stroke="midnightblue" d="M75.4916,-255.021C96.2414,-258.541 121.35,-262.8 137.002,-265.456"/>
<polygon fill="midnightblue" stroke="midnightblue" points="75.8591,-251.533 65.4145,-253.311 74.6883,-258.435 75.8591,-251.533"/>
</g>
<!-- Node24 -->
<g id="node24" class="node"><title>Node24</title>
<g id="a_node24"><a xlink:href="class_list_item.html" target="_top" xlink:title="List Item Class. ">
<polygon fill="none" stroke="black" points="127.495,-222 127.495,-240 178.505,-240 178.505,-222 127.495,-222"/>
<text text-anchor="middle" x="153" y="-228" font-family="Helvetica,sans-Serif" font-size="10.00">ListItem</text>
</a>
</g>
</g>
<!-- Node6&#45;&gt;Node24 -->
<g id="edge22" class="edge"><title>Node6&#45;&gt;Node24</title>
<path fill="none" stroke="midnightblue" d="M75.5066,-243.294C92.4232,-240.575 112.234,-237.391 127.456,-234.945"/>
<polygon fill="midnightblue" stroke="midnightblue" points="74.7324,-239.873 65.4145,-244.916 75.8432,-246.784 74.7324,-239.873"/>
</g>
<!-- Node29 -->
<g id="node29" class="node"><title>Node29</title>
<g id="a_node29"><a xlink:href="class_morse_input.html" target="_top" xlink:title="Morse Input Class. ">
<polygon fill="none" stroke="black" points="119.988,-185 119.988,-203 186.012,-203 186.012,-185 119.988,-185"/>
<text text-anchor="middle" x="153" y="-191" font-family="Helvetica,sans-Serif" font-size="10.00">MorseInput</text>
</a>
</g>
</g>
<!-- Node6&#45;&gt;Node29 -->
<g id="edge27" class="edge"><title>Node6&#45;&gt;Node29</title>
<path fill="none" stroke="midnightblue" d="M66.9733,-235.341C80.9686,-228.298 98.365,-219.611 114,-212 120.039,-209.061 126.645,-205.909 132.63,-203.078"/>
<polygon fill="midnightblue" stroke="midnightblue" points="65.244,-232.293 57.8911,-239.921 68.3959,-238.543 65.244,-232.293"/>
</g>
<!-- Node30 -->
<g id="node30" class="node"><title>Node30</title>
<g id="a_node30"><a xlink:href="class_panel.html" target="_top" xlink:title="Panel Class. ">
<polygon fill="none" stroke="black" points="132.212,-148 132.212,-166 173.788,-166 173.788,-148 132.212,-148"/>
<text text-anchor="middle" x="153" y="-154" font-family="Helvetica,sans-Serif" font-size="10.00">Panel</text>
</a>
</g>
</g>
<!-- Node6&#45;&gt;Node30 -->
<g id="edge28" class="edge"><title>Node6&#45;&gt;Node30</title>
<path fill="none" stroke="midnightblue" d="M54.1965,-231.712C68.1515,-215.522 90.6926,-191.425 114,-175 119.49,-171.131 125.941,-167.719 131.955,-164.934"/>
<polygon fill="midnightblue" stroke="midnightblue" points="51.1509,-229.894 47.3767,-239.794 56.5007,-234.408 51.1509,-229.894"/>
</g>
<!-- Node31 -->
<g id="node31" class="node"><title>Node31</title>
<g id="a_node31"><a xlink:href="class_progress.html" target="_top" xlink:title="Progress Class. ">
<polygon fill="none" stroke="black" points="124.993,-92 124.993,-110 181.007,-110 181.007,-92 124.993,-92"/>
<text text-anchor="middle" x="153" y="-98" font-family="Helvetica,sans-Serif" font-size="10.00">Progress</text>
</a>
</g>
</g>
<!-- Node6&#45;&gt;Node31 -->
<g id="edge29" class="edge"><title>Node6&#45;&gt;Node31</title>
<path fill="none" stroke="midnightblue" d="M50.3382,-231.074C63.7501,-208.433 88.4689,-168.723 114,-138 122.475,-127.802 133.439,-117.37 141.41,-110.194"/>
<polygon fill="midnightblue" stroke="midnightblue" points="47.1915,-229.521 45.1608,-239.92 53.2328,-233.057 47.1915,-229.521"/>
</g>
<!-- Node35 -->
<g id="node35" class="node"><title>Node35</title>
<g id="a_node35"><a xlink:href="class_rect.html" target="_top" xlink:title="Rect Class. ">
<polygon fill="none" stroke="black" points="134.719,-55 134.719,-73 171.281,-73 171.281,-55 134.719,-55"/>
<text text-anchor="middle" x="153" y="-61" font-family="Helvetica,sans-Serif" font-size="10.00">Rect</text>
</a>
</g>
</g>
<!-- Node6&#45;&gt;Node35 -->
<g id="edge33" class="edge"><title>Node6&#45;&gt;Node35</title>
<path fill="none" stroke="midnightblue" d="M43.8846,-229.796C51.641,-195.913 72.0315,-125.042 114,-82 119.606,-76.2507 127.41,-72.1189 134.489,-69.276"/>
<polygon fill="midnightblue" stroke="midnightblue" points="40.4194,-229.261 41.7256,-239.775 47.2611,-230.741 40.4194,-229.261"/>
</g>
<!-- Node36 -->
<g id="node36" class="node"><title>Node36</title>
<g id="a_node36"><a xlink:href="class_text.html" target="_top" xlink:title="Text Box. ">
<polygon fill="none" stroke="black" points="135.83,-18 135.83,-36 170.17,-36 170.17,-18 135.83,-18"/>
<text text-anchor="middle" x="153" y="-24" font-family="Helvetica,sans-Serif" font-size="10.00">Text</text>
</a>
</g>
</g>
<!-- Node6&#45;&gt;Node36 -->
<g id="edge35" class="edge"><title>Node6&#45;&gt;Node36</title>
<path fill="none" stroke="midnightblue" d="M42.1256,-229.444C47.3838,-189.892 64.3871,-99.5317 114,-45 119.699,-38.7365 128.035,-34.4534 135.449,-31.6422"/>
<polygon fill="midnightblue" stroke="midnightblue" points="38.6249,-229.239 40.8917,-239.589 45.5736,-230.084 38.6249,-229.239"/>
</g>
<!-- Node9 -->
<g id="node9" class="node"><title>Node9</title>
<g id="a_node9"><a xlink:href="class_edit_setting_int.html" target="_top" xlink:title="Edit Integer Class. ">
<polygon fill="none" stroke="black" points="242.259,-555 242.259,-573 317.741,-573 317.741,-555 242.259,-555"/>
<text text-anchor="middle" x="280" y="-561" font-family="Helvetica,sans-Serif" font-size="10.00">EditSettingInt</text>
</a>
</g>
</g>
<!-- Node8&#45;&gt;Node9 -->
<g id="edge7" class="edge"><title>Node8&#45;&gt;Node9</title>
<path fill="none" stroke="midnightblue" d="M179.146,-481.199C183.703,-483.686 188.206,-486.622 192,-490 213.82,-509.427 205.172,-526.768 228,-545 233.094,-549.069 239.147,-552.324 245.272,-554.91"/>
<polygon fill="midnightblue" stroke="midnightblue" points="180.455,-477.944 169.931,-476.727 177.399,-484.242 180.455,-477.944"/>
</g>
<!-- Node10 -->
<g id="node10" class="node"><title>Node10</title>
<g id="a_node10"><a xlink:href="class_edit_sys_brightness.html" target="_top" xlink:title="Edit System Brightness. ">
<polygon fill="none" stroke="black" points="231.426,-518 231.426,-536 328.574,-536 328.574,-518 231.426,-518"/>
<text text-anchor="middle" x="280" y="-524" font-family="Helvetica,sans-Serif" font-size="10.00">EditSysBrightness</text>
</a>
</g>
</g>
<!-- Node8&#45;&gt;Node10 -->
<g id="edge8" class="edge"><title>Node8&#45;&gt;Node10</title>
<path fill="none" stroke="midnightblue" d="M178.937,-483.478C200.296,-494.164 227.679,-507.86 228,-508 236.059,-511.504 244.993,-514.969 253.103,-517.962"/>
<polygon fill="midnightblue" stroke="midnightblue" points="180.466,-480.33 169.957,-478.985 177.334,-486.59 180.466,-480.33"/>
</g>
<!-- Node14 -->
<g id="node14" class="node"><title>Node14</title>
<g id="a_node14"><a xlink:href="class_edit_sys_morse_delay.html" target="_top" xlink:title="Edit Morse Delay. ">
<polygon fill="none" stroke="black" points="228.375,-481 228.375,-499 331.625,-499 331.625,-481 228.375,-481"/>
<text text-anchor="middle" x="280" y="-487" font-family="Helvetica,sans-Serif" font-size="10.00">EditSysMorseDelay</text>
</a>
</g>
</g>
<!-- Node8&#45;&gt;Node14 -->
<g id="edge12" class="edge"><title>Node8&#45;&gt;Node14</title>
<path fill="none" stroke="midnightblue" d="M180.122,-474.971C194.058,-477.089 211.695,-479.77 228.203,-482.279"/>
<polygon fill="midnightblue" stroke="midnightblue" points="180.244,-471.449 169.831,-473.406 179.192,-478.369 180.244,-471.449"/>
</g>
<!-- Node15 -->
<g id="node15" class="node"><title>Node15</title>
<g id="a_node15"><a xlink:href="class_edit_sys_units.html" target="_top" xlink:title="Edit System Units Setting. ">
<polygon fill="none" stroke="black" points="243.658,-444 243.658,-462 316.342,-462 316.342,-444 243.658,-444"/>
<text text-anchor="middle" x="280" y="-450" font-family="Helvetica,sans-Serif" font-size="10.00">EditSysUnits</text>
</a>
</g>
</g>
<!-- Node8&#45;&gt;Node15 -->
<g id="edge13" class="edge"><title>Node8&#45;&gt;Node15</title>
<path fill="none" stroke="midnightblue" d="M179.812,-467.283C198.193,-464.636 223.129,-461.045 243.4,-458.126"/>
<polygon fill="midnightblue" stroke="midnightblue" points="179.23,-463.831 169.831,-468.72 180.228,-470.759 179.23,-463.831"/>
</g>
<!-- Node11 -->
<g id="node11" class="node"><title>Node11</title>
<g id="a_node11"><a xlink:href="class_edit_sys_brightness_high.html" target="_top" xlink:title="Edit System High Brightness Class. ">
<polygon fill="none" stroke="black" points="368.143,-555 368.143,-573 485.857,-573 485.857,-555 368.143,-555"/>
<text text-anchor="middle" x="427" y="-561" font-family="Helvetica,sans-Serif" font-size="10.00">EditSysBrightnessHigh</text>
</a>
</g>
</g>
<!-- Node10&#45;&gt;Node11 -->
<g id="edge9" class="edge"><title>Node10&#45;&gt;Node11</title>
<path fill="none" stroke="midnightblue" d="M326.337,-538.569C347.076,-543.861 371.281,-550.037 390.644,-554.978"/>
<polygon fill="midnightblue" stroke="midnightblue" points="327.026,-535.132 316.471,-536.051 325.295,-541.915 327.026,-535.132"/>
</g>
<!-- Node12 -->
<g id="node12" class="node"><title>Node12</title>
<g id="a_node12"><a xlink:href="class_edit_sys_brightness_low.html" target="_top" xlink:title="Edit System Low Brightness Class. ">
<polygon fill="none" stroke="black" points="369.254,-518 369.254,-536 484.746,-536 484.746,-518 369.254,-518"/>
<text text-anchor="middle" x="427" y="-524" font-family="Helvetica,sans-Serif" font-size="10.00">EditSysBrightnessLow</text>
</a>
</g>
</g>
<!-- Node10&#45;&gt;Node12 -->
<g id="edge10" class="edge"><title>Node10&#45;&gt;Node12</title>
<path fill="none" stroke="midnightblue" d="M339.035,-527C348.941,-527 359.222,-527 369.099,-527"/>
<polygon fill="midnightblue" stroke="midnightblue" points="338.88,-523.5 328.88,-527 338.88,-530.5 338.88,-523.5"/>
</g>
<!-- Node13 -->
<g id="node13" class="node"><title>Node13</title>
<g id="a_node13"><a xlink:href="class_edit_sys_brightness_med.html" target="_top" xlink:title="Edit System Med Brightness Class. ">
<polygon fill="none" stroke="black" points="368.7,-481 368.7,-499 485.3,-499 485.3,-481 368.7,-481"/>
<text text-anchor="middle" x="427" y="-487" font-family="Helvetica,sans-Serif" font-size="10.00">EditSysBrightnessMed</text>
</a>
</g>
</g>
<!-- Node10&#45;&gt;Node13 -->
<g id="edge11" class="edge"><title>Node10&#45;&gt;Node13</title>
<path fill="none" stroke="midnightblue" d="M326.337,-515.431C347.076,-510.139 371.281,-503.963 390.644,-499.022"/>
<polygon fill="midnightblue" stroke="midnightblue" points="325.295,-512.085 316.471,-517.949 327.026,-518.868 325.295,-512.085"/>
</g>
<!-- Node17 -->
<g id="node17" class="node"><title>Node17</title>
<g id="a_node17"><a xlink:href="class_graph_bar.html" target="_top" xlink:title="Bar Graph Element. ">
<polygon fill="none" stroke="black" points="250.323,-407 250.323,-425 309.677,-425 309.677,-407 250.323,-407"/>
<text text-anchor="middle" x="280" y="-413" font-family="Helvetica,sans-Serif" font-size="10.00">GraphBar</text>
</a>
</g>
</g>
<!-- Node16&#45;&gt;Node17 -->
<g id="edge15" class="edge"><title>Node16&#45;&gt;Node17</title>
<path fill="none" stroke="midnightblue" d="M194.317,-390.934C212.461,-396.305 233.472,-402.524 250.026,-407.424"/>
<polygon fill="midnightblue" stroke="midnightblue" points="195.161,-387.533 184.578,-388.051 193.174,-394.246 195.161,-387.533"/>
</g>
<!-- Node18 -->
<g id="node18" class="node"><title>Node18</title>
<g id="a_node18"><a xlink:href="class_graph_line.html" target="_top" xlink:title="Line Graph Element. ">
<polygon fill="none" stroke="black" points="248.65,-370 248.65,-388 311.35,-388 311.35,-370 248.65,-370"/>
<text text-anchor="middle" x="280" y="-376" font-family="Helvetica,sans-Serif" font-size="10.00">GraphLine</text>
</a>
</g>
</g>
<!-- Node16&#45;&gt;Node18 -->
<g id="edge16" class="edge"><title>Node16&#45;&gt;Node18</title>
<path fill="none" stroke="midnightblue" d="M202.205,-379C217.796,-379 234.641,-379 248.571,-379"/>
<polygon fill="midnightblue" stroke="midnightblue" points="202.183,-375.5 192.183,-379 202.183,-382.5 202.183,-375.5"/>
</g>
<!-- Node20 -->
<g id="node20" class="node"><title>Node20</title>
<g id="a_node20"><a xlink:href="class_label_metric.html" target="_top" xlink:title="Label with Value Class. ">
<polygon fill="none" stroke="black" points="246.155,-333 246.155,-351 313.845,-351 313.845,-333 246.155,-333"/>
<text text-anchor="middle" x="280" y="-339" font-family="Helvetica,sans-Serif" font-size="10.00">LabelMetric</text>
</a>
</g>
</g>
<!-- Node19&#45;&gt;Node20 -->
<g id="edge18" class="edge"><title>Node19&#45;&gt;Node20</title>
<path fill="none" stroke="midnightblue" d="M183.295,-328.218C202.038,-330.917 226.396,-334.425 245.847,-337.226"/>
<polygon fill="midnightblue" stroke="midnightblue" points="183.654,-324.734 173.257,-326.773 182.656,-331.663 183.654,-324.734"/>
</g>
<!-- Node22 -->
<g id="node22" class="node"><title>Node22</title>
<g id="a_node22"><a xlink:href="class_discover.html" target="_top" xlink:title="Discover Class. ">
<polygon fill="none" stroke="black" points="252.552,-296 252.552,-314 307.448,-314 307.448,-296 252.552,-296"/>
<text text-anchor="middle" x="280" y="-302" font-family="Helvetica,sans-Serif" font-size="10.00">Discover</text>
</a>
</g>
</g>
<!-- Node21&#45;&gt;Node22 -->
<g id="edge20" class="edge"><title>Node21&#45;&gt;Node22</title>
<path fill="none" stroke="midnightblue" d="M178.431,-275.232C199.709,-281.53 230.496,-290.643 252.393,-297.124"/>
<polygon fill="midnightblue" stroke="midnightblue" points="179.412,-271.872 168.83,-272.39 177.425,-278.584 179.412,-271.872"/>
</g>
<!-- Node23 -->
<g id="node23" class="node"><title>Node23</title>
<g id="a_node23"><a xlink:href="class_map_menu.html" target="_top" xlink:title="Map Menu Class. ">
<polygon fill="none" stroke="black" points="249.766,-259 249.766,-277 310.234,-277 310.234,-259 249.766,-259"/>
<text text-anchor="middle" x="280" y="-265" font-family="Helvetica,sans-Serif" font-size="10.00">MapMenu</text>
</a>
</g>
</g>
<!-- Node21&#45;&gt;Node23 -->
<g id="edge21" class="edge"><title>Node21&#45;&gt;Node23</title>
<path fill="none" stroke="midnightblue" d="M178.876,-268C199.196,-268 227.968,-268 249.458,-268"/>
<polygon fill="midnightblue" stroke="midnightblue" points="178.83,-264.5 168.83,-268 178.83,-271.5 178.83,-264.5"/>
</g>
<!-- Node25 -->
<g id="node25" class="node"><title>Node25</title>
<g id="a_node25"><a xlink:href="class_list_item_callback.html" target="_top" xlink:title="List Item Callback Class. ">
<polygon fill="none" stroke="black" points="235.32,-222 235.32,-240 324.68,-240 324.68,-222 235.32,-222"/>
<text text-anchor="middle" x="280" y="-228" font-family="Helvetica,sans-Serif" font-size="10.00">ListItemCallback</text>
</a>
</g>
</g>
<!-- Node24&#45;&gt;Node25 -->
<g id="edge23" class="edge"><title>Node24&#45;&gt;Node25</title>
<path fill="none" stroke="midnightblue" d="M189.091,-231C203.377,-231 220.047,-231 235.125,-231"/>
<polygon fill="midnightblue" stroke="midnightblue" points="188.696,-227.5 178.696,-231 188.696,-234.5 188.696,-227.5"/>
</g>
<!-- Node26 -->
<g id="node26" class="node"><title>Node26</title>
<g id="a_node26"><a xlink:href="class_list_item_check.html" target="_top" xlink:title="List Item Check (for use in a checklist) ">
<polygon fill="none" stroke="black" points="240.323,-185 240.323,-203 319.677,-203 319.677,-185 240.323,-185"/>
<text text-anchor="middle" x="280" y="-191" font-family="Helvetica,sans-Serif" font-size="10.00">ListItemCheck</text>
</a>
</g>
</g>
<!-- Node24&#45;&gt;Node26 -->
<g id="edge24" class="edge"><title>Node24&#45;&gt;Node26</title>
<path fill="none" stroke="midnightblue" d="M188.32,-220.841C207.033,-215.302 230.009,-208.501 248.151,-203.131"/>
<polygon fill="midnightblue" stroke="midnightblue" points="187.291,-217.496 178.696,-223.69 189.278,-224.208 187.291,-217.496"/>
</g>
<!-- Node27 -->
<g id="node27" class="node"><title>Node27</title>
<g id="a_node27"><a xlink:href="class_list_item_element.html" target="_top" xlink:title="List Item Element Class. ">
<polygon fill="none" stroke="black" points="236.153,-148 236.153,-166 323.847,-166 323.847,-148 236.153,-148"/>
<text text-anchor="middle" x="280" y="-154" font-family="Helvetica,sans-Serif" font-size="10.00">ListItemElement</text>
</a>
</g>
</g>
<!-- Node24&#45;&gt;Node27 -->
<g id="edge25" class="edge"><title>Node24&#45;&gt;Node27</title>
<path fill="none" stroke="midnightblue" d="M184.093,-217.16C186.841,-215.54 189.52,-213.814 192,-212 210.521,-198.457 208.674,-187.366 228,-175 233.536,-171.458 239.858,-168.507 246.122,-166.089"/>
<polygon fill="midnightblue" stroke="midnightblue" points="182.374,-214.11 175.242,-221.945 185.703,-220.268 182.374,-214.11"/>
</g>
<!-- Node28 -->
<g id="node28" class="node"><title>Node28</title>
<g id="a_node28"><a xlink:href="class_list_item_toggle.html" target="_top" xlink:title="Toggle Item. ">
<polygon fill="none" stroke="black" points="239.761,-111 239.761,-129 320.239,-129 320.239,-111 239.761,-111"/>
<text text-anchor="middle" x="280" y="-117" font-family="Helvetica,sans-Serif" font-size="10.00">ListItemToggle</text>
</a>
</g>
</g>
<!-- Node24&#45;&gt;Node28 -->
<g id="edge26" class="edge"><title>Node24&#45;&gt;Node28</title>
<path fill="none" stroke="midnightblue" d="M186.76,-216.519C188.631,-215.124 190.398,-213.619 192,-212 217.721,-185.998 200.713,-162.354 228,-138 232.133,-134.311 237.07,-131.367 242.221,-129.019"/>
<polygon fill="midnightblue" stroke="midnightblue" points="184.715,-213.669 178.094,-221.94 188.428,-219.603 184.715,-213.669"/>
</g>
<!-- Node32 -->
<g id="node32" class="node"><title>Node32</title>
<g id="a_node32"><a xlink:href="class_progress_arc.html" target="_top" xlink:title="Progress Arc Class. ">
<polygon fill="none" stroke="black" points="244.493,-74 244.493,-92 315.507,-92 315.507,-74 244.493,-74"/>
<text text-anchor="middle" x="280" y="-80" font-family="Helvetica,sans-Serif" font-size="10.00">ProgressArc</text>
</a>
</g>
</g>
<!-- Node31&#45;&gt;Node32 -->
<g id="edge30" class="edge"><title>Node31&#45;&gt;Node32</title>
<path fill="none" stroke="midnightblue" d="M191.168,-95.6479C208.002,-93.2238 227.787,-90.3747 244.313,-87.995"/>
<polygon fill="midnightblue" stroke="midnightblue" points="190.522,-92.2046 181.123,-97.0943 191.52,-99.1332 190.522,-92.2046"/>
</g>
<!-- Node33 -->
<g id="node33" class="node"><title>Node33</title>
<g id="a_node33"><a xlink:href="class_progress_bar.html" target="_top" xlink:title="Progress Bar Class. ">
<polygon fill="none" stroke="black" points="244.212,-37 244.212,-55 315.788,-55 315.788,-37 244.212,-37"/>
<text text-anchor="middle" x="280" y="-43" font-family="Helvetica,sans-Serif" font-size="10.00">ProgressBar</text>
</a>
</g>
</g>
<!-- Node31&#45;&gt;Node33 -->
<g id="edge31" class="edge"><title>Node31&#45;&gt;Node33</title>
<path fill="none" stroke="midnightblue" d="M181.386,-87.2951C202.33,-76.8158 227.69,-64.1316 228,-64 235.519,-60.8079 243.818,-57.7065 251.498,-55.0029"/>
<polygon fill="midnightblue" stroke="midnightblue" points="179.556,-84.2968 172.179,-91.9018 182.689,-90.5569 179.556,-84.2968"/>
</g>
<!-- Node34 -->
<g id="node34" class="node"><title>Node34</title>
<g id="a_node34"><a xlink:href="class_progress_circle.html" target="_top" xlink:title="Progress Circle Class. ">
<polygon fill="none" stroke="black" points="239.214,-0 239.214,-18 320.786,-18 320.786,-0 239.214,-0"/>
<text text-anchor="middle" x="280" y="-6" font-family="Helvetica,sans-Serif" font-size="10.00">ProgressCircle</text>
</a>
</g>
</g>
<!-- Node31&#45;&gt;Node34 -->
<g id="edge32" class="edge"><title>Node31&#45;&gt;Node34</title>
<path fill="none" stroke="midnightblue" d="M185.753,-86.8063C187.961,-85.319 190.072,-83.7166 192,-82 213.82,-62.573 205.015,-45.0336 228,-27 232.654,-23.3487 238.106,-20.4043 243.681,-18.0402"/>
<polygon fill="midnightblue" stroke="midnightblue" points="183.797,-83.8957 176.937,-91.9705 187.335,-89.9356 183.797,-83.8957"/>
</g>
</g>
</svg>
