<?xml version="1.0" encoding="UTF-8" standalone="no"?>
<!DOCTYPE svg PUBLIC "-//W3C//DTD SVG 1.1//EN"
 "http://www.w3.org/Graphics/SVG/1.1/DTD/svg11.dtd">
<!-- Generated by graphviz version 2.36.0 (20140111.2315)
 -->
<!-- Title: Graphical Class Hierarchy Pages: 1 -->
<svg width="276pt" height="192pt"
 viewBox="0.00 0.00 276.00 192.00" xmlns="http://www.w3.org/2000/svg" xmlns:xlink="http://www.w3.org/1999/xlink">
<g id="graph0" class="graph" transform="scale(1 1) rotate(0) translate(4 188)">
<title>Graphical Class Hierarchy</title>
<!-- Node1 -->
<g id="node1" class="node"><title>Node1</title>
<g id="a_node1"><a xlink:href="class_element.html" target="_top" xlink:title="Element Class. ">
<polygon fill="none" stroke="black" points="0.657715,-74 0.657715,-92 53.3423,-92 53.3423,-74 0.657715,-74"/>
<text text-anchor="middle" x="27" y="-80" font-family="Helvetica,sans-Serif" font-size="10.00">Element</text>
</a>
</g>
</g>
<!-- Node2 -->
<g id="node2" class="node"><title>Node2</title>
<g id="a_node2"><a xlink:href="class_graph_1_1_object.html" target="_top" xlink:title="Abstract Graph Class. ">
<polygon fill="none" stroke="black" points="89.8745,-148 89.8745,-166 168.125,-166 168.125,-148 89.8745,-148"/>
<text text-anchor="middle" x="129" y="-154" font-family="Helvetica,sans-Serif" font-size="10.00">Graph::Object</text>
</a>
</g>
</g>
<!-- Node1&#45;&gt;Node2 -->
<g id="edge1" class="edge"><title>Node1&#45;&gt;Node2</title>
<path fill="none" stroke="midnightblue" d="M44.4392,-99.7552C56.396,-111.379 73.3433,-126.735 90,-138 95.3766,-141.636 101.547,-145.018 107.33,-147.89"/>
<polygon fill="midnightblue" stroke="midnightblue" points="46.5885,-96.9574 37.0236,-92.4006 41.6592,-101.928 46.5885,-96.9574"/>
</g>
<!-- Node5 -->
<g id="node5" class="node"><title>Node5</title>
<g id="a_node5"><a xlink:href="class_label.html" target="_top" xlink:title="Label Element. ">
<polygon fill="none" stroke="black" points="108.766,-111 108.766,-129 149.234,-129 149.234,-111 108.766,-111"/>
<text text-anchor="middle" x="129" y="-117" font-family="Helvetica,sans-Serif" font-size="10.00">Label</text>
</a>
</g>
</g>
<!-- Node1&#45;&gt;Node5 -->
<g id="edge4" class="edge"><title>Node1&#45;&gt;Node5</title>
<path fill="none" stroke="midnightblue" d="M62.2159,-95.6599C77.6561,-101.373 95.3339,-107.914 108.473,-112.775"/>
<polygon fill="midnightblue" stroke="midnightblue" points="63.0559,-92.2389 52.4628,-92.0512 60.6268,-98.8039 63.0559,-92.2389"/>
</g>
<!-- Node6 -->
<g id="node6" class="node"><title>Node6</title>
<g id="a_node6"><a xlink:href="class_list.html" target="_top" xlink:title="List Class. ">
<polygon fill="none" stroke="black" points="113.219,-74 113.219,-92 144.781,-92 144.781,-74 113.219,-74"/>
<text text-anchor="middle" x="129" y="-80" font-family="Helvetica,sans-Serif" font-size="10.00">List</text>
</a>
</g>
</g>
<!-- Node1&#45;&gt;Node6 -->
<g id="edge5" class="edge"><title>Node1&#45;&gt;Node6</title>
<path fill="none" stroke="midnightblue" d="M63.6891,-83C80.6916,-83 100.105,-83 113.114,-83"/>
<polygon fill="midnightblue" stroke="midnightblue" points="63.493,-79.5001 53.493,-83 63.4929,-86.5001 63.493,-79.5001"/>
</g>
<!-- Node7 -->
<g id="node7" class="node"><title>Node7</title>
<g id="a_node7"><a xlink:href="class_map.html" target="_top" xlink:title="Map Class (for mapping coords to display) ">
<polygon fill="none" stroke="black" points="111.273,-37 111.273,-55 146.727,-55 146.727,-37 111.273,-37"/>
<text text-anchor="middle" x="129" y="-43" font-family="Helvetica,sans-Serif" font-size="10.00">Map</text>
</a>
</g>
</g>
<!-- Node1&#45;&gt;Node7 -->
<g id="edge6" class="edge"><title>Node1&#45;&gt;Node7</title>
<path fill="none" stroke="midnightblue" d="M62.2958,-70.3105C78.7282,-64.2306 97.6792,-57.2187 110.993,-52.2926"/>
<polygon fill="midnightblue" stroke="midnightblue" points="60.6268,-67.1961 52.4628,-73.9488 63.0559,-73.7611 60.6268,-67.1961"/>
</g>
<!-- Node8 -->
<g id="node8" class="node"><title>Node8</title>
<g id="a_node8"><a xlink:href="class_text.html" target="_top" xlink:title="Text Box. ">
<polygon fill="none" stroke="black" points="111.83,-0 111.83,-18 146.17,-18 146.17,-0 111.83,-0"/>
<text text-anchor="middle" x="129" y="-6" font-family="Helvetica,sans-Serif" font-size="10.00">Text</text>
</a>
</g>
</g>
<!-- Node1&#45;&gt;Node8 -->
<g id="edge7" class="edge"><title>Node1&#45;&gt;Node8</title>
<path fill="none" stroke="midnightblue" d="M44.4392,-66.2448C56.396,-54.6212 73.3433,-39.265 90,-28 96.7208,-23.4547 104.682,-19.3075 111.577,-16.0555"/>
<polygon fill="midnightblue" stroke="midnightblue" points="41.6592,-64.0725 37.0236,-73.5994 46.5885,-69.0426 41.6592,-64.0725"/>
</g>
<!-- Node3 -->
<g id="node3" class="node"><title>Node3</title>
<g id="a_node3"><a xlink:href="class_graph_bar.html" target="_top" xlink:title="Bar Graph Element. ">
<polygon fill="none" stroke="black" points="206.323,-166 206.323,-184 265.677,-184 265.677,-166 206.323,-166"/>
<text text-anchor="middle" x="236" y="-172" font-family="Helvetica,sans-Serif" font-size="10.00">GraphBar</text>
</a>
</g>
</g>
<!-- Node2&#45;&gt;Node3 -->
<g id="edge2" class="edge"><title>Node2&#45;&gt;Node3</title>
<path fill="none" stroke="midnightblue" d="M178.09,-165.244C187.698,-166.891 197.504,-168.572 206.21,-170.064"/>
<polygon fill="midnightblue" stroke="midnightblue" points="178.652,-161.789 168.204,-163.549 177.469,-168.689 178.652,-161.789"/>
</g>
<!-- Node4 -->
<g id="node4" class="node"><title>Node4</title>
<g id="a_node4"><a xlink:href="class_graph_line.html" target="_top" xlink:title="Line Graph Element. ">
<polygon fill="none" stroke="black" points="204.65,-129 204.65,-147 267.35,-147 267.35,-129 204.65,-129"/>
<text text-anchor="middle" x="236" y="-135" font-family="Helvetica,sans-Serif" font-size="10.00">GraphLine</text>
</a>
</g>
</g>
<!-- Node2&#45;&gt;Node4 -->
<g id="edge3" class="edge"><title>Node2&#45;&gt;Node4</title>
<path fill="none" stroke="midnightblue" d="M178.201,-148.278C187.168,-146.655 196.304,-145.002 204.553,-143.51"/>
<polygon fill="midnightblue" stroke="midnightblue" points="177.421,-144.862 168.204,-150.087 178.668,-151.75 177.421,-144.862"/>
</g>
</g>
</svg>
