<?xml version="1.0" encoding="UTF-8" standalone="no"?>
<!DOCTYPE svg PUBLIC "-//W3C//DTD SVG 1.1//EN"
 "http://www.w3.org/Graphics/SVG/1.1/DTD/svg11.dtd">
<!-- Generated by graphviz version 2.36.0 (20140111.2315)
 -->
<!-- Title: Graphical Class Hierarchy Pages: 1 -->
<svg width="470pt" height="396pt"
 viewBox="0.00 0.00 470.00 396.00" xmlns="http://www.w3.org/2000/svg" xmlns:xlink="http://www.w3.org/1999/xlink">
<g id="graph0" class="graph" transform="scale(1 1) rotate(0) translate(4 392)">
<title>Graphical Class Hierarchy</title>
<!-- Node1 -->
<g id="node1" class="node"><title>Node1</title>
<g id="a_node1"><a xlink:href="class_element.html" target="_top" xlink:title="Element Class. ">
<polygon fill="none" stroke="black" points="0.657715,-129 0.657715,-147 53.3423,-147 53.3423,-129 0.657715,-129"/>
<text text-anchor="middle" x="27" y="-135" font-family="Helvetica,sans-Serif" font-size="10.00">Element</text>
</a>
</g>
</g>
<!-- Node2 -->
<g id="node2" class="node"><title>Node2</title>
<g id="a_node2"><a xlink:href="class_button_bar.html" target="_top" xlink:title="Button Bar. ">
<polygon fill="none" stroke="black" points="98.7637,-314 98.7637,-332 159.236,-332 159.236,-314 98.7637,-314"/>
<text text-anchor="middle" x="129" y="-320" font-family="Helvetica,sans-Serif" font-size="10.00">ButtonBar</text>
</a>
</g>
</g>
<!-- Node1&#45;&gt;Node2 -->
<g id="edge1" class="edge"><title>Node1&#45;&gt;Node2</title>
<path fill="none" stroke="midnightblue" d="M30.5508,-157.41C35.8993,-191.075 51.1783,-260.82 90,-304 93.6492,-308.059 98.3639,-311.359 103.223,-313.999"/>
<polygon fill="midnightblue" stroke="midnightblue" points="33.9554,-156.501 29.0508,-147.11 27.0284,-157.51 33.9554,-156.501"/>
</g>
<!-- Node3 -->
<g id="node3" class="node"><title>Node3</title>
<g id="a_node3"><a xlink:href="class_edit.html" target="_top" xlink:title="Edit Element. ">
<polygon fill="none" stroke="black" points="112.384,-277 112.384,-295 145.616,-295 145.616,-277 112.384,-277"/>
<text text-anchor="middle" x="129" y="-283" font-family="Helvetica,sans-Serif" font-size="10.00">Edit</text>
</a>
</g>
</g>
<!-- Node1&#45;&gt;Node3 -->
<g id="edge2" class="edge"><title>Node1&#45;&gt;Node3</title>
<path fill="none" stroke="midnightblue" d="M39.8612,-155.555C61.2105,-187.151 105.404,-252.559 121.747,-276.745"/>
<polygon fill="midnightblue" stroke="midnightblue" points="42.7541,-153.584 34.2554,-147.258 36.954,-157.503 42.7541,-153.584"/>
</g>
<!-- Node11 -->
<g id="node11" class="node"><title>Node11</title>
<g id="a_node11"><a xlink:href="class_graph_1_1_object.html" target="_top" xlink:title="Abstract Graph Class. ">
<polygon fill="none" stroke="black" points="89.8745,-185 89.8745,-203 168.125,-203 168.125,-185 89.8745,-185"/>
<text text-anchor="middle" x="129" y="-191" font-family="Helvetica,sans-Serif" font-size="10.00">Graph::Object</text>
</a>
</g>
</g>
<!-- Node1&#45;&gt;Node11 -->
<g id="edge10" class="edge"><title>Node1&#45;&gt;Node11</title>
<path fill="none" stroke="midnightblue" d="M51.2095,-152.408C62.7527,-159.43 76.986,-167.876 90,-175 96.2112,-178.4 103.108,-181.922 109.302,-184.996"/>
<polygon fill="midnightblue" stroke="midnightblue" points="52.9585,-149.375 42.6034,-147.134 49.3008,-155.343 52.9585,-149.375"/>
</g>
<!-- Node14 -->
<g id="node14" class="node"><title>Node14</title>
<g id="a_node14"><a xlink:href="class_label.html" target="_top" xlink:title="Label Element. ">
<polygon fill="none" stroke="black" points="108.766,-148 108.766,-166 149.234,-166 149.234,-148 108.766,-148"/>
<text text-anchor="middle" x="129" y="-154" font-family="Helvetica,sans-Serif" font-size="10.00">Label</text>
</a>
</g>
</g>
<!-- Node1&#45;&gt;Node14 -->
<g id="edge13" class="edge"><title>Node1&#45;&gt;Node14</title>
<path fill="none" stroke="midnightblue" d="M63.5887,-144.762C78.7269,-147.638 95.7921,-150.88 108.552,-153.305"/>
<polygon fill="midnightblue" stroke="midnightblue" points="63.9706,-141.272 53.493,-142.844 62.6639,-148.149 63.9706,-141.272"/>
</g>
<!-- Node16 -->
<g id="node16" class="node"><title>Node16</title>
<g id="a_node16"><a xlink:href="class_list.html" target="_top" xlink:title="List Class. ">
<polygon fill="none" stroke="black" points="113.219,-111 113.219,-129 144.781,-129 144.781,-111 113.219,-111"/>
<text text-anchor="middle" x="129" y="-117" font-family="Helvetica,sans-Serif" font-size="10.00">List</text>
</a>
</g>
</g>
<!-- Node1&#45;&gt;Node16 -->
<g id="edge15" class="edge"><title>Node1&#45;&gt;Node16</title>
<path fill="none" stroke="midnightblue" d="M63.6891,-131.576C80.6916,-128.516 100.105,-125.021 113.114,-122.679"/>
<polygon fill="midnightblue" stroke="midnightblue" points="62.7147,-128.195 53.493,-133.411 63.9549,-135.084 62.7147,-128.195"/>
</g>
<!-- Node17 -->
<g id="node17" class="node"><title>Node17</title>
<g id="a_node17"><a xlink:href="class_list_item.html" target="_top" xlink:title="List Item Class. ">
<polygon fill="none" stroke="black" points="103.495,-74 103.495,-92 154.505,-92 154.505,-74 103.495,-74"/>
<text text-anchor="middle" x="129" y="-80" font-family="Helvetica,sans-Serif" font-size="10.00">ListItem</text>
</a>
</g>
</g>
<!-- Node1&#45;&gt;Node17 -->
<g id="edge16" class="edge"><title>Node1&#45;&gt;Node17</title>
<path fill="none" stroke="midnightblue" d="M50.9142,-123.612C62.4821,-116.533 76.8237,-108.032 90,-101 95.6674,-97.9755 101.929,-94.9034 107.706,-92.1738"/>
<polygon fill="midnightblue" stroke="midnightblue" points="48.9747,-120.697 42.3069,-128.93 52.6539,-126.652 48.9747,-120.697"/>
</g>
<!-- Node22 -->
<g id="node22" class="node"><title>Node22</title>
<g id="a_node22"><a xlink:href="class_map.html" target="_top" xlink:title="Map Class (for mapping coords to display) ">
<polygon fill="none" stroke="black" points="111.273,-37 111.273,-55 146.727,-55 146.727,-37 111.273,-37"/>
<text text-anchor="middle" x="129" y="-43" font-family="Helvetica,sans-Serif" font-size="10.00">Map</text>
</a>
</g>
</g>
<!-- Node1&#45;&gt;Node22 -->
<g id="edge21" class="edge"><title>Node1&#45;&gt;Node22</title>
<path fill="none" stroke="midnightblue" d="M39.6319,-120.103C50.936,-103.81 69.3792,-79.9343 90,-64 96.354,-59.0901 104.263,-55.0763 111.219,-52.095"/>
<polygon fill="midnightblue" stroke="midnightblue" points="36.5231,-118.454 33.8387,-128.703 42.3286,-122.365 36.5231,-118.454"/>
</g>
<!-- Node23 -->
<g id="node23" class="node"><title>Node23</title>
<g id="a_node23"><a xlink:href="class_text.html" target="_top" xlink:title="Text Box. ">
<polygon fill="none" stroke="black" points="111.83,-0 111.83,-18 146.17,-18 146.17,-0 111.83,-0"/>
<text text-anchor="middle" x="129" y="-6" font-family="Helvetica,sans-Serif" font-size="10.00">Text</text>
</a>
</g>
</g>
<!-- Node1&#45;&gt;Node23 -->
<g id="edge22" class="edge"><title>Node1&#45;&gt;Node23</title>
<path fill="none" stroke="midnightblue" d="M34.3399,-119.295C43.3396,-95.19 61.912,-53.266 90,-27 96.0783,-21.316 104.279,-17.1248 111.506,-14.2241"/>
<polygon fill="midnightblue" stroke="midnightblue" points="31.0421,-118.123 30.9736,-128.718 37.634,-120.478 31.0421,-118.123"/>
</g>
<!-- Node4 -->
<g id="node4" class="node"><title>Node4</title>
<g id="a_node4"><a xlink:href="class_edit_setting_int.html" target="_top" xlink:title="Edit Integer Class. ">
<polygon fill="none" stroke="black" points="218.259,-370 218.259,-388 293.741,-388 293.741,-370 218.259,-370"/>
<text text-anchor="middle" x="256" y="-376" font-family="Helvetica,sans-Serif" font-size="10.00">EditSettingInt</text>
</a>
</g>
</g>
<!-- Node3&#45;&gt;Node4 -->
<g id="edge3" class="edge"><title>Node3&#45;&gt;Node4</title>
<path fill="none" stroke="midnightblue" d="M155.146,-296.199C159.703,-298.686 164.206,-301.622 168,-305 189.82,-324.427 181.172,-341.768 204,-360 209.094,-364.069 215.147,-367.324 221.272,-369.91"/>
<polygon fill="midnightblue" stroke="midnightblue" points="156.455,-292.944 145.931,-291.727 153.399,-299.242 156.455,-292.944"/>
</g>
<!-- Node5 -->
<g id="node5" class="node"><title>Node5</title>
<g id="a_node5"><a xlink:href="class_edit_sys_brightness.html" target="_top" xlink:title="Edit System Brightness. ">
<polygon fill="none" stroke="black" points="207.426,-333 207.426,-351 304.574,-351 304.574,-333 207.426,-333"/>
<text text-anchor="middle" x="256" y="-339" font-family="Helvetica,sans-Serif" font-size="10.00">EditSysBrightness</text>
</a>
</g>
</g>
<!-- Node3&#45;&gt;Node5 -->
<g id="edge4" class="edge"><title>Node3&#45;&gt;Node5</title>
<path fill="none" stroke="midnightblue" d="M154.937,-298.478C176.296,-309.164 203.679,-322.86 204,-323 212.059,-326.504 220.993,-329.969 229.103,-332.962"/>
<polygon fill="midnightblue" stroke="midnightblue" points="156.466,-295.33 145.957,-293.985 153.334,-301.59 156.466,-295.33"/>
</g>
<!-- Node9 -->
<g id="node9" class="node"><title>Node9</title>
<g id="a_node9"><a xlink:href="class_edit_sys_morse_delay.html" target="_top" xlink:title="Edit Morse Delay. ">
<polygon fill="none" stroke="black" points="204.375,-296 204.375,-314 307.625,-314 307.625,-296 204.375,-296"/>
<text text-anchor="middle" x="256" y="-302" font-family="Helvetica,sans-Serif" font-size="10.00">EditSysMorseDelay</text>
</a>
</g>
</g>
<!-- Node3&#45;&gt;Node9 -->
<g id="edge8" class="edge"><title>Node3&#45;&gt;Node9</title>
<path fill="none" stroke="midnightblue" d="M156.122,-289.971C170.058,-292.089 187.695,-294.77 204.203,-297.279"/>
<polygon fill="midnightblue" stroke="midnightblue" points="156.244,-286.449 145.831,-288.406 155.192,-293.369 156.244,-286.449"/>
</g>
<!-- Node10 -->
<g id="node10" class="node"><title>Node10</title>
<g id="a_node10"><a xlink:href="class_edit_sys_units.html" target="_top" xlink:title="Edit System Units Setting. ">
<polygon fill="none" stroke="black" points="219.658,-259 219.658,-277 292.342,-277 292.342,-259 219.658,-259"/>
<text text-anchor="middle" x="256" y="-265" font-family="Helvetica,sans-Serif" font-size="10.00">EditSysUnits</text>
</a>
</g>
</g>
<!-- Node3&#45;&gt;Node10 -->
<g id="edge9" class="edge"><title>Node3&#45;&gt;Node10</title>
<path fill="none" stroke="midnightblue" d="M155.812,-282.283C174.193,-279.636 199.129,-276.045 219.4,-273.126"/>
<polygon fill="midnightblue" stroke="midnightblue" points="155.23,-278.831 145.831,-283.72 156.228,-285.759 155.23,-278.831"/>
</g>
<!-- Node6 -->
<g id="node6" class="node"><title>Node6</title>
<g id="a_node6"><a xlink:href="class_edit_sys_brightness_high.html" target="_top" xlink:title="Edit System High Brightness Class. ">
<polygon fill="none" stroke="black" points="344.143,-370 344.143,-388 461.857,-388 461.857,-370 344.143,-370"/>
<text text-anchor="middle" x="403" y="-376" font-family="Helvetica,sans-Serif" font-size="10.00">EditSysBrightnessHigh</text>
</a>
</g>
</g>
<!-- Node5&#45;&gt;Node6 -->
<g id="edge5" class="edge"><title>Node5&#45;&gt;Node6</title>
<path fill="none" stroke="midnightblue" d="M302.337,-353.569C323.076,-358.861 347.281,-365.037 366.644,-369.978"/>
<polygon fill="midnightblue" stroke="midnightblue" points="303.026,-350.132 292.471,-351.051 301.295,-356.915 303.026,-350.132"/>
</g>
<!-- Node7 -->
<g id="node7" class="node"><title>Node7</title>
<g id="a_node7"><a xlink:href="class_edit_sys_brightness_low.html" target="_top" xlink:title="Edit System Low Brightness Class. ">
<polygon fill="none" stroke="black" points="345.254,-333 345.254,-351 460.746,-351 460.746,-333 345.254,-333"/>
<text text-anchor="middle" x="403" y="-339" font-family="Helvetica,sans-Serif" font-size="10.00">EditSysBrightnessLow</text>
</a>
</g>
</g>
<!-- Node5&#45;&gt;Node7 -->
<g id="edge6" class="edge"><title>Node5&#45;&gt;Node7</title>
<path fill="none" stroke="midnightblue" d="M315.035,-342C324.941,-342 335.222,-342 345.099,-342"/>
<polygon fill="midnightblue" stroke="midnightblue" points="314.88,-338.5 304.88,-342 314.88,-345.5 314.88,-338.5"/>
</g>
<!-- Node8 -->
<g id="node8" class="node"><title>Node8</title>
<g id="a_node8"><a xlink:href="class_edit_sys_brightness_med.html" target="_top" xlink:title="Edit System Med Brightness Class. ">
<polygon fill="none" stroke="black" points="344.7,-296 344.7,-314 461.3,-314 461.3,-296 344.7,-296"/>
<text text-anchor="middle" x="403" y="-302" font-family="Helvetica,sans-Serif" font-size="10.00">EditSysBrightnessMed</text>
</a>
</g>
</g>
<!-- Node5&#45;&gt;Node8 -->
<g id="edge7" class="edge"><title>Node5&#45;&gt;Node8</title>
<path fill="none" stroke="midnightblue" d="M302.337,-330.431C323.076,-325.139 347.281,-318.963 366.644,-314.022"/>
<polygon fill="midnightblue" stroke="midnightblue" points="301.295,-327.085 292.471,-332.949 303.026,-333.868 301.295,-327.085"/>
</g>
<!-- Node12 -->
<g id="node12" class="node"><title>Node12</title>
<g id="a_node12"><a xlink:href="class_graph_bar.html" target="_top" xlink:title="Bar Graph Element. ">
<polygon fill="none" stroke="black" points="226.323,-222 226.323,-240 285.677,-240 285.677,-222 226.323,-222"/>
<text text-anchor="middle" x="256" y="-228" font-family="Helvetica,sans-Serif" font-size="10.00">GraphBar</text>
</a>
</g>
</g>
<!-- Node11&#45;&gt;Node12 -->
<g id="edge11" class="edge"><title>Node11&#45;&gt;Node12</title>
<path fill="none" stroke="midnightblue" d="M170.317,-205.934C188.461,-211.305 209.472,-217.524 226.026,-222.424"/>
<polygon fill="midnightblue" stroke="midnightblue" points="171.161,-202.533 160.578,-203.051 169.174,-209.246 171.161,-202.533"/>
</g>
<!-- Node13 -->
<g id="node13" class="node"><title>Node13</title>
<g id="a_node13"><a xlink:href="class_graph_line.html" target="_top" xlink:title="Line Graph Element. ">
<polygon fill="none" stroke="black" points="224.65,-185 224.65,-203 287.35,-203 287.35,-185 224.65,-185"/>
<text text-anchor="middle" x="256" y="-191" font-family="Helvetica,sans-Serif" font-size="10.00">GraphLine</text>
</a>
</g>
</g>
<!-- Node11&#45;&gt;Node13 -->
<g id="edge12" class="edge"><title>Node11&#45;&gt;Node13</title>
<path fill="none" stroke="midnightblue" d="M178.205,-194C193.796,-194 210.641,-194 224.571,-194"/>
<polygon fill="midnightblue" stroke="midnightblue" points="178.183,-190.5 168.183,-194 178.183,-197.5 178.183,-190.5"/>
</g>
<!-- Node15 -->
<g id="node15" class="node"><title>Node15</title>
<g id="a_node15"><a xlink:href="class_label_metric.html" target="_top" xlink:title="Label with Value Class. ">
<polygon fill="none" stroke="black" points="222.155,-148 222.155,-166 289.845,-166 289.845,-148 222.155,-148"/>
<text text-anchor="middle" x="256" y="-154" font-family="Helvetica,sans-Serif" font-size="10.00">LabelMetric</text>
</a>
</g>
</g>
<!-- Node14&#45;&gt;Node15 -->
<g id="edge14" class="edge"><title>Node14&#45;&gt;Node15</title>
<path fill="none" stroke="midnightblue" d="M159.295,-157C178.038,-157 202.396,-157 221.847,-157"/>
<polygon fill="midnightblue" stroke="midnightblue" points="159.257,-153.5 149.257,-157 159.257,-160.5 159.257,-153.5"/>
</g>
<!-- Node18 -->
<g id="node18" class="node"><title>Node18</title>
<g id="a_node18"><a xlink:href="class_list_item_callback.html" target="_top" xlink:title="List Item Callback Class. ">
<polygon fill="none" stroke="black" points="211.32,-111 211.32,-129 300.68,-129 300.68,-111 211.32,-111"/>
<text text-anchor="middle" x="256" y="-117" font-family="Helvetica,sans-Serif" font-size="10.00">ListItemCallback</text>
</a>
</g>
</g>
<!-- Node17&#45;&gt;Node18 -->
<g id="edge17" class="edge"><title>Node17&#45;&gt;Node18</title>
<path fill="none" stroke="midnightblue" d="M164.32,-93.1586C183.033,-98.6977 206.009,-105.499 224.151,-110.869"/>
<polygon fill="midnightblue" stroke="midnightblue" points="165.278,-89.7923 154.696,-90.31 163.291,-96.5044 165.278,-89.7923"/>
</g>
<!-- Node19 -->
<g id="node19" class="node"><title>Node19</title>
<g id="a_node19"><a xlink:href="class_list_item_check.html" target="_top" xlink:title="List Item Check (for use in a checklist) ">
<polygon fill="none" stroke="black" points="216.323,-74 216.323,-92 295.677,-92 295.677,-74 216.323,-74"/>
<text text-anchor="middle" x="256" y="-80" font-family="Helvetica,sans-Serif" font-size="10.00">ListItemCheck</text>
</a>
</g>
</g>
<!-- Node17&#45;&gt;Node19 -->
<g id="edge18" class="edge"><title>Node17&#45;&gt;Node19</title>
<path fill="none" stroke="midnightblue" d="M165.143,-83C181.005,-83 199.796,-83 216.084,-83"/>
<polygon fill="midnightblue" stroke="midnightblue" points="164.696,-79.5001 154.696,-83 164.696,-86.5001 164.696,-79.5001"/>
</g>
<!-- Node20 -->
<g id="node20" class="node"><title>Node20</title>
<g id="a_node20"><a xlink:href="class_list_item_element.html" target="_top" xlink:title="List Item Element Class. ">
<polygon fill="none" stroke="black" points="212.153,-37 212.153,-55 299.847,-55 299.847,-37 212.153,-37"/>
<text text-anchor="middle" x="256" y="-43" font-family="Helvetica,sans-Serif" font-size="10.00">ListItemElement</text>
</a>
</g>
</g>
<!-- Node17&#45;&gt;Node20 -->
<g id="edge19" class="edge"><title>Node17&#45;&gt;Node20</title>
<path fill="none" stroke="midnightblue" d="M164.32,-72.8414C183.033,-67.3023 206.009,-60.5013 224.151,-55.1312"/>
<polygon fill="midnightblue" stroke="midnightblue" points="163.291,-69.4956 154.696,-75.69 165.278,-76.2077 163.291,-69.4956"/>
</g>
<!-- Node21 -->
<g id="node21" class="node"><title>Node21</title>
<g id="a_node21"><a xlink:href="class_list_item_toggle.html" target="_top" xlink:title="Toggle Item. ">
<polygon fill="none" stroke="black" points="215.761,-0 215.761,-18 296.239,-18 296.239,-0 215.761,-0"/>
<text text-anchor="middle" x="256" y="-6" font-family="Helvetica,sans-Serif" font-size="10.00">ListItemToggle</text>
</a>
</g>
</g>
<!-- Node17&#45;&gt;Node21 -->
<g id="edge20" class="edge"><title>Node17&#45;&gt;Node21</title>
<path fill="none" stroke="midnightblue" d="M160.093,-69.1597C162.841,-67.54 165.52,-65.8136 168,-64 186.521,-50.4573 184.674,-39.3657 204,-27 209.536,-23.4577 215.858,-20.5067 222.122,-18.0886"/>
<polygon fill="midnightblue" stroke="midnightblue" points="158.374,-66.1102 151.242,-73.9453 161.703,-72.2678 158.374,-66.1102"/>
</g>
</g>
</svg>
