<?xml version="1.0" encoding="UTF-8" standalone="no"?>
<!DOCTYPE svg PUBLIC "-//W3C//DTD SVG 1.1//EN"
 "http://www.w3.org/Graphics/SVG/1.1/DTD/svg11.dtd">
<!-- Generated by graphviz version 2.36.0 (20140111.2315)
 -->
<!-- Title: Graphical Class Hierarchy Pages: 1 -->
<svg width="276pt" height="155pt"
 viewBox="0.00 0.00 276.00 155.00" xmlns="http://www.w3.org/2000/svg" xmlns:xlink="http://www.w3.org/1999/xlink">
<g id="graph0" class="graph" transform="scale(1 1) rotate(0) translate(4 151)">
<title>Graphical Class Hierarchy</title>
<!-- Node1 -->
<g id="node1" class="node"><title>Node1</title>
<g id="a_node1"><a xlink:href="class_element.html" target="_top" xlink:title="Element Class. ">
<polygon fill="none" stroke="black" points="0.657715,-55 0.657715,-73 53.3423,-73 53.3423,-55 0.657715,-55"/>
<text text-anchor="middle" x="27" y="-61" font-family="Helvetica,sans-Serif" font-size="10.00">Element</text>
</a>
</g>
</g>
<!-- Node2 -->
<g id="node2" class="node"><title>Node2</title>
<g id="a_node2"><a xlink:href="class_graph_1_1_object.html" target="_top" xlink:title="Abstract Graph Class. ">
<polygon fill="none" stroke="black" points="89.8745,-111 89.8745,-129 168.125,-129 168.125,-111 89.8745,-111"/>
<text text-anchor="middle" x="129" y="-117" font-family="Helvetica,sans-Serif" font-size="10.00">Graph::Object</text>
</a>
</g>
</g>
<!-- Node1&#45;&gt;Node2 -->
<g id="edge1" class="edge"><title>Node1&#45;&gt;Node2</title>
<path fill="none" stroke="midnightblue" d="M51.2095,-78.4081C62.7527,-85.4305 76.986,-93.8761 90,-101 96.2112,-104.4 103.108,-107.922 109.302,-110.996"/>
<polygon fill="midnightblue" stroke="midnightblue" points="52.9585,-75.375 42.6034,-73.1338 49.3008,-81.3433 52.9585,-75.375"/>
</g>
<!-- Node5 -->
<g id="node5" class="node"><title>Node5</title>
<g id="a_node5"><a xlink:href="class_map.html" target="_top" xlink:title="Map Class (for mapping coords to display) ">
<polygon fill="none" stroke="black" points="111.273,-74 111.273,-92 146.727,-92 146.727,-74 111.273,-74"/>
<text text-anchor="middle" x="129" y="-80" font-family="Helvetica,sans-Serif" font-size="10.00">Map</text>
</a>
</g>
</g>
<!-- Node1&#45;&gt;Node5 -->
<g id="edge4" class="edge"><title>Node1&#45;&gt;Node5</title>
<path fill="none" stroke="midnightblue" d="M63.695,-70.782C79.8144,-73.8447 98.0997,-77.3189 111.04,-79.7776"/>
<polygon fill="midnightblue" stroke="midnightblue" points="63.9706,-67.2719 53.493,-68.8437 62.6639,-74.1488 63.9706,-67.2719"/>
</g>
<!-- Node6 -->
<g id="node6" class="node"><title>Node6</title>
<g id="a_node6"><a xlink:href="class_morse_input.html" target="_top" xlink:title="Morse Input Class. ">
<polygon fill="none" stroke="black" points="95.9878,-37 95.9878,-55 162.012,-55 162.012,-37 95.9878,-37"/>
<text text-anchor="middle" x="129" y="-43" font-family="Helvetica,sans-Serif" font-size="10.00">MorseInput</text>
</a>
</g>
</g>
<!-- Node1&#45;&gt;Node6 -->
<g id="edge5" class="edge"><title>Node1&#45;&gt;Node6</title>
<path fill="none" stroke="midnightblue" d="M63.5887,-57.594C74.069,-55.7076 85.4729,-53.6549 95.7324,-51.8082"/>
<polygon fill="midnightblue" stroke="midnightblue" points="62.7147,-54.195 53.493,-59.4113 63.9549,-61.0843 62.7147,-54.195"/>
</g>
<!-- Node7 -->
<g id="node7" class="node"><title>Node7</title>
<g id="a_node7"><a xlink:href="class_text.html" target="_top" xlink:title="Text Box. ">
<polygon fill="none" stroke="black" points="111.83,-0 111.83,-18 146.17,-18 146.17,-0 111.83,-0"/>
<text text-anchor="middle" x="129" y="-6" font-family="Helvetica,sans-Serif" font-size="10.00">Text</text>
</a>
</g>
</g>
<!-- Node1&#45;&gt;Node7 -->
<g id="edge6" class="edge"><title>Node1&#45;&gt;Node7</title>
<path fill="none" stroke="midnightblue" d="M52.0572,-49.5629C63.4625,-42.8393 77.3348,-34.8347 90,-28 97.0104,-24.2169 104.869,-20.2442 111.612,-16.9152"/>
<polygon fill="midnightblue" stroke="midnightblue" points="49.9516,-46.7425 43.1376,-54.8555 53.5237,-52.7625 49.9516,-46.7425"/>
</g>
<!-- Node3 -->
<g id="node3" class="node"><title>Node3</title>
<g id="a_node3"><a xlink:href="class_graph_bar.html" target="_top" xlink:title="Bar Graph Element. ">
<polygon fill="none" stroke="black" points="206.323,-129 206.323,-147 265.677,-147 265.677,-129 206.323,-129"/>
<text text-anchor="middle" x="236" y="-135" font-family="Helvetica,sans-Serif" font-size="10.00">GraphBar</text>
</a>
</g>
</g>
<!-- Node2&#45;&gt;Node3 -->
<g id="edge2" class="edge"><title>Node2&#45;&gt;Node3</title>
<path fill="none" stroke="midnightblue" d="M178.09,-128.244C187.698,-129.891 197.504,-131.572 206.21,-133.064"/>
<polygon fill="midnightblue" stroke="midnightblue" points="178.652,-124.789 168.204,-126.549 177.469,-131.689 178.652,-124.789"/>
</g>
<!-- Node4 -->
<g id="node4" class="node"><title>Node4</title>
<g id="a_node4"><a xlink:href="class_graph_line.html" target="_top" xlink:title="Line Graph Element. ">
<polygon fill="none" stroke="black" points="204.65,-92 204.65,-110 267.35,-110 267.35,-92 204.65,-92"/>
<text text-anchor="middle" x="236" y="-98" font-family="Helvetica,sans-Serif" font-size="10.00">GraphLine</text>
</a>
</g>
</g>
<!-- Node2&#45;&gt;Node4 -->
<g id="edge3" class="edge"><title>Node2&#45;&gt;Node4</title>
<path fill="none" stroke="midnightblue" d="M178.201,-111.278C187.168,-109.655 196.304,-108.002 204.553,-106.51"/>
<polygon fill="midnightblue" stroke="midnightblue" points="177.421,-107.862 168.204,-113.087 178.668,-114.75 177.421,-107.862"/>
</g>
</g>
</svg>
