<?xml version="1.0" encoding="UTF-8" standalone="no"?>
<!DOCTYPE svg PUBLIC "-//W3C//DTD SVG 1.1//EN"
 "http://www.w3.org/Graphics/SVG/1.1/DTD/svg11.dtd">
<!-- Generated by graphviz version 2.36.0 (20140111.2315)
 -->
<!-- Title: include/iface/location.h Pages: 1 -->
<svg width="930pt" height="252pt"
 viewBox="0.00 0.00 930.00 252.00" xmlns="http://www.w3.org/2000/svg" xmlns:xlink="http://www.w3.org/1999/xlink">
<g id="graph0" class="graph" transform="scale(1 1) rotate(0) translate(4 248)">
<title>include/iface/location.h</title>
<!-- Node1 -->
<g id="node1" class="node"><title>Node1</title>
<polygon fill="#bfbfbf" stroke="black" points="471.412,-225 471.412,-243 588.588,-243 588.588,-225 471.412,-225"/>
<text text-anchor="middle" x="530" y="-231" font-family="Helvetica,sans-Serif" font-size="10.00">include/iface/location.h</text>
</g>
<!-- Node2 -->
<g id="node2" class="node"><title>Node2</title>
<g id="a_node2"><a xlink:href="contact_8h_source.html" target="_top" xlink:title="include/iface/contact.h">
<polygon fill="none" stroke="black" points="387.525,-169 387.525,-187 502.475,-187 502.475,-169 387.525,-169"/>
<text text-anchor="middle" x="445" y="-175" font-family="Helvetica,sans-Serif" font-size="10.00">include/iface/contact.h</text>
</a>
</g>
</g>
<!-- Node1&#45;&gt;Node2 -->
<g id="edge1" class="edge"><title>Node1&#45;&gt;Node2</title>
<path fill="none" stroke="midnightblue" d="M508.376,-219.262C492.376,-209.098 471.124,-195.596 457.753,-187.102"/>
<polygon fill="midnightblue" stroke="midnightblue" points="506.773,-222.39 517.09,-224.799 510.526,-216.482 506.773,-222.39"/>
</g>
<!-- Node3 -->
<g id="node3" class="node"><title>Node3</title>
<g id="a_node3"><a xlink:href="message_8h_source.html" target="_top" xlink:title="include/iface/message.h">
<polygon fill="none" stroke="black" points="103.357,-113 103.357,-131 226.643,-131 226.643,-113 103.357,-113"/>
<text text-anchor="middle" x="165" y="-119" font-family="Helvetica,sans-Serif" font-size="10.00">include/iface/message.h</text>
</a>
</g>
</g>
<!-- Node1&#45;&gt;Node3 -->
<g id="edge12" class="edge"><title>Node1&#45;&gt;Node3</title>
<path fill="none" stroke="midnightblue" d="M493.179,-222.085C462.594,-213.006 417.949,-199.719 379,-188 311.328,-167.639 231.715,-143.376 191.343,-131.05"/>
<polygon fill="midnightblue" stroke="midnightblue" points="492.401,-225.505 502.983,-224.995 494.392,-218.795 492.401,-225.505"/>
</g>
<!-- Node4 -->
<g id="node4" class="node"><title>Node4</title>
<g id="a_node4"><a xlink:href="sys_8h.html" target="_top" xlink:title="include/iface/sys.h">
<polygon fill="none" stroke="red" points="46.1455,-57 46.1455,-75 143.854,-75 143.854,-57 46.1455,-57"/>
<text text-anchor="middle" x="95" y="-63" font-family="Helvetica,sans-Serif" font-size="10.00">include/iface/sys.h</text>
</a>
</g>
</g>
<!-- Node1&#45;&gt;Node4 -->
<g id="edge13" class="edge"><title>Node1&#45;&gt;Node4</title>
<path fill="none" stroke="midnightblue" d="M461.163,-227.404C349.884,-216.755 138.414,-189.33 94,-132 81.144,-115.405 87.4973,-88.6116 91.9329,-75.1997"/>
<polygon fill="midnightblue" stroke="midnightblue" points="461.001,-230.904 471.284,-228.353 461.655,-223.934 461.001,-230.904"/>
</g>
<!-- Node5 -->
<g id="node5" class="node"><title>Node5</title>
<g id="a_node5"><a xlink:href="coproc_8h_source.html" target="_top" xlink:title="include/iface/coproc.h">
<polygon fill="none" stroke="red" points="-0.361816,-1 -0.361816,-19 112.362,-19 112.362,-1 -0.361816,-1"/>
<text text-anchor="middle" x="56" y="-7" font-family="Helvetica,sans-Serif" font-size="10.00">include/iface/coproc.h</text>
</a>
</g>
</g>
<!-- Node1&#45;&gt;Node5 -->
<g id="edge18" class="edge"><title>Node1&#45;&gt;Node5</title>
<path fill="none" stroke="midnightblue" d="M461.139,-229.311C367.935,-223.547 207.057,-210.65 153,-188 86.9028,-160.306 61.1582,-143.47 37,-76 29.7868,-55.8548 42.4331,-31.5005 50.3469,-19.1039"/>
<polygon fill="midnightblue" stroke="midnightblue" points="461.133,-232.817 471.326,-229.929 461.557,-225.83 461.133,-232.817"/>
</g>
<!-- Node6 -->
<g id="node6" class="node"><title>Node6</title>
<g id="a_node6"><a xlink:href="_app_file_8hpp_source.html" target="_top" xlink:title="include/AppFile.hpp">
<polygon fill="none" stroke="red" points="494.082,-57 494.082,-75 597.918,-75 597.918,-57 494.082,-57"/>
<text text-anchor="middle" x="546" y="-63" font-family="Helvetica,sans-Serif" font-size="10.00">include/AppFile.hpp</text>
</a>
</g>
</g>
<!-- Node1&#45;&gt;Node6 -->
<g id="edge17" class="edge"><title>Node1&#45;&gt;Node6</title>
<path fill="none" stroke="midnightblue" d="M531.775,-214.586C535.23,-178.744 542.734,-100.883 545.198,-75.3172"/>
<polygon fill="midnightblue" stroke="midnightblue" points="528.247,-214.704 530.772,-224.993 535.215,-215.375 528.247,-214.704"/>
</g>
<!-- Node11 -->
<g id="node11" class="node"><title>Node11</title>
<g id="a_node11"><a xlink:href="map_8h_source.html" target="_top" xlink:title="include/iface/map.h">
<polygon fill="none" stroke="black" points="557.919,-169 557.919,-187 660.081,-187 660.081,-169 557.919,-169"/>
<text text-anchor="middle" x="609" y="-175" font-family="Helvetica,sans-Serif" font-size="10.00">include/iface/map.h</text>
</a>
</g>
</g>
<!-- Node1&#45;&gt;Node11 -->
<g id="edge14" class="edge"><title>Node1&#45;&gt;Node11</title>
<path fill="none" stroke="midnightblue" d="M550.516,-218.976C565.337,-208.846 584.836,-195.517 597.148,-187.102"/>
<polygon fill="midnightblue" stroke="midnightblue" points="548.279,-216.266 541.998,-224.799 552.229,-222.045 548.279,-216.266"/>
</g>
<!-- Node12 -->
<g id="node12" class="node"><title>Node12</title>
<g id="a_node12"><a xlink:href="_map_8hpp_source.html" target="_top" xlink:title="include/Ui/Map.hpp">
<polygon fill="none" stroke="black" points="635.197,-113 635.197,-131 736.803,-131 736.803,-113 635.197,-113"/>
<text text-anchor="middle" x="686" y="-119" font-family="Helvetica,sans-Serif" font-size="10.00">include/Ui/Map.hpp</text>
</a>
</g>
</g>
<!-- Node1&#45;&gt;Node12 -->
<g id="edge21" class="edge"><title>Node1&#45;&gt;Node12</title>
<path fill="none" stroke="midnightblue" d="M598.59,-224.801C623.793,-218.518 650.628,-207.456 669,-188 683.895,-172.226 686.12,-145.06 686.223,-131.384"/>
<polygon fill="midnightblue" stroke="midnightblue" points="597.638,-221.428 588.663,-227.059 599.19,-228.254 597.638,-221.428"/>
</g>
<!-- Node13 -->
<g id="node13" class="node"><title>Node13</title>
<g id="a_node13"><a xlink:href="_loc_8hpp_source.html" target="_top" xlink:title="include/Loc.hpp">
<polygon fill="none" stroke="black" points="715.973,-169 715.973,-187 802.027,-187 802.027,-169 715.973,-169"/>
<text text-anchor="middle" x="759" y="-175" font-family="Helvetica,sans-Serif" font-size="10.00">include/Loc.hpp</text>
</a>
</g>
</g>
<!-- Node1&#45;&gt;Node13 -->
<g id="edge19" class="edge"><title>Node1&#45;&gt;Node13</title>
<path fill="none" stroke="midnightblue" d="M574.129,-222.594C618.121,-212.22 684.751,-196.508 724.857,-187.051"/>
<polygon fill="midnightblue" stroke="midnightblue" points="573.213,-219.214 564.284,-224.916 574.82,-226.027 573.213,-219.214"/>
</g>
<!-- Node14 -->
<g id="node14" class="node"><title>Node14</title>
<g id="a_node14"><a xlink:href="_loc_file_8hpp_source.html" target="_top" xlink:title="include/LocFile.hpp">
<polygon fill="none" stroke="black" points="819.917,-169 819.917,-187 922.083,-187 922.083,-169 819.917,-169"/>
<text text-anchor="middle" x="871" y="-175" font-family="Helvetica,sans-Serif" font-size="10.00">include/LocFile.hpp</text>
</a>
</g>
</g>
<!-- Node1&#45;&gt;Node14 -->
<g id="edge20" class="edge"><title>Node1&#45;&gt;Node14</title>
<path fill="none" stroke="midnightblue" d="M590.85,-223.364C656.278,-213.003 759.119,-196.717 820.317,-187.026"/>
<polygon fill="midnightblue" stroke="midnightblue" points="590.012,-219.953 580.683,-224.974 591.107,-226.867 590.012,-219.953"/>
</g>
<!-- Node2&#45;&gt;Node3 -->
<g id="edge2" class="edge"><title>Node2&#45;&gt;Node3</title>
<path fill="none" stroke="midnightblue" d="M393.382,-167.045C339.675,-156.687 256.609,-140.668 206.845,-131.07"/>
<polygon fill="midnightblue" stroke="midnightblue" points="392.902,-170.517 403.384,-168.974 394.227,-163.644 392.902,-170.517"/>
</g>
<!-- Node2&#45;&gt;Node6 -->
<g id="edge8" class="edge"><title>Node2&#45;&gt;Node6</title>
<path fill="none" stroke="midnightblue" d="M468.548,-163.56C481.258,-155.523 496.625,-144.462 508,-132 524.214,-114.235 536.751,-88.4281 542.521,-75.3169"/>
<polygon fill="midnightblue" stroke="midnightblue" points="466.577,-160.662 459.858,-168.855 470.219,-166.64 466.577,-160.662"/>
</g>
<!-- Node9 -->
<g id="node9" class="node"><title>Node9</title>
<g id="a_node9"><a xlink:href="_contact_8hpp_source.html" target="_top" xlink:title="include/Contact.hpp">
<polygon fill="none" stroke="black" points="394.803,-113 394.803,-131 499.197,-131 499.197,-113 394.803,-113"/>
<text text-anchor="middle" x="447" y="-119" font-family="Helvetica,sans-Serif" font-size="10.00">include/Contact.hpp</text>
</a>
</g>
</g>
<!-- Node2&#45;&gt;Node9 -->
<g id="edge9" class="edge"><title>Node2&#45;&gt;Node9</title>
<path fill="none" stroke="midnightblue" d="M445.692,-158.329C446.034,-149.077 446.43,-138.38 446.696,-131.201"/>
<polygon fill="midnightblue" stroke="midnightblue" points="442.185,-158.44 445.312,-168.562 449.18,-158.699 442.185,-158.44"/>
</g>
<!-- Node10 -->
<g id="node10" class="node"><title>Node10</title>
<g id="a_node10"><a xlink:href="_contact_group_8hpp_source.html" target="_top" xlink:title="include/ContactGroup.hpp">
<polygon fill="none" stroke="black" points="244.907,-113 244.907,-131 377.093,-131 377.093,-113 244.907,-113"/>
<text text-anchor="middle" x="311" y="-119" font-family="Helvetica,sans-Serif" font-size="10.00">include/ContactGroup.hpp</text>
</a>
</g>
</g>
<!-- Node2&#45;&gt;Node10 -->
<g id="edge11" class="edge"><title>Node2&#45;&gt;Node10</title>
<path fill="none" stroke="midnightblue" d="M415.378,-165.063C389.808,-154.758 353.557,-140.15 331.198,-131.14"/>
<polygon fill="midnightblue" stroke="midnightblue" points="414.355,-168.424 424.939,-168.916 416.972,-161.932 414.355,-168.424"/>
</g>
<!-- Node3&#45;&gt;Node4 -->
<g id="edge3" class="edge"><title>Node3&#45;&gt;Node4</title>
<path fill="none" stroke="midnightblue" d="M146.126,-106.44C133.177,-96.4506 116.459,-83.554 105.732,-75.2786"/>
<polygon fill="midnightblue" stroke="midnightblue" points="144.313,-109.462 154.369,-112.799 148.588,-103.919 144.313,-109.462"/>
</g>
<!-- Node3&#45;&gt;Node6 -->
<g id="edge5" class="edge"><title>Node3&#45;&gt;Node6</title>
<path fill="none" stroke="midnightblue" d="M231.862,-111.524C306.558,-100.937 425.901,-84.0219 493.963,-74.3753"/>
<polygon fill="midnightblue" stroke="midnightblue" points="231.038,-108.105 221.628,-112.974 232.02,-115.036 231.038,-108.105"/>
</g>
<!-- Node7 -->
<g id="node7" class="node"><title>Node7</title>
<g id="a_node7"><a xlink:href="_message_8hpp_source.html" target="_top" xlink:title="include/Message.hpp">
<polygon fill="none" stroke="red" points="353.747,-57 353.747,-75 464.253,-75 464.253,-57 353.747,-57"/>
<text text-anchor="middle" x="409" y="-63" font-family="Helvetica,sans-Serif" font-size="10.00">include/Message.hpp</text>
</a>
</g>
</g>
<!-- Node3&#45;&gt;Node7 -->
<g id="edge6" class="edge"><title>Node3&#45;&gt;Node7</title>
<path fill="none" stroke="midnightblue" d="M211.154,-110.786C257.985,-100.421 329.53,-84.5877 372.535,-75.0701"/>
<polygon fill="midnightblue" stroke="midnightblue" points="210.273,-107.396 201.266,-112.974 211.786,-114.23 210.273,-107.396"/>
</g>
<!-- Node8 -->
<g id="node8" class="node"><title>Node8</title>
<g id="a_node8"><a xlink:href="_message_thread_8hpp_source.html" target="_top" xlink:title="include/MessageThread.hpp">
<polygon fill="none" stroke="black" points="161.904,-57 161.904,-75 304.096,-75 304.096,-57 161.904,-57"/>
<text text-anchor="middle" x="233" y="-63" font-family="Helvetica,sans-Serif" font-size="10.00">include/MessageThread.hpp</text>
</a>
</g>
</g>
<!-- Node3&#45;&gt;Node8 -->
<g id="edge7" class="edge"><title>Node3&#45;&gt;Node8</title>
<path fill="none" stroke="midnightblue" d="M183.335,-106.44C195.914,-96.4506 212.154,-83.554 222.575,-75.2786"/>
<polygon fill="midnightblue" stroke="midnightblue" points="180.982,-103.839 175.328,-112.799 185.335,-109.321 180.982,-103.839"/>
</g>
<!-- Node4&#45;&gt;Node5 -->
<g id="edge4" class="edge"><title>Node4&#45;&gt;Node5</title>
<path fill="none" stroke="midnightblue" d="M83.037,-48.4358C76.0373,-38.744 67.5064,-26.9319 61.9233,-19.2014"/>
<polygon fill="midnightblue" stroke="midnightblue" points="80.2139,-50.5049 88.9062,-56.5625 85.8887,-46.4065 80.2139,-50.5049"/>
</g>
<!-- Node9&#45;&gt;Node7 -->
<g id="edge10" class="edge"><title>Node9&#45;&gt;Node7</title>
<path fill="none" stroke="midnightblue" d="M435.134,-104.138C428.354,-94.5034 420.156,-82.8531 414.771,-75.2014"/>
<polygon fill="midnightblue" stroke="midnightblue" points="432.445,-106.399 441.062,-112.562 438.17,-102.37 432.445,-106.399"/>
</g>
<!-- Node11&#45;&gt;Node6 -->
<g id="edge15" class="edge"><title>Node11&#45;&gt;Node6</title>
<path fill="none" stroke="midnightblue" d="M601.971,-159.307C596.398,-145.957 588.063,-127.377 579,-112 571.031,-98.479 559.933,-84.0502 552.857,-75.277"/>
<polygon fill="midnightblue" stroke="midnightblue" points="598.795,-160.79 605.808,-168.731 605.278,-158.15 598.795,-160.79"/>
</g>
<!-- Node11&#45;&gt;Node12 -->
<g id="edge16" class="edge"><title>Node11&#45;&gt;Node12</title>
<path fill="none" stroke="midnightblue" d="M628.996,-162.976C643.442,-152.846 662.448,-139.517 674.448,-131.102"/>
<polygon fill="midnightblue" stroke="midnightblue" points="626.872,-160.191 620.695,-168.799 630.892,-165.922 626.872,-160.191"/>
</g>
</g>
</svg>
