<?xml version="1.0" encoding="UTF-8" standalone="no"?>
<!DOCTYPE svg PUBLIC "-//W3C//DTD SVG 1.1//EN"
 "http://www.w3.org/Graphics/SVG/1.1/DTD/svg11.dtd">
<!-- Generated by graphviz version 2.36.0 (20140111.2315)
 -->
<!-- Title: include/location.h Pages: 1 -->
<svg width="570pt" height="196pt"
 viewBox="0.00 0.00 570.00 196.00" xmlns="http://www.w3.org/2000/svg" xmlns:xlink="http://www.w3.org/1999/xlink">
<g id="graph0" class="graph" transform="scale(1 1) rotate(0) translate(4 192)">
<title>include/location.h</title>
<!-- Node1 -->
<g id="node1" class="node"><title>Node1</title>
<polygon fill="#bfbfbf" stroke="black" points="260.362,-169 260.362,-187 353.638,-187 353.638,-169 260.362,-169"/>
<text text-anchor="middle" x="307" y="-175" font-family="Helvetica,sans-Serif" font-size="10.00">include/location.h</text>
</g>
<!-- Node2 -->
<g id="node2" class="node"><title>Node2</title>
<g id="a_node2"><a xlink:href="_gpx_reader_8hpp_source.html" target="_top" xlink:title="include/GpxReader.hpp">
<polygon fill="none" stroke="black" points="-0.260742,-113 -0.260742,-131 120.261,-131 120.261,-113 -0.260742,-113"/>
<text text-anchor="middle" x="60" y="-119" font-family="Helvetica,sans-Serif" font-size="10.00">include/GpxReader.hpp</text>
</a>
</g>
</g>
<!-- Node1&#45;&gt;Node2 -->
<g id="edge1" class="edge"><title>Node1&#45;&gt;Node2</title>
<path fill="none" stroke="midnightblue" d="M260.278,-166.786C212.872,-156.421 140.447,-140.588 96.9132,-131.07"/>
<polygon fill="midnightblue" stroke="midnightblue" points="259.772,-170.257 270.288,-168.974 261.267,-163.419 259.772,-170.257"/>
</g>
<!-- Node3 -->
<g id="node3" class="node"><title>Node3</title>
<g id="a_node3"><a xlink:href="_location_8hpp_source.html" target="_top" xlink:title="include/Location.hpp">
<polygon fill="none" stroke="black" points="138.131,-113 138.131,-131 245.869,-131 245.869,-113 138.131,-113"/>
<text text-anchor="middle" x="192" y="-119" font-family="Helvetica,sans-Serif" font-size="10.00">include/Location.hpp</text>
</a>
</g>
</g>
<!-- Node1&#45;&gt;Node3 -->
<g id="edge2" class="edge"><title>Node1&#45;&gt;Node3</title>
<path fill="none" stroke="midnightblue" d="M280.436,-164.526C258.534,-154.242 228.105,-139.954 209.254,-131.102"/>
<polygon fill="midnightblue" stroke="midnightblue" points="278.995,-167.716 289.534,-168.799 281.97,-161.38 278.995,-167.716"/>
</g>
<!-- Node6 -->
<g id="node6" class="node"><title>Node6</title>
<g id="a_node6"><a xlink:href="map_8h_source.html" target="_top" xlink:title="include/map.h">
<polygon fill="none" stroke="black" points="301.87,-113 301.87,-131 380.13,-131 380.13,-113 301.87,-113"/>
<text text-anchor="middle" x="341" y="-119" font-family="Helvetica,sans-Serif" font-size="10.00">include/map.h</text>
</a>
</g>
</g>
<!-- Node1&#45;&gt;Node6 -->
<g id="edge5" class="edge"><title>Node1&#45;&gt;Node6</title>
<path fill="none" stroke="midnightblue" d="M317.805,-159.84C323.834,-150.264 331.068,-138.774 335.836,-131.201"/>
<polygon fill="midnightblue" stroke="midnightblue" points="314.679,-158.235 312.312,-168.562 320.602,-161.965 314.679,-158.235"/>
</g>
<!-- Node7 -->
<g id="node7" class="node"><title>Node7</title>
<g id="a_node7"><a xlink:href="_map_file_8hpp_source.html" target="_top" xlink:title="include/MapFile.hpp">
<polygon fill="none" stroke="black" points="236.251,-57 236.251,-75 341.749,-75 341.749,-57 236.251,-57"/>
<text text-anchor="middle" x="289" y="-63" font-family="Helvetica,sans-Serif" font-size="10.00">include/MapFile.hpp</text>
</a>
</g>
</g>
<!-- Node1&#45;&gt;Node7 -->
<g id="edge9" class="edge"><title>Node1&#45;&gt;Node7</title>
<path fill="none" stroke="midnightblue" d="M300.413,-159.298C297.646,-151.107 294.684,-141.177 293,-132 289.285,-111.761 288.83,-87.4463 288.878,-75.0804"/>
<polygon fill="midnightblue" stroke="midnightblue" points="297.164,-160.608 303.814,-168.855 303.759,-158.261 297.164,-160.608"/>
</g>
<!-- Node8 -->
<g id="node8" class="node"><title>Node8</title>
<g id="a_node8"><a xlink:href="_map_8hpp_source.html" target="_top" xlink:title="include/Ui/Map.hpp">
<polygon fill="none" stroke="black" points="319.197,-1 319.197,-19 420.803,-19 420.803,-1 319.197,-1"/>
<text text-anchor="middle" x="370" y="-7" font-family="Helvetica,sans-Serif" font-size="10.00">include/Ui/Map.hpp</text>
</a>
</g>
</g>
<!-- Node1&#45;&gt;Node8 -->
<g id="edge12" class="edge"><title>Node1&#45;&gt;Node8</title>
<path fill="none" stroke="midnightblue" d="M346.488,-165.317C362.626,-158.381 379.665,-147.77 389,-132 411.204,-94.4869 385.663,-39.4621 374.605,-19.0269"/>
<polygon fill="midnightblue" stroke="midnightblue" points="345.181,-162.07 337.156,-168.988 347.743,-168.585 345.181,-162.07"/>
</g>
<!-- Node9 -->
<g id="node9" class="node"><title>Node9</title>
<g id="a_node9"><a xlink:href="message_8h_source.html" target="_top" xlink:title="include/message.h">
<polygon fill="none" stroke="black" points="442.308,-113 442.308,-131 541.692,-131 541.692,-113 442.308,-113"/>
<text text-anchor="middle" x="492" y="-119" font-family="Helvetica,sans-Serif" font-size="10.00">include/message.h</text>
</a>
</g>
</g>
<!-- Node1&#45;&gt;Node9 -->
<g id="edge10" class="edge"><title>Node1&#45;&gt;Node9</title>
<path fill="none" stroke="midnightblue" d="M344.689,-165.999C380.221,-155.627 432.631,-140.329 464.417,-131.051"/>
<polygon fill="midnightblue" stroke="midnightblue" points="343.315,-162.754 334.696,-168.916 345.277,-169.473 343.315,-162.754"/>
</g>
<!-- Node4 -->
<g id="node4" class="node"><title>Node4</title>
<g id="a_node4"><a xlink:href="_map_item_8hpp_source.html" target="_top" xlink:title="include/MapItem.hpp">
<polygon fill="none" stroke="black" points="109.584,-57 109.584,-75 218.416,-75 218.416,-57 109.584,-57"/>
<text text-anchor="middle" x="164" y="-63" font-family="Helvetica,sans-Serif" font-size="10.00">include/MapItem.hpp</text>
</a>
</g>
</g>
<!-- Node3&#45;&gt;Node4 -->
<g id="edge3" class="edge"><title>Node3&#45;&gt;Node4</title>
<path fill="none" stroke="midnightblue" d="M182.947,-103.54C178.013,-94.0247 172.138,-82.6953 168.253,-75.2014"/>
<polygon fill="midnightblue" stroke="midnightblue" points="179.915,-105.296 187.625,-112.562 186.129,-102.074 179.915,-105.296"/>
</g>
<!-- Node5 -->
<g id="node5" class="node"><title>Node5</title>
<g id="a_node5"><a xlink:href="_map_item_file_8hpp_source.html" target="_top" xlink:title="include/MapItemFile.hpp">
<polygon fill="none" stroke="black" points="101.527,-1 101.527,-19 226.473,-19 226.473,-1 101.527,-1"/>
<text text-anchor="middle" x="164" y="-7" font-family="Helvetica,sans-Serif" font-size="10.00">include/MapItemFile.hpp</text>
</a>
</g>
</g>
<!-- Node4&#45;&gt;Node5 -->
<g id="edge4" class="edge"><title>Node4&#45;&gt;Node5</title>
<path fill="none" stroke="midnightblue" d="M164,-46.3288C164,-37.0774 164,-26.3798 164,-19.2014"/>
<polygon fill="midnightblue" stroke="midnightblue" points="160.5,-46.5625 164,-56.5625 167.5,-46.5625 160.5,-46.5625"/>
</g>
<!-- Node6&#45;&gt;Node7 -->
<g id="edge6" class="edge"><title>Node6&#45;&gt;Node7</title>
<path fill="none" stroke="midnightblue" d="M325.901,-105.32C316.417,-95.471 304.57,-83.1686 296.898,-75.2014"/>
<polygon fill="midnightblue" stroke="midnightblue" points="323.417,-107.787 332.875,-112.562 328.46,-102.932 323.417,-107.787"/>
</g>
<!-- Node6&#45;&gt;Node8 -->
<g id="edge8" class="edge"><title>Node6&#45;&gt;Node8</title>
<path fill="none" stroke="midnightblue" d="M345.744,-103.006C352.134,-78.7676 363.24,-36.6422 367.874,-19.0649"/>
<polygon fill="midnightblue" stroke="midnightblue" points="342.345,-102.17 343.18,-112.732 349.113,-103.955 342.345,-102.17"/>
</g>
<!-- Node7&#45;&gt;Node8 -->
<g id="edge7" class="edge"><title>Node7&#45;&gt;Node8</title>
<path fill="none" stroke="midnightblue" d="M310.035,-50.9765C325.231,-40.8457 345.224,-27.5171 357.847,-19.1017"/>
<polygon fill="midnightblue" stroke="midnightblue" points="307.681,-48.3393 301.302,-56.7986 311.564,-54.1637 307.681,-48.3393"/>
</g>
<!-- Node10 -->
<g id="node10" class="node"><title>Node10</title>
<g id="a_node10"><a xlink:href="_message_file_8hpp_source.html" target="_top" xlink:title="include/MessageFile.hpp">
<polygon fill="none" stroke="black" points="435.69,-57 435.69,-75 562.31,-75 562.31,-57 435.69,-57"/>
<text text-anchor="middle" x="499" y="-63" font-family="Helvetica,sans-Serif" font-size="10.00">include/MessageFile.hpp</text>
</a>
</g>
</g>
<!-- Node9&#45;&gt;Node10 -->
<g id="edge11" class="edge"><title>Node9&#45;&gt;Node10</title>
<path fill="none" stroke="midnightblue" d="M494.381,-102.633C495.589,-93.3129 496.996,-82.4586 497.937,-75.2014"/>
<polygon fill="midnightblue" stroke="midnightblue" points="490.908,-102.196 493.094,-112.562 497.85,-103.095 490.908,-102.196"/>
</g>
</g>
</svg>
