<?xml version="1.0" encoding="UTF-8" standalone="no"?>
<!DOCTYPE svg PUBLIC "-//W3C//DTD SVG 1.1//EN"
 "http://www.w3.org/Graphics/SVG/1.1/DTD/svg11.dtd">
<!-- Generated by graphviz version 2.36.0 (20140111.2315)
 -->
<!-- Title: include/iface/sys.h Pages: 1 -->
<svg width="1489pt" height="420pt"
 viewBox="0.00 0.00 1489.00 420.00" xmlns="http://www.w3.org/2000/svg" xmlns:xlink="http://www.w3.org/1999/xlink">
<g id="graph0" class="graph" transform="scale(1 1) rotate(0) translate(4 416)">
<title>include/iface/sys.h</title>
<!-- Node1 -->
<g id="node1" class="node"><title>Node1</title>
<polygon fill="#bfbfbf" stroke="black" points="767.146,-393 767.146,-411 864.854,-411 864.854,-393 767.146,-393"/>
<text text-anchor="middle" x="816" y="-399" font-family="Helvetica,sans-Serif" font-size="10.00">include/iface/sys.h</text>
</g>
<!-- Node2 -->
<g id="node2" class="node"><title>Node2</title>
<g id="a_node2"><a xlink:href="_app_controller_8hpp_source.html" target="_top" xlink:title="include/AppController.hpp">
<polygon fill="none" stroke="black" points="208.737,-169 208.737,-187 339.263,-187 339.263,-169 208.737,-169"/>
<text text-anchor="middle" x="274" y="-175" font-family="Helvetica,sans-Serif" font-size="10.00">include/AppController.hpp</text>
</a>
</g>
</g>
<!-- Node1&#45;&gt;Node2 -->
<g id="edge1" class="edge"><title>Node1&#45;&gt;Node2</title>
<path fill="none" stroke="midnightblue" d="M757.051,-395.457C697.553,-388.843 610.749,-376.088 584,-356 553.642,-333.202 573.374,-305.225 545,-280 482.521,-224.455 386.678,-198.438 327.3,-187.036"/>
<polygon fill="midnightblue" stroke="midnightblue" points="756.768,-398.946 767.086,-396.543 757.521,-391.987 756.768,-398.946"/>
</g>
<!-- Node15 -->
<g id="node15" class="node"><title>Node15</title>
<g id="a_node15"><a xlink:href="_icon_8hpp_source.html" target="_top" xlink:title="include/Ui/Icon.hpp">
<polygon fill="none" stroke="black" points="364.473,-337 364.473,-355 465.527,-355 465.527,-337 364.473,-337"/>
<text text-anchor="middle" x="415" y="-343" font-family="Helvetica,sans-Serif" font-size="10.00">include/Ui/Icon.hpp</text>
</a>
</g>
</g>
<!-- Node1&#45;&gt;Node15 -->
<g id="edge15" class="edge"><title>Node1&#45;&gt;Node15</title>
<path fill="none" stroke="midnightblue" d="M756.584,-392.999C677.789,-382.388 540.058,-363.841 465.838,-353.846"/>
<polygon fill="midnightblue" stroke="midnightblue" points="756.452,-396.513 766.83,-394.379 757.386,-389.575 756.452,-396.513"/>
</g>
<!-- Node16 -->
<g id="node16" class="node"><title>Node16</title>
<g id="a_node16"><a xlink:href="_button_bar_8hpp_source.html" target="_top" xlink:title="include/Ui/ButtonBar.hpp">
<polygon fill="none" stroke="black" points="27.9609,-281 27.9609,-299 154.039,-299 154.039,-281 27.9609,-281"/>
<text text-anchor="middle" x="91" y="-287" font-family="Helvetica,sans-Serif" font-size="10.00">include/Ui/ButtonBar.hpp</text>
</a>
</g>
</g>
<!-- Node1&#45;&gt;Node16 -->
<g id="edge26" class="edge"><title>Node1&#45;&gt;Node16</title>
<path fill="none" stroke="midnightblue" d="M756.838,-397.959C668.758,-392.815 498.151,-380.478 355,-356 267.297,-341.003 165.615,-312.85 118.091,-299.046"/>
<polygon fill="midnightblue" stroke="midnightblue" points="756.721,-401.458 766.905,-398.536 757.122,-394.469 756.721,-401.458"/>
</g>
<!-- Node21 -->
<g id="node21" class="node"><title>Node21</title>
<g id="a_node21"><a xlink:href="_hio_control_8hpp_source.html" target="_top" xlink:title="include/HioControl.hpp">
<polygon fill="none" stroke="black" points="593.414,-337 593.414,-355 710.586,-355 710.586,-337 593.414,-337"/>
<text text-anchor="middle" x="652" y="-343" font-family="Helvetica,sans-Serif" font-size="10.00">include/HioControl.hpp</text>
</a>
</g>
</g>
<!-- Node1&#45;&gt;Node21 -->
<g id="edge27" class="edge"><title>Node1&#45;&gt;Node21</title>
<path fill="none" stroke="midnightblue" d="M781.775,-389.731C750.294,-379.365 704.388,-364.25 676.452,-355.051"/>
<polygon fill="midnightblue" stroke="midnightblue" points="780.855,-393.113 791.448,-392.916 783.044,-386.464 780.855,-393.113"/>
</g>
<!-- Node22 -->
<g id="node22" class="node"><title>Node22</title>
<g id="a_node22"><a xlink:href="_sys_8hpp_source.html" target="_top" xlink:title="include/Sys.hpp">
<polygon fill="none" stroke="black" points="695.7,-281 695.7,-299 782.3,-299 782.3,-281 695.7,-281"/>
<text text-anchor="middle" x="739" y="-287" font-family="Helvetica,sans-Serif" font-size="10.00">include/Sys.hpp</text>
</a>
</g>
</g>
<!-- Node1&#45;&gt;Node22 -->
<g id="edge36" class="edge"><title>Node1&#45;&gt;Node22</title>
<path fill="none" stroke="midnightblue" d="M792.363,-387.622C780.492,-379.803 766.801,-368.929 758,-356 745.827,-338.117 741.337,-312.362 739.775,-299.289"/>
<polygon fill="midnightblue" stroke="midnightblue" points="790.636,-390.67 800.974,-392.988 794.339,-384.729 790.636,-390.67"/>
</g>
<!-- Node23 -->
<g id="node23" class="node"><title>Node23</title>
<g id="a_node23"><a xlink:href="_button_8hpp_source.html" target="_top" xlink:title="include/Button.hpp">
<polygon fill="none" stroke="black" points="766.579,-337 766.579,-355 865.421,-355 865.421,-337 766.579,-337"/>
<text text-anchor="middle" x="816" y="-343" font-family="Helvetica,sans-Serif" font-size="10.00">include/Button.hpp</text>
</a>
</g>
</g>
<!-- Node1&#45;&gt;Node23 -->
<g id="edge31" class="edge"><title>Node1&#45;&gt;Node23</title>
<path fill="none" stroke="midnightblue" d="M816,-382.329C816,-373.077 816,-362.38 816,-355.201"/>
<polygon fill="midnightblue" stroke="midnightblue" points="812.5,-382.562 816,-392.562 819.5,-382.563 812.5,-382.562"/>
</g>
<!-- Node24 -->
<g id="node24" class="node"><title>Node24</title>
<g id="a_node24"><a xlink:href="coproc_8h_source.html" target="_top" xlink:title="include/iface/coproc.h">
<polygon fill="none" stroke="black" points="883.638,-337 883.638,-355 996.362,-355 996.362,-337 883.638,-337"/>
<text text-anchor="middle" x="940" y="-343" font-family="Helvetica,sans-Serif" font-size="10.00">include/iface/coproc.h</text>
</a>
</g>
</g>
<!-- Node1&#45;&gt;Node24 -->
<g id="edge32" class="edge"><title>Node1&#45;&gt;Node24</title>
<path fill="none" stroke="midnightblue" d="M844.042,-388.788C867.666,-378.5 900.802,-364.07 921.309,-355.14"/>
<polygon fill="midnightblue" stroke="midnightblue" points="842.335,-385.714 834.564,-392.916 845.13,-392.132 842.335,-385.714"/>
</g>
<!-- Node25 -->
<g id="node25" class="node"><title>Node25</title>
<g id="a_node25"><a xlink:href="_measure_8hpp_source.html" target="_top" xlink:title="include/Measure.hpp">
<polygon fill="none" stroke="black" points="1014.58,-337 1014.58,-355 1123.42,-355 1123.42,-337 1014.58,-337"/>
<text text-anchor="middle" x="1069" y="-343" font-family="Helvetica,sans-Serif" font-size="10.00">include/Measure.hpp</text>
</a>
</g>
</g>
<!-- Node1&#45;&gt;Node25 -->
<g id="edge33" class="edge"><title>Node1&#45;&gt;Node25</title>
<path fill="none" stroke="midnightblue" d="M863.552,-390.851C912.103,-380.488 986.505,-364.608 1031.19,-355.07"/>
<polygon fill="midnightblue" stroke="midnightblue" points="862.653,-387.464 853.603,-392.974 864.114,-394.309 862.653,-387.464"/>
</g>
<!-- Node26 -->
<g id="node26" class="node"><title>Node26</title>
<g id="a_node26"><a xlink:href="_motion_8hpp_source.html" target="_top" xlink:title="include/Motion.hpp">
<polygon fill="none" stroke="black" points="1141.03,-337 1141.03,-355 1240.97,-355 1240.97,-337 1141.03,-337"/>
<text text-anchor="middle" x="1191" y="-343" font-family="Helvetica,sans-Serif" font-size="10.00">include/Motion.hpp</text>
</a>
</g>
</g>
<!-- Node1&#45;&gt;Node26 -->
<g id="edge34" class="edge"><title>Node1&#45;&gt;Node26</title>
<path fill="none" stroke="midnightblue" d="M875.237,-392.743C938.753,-383.848 1042.55,-369.191 1132,-356 1134.87,-355.577 1137.82,-355.138 1140.79,-354.693"/>
<polygon fill="midnightblue" stroke="midnightblue" points="874.431,-389.322 865.013,-394.174 875.401,-396.254 874.431,-389.322"/>
</g>
<!-- Node27 -->
<g id="node27" class="node"><title>Node27</title>
<g id="a_node27"><a xlink:href="_sensor_8hpp_source.html" target="_top" xlink:title="include/Sensor.hpp">
<polygon fill="none" stroke="black" points="1259.47,-337 1259.47,-355 1360.53,-355 1360.53,-337 1259.47,-337"/>
<text text-anchor="middle" x="1310" y="-343" font-family="Helvetica,sans-Serif" font-size="10.00">include/Sensor.hpp</text>
</a>
</g>
</g>
<!-- Node1&#45;&gt;Node27 -->
<g id="edge35" class="edge"><title>Node1&#45;&gt;Node27</title>
<path fill="none" stroke="midnightblue" d="M875.157,-395.663C958.618,-387.949 1115.65,-372.759 1249,-356 1252.4,-355.573 1255.9,-355.112 1259.43,-354.632"/>
<polygon fill="midnightblue" stroke="midnightblue" points="874.742,-392.187 865.105,-396.589 875.384,-399.157 874.742,-392.187"/>
</g>
<!-- Node28 -->
<g id="node28" class="node"><title>Node28</title>
<g id="a_node28"><a xlink:href="_font_8hpp_source.html" target="_top" xlink:title="include/Ui/Font.hpp">
<polygon fill="none" stroke="black" points="1378.92,-337 1378.92,-355 1481.08,-355 1481.08,-337 1378.92,-337"/>
<text text-anchor="middle" x="1430" y="-343" font-family="Helvetica,sans-Serif" font-size="10.00">include/Ui/Font.hpp</text>
</a>
</g>
</g>
<!-- Node1&#45;&gt;Node28 -->
<g id="edge37" class="edge"><title>Node1&#45;&gt;Node28</title>
<path fill="none" stroke="midnightblue" d="M874.955,-397.471C976.186,-391.128 1189.5,-376.522 1369,-356 1372.19,-355.635 1375.47,-355.232 1378.78,-354.805"/>
<polygon fill="midnightblue" stroke="midnightblue" points="874.691,-393.981 864.928,-398.095 875.126,-400.967 874.691,-393.981"/>
</g>
<!-- Node3 -->
<g id="node3" class="node"><title>Node3</title>
<g id="a_node3"><a xlink:href="_app_8hpp_source.html" target="_top" xlink:title="include/App.hpp">
<polygon fill="none" stroke="black" points="16.1382,-113 16.1382,-131 103.862,-131 103.862,-113 16.1382,-113"/>
<text text-anchor="middle" x="60" y="-119" font-family="Helvetica,sans-Serif" font-size="10.00">include/App.hpp</text>
</a>
</g>
</g>
<!-- Node2&#45;&gt;Node3 -->
<g id="edge2" class="edge"><title>Node2&#45;&gt;Node3</title>
<path fill="none" stroke="midnightblue" d="M232.242,-166.463C191.127,-156.088 129.228,-140.469 91.907,-131.051"/>
<polygon fill="midnightblue" stroke="midnightblue" points="231.41,-169.863 241.962,-168.916 233.122,-163.075 231.41,-169.863"/>
</g>
<!-- Node4 -->
<g id="node4" class="node"><title>Node4</title>
<g id="a_node4"><a xlink:href="_app_state_8hpp_source.html" target="_top" xlink:title="include/AppState.hpp">
<polygon fill="none" stroke="black" points="121.463,-113 121.463,-131 232.537,-131 232.537,-113 121.463,-113"/>
<text text-anchor="middle" x="177" y="-119" font-family="Helvetica,sans-Serif" font-size="10.00">include/AppState.hpp</text>
</a>
</g>
</g>
<!-- Node2&#45;&gt;Node4 -->
<g id="edge3" class="edge"><title>Node2&#45;&gt;Node4</title>
<path fill="none" stroke="midnightblue" d="M250.341,-163.829C231.974,-153.604 207.097,-139.755 191.553,-131.102"/>
<polygon fill="midnightblue" stroke="midnightblue" points="248.828,-166.993 259.268,-168.799 252.233,-160.876 248.828,-166.993"/>
</g>
<!-- Node5 -->
<g id="node5" class="node"><title>Node5</title>
<g id="a_node5"><a xlink:href="_helper_8hpp_source.html" target="_top" xlink:title="include/Helper/Helper.hpp">
<polygon fill="none" stroke="black" points="289.461,-113 289.461,-131 420.539,-131 420.539,-113 289.461,-113"/>
<text text-anchor="middle" x="355" y="-119" font-family="Helvetica,sans-Serif" font-size="10.00">include/Helper/Helper.hpp</text>
</a>
</g>
</g>
<!-- Node2&#45;&gt;Node5 -->
<g id="edge4" class="edge"><title>Node2&#45;&gt;Node5</title>
<path fill="none" stroke="midnightblue" d="M295.035,-162.976C310.231,-152.846 330.224,-139.517 342.847,-131.102"/>
<polygon fill="midnightblue" stroke="midnightblue" points="292.681,-160.339 286.302,-168.799 296.564,-166.164 292.681,-160.339"/>
</g>
<!-- Node6 -->
<g id="node6" class="node"><title>Node6</title>
<g id="a_node6"><a xlink:href="_list_item_8hpp_source.html" target="_top" xlink:title="include/Ui/ListItem.hpp">
<polygon fill="none" stroke="black" points="438.419,-113 438.419,-131 555.581,-131 555.581,-113 438.419,-113"/>
<text text-anchor="middle" x="497" y="-119" font-family="Helvetica,sans-Serif" font-size="10.00">include/Ui/ListItem.hpp</text>
</a>
</g>
</g>
<!-- Node2&#45;&gt;Node6 -->
<g id="edge5" class="edge"><title>Node2&#45;&gt;Node6</title>
<path fill="none" stroke="midnightblue" d="M317.243,-166.529C360.085,-156.154 424.779,-140.489 463.751,-131.051"/>
<polygon fill="midnightblue" stroke="midnightblue" points="316.281,-163.16 307.385,-168.916 317.928,-169.964 316.281,-163.16"/>
</g>
<!-- Node12 -->
<g id="node12" class="node"><title>Node12</title>
<g id="a_node12"><a xlink:href="_edit_8hpp_source.html" target="_top" xlink:title="include/Ui/Edit.hpp">
<polygon fill="none" stroke="black" points="612.308,-113 612.308,-131 711.692,-131 711.692,-113 612.308,-113"/>
<text text-anchor="middle" x="662" y="-119" font-family="Helvetica,sans-Serif" font-size="10.00">include/Ui/Edit.hpp</text>
</a>
</g>
</g>
<!-- Node2&#45;&gt;Node12 -->
<g id="edge11" class="edge"><title>Node2&#45;&gt;Node12</title>
<path fill="none" stroke="midnightblue" d="M341.768,-167.568C418.935,-156.829 543.194,-139.535 612.039,-129.953"/>
<polygon fill="midnightblue" stroke="midnightblue" points="341.091,-164.129 331.669,-168.974 342.056,-171.062 341.091,-164.129"/>
</g>
<!-- Node14 -->
<g id="node14" class="node"><title>Node14</title>
<g id="a_node14"><a xlink:href="_screen_8hpp_source.html" target="_top" xlink:title="include/Ui/Screen.hpp">
<polygon fill="none" stroke="black" points="-0.918457,-57 -0.918457,-75 112.918,-75 112.918,-57 -0.918457,-57"/>
<text text-anchor="middle" x="56" y="-63" font-family="Helvetica,sans-Serif" font-size="10.00">include/Ui/Screen.hpp</text>
</a>
</g>
</g>
<!-- Node2&#45;&gt;Node14 -->
<g id="edge13" class="edge"><title>Node2&#45;&gt;Node14</title>
<path fill="none" stroke="midnightblue" d="M269.349,-158.803C264.632,-144.025 255.863,-123.771 241,-112 220.918,-96.0958 157.334,-82.9539 110.289,-75.0597"/>
<polygon fill="midnightblue" stroke="midnightblue" points="266.092,-160.147 272.2,-168.805 272.824,-158.228 266.092,-160.147"/>
</g>
<!-- Node7 -->
<g id="node7" class="node"><title>Node7</title>
<g id="a_node7"><a xlink:href="_discover_8hpp_source.html" target="_top" xlink:title="include/Ui/Discover.hpp">
<polygon fill="none" stroke="black" points="436.749,-57 436.749,-75 557.251,-75 557.251,-57 436.749,-57"/>
<text text-anchor="middle" x="497" y="-63" font-family="Helvetica,sans-Serif" font-size="10.00">include/Ui/Discover.hpp</text>
</a>
</g>
</g>
<!-- Node6&#45;&gt;Node7 -->
<g id="edge6" class="edge"><title>Node6&#45;&gt;Node7</title>
<path fill="none" stroke="midnightblue" d="M497,-102.329C497,-93.0774 497,-82.3798 497,-75.2014"/>
<polygon fill="midnightblue" stroke="midnightblue" points="493.5,-102.562 497,-112.562 500.5,-102.563 493.5,-102.562"/>
</g>
<!-- Node8 -->
<g id="node8" class="node"><title>Node8</title>
<g id="a_node8"><a xlink:href="_map_menu_8hpp_source.html" target="_top" xlink:title="include/Ui/MapMenu.hpp">
<polygon fill="none" stroke="black" points="575.69,-57 575.69,-75 702.31,-75 702.31,-57 575.69,-57"/>
<text text-anchor="middle" x="639" y="-63" font-family="Helvetica,sans-Serif" font-size="10.00">include/Ui/MapMenu.hpp</text>
</a>
</g>
</g>
<!-- Node6&#45;&gt;Node8 -->
<g id="edge7" class="edge"><title>Node6&#45;&gt;Node8</title>
<path fill="none" stroke="midnightblue" d="M527.674,-109.335C554.806,-99.0175 593.693,-84.2294 617.596,-75.1396"/>
<polygon fill="midnightblue" stroke="midnightblue" points="526.362,-106.09 518.259,-112.916 528.85,-112.633 526.362,-106.09"/>
</g>
<!-- Node10 -->
<g id="node10" class="node"><title>Node10</title>
<g id="a_node10"><a xlink:href="_message_list_8hpp_source.html" target="_top" xlink:title="include/Ui/MessageList.hpp">
<polygon fill="none" stroke="black" points="130.855,-57 130.855,-75 269.145,-75 269.145,-57 130.855,-57"/>
<text text-anchor="middle" x="200" y="-63" font-family="Helvetica,sans-Serif" font-size="10.00">include/Ui/MessageList.hpp</text>
</a>
</g>
</g>
<!-- Node6&#45;&gt;Node10 -->
<g id="edge9" class="edge"><title>Node6&#45;&gt;Node10</title>
<path fill="none" stroke="midnightblue" d="M442.957,-111.174C386.014,-100.821 297.391,-84.7074 244.386,-75.0701"/>
<polygon fill="midnightblue" stroke="midnightblue" points="442.392,-114.629 452.857,-112.974 443.644,-107.741 442.392,-114.629"/>
</g>
<!-- Node11 -->
<g id="node11" class="node"><title>Node11</title>
<g id="a_node11"><a xlink:href="_morse_input_8hpp_source.html" target="_top" xlink:title="include/Ui/MorseInput.hpp">
<polygon fill="none" stroke="black" points="286.912,-57 286.912,-75 419.088,-75 419.088,-57 286.912,-57"/>
<text text-anchor="middle" x="353" y="-63" font-family="Helvetica,sans-Serif" font-size="10.00">include/Ui/MorseInput.hpp</text>
</a>
</g>
</g>
<!-- Node6&#45;&gt;Node11 -->
<g id="edge10" class="edge"><title>Node6&#45;&gt;Node11</title>
<path fill="none" stroke="midnightblue" d="M465.894,-109.335C438.38,-99.0175 398.945,-84.2294 374.706,-75.1396"/>
<polygon fill="midnightblue" stroke="midnightblue" points="464.849,-112.682 475.442,-112.916 467.307,-106.127 464.849,-112.682"/>
</g>
<!-- Node9 -->
<g id="node9" class="node"><title>Node9</title>
<g id="a_node9"><a xlink:href="_map_8hpp_source.html" target="_top" xlink:title="include/Ui/Map.hpp">
<polygon fill="none" stroke="black" points="296.197,-1 296.197,-19 397.803,-19 397.803,-1 296.197,-1"/>
<text text-anchor="middle" x="347" y="-7" font-family="Helvetica,sans-Serif" font-size="10.00">include/Ui/Map.hpp</text>
</a>
</g>
</g>
<!-- Node8&#45;&gt;Node9 -->
<g id="edge8" class="edge"><title>Node8&#45;&gt;Node9</title>
<path fill="none" stroke="midnightblue" d="M585.519,-55.1096C529.522,-44.754 442.643,-28.6875 390.638,-19.0701"/>
<polygon fill="midnightblue" stroke="midnightblue" points="585.13,-58.597 595.6,-56.974 586.403,-51.7138 585.13,-58.597"/>
</g>
<!-- Node13 -->
<g id="node13" class="node"><title>Node13</title>
<g id="a_node13"><a xlink:href="_edit_sys_8hpp_source.html" target="_top" xlink:title="include/Ui/EditSys.hpp">
<polygon fill="none" stroke="black" points="719.973,-57 719.973,-75 836.027,-75 836.027,-57 719.973,-57"/>
<text text-anchor="middle" x="778" y="-63" font-family="Helvetica,sans-Serif" font-size="10.00">include/Ui/EditSys.hpp</text>
</a>
</g>
</g>
<!-- Node12&#45;&gt;Node13 -->
<g id="edge12" class="edge"><title>Node12&#45;&gt;Node13</title>
<path fill="none" stroke="midnightblue" d="M688.529,-108.65C710.609,-98.3716 741.417,-84.0301 760.515,-75.1396"/>
<polygon fill="midnightblue" stroke="midnightblue" points="686.955,-105.522 679.366,-112.916 689.909,-111.868 686.955,-105.522"/>
</g>
<!-- Node14&#45;&gt;Node9 -->
<g id="edge14" class="edge"><title>Node14&#45;&gt;Node9</title>
<path fill="none" stroke="midnightblue" d="M109.298,-55.1096C165.103,-44.754 251.684,-28.6875 303.511,-19.0701"/>
<polygon fill="midnightblue" stroke="midnightblue" points="108.445,-51.7081 99.2514,-56.974 109.722,-58.5906 108.445,-51.7081"/>
</g>
<!-- Node15&#45;&gt;Node6 -->
<g id="edge22" class="edge"><title>Node15&#45;&gt;Node6</title>
<path fill="none" stroke="midnightblue" d="M475.825,-339.344C501.544,-333.593 529.162,-322.242 545,-300 584.521,-244.497 524.426,-158.102 503.643,-131.248"/>
<polygon fill="midnightblue" stroke="midnightblue" points="474.843,-335.971 465.716,-341.351 476.206,-342.837 474.843,-335.971"/>
</g>
<!-- Node15&#45;&gt;Node16 -->
<g id="edge16" class="edge"><title>Node15&#45;&gt;Node16</title>
<path fill="none" stroke="midnightblue" d="M356.799,-335.3C294.616,-324.936 197.183,-308.697 139.156,-299.026"/>
<polygon fill="midnightblue" stroke="midnightblue" points="356.404,-338.782 366.844,-336.974 357.555,-331.878 356.404,-338.782"/>
</g>
<!-- Node18 -->
<g id="node18" class="node"><title>Node18</title>
<g id="a_node18"><a xlink:href="_gfx_8hpp_source.html" target="_top" xlink:title="include/Ui/Gfx.hpp">
<polygon fill="none" stroke="black" points="304.146,-281 304.146,-299 401.854,-299 401.854,-281 304.146,-281"/>
<text text-anchor="middle" x="353" y="-287" font-family="Helvetica,sans-Serif" font-size="10.00">include/Ui/Gfx.hpp</text>
</a>
</g>
</g>
<!-- Node15&#45;&gt;Node18 -->
<g id="edge23" class="edge"><title>Node15&#45;&gt;Node18</title>
<path fill="none" stroke="midnightblue" d="M397.951,-330.151C386.529,-320.203 371.915,-307.474 362.505,-299.279"/>
<polygon fill="midnightblue" stroke="midnightblue" points="395.744,-332.87 405.584,-336.799 400.341,-327.591 395.744,-332.87"/>
</g>
<!-- Node19 -->
<g id="node19" class="node"><title>Node19</title>
<g id="a_node19"><a xlink:href="_graphic_8hpp_source.html" target="_top" xlink:title="include/Ui/Graphic.hpp">
<polygon fill="none" stroke="black" points="419.417,-281 419.417,-299 536.583,-299 536.583,-281 419.417,-281"/>
<text text-anchor="middle" x="478" y="-287" font-family="Helvetica,sans-Serif" font-size="10.00">include/Ui/Graphic.hpp</text>
</a>
</g>
</g>
<!-- Node15&#45;&gt;Node19 -->
<g id="edge24" class="edge"><title>Node15&#45;&gt;Node19</title>
<path fill="none" stroke="midnightblue" d="M432.324,-330.151C443.93,-320.203 458.78,-307.474 468.342,-299.279"/>
<polygon fill="midnightblue" stroke="midnightblue" points="429.883,-327.633 424.568,-336.799 434.439,-332.948 429.883,-327.633"/>
</g>
<!-- Node20 -->
<g id="node20" class="node"><title>Node20</title>
<g id="a_node20"><a xlink:href="_prompt_8hpp_source.html" target="_top" xlink:title="include/Ui/Prompt.hpp">
<polygon fill="none" stroke="black" points="171.808,-281 171.808,-299 286.192,-299 286.192,-281 171.808,-281"/>
<text text-anchor="middle" x="229" y="-287" font-family="Helvetica,sans-Serif" font-size="10.00">include/Ui/Prompt.hpp</text>
</a>
</g>
</g>
<!-- Node15&#45;&gt;Node20 -->
<g id="edge25" class="edge"><title>Node15&#45;&gt;Node20</title>
<path fill="none" stroke="midnightblue" d="M377.107,-333.999C341.383,-323.627 288.69,-308.329 256.732,-299.051"/>
<polygon fill="midnightblue" stroke="midnightblue" points="376.575,-337.489 387.154,-336.916 378.526,-330.766 376.575,-337.489"/>
</g>
<!-- Node16&#45;&gt;Node2 -->
<g id="edge17" class="edge"><title>Node16&#45;&gt;Node2</title>
<path fill="none" stroke="midnightblue" d="M116.871,-276.144C133.904,-267.476 156.562,-255.553 176,-244 208.117,-224.911 244.395,-199.898 262.473,-187.185"/>
<polygon fill="midnightblue" stroke="midnightblue" points="114.909,-273.213 107.559,-280.844 118.064,-279.462 114.909,-273.213"/>
</g>
<!-- Node17 -->
<g id="node17" class="node"><title>Node17</title>
<g id="a_node17"><a xlink:href="_display_8hpp_source.html" target="_top" xlink:title="include/Display.hpp">
<polygon fill="none" stroke="black" points="66.0093,-225 66.0093,-243 167.991,-243 167.991,-225 66.0093,-225"/>
<text text-anchor="middle" x="117" y="-231" font-family="Helvetica,sans-Serif" font-size="10.00">include/Display.hpp</text>
</a>
</g>
</g>
<!-- Node16&#45;&gt;Node17 -->
<g id="edge18" class="edge"><title>Node16&#45;&gt;Node17</title>
<path fill="none" stroke="midnightblue" d="M99.4067,-271.54C103.988,-262.025 109.443,-250.695 113.051,-243.201"/>
<polygon fill="midnightblue" stroke="midnightblue" points="96.2472,-270.034 95.0625,-280.562 102.554,-273.071 96.2472,-270.034"/>
</g>
<!-- Node17&#45;&gt;Node2 -->
<g id="edge19" class="edge"><title>Node17&#45;&gt;Node2</title>
<path fill="none" stroke="midnightblue" d="M150.157,-221.596C180.282,-211.234 223.964,-196.21 250.592,-187.051"/>
<polygon fill="midnightblue" stroke="midnightblue" points="148.822,-218.353 140.504,-224.916 151.099,-224.973 148.822,-218.353"/>
</g>
<!-- Node17&#45;&gt;Node3 -->
<g id="edge20" class="edge"><title>Node17&#45;&gt;Node3</title>
<path fill="none" stroke="midnightblue" d="M108.013,-215.657C95.5103,-191.529 73.3694,-148.801 64.1791,-131.065"/>
<polygon fill="midnightblue" stroke="midnightblue" points="105.007,-217.464 112.716,-224.732 111.222,-214.243 105.007,-217.464"/>
</g>
<!-- Node17&#45;&gt;Node4 -->
<g id="edge21" class="edge"><title>Node17&#45;&gt;Node4</title>
<path fill="none" stroke="midnightblue" d="M126.46,-215.657C139.621,-191.529 162.927,-148.801 172.601,-131.065"/>
<polygon fill="midnightblue" stroke="midnightblue" points="123.226,-214.277 121.51,-224.732 129.371,-217.629 123.226,-214.277"/>
</g>
<!-- Node21&#45;&gt;Node2 -->
<g id="edge28" class="edge"><title>Node21&#45;&gt;Node2</title>
<path fill="none" stroke="midnightblue" d="M646.667,-327.079C637.576,-299.913 616.338,-248.85 579,-224 540.791,-198.571 416.894,-187.017 339.265,-182.16"/>
<polygon fill="midnightblue" stroke="midnightblue" points="643.393,-328.335 649.744,-336.815 650.068,-326.226 643.393,-328.335"/>
</g>
<!-- Node21&#45;&gt;Node22 -->
<g id="edge29" class="edge"><title>Node21&#45;&gt;Node22</title>
<path fill="none" stroke="midnightblue" d="M674.133,-331.262C690.509,-321.098 712.261,-307.596 725.947,-299.102"/>
<polygon fill="midnightblue" stroke="midnightblue" points="671.864,-328.551 665.213,-336.799 675.556,-334.499 671.864,-328.551"/>
</g>
<!-- Node22&#45;&gt;Node13 -->
<g id="edge30" class="edge"><title>Node22&#45;&gt;Node13</title>
<path fill="none" stroke="midnightblue" d="M742.18,-270.897C750.197,-225.261 770.994,-106.88 776.594,-75.0045"/>
<polygon fill="midnightblue" stroke="midnightblue" points="738.717,-270.381 740.434,-280.836 745.612,-271.592 738.717,-270.381"/>
</g>
</g>
</svg>
